%TF.GenerationSoftware,KiCad,Pcbnew,4.0.5-e0-6337~49~ubuntu16.04.1*%
%TF.CreationDate,2017-08-06T10:20:16-07:00*%
%TF.ProjectId,mcphail-photodiode-detector-board,6D63706861696C2D70686F746F64696F,1.0*%
%TF.FileFunction,Legend,Top*%
%FSLAX46Y46*%
G04 Gerber Fmt 4.6, Leading zero omitted, Abs format (unit mm)*
G04 Created by KiCad (PCBNEW 4.0.5-e0-6337~49~ubuntu16.04.1) date Sun Aug  6 10:20:16 2017*
%MOMM*%
%LPD*%
G01*
G04 APERTURE LIST*
%ADD10C,0.350000*%
%ADD11C,0.152400*%
%ADD12C,0.300000*%
%ADD13C,0.150000*%
%ADD14C,0.049784*%
%ADD15C,0.250000*%
%ADD16R,2.184400X2.184400*%
%ADD17O,2.184400X2.184400*%
%ADD18R,4.702400X0.902400*%
G04 APERTURE END LIST*
D10*
D11*
X114469335Y-85803619D02*
X114662859Y-85803619D01*
X114759620Y-85755238D01*
X114808001Y-85706857D01*
X114904763Y-85561714D01*
X114953144Y-85368190D01*
X114953144Y-84981143D01*
X114904763Y-84884381D01*
X114856382Y-84836000D01*
X114759620Y-84787619D01*
X114566097Y-84787619D01*
X114469335Y-84836000D01*
X114420954Y-84884381D01*
X114372573Y-84981143D01*
X114372573Y-85223048D01*
X114420954Y-85319810D01*
X114469335Y-85368190D01*
X114566097Y-85416571D01*
X114759620Y-85416571D01*
X114856382Y-85368190D01*
X114904763Y-85319810D01*
X114953144Y-85223048D01*
X115824001Y-85126286D02*
X115824001Y-85803619D01*
X115582097Y-84739238D02*
X115340192Y-85464952D01*
X115969144Y-85464952D01*
X116549716Y-84787619D02*
X116646477Y-84787619D01*
X116743239Y-84836000D01*
X116791620Y-84884381D01*
X116840001Y-84981143D01*
X116888382Y-85174667D01*
X116888382Y-85416571D01*
X116840001Y-85610095D01*
X116791620Y-85706857D01*
X116743239Y-85755238D01*
X116646477Y-85803619D01*
X116549716Y-85803619D01*
X116452954Y-85755238D01*
X116404573Y-85706857D01*
X116356192Y-85610095D01*
X116307811Y-85416571D01*
X116307811Y-85174667D01*
X116356192Y-84981143D01*
X116404573Y-84884381D01*
X116452954Y-84836000D01*
X116549716Y-84787619D01*
X117323811Y-85126286D02*
X117323811Y-85803619D01*
X117323811Y-85223048D02*
X117372192Y-85174667D01*
X117468954Y-85126286D01*
X117614096Y-85126286D01*
X117710858Y-85174667D01*
X117759239Y-85271429D01*
X117759239Y-85803619D01*
X118243049Y-85803619D02*
X118243049Y-85126286D01*
X118243049Y-85223048D02*
X118291430Y-85174667D01*
X118388192Y-85126286D01*
X118533334Y-85126286D01*
X118630096Y-85174667D01*
X118678477Y-85271429D01*
X118678477Y-85803619D01*
X118678477Y-85271429D02*
X118726858Y-85174667D01*
X118823620Y-85126286D01*
X118968763Y-85126286D01*
X119065525Y-85174667D01*
X119113906Y-85271429D01*
X119113906Y-85803619D01*
X120371811Y-85803619D02*
X120371811Y-84787619D01*
X120758858Y-84787619D01*
X120855620Y-84836000D01*
X120904001Y-84884381D01*
X120952382Y-84981143D01*
X120952382Y-85126286D01*
X120904001Y-85223048D01*
X120855620Y-85271429D01*
X120758858Y-85319810D01*
X120371811Y-85319810D01*
X121387811Y-85803619D02*
X121387811Y-84787619D01*
X121823239Y-85803619D02*
X121823239Y-85271429D01*
X121774858Y-85174667D01*
X121678096Y-85126286D01*
X121532954Y-85126286D01*
X121436192Y-85174667D01*
X121387811Y-85223048D01*
X122452192Y-85803619D02*
X122355430Y-85755238D01*
X122307049Y-85706857D01*
X122258668Y-85610095D01*
X122258668Y-85319810D01*
X122307049Y-85223048D01*
X122355430Y-85174667D01*
X122452192Y-85126286D01*
X122597334Y-85126286D01*
X122694096Y-85174667D01*
X122742477Y-85223048D01*
X122790858Y-85319810D01*
X122790858Y-85610095D01*
X122742477Y-85706857D01*
X122694096Y-85755238D01*
X122597334Y-85803619D01*
X122452192Y-85803619D01*
X123081144Y-85126286D02*
X123468192Y-85126286D01*
X123226287Y-84787619D02*
X123226287Y-85658476D01*
X123274668Y-85755238D01*
X123371430Y-85803619D01*
X123468192Y-85803619D01*
X123952001Y-85803619D02*
X123855239Y-85755238D01*
X123806858Y-85706857D01*
X123758477Y-85610095D01*
X123758477Y-85319810D01*
X123806858Y-85223048D01*
X123855239Y-85174667D01*
X123952001Y-85126286D01*
X124097143Y-85126286D01*
X124193905Y-85174667D01*
X124242286Y-85223048D01*
X124290667Y-85319810D01*
X124290667Y-85610095D01*
X124242286Y-85706857D01*
X124193905Y-85755238D01*
X124097143Y-85803619D01*
X123952001Y-85803619D01*
X125161524Y-85803619D02*
X125161524Y-84787619D01*
X125161524Y-85755238D02*
X125064762Y-85803619D01*
X124871239Y-85803619D01*
X124774477Y-85755238D01*
X124726096Y-85706857D01*
X124677715Y-85610095D01*
X124677715Y-85319810D01*
X124726096Y-85223048D01*
X124774477Y-85174667D01*
X124871239Y-85126286D01*
X125064762Y-85126286D01*
X125161524Y-85174667D01*
X125645334Y-85803619D02*
X125645334Y-85126286D01*
X125645334Y-84787619D02*
X125596953Y-84836000D01*
X125645334Y-84884381D01*
X125693715Y-84836000D01*
X125645334Y-84787619D01*
X125645334Y-84884381D01*
X126274287Y-85803619D02*
X126177525Y-85755238D01*
X126129144Y-85706857D01*
X126080763Y-85610095D01*
X126080763Y-85319810D01*
X126129144Y-85223048D01*
X126177525Y-85174667D01*
X126274287Y-85126286D01*
X126419429Y-85126286D01*
X126516191Y-85174667D01*
X126564572Y-85223048D01*
X126612953Y-85319810D01*
X126612953Y-85610095D01*
X126564572Y-85706857D01*
X126516191Y-85755238D01*
X126419429Y-85803619D01*
X126274287Y-85803619D01*
X127483810Y-85803619D02*
X127483810Y-84787619D01*
X127483810Y-85755238D02*
X127387048Y-85803619D01*
X127193525Y-85803619D01*
X127096763Y-85755238D01*
X127048382Y-85706857D01*
X127000001Y-85610095D01*
X127000001Y-85319810D01*
X127048382Y-85223048D01*
X127096763Y-85174667D01*
X127193525Y-85126286D01*
X127387048Y-85126286D01*
X127483810Y-85174667D01*
X128354667Y-85755238D02*
X128257905Y-85803619D01*
X128064382Y-85803619D01*
X127967620Y-85755238D01*
X127919239Y-85658476D01*
X127919239Y-85271429D01*
X127967620Y-85174667D01*
X128064382Y-85126286D01*
X128257905Y-85126286D01*
X128354667Y-85174667D01*
X128403048Y-85271429D01*
X128403048Y-85368190D01*
X127919239Y-85464952D01*
X130193143Y-85803619D02*
X129854477Y-85319810D01*
X129612572Y-85803619D02*
X129612572Y-84787619D01*
X129999619Y-84787619D01*
X130096381Y-84836000D01*
X130144762Y-84884381D01*
X130193143Y-84981143D01*
X130193143Y-85126286D01*
X130144762Y-85223048D01*
X130096381Y-85271429D01*
X129999619Y-85319810D01*
X129612572Y-85319810D01*
X131015619Y-85755238D02*
X130918857Y-85803619D01*
X130725334Y-85803619D01*
X130628572Y-85755238D01*
X130580191Y-85658476D01*
X130580191Y-85271429D01*
X130628572Y-85174667D01*
X130725334Y-85126286D01*
X130918857Y-85126286D01*
X131015619Y-85174667D01*
X131064000Y-85271429D01*
X131064000Y-85368190D01*
X130580191Y-85464952D01*
X131934857Y-85755238D02*
X131838095Y-85803619D01*
X131644572Y-85803619D01*
X131547810Y-85755238D01*
X131499429Y-85706857D01*
X131451048Y-85610095D01*
X131451048Y-85319810D01*
X131499429Y-85223048D01*
X131547810Y-85174667D01*
X131644572Y-85126286D01*
X131838095Y-85126286D01*
X131934857Y-85174667D01*
X132757333Y-85755238D02*
X132660571Y-85803619D01*
X132467048Y-85803619D01*
X132370286Y-85755238D01*
X132321905Y-85658476D01*
X132321905Y-85271429D01*
X132370286Y-85174667D01*
X132467048Y-85126286D01*
X132660571Y-85126286D01*
X132757333Y-85174667D01*
X132805714Y-85271429D01*
X132805714Y-85368190D01*
X132321905Y-85464952D01*
X133241143Y-85803619D02*
X133241143Y-85126286D01*
X133241143Y-84787619D02*
X133192762Y-84836000D01*
X133241143Y-84884381D01*
X133289524Y-84836000D01*
X133241143Y-84787619D01*
X133241143Y-84884381D01*
X133628191Y-85126286D02*
X133870096Y-85803619D01*
X134112000Y-85126286D01*
X134886095Y-85755238D02*
X134789333Y-85803619D01*
X134595810Y-85803619D01*
X134499048Y-85755238D01*
X134450667Y-85658476D01*
X134450667Y-85271429D01*
X134499048Y-85174667D01*
X134595810Y-85126286D01*
X134789333Y-85126286D01*
X134886095Y-85174667D01*
X134934476Y-85271429D01*
X134934476Y-85368190D01*
X134450667Y-85464952D01*
X135369905Y-85803619D02*
X135369905Y-85126286D01*
X135369905Y-85319810D02*
X135418286Y-85223048D01*
X135466667Y-85174667D01*
X135563429Y-85126286D01*
X135660190Y-85126286D01*
X137111618Y-85271429D02*
X137256761Y-85319810D01*
X137305142Y-85368190D01*
X137353523Y-85464952D01*
X137353523Y-85610095D01*
X137305142Y-85706857D01*
X137256761Y-85755238D01*
X137159999Y-85803619D01*
X136772952Y-85803619D01*
X136772952Y-84787619D01*
X137111618Y-84787619D01*
X137208380Y-84836000D01*
X137256761Y-84884381D01*
X137305142Y-84981143D01*
X137305142Y-85077905D01*
X137256761Y-85174667D01*
X137208380Y-85223048D01*
X137111618Y-85271429D01*
X136772952Y-85271429D01*
X137934095Y-85803619D02*
X137837333Y-85755238D01*
X137788952Y-85706857D01*
X137740571Y-85610095D01*
X137740571Y-85319810D01*
X137788952Y-85223048D01*
X137837333Y-85174667D01*
X137934095Y-85126286D01*
X138079237Y-85126286D01*
X138175999Y-85174667D01*
X138224380Y-85223048D01*
X138272761Y-85319810D01*
X138272761Y-85610095D01*
X138224380Y-85706857D01*
X138175999Y-85755238D01*
X138079237Y-85803619D01*
X137934095Y-85803619D01*
X139143618Y-85803619D02*
X139143618Y-85271429D01*
X139095237Y-85174667D01*
X138998475Y-85126286D01*
X138804952Y-85126286D01*
X138708190Y-85174667D01*
X139143618Y-85755238D02*
X139046856Y-85803619D01*
X138804952Y-85803619D01*
X138708190Y-85755238D01*
X138659809Y-85658476D01*
X138659809Y-85561714D01*
X138708190Y-85464952D01*
X138804952Y-85416571D01*
X139046856Y-85416571D01*
X139143618Y-85368190D01*
X139627428Y-85803619D02*
X139627428Y-85126286D01*
X139627428Y-85319810D02*
X139675809Y-85223048D01*
X139724190Y-85174667D01*
X139820952Y-85126286D01*
X139917713Y-85126286D01*
X140691808Y-85803619D02*
X140691808Y-84787619D01*
X140691808Y-85755238D02*
X140595046Y-85803619D01*
X140401523Y-85803619D01*
X140304761Y-85755238D01*
X140256380Y-85706857D01*
X140207999Y-85610095D01*
X140207999Y-85319810D01*
X140256380Y-85223048D01*
X140304761Y-85174667D01*
X140401523Y-85126286D01*
X140595046Y-85126286D01*
X140691808Y-85174667D01*
X141852951Y-85126286D02*
X142094856Y-85803619D01*
X142336760Y-85126286D01*
X143255998Y-85803619D02*
X142675427Y-85803619D01*
X142965713Y-85803619D02*
X142965713Y-84787619D01*
X142868951Y-84932762D01*
X142772189Y-85029524D01*
X142675427Y-85077905D01*
X143691427Y-85706857D02*
X143739808Y-85755238D01*
X143691427Y-85803619D01*
X143643046Y-85755238D01*
X143691427Y-85706857D01*
X143691427Y-85803619D01*
X144368761Y-84787619D02*
X144465522Y-84787619D01*
X144562284Y-84836000D01*
X144610665Y-84884381D01*
X144659046Y-84981143D01*
X144707427Y-85174667D01*
X144707427Y-85416571D01*
X144659046Y-85610095D01*
X144610665Y-85706857D01*
X144562284Y-85755238D01*
X144465522Y-85803619D01*
X144368761Y-85803619D01*
X144271999Y-85755238D01*
X144223618Y-85706857D01*
X144175237Y-85610095D01*
X144126856Y-85416571D01*
X144126856Y-85174667D01*
X144175237Y-84981143D01*
X144223618Y-84884381D01*
X144271999Y-84836000D01*
X144368761Y-84787619D01*
D12*
X97028095Y-85232857D02*
X98551905Y-85232857D01*
X97790000Y-85994762D02*
X97790000Y-84470952D01*
X97028095Y-95392857D02*
X98551905Y-95392857D01*
D13*
X99060000Y-90270000D02*
X99060000Y-92810000D01*
X99340000Y-87450000D02*
X99340000Y-89000000D01*
X99060000Y-90270000D02*
X96520000Y-90270000D01*
X96240000Y-89000000D02*
X96240000Y-87450000D01*
X96240000Y-87450000D02*
X99340000Y-87450000D01*
X96520000Y-90270000D02*
X96520000Y-92810000D01*
X96520000Y-92810000D02*
X99060000Y-92810000D01*
D14*
X161540000Y-92921000D02*
X161540000Y-87079000D01*
X156460000Y-92921000D02*
X161540000Y-92921000D01*
X156460000Y-87079000D02*
X156460000Y-92921000D01*
X161540000Y-87079000D02*
X156460000Y-87079000D01*
D15*
X160778000Y-93302000D02*
X157222000Y-93302000D01*
D14*
X155540000Y-92921000D02*
X155540000Y-87079000D01*
X150460000Y-92921000D02*
X155540000Y-92921000D01*
X150460000Y-87079000D02*
X150460000Y-92921000D01*
X155540000Y-87079000D02*
X150460000Y-87079000D01*
D15*
X154778000Y-93302000D02*
X151222000Y-93302000D01*
D14*
X149540000Y-92921000D02*
X149540000Y-87079000D01*
X144460000Y-92921000D02*
X149540000Y-92921000D01*
X144460000Y-87079000D02*
X144460000Y-92921000D01*
X149540000Y-87079000D02*
X144460000Y-87079000D01*
D15*
X148778000Y-93302000D02*
X145222000Y-93302000D01*
D14*
X143540000Y-92921000D02*
X143540000Y-87079000D01*
X138460000Y-92921000D02*
X143540000Y-92921000D01*
X138460000Y-87079000D02*
X138460000Y-92921000D01*
X143540000Y-87079000D02*
X138460000Y-87079000D01*
D15*
X142778000Y-93302000D02*
X139222000Y-93302000D01*
D14*
X137540000Y-92921000D02*
X137540000Y-87079000D01*
X132460000Y-92921000D02*
X137540000Y-92921000D01*
X132460000Y-87079000D02*
X132460000Y-92921000D01*
X137540000Y-87079000D02*
X132460000Y-87079000D01*
D15*
X136778000Y-93302000D02*
X133222000Y-93302000D01*
D14*
X131540000Y-92921000D02*
X131540000Y-87079000D01*
X126460000Y-92921000D02*
X131540000Y-92921000D01*
X126460000Y-87079000D02*
X126460000Y-92921000D01*
X131540000Y-87079000D02*
X126460000Y-87079000D01*
D15*
X130778000Y-93302000D02*
X127222000Y-93302000D01*
D14*
X125540000Y-92921000D02*
X125540000Y-87079000D01*
X120460000Y-92921000D02*
X125540000Y-92921000D01*
X120460000Y-87079000D02*
X120460000Y-92921000D01*
X125540000Y-87079000D02*
X120460000Y-87079000D01*
D15*
X124778000Y-93302000D02*
X121222000Y-93302000D01*
D14*
X119540000Y-92921000D02*
X119540000Y-87079000D01*
X114460000Y-92921000D02*
X119540000Y-92921000D01*
X114460000Y-87079000D02*
X114460000Y-92921000D01*
X119540000Y-87079000D02*
X114460000Y-87079000D01*
D15*
X118778000Y-93302000D02*
X115222000Y-93302000D01*
D14*
X113540000Y-92921000D02*
X113540000Y-87079000D01*
X108460000Y-92921000D02*
X113540000Y-92921000D01*
X108460000Y-87079000D02*
X108460000Y-92921000D01*
X113540000Y-87079000D02*
X108460000Y-87079000D01*
D15*
X112778000Y-93302000D02*
X109222000Y-93302000D01*
D14*
X107540000Y-92921000D02*
X107540000Y-87079000D01*
X102460000Y-92921000D02*
X107540000Y-92921000D01*
X102460000Y-87079000D02*
X102460000Y-92921000D01*
X107540000Y-87079000D02*
X102460000Y-87079000D01*
D15*
X106778000Y-93302000D02*
X103222000Y-93302000D01*
D13*
X157277762Y-94770381D02*
X156801571Y-94770381D01*
X156801571Y-93770381D01*
X157611095Y-94246571D02*
X157944429Y-94246571D01*
X158087286Y-94770381D02*
X157611095Y-94770381D01*
X157611095Y-93770381D01*
X158087286Y-93770381D01*
X158515857Y-94770381D02*
X158515857Y-93770381D01*
X158753952Y-93770381D01*
X158896810Y-93818000D01*
X158992048Y-93913238D01*
X159039667Y-94008476D01*
X159087286Y-94198952D01*
X159087286Y-94341810D01*
X159039667Y-94532286D01*
X158992048Y-94627524D01*
X158896810Y-94722762D01*
X158753952Y-94770381D01*
X158515857Y-94770381D01*
X160039667Y-94770381D02*
X159468238Y-94770381D01*
X159753952Y-94770381D02*
X159753952Y-93770381D01*
X159658714Y-93913238D01*
X159563476Y-94008476D01*
X159468238Y-94056095D01*
X160658714Y-93770381D02*
X160753953Y-93770381D01*
X160849191Y-93818000D01*
X160896810Y-93865619D01*
X160944429Y-93960857D01*
X160992048Y-94151333D01*
X160992048Y-94389429D01*
X160944429Y-94579905D01*
X160896810Y-94675143D01*
X160849191Y-94722762D01*
X160753953Y-94770381D01*
X160658714Y-94770381D01*
X160563476Y-94722762D01*
X160515857Y-94675143D01*
X160468238Y-94579905D01*
X160420619Y-94389429D01*
X160420619Y-94151333D01*
X160468238Y-93960857D01*
X160515857Y-93865619D01*
X160563476Y-93818000D01*
X160658714Y-93770381D01*
X151753953Y-94770381D02*
X151277762Y-94770381D01*
X151277762Y-93770381D01*
X152087286Y-94246571D02*
X152420620Y-94246571D01*
X152563477Y-94770381D02*
X152087286Y-94770381D01*
X152087286Y-93770381D01*
X152563477Y-93770381D01*
X152992048Y-94770381D02*
X152992048Y-93770381D01*
X153230143Y-93770381D01*
X153373001Y-93818000D01*
X153468239Y-93913238D01*
X153515858Y-94008476D01*
X153563477Y-94198952D01*
X153563477Y-94341810D01*
X153515858Y-94532286D01*
X153468239Y-94627524D01*
X153373001Y-94722762D01*
X153230143Y-94770381D01*
X152992048Y-94770381D01*
X154039667Y-94770381D02*
X154230143Y-94770381D01*
X154325382Y-94722762D01*
X154373001Y-94675143D01*
X154468239Y-94532286D01*
X154515858Y-94341810D01*
X154515858Y-93960857D01*
X154468239Y-93865619D01*
X154420620Y-93818000D01*
X154325382Y-93770381D01*
X154134905Y-93770381D01*
X154039667Y-93818000D01*
X153992048Y-93865619D01*
X153944429Y-93960857D01*
X153944429Y-94198952D01*
X153992048Y-94294190D01*
X154039667Y-94341810D01*
X154134905Y-94389429D01*
X154325382Y-94389429D01*
X154420620Y-94341810D01*
X154468239Y-94294190D01*
X154515858Y-94198952D01*
X145753953Y-94770381D02*
X145277762Y-94770381D01*
X145277762Y-93770381D01*
X146087286Y-94246571D02*
X146420620Y-94246571D01*
X146563477Y-94770381D02*
X146087286Y-94770381D01*
X146087286Y-93770381D01*
X146563477Y-93770381D01*
X146992048Y-94770381D02*
X146992048Y-93770381D01*
X147230143Y-93770381D01*
X147373001Y-93818000D01*
X147468239Y-93913238D01*
X147515858Y-94008476D01*
X147563477Y-94198952D01*
X147563477Y-94341810D01*
X147515858Y-94532286D01*
X147468239Y-94627524D01*
X147373001Y-94722762D01*
X147230143Y-94770381D01*
X146992048Y-94770381D01*
X148134905Y-94198952D02*
X148039667Y-94151333D01*
X147992048Y-94103714D01*
X147944429Y-94008476D01*
X147944429Y-93960857D01*
X147992048Y-93865619D01*
X148039667Y-93818000D01*
X148134905Y-93770381D01*
X148325382Y-93770381D01*
X148420620Y-93818000D01*
X148468239Y-93865619D01*
X148515858Y-93960857D01*
X148515858Y-94008476D01*
X148468239Y-94103714D01*
X148420620Y-94151333D01*
X148325382Y-94198952D01*
X148134905Y-94198952D01*
X148039667Y-94246571D01*
X147992048Y-94294190D01*
X147944429Y-94389429D01*
X147944429Y-94579905D01*
X147992048Y-94675143D01*
X148039667Y-94722762D01*
X148134905Y-94770381D01*
X148325382Y-94770381D01*
X148420620Y-94722762D01*
X148468239Y-94675143D01*
X148515858Y-94579905D01*
X148515858Y-94389429D01*
X148468239Y-94294190D01*
X148420620Y-94246571D01*
X148325382Y-94198952D01*
X139753953Y-94770381D02*
X139277762Y-94770381D01*
X139277762Y-93770381D01*
X140087286Y-94246571D02*
X140420620Y-94246571D01*
X140563477Y-94770381D02*
X140087286Y-94770381D01*
X140087286Y-93770381D01*
X140563477Y-93770381D01*
X140992048Y-94770381D02*
X140992048Y-93770381D01*
X141230143Y-93770381D01*
X141373001Y-93818000D01*
X141468239Y-93913238D01*
X141515858Y-94008476D01*
X141563477Y-94198952D01*
X141563477Y-94341810D01*
X141515858Y-94532286D01*
X141468239Y-94627524D01*
X141373001Y-94722762D01*
X141230143Y-94770381D01*
X140992048Y-94770381D01*
X141896810Y-93770381D02*
X142563477Y-93770381D01*
X142134905Y-94770381D01*
X133753953Y-94770381D02*
X133277762Y-94770381D01*
X133277762Y-93770381D01*
X134087286Y-94246571D02*
X134420620Y-94246571D01*
X134563477Y-94770381D02*
X134087286Y-94770381D01*
X134087286Y-93770381D01*
X134563477Y-93770381D01*
X134992048Y-94770381D02*
X134992048Y-93770381D01*
X135230143Y-93770381D01*
X135373001Y-93818000D01*
X135468239Y-93913238D01*
X135515858Y-94008476D01*
X135563477Y-94198952D01*
X135563477Y-94341810D01*
X135515858Y-94532286D01*
X135468239Y-94627524D01*
X135373001Y-94722762D01*
X135230143Y-94770381D01*
X134992048Y-94770381D01*
X136420620Y-93770381D02*
X136230143Y-93770381D01*
X136134905Y-93818000D01*
X136087286Y-93865619D01*
X135992048Y-94008476D01*
X135944429Y-94198952D01*
X135944429Y-94579905D01*
X135992048Y-94675143D01*
X136039667Y-94722762D01*
X136134905Y-94770381D01*
X136325382Y-94770381D01*
X136420620Y-94722762D01*
X136468239Y-94675143D01*
X136515858Y-94579905D01*
X136515858Y-94341810D01*
X136468239Y-94246571D01*
X136420620Y-94198952D01*
X136325382Y-94151333D01*
X136134905Y-94151333D01*
X136039667Y-94198952D01*
X135992048Y-94246571D01*
X135944429Y-94341810D01*
X127753953Y-94770381D02*
X127277762Y-94770381D01*
X127277762Y-93770381D01*
X128087286Y-94246571D02*
X128420620Y-94246571D01*
X128563477Y-94770381D02*
X128087286Y-94770381D01*
X128087286Y-93770381D01*
X128563477Y-93770381D01*
X128992048Y-94770381D02*
X128992048Y-93770381D01*
X129230143Y-93770381D01*
X129373001Y-93818000D01*
X129468239Y-93913238D01*
X129515858Y-94008476D01*
X129563477Y-94198952D01*
X129563477Y-94341810D01*
X129515858Y-94532286D01*
X129468239Y-94627524D01*
X129373001Y-94722762D01*
X129230143Y-94770381D01*
X128992048Y-94770381D01*
X130468239Y-93770381D02*
X129992048Y-93770381D01*
X129944429Y-94246571D01*
X129992048Y-94198952D01*
X130087286Y-94151333D01*
X130325382Y-94151333D01*
X130420620Y-94198952D01*
X130468239Y-94246571D01*
X130515858Y-94341810D01*
X130515858Y-94579905D01*
X130468239Y-94675143D01*
X130420620Y-94722762D01*
X130325382Y-94770381D01*
X130087286Y-94770381D01*
X129992048Y-94722762D01*
X129944429Y-94675143D01*
X121753953Y-94770381D02*
X121277762Y-94770381D01*
X121277762Y-93770381D01*
X122087286Y-94246571D02*
X122420620Y-94246571D01*
X122563477Y-94770381D02*
X122087286Y-94770381D01*
X122087286Y-93770381D01*
X122563477Y-93770381D01*
X122992048Y-94770381D02*
X122992048Y-93770381D01*
X123230143Y-93770381D01*
X123373001Y-93818000D01*
X123468239Y-93913238D01*
X123515858Y-94008476D01*
X123563477Y-94198952D01*
X123563477Y-94341810D01*
X123515858Y-94532286D01*
X123468239Y-94627524D01*
X123373001Y-94722762D01*
X123230143Y-94770381D01*
X122992048Y-94770381D01*
X124420620Y-94103714D02*
X124420620Y-94770381D01*
X124182524Y-93722762D02*
X123944429Y-94437048D01*
X124563477Y-94437048D01*
X115753953Y-94770381D02*
X115277762Y-94770381D01*
X115277762Y-93770381D01*
X116087286Y-94246571D02*
X116420620Y-94246571D01*
X116563477Y-94770381D02*
X116087286Y-94770381D01*
X116087286Y-93770381D01*
X116563477Y-93770381D01*
X116992048Y-94770381D02*
X116992048Y-93770381D01*
X117230143Y-93770381D01*
X117373001Y-93818000D01*
X117468239Y-93913238D01*
X117515858Y-94008476D01*
X117563477Y-94198952D01*
X117563477Y-94341810D01*
X117515858Y-94532286D01*
X117468239Y-94627524D01*
X117373001Y-94722762D01*
X117230143Y-94770381D01*
X116992048Y-94770381D01*
X117896810Y-93770381D02*
X118515858Y-93770381D01*
X118182524Y-94151333D01*
X118325382Y-94151333D01*
X118420620Y-94198952D01*
X118468239Y-94246571D01*
X118515858Y-94341810D01*
X118515858Y-94579905D01*
X118468239Y-94675143D01*
X118420620Y-94722762D01*
X118325382Y-94770381D01*
X118039667Y-94770381D01*
X117944429Y-94722762D01*
X117896810Y-94675143D01*
X109753953Y-94770381D02*
X109277762Y-94770381D01*
X109277762Y-93770381D01*
X110087286Y-94246571D02*
X110420620Y-94246571D01*
X110563477Y-94770381D02*
X110087286Y-94770381D01*
X110087286Y-93770381D01*
X110563477Y-93770381D01*
X110992048Y-94770381D02*
X110992048Y-93770381D01*
X111230143Y-93770381D01*
X111373001Y-93818000D01*
X111468239Y-93913238D01*
X111515858Y-94008476D01*
X111563477Y-94198952D01*
X111563477Y-94341810D01*
X111515858Y-94532286D01*
X111468239Y-94627524D01*
X111373001Y-94722762D01*
X111230143Y-94770381D01*
X110992048Y-94770381D01*
X111944429Y-93865619D02*
X111992048Y-93818000D01*
X112087286Y-93770381D01*
X112325382Y-93770381D01*
X112420620Y-93818000D01*
X112468239Y-93865619D01*
X112515858Y-93960857D01*
X112515858Y-94056095D01*
X112468239Y-94198952D01*
X111896810Y-94770381D01*
X112515858Y-94770381D01*
X103753953Y-94770381D02*
X103277762Y-94770381D01*
X103277762Y-93770381D01*
X104087286Y-94246571D02*
X104420620Y-94246571D01*
X104563477Y-94770381D02*
X104087286Y-94770381D01*
X104087286Y-93770381D01*
X104563477Y-93770381D01*
X104992048Y-94770381D02*
X104992048Y-93770381D01*
X105230143Y-93770381D01*
X105373001Y-93818000D01*
X105468239Y-93913238D01*
X105515858Y-94008476D01*
X105563477Y-94198952D01*
X105563477Y-94341810D01*
X105515858Y-94532286D01*
X105468239Y-94627524D01*
X105373001Y-94722762D01*
X105230143Y-94770381D01*
X104992048Y-94770381D01*
X106515858Y-94770381D02*
X105944429Y-94770381D01*
X106230143Y-94770381D02*
X106230143Y-93770381D01*
X106134905Y-93913238D01*
X106039667Y-94008476D01*
X105944429Y-94056095D01*
%LPC*%
D16*
X97790000Y-89000000D03*
D17*
X97790000Y-91540000D03*
D18*
X159000000Y-87725000D03*
X159000000Y-92275000D03*
X153000000Y-87725000D03*
X153000000Y-92275000D03*
X147000000Y-87725000D03*
X147000000Y-92275000D03*
X141000000Y-87725000D03*
X141000000Y-92275000D03*
X135000000Y-87725000D03*
X135000000Y-92275000D03*
X129000000Y-87725000D03*
X129000000Y-92275000D03*
X123000000Y-87725000D03*
X123000000Y-92275000D03*
X117000000Y-87725000D03*
X117000000Y-92275000D03*
X111000000Y-87725000D03*
X111000000Y-92275000D03*
X105000000Y-87725000D03*
X105000000Y-92275000D03*
M02*
