G04 This is an RS-274x file exported by *
G04 gerbv version 2.6.0 *
G04 More information is available about gerbv at *
G04 http://gerbv.gpleda.org/ *
G04 --End of header info--*
%MOIN*%
%FSLAX34Y34*%
%IPPOS*%
G04 --Define apertures--*
%ADD10C,0.0138*%
%ADD11C,0.0118*%
%ADD12C,0.0020*%
%ADD13C,0.0020*%
%ADD14C,0.0060*%
%ADD15C,0.0059*%
G04 --Start main section--*
G54D11*
G01X0014940Y-040306D02*
G01X0015540Y-040306D01*
G01X0014940Y-036306D02*
G01X0015540Y-036306D01*
G01X0015240Y-036606D02*
G01X0015240Y-036006D01*
G54D12*
G01X0015929Y-039463D02*
G01X0015929Y-037100D01*
G01X0015929Y-039463D02*
G01X0014551Y-039463D01*
G01X0014551Y-037100D02*
G01X0014551Y-039463D01*
G01X0015929Y-037100D02*
G01X0014551Y-037100D01*
G54D13*
G01X0038338Y-039183D02*
G01X0040338Y-039183D01*
G01X0038338Y-039333D02*
G01X0040338Y-039333D01*
G01X0038338Y-037033D02*
G01X0038338Y-039333D01*
G01X0040338Y-037033D02*
G01X0038338Y-037033D01*
G01X0040338Y-039333D02*
G01X0040338Y-037033D01*
G01X0035976Y-039183D02*
G01X0037976Y-039183D01*
G01X0035976Y-039333D02*
G01X0037976Y-039333D01*
G01X0035976Y-037033D02*
G01X0035976Y-039333D01*
G01X0037976Y-037033D02*
G01X0035976Y-037033D01*
G01X0037976Y-039333D02*
G01X0037976Y-037033D01*
G01X0033614Y-039183D02*
G01X0035614Y-039183D01*
G01X0033614Y-039333D02*
G01X0035614Y-039333D01*
G01X0033614Y-037033D02*
G01X0033614Y-039333D01*
G01X0035614Y-037033D02*
G01X0033614Y-037033D01*
G01X0035614Y-039333D02*
G01X0035614Y-037033D01*
G01X0031252Y-039183D02*
G01X0033252Y-039183D01*
G01X0031252Y-039333D02*
G01X0033252Y-039333D01*
G01X0031252Y-037033D02*
G01X0031252Y-039333D01*
G01X0033252Y-037033D02*
G01X0031252Y-037033D01*
G01X0033252Y-039333D02*
G01X0033252Y-037033D01*
G01X0028890Y-039183D02*
G01X0030890Y-039183D01*
G01X0028890Y-039333D02*
G01X0030890Y-039333D01*
G01X0028890Y-037033D02*
G01X0028890Y-039333D01*
G01X0030890Y-037033D02*
G01X0028890Y-037033D01*
G01X0030890Y-039333D02*
G01X0030890Y-037033D01*
G01X0026527Y-039183D02*
G01X0028527Y-039183D01*
G01X0026527Y-039333D02*
G01X0028527Y-039333D01*
G01X0026527Y-037033D02*
G01X0026527Y-039333D01*
G01X0028527Y-037033D02*
G01X0026527Y-037033D01*
G01X0028527Y-039333D02*
G01X0028527Y-037033D01*
G01X0024165Y-039183D02*
G01X0026165Y-039183D01*
G01X0024165Y-039333D02*
G01X0026165Y-039333D01*
G01X0024165Y-037033D02*
G01X0024165Y-039333D01*
G01X0026165Y-037033D02*
G01X0024165Y-037033D01*
G01X0026165Y-039333D02*
G01X0026165Y-037033D01*
G01X0021803Y-039183D02*
G01X0023803Y-039183D01*
G01X0021803Y-039333D02*
G01X0023803Y-039333D01*
G01X0021803Y-037033D02*
G01X0021803Y-039333D01*
G01X0023803Y-037033D02*
G01X0021803Y-037033D01*
G01X0023803Y-039333D02*
G01X0023803Y-037033D01*
G01X0019441Y-039183D02*
G01X0021441Y-039183D01*
G01X0019441Y-039333D02*
G01X0021441Y-039333D01*
G01X0019441Y-037033D02*
G01X0019441Y-039333D01*
G01X0021441Y-037033D02*
G01X0019441Y-037033D01*
G01X0021441Y-039333D02*
G01X0021441Y-037033D01*
G01X0017079Y-039183D02*
G01X0019079Y-039183D01*
G01X0017079Y-039333D02*
G01X0019079Y-039333D01*
G01X0017079Y-037033D02*
G01X0017079Y-039333D01*
G01X0019079Y-037033D02*
G01X0017079Y-037033D01*
G01X0019079Y-039333D02*
G01X0019079Y-037033D01*
G54D14*
G01X0015021Y-038415D02*
G01X0015307Y-038415D01*
G01X0015307Y-038415D02*
G01X0015364Y-038434D01*
G01X0015364Y-038434D02*
G01X0015402Y-038472D01*
G01X0015402Y-038472D02*
G01X0015421Y-038529D01*
G01X0015421Y-038529D02*
G01X0015421Y-038567D01*
G01X0015421Y-038015D02*
G01X0015421Y-038243D01*
G01X0015421Y-038129D02*
G01X0015021Y-038129D01*
G01X0015021Y-038129D02*
G01X0015078Y-038167D01*
G01X0015078Y-038167D02*
G01X0015116Y-038205D01*
G01X0015116Y-038205D02*
G01X0015135Y-038243D01*
G54D15*
G01X0038653Y-038361D02*
G01X0038465Y-038361D01*
G01X0038465Y-038361D02*
G01X0038465Y-037967D01*
G01X0038784Y-038155D02*
G01X0038915Y-038155D01*
G01X0038971Y-038361D02*
G01X0038784Y-038361D01*
G01X0038784Y-038361D02*
G01X0038784Y-037967D01*
G01X0038784Y-037967D02*
G01X0038971Y-037967D01*
G01X0039140Y-038361D02*
G01X0039140Y-037967D01*
G01X0039140Y-037967D02*
G01X0039234Y-037967D01*
G01X0039234Y-037967D02*
G01X0039290Y-037986D01*
G01X0039290Y-037986D02*
G01X0039327Y-038024D01*
G01X0039327Y-038024D02*
G01X0039346Y-038061D01*
G01X0039346Y-038061D02*
G01X0039365Y-038136D01*
G01X0039365Y-038136D02*
G01X0039365Y-038192D01*
G01X0039365Y-038192D02*
G01X0039346Y-038267D01*
G01X0039346Y-038267D02*
G01X0039327Y-038305D01*
G01X0039327Y-038305D02*
G01X0039290Y-038342D01*
G01X0039290Y-038342D02*
G01X0039234Y-038361D01*
G01X0039234Y-038361D02*
G01X0039140Y-038361D01*
G01X0039740Y-038361D02*
G01X0039515Y-038361D01*
G01X0039627Y-038361D02*
G01X0039627Y-037967D01*
G01X0039627Y-037967D02*
G01X0039590Y-038024D01*
G01X0039590Y-038024D02*
G01X0039552Y-038061D01*
G01X0039552Y-038061D02*
G01X0039515Y-038080D01*
G01X0039984Y-037967D02*
G01X0040021Y-037967D01*
G01X0040021Y-037967D02*
G01X0040059Y-037986D01*
G01X0040059Y-037986D02*
G01X0040077Y-038005D01*
G01X0040077Y-038005D02*
G01X0040096Y-038042D01*
G01X0040096Y-038042D02*
G01X0040115Y-038117D01*
G01X0040115Y-038117D02*
G01X0040115Y-038211D01*
G01X0040115Y-038211D02*
G01X0040096Y-038286D01*
G01X0040096Y-038286D02*
G01X0040077Y-038324D01*
G01X0040077Y-038324D02*
G01X0040059Y-038342D01*
G01X0040059Y-038342D02*
G01X0040021Y-038361D01*
G01X0040021Y-038361D02*
G01X0039984Y-038361D01*
G01X0039984Y-038361D02*
G01X0039946Y-038342D01*
G01X0039946Y-038342D02*
G01X0039927Y-038324D01*
G01X0039927Y-038324D02*
G01X0039909Y-038286D01*
G01X0039909Y-038286D02*
G01X0039890Y-038211D01*
G01X0039890Y-038211D02*
G01X0039890Y-038117D01*
G01X0039890Y-038117D02*
G01X0039909Y-038042D01*
G01X0039909Y-038042D02*
G01X0039927Y-038005D01*
G01X0039927Y-038005D02*
G01X0039946Y-037986D01*
G01X0039946Y-037986D02*
G01X0039984Y-037967D01*
G01X0036478Y-038361D02*
G01X0036290Y-038361D01*
G01X0036290Y-038361D02*
G01X0036290Y-037967D01*
G01X0036609Y-038155D02*
G01X0036740Y-038155D01*
G01X0036796Y-038361D02*
G01X0036609Y-038361D01*
G01X0036609Y-038361D02*
G01X0036609Y-037967D01*
G01X0036609Y-037967D02*
G01X0036796Y-037967D01*
G01X0036965Y-038361D02*
G01X0036965Y-037967D01*
G01X0036965Y-037967D02*
G01X0037059Y-037967D01*
G01X0037059Y-037967D02*
G01X0037115Y-037986D01*
G01X0037115Y-037986D02*
G01X0037153Y-038024D01*
G01X0037153Y-038024D02*
G01X0037171Y-038061D01*
G01X0037171Y-038061D02*
G01X0037190Y-038136D01*
G01X0037190Y-038136D02*
G01X0037190Y-038192D01*
G01X0037190Y-038192D02*
G01X0037171Y-038267D01*
G01X0037171Y-038267D02*
G01X0037153Y-038305D01*
G01X0037153Y-038305D02*
G01X0037115Y-038342D01*
G01X0037115Y-038342D02*
G01X0037059Y-038361D01*
G01X0037059Y-038361D02*
G01X0036965Y-038361D01*
G01X0037378Y-038361D02*
G01X0037453Y-038361D01*
G01X0037453Y-038361D02*
G01X0037490Y-038342D01*
G01X0037490Y-038342D02*
G01X0037509Y-038324D01*
G01X0037509Y-038324D02*
G01X0037546Y-038267D01*
G01X0037546Y-038267D02*
G01X0037565Y-038192D01*
G01X0037565Y-038192D02*
G01X0037565Y-038042D01*
G01X0037565Y-038042D02*
G01X0037546Y-038005D01*
G01X0037546Y-038005D02*
G01X0037528Y-037986D01*
G01X0037528Y-037986D02*
G01X0037490Y-037967D01*
G01X0037490Y-037967D02*
G01X0037415Y-037967D01*
G01X0037415Y-037967D02*
G01X0037378Y-037986D01*
G01X0037378Y-037986D02*
G01X0037359Y-038005D01*
G01X0037359Y-038005D02*
G01X0037340Y-038042D01*
G01X0037340Y-038042D02*
G01X0037340Y-038136D01*
G01X0037340Y-038136D02*
G01X0037359Y-038174D01*
G01X0037359Y-038174D02*
G01X0037378Y-038192D01*
G01X0037378Y-038192D02*
G01X0037415Y-038211D01*
G01X0037415Y-038211D02*
G01X0037490Y-038211D01*
G01X0037490Y-038211D02*
G01X0037528Y-038192D01*
G01X0037528Y-038192D02*
G01X0037546Y-038174D01*
G01X0037546Y-038174D02*
G01X0037565Y-038136D01*
G01X0034116Y-038361D02*
G01X0033928Y-038361D01*
G01X0033928Y-038361D02*
G01X0033928Y-037967D01*
G01X0034247Y-038155D02*
G01X0034378Y-038155D01*
G01X0034434Y-038361D02*
G01X0034247Y-038361D01*
G01X0034247Y-038361D02*
G01X0034247Y-037967D01*
G01X0034247Y-037967D02*
G01X0034434Y-037967D01*
G01X0034603Y-038361D02*
G01X0034603Y-037967D01*
G01X0034603Y-037967D02*
G01X0034697Y-037967D01*
G01X0034697Y-037967D02*
G01X0034753Y-037986D01*
G01X0034753Y-037986D02*
G01X0034790Y-038024D01*
G01X0034790Y-038024D02*
G01X0034809Y-038061D01*
G01X0034809Y-038061D02*
G01X0034828Y-038136D01*
G01X0034828Y-038136D02*
G01X0034828Y-038192D01*
G01X0034828Y-038192D02*
G01X0034809Y-038267D01*
G01X0034809Y-038267D02*
G01X0034790Y-038305D01*
G01X0034790Y-038305D02*
G01X0034753Y-038342D01*
G01X0034753Y-038342D02*
G01X0034697Y-038361D01*
G01X0034697Y-038361D02*
G01X0034603Y-038361D01*
G01X0035053Y-038136D02*
G01X0035015Y-038117D01*
G01X0035015Y-038117D02*
G01X0034997Y-038099D01*
G01X0034997Y-038099D02*
G01X0034978Y-038061D01*
G01X0034978Y-038061D02*
G01X0034978Y-038042D01*
G01X0034978Y-038042D02*
G01X0034997Y-038005D01*
G01X0034997Y-038005D02*
G01X0035015Y-037986D01*
G01X0035015Y-037986D02*
G01X0035053Y-037967D01*
G01X0035053Y-037967D02*
G01X0035128Y-037967D01*
G01X0035128Y-037967D02*
G01X0035165Y-037986D01*
G01X0035165Y-037986D02*
G01X0035184Y-038005D01*
G01X0035184Y-038005D02*
G01X0035203Y-038042D01*
G01X0035203Y-038042D02*
G01X0035203Y-038061D01*
G01X0035203Y-038061D02*
G01X0035184Y-038099D01*
G01X0035184Y-038099D02*
G01X0035165Y-038117D01*
G01X0035165Y-038117D02*
G01X0035128Y-038136D01*
G01X0035128Y-038136D02*
G01X0035053Y-038136D01*
G01X0035053Y-038136D02*
G01X0035015Y-038155D01*
G01X0035015Y-038155D02*
G01X0034997Y-038174D01*
G01X0034997Y-038174D02*
G01X0034978Y-038211D01*
G01X0034978Y-038211D02*
G01X0034978Y-038286D01*
G01X0034978Y-038286D02*
G01X0034997Y-038324D01*
G01X0034997Y-038324D02*
G01X0035015Y-038342D01*
G01X0035015Y-038342D02*
G01X0035053Y-038361D01*
G01X0035053Y-038361D02*
G01X0035128Y-038361D01*
G01X0035128Y-038361D02*
G01X0035165Y-038342D01*
G01X0035165Y-038342D02*
G01X0035184Y-038324D01*
G01X0035184Y-038324D02*
G01X0035203Y-038286D01*
G01X0035203Y-038286D02*
G01X0035203Y-038211D01*
G01X0035203Y-038211D02*
G01X0035184Y-038174D01*
G01X0035184Y-038174D02*
G01X0035165Y-038155D01*
G01X0035165Y-038155D02*
G01X0035128Y-038136D01*
G01X0031753Y-038361D02*
G01X0031566Y-038361D01*
G01X0031566Y-038361D02*
G01X0031566Y-037967D01*
G01X0031885Y-038155D02*
G01X0032016Y-038155D01*
G01X0032072Y-038361D02*
G01X0031885Y-038361D01*
G01X0031885Y-038361D02*
G01X0031885Y-037967D01*
G01X0031885Y-037967D02*
G01X0032072Y-037967D01*
G01X0032241Y-038361D02*
G01X0032241Y-037967D01*
G01X0032241Y-037967D02*
G01X0032335Y-037967D01*
G01X0032335Y-037967D02*
G01X0032391Y-037986D01*
G01X0032391Y-037986D02*
G01X0032428Y-038024D01*
G01X0032428Y-038024D02*
G01X0032447Y-038061D01*
G01X0032447Y-038061D02*
G01X0032466Y-038136D01*
G01X0032466Y-038136D02*
G01X0032466Y-038192D01*
G01X0032466Y-038192D02*
G01X0032447Y-038267D01*
G01X0032447Y-038267D02*
G01X0032428Y-038305D01*
G01X0032428Y-038305D02*
G01X0032391Y-038342D01*
G01X0032391Y-038342D02*
G01X0032335Y-038361D01*
G01X0032335Y-038361D02*
G01X0032241Y-038361D01*
G01X0032597Y-037967D02*
G01X0032859Y-037967D01*
G01X0032859Y-037967D02*
G01X0032691Y-038361D01*
G01X0029391Y-038361D02*
G01X0029204Y-038361D01*
G01X0029204Y-038361D02*
G01X0029204Y-037967D01*
G01X0029522Y-038155D02*
G01X0029654Y-038155D01*
G01X0029710Y-038361D02*
G01X0029522Y-038361D01*
G01X0029522Y-038361D02*
G01X0029522Y-037967D01*
G01X0029522Y-037967D02*
G01X0029710Y-037967D01*
G01X0029879Y-038361D02*
G01X0029879Y-037967D01*
G01X0029879Y-037967D02*
G01X0029972Y-037967D01*
G01X0029972Y-037967D02*
G01X0030029Y-037986D01*
G01X0030029Y-037986D02*
G01X0030066Y-038024D01*
G01X0030066Y-038024D02*
G01X0030085Y-038061D01*
G01X0030085Y-038061D02*
G01X0030104Y-038136D01*
G01X0030104Y-038136D02*
G01X0030104Y-038192D01*
G01X0030104Y-038192D02*
G01X0030085Y-038267D01*
G01X0030085Y-038267D02*
G01X0030066Y-038305D01*
G01X0030066Y-038305D02*
G01X0030029Y-038342D01*
G01X0030029Y-038342D02*
G01X0029972Y-038361D01*
G01X0029972Y-038361D02*
G01X0029879Y-038361D01*
G01X0030441Y-037967D02*
G01X0030366Y-037967D01*
G01X0030366Y-037967D02*
G01X0030329Y-037986D01*
G01X0030329Y-037986D02*
G01X0030310Y-038005D01*
G01X0030310Y-038005D02*
G01X0030272Y-038061D01*
G01X0030272Y-038061D02*
G01X0030254Y-038136D01*
G01X0030254Y-038136D02*
G01X0030254Y-038286D01*
G01X0030254Y-038286D02*
G01X0030272Y-038324D01*
G01X0030272Y-038324D02*
G01X0030291Y-038342D01*
G01X0030291Y-038342D02*
G01X0030329Y-038361D01*
G01X0030329Y-038361D02*
G01X0030404Y-038361D01*
G01X0030404Y-038361D02*
G01X0030441Y-038342D01*
G01X0030441Y-038342D02*
G01X0030460Y-038324D01*
G01X0030460Y-038324D02*
G01X0030479Y-038286D01*
G01X0030479Y-038286D02*
G01X0030479Y-038192D01*
G01X0030479Y-038192D02*
G01X0030460Y-038155D01*
G01X0030460Y-038155D02*
G01X0030441Y-038136D01*
G01X0030441Y-038136D02*
G01X0030404Y-038117D01*
G01X0030404Y-038117D02*
G01X0030329Y-038117D01*
G01X0030329Y-038117D02*
G01X0030291Y-038136D01*
G01X0030291Y-038136D02*
G01X0030272Y-038155D01*
G01X0030272Y-038155D02*
G01X0030254Y-038192D01*
G01X0027029Y-038361D02*
G01X0026841Y-038361D01*
G01X0026841Y-038361D02*
G01X0026841Y-037967D01*
G01X0027160Y-038155D02*
G01X0027291Y-038155D01*
G01X0027348Y-038361D02*
G01X0027160Y-038361D01*
G01X0027160Y-038361D02*
G01X0027160Y-037967D01*
G01X0027160Y-037967D02*
G01X0027348Y-037967D01*
G01X0027516Y-038361D02*
G01X0027516Y-037967D01*
G01X0027516Y-037967D02*
G01X0027610Y-037967D01*
G01X0027610Y-037967D02*
G01X0027666Y-037986D01*
G01X0027666Y-037986D02*
G01X0027704Y-038024D01*
G01X0027704Y-038024D02*
G01X0027723Y-038061D01*
G01X0027723Y-038061D02*
G01X0027741Y-038136D01*
G01X0027741Y-038136D02*
G01X0027741Y-038192D01*
G01X0027741Y-038192D02*
G01X0027723Y-038267D01*
G01X0027723Y-038267D02*
G01X0027704Y-038305D01*
G01X0027704Y-038305D02*
G01X0027666Y-038342D01*
G01X0027666Y-038342D02*
G01X0027610Y-038361D01*
G01X0027610Y-038361D02*
G01X0027516Y-038361D01*
G01X0028098Y-037967D02*
G01X0027910Y-037967D01*
G01X0027910Y-037967D02*
G01X0027891Y-038155D01*
G01X0027891Y-038155D02*
G01X0027910Y-038136D01*
G01X0027910Y-038136D02*
G01X0027948Y-038117D01*
G01X0027948Y-038117D02*
G01X0028041Y-038117D01*
G01X0028041Y-038117D02*
G01X0028079Y-038136D01*
G01X0028079Y-038136D02*
G01X0028098Y-038155D01*
G01X0028098Y-038155D02*
G01X0028116Y-038192D01*
G01X0028116Y-038192D02*
G01X0028116Y-038286D01*
G01X0028116Y-038286D02*
G01X0028098Y-038324D01*
G01X0028098Y-038324D02*
G01X0028079Y-038342D01*
G01X0028079Y-038342D02*
G01X0028041Y-038361D01*
G01X0028041Y-038361D02*
G01X0027948Y-038361D01*
G01X0027948Y-038361D02*
G01X0027910Y-038342D01*
G01X0027910Y-038342D02*
G01X0027891Y-038324D01*
G01X0024667Y-038361D02*
G01X0024479Y-038361D01*
G01X0024479Y-038361D02*
G01X0024479Y-037967D01*
G01X0024798Y-038155D02*
G01X0024929Y-038155D01*
G01X0024985Y-038361D02*
G01X0024798Y-038361D01*
G01X0024798Y-038361D02*
G01X0024798Y-037967D01*
G01X0024798Y-037967D02*
G01X0024985Y-037967D01*
G01X0025154Y-038361D02*
G01X0025154Y-037967D01*
G01X0025154Y-037967D02*
G01X0025248Y-037967D01*
G01X0025248Y-037967D02*
G01X0025304Y-037986D01*
G01X0025304Y-037986D02*
G01X0025342Y-038024D01*
G01X0025342Y-038024D02*
G01X0025360Y-038061D01*
G01X0025360Y-038061D02*
G01X0025379Y-038136D01*
G01X0025379Y-038136D02*
G01X0025379Y-038192D01*
G01X0025379Y-038192D02*
G01X0025360Y-038267D01*
G01X0025360Y-038267D02*
G01X0025342Y-038305D01*
G01X0025342Y-038305D02*
G01X0025304Y-038342D01*
G01X0025304Y-038342D02*
G01X0025248Y-038361D01*
G01X0025248Y-038361D02*
G01X0025154Y-038361D01*
G01X0025717Y-038099D02*
G01X0025717Y-038361D01*
G01X0025623Y-037949D02*
G01X0025529Y-038230D01*
G01X0025529Y-038230D02*
G01X0025773Y-038230D01*
G01X0022305Y-038361D02*
G01X0022117Y-038361D01*
G01X0022117Y-038361D02*
G01X0022117Y-037967D01*
G01X0022436Y-038155D02*
G01X0022567Y-038155D01*
G01X0022623Y-038361D02*
G01X0022436Y-038361D01*
G01X0022436Y-038361D02*
G01X0022436Y-037967D01*
G01X0022436Y-037967D02*
G01X0022623Y-037967D01*
G01X0022792Y-038361D02*
G01X0022792Y-037967D01*
G01X0022792Y-037967D02*
G01X0022886Y-037967D01*
G01X0022886Y-037967D02*
G01X0022942Y-037986D01*
G01X0022942Y-037986D02*
G01X0022979Y-038024D01*
G01X0022979Y-038024D02*
G01X0022998Y-038061D01*
G01X0022998Y-038061D02*
G01X0023017Y-038136D01*
G01X0023017Y-038136D02*
G01X0023017Y-038192D01*
G01X0023017Y-038192D02*
G01X0022998Y-038267D01*
G01X0022998Y-038267D02*
G01X0022979Y-038305D01*
G01X0022979Y-038305D02*
G01X0022942Y-038342D01*
G01X0022942Y-038342D02*
G01X0022886Y-038361D01*
G01X0022886Y-038361D02*
G01X0022792Y-038361D01*
G01X0023148Y-037967D02*
G01X0023392Y-037967D01*
G01X0023392Y-037967D02*
G01X0023261Y-038117D01*
G01X0023261Y-038117D02*
G01X0023317Y-038117D01*
G01X0023317Y-038117D02*
G01X0023354Y-038136D01*
G01X0023354Y-038136D02*
G01X0023373Y-038155D01*
G01X0023373Y-038155D02*
G01X0023392Y-038192D01*
G01X0023392Y-038192D02*
G01X0023392Y-038286D01*
G01X0023392Y-038286D02*
G01X0023373Y-038324D01*
G01X0023373Y-038324D02*
G01X0023354Y-038342D01*
G01X0023354Y-038342D02*
G01X0023317Y-038361D01*
G01X0023317Y-038361D02*
G01X0023204Y-038361D01*
G01X0023204Y-038361D02*
G01X0023167Y-038342D01*
G01X0023167Y-038342D02*
G01X0023148Y-038324D01*
G01X0019942Y-038361D02*
G01X0019755Y-038361D01*
G01X0019755Y-038361D02*
G01X0019755Y-037967D01*
G01X0020074Y-038155D02*
G01X0020205Y-038155D01*
G01X0020261Y-038361D02*
G01X0020074Y-038361D01*
G01X0020074Y-038361D02*
G01X0020074Y-037967D01*
G01X0020074Y-037967D02*
G01X0020261Y-037967D01*
G01X0020430Y-038361D02*
G01X0020430Y-037967D01*
G01X0020430Y-037967D02*
G01X0020524Y-037967D01*
G01X0020524Y-037967D02*
G01X0020580Y-037986D01*
G01X0020580Y-037986D02*
G01X0020617Y-038024D01*
G01X0020617Y-038024D02*
G01X0020636Y-038061D01*
G01X0020636Y-038061D02*
G01X0020655Y-038136D01*
G01X0020655Y-038136D02*
G01X0020655Y-038192D01*
G01X0020655Y-038192D02*
G01X0020636Y-038267D01*
G01X0020636Y-038267D02*
G01X0020617Y-038305D01*
G01X0020617Y-038305D02*
G01X0020580Y-038342D01*
G01X0020580Y-038342D02*
G01X0020524Y-038361D01*
G01X0020524Y-038361D02*
G01X0020430Y-038361D01*
G01X0020805Y-038005D02*
G01X0020823Y-037986D01*
G01X0020823Y-037986D02*
G01X0020861Y-037967D01*
G01X0020861Y-037967D02*
G01X0020955Y-037967D01*
G01X0020955Y-037967D02*
G01X0020992Y-037986D01*
G01X0020992Y-037986D02*
G01X0021011Y-038005D01*
G01X0021011Y-038005D02*
G01X0021030Y-038042D01*
G01X0021030Y-038042D02*
G01X0021030Y-038080D01*
G01X0021030Y-038080D02*
G01X0021011Y-038136D01*
G01X0021011Y-038136D02*
G01X0020786Y-038361D01*
G01X0020786Y-038361D02*
G01X0021030Y-038361D01*
G01X0017580Y-038361D02*
G01X0017393Y-038361D01*
G01X0017393Y-038361D02*
G01X0017393Y-037967D01*
G01X0017711Y-038155D02*
G01X0017843Y-038155D01*
G01X0017899Y-038361D02*
G01X0017711Y-038361D01*
G01X0017711Y-038361D02*
G01X0017711Y-037967D01*
G01X0017711Y-037967D02*
G01X0017899Y-037967D01*
G01X0018068Y-038361D02*
G01X0018068Y-037967D01*
G01X0018068Y-037967D02*
G01X0018161Y-037967D01*
G01X0018161Y-037967D02*
G01X0018218Y-037986D01*
G01X0018218Y-037986D02*
G01X0018255Y-038024D01*
G01X0018255Y-038024D02*
G01X0018274Y-038061D01*
G01X0018274Y-038061D02*
G01X0018293Y-038136D01*
G01X0018293Y-038136D02*
G01X0018293Y-038192D01*
G01X0018293Y-038192D02*
G01X0018274Y-038267D01*
G01X0018274Y-038267D02*
G01X0018255Y-038305D01*
G01X0018255Y-038305D02*
G01X0018218Y-038342D01*
G01X0018218Y-038342D02*
G01X0018161Y-038361D01*
G01X0018161Y-038361D02*
G01X0018068Y-038361D01*
G01X0018668Y-038361D02*
G01X0018443Y-038361D01*
G01X0018555Y-038361D02*
G01X0018555Y-037967D01*
G01X0018555Y-037967D02*
G01X0018518Y-038024D01*
G01X0018518Y-038024D02*
G01X0018480Y-038061D01*
G01X0018480Y-038061D02*
G01X0018443Y-038080D01*
G01X0000000Y0000000D02*
G54D14*
G01X0041240Y-040750D02*
G01X0041240Y-035750D01*
G01X0014240Y-040750D02*
G01X0041240Y-040750D01*
G01X0014240Y-035750D02*
G01X0014240Y-040750D01*
G01X0041240Y-035750D02*
G01X0014240Y-035750D01*
M02*
