G04 This is an RS-274x file exported by *
G04 gerbv version 2.6.0 *
G04 More information is available about gerbv at *
G04 http://gerbv.gpleda.org/ *
G04 --End of header info--*
%MOIN*%
%FSLAX34Y34*%
%IPPOS*%
G04 --Define apertures--*
%ADD10C,0.0050*%
%ADD11C,0.0060*%
%ADD12C,0.0079*%
%ADD13C,0.0118*%
%ADD14C,0.0138*%
%ADD15C,0.0059*%
G04 --Start main section--*
G54D11*
G01X0064500Y-038000D02*
G01X0064500Y-033000D01*
G01X0037500Y-038000D02*
G01X0064500Y-038000D01*
G01X0037500Y-033000D02*
G01X0037500Y-038000D01*
G01X0064500Y-033000D02*
G01X0037500Y-033000D01*
G54D12*
G01X0038300Y-034839D02*
G01X0038700Y-035239D01*
G01X0038700Y-034839D02*
G01X0038300Y-035239D01*
G01X0038300Y-035839D02*
G01X0038700Y-036239D01*
G01X0038700Y-035839D02*
G01X0038300Y-036239D01*
G54D13*
G01X0038539Y-039864D02*
G01X0038539Y-038682D01*
G01X0038539Y-038682D02*
G01X0038820Y-038682D01*
G01X0038820Y-038682D02*
G01X0038989Y-038739D01*
G01X0038989Y-038739D02*
G01X0039101Y-038851D01*
G01X0039101Y-038851D02*
G01X0039157Y-038964D01*
G01X0039157Y-038964D02*
G01X0039214Y-039189D01*
G01X0039214Y-039189D02*
G01X0039214Y-039357D01*
G01X0039214Y-039357D02*
G01X0039157Y-039582D01*
G01X0039157Y-039582D02*
G01X0039101Y-039695D01*
G01X0039101Y-039695D02*
G01X0038989Y-039807D01*
G01X0038989Y-039807D02*
G01X0038820Y-039864D01*
G01X0038820Y-039864D02*
G01X0038539Y-039864D01*
G01X0039720Y-039864D02*
G01X0039720Y-039076D01*
G01X0039720Y-039301D02*
G01X0039776Y-039189D01*
G01X0039776Y-039189D02*
G01X0039832Y-039132D01*
G01X0039832Y-039132D02*
G01X0039945Y-039076D01*
G01X0039945Y-039076D02*
G01X0040057Y-039076D01*
G01X0040451Y-039864D02*
G01X0040451Y-039076D01*
G01X0040451Y-038682D02*
G01X0040395Y-038739D01*
G01X0040395Y-038739D02*
G01X0040451Y-038795D01*
G01X0040451Y-038795D02*
G01X0040507Y-038739D01*
G01X0040507Y-038739D02*
G01X0040451Y-038682D01*
G01X0040451Y-038682D02*
G01X0040451Y-038795D01*
G01X0041182Y-039864D02*
G01X0041070Y-039807D01*
G01X0041070Y-039807D02*
G01X0041013Y-039695D01*
G01X0041013Y-039695D02*
G01X0041013Y-038682D01*
G01X0041801Y-039864D02*
G01X0041688Y-039807D01*
G01X0041688Y-039807D02*
G01X0041632Y-039695D01*
G01X0041632Y-039695D02*
G01X0041632Y-038682D01*
G01X0043151Y-039864D02*
G01X0043151Y-038682D01*
G01X0043151Y-038682D02*
G01X0043544Y-039526D01*
G01X0043544Y-039526D02*
G01X0043938Y-038682D01*
G01X0043938Y-038682D02*
G01X0043938Y-039864D01*
G01X0045007Y-039864D02*
G01X0045007Y-039245D01*
G01X0045007Y-039245D02*
G01X0044950Y-039132D01*
G01X0044950Y-039132D02*
G01X0044838Y-039076D01*
G01X0044838Y-039076D02*
G01X0044613Y-039076D01*
G01X0044613Y-039076D02*
G01X0044500Y-039132D01*
G01X0045007Y-039807D02*
G01X0044894Y-039864D01*
G01X0044894Y-039864D02*
G01X0044613Y-039864D01*
G01X0044613Y-039864D02*
G01X0044500Y-039807D01*
G01X0044500Y-039807D02*
G01X0044444Y-039695D01*
G01X0044444Y-039695D02*
G01X0044444Y-039582D01*
G01X0044444Y-039582D02*
G01X0044500Y-039470D01*
G01X0044500Y-039470D02*
G01X0044613Y-039414D01*
G01X0044613Y-039414D02*
G01X0044894Y-039414D01*
G01X0044894Y-039414D02*
G01X0045007Y-039357D01*
G01X0045569Y-039076D02*
G01X0045569Y-040257D01*
G01X0045569Y-039132D02*
G01X0045681Y-039076D01*
G01X0045681Y-039076D02*
G01X0045906Y-039076D01*
G01X0045906Y-039076D02*
G01X0046019Y-039132D01*
G01X0046019Y-039132D02*
G01X0046075Y-039189D01*
G01X0046075Y-039189D02*
G01X0046131Y-039301D01*
G01X0046131Y-039301D02*
G01X0046131Y-039639D01*
G01X0046131Y-039639D02*
G01X0046075Y-039751D01*
G01X0046075Y-039751D02*
G01X0046019Y-039807D01*
G01X0046019Y-039807D02*
G01X0045906Y-039864D01*
G01X0045906Y-039864D02*
G01X0045681Y-039864D01*
G01X0045681Y-039864D02*
G01X0045569Y-039807D01*
G01X0046638Y-039751D02*
G01X0046694Y-039807D01*
G01X0046694Y-039807D02*
G01X0046638Y-039864D01*
G01X0046638Y-039864D02*
G01X0046581Y-039807D01*
G01X0046581Y-039807D02*
G01X0046638Y-039751D01*
G01X0046638Y-039751D02*
G01X0046638Y-039864D01*
G01X0046638Y-039132D02*
G01X0046694Y-039189D01*
G01X0046694Y-039189D02*
G01X0046638Y-039245D01*
G01X0046638Y-039245D02*
G01X0046581Y-039189D01*
G01X0046581Y-039189D02*
G01X0046638Y-039132D01*
G01X0046638Y-039132D02*
G01X0046638Y-039245D01*
G01X0037070Y-041610D02*
G01X0037470Y-042010D01*
G01X0037470Y-041610D02*
G01X0037070Y-042010D01*
G01X0039157Y-042344D02*
G01X0038482Y-042344D01*
G01X0038820Y-042344D02*
G01X0038820Y-041163D01*
G01X0038820Y-041163D02*
G01X0038707Y-041331D01*
G01X0038707Y-041331D02*
G01X0038595Y-041444D01*
G01X0038595Y-041444D02*
G01X0038482Y-041500D01*
G01X0039663Y-042231D02*
G01X0039720Y-042288D01*
G01X0039720Y-042288D02*
G01X0039663Y-042344D01*
G01X0039663Y-042344D02*
G01X0039607Y-042288D01*
G01X0039607Y-042288D02*
G01X0039663Y-042231D01*
G01X0039663Y-042231D02*
G01X0039663Y-042344D01*
G01X0040451Y-041163D02*
G01X0040563Y-041163D01*
G01X0040563Y-041163D02*
G01X0040676Y-041219D01*
G01X0040676Y-041219D02*
G01X0040732Y-041275D01*
G01X0040732Y-041275D02*
G01X0040788Y-041388D01*
G01X0040788Y-041388D02*
G01X0040845Y-041613D01*
G01X0040845Y-041613D02*
G01X0040845Y-041894D01*
G01X0040845Y-041894D02*
G01X0040788Y-042119D01*
G01X0040788Y-042119D02*
G01X0040732Y-042231D01*
G01X0040732Y-042231D02*
G01X0040676Y-042288D01*
G01X0040676Y-042288D02*
G01X0040563Y-042344D01*
G01X0040563Y-042344D02*
G01X0040451Y-042344D01*
G01X0040451Y-042344D02*
G01X0040338Y-042288D01*
G01X0040338Y-042288D02*
G01X0040282Y-042231D01*
G01X0040282Y-042231D02*
G01X0040226Y-042119D01*
G01X0040226Y-042119D02*
G01X0040170Y-041894D01*
G01X0040170Y-041894D02*
G01X0040170Y-041613D01*
G01X0040170Y-041613D02*
G01X0040226Y-041388D01*
G01X0040226Y-041388D02*
G01X0040282Y-041275D01*
G01X0040282Y-041275D02*
G01X0040338Y-041219D01*
G01X0040338Y-041219D02*
G01X0040451Y-041163D01*
G01X0041295Y-041275D02*
G01X0041351Y-041219D01*
G01X0041351Y-041219D02*
G01X0041463Y-041163D01*
G01X0041463Y-041163D02*
G01X0041744Y-041163D01*
G01X0041744Y-041163D02*
G01X0041857Y-041219D01*
G01X0041857Y-041219D02*
G01X0041913Y-041275D01*
G01X0041913Y-041275D02*
G01X0041969Y-041388D01*
G01X0041969Y-041388D02*
G01X0041969Y-041500D01*
G01X0041969Y-041500D02*
G01X0041913Y-041669D01*
G01X0041913Y-041669D02*
G01X0041238Y-042344D01*
G01X0041238Y-042344D02*
G01X0041969Y-042344D01*
G01X0042476Y-042344D02*
G01X0042476Y-041556D01*
G01X0042476Y-041669D02*
G01X0042532Y-041613D01*
G01X0042532Y-041613D02*
G01X0042644Y-041556D01*
G01X0042644Y-041556D02*
G01X0042813Y-041556D01*
G01X0042813Y-041556D02*
G01X0042926Y-041613D01*
G01X0042926Y-041613D02*
G01X0042982Y-041725D01*
G01X0042982Y-041725D02*
G01X0042982Y-042344D01*
G01X0042982Y-041725D02*
G01X0043038Y-041613D01*
G01X0043038Y-041613D02*
G01X0043151Y-041556D01*
G01X0043151Y-041556D02*
G01X0043319Y-041556D01*
G01X0043319Y-041556D02*
G01X0043432Y-041613D01*
G01X0043432Y-041613D02*
G01X0043488Y-041725D01*
G01X0043488Y-041725D02*
G01X0043488Y-042344D01*
G01X0044050Y-042344D02*
G01X0044050Y-041556D01*
G01X0044050Y-041669D02*
G01X0044107Y-041613D01*
G01X0044107Y-041613D02*
G01X0044219Y-041556D01*
G01X0044219Y-041556D02*
G01X0044388Y-041556D01*
G01X0044388Y-041556D02*
G01X0044500Y-041613D01*
G01X0044500Y-041613D02*
G01X0044557Y-041725D01*
G01X0044557Y-041725D02*
G01X0044557Y-042344D01*
G01X0044557Y-041725D02*
G01X0044613Y-041613D01*
G01X0044613Y-041613D02*
G01X0044725Y-041556D01*
G01X0044725Y-041556D02*
G01X0044894Y-041556D01*
G01X0044894Y-041556D02*
G01X0045007Y-041613D01*
G01X0045007Y-041613D02*
G01X0045063Y-041725D01*
G01X0045063Y-041725D02*
G01X0045063Y-042344D01*
G01X0047369Y-041106D02*
G01X0046356Y-042625D01*
G01X0048887Y-041163D02*
G01X0049000Y-041163D01*
G01X0049000Y-041163D02*
G01X0049112Y-041219D01*
G01X0049112Y-041219D02*
G01X0049169Y-041275D01*
G01X0049169Y-041275D02*
G01X0049225Y-041388D01*
G01X0049225Y-041388D02*
G01X0049281Y-041613D01*
G01X0049281Y-041613D02*
G01X0049281Y-041894D01*
G01X0049281Y-041894D02*
G01X0049225Y-042119D01*
G01X0049225Y-042119D02*
G01X0049169Y-042231D01*
G01X0049169Y-042231D02*
G01X0049112Y-042288D01*
G01X0049112Y-042288D02*
G01X0049000Y-042344D01*
G01X0049000Y-042344D02*
G01X0048887Y-042344D01*
G01X0048887Y-042344D02*
G01X0048775Y-042288D01*
G01X0048775Y-042288D02*
G01X0048719Y-042231D01*
G01X0048719Y-042231D02*
G01X0048662Y-042119D01*
G01X0048662Y-042119D02*
G01X0048606Y-041894D01*
G01X0048606Y-041894D02*
G01X0048606Y-041613D01*
G01X0048606Y-041613D02*
G01X0048662Y-041388D01*
G01X0048662Y-041388D02*
G01X0048719Y-041275D01*
G01X0048719Y-041275D02*
G01X0048775Y-041219D01*
G01X0048775Y-041219D02*
G01X0048887Y-041163D01*
G01X0049787Y-042231D02*
G01X0049843Y-042288D01*
G01X0049843Y-042288D02*
G01X0049787Y-042344D01*
G01X0049787Y-042344D02*
G01X0049731Y-042288D01*
G01X0049731Y-042288D02*
G01X0049787Y-042231D01*
G01X0049787Y-042231D02*
G01X0049787Y-042344D01*
G01X0050575Y-041163D02*
G01X0050687Y-041163D01*
G01X0050687Y-041163D02*
G01X0050800Y-041219D01*
G01X0050800Y-041219D02*
G01X0050856Y-041275D01*
G01X0050856Y-041275D02*
G01X0050912Y-041388D01*
G01X0050912Y-041388D02*
G01X0050968Y-041613D01*
G01X0050968Y-041613D02*
G01X0050968Y-041894D01*
G01X0050968Y-041894D02*
G01X0050912Y-042119D01*
G01X0050912Y-042119D02*
G01X0050856Y-042231D01*
G01X0050856Y-042231D02*
G01X0050800Y-042288D01*
G01X0050800Y-042288D02*
G01X0050687Y-042344D01*
G01X0050687Y-042344D02*
G01X0050575Y-042344D01*
G01X0050575Y-042344D02*
G01X0050462Y-042288D01*
G01X0050462Y-042288D02*
G01X0050406Y-042231D01*
G01X0050406Y-042231D02*
G01X0050350Y-042119D01*
G01X0050350Y-042119D02*
G01X0050293Y-041894D01*
G01X0050293Y-041894D02*
G01X0050293Y-041613D01*
G01X0050293Y-041613D02*
G01X0050350Y-041388D01*
G01X0050350Y-041388D02*
G01X0050406Y-041275D01*
G01X0050406Y-041275D02*
G01X0050462Y-041219D01*
G01X0050462Y-041219D02*
G01X0050575Y-041163D01*
G01X0051981Y-041556D02*
G01X0051981Y-042344D01*
G01X0051699Y-041106D02*
G01X0051418Y-041950D01*
G01X0051418Y-041950D02*
G01X0052149Y-041950D01*
G01X0052824Y-041163D02*
G01X0052937Y-041163D01*
G01X0052937Y-041163D02*
G01X0053049Y-041219D01*
G01X0053049Y-041219D02*
G01X0053106Y-041275D01*
G01X0053106Y-041275D02*
G01X0053162Y-041388D01*
G01X0053162Y-041388D02*
G01X0053218Y-041613D01*
G01X0053218Y-041613D02*
G01X0053218Y-041894D01*
G01X0053218Y-041894D02*
G01X0053162Y-042119D01*
G01X0053162Y-042119D02*
G01X0053106Y-042231D01*
G01X0053106Y-042231D02*
G01X0053049Y-042288D01*
G01X0053049Y-042288D02*
G01X0052937Y-042344D01*
G01X0052937Y-042344D02*
G01X0052824Y-042344D01*
G01X0052824Y-042344D02*
G01X0052712Y-042288D01*
G01X0052712Y-042288D02*
G01X0052656Y-042231D01*
G01X0052656Y-042231D02*
G01X0052599Y-042119D01*
G01X0052599Y-042119D02*
G01X0052543Y-041894D01*
G01X0052543Y-041894D02*
G01X0052543Y-041613D01*
G01X0052543Y-041613D02*
G01X0052599Y-041388D01*
G01X0052599Y-041388D02*
G01X0052656Y-041275D01*
G01X0052656Y-041275D02*
G01X0052712Y-041219D01*
G01X0052712Y-041219D02*
G01X0052824Y-041163D01*
G01X0053668Y-041163D02*
G01X0053668Y-041388D01*
G01X0054118Y-041163D02*
G01X0054118Y-041388D01*
G01X0055861Y-042794D02*
G01X0055805Y-042738D01*
G01X0055805Y-042738D02*
G01X0055693Y-042569D01*
G01X0055693Y-042569D02*
G01X0055636Y-042456D01*
G01X0055636Y-042456D02*
G01X0055580Y-042288D01*
G01X0055580Y-042288D02*
G01X0055524Y-042006D01*
G01X0055524Y-042006D02*
G01X0055524Y-041781D01*
G01X0055524Y-041781D02*
G01X0055580Y-041500D01*
G01X0055580Y-041500D02*
G01X0055636Y-041331D01*
G01X0055636Y-041331D02*
G01X0055693Y-041219D01*
G01X0055693Y-041219D02*
G01X0055805Y-041050D01*
G01X0055805Y-041050D02*
G01X0055861Y-040994D01*
G01X0056255Y-041275D02*
G01X0056311Y-041219D01*
G01X0056311Y-041219D02*
G01X0056424Y-041163D01*
G01X0056424Y-041163D02*
G01X0056705Y-041163D01*
G01X0056705Y-041163D02*
G01X0056818Y-041219D01*
G01X0056818Y-041219D02*
G01X0056874Y-041275D01*
G01X0056874Y-041275D02*
G01X0056930Y-041388D01*
G01X0056930Y-041388D02*
G01X0056930Y-041500D01*
G01X0056930Y-041500D02*
G01X0056874Y-041669D01*
G01X0056874Y-041669D02*
G01X0056199Y-042344D01*
G01X0056199Y-042344D02*
G01X0056930Y-042344D01*
G01X0058336Y-042344D02*
G01X0058336Y-041163D01*
G01X0058842Y-042344D02*
G01X0058842Y-041725D01*
G01X0058842Y-041725D02*
G01X0058786Y-041613D01*
G01X0058786Y-041613D02*
G01X0058674Y-041556D01*
G01X0058674Y-041556D02*
G01X0058505Y-041556D01*
G01X0058505Y-041556D02*
G01X0058392Y-041613D01*
G01X0058392Y-041613D02*
G01X0058336Y-041669D01*
G01X0059573Y-042344D02*
G01X0059461Y-042288D01*
G01X0059461Y-042288D02*
G01X0059405Y-042231D01*
G01X0059405Y-042231D02*
G01X0059349Y-042119D01*
G01X0059349Y-042119D02*
G01X0059349Y-041781D01*
G01X0059349Y-041781D02*
G01X0059405Y-041669D01*
G01X0059405Y-041669D02*
G01X0059461Y-041613D01*
G01X0059461Y-041613D02*
G01X0059573Y-041556D01*
G01X0059573Y-041556D02*
G01X0059742Y-041556D01*
G01X0059742Y-041556D02*
G01X0059855Y-041613D01*
G01X0059855Y-041613D02*
G01X0059911Y-041669D01*
G01X0059911Y-041669D02*
G01X0059967Y-041781D01*
G01X0059967Y-041781D02*
G01X0059967Y-042119D01*
G01X0059967Y-042119D02*
G01X0059911Y-042231D01*
G01X0059911Y-042231D02*
G01X0059855Y-042288D01*
G01X0059855Y-042288D02*
G01X0059742Y-042344D01*
G01X0059742Y-042344D02*
G01X0059573Y-042344D01*
G01X0060642Y-042344D02*
G01X0060530Y-042288D01*
G01X0060530Y-042288D02*
G01X0060473Y-042175D01*
G01X0060473Y-042175D02*
G01X0060473Y-041163D01*
G01X0061542Y-042288D02*
G01X0061430Y-042344D01*
G01X0061430Y-042344D02*
G01X0061205Y-042344D01*
G01X0061205Y-042344D02*
G01X0061092Y-042288D01*
G01X0061092Y-042288D02*
G01X0061036Y-042175D01*
G01X0061036Y-042175D02*
G01X0061036Y-041725D01*
G01X0061036Y-041725D02*
G01X0061092Y-041613D01*
G01X0061092Y-041613D02*
G01X0061205Y-041556D01*
G01X0061205Y-041556D02*
G01X0061430Y-041556D01*
G01X0061430Y-041556D02*
G01X0061542Y-041613D01*
G01X0061542Y-041613D02*
G01X0061598Y-041725D01*
G01X0061598Y-041725D02*
G01X0061598Y-041838D01*
G01X0061598Y-041838D02*
G01X0061036Y-041950D01*
G01X0062048Y-042288D02*
G01X0062161Y-042344D01*
G01X0062161Y-042344D02*
G01X0062386Y-042344D01*
G01X0062386Y-042344D02*
G01X0062498Y-042288D01*
G01X0062498Y-042288D02*
G01X0062554Y-042175D01*
G01X0062554Y-042175D02*
G01X0062554Y-042119D01*
G01X0062554Y-042119D02*
G01X0062498Y-042006D01*
G01X0062498Y-042006D02*
G01X0062386Y-041950D01*
G01X0062386Y-041950D02*
G01X0062217Y-041950D01*
G01X0062217Y-041950D02*
G01X0062104Y-041894D01*
G01X0062104Y-041894D02*
G01X0062048Y-041781D01*
G01X0062048Y-041781D02*
G01X0062048Y-041725D01*
G01X0062048Y-041725D02*
G01X0062104Y-041613D01*
G01X0062104Y-041613D02*
G01X0062217Y-041556D01*
G01X0062217Y-041556D02*
G01X0062386Y-041556D01*
G01X0062386Y-041556D02*
G01X0062498Y-041613D01*
G01X0062948Y-042794D02*
G01X0063004Y-042738D01*
G01X0063004Y-042738D02*
G01X0063117Y-042569D01*
G01X0063117Y-042569D02*
G01X0063173Y-042456D01*
G01X0063173Y-042456D02*
G01X0063229Y-042288D01*
G01X0063229Y-042288D02*
G01X0063286Y-042006D01*
G01X0063286Y-042006D02*
G01X0063286Y-041781D01*
G01X0063286Y-041781D02*
G01X0063229Y-041500D01*
G01X0063229Y-041500D02*
G01X0063173Y-041331D01*
G01X0063173Y-041331D02*
G01X0063117Y-041219D01*
G01X0063117Y-041219D02*
G01X0063004Y-041050D01*
G01X0063004Y-041050D02*
G01X0062948Y-040994D01*
G01X0000000Y0000000D02*
G54D11*
G01X0064500Y-038000D02*
G01X0064500Y-033000D01*
G01X0037500Y-038000D02*
G01X0064500Y-038000D01*
G01X0037500Y-033000D02*
G01X0037500Y-038000D01*
G01X0064500Y-033000D02*
G01X0037500Y-033000D01*
G01X0000000Y0000000D02*
G54D15*
G01X0046700Y-030300D02*
G75*
G03X0046700Y-030300I-000500J0000000D01*
G01X0045050Y-031100D02*
G01X0045050Y-029500D01*
G01X0047350Y-031100D02*
G01X0045050Y-031100D01*
G01X0047350Y-029500D02*
G01X0047350Y-031100D01*
G01X0045050Y-029500D02*
G01X0047350Y-029500D01*
G01X0047450Y-037000D02*
G01X0041200Y-037000D01*
G01X0068250Y-040250D02*
G01X0068250Y-037250D01*
G01X0070250Y-040250D02*
G01X0068250Y-040250D01*
G01X0070250Y-037250D02*
G01X0070250Y-040250D01*
G01X0068250Y-037250D02*
G01X0070250Y-037250D01*
G01X0042950Y-048500D02*
G01X0042950Y-045000D01*
G01X0048200Y-048500D02*
G01X0042950Y-048500D01*
G01X0048200Y-045000D02*
G01X0048200Y-048500D01*
G01X0042950Y-045000D02*
G01X0048200Y-045000D01*
G01X0041200Y-037000D02*
G01X0041200Y-032500D01*
G01X0047450Y-032500D02*
G01X0047450Y-037000D01*
G01X0041200Y-032500D02*
G01X0047450Y-032500D01*
M02*
