%TF.GenerationSoftware,KiCad,Pcbnew,4.0.5-e0-6337~49~ubuntu16.04.1*%
%TF.CreationDate,2017-08-14T10:46:21-07:00*%
%TF.ProjectId,mcphail-photodiode-detector-board,6D63706861696C2D70686F746F64696F,1.0*%
%TF.FileFunction,Legend,Top*%
%FSLAX46Y46*%
G04 Gerber Fmt 4.6, Leading zero omitted, Abs format (unit mm)*
G04 Created by KiCad (PCBNEW 4.0.5-e0-6337~49~ubuntu16.04.1) date Mon Aug 14 10:46:21 2017*
%MOMM*%
%LPD*%
G01*
G04 APERTURE LIST*
%ADD10C,0.350000*%
%ADD11C,0.254000*%
%ADD12C,0.152400*%
%ADD13C,0.300000*%
%ADD14C,0.150000*%
%ADD15C,0.049784*%
%ADD16C,0.250000*%
%ADD17R,2.184400X2.184400*%
%ADD18O,2.184400X2.184400*%
%ADD19R,4.702400X0.902400*%
G04 APERTURE END LIST*
D10*
D11*
X112551029Y-91868171D02*
X111704362Y-91868171D01*
X111704362Y-93198648D02*
X111704362Y-90658648D01*
X112913886Y-90658648D01*
X113760553Y-92472933D02*
X114970076Y-92472933D01*
X113518648Y-93198648D02*
X114365314Y-90658648D01*
X115211981Y-93198648D01*
X116905315Y-91868171D02*
X117268172Y-91989124D01*
X117389124Y-92110076D01*
X117510076Y-92351981D01*
X117510076Y-92714838D01*
X117389124Y-92956743D01*
X117268172Y-93077695D01*
X117026267Y-93198648D01*
X116058648Y-93198648D01*
X116058648Y-90658648D01*
X116905315Y-90658648D01*
X117147219Y-90779600D01*
X117268172Y-90900552D01*
X117389124Y-91142457D01*
X117389124Y-91384362D01*
X117268172Y-91626267D01*
X117147219Y-91747219D01*
X116905315Y-91868171D01*
X116058648Y-91868171D01*
X120050076Y-93198648D02*
X119203410Y-91989124D01*
X118598648Y-93198648D02*
X118598648Y-90658648D01*
X119566267Y-90658648D01*
X119808172Y-90779600D01*
X119929124Y-90900552D01*
X120050076Y-91142457D01*
X120050076Y-91505314D01*
X119929124Y-91747219D01*
X119808172Y-91868171D01*
X119566267Y-91989124D01*
X118598648Y-91989124D01*
X121138648Y-93198648D02*
X121138648Y-90658648D01*
X123799600Y-92956743D02*
X123678648Y-93077695D01*
X123315791Y-93198648D01*
X123073886Y-93198648D01*
X122711029Y-93077695D01*
X122469124Y-92835790D01*
X122348172Y-92593886D01*
X122227220Y-92110076D01*
X122227220Y-91747219D01*
X122348172Y-91263410D01*
X122469124Y-91021505D01*
X122711029Y-90779600D01*
X123073886Y-90658648D01*
X123315791Y-90658648D01*
X123678648Y-90779600D01*
X123799600Y-90900552D01*
X124767220Y-92472933D02*
X125976743Y-92472933D01*
X124525315Y-93198648D02*
X125371981Y-90658648D01*
X126218648Y-93198648D01*
X126702458Y-90658648D02*
X128153886Y-90658648D01*
X127428172Y-93198648D02*
X127428172Y-90658648D01*
X129000553Y-93198648D02*
X129000553Y-90658648D01*
X130693886Y-90658648D02*
X131177696Y-90658648D01*
X131419601Y-90779600D01*
X131661505Y-91021505D01*
X131782458Y-91505314D01*
X131782458Y-92351981D01*
X131661505Y-92835790D01*
X131419601Y-93077695D01*
X131177696Y-93198648D01*
X130693886Y-93198648D01*
X130451982Y-93077695D01*
X130210077Y-92835790D01*
X130089125Y-92351981D01*
X130089125Y-91505314D01*
X130210077Y-91021505D01*
X130451982Y-90779600D01*
X130693886Y-90658648D01*
X132871029Y-93198648D02*
X132871029Y-90658648D01*
X134322457Y-93198648D01*
X134322457Y-90658648D01*
X137467219Y-93198648D02*
X137467219Y-90658648D01*
X138918647Y-93198648D01*
X138918647Y-90658648D01*
X140611980Y-90658648D02*
X141095790Y-90658648D01*
X141337695Y-90779600D01*
X141579599Y-91021505D01*
X141700552Y-91505314D01*
X141700552Y-92351981D01*
X141579599Y-92835790D01*
X141337695Y-93077695D01*
X141095790Y-93198648D01*
X140611980Y-93198648D01*
X140370076Y-93077695D01*
X140128171Y-92835790D01*
X140007219Y-92351981D01*
X140007219Y-91505314D01*
X140128171Y-91021505D01*
X140370076Y-90779600D01*
X140611980Y-90658648D01*
X142426266Y-90658648D02*
X143877694Y-90658648D01*
X143151980Y-93198648D02*
X143151980Y-90658648D01*
X144724361Y-91868171D02*
X145571028Y-91868171D01*
X145933885Y-93198648D02*
X144724361Y-93198648D01*
X144724361Y-90658648D01*
X145933885Y-90658648D01*
X146901504Y-93077695D02*
X147264361Y-93198648D01*
X147869123Y-93198648D01*
X148111027Y-93077695D01*
X148231980Y-92956743D01*
X148352932Y-92714838D01*
X148352932Y-92472933D01*
X148231980Y-92231029D01*
X148111027Y-92110076D01*
X147869123Y-91989124D01*
X147385313Y-91868171D01*
X147143408Y-91747219D01*
X147022456Y-91626267D01*
X146901504Y-91384362D01*
X146901504Y-91142457D01*
X147022456Y-90900552D01*
X147143408Y-90779600D01*
X147385313Y-90658648D01*
X147990075Y-90658648D01*
X148352932Y-90779600D01*
X113034838Y-101326648D02*
X111583410Y-101326648D01*
X112309124Y-101326648D02*
X112309124Y-98786648D01*
X112067219Y-99149505D01*
X111825314Y-99391410D01*
X111583410Y-99512362D01*
X114123410Y-101084743D02*
X114244362Y-101205695D01*
X114123410Y-101326648D01*
X114002458Y-101205695D01*
X114123410Y-101084743D01*
X114123410Y-101326648D01*
X116905315Y-98786648D02*
X118356743Y-98786648D01*
X117631029Y-101326648D02*
X117631029Y-98786648D01*
X119203410Y-101326648D02*
X119203410Y-98786648D01*
X119203410Y-99996171D02*
X120654838Y-99996171D01*
X120654838Y-101326648D02*
X120654838Y-98786648D01*
X121864362Y-101326648D02*
X121864362Y-98786648D01*
X122952934Y-101205695D02*
X123315791Y-101326648D01*
X123920553Y-101326648D01*
X124162457Y-101205695D01*
X124283410Y-101084743D01*
X124404362Y-100842838D01*
X124404362Y-100600933D01*
X124283410Y-100359029D01*
X124162457Y-100238076D01*
X123920553Y-100117124D01*
X123436743Y-99996171D01*
X123194838Y-99875219D01*
X123073886Y-99754267D01*
X122952934Y-99512362D01*
X122952934Y-99270457D01*
X123073886Y-99028552D01*
X123194838Y-98907600D01*
X123436743Y-98786648D01*
X124041505Y-98786648D01*
X124404362Y-98907600D01*
X127428172Y-101326648D02*
X127428172Y-98786648D01*
X128516744Y-101205695D02*
X128879601Y-101326648D01*
X129484363Y-101326648D01*
X129726267Y-101205695D01*
X129847220Y-101084743D01*
X129968172Y-100842838D01*
X129968172Y-100600933D01*
X129847220Y-100359029D01*
X129726267Y-100238076D01*
X129484363Y-100117124D01*
X129000553Y-99996171D01*
X128758648Y-99875219D01*
X128637696Y-99754267D01*
X128516744Y-99512362D01*
X128516744Y-99270457D01*
X128637696Y-99028552D01*
X128758648Y-98907600D01*
X129000553Y-98786648D01*
X129605315Y-98786648D01*
X129968172Y-98907600D01*
X132871030Y-100600933D02*
X134080553Y-100600933D01*
X132629125Y-101326648D02*
X133475791Y-98786648D01*
X134322458Y-101326648D01*
X136983411Y-99028552D02*
X137104363Y-98907600D01*
X137346268Y-98786648D01*
X137951030Y-98786648D01*
X138192934Y-98907600D01*
X138313887Y-99028552D01*
X138434839Y-99270457D01*
X138434839Y-99512362D01*
X138313887Y-99875219D01*
X136862458Y-101326648D01*
X138434839Y-101326648D01*
X142668173Y-101326648D02*
X141458649Y-101326648D01*
X141458649Y-98786648D01*
X143393887Y-100600933D02*
X144603410Y-100600933D01*
X143151982Y-101326648D02*
X143998648Y-98786648D01*
X144845315Y-101326648D01*
X146175791Y-100117124D02*
X146175791Y-101326648D01*
X145329125Y-98786648D02*
X146175791Y-100117124D01*
X147022458Y-98786648D01*
X147869125Y-99996171D02*
X148715792Y-99996171D01*
X149078649Y-101326648D02*
X147869125Y-101326648D01*
X147869125Y-98786648D01*
X149078649Y-98786648D01*
X151618648Y-101326648D02*
X150771982Y-100117124D01*
X150167220Y-101326648D02*
X150167220Y-98786648D01*
X151134839Y-98786648D01*
X151376744Y-98907600D01*
X151497696Y-99028552D01*
X151618648Y-99270457D01*
X151618648Y-99633314D01*
X151497696Y-99875219D01*
X151376744Y-99996171D01*
X151134839Y-100117124D01*
X150167220Y-100117124D01*
X155489125Y-99996171D02*
X155851982Y-100117124D01*
X155972934Y-100238076D01*
X156093886Y-100479981D01*
X156093886Y-100842838D01*
X155972934Y-101084743D01*
X155851982Y-101205695D01*
X155610077Y-101326648D01*
X154642458Y-101326648D01*
X154642458Y-98786648D01*
X155489125Y-98786648D01*
X155731029Y-98907600D01*
X155851982Y-99028552D01*
X155972934Y-99270457D01*
X155972934Y-99512362D01*
X155851982Y-99754267D01*
X155731029Y-99875219D01*
X155489125Y-99996171D01*
X154642458Y-99996171D01*
X157666267Y-98786648D02*
X158150077Y-98786648D01*
X158391982Y-98907600D01*
X158633886Y-99149505D01*
X158754839Y-99633314D01*
X158754839Y-100479981D01*
X158633886Y-100963790D01*
X158391982Y-101205695D01*
X158150077Y-101326648D01*
X157666267Y-101326648D01*
X157424363Y-101205695D01*
X157182458Y-100963790D01*
X157061506Y-100479981D01*
X157061506Y-99633314D01*
X157182458Y-99149505D01*
X157424363Y-98907600D01*
X157666267Y-98786648D01*
X159722458Y-100600933D02*
X160931981Y-100600933D01*
X159480553Y-101326648D02*
X160327219Y-98786648D01*
X161173886Y-101326648D01*
X163471981Y-101326648D02*
X162625315Y-100117124D01*
X162020553Y-101326648D02*
X162020553Y-98786648D01*
X162988172Y-98786648D01*
X163230077Y-98907600D01*
X163351029Y-99028552D01*
X163471981Y-99270457D01*
X163471981Y-99633314D01*
X163351029Y-99875219D01*
X163230077Y-99996171D01*
X162988172Y-100117124D01*
X162020553Y-100117124D01*
X164560553Y-101326648D02*
X164560553Y-98786648D01*
X165165315Y-98786648D01*
X165528172Y-98907600D01*
X165770077Y-99149505D01*
X165891029Y-99391410D01*
X166011981Y-99875219D01*
X166011981Y-100238076D01*
X165891029Y-100721886D01*
X165770077Y-100963790D01*
X165528172Y-101205695D01*
X165165315Y-101326648D01*
X164560553Y-101326648D01*
X167100553Y-101084743D02*
X167221505Y-101205695D01*
X167100553Y-101326648D01*
X166979601Y-101205695D01*
X167100553Y-101084743D01*
X167100553Y-101326648D01*
X111583410Y-103092552D02*
X111704362Y-102971600D01*
X111946267Y-102850648D01*
X112551029Y-102850648D01*
X112792933Y-102971600D01*
X112913886Y-103092552D01*
X113034838Y-103334457D01*
X113034838Y-103576362D01*
X112913886Y-103939219D01*
X111462457Y-105390648D01*
X113034838Y-105390648D01*
X114123410Y-105148743D02*
X114244362Y-105269695D01*
X114123410Y-105390648D01*
X114002458Y-105269695D01*
X114123410Y-105148743D01*
X114123410Y-105390648D01*
X117268172Y-104060171D02*
X118114839Y-104060171D01*
X118477696Y-105390648D02*
X117268172Y-105390648D01*
X117268172Y-102850648D01*
X118477696Y-102850648D01*
X119324362Y-102850648D02*
X121017695Y-105390648D01*
X121017695Y-102850648D02*
X119324362Y-105390648D01*
X121622458Y-102850648D02*
X123073886Y-102850648D01*
X122348172Y-105390648D02*
X122348172Y-102850648D01*
X123920553Y-104060171D02*
X124767220Y-104060171D01*
X125130077Y-105390648D02*
X123920553Y-105390648D01*
X123920553Y-102850648D01*
X125130077Y-102850648D01*
X127670076Y-105390648D02*
X126823410Y-104181124D01*
X126218648Y-105390648D02*
X126218648Y-102850648D01*
X127186267Y-102850648D01*
X127428172Y-102971600D01*
X127549124Y-103092552D01*
X127670076Y-103334457D01*
X127670076Y-103697314D01*
X127549124Y-103939219D01*
X127428172Y-104060171D01*
X127186267Y-104181124D01*
X126218648Y-104181124D01*
X128758648Y-105390648D02*
X128758648Y-102850648D01*
X130210076Y-105390648D01*
X130210076Y-102850648D01*
X131298648Y-104664933D02*
X132508171Y-104664933D01*
X131056743Y-105390648D02*
X131903409Y-102850648D01*
X132750076Y-105390648D01*
X134806267Y-105390648D02*
X133596743Y-105390648D01*
X133596743Y-102850648D01*
X138797695Y-105390648D02*
X137588171Y-105390648D01*
X137588171Y-102850648D01*
X139523409Y-104664933D02*
X140732932Y-104664933D01*
X139281504Y-105390648D02*
X140128170Y-102850648D01*
X140974837Y-105390648D01*
X142305313Y-104181124D02*
X142305313Y-105390648D01*
X141458647Y-102850648D02*
X142305313Y-104181124D01*
X143151980Y-102850648D01*
X143998647Y-104060171D02*
X144845314Y-104060171D01*
X145208171Y-105390648D02*
X143998647Y-105390648D01*
X143998647Y-102850648D01*
X145208171Y-102850648D01*
X147748170Y-105390648D02*
X146901504Y-104181124D01*
X146296742Y-105390648D02*
X146296742Y-102850648D01*
X147264361Y-102850648D01*
X147506266Y-102971600D01*
X147627218Y-103092552D01*
X147748170Y-103334457D01*
X147748170Y-103697314D01*
X147627218Y-103939219D01*
X147506266Y-104060171D01*
X147264361Y-104181124D01*
X146296742Y-104181124D01*
X148715790Y-105269695D02*
X149078647Y-105390648D01*
X149683409Y-105390648D01*
X149925313Y-105269695D01*
X150046266Y-105148743D01*
X150167218Y-104906838D01*
X150167218Y-104664933D01*
X150046266Y-104423029D01*
X149925313Y-104302076D01*
X149683409Y-104181124D01*
X149199599Y-104060171D01*
X148957694Y-103939219D01*
X148836742Y-103818267D01*
X148715790Y-103576362D01*
X148715790Y-103334457D01*
X148836742Y-103092552D01*
X148957694Y-102971600D01*
X149199599Y-102850648D01*
X149804361Y-102850648D01*
X150167218Y-102971600D01*
X153070076Y-105269695D02*
X153432933Y-105390648D01*
X154037695Y-105390648D01*
X154279599Y-105269695D01*
X154400552Y-105148743D01*
X154521504Y-104906838D01*
X154521504Y-104664933D01*
X154400552Y-104423029D01*
X154279599Y-104302076D01*
X154037695Y-104181124D01*
X153553885Y-104060171D01*
X153311980Y-103939219D01*
X153191028Y-103818267D01*
X153070076Y-103576362D01*
X153070076Y-103334457D01*
X153191028Y-103092552D01*
X153311980Y-102971600D01*
X153553885Y-102850648D01*
X154158647Y-102850648D01*
X154521504Y-102971600D01*
X155610076Y-105390648D02*
X155610076Y-102850648D01*
X155610076Y-104060171D02*
X157061504Y-104060171D01*
X157061504Y-105390648D02*
X157061504Y-102850648D01*
X158150076Y-104664933D02*
X159359599Y-104664933D01*
X157908171Y-105390648D02*
X158754837Y-102850648D01*
X159601504Y-105390648D01*
X161657695Y-105390648D02*
X160448171Y-105390648D01*
X160448171Y-102850648D01*
X163713885Y-105390648D02*
X162504361Y-105390648D01*
X162504361Y-102850648D01*
X166495789Y-105390648D02*
X166495789Y-102850648D01*
X166495789Y-104060171D02*
X167947217Y-104060171D01*
X167947217Y-105390648D02*
X167947217Y-102850648D01*
X169035789Y-104664933D02*
X170245312Y-104664933D01*
X168793884Y-105390648D02*
X169640550Y-102850648D01*
X170487217Y-105390648D01*
X170971027Y-102850648D02*
X171817693Y-105390648D01*
X172664360Y-102850648D01*
X173511027Y-104060171D02*
X174357694Y-104060171D01*
X174720551Y-105390648D02*
X173511027Y-105390648D01*
X173511027Y-102850648D01*
X174720551Y-102850648D01*
X179074836Y-105390648D02*
X177623408Y-105390648D01*
X178349122Y-105390648D02*
X178349122Y-102850648D01*
X178107217Y-103213505D01*
X177865312Y-103455410D01*
X177623408Y-103576362D01*
X182582455Y-102850648D02*
X183066265Y-102850648D01*
X183308170Y-102971600D01*
X183550074Y-103213505D01*
X183671027Y-103697314D01*
X183671027Y-104543981D01*
X183550074Y-105027790D01*
X183308170Y-105269695D01*
X183066265Y-105390648D01*
X182582455Y-105390648D01*
X182340551Y-105269695D01*
X182098646Y-105027790D01*
X181977694Y-104543981D01*
X181977694Y-103697314D01*
X182098646Y-103213505D01*
X182340551Y-102971600D01*
X182582455Y-102850648D01*
X184517693Y-102850648D02*
X186211026Y-102850648D01*
X184517693Y-105390648D01*
X186211026Y-105390648D01*
X190565312Y-105148743D02*
X190444360Y-105269695D01*
X190081503Y-105390648D01*
X189839598Y-105390648D01*
X189476741Y-105269695D01*
X189234836Y-105027790D01*
X189113884Y-104785886D01*
X188992932Y-104302076D01*
X188992932Y-103939219D01*
X189113884Y-103455410D01*
X189234836Y-103213505D01*
X189476741Y-102971600D01*
X189839598Y-102850648D01*
X190081503Y-102850648D01*
X190444360Y-102971600D01*
X190565312Y-103092552D01*
X192137693Y-102850648D02*
X192621503Y-102850648D01*
X192863408Y-102971600D01*
X193105312Y-103213505D01*
X193226265Y-103697314D01*
X193226265Y-104543981D01*
X193105312Y-105027790D01*
X192863408Y-105269695D01*
X192621503Y-105390648D01*
X192137693Y-105390648D01*
X191895789Y-105269695D01*
X191653884Y-105027790D01*
X191532932Y-104543981D01*
X191532932Y-103697314D01*
X191653884Y-103213505D01*
X191895789Y-102971600D01*
X192137693Y-102850648D01*
X194314836Y-105390648D02*
X194314836Y-102850648D01*
X195282455Y-102850648D01*
X195524360Y-102971600D01*
X195645312Y-103092552D01*
X195766264Y-103334457D01*
X195766264Y-103697314D01*
X195645312Y-103939219D01*
X195524360Y-104060171D01*
X195282455Y-104181124D01*
X194314836Y-104181124D01*
X196854836Y-105390648D02*
X196854836Y-102850648D01*
X197822455Y-102850648D01*
X198064360Y-102971600D01*
X198185312Y-103092552D01*
X198306264Y-103334457D01*
X198306264Y-103697314D01*
X198185312Y-103939219D01*
X198064360Y-104060171D01*
X197822455Y-104181124D01*
X196854836Y-104181124D01*
X199394836Y-104060171D02*
X200241503Y-104060171D01*
X200604360Y-105390648D02*
X199394836Y-105390648D01*
X199394836Y-102850648D01*
X200604360Y-102850648D01*
X203144359Y-105390648D02*
X202297693Y-104181124D01*
X201692931Y-105390648D02*
X201692931Y-102850648D01*
X202660550Y-102850648D01*
X202902455Y-102971600D01*
X203023407Y-103092552D01*
X203144359Y-103334457D01*
X203144359Y-103697314D01*
X203023407Y-103939219D01*
X202902455Y-104060171D01*
X202660550Y-104181124D01*
X201692931Y-104181124D01*
X204232931Y-105148743D02*
X204353883Y-105269695D01*
X204232931Y-105390648D01*
X204111979Y-105269695D01*
X204232931Y-105148743D01*
X204232931Y-105390648D01*
X111462457Y-106914648D02*
X113034838Y-106914648D01*
X112188171Y-107882267D01*
X112551029Y-107882267D01*
X112792933Y-108003219D01*
X112913886Y-108124171D01*
X113034838Y-108366076D01*
X113034838Y-108970838D01*
X112913886Y-109212743D01*
X112792933Y-109333695D01*
X112551029Y-109454648D01*
X111825314Y-109454648D01*
X111583410Y-109333695D01*
X111462457Y-109212743D01*
X114123410Y-109212743D02*
X114244362Y-109333695D01*
X114123410Y-109454648D01*
X114002458Y-109333695D01*
X114123410Y-109212743D01*
X114123410Y-109454648D01*
X117268172Y-109454648D02*
X117268172Y-106914648D01*
X118114839Y-108728933D01*
X118961505Y-106914648D01*
X118961505Y-109454648D01*
X120050077Y-108728933D02*
X121259600Y-108728933D01*
X119808172Y-109454648D02*
X120654838Y-106914648D01*
X121501505Y-109454648D01*
X121985315Y-106914648D02*
X123436743Y-106914648D01*
X122711029Y-109454648D02*
X122711029Y-106914648D01*
X124283410Y-108124171D02*
X125130077Y-108124171D01*
X125492934Y-109454648D02*
X124283410Y-109454648D01*
X124283410Y-106914648D01*
X125492934Y-106914648D01*
X128032933Y-109454648D02*
X127186267Y-108245124D01*
X126581505Y-109454648D02*
X126581505Y-106914648D01*
X127549124Y-106914648D01*
X127791029Y-107035600D01*
X127911981Y-107156552D01*
X128032933Y-107398457D01*
X128032933Y-107761314D01*
X127911981Y-108003219D01*
X127791029Y-108124171D01*
X127549124Y-108245124D01*
X126581505Y-108245124D01*
X129121505Y-109454648D02*
X129121505Y-106914648D01*
X130210077Y-108728933D02*
X131419600Y-108728933D01*
X129968172Y-109454648D02*
X130814838Y-106914648D01*
X131661505Y-109454648D01*
X133717696Y-109454648D02*
X132508172Y-109454648D01*
X132508172Y-106914648D01*
X134564362Y-109212743D02*
X134685314Y-109333695D01*
X134564362Y-109454648D01*
X134443410Y-109333695D01*
X134564362Y-109212743D01*
X134564362Y-109454648D01*
X134564362Y-107882267D02*
X134685314Y-108003219D01*
X134564362Y-108124171D01*
X134443410Y-108003219D01*
X134564362Y-107882267D01*
X134564362Y-108124171D01*
X138555791Y-108124171D02*
X137709124Y-108124171D01*
X137709124Y-109454648D02*
X137709124Y-106914648D01*
X138918648Y-106914648D01*
X141337695Y-109454648D02*
X140491029Y-108245124D01*
X139886267Y-109454648D02*
X139886267Y-106914648D01*
X140853886Y-106914648D01*
X141095791Y-107035600D01*
X141216743Y-107156552D01*
X141337695Y-107398457D01*
X141337695Y-107761314D01*
X141216743Y-108003219D01*
X141095791Y-108124171D01*
X140853886Y-108245124D01*
X139886267Y-108245124D01*
X143514838Y-107761314D02*
X143514838Y-109454648D01*
X142910076Y-106793695D02*
X142305315Y-108607981D01*
X143877695Y-108607981D01*
X146659601Y-108728933D02*
X147869124Y-108728933D01*
X146417696Y-109454648D02*
X147264362Y-106914648D01*
X148111029Y-109454648D01*
X148957696Y-109454648D02*
X148957696Y-106914648D01*
X150409124Y-109454648D01*
X150409124Y-106914648D01*
X151618648Y-109454648D02*
X151618648Y-106914648D01*
X152223410Y-106914648D01*
X152586267Y-107035600D01*
X152828172Y-107277505D01*
X152949124Y-107519410D01*
X153070076Y-108003219D01*
X153070076Y-108366076D01*
X152949124Y-108849886D01*
X152828172Y-109091790D01*
X152586267Y-109333695D01*
X152223410Y-109454648D01*
X151618648Y-109454648D01*
X156577695Y-106914648D02*
X156819600Y-106914648D01*
X157061505Y-107035600D01*
X157182457Y-107156552D01*
X157303410Y-107398457D01*
X157424362Y-107882267D01*
X157424362Y-108487029D01*
X157303410Y-108970838D01*
X157182457Y-109212743D01*
X157061505Y-109333695D01*
X156819600Y-109454648D01*
X156577695Y-109454648D01*
X156335791Y-109333695D01*
X156214838Y-109212743D01*
X156093886Y-108970838D01*
X155972934Y-108487029D01*
X155972934Y-107882267D01*
X156093886Y-107398457D01*
X156214838Y-107156552D01*
X156335791Y-107035600D01*
X156577695Y-106914648D01*
X158512934Y-109212743D02*
X158633886Y-109333695D01*
X158512934Y-109454648D01*
X158391982Y-109333695D01*
X158512934Y-109212743D01*
X158512934Y-109454648D01*
X160206267Y-106914648D02*
X160448172Y-106914648D01*
X160690077Y-107035600D01*
X160811029Y-107156552D01*
X160931982Y-107398457D01*
X161052934Y-107882267D01*
X161052934Y-108487029D01*
X160931982Y-108970838D01*
X160811029Y-109212743D01*
X160690077Y-109333695D01*
X160448172Y-109454648D01*
X160206267Y-109454648D01*
X159964363Y-109333695D01*
X159843410Y-109212743D01*
X159722458Y-108970838D01*
X159601506Y-108487029D01*
X159601506Y-107882267D01*
X159722458Y-107398457D01*
X159843410Y-107156552D01*
X159964363Y-107035600D01*
X160206267Y-106914648D01*
X163230077Y-106914648D02*
X162746268Y-106914648D01*
X162504363Y-107035600D01*
X162383411Y-107156552D01*
X162141506Y-107519410D01*
X162020554Y-108003219D01*
X162020554Y-108970838D01*
X162141506Y-109212743D01*
X162262458Y-109333695D01*
X162504363Y-109454648D01*
X162988173Y-109454648D01*
X163230077Y-109333695D01*
X163351030Y-109212743D01*
X163471982Y-108970838D01*
X163471982Y-108366076D01*
X163351030Y-108124171D01*
X163230077Y-108003219D01*
X162988173Y-107882267D01*
X162504363Y-107882267D01*
X162262458Y-108003219D01*
X162141506Y-108124171D01*
X162020554Y-108366076D01*
X164439602Y-107156552D02*
X164560554Y-107035600D01*
X164802459Y-106914648D01*
X165407221Y-106914648D01*
X165649125Y-107035600D01*
X165770078Y-107156552D01*
X165891030Y-107398457D01*
X165891030Y-107640362D01*
X165770078Y-108003219D01*
X164318649Y-109454648D01*
X165891030Y-109454648D01*
X168914840Y-109454648D02*
X168914840Y-106914648D01*
X170124364Y-109454648D02*
X170124364Y-106914648D01*
X171575792Y-109454648D01*
X171575792Y-106914648D01*
X174236744Y-109212743D02*
X174115792Y-109333695D01*
X173752935Y-109454648D01*
X173511030Y-109454648D01*
X173148173Y-109333695D01*
X172906268Y-109091790D01*
X172785316Y-108849886D01*
X172664364Y-108366076D01*
X172664364Y-108003219D01*
X172785316Y-107519410D01*
X172906268Y-107277505D01*
X173148173Y-107035600D01*
X173511030Y-106914648D01*
X173752935Y-106914648D01*
X174115792Y-107035600D01*
X174236744Y-107156552D01*
X175325316Y-109454648D02*
X175325316Y-106914648D01*
X175325316Y-108124171D02*
X176776744Y-108124171D01*
X176776744Y-109454648D02*
X176776744Y-106914648D01*
X179921506Y-108487029D02*
X181856744Y-108487029D01*
X180889125Y-109454648D02*
X180889125Y-107519410D01*
X184880554Y-106793695D02*
X182703411Y-110059410D01*
X185727220Y-108487029D02*
X187662458Y-108487029D01*
X192137696Y-109454648D02*
X190686268Y-109454648D01*
X191411982Y-109454648D02*
X191411982Y-106914648D01*
X191170077Y-107277505D01*
X190928172Y-107519410D01*
X190686268Y-107640362D01*
X193710077Y-106914648D02*
X193951982Y-106914648D01*
X194193887Y-107035600D01*
X194314839Y-107156552D01*
X194435792Y-107398457D01*
X194556744Y-107882267D01*
X194556744Y-108487029D01*
X194435792Y-108970838D01*
X194314839Y-109212743D01*
X194193887Y-109333695D01*
X193951982Y-109454648D01*
X193710077Y-109454648D01*
X193468173Y-109333695D01*
X193347220Y-109212743D01*
X193226268Y-108970838D01*
X193105316Y-108487029D01*
X193105316Y-107882267D01*
X193226268Y-107398457D01*
X193347220Y-107156552D01*
X193468173Y-107035600D01*
X193710077Y-106914648D01*
X195524364Y-109454648D02*
X197459602Y-106914648D01*
X195887221Y-106914648D02*
X196129125Y-107035600D01*
X196250078Y-107277505D01*
X196129125Y-107519410D01*
X195887221Y-107640362D01*
X195645316Y-107519410D01*
X195524364Y-107277505D01*
X195645316Y-107035600D01*
X195887221Y-106914648D01*
X197338649Y-109333695D02*
X197459602Y-109091790D01*
X197338649Y-108849886D01*
X197096744Y-108728933D01*
X196854840Y-108849886D01*
X196733887Y-109091790D01*
X196854840Y-109333695D01*
X197096744Y-109454648D01*
X197338649Y-109333695D01*
X200120554Y-106914648D02*
X201571982Y-106914648D01*
X200846268Y-109454648D02*
X200846268Y-106914648D01*
X202418649Y-109454648D02*
X202418649Y-106914648D01*
X202418649Y-108124171D02*
X203870077Y-108124171D01*
X203870077Y-109454648D02*
X203870077Y-106914648D01*
X205079601Y-109454648D02*
X205079601Y-106914648D01*
X207740553Y-109212743D02*
X207619601Y-109333695D01*
X207256744Y-109454648D01*
X207014839Y-109454648D01*
X206651982Y-109333695D01*
X206410077Y-109091790D01*
X206289125Y-108849886D01*
X206168173Y-108366076D01*
X206168173Y-108003219D01*
X206289125Y-107519410D01*
X206410077Y-107277505D01*
X206651982Y-107035600D01*
X207014839Y-106914648D01*
X207256744Y-106914648D01*
X207619601Y-107035600D01*
X207740553Y-107156552D01*
X208829125Y-109454648D02*
X208829125Y-106914648D01*
X210280553Y-109454648D02*
X209191982Y-108003219D01*
X210280553Y-106914648D02*
X208829125Y-108366076D01*
X211369125Y-109212743D02*
X211490077Y-109333695D01*
X211369125Y-109454648D01*
X211248173Y-109333695D01*
X211369125Y-109212743D01*
X211369125Y-109454648D01*
X112792933Y-111825314D02*
X112792933Y-113518648D01*
X112188171Y-110857695D02*
X111583410Y-112671981D01*
X113155790Y-112671981D01*
X114123410Y-113276743D02*
X114244362Y-113397695D01*
X114123410Y-113518648D01*
X114002458Y-113397695D01*
X114123410Y-113276743D01*
X114123410Y-113518648D01*
X118114839Y-112188171D02*
X118477696Y-112309124D01*
X118598648Y-112430076D01*
X118719600Y-112671981D01*
X118719600Y-113034838D01*
X118598648Y-113276743D01*
X118477696Y-113397695D01*
X118235791Y-113518648D01*
X117268172Y-113518648D01*
X117268172Y-110978648D01*
X118114839Y-110978648D01*
X118356743Y-111099600D01*
X118477696Y-111220552D01*
X118598648Y-111462457D01*
X118598648Y-111704362D01*
X118477696Y-111946267D01*
X118356743Y-112067219D01*
X118114839Y-112188171D01*
X117268172Y-112188171D01*
X120291981Y-110978648D02*
X120775791Y-110978648D01*
X121017696Y-111099600D01*
X121259600Y-111341505D01*
X121380553Y-111825314D01*
X121380553Y-112671981D01*
X121259600Y-113155790D01*
X121017696Y-113397695D01*
X120775791Y-113518648D01*
X120291981Y-113518648D01*
X120050077Y-113397695D01*
X119808172Y-113155790D01*
X119687220Y-112671981D01*
X119687220Y-111825314D01*
X119808172Y-111341505D01*
X120050077Y-111099600D01*
X120291981Y-110978648D01*
X122348172Y-112792933D02*
X123557695Y-112792933D01*
X122106267Y-113518648D02*
X122952933Y-110978648D01*
X123799600Y-113518648D01*
X126097695Y-113518648D02*
X125251029Y-112309124D01*
X124646267Y-113518648D02*
X124646267Y-110978648D01*
X125613886Y-110978648D01*
X125855791Y-111099600D01*
X125976743Y-111220552D01*
X126097695Y-111462457D01*
X126097695Y-111825314D01*
X125976743Y-112067219D01*
X125855791Y-112188171D01*
X125613886Y-112309124D01*
X124646267Y-112309124D01*
X127186267Y-113518648D02*
X127186267Y-110978648D01*
X127791029Y-110978648D01*
X128153886Y-111099600D01*
X128395791Y-111341505D01*
X128516743Y-111583410D01*
X128637695Y-112067219D01*
X128637695Y-112430076D01*
X128516743Y-112913886D01*
X128395791Y-113155790D01*
X128153886Y-113397695D01*
X127791029Y-113518648D01*
X127186267Y-113518648D01*
X129605315Y-113397695D02*
X129968172Y-113518648D01*
X130572934Y-113518648D01*
X130814838Y-113397695D01*
X130935791Y-113276743D01*
X131056743Y-113034838D01*
X131056743Y-112792933D01*
X130935791Y-112551029D01*
X130814838Y-112430076D01*
X130572934Y-112309124D01*
X130089124Y-112188171D01*
X129847219Y-112067219D01*
X129726267Y-111946267D01*
X129605315Y-111704362D01*
X129605315Y-111462457D01*
X129726267Y-111220552D01*
X129847219Y-111099600D01*
X130089124Y-110978648D01*
X130693886Y-110978648D01*
X131056743Y-111099600D01*
X133959601Y-113397695D02*
X134322458Y-113518648D01*
X134927220Y-113518648D01*
X135169124Y-113397695D01*
X135290077Y-113276743D01*
X135411029Y-113034838D01*
X135411029Y-112792933D01*
X135290077Y-112551029D01*
X135169124Y-112430076D01*
X134927220Y-112309124D01*
X134443410Y-112188171D01*
X134201505Y-112067219D01*
X134080553Y-111946267D01*
X133959601Y-111704362D01*
X133959601Y-111462457D01*
X134080553Y-111220552D01*
X134201505Y-111099600D01*
X134443410Y-110978648D01*
X135048172Y-110978648D01*
X135411029Y-111099600D01*
X136499601Y-113518648D02*
X136499601Y-110978648D01*
X136499601Y-112188171D02*
X137951029Y-112188171D01*
X137951029Y-113518648D02*
X137951029Y-110978648D01*
X139039601Y-112792933D02*
X140249124Y-112792933D01*
X138797696Y-113518648D02*
X139644362Y-110978648D01*
X140491029Y-113518648D01*
X142547220Y-113518648D02*
X141337696Y-113518648D01*
X141337696Y-110978648D01*
X144603410Y-113518648D02*
X143393886Y-113518648D01*
X143393886Y-110978648D01*
X148231981Y-112188171D02*
X148594838Y-112309124D01*
X148715790Y-112430076D01*
X148836742Y-112671981D01*
X148836742Y-113034838D01*
X148715790Y-113276743D01*
X148594838Y-113397695D01*
X148352933Y-113518648D01*
X147385314Y-113518648D01*
X147385314Y-110978648D01*
X148231981Y-110978648D01*
X148473885Y-111099600D01*
X148594838Y-111220552D01*
X148715790Y-111462457D01*
X148715790Y-111704362D01*
X148594838Y-111946267D01*
X148473885Y-112067219D01*
X148231981Y-112188171D01*
X147385314Y-112188171D01*
X149925314Y-112188171D02*
X150771981Y-112188171D01*
X151134838Y-113518648D02*
X149925314Y-113518648D01*
X149925314Y-110978648D01*
X151134838Y-110978648D01*
X155610075Y-113518648D02*
X154763409Y-112309124D01*
X154158647Y-113518648D02*
X154158647Y-110978648D01*
X155126266Y-110978648D01*
X155368171Y-111099600D01*
X155489123Y-111220552D01*
X155610075Y-111462457D01*
X155610075Y-111825314D01*
X155489123Y-112067219D01*
X155368171Y-112188171D01*
X155126266Y-112309124D01*
X154158647Y-112309124D01*
X157182456Y-110978648D02*
X157666266Y-110978648D01*
X157908171Y-111099600D01*
X158150075Y-111341505D01*
X158271028Y-111825314D01*
X158271028Y-112671981D01*
X158150075Y-113155790D01*
X157908171Y-113397695D01*
X157666266Y-113518648D01*
X157182456Y-113518648D01*
X156940552Y-113397695D01*
X156698647Y-113155790D01*
X156577695Y-112671981D01*
X156577695Y-111825314D01*
X156698647Y-111341505D01*
X156940552Y-111099600D01*
X157182456Y-110978648D01*
X159359599Y-113518648D02*
X159359599Y-110978648D01*
X159359599Y-112188171D02*
X160811027Y-112188171D01*
X160811027Y-113518648D02*
X160811027Y-110978648D01*
X161899599Y-113397695D02*
X162262456Y-113518648D01*
X162867218Y-113518648D01*
X163109122Y-113397695D01*
X163230075Y-113276743D01*
X163351027Y-113034838D01*
X163351027Y-112792933D01*
X163230075Y-112551029D01*
X163109122Y-112430076D01*
X162867218Y-112309124D01*
X162383408Y-112188171D01*
X162141503Y-112067219D01*
X162020551Y-111946267D01*
X161899599Y-111704362D01*
X161899599Y-111462457D01*
X162020551Y-111220552D01*
X162141503Y-111099600D01*
X162383408Y-110978648D01*
X162988170Y-110978648D01*
X163351027Y-111099600D01*
X167826265Y-113276743D02*
X167705313Y-113397695D01*
X167342456Y-113518648D01*
X167100551Y-113518648D01*
X166737694Y-113397695D01*
X166495789Y-113155790D01*
X166374837Y-112913886D01*
X166253885Y-112430076D01*
X166253885Y-112067219D01*
X166374837Y-111583410D01*
X166495789Y-111341505D01*
X166737694Y-111099600D01*
X167100551Y-110978648D01*
X167342456Y-110978648D01*
X167705313Y-111099600D01*
X167826265Y-111220552D01*
X169398646Y-110978648D02*
X169882456Y-110978648D01*
X170124361Y-111099600D01*
X170366265Y-111341505D01*
X170487218Y-111825314D01*
X170487218Y-112671981D01*
X170366265Y-113155790D01*
X170124361Y-113397695D01*
X169882456Y-113518648D01*
X169398646Y-113518648D01*
X169156742Y-113397695D01*
X168914837Y-113155790D01*
X168793885Y-112671981D01*
X168793885Y-111825314D01*
X168914837Y-111341505D01*
X169156742Y-111099600D01*
X169398646Y-110978648D01*
X171575789Y-113518648D02*
X171575789Y-110978648D01*
X172422456Y-112792933D01*
X173269122Y-110978648D01*
X173269122Y-113518648D01*
X174478646Y-113518648D02*
X174478646Y-110978648D01*
X175446265Y-110978648D01*
X175688170Y-111099600D01*
X175809122Y-111220552D01*
X175930074Y-111462457D01*
X175930074Y-111825314D01*
X175809122Y-112067219D01*
X175688170Y-112188171D01*
X175446265Y-112309124D01*
X174478646Y-112309124D01*
X178228170Y-113518648D02*
X177018646Y-113518648D01*
X177018646Y-110978648D01*
X179074836Y-113518648D02*
X179074836Y-110978648D01*
X180163408Y-112792933D02*
X181372931Y-112792933D01*
X179921503Y-113518648D02*
X180768169Y-110978648D01*
X181614836Y-113518648D01*
X182461503Y-113518648D02*
X182461503Y-110978648D01*
X183912931Y-113518648D01*
X183912931Y-110978648D01*
X184759598Y-110978648D02*
X186211026Y-110978648D01*
X185485312Y-113518648D02*
X185485312Y-110978648D01*
X187057693Y-113276743D02*
X187178645Y-113397695D01*
X187057693Y-113518648D01*
X186936741Y-113397695D01*
X187057693Y-113276743D01*
X187057693Y-113518648D01*
X112913886Y-115042648D02*
X111704362Y-115042648D01*
X111583410Y-116252171D01*
X111704362Y-116131219D01*
X111946267Y-116010267D01*
X112551029Y-116010267D01*
X112792933Y-116131219D01*
X112913886Y-116252171D01*
X113034838Y-116494076D01*
X113034838Y-117098838D01*
X112913886Y-117340743D01*
X112792933Y-117461695D01*
X112551029Y-117582648D01*
X111946267Y-117582648D01*
X111704362Y-117461695D01*
X111583410Y-117340743D01*
X114123410Y-117340743D02*
X114244362Y-117461695D01*
X114123410Y-117582648D01*
X114002458Y-117461695D01*
X114123410Y-117340743D01*
X114123410Y-117582648D01*
X117268172Y-117582648D02*
X117268172Y-115042648D01*
X118114839Y-116856933D01*
X118961505Y-115042648D01*
X118961505Y-117582648D01*
X120050077Y-116856933D02*
X121259600Y-116856933D01*
X119808172Y-117582648D02*
X120654838Y-115042648D01*
X121501505Y-117582648D01*
X122348172Y-117582648D02*
X122348172Y-115042648D01*
X123799600Y-117582648D01*
X123799600Y-115042648D01*
X125009124Y-115042648D02*
X125009124Y-117098838D01*
X125130076Y-117340743D01*
X125251029Y-117461695D01*
X125492933Y-117582648D01*
X125976743Y-117582648D01*
X126218648Y-117461695D01*
X126339600Y-117340743D01*
X126460552Y-117098838D01*
X126460552Y-115042648D01*
X128516743Y-116252171D02*
X127670076Y-116252171D01*
X127670076Y-117582648D02*
X127670076Y-115042648D01*
X128879600Y-115042648D01*
X129726267Y-116856933D02*
X130935790Y-116856933D01*
X129484362Y-117582648D02*
X130331028Y-115042648D01*
X131177695Y-117582648D01*
X133475790Y-117340743D02*
X133354838Y-117461695D01*
X132991981Y-117582648D01*
X132750076Y-117582648D01*
X132387219Y-117461695D01*
X132145314Y-117219790D01*
X132024362Y-116977886D01*
X131903410Y-116494076D01*
X131903410Y-116131219D01*
X132024362Y-115647410D01*
X132145314Y-115405505D01*
X132387219Y-115163600D01*
X132750076Y-115042648D01*
X132991981Y-115042648D01*
X133354838Y-115163600D01*
X133475790Y-115284552D01*
X134201505Y-115042648D02*
X135652933Y-115042648D01*
X134927219Y-117582648D02*
X134927219Y-115042648D01*
X136499600Y-115042648D02*
X136499600Y-117098838D01*
X136620552Y-117340743D01*
X136741505Y-117461695D01*
X136983409Y-117582648D01*
X137467219Y-117582648D01*
X137709124Y-117461695D01*
X137830076Y-117340743D01*
X137951028Y-117098838D01*
X137951028Y-115042648D01*
X140611980Y-117582648D02*
X139765314Y-116373124D01*
X139160552Y-117582648D02*
X139160552Y-115042648D01*
X140128171Y-115042648D01*
X140370076Y-115163600D01*
X140491028Y-115284552D01*
X140611980Y-115526457D01*
X140611980Y-115889314D01*
X140491028Y-116131219D01*
X140370076Y-116252171D01*
X140128171Y-116373124D01*
X139160552Y-116373124D01*
X141700552Y-116252171D02*
X142547219Y-116252171D01*
X142910076Y-117582648D02*
X141700552Y-117582648D01*
X141700552Y-115042648D01*
X142910076Y-115042648D01*
X145933885Y-117582648D02*
X145933885Y-115042648D01*
X147143409Y-117582648D02*
X147143409Y-115042648D01*
X148594837Y-117582648D01*
X148594837Y-115042648D01*
X151618647Y-116856933D02*
X152828170Y-116856933D01*
X151376742Y-117582648D02*
X152223408Y-115042648D01*
X153070075Y-117582648D01*
X155368170Y-117340743D02*
X155247218Y-117461695D01*
X154884361Y-117582648D01*
X154642456Y-117582648D01*
X154279599Y-117461695D01*
X154037694Y-117219790D01*
X153916742Y-116977886D01*
X153795790Y-116494076D01*
X153795790Y-116131219D01*
X153916742Y-115647410D01*
X154037694Y-115405505D01*
X154279599Y-115163600D01*
X154642456Y-115042648D01*
X154884361Y-115042648D01*
X155247218Y-115163600D01*
X155368170Y-115284552D01*
X157908170Y-117340743D02*
X157787218Y-117461695D01*
X157424361Y-117582648D01*
X157182456Y-117582648D01*
X156819599Y-117461695D01*
X156577694Y-117219790D01*
X156456742Y-116977886D01*
X156335790Y-116494076D01*
X156335790Y-116131219D01*
X156456742Y-115647410D01*
X156577694Y-115405505D01*
X156819599Y-115163600D01*
X157182456Y-115042648D01*
X157424361Y-115042648D01*
X157787218Y-115163600D01*
X157908170Y-115284552D01*
X159480551Y-115042648D02*
X159964361Y-115042648D01*
X160206266Y-115163600D01*
X160448170Y-115405505D01*
X160569123Y-115889314D01*
X160569123Y-116735981D01*
X160448170Y-117219790D01*
X160206266Y-117461695D01*
X159964361Y-117582648D01*
X159480551Y-117582648D01*
X159238647Y-117461695D01*
X158996742Y-117219790D01*
X158875790Y-116735981D01*
X158875790Y-115889314D01*
X158996742Y-115405505D01*
X159238647Y-115163600D01*
X159480551Y-115042648D01*
X163109122Y-117582648D02*
X162262456Y-116373124D01*
X161657694Y-117582648D02*
X161657694Y-115042648D01*
X162625313Y-115042648D01*
X162867218Y-115163600D01*
X162988170Y-115284552D01*
X163109122Y-115526457D01*
X163109122Y-115889314D01*
X162988170Y-116131219D01*
X162867218Y-116252171D01*
X162625313Y-116373124D01*
X161657694Y-116373124D01*
X164197694Y-117582648D02*
X164197694Y-115042648D01*
X164802456Y-115042648D01*
X165165313Y-115163600D01*
X165407218Y-115405505D01*
X165528170Y-115647410D01*
X165649122Y-116131219D01*
X165649122Y-116494076D01*
X165528170Y-116977886D01*
X165407218Y-117219790D01*
X165165313Y-117461695D01*
X164802456Y-117582648D01*
X164197694Y-117582648D01*
X166616742Y-116856933D02*
X167826265Y-116856933D01*
X166374837Y-117582648D02*
X167221503Y-115042648D01*
X168068170Y-117582648D01*
X168914837Y-117582648D02*
X168914837Y-115042648D01*
X170366265Y-117582648D01*
X170366265Y-115042648D01*
X173027217Y-117340743D02*
X172906265Y-117461695D01*
X172543408Y-117582648D01*
X172301503Y-117582648D01*
X171938646Y-117461695D01*
X171696741Y-117219790D01*
X171575789Y-116977886D01*
X171454837Y-116494076D01*
X171454837Y-116131219D01*
X171575789Y-115647410D01*
X171696741Y-115405505D01*
X171938646Y-115163600D01*
X172301503Y-115042648D01*
X172543408Y-115042648D01*
X172906265Y-115163600D01*
X173027217Y-115284552D01*
X174115789Y-116252171D02*
X174962456Y-116252171D01*
X175325313Y-117582648D02*
X174115789Y-117582648D01*
X174115789Y-115042648D01*
X175325313Y-115042648D01*
X178107217Y-115042648D02*
X178711979Y-117582648D01*
X179195789Y-115768362D01*
X179679598Y-117582648D01*
X180284360Y-115042648D01*
X181251979Y-117582648D02*
X181251979Y-115042648D01*
X182098646Y-115042648D02*
X183550074Y-115042648D01*
X182824360Y-117582648D02*
X182824360Y-115042648D01*
X184396741Y-117582648D02*
X184396741Y-115042648D01*
X184396741Y-116252171D02*
X185848169Y-116252171D01*
X185848169Y-117582648D02*
X185848169Y-115042648D01*
X188992931Y-117582648D02*
X188992931Y-115042648D01*
X190202455Y-117582648D02*
X190202455Y-115042648D01*
X191170074Y-115042648D01*
X191411979Y-115163600D01*
X191532931Y-115284552D01*
X191653883Y-115526457D01*
X191653883Y-115889314D01*
X191532931Y-116131219D01*
X191411979Y-116252171D01*
X191170074Y-116373124D01*
X190202455Y-116373124D01*
X194193883Y-117340743D02*
X194072931Y-117461695D01*
X193710074Y-117582648D01*
X193468169Y-117582648D01*
X193105312Y-117461695D01*
X192863407Y-117219790D01*
X192742455Y-116977886D01*
X192621503Y-116494076D01*
X192621503Y-116131219D01*
X192742455Y-115647410D01*
X192863407Y-115405505D01*
X193105312Y-115163600D01*
X193468169Y-115042648D01*
X193710074Y-115042648D01*
X194072931Y-115163600D01*
X194193883Y-115284552D01*
X195282455Y-116615029D02*
X197217693Y-116615029D01*
X199515788Y-115042648D02*
X199031979Y-115042648D01*
X198790074Y-115163600D01*
X198669122Y-115284552D01*
X198427217Y-115647410D01*
X198306265Y-116131219D01*
X198306265Y-117098838D01*
X198427217Y-117340743D01*
X198548169Y-117461695D01*
X198790074Y-117582648D01*
X199273884Y-117582648D01*
X199515788Y-117461695D01*
X199636741Y-117340743D01*
X199757693Y-117098838D01*
X199757693Y-116494076D01*
X199636741Y-116252171D01*
X199515788Y-116131219D01*
X199273884Y-116010267D01*
X198790074Y-116010267D01*
X198548169Y-116131219D01*
X198427217Y-116252171D01*
X198306265Y-116494076D01*
X201330074Y-115042648D02*
X201571979Y-115042648D01*
X201813884Y-115163600D01*
X201934836Y-115284552D01*
X202055789Y-115526457D01*
X202176741Y-116010267D01*
X202176741Y-116615029D01*
X202055789Y-117098838D01*
X201934836Y-117340743D01*
X201813884Y-117461695D01*
X201571979Y-117582648D01*
X201330074Y-117582648D01*
X201088170Y-117461695D01*
X200967217Y-117340743D01*
X200846265Y-117098838D01*
X200725313Y-116615029D01*
X200725313Y-116010267D01*
X200846265Y-115526457D01*
X200967217Y-115284552D01*
X201088170Y-115163600D01*
X201330074Y-115042648D01*
X204595789Y-117582648D02*
X203144361Y-117582648D01*
X203870075Y-117582648D02*
X203870075Y-115042648D01*
X203628170Y-115405505D01*
X203386265Y-115647410D01*
X203144361Y-115768362D01*
X205563409Y-115284552D02*
X205684361Y-115163600D01*
X205926266Y-115042648D01*
X206531028Y-115042648D01*
X206772932Y-115163600D01*
X206893885Y-115284552D01*
X207014837Y-115526457D01*
X207014837Y-115768362D01*
X206893885Y-116131219D01*
X205442456Y-117582648D01*
X207014837Y-117582648D01*
X211490075Y-117340743D02*
X211369123Y-117461695D01*
X211006266Y-117582648D01*
X210764361Y-117582648D01*
X210401504Y-117461695D01*
X210159599Y-117219790D01*
X210038647Y-116977886D01*
X209917695Y-116494076D01*
X209917695Y-116131219D01*
X210038647Y-115647410D01*
X210159599Y-115405505D01*
X210401504Y-115163600D01*
X210764361Y-115042648D01*
X211006266Y-115042648D01*
X211369123Y-115163600D01*
X211490075Y-115284552D01*
X213788171Y-117582648D02*
X212578647Y-117582648D01*
X212578647Y-115042648D01*
X214513885Y-116856933D02*
X215723408Y-116856933D01*
X214271980Y-117582648D02*
X215118646Y-115042648D01*
X215965313Y-117582648D01*
X216691028Y-117461695D02*
X217053885Y-117582648D01*
X217658647Y-117582648D01*
X217900551Y-117461695D01*
X218021504Y-117340743D01*
X218142456Y-117098838D01*
X218142456Y-116856933D01*
X218021504Y-116615029D01*
X217900551Y-116494076D01*
X217658647Y-116373124D01*
X217174837Y-116252171D01*
X216932932Y-116131219D01*
X216811980Y-116010267D01*
X216691028Y-115768362D01*
X216691028Y-115526457D01*
X216811980Y-115284552D01*
X216932932Y-115163600D01*
X217174837Y-115042648D01*
X217779599Y-115042648D01*
X218142456Y-115163600D01*
X219110076Y-117461695D02*
X219472933Y-117582648D01*
X220077695Y-117582648D01*
X220319599Y-117461695D01*
X220440552Y-117340743D01*
X220561504Y-117098838D01*
X220561504Y-116856933D01*
X220440552Y-116615029D01*
X220319599Y-116494076D01*
X220077695Y-116373124D01*
X219593885Y-116252171D01*
X219351980Y-116131219D01*
X219231028Y-116010267D01*
X219110076Y-115768362D01*
X219110076Y-115526457D01*
X219231028Y-115284552D01*
X219351980Y-115163600D01*
X219593885Y-115042648D01*
X220198647Y-115042648D01*
X220561504Y-115163600D01*
X223464362Y-115284552D02*
X223585314Y-115163600D01*
X223827219Y-115042648D01*
X224431981Y-115042648D01*
X224673885Y-115163600D01*
X224794838Y-115284552D01*
X224915790Y-115526457D01*
X224915790Y-115768362D01*
X224794838Y-116131219D01*
X223343409Y-117582648D01*
X224915790Y-117582648D01*
X112792933Y-119106648D02*
X112309124Y-119106648D01*
X112067219Y-119227600D01*
X111946267Y-119348552D01*
X111704362Y-119711410D01*
X111583410Y-120195219D01*
X111583410Y-121162838D01*
X111704362Y-121404743D01*
X111825314Y-121525695D01*
X112067219Y-121646648D01*
X112551029Y-121646648D01*
X112792933Y-121525695D01*
X112913886Y-121404743D01*
X113034838Y-121162838D01*
X113034838Y-120558076D01*
X112913886Y-120316171D01*
X112792933Y-120195219D01*
X112551029Y-120074267D01*
X112067219Y-120074267D01*
X111825314Y-120195219D01*
X111704362Y-120316171D01*
X111583410Y-120558076D01*
X114123410Y-121404743D02*
X114244362Y-121525695D01*
X114123410Y-121646648D01*
X114002458Y-121525695D01*
X114123410Y-121404743D01*
X114123410Y-121646648D01*
X117268172Y-121646648D02*
X117268172Y-119106648D01*
X118114839Y-120920933D01*
X118961505Y-119106648D01*
X118961505Y-121646648D01*
X120050077Y-120920933D02*
X121259600Y-120920933D01*
X119808172Y-121646648D02*
X120654838Y-119106648D01*
X121501505Y-121646648D01*
X122227220Y-121525695D02*
X122590077Y-121646648D01*
X123194839Y-121646648D01*
X123436743Y-121525695D01*
X123557696Y-121404743D01*
X123678648Y-121162838D01*
X123678648Y-120920933D01*
X123557696Y-120679029D01*
X123436743Y-120558076D01*
X123194839Y-120437124D01*
X122711029Y-120316171D01*
X122469124Y-120195219D01*
X122348172Y-120074267D01*
X122227220Y-119832362D01*
X122227220Y-119590457D01*
X122348172Y-119348552D01*
X122469124Y-119227600D01*
X122711029Y-119106648D01*
X123315791Y-119106648D01*
X123678648Y-119227600D01*
X124767220Y-121646648D02*
X124767220Y-119106648D01*
X126218648Y-121646648D02*
X125130077Y-120195219D01*
X126218648Y-119106648D02*
X124767220Y-120558076D01*
X127307220Y-121404743D02*
X127428172Y-121525695D01*
X127307220Y-121646648D01*
X127186268Y-121525695D01*
X127307220Y-121404743D01*
X127307220Y-121646648D01*
X127307220Y-120074267D02*
X127428172Y-120195219D01*
X127307220Y-120316171D01*
X127186268Y-120195219D01*
X127307220Y-120074267D01*
X127307220Y-120316171D01*
X131298649Y-120316171D02*
X131661506Y-120437124D01*
X131782458Y-120558076D01*
X131903410Y-120799981D01*
X131903410Y-121162838D01*
X131782458Y-121404743D01*
X131661506Y-121525695D01*
X131419601Y-121646648D01*
X130451982Y-121646648D01*
X130451982Y-119106648D01*
X131298649Y-119106648D01*
X131540553Y-119227600D01*
X131661506Y-119348552D01*
X131782458Y-119590457D01*
X131782458Y-119832362D01*
X131661506Y-120074267D01*
X131540553Y-120195219D01*
X131298649Y-120316171D01*
X130451982Y-120316171D01*
X133475791Y-119106648D02*
X133959601Y-119106648D01*
X134201506Y-119227600D01*
X134443410Y-119469505D01*
X134564363Y-119953314D01*
X134564363Y-120799981D01*
X134443410Y-121283790D01*
X134201506Y-121525695D01*
X133959601Y-121646648D01*
X133475791Y-121646648D01*
X133233887Y-121525695D01*
X132991982Y-121283790D01*
X132871030Y-120799981D01*
X132871030Y-119953314D01*
X132991982Y-119469505D01*
X133233887Y-119227600D01*
X133475791Y-119106648D01*
X135290077Y-119106648D02*
X136741505Y-119106648D01*
X136015791Y-121646648D02*
X136015791Y-119106648D01*
X137588172Y-121646648D02*
X137588172Y-119106648D01*
X137588172Y-120316171D02*
X139039600Y-120316171D01*
X139039600Y-121646648D02*
X139039600Y-119106648D01*
X142063410Y-121525695D02*
X142426267Y-121646648D01*
X143031029Y-121646648D01*
X143272933Y-121525695D01*
X143393886Y-121404743D01*
X143514838Y-121162838D01*
X143514838Y-120920933D01*
X143393886Y-120679029D01*
X143272933Y-120558076D01*
X143031029Y-120437124D01*
X142547219Y-120316171D01*
X142305314Y-120195219D01*
X142184362Y-120074267D01*
X142063410Y-119832362D01*
X142063410Y-119590457D01*
X142184362Y-119348552D01*
X142305314Y-119227600D01*
X142547219Y-119106648D01*
X143151981Y-119106648D01*
X143514838Y-119227600D01*
X144603410Y-121646648D02*
X144603410Y-119106648D01*
X145812934Y-121646648D02*
X145812934Y-119106648D01*
X146417696Y-119106648D01*
X146780553Y-119227600D01*
X147022458Y-119469505D01*
X147143410Y-119711410D01*
X147264362Y-120195219D01*
X147264362Y-120558076D01*
X147143410Y-121041886D01*
X147022458Y-121283790D01*
X146780553Y-121525695D01*
X146417696Y-121646648D01*
X145812934Y-121646648D01*
X148352934Y-120316171D02*
X149199601Y-120316171D01*
X149562458Y-121646648D02*
X148352934Y-121646648D01*
X148352934Y-119106648D01*
X149562458Y-119106648D01*
X150530077Y-121525695D02*
X150892934Y-121646648D01*
X151497696Y-121646648D01*
X151739600Y-121525695D01*
X151860553Y-121404743D01*
X151981505Y-121162838D01*
X151981505Y-120920933D01*
X151860553Y-120679029D01*
X151739600Y-120558076D01*
X151497696Y-120437124D01*
X151013886Y-120316171D01*
X150771981Y-120195219D01*
X150651029Y-120074267D01*
X150530077Y-119832362D01*
X150530077Y-119590457D01*
X150651029Y-119348552D01*
X150771981Y-119227600D01*
X151013886Y-119106648D01*
X151618648Y-119106648D01*
X151981505Y-119227600D01*
X155489124Y-119106648D02*
X155972934Y-119106648D01*
X156214839Y-119227600D01*
X156456743Y-119469505D01*
X156577696Y-119953314D01*
X156577696Y-120799981D01*
X156456743Y-121283790D01*
X156214839Y-121525695D01*
X155972934Y-121646648D01*
X155489124Y-121646648D01*
X155247220Y-121525695D01*
X155005315Y-121283790D01*
X154884363Y-120799981D01*
X154884363Y-119953314D01*
X155005315Y-119469505D01*
X155247220Y-119227600D01*
X155489124Y-119106648D01*
X158512934Y-120316171D02*
X157666267Y-120316171D01*
X157666267Y-121646648D02*
X157666267Y-119106648D01*
X158875791Y-119106648D01*
X161415791Y-119106648D02*
X162867219Y-119106648D01*
X162141505Y-121646648D02*
X162141505Y-119106648D01*
X163713886Y-121646648D02*
X163713886Y-119106648D01*
X163713886Y-120316171D02*
X165165314Y-120316171D01*
X165165314Y-121646648D02*
X165165314Y-119106648D01*
X166374838Y-120316171D02*
X167221505Y-120316171D01*
X167584362Y-121646648D02*
X166374838Y-121646648D01*
X166374838Y-119106648D01*
X167584362Y-119106648D01*
X171454838Y-120316171D02*
X171817695Y-120437124D01*
X171938647Y-120558076D01*
X172059599Y-120799981D01*
X172059599Y-121162838D01*
X171938647Y-121404743D01*
X171817695Y-121525695D01*
X171575790Y-121646648D01*
X170608171Y-121646648D01*
X170608171Y-119106648D01*
X171454838Y-119106648D01*
X171696742Y-119227600D01*
X171817695Y-119348552D01*
X171938647Y-119590457D01*
X171938647Y-119832362D01*
X171817695Y-120074267D01*
X171696742Y-120195219D01*
X171454838Y-120316171D01*
X170608171Y-120316171D01*
X173631980Y-119106648D02*
X174115790Y-119106648D01*
X174357695Y-119227600D01*
X174599599Y-119469505D01*
X174720552Y-119953314D01*
X174720552Y-120799981D01*
X174599599Y-121283790D01*
X174357695Y-121525695D01*
X174115790Y-121646648D01*
X173631980Y-121646648D01*
X173390076Y-121525695D01*
X173148171Y-121283790D01*
X173027219Y-120799981D01*
X173027219Y-119953314D01*
X173148171Y-119469505D01*
X173390076Y-119227600D01*
X173631980Y-119106648D01*
X175688171Y-120920933D02*
X176897694Y-120920933D01*
X175446266Y-121646648D02*
X176292932Y-119106648D01*
X177139599Y-121646648D01*
X179437694Y-121646648D02*
X178591028Y-120437124D01*
X177986266Y-121646648D02*
X177986266Y-119106648D01*
X178953885Y-119106648D01*
X179195790Y-119227600D01*
X179316742Y-119348552D01*
X179437694Y-119590457D01*
X179437694Y-119953314D01*
X179316742Y-120195219D01*
X179195790Y-120316171D01*
X178953885Y-120437124D01*
X177986266Y-120437124D01*
X180526266Y-121646648D02*
X180526266Y-119106648D01*
X181131028Y-119106648D01*
X181493885Y-119227600D01*
X181735790Y-119469505D01*
X181856742Y-119711410D01*
X181977694Y-120195219D01*
X181977694Y-120558076D01*
X181856742Y-121041886D01*
X181735790Y-121283790D01*
X181493885Y-121525695D01*
X181131028Y-121646648D01*
X180526266Y-121646648D01*
X184880552Y-121525695D02*
X185243409Y-121646648D01*
X185848171Y-121646648D01*
X186090075Y-121525695D01*
X186211028Y-121404743D01*
X186331980Y-121162838D01*
X186331980Y-120920933D01*
X186211028Y-120679029D01*
X186090075Y-120558076D01*
X185848171Y-120437124D01*
X185364361Y-120316171D01*
X185122456Y-120195219D01*
X185001504Y-120074267D01*
X184880552Y-119832362D01*
X184880552Y-119590457D01*
X185001504Y-119348552D01*
X185122456Y-119227600D01*
X185364361Y-119106648D01*
X185969123Y-119106648D01*
X186331980Y-119227600D01*
X187420552Y-121646648D02*
X187420552Y-119106648D01*
X187420552Y-120316171D02*
X188871980Y-120316171D01*
X188871980Y-121646648D02*
X188871980Y-119106648D01*
X189960552Y-120920933D02*
X191170075Y-120920933D01*
X189718647Y-121646648D02*
X190565313Y-119106648D01*
X191411980Y-121646648D01*
X193468171Y-121646648D02*
X192258647Y-121646648D01*
X192258647Y-119106648D01*
X195524361Y-121646648D02*
X194314837Y-121646648D01*
X194314837Y-119106648D01*
X198306265Y-121646648D02*
X198306265Y-119106648D01*
X198306265Y-120316171D02*
X199757693Y-120316171D01*
X199757693Y-121646648D02*
X199757693Y-119106648D01*
X200846265Y-120920933D02*
X202055788Y-120920933D01*
X200604360Y-121646648D02*
X201451026Y-119106648D01*
X202297693Y-121646648D01*
X202781503Y-119106648D02*
X203628169Y-121646648D01*
X204474836Y-119106648D01*
X205321503Y-120316171D02*
X206168170Y-120316171D01*
X206531027Y-121646648D02*
X205321503Y-121646648D01*
X205321503Y-119106648D01*
X206531027Y-119106648D01*
X117389124Y-125589695D02*
X117751981Y-125710648D01*
X118356743Y-125710648D01*
X118598647Y-125589695D01*
X118719600Y-125468743D01*
X118840552Y-125226838D01*
X118840552Y-124984933D01*
X118719600Y-124743029D01*
X118598647Y-124622076D01*
X118356743Y-124501124D01*
X117872933Y-124380171D01*
X117631028Y-124259219D01*
X117510076Y-124138267D01*
X117389124Y-123896362D01*
X117389124Y-123654457D01*
X117510076Y-123412552D01*
X117631028Y-123291600D01*
X117872933Y-123170648D01*
X118477695Y-123170648D01*
X118840552Y-123291600D01*
X120412933Y-123170648D02*
X120896743Y-123170648D01*
X121138648Y-123291600D01*
X121380552Y-123533505D01*
X121501505Y-124017314D01*
X121501505Y-124863981D01*
X121380552Y-125347790D01*
X121138648Y-125589695D01*
X120896743Y-125710648D01*
X120412933Y-125710648D01*
X120171029Y-125589695D01*
X119929124Y-125347790D01*
X119808172Y-124863981D01*
X119808172Y-124017314D01*
X119929124Y-123533505D01*
X120171029Y-123291600D01*
X120412933Y-123170648D01*
X123799600Y-125710648D02*
X122590076Y-125710648D01*
X122590076Y-123170648D01*
X124646266Y-125710648D02*
X124646266Y-123170648D01*
X125251028Y-123170648D01*
X125613885Y-123291600D01*
X125855790Y-123533505D01*
X125976742Y-123775410D01*
X126097694Y-124259219D01*
X126097694Y-124622076D01*
X125976742Y-125105886D01*
X125855790Y-125347790D01*
X125613885Y-125589695D01*
X125251028Y-125710648D01*
X124646266Y-125710648D01*
X127186266Y-124380171D02*
X128032933Y-124380171D01*
X128395790Y-125710648D02*
X127186266Y-125710648D01*
X127186266Y-123170648D01*
X128395790Y-123170648D01*
X130935789Y-125710648D02*
X130089123Y-124501124D01*
X129484361Y-125710648D02*
X129484361Y-123170648D01*
X130451980Y-123170648D01*
X130693885Y-123291600D01*
X130814837Y-123412552D01*
X130935789Y-123654457D01*
X130935789Y-124017314D01*
X130814837Y-124259219D01*
X130693885Y-124380171D01*
X130451980Y-124501124D01*
X129484361Y-124501124D01*
X133959599Y-125710648D02*
X133959599Y-123170648D01*
X134806266Y-124984933D01*
X135652932Y-123170648D01*
X135652932Y-125710648D01*
X136741504Y-124984933D02*
X137951027Y-124984933D01*
X136499599Y-125710648D02*
X137346265Y-123170648D01*
X138192932Y-125710648D01*
X138918647Y-125589695D02*
X139281504Y-125710648D01*
X139886266Y-125710648D01*
X140128170Y-125589695D01*
X140249123Y-125468743D01*
X140370075Y-125226838D01*
X140370075Y-124984933D01*
X140249123Y-124743029D01*
X140128170Y-124622076D01*
X139886266Y-124501124D01*
X139402456Y-124380171D01*
X139160551Y-124259219D01*
X139039599Y-124138267D01*
X138918647Y-123896362D01*
X138918647Y-123654457D01*
X139039599Y-123412552D01*
X139160551Y-123291600D01*
X139402456Y-123170648D01*
X140007218Y-123170648D01*
X140370075Y-123291600D01*
X141458647Y-125710648D02*
X141458647Y-123170648D01*
X142910075Y-125710648D02*
X141821504Y-124259219D01*
X142910075Y-123170648D02*
X141458647Y-124622076D01*
X146659599Y-126678267D02*
X146538647Y-126557314D01*
X146296742Y-126194457D01*
X146175790Y-125952552D01*
X146054837Y-125589695D01*
X145933885Y-124984933D01*
X145933885Y-124501124D01*
X146054837Y-123896362D01*
X146175790Y-123533505D01*
X146296742Y-123291600D01*
X146538647Y-122928743D01*
X146659599Y-122807790D01*
X147506266Y-124984933D02*
X148715789Y-124984933D01*
X147264361Y-125710648D02*
X148111027Y-123170648D01*
X148957694Y-125710648D01*
X149804361Y-125710648D02*
X149804361Y-123170648D01*
X151255789Y-125710648D01*
X151255789Y-123170648D01*
X152949122Y-124501124D02*
X152949122Y-125710648D01*
X152102456Y-123170648D02*
X152949122Y-124501124D01*
X153795789Y-123170648D01*
X158029122Y-125468743D02*
X157908170Y-125589695D01*
X157545313Y-125710648D01*
X157303408Y-125710648D01*
X156940551Y-125589695D01*
X156698646Y-125347790D01*
X156577694Y-125105886D01*
X156456742Y-124622076D01*
X156456742Y-124259219D01*
X156577694Y-123775410D01*
X156698646Y-123533505D01*
X156940551Y-123291600D01*
X157303408Y-123170648D01*
X157545313Y-123170648D01*
X157908170Y-123291600D01*
X158029122Y-123412552D01*
X159601503Y-123170648D02*
X160085313Y-123170648D01*
X160327218Y-123291600D01*
X160569122Y-123533505D01*
X160690075Y-124017314D01*
X160690075Y-124863981D01*
X160569122Y-125347790D01*
X160327218Y-125589695D01*
X160085313Y-125710648D01*
X159601503Y-125710648D01*
X159359599Y-125589695D01*
X159117694Y-125347790D01*
X158996742Y-124863981D01*
X158996742Y-124017314D01*
X159117694Y-123533505D01*
X159359599Y-123291600D01*
X159601503Y-123170648D01*
X162988170Y-125710648D02*
X161778646Y-125710648D01*
X161778646Y-123170648D01*
X164318645Y-123170648D02*
X164802455Y-123170648D01*
X165044360Y-123291600D01*
X165286264Y-123533505D01*
X165407217Y-124017314D01*
X165407217Y-124863981D01*
X165286264Y-125347790D01*
X165044360Y-125589695D01*
X164802455Y-125710648D01*
X164318645Y-125710648D01*
X164076741Y-125589695D01*
X163834836Y-125347790D01*
X163713884Y-124863981D01*
X163713884Y-124017314D01*
X163834836Y-123533505D01*
X164076741Y-123291600D01*
X164318645Y-123170648D01*
X167947216Y-125710648D02*
X167100550Y-124501124D01*
X166495788Y-125710648D02*
X166495788Y-123170648D01*
X167463407Y-123170648D01*
X167705312Y-123291600D01*
X167826264Y-123412552D01*
X167947216Y-123654457D01*
X167947216Y-124017314D01*
X167826264Y-124259219D01*
X167705312Y-124380171D01*
X167463407Y-124501124D01*
X166495788Y-124501124D01*
X168793883Y-126678267D02*
X168914836Y-126557314D01*
X169156740Y-126194457D01*
X169277693Y-125952552D01*
X169398645Y-125589695D01*
X169519597Y-124984933D01*
X169519597Y-124501124D01*
X169398645Y-123896362D01*
X169277693Y-123533505D01*
X169156740Y-123291600D01*
X168914836Y-122928743D01*
X168793883Y-122807790D01*
X173148168Y-123170648D02*
X173631978Y-123170648D01*
X173873883Y-123291600D01*
X174115787Y-123533505D01*
X174236740Y-124017314D01*
X174236740Y-124863981D01*
X174115787Y-125347790D01*
X173873883Y-125589695D01*
X173631978Y-125710648D01*
X173148168Y-125710648D01*
X172906264Y-125589695D01*
X172664359Y-125347790D01*
X172543407Y-124863981D01*
X172543407Y-124017314D01*
X172664359Y-123533505D01*
X172906264Y-123291600D01*
X173148168Y-123170648D01*
X174962454Y-123170648D02*
X175809120Y-125710648D01*
X176655787Y-123170648D01*
X177502454Y-124380171D02*
X178349121Y-124380171D01*
X178711978Y-125710648D02*
X177502454Y-125710648D01*
X177502454Y-123170648D01*
X178711978Y-123170648D01*
X181251977Y-125710648D02*
X180405311Y-124501124D01*
X179800549Y-125710648D02*
X179800549Y-123170648D01*
X180768168Y-123170648D01*
X181010073Y-123291600D01*
X181131025Y-123412552D01*
X181251977Y-123654457D01*
X181251977Y-124017314D01*
X181131025Y-124259219D01*
X181010073Y-124380171D01*
X180768168Y-124501124D01*
X179800549Y-124501124D01*
X185122454Y-124380171D02*
X185485311Y-124501124D01*
X185606263Y-124622076D01*
X185727215Y-124863981D01*
X185727215Y-125226838D01*
X185606263Y-125468743D01*
X185485311Y-125589695D01*
X185243406Y-125710648D01*
X184275787Y-125710648D01*
X184275787Y-123170648D01*
X185122454Y-123170648D01*
X185364358Y-123291600D01*
X185485311Y-123412552D01*
X185606263Y-123654457D01*
X185606263Y-123896362D01*
X185485311Y-124138267D01*
X185364358Y-124259219D01*
X185122454Y-124380171D01*
X184275787Y-124380171D01*
X186694835Y-124984933D02*
X187904358Y-124984933D01*
X186452930Y-125710648D02*
X187299596Y-123170648D01*
X188146263Y-125710648D01*
X190444358Y-125710648D02*
X189597692Y-124501124D01*
X188992930Y-125710648D02*
X188992930Y-123170648D01*
X189960549Y-123170648D01*
X190202454Y-123291600D01*
X190323406Y-123412552D01*
X190444358Y-123654457D01*
X190444358Y-124017314D01*
X190323406Y-124259219D01*
X190202454Y-124380171D01*
X189960549Y-124501124D01*
X188992930Y-124501124D01*
X191532930Y-124380171D02*
X192379597Y-124380171D01*
X192742454Y-125710648D02*
X191532930Y-125710648D01*
X191532930Y-123170648D01*
X192742454Y-123170648D01*
X197217691Y-125468743D02*
X197096739Y-125589695D01*
X196733882Y-125710648D01*
X196491977Y-125710648D01*
X196129120Y-125589695D01*
X195887215Y-125347790D01*
X195766263Y-125105886D01*
X195645311Y-124622076D01*
X195645311Y-124259219D01*
X195766263Y-123775410D01*
X195887215Y-123533505D01*
X196129120Y-123291600D01*
X196491977Y-123170648D01*
X196733882Y-123170648D01*
X197096739Y-123291600D01*
X197217691Y-123412552D01*
X198790072Y-123170648D02*
X199273882Y-123170648D01*
X199515787Y-123291600D01*
X199757691Y-123533505D01*
X199878644Y-124017314D01*
X199878644Y-124863981D01*
X199757691Y-125347790D01*
X199515787Y-125589695D01*
X199273882Y-125710648D01*
X198790072Y-125710648D01*
X198548168Y-125589695D01*
X198306263Y-125347790D01*
X198185311Y-124863981D01*
X198185311Y-124017314D01*
X198306263Y-123533505D01*
X198548168Y-123291600D01*
X198790072Y-123170648D01*
X200967215Y-125710648D02*
X200967215Y-123170648D01*
X201934834Y-123170648D01*
X202176739Y-123291600D01*
X202297691Y-123412552D01*
X202418643Y-123654457D01*
X202418643Y-124017314D01*
X202297691Y-124259219D01*
X202176739Y-124380171D01*
X201934834Y-124501124D01*
X200967215Y-124501124D01*
X203507215Y-125710648D02*
X203507215Y-123170648D01*
X204474834Y-123170648D01*
X204716739Y-123291600D01*
X204837691Y-123412552D01*
X204958643Y-123654457D01*
X204958643Y-124017314D01*
X204837691Y-124259219D01*
X204716739Y-124380171D01*
X204474834Y-124501124D01*
X203507215Y-124501124D01*
X206047215Y-124380171D02*
X206893882Y-124380171D01*
X207256739Y-125710648D02*
X206047215Y-125710648D01*
X206047215Y-123170648D01*
X207256739Y-123170648D01*
X209796738Y-125710648D02*
X208950072Y-124501124D01*
X208345310Y-125710648D02*
X208345310Y-123170648D01*
X209312929Y-123170648D01*
X209554834Y-123291600D01*
X209675786Y-123412552D01*
X209796738Y-123654457D01*
X209796738Y-124017314D01*
X209675786Y-124259219D01*
X209554834Y-124380171D01*
X209312929Y-124501124D01*
X208345310Y-124501124D01*
X210885310Y-125468743D02*
X211006262Y-125589695D01*
X210885310Y-125710648D01*
X210764358Y-125589695D01*
X210885310Y-125468743D01*
X210885310Y-125710648D01*
X111462457Y-127234648D02*
X113155790Y-127234648D01*
X112067219Y-129774648D01*
X114123410Y-129532743D02*
X114244362Y-129653695D01*
X114123410Y-129774648D01*
X114002458Y-129653695D01*
X114123410Y-129532743D01*
X114123410Y-129774648D01*
X117147220Y-129653695D02*
X117510077Y-129774648D01*
X118114839Y-129774648D01*
X118356743Y-129653695D01*
X118477696Y-129532743D01*
X118598648Y-129290838D01*
X118598648Y-129048933D01*
X118477696Y-128807029D01*
X118356743Y-128686076D01*
X118114839Y-128565124D01*
X117631029Y-128444171D01*
X117389124Y-128323219D01*
X117268172Y-128202267D01*
X117147220Y-127960362D01*
X117147220Y-127718457D01*
X117268172Y-127476552D01*
X117389124Y-127355600D01*
X117631029Y-127234648D01*
X118235791Y-127234648D01*
X118598648Y-127355600D01*
X119687220Y-129774648D02*
X119687220Y-127234648D01*
X122106268Y-129774648D02*
X120896744Y-129774648D01*
X120896744Y-127234648D01*
X122952934Y-129774648D02*
X122952934Y-127234648D01*
X124404362Y-129774648D02*
X123315791Y-128323219D01*
X124404362Y-127234648D02*
X122952934Y-128686076D01*
X125492934Y-129532743D02*
X125613886Y-129653695D01*
X125492934Y-129774648D01*
X125371982Y-129653695D01*
X125492934Y-129532743D01*
X125492934Y-129774648D01*
X125492934Y-128202267D02*
X125613886Y-128323219D01*
X125492934Y-128444171D01*
X125371982Y-128323219D01*
X125492934Y-128202267D01*
X125492934Y-128444171D01*
X129484363Y-128444171D02*
X129847220Y-128565124D01*
X129968172Y-128686076D01*
X130089124Y-128927981D01*
X130089124Y-129290838D01*
X129968172Y-129532743D01*
X129847220Y-129653695D01*
X129605315Y-129774648D01*
X128637696Y-129774648D01*
X128637696Y-127234648D01*
X129484363Y-127234648D01*
X129726267Y-127355600D01*
X129847220Y-127476552D01*
X129968172Y-127718457D01*
X129968172Y-127960362D01*
X129847220Y-128202267D01*
X129726267Y-128323219D01*
X129484363Y-128444171D01*
X128637696Y-128444171D01*
X131661505Y-127234648D02*
X132145315Y-127234648D01*
X132387220Y-127355600D01*
X132629124Y-127597505D01*
X132750077Y-128081314D01*
X132750077Y-128927981D01*
X132629124Y-129411790D01*
X132387220Y-129653695D01*
X132145315Y-129774648D01*
X131661505Y-129774648D01*
X131419601Y-129653695D01*
X131177696Y-129411790D01*
X131056744Y-128927981D01*
X131056744Y-128081314D01*
X131177696Y-127597505D01*
X131419601Y-127355600D01*
X131661505Y-127234648D01*
X133475791Y-127234648D02*
X134927219Y-127234648D01*
X134201505Y-129774648D02*
X134201505Y-127234648D01*
X135773886Y-129774648D02*
X135773886Y-127234648D01*
X135773886Y-128444171D02*
X137225314Y-128444171D01*
X137225314Y-129774648D02*
X137225314Y-127234648D01*
X140249124Y-129653695D02*
X140611981Y-129774648D01*
X141216743Y-129774648D01*
X141458647Y-129653695D01*
X141579600Y-129532743D01*
X141700552Y-129290838D01*
X141700552Y-129048933D01*
X141579600Y-128807029D01*
X141458647Y-128686076D01*
X141216743Y-128565124D01*
X140732933Y-128444171D01*
X140491028Y-128323219D01*
X140370076Y-128202267D01*
X140249124Y-127960362D01*
X140249124Y-127718457D01*
X140370076Y-127476552D01*
X140491028Y-127355600D01*
X140732933Y-127234648D01*
X141337695Y-127234648D01*
X141700552Y-127355600D01*
X142789124Y-129774648D02*
X142789124Y-127234648D01*
X143998648Y-129774648D02*
X143998648Y-127234648D01*
X144603410Y-127234648D01*
X144966267Y-127355600D01*
X145208172Y-127597505D01*
X145329124Y-127839410D01*
X145450076Y-128323219D01*
X145450076Y-128686076D01*
X145329124Y-129169886D01*
X145208172Y-129411790D01*
X144966267Y-129653695D01*
X144603410Y-129774648D01*
X143998648Y-129774648D01*
X146538648Y-128444171D02*
X147385315Y-128444171D01*
X147748172Y-129774648D02*
X146538648Y-129774648D01*
X146538648Y-127234648D01*
X147748172Y-127234648D01*
X148715791Y-129653695D02*
X149078648Y-129774648D01*
X149683410Y-129774648D01*
X149925314Y-129653695D01*
X150046267Y-129532743D01*
X150167219Y-129290838D01*
X150167219Y-129048933D01*
X150046267Y-128807029D01*
X149925314Y-128686076D01*
X149683410Y-128565124D01*
X149199600Y-128444171D01*
X148957695Y-128323219D01*
X148836743Y-128202267D01*
X148715791Y-127960362D01*
X148715791Y-127718457D01*
X148836743Y-127476552D01*
X148957695Y-127355600D01*
X149199600Y-127234648D01*
X149804362Y-127234648D01*
X150167219Y-127355600D01*
X153674838Y-127234648D02*
X154158648Y-127234648D01*
X154400553Y-127355600D01*
X154642457Y-127597505D01*
X154763410Y-128081314D01*
X154763410Y-128927981D01*
X154642457Y-129411790D01*
X154400553Y-129653695D01*
X154158648Y-129774648D01*
X153674838Y-129774648D01*
X153432934Y-129653695D01*
X153191029Y-129411790D01*
X153070077Y-128927981D01*
X153070077Y-128081314D01*
X153191029Y-127597505D01*
X153432934Y-127355600D01*
X153674838Y-127234648D01*
X156698648Y-128444171D02*
X155851981Y-128444171D01*
X155851981Y-129774648D02*
X155851981Y-127234648D01*
X157061505Y-127234648D01*
X159601505Y-127234648D02*
X161052933Y-127234648D01*
X160327219Y-129774648D02*
X160327219Y-127234648D01*
X161899600Y-129774648D02*
X161899600Y-127234648D01*
X161899600Y-128444171D02*
X163351028Y-128444171D01*
X163351028Y-129774648D02*
X163351028Y-127234648D01*
X164560552Y-128444171D02*
X165407219Y-128444171D01*
X165770076Y-129774648D02*
X164560552Y-129774648D01*
X164560552Y-127234648D01*
X165770076Y-127234648D01*
X169640552Y-128444171D02*
X170003409Y-128565124D01*
X170124361Y-128686076D01*
X170245313Y-128927981D01*
X170245313Y-129290838D01*
X170124361Y-129532743D01*
X170003409Y-129653695D01*
X169761504Y-129774648D01*
X168793885Y-129774648D01*
X168793885Y-127234648D01*
X169640552Y-127234648D01*
X169882456Y-127355600D01*
X170003409Y-127476552D01*
X170124361Y-127718457D01*
X170124361Y-127960362D01*
X170003409Y-128202267D01*
X169882456Y-128323219D01*
X169640552Y-128444171D01*
X168793885Y-128444171D01*
X171817694Y-127234648D02*
X172301504Y-127234648D01*
X172543409Y-127355600D01*
X172785313Y-127597505D01*
X172906266Y-128081314D01*
X172906266Y-128927981D01*
X172785313Y-129411790D01*
X172543409Y-129653695D01*
X172301504Y-129774648D01*
X171817694Y-129774648D01*
X171575790Y-129653695D01*
X171333885Y-129411790D01*
X171212933Y-128927981D01*
X171212933Y-128081314D01*
X171333885Y-127597505D01*
X171575790Y-127355600D01*
X171817694Y-127234648D01*
X173873885Y-129048933D02*
X175083408Y-129048933D01*
X173631980Y-129774648D02*
X174478646Y-127234648D01*
X175325313Y-129774648D01*
X177623408Y-129774648D02*
X176776742Y-128565124D01*
X176171980Y-129774648D02*
X176171980Y-127234648D01*
X177139599Y-127234648D01*
X177381504Y-127355600D01*
X177502456Y-127476552D01*
X177623408Y-127718457D01*
X177623408Y-128081314D01*
X177502456Y-128323219D01*
X177381504Y-128444171D01*
X177139599Y-128565124D01*
X176171980Y-128565124D01*
X178711980Y-129774648D02*
X178711980Y-127234648D01*
X179316742Y-127234648D01*
X179679599Y-127355600D01*
X179921504Y-127597505D01*
X180042456Y-127839410D01*
X180163408Y-128323219D01*
X180163408Y-128686076D01*
X180042456Y-129169886D01*
X179921504Y-129411790D01*
X179679599Y-129653695D01*
X179316742Y-129774648D01*
X178711980Y-129774648D01*
X183066266Y-129653695D02*
X183429123Y-129774648D01*
X184033885Y-129774648D01*
X184275789Y-129653695D01*
X184396742Y-129532743D01*
X184517694Y-129290838D01*
X184517694Y-129048933D01*
X184396742Y-128807029D01*
X184275789Y-128686076D01*
X184033885Y-128565124D01*
X183550075Y-128444171D01*
X183308170Y-128323219D01*
X183187218Y-128202267D01*
X183066266Y-127960362D01*
X183066266Y-127718457D01*
X183187218Y-127476552D01*
X183308170Y-127355600D01*
X183550075Y-127234648D01*
X184154837Y-127234648D01*
X184517694Y-127355600D01*
X185606266Y-129774648D02*
X185606266Y-127234648D01*
X185606266Y-128444171D02*
X187057694Y-128444171D01*
X187057694Y-129774648D02*
X187057694Y-127234648D01*
X188146266Y-129048933D02*
X189355789Y-129048933D01*
X187904361Y-129774648D02*
X188751027Y-127234648D01*
X189597694Y-129774648D01*
X191653885Y-129774648D02*
X190444361Y-129774648D01*
X190444361Y-127234648D01*
X193710075Y-129774648D02*
X192500551Y-129774648D01*
X192500551Y-127234648D01*
X196491979Y-129774648D02*
X196491979Y-127234648D01*
X196491979Y-128444171D02*
X197943407Y-128444171D01*
X197943407Y-129774648D02*
X197943407Y-127234648D01*
X199031979Y-129048933D02*
X200241502Y-129048933D01*
X198790074Y-129774648D02*
X199636740Y-127234648D01*
X200483407Y-129774648D01*
X200967217Y-127234648D02*
X201813883Y-129774648D01*
X202660550Y-127234648D01*
X203507217Y-128444171D02*
X204353884Y-128444171D01*
X204716741Y-129774648D02*
X203507217Y-129774648D01*
X203507217Y-127234648D01*
X204716741Y-127234648D01*
X117268171Y-131298648D02*
X117872933Y-133838648D01*
X118356743Y-132024362D01*
X118840552Y-133838648D01*
X119445314Y-131298648D01*
X120412933Y-133838648D02*
X120412933Y-131298648D01*
X120412933Y-132508171D02*
X121864361Y-132508171D01*
X121864361Y-133838648D02*
X121864361Y-131298648D01*
X123073885Y-133838648D02*
X123073885Y-131298648D01*
X123920552Y-131298648D02*
X125371980Y-131298648D01*
X124646266Y-133838648D02*
X124646266Y-131298648D01*
X126218647Y-132508171D02*
X127065314Y-132508171D01*
X127428171Y-133838648D02*
X126218647Y-133838648D01*
X126218647Y-131298648D01*
X127428171Y-131298648D01*
X130331028Y-133717695D02*
X130693885Y-133838648D01*
X131298647Y-133838648D01*
X131540551Y-133717695D01*
X131661504Y-133596743D01*
X131782456Y-133354838D01*
X131782456Y-133112933D01*
X131661504Y-132871029D01*
X131540551Y-132750076D01*
X131298647Y-132629124D01*
X130814837Y-132508171D01*
X130572932Y-132387219D01*
X130451980Y-132266267D01*
X130331028Y-132024362D01*
X130331028Y-131782457D01*
X130451980Y-131540552D01*
X130572932Y-131419600D01*
X130814837Y-131298648D01*
X131419599Y-131298648D01*
X131782456Y-131419600D01*
X132871028Y-133838648D02*
X132871028Y-131298648D01*
X135290076Y-133838648D02*
X134080552Y-133838648D01*
X134080552Y-131298648D01*
X136136742Y-133838648D02*
X136136742Y-131298648D01*
X137588170Y-133838648D02*
X136499599Y-132387219D01*
X137588170Y-131298648D02*
X136136742Y-132750076D01*
X138555790Y-133717695D02*
X138918647Y-133838648D01*
X139523409Y-133838648D01*
X139765313Y-133717695D01*
X139886266Y-133596743D01*
X140007218Y-133354838D01*
X140007218Y-133112933D01*
X139886266Y-132871029D01*
X139765313Y-132750076D01*
X139523409Y-132629124D01*
X139039599Y-132508171D01*
X138797694Y-132387219D01*
X138676742Y-132266267D01*
X138555790Y-132024362D01*
X138555790Y-131782457D01*
X138676742Y-131540552D01*
X138797694Y-131419600D01*
X139039599Y-131298648D01*
X139644361Y-131298648D01*
X140007218Y-131419600D01*
X142547218Y-133596743D02*
X142426266Y-133717695D01*
X142063409Y-133838648D01*
X141821504Y-133838648D01*
X141458647Y-133717695D01*
X141216742Y-133475790D01*
X141095790Y-133233886D01*
X140974838Y-132750076D01*
X140974838Y-132387219D01*
X141095790Y-131903410D01*
X141216742Y-131661505D01*
X141458647Y-131419600D01*
X141821504Y-131298648D01*
X142063409Y-131298648D01*
X142426266Y-131419600D01*
X142547218Y-131540552D01*
X145087218Y-133838648D02*
X144240552Y-132629124D01*
X143635790Y-133838648D02*
X143635790Y-131298648D01*
X144603409Y-131298648D01*
X144845314Y-131419600D01*
X144966266Y-131540552D01*
X145087218Y-131782457D01*
X145087218Y-132145314D01*
X144966266Y-132387219D01*
X144845314Y-132508171D01*
X144603409Y-132629124D01*
X143635790Y-132629124D01*
X146175790Y-132508171D02*
X147022457Y-132508171D01*
X147385314Y-133838648D02*
X146175790Y-133838648D01*
X146175790Y-131298648D01*
X147385314Y-131298648D01*
X148473885Y-132508171D02*
X149320552Y-132508171D01*
X149683409Y-133838648D02*
X148473885Y-133838648D01*
X148473885Y-131298648D01*
X149683409Y-131298648D01*
X150771980Y-133838648D02*
X150771980Y-131298648D01*
X152223408Y-133838648D01*
X152223408Y-131298648D01*
X153432932Y-133596743D02*
X153553884Y-133717695D01*
X153432932Y-133838648D01*
X153311980Y-133717695D01*
X153432932Y-133596743D01*
X153432932Y-133838648D01*
X156577694Y-133838648D02*
X156577694Y-131298648D01*
X157182456Y-131298648D01*
X157545313Y-131419600D01*
X157787218Y-131661505D01*
X157908170Y-131903410D01*
X158029122Y-132387219D01*
X158029122Y-132750076D01*
X157908170Y-133233886D01*
X157787218Y-133475790D01*
X157545313Y-133717695D01*
X157182456Y-133838648D01*
X156577694Y-133838648D01*
X159601503Y-131298648D02*
X160085313Y-131298648D01*
X160327218Y-131419600D01*
X160569122Y-131661505D01*
X160690075Y-132145314D01*
X160690075Y-132991981D01*
X160569122Y-133475790D01*
X160327218Y-133717695D01*
X160085313Y-133838648D01*
X159601503Y-133838648D01*
X159359599Y-133717695D01*
X159117694Y-133475790D01*
X158996742Y-132991981D01*
X158996742Y-132145314D01*
X159117694Y-131661505D01*
X159359599Y-131419600D01*
X159601503Y-131298648D01*
X163713884Y-133838648D02*
X163713884Y-131298648D01*
X165165312Y-133838648D01*
X165165312Y-131298648D01*
X166858645Y-131298648D02*
X167342455Y-131298648D01*
X167584360Y-131419600D01*
X167826264Y-131661505D01*
X167947217Y-132145314D01*
X167947217Y-132991981D01*
X167826264Y-133475790D01*
X167584360Y-133717695D01*
X167342455Y-133838648D01*
X166858645Y-133838648D01*
X166616741Y-133717695D01*
X166374836Y-133475790D01*
X166253884Y-132991981D01*
X166253884Y-132145314D01*
X166374836Y-131661505D01*
X166616741Y-131419600D01*
X166858645Y-131298648D01*
X168672931Y-131298648D02*
X170124359Y-131298648D01*
X169398645Y-133838648D02*
X169398645Y-131298648D01*
X172906264Y-133838648D02*
X172906264Y-131298648D01*
X173873883Y-131298648D01*
X174115788Y-131419600D01*
X174236740Y-131540552D01*
X174357692Y-131782457D01*
X174357692Y-132145314D01*
X174236740Y-132387219D01*
X174115788Y-132508171D01*
X173873883Y-132629124D01*
X172906264Y-132629124D01*
X176655788Y-133838648D02*
X175446264Y-133838648D01*
X175446264Y-131298648D01*
X177381502Y-133112933D02*
X178591025Y-133112933D01*
X177139597Y-133838648D02*
X177986263Y-131298648D01*
X178832930Y-133838648D01*
X181131025Y-133596743D02*
X181010073Y-133717695D01*
X180647216Y-133838648D01*
X180405311Y-133838648D01*
X180042454Y-133717695D01*
X179800549Y-133475790D01*
X179679597Y-133233886D01*
X179558645Y-132750076D01*
X179558645Y-132387219D01*
X179679597Y-131903410D01*
X179800549Y-131661505D01*
X180042454Y-131419600D01*
X180405311Y-131298648D01*
X180647216Y-131298648D01*
X181010073Y-131419600D01*
X181131025Y-131540552D01*
X182219597Y-132508171D02*
X183066264Y-132508171D01*
X183429121Y-133838648D02*
X182219597Y-133838648D01*
X182219597Y-131298648D01*
X183429121Y-131298648D01*
X186331978Y-133717695D02*
X186694835Y-133838648D01*
X187299597Y-133838648D01*
X187541501Y-133717695D01*
X187662454Y-133596743D01*
X187783406Y-133354838D01*
X187783406Y-133112933D01*
X187662454Y-132871029D01*
X187541501Y-132750076D01*
X187299597Y-132629124D01*
X186815787Y-132508171D01*
X186573882Y-132387219D01*
X186452930Y-132266267D01*
X186331978Y-132024362D01*
X186331978Y-131782457D01*
X186452930Y-131540552D01*
X186573882Y-131419600D01*
X186815787Y-131298648D01*
X187420549Y-131298648D01*
X187783406Y-131419600D01*
X188871978Y-133838648D02*
X188871978Y-131298648D01*
X191291026Y-133838648D02*
X190081502Y-133838648D01*
X190081502Y-131298648D01*
X192137692Y-133838648D02*
X192137692Y-131298648D01*
X193589120Y-133838648D02*
X192500549Y-132387219D01*
X193589120Y-131298648D02*
X192137692Y-132750076D01*
X197096739Y-131298648D02*
X197580549Y-131298648D01*
X197822454Y-131419600D01*
X198064358Y-131661505D01*
X198185311Y-132145314D01*
X198185311Y-132991981D01*
X198064358Y-133475790D01*
X197822454Y-133717695D01*
X197580549Y-133838648D01*
X197096739Y-133838648D01*
X196854835Y-133717695D01*
X196612930Y-133475790D01*
X196491978Y-132991981D01*
X196491978Y-132145314D01*
X196612930Y-131661505D01*
X196854835Y-131419600D01*
X197096739Y-131298648D01*
X198911025Y-131298648D02*
X199757691Y-133838648D01*
X200604358Y-131298648D01*
X201451025Y-132508171D02*
X202297692Y-132508171D01*
X202660549Y-133838648D02*
X201451025Y-133838648D01*
X201451025Y-131298648D01*
X202660549Y-131298648D01*
X205200548Y-133838648D02*
X204353882Y-132629124D01*
X203749120Y-133838648D02*
X203749120Y-131298648D01*
X204716739Y-131298648D01*
X204958644Y-131419600D01*
X205079596Y-131540552D01*
X205200548Y-131782457D01*
X205200548Y-132145314D01*
X205079596Y-132387219D01*
X204958644Y-132508171D01*
X204716739Y-132629124D01*
X203749120Y-132629124D01*
X209071025Y-132508171D02*
X209433882Y-132629124D01*
X209554834Y-132750076D01*
X209675786Y-132991981D01*
X209675786Y-133354838D01*
X209554834Y-133596743D01*
X209433882Y-133717695D01*
X209191977Y-133838648D01*
X208224358Y-133838648D01*
X208224358Y-131298648D01*
X209071025Y-131298648D01*
X209312929Y-131419600D01*
X209433882Y-131540552D01*
X209554834Y-131782457D01*
X209554834Y-132024362D01*
X209433882Y-132266267D01*
X209312929Y-132387219D01*
X209071025Y-132508171D01*
X208224358Y-132508171D01*
X210643406Y-133112933D02*
X211852929Y-133112933D01*
X210401501Y-133838648D02*
X211248167Y-131298648D01*
X212094834Y-133838648D01*
X214392929Y-133838648D02*
X213546263Y-132629124D01*
X212941501Y-133838648D02*
X212941501Y-131298648D01*
X213909120Y-131298648D01*
X214151025Y-131419600D01*
X214271977Y-131540552D01*
X214392929Y-131782457D01*
X214392929Y-132145314D01*
X214271977Y-132387219D01*
X214151025Y-132508171D01*
X213909120Y-132629124D01*
X212941501Y-132629124D01*
X215481501Y-132508171D02*
X216328168Y-132508171D01*
X216691025Y-133838648D02*
X215481501Y-133838648D01*
X215481501Y-131298648D01*
X216691025Y-131298648D01*
X221166262Y-133596743D02*
X221045310Y-133717695D01*
X220682453Y-133838648D01*
X220440548Y-133838648D01*
X220077691Y-133717695D01*
X219835786Y-133475790D01*
X219714834Y-133233886D01*
X219593882Y-132750076D01*
X219593882Y-132387219D01*
X219714834Y-131903410D01*
X219835786Y-131661505D01*
X220077691Y-131419600D01*
X220440548Y-131298648D01*
X220682453Y-131298648D01*
X221045310Y-131419600D01*
X221166262Y-131540552D01*
X222738643Y-131298648D02*
X223222453Y-131298648D01*
X223464358Y-131419600D01*
X223706262Y-131661505D01*
X223827215Y-132145314D01*
X223827215Y-132991981D01*
X223706262Y-133475790D01*
X223464358Y-133717695D01*
X223222453Y-133838648D01*
X222738643Y-133838648D01*
X222496739Y-133717695D01*
X222254834Y-133475790D01*
X222133882Y-132991981D01*
X222133882Y-132145314D01*
X222254834Y-131661505D01*
X222496739Y-131419600D01*
X222738643Y-131298648D01*
X224915786Y-133838648D02*
X224915786Y-131298648D01*
X225883405Y-131298648D01*
X226125310Y-131419600D01*
X226246262Y-131540552D01*
X226367214Y-131782457D01*
X226367214Y-132145314D01*
X226246262Y-132387219D01*
X226125310Y-132508171D01*
X225883405Y-132629124D01*
X224915786Y-132629124D01*
X227455786Y-133838648D02*
X227455786Y-131298648D01*
X228423405Y-131298648D01*
X228665310Y-131419600D01*
X228786262Y-131540552D01*
X228907214Y-131782457D01*
X228907214Y-132145314D01*
X228786262Y-132387219D01*
X228665310Y-132508171D01*
X228423405Y-132629124D01*
X227455786Y-132629124D01*
X229995786Y-132508171D02*
X230842453Y-132508171D01*
X231205310Y-133838648D02*
X229995786Y-133838648D01*
X229995786Y-131298648D01*
X231205310Y-131298648D01*
X233745309Y-133838648D02*
X232898643Y-132629124D01*
X232293881Y-133838648D02*
X232293881Y-131298648D01*
X233261500Y-131298648D01*
X233503405Y-131419600D01*
X233624357Y-131540552D01*
X233745309Y-131782457D01*
X233745309Y-132145314D01*
X233624357Y-132387219D01*
X233503405Y-132508171D01*
X233261500Y-132629124D01*
X232293881Y-132629124D01*
X234833881Y-133596743D02*
X234954833Y-133717695D01*
X234833881Y-133838648D01*
X234712929Y-133717695D01*
X234833881Y-133596743D01*
X234833881Y-133838648D01*
X112067219Y-136451219D02*
X111825314Y-136330267D01*
X111704362Y-136209314D01*
X111583410Y-135967410D01*
X111583410Y-135846457D01*
X111704362Y-135604552D01*
X111825314Y-135483600D01*
X112067219Y-135362648D01*
X112551029Y-135362648D01*
X112792933Y-135483600D01*
X112913886Y-135604552D01*
X113034838Y-135846457D01*
X113034838Y-135967410D01*
X112913886Y-136209314D01*
X112792933Y-136330267D01*
X112551029Y-136451219D01*
X112067219Y-136451219D01*
X111825314Y-136572171D01*
X111704362Y-136693124D01*
X111583410Y-136935029D01*
X111583410Y-137418838D01*
X111704362Y-137660743D01*
X111825314Y-137781695D01*
X112067219Y-137902648D01*
X112551029Y-137902648D01*
X112792933Y-137781695D01*
X112913886Y-137660743D01*
X113034838Y-137418838D01*
X113034838Y-136935029D01*
X112913886Y-136693124D01*
X112792933Y-136572171D01*
X112551029Y-136451219D01*
X114123410Y-137660743D02*
X114244362Y-137781695D01*
X114123410Y-137902648D01*
X114002458Y-137781695D01*
X114123410Y-137660743D01*
X114123410Y-137902648D01*
X118114839Y-136572171D02*
X117268172Y-136572171D01*
X117268172Y-137902648D02*
X117268172Y-135362648D01*
X118477696Y-135362648D01*
X119445315Y-137902648D02*
X119445315Y-135362648D01*
X120654839Y-137902648D02*
X120654839Y-135362648D01*
X122106267Y-137902648D01*
X122106267Y-135362648D01*
X123315791Y-137902648D02*
X123315791Y-135362648D01*
X124404363Y-137781695D02*
X124767220Y-137902648D01*
X125371982Y-137902648D01*
X125613886Y-137781695D01*
X125734839Y-137660743D01*
X125855791Y-137418838D01*
X125855791Y-137176933D01*
X125734839Y-136935029D01*
X125613886Y-136814076D01*
X125371982Y-136693124D01*
X124888172Y-136572171D01*
X124646267Y-136451219D01*
X124525315Y-136330267D01*
X124404363Y-136088362D01*
X124404363Y-135846457D01*
X124525315Y-135604552D01*
X124646267Y-135483600D01*
X124888172Y-135362648D01*
X125492934Y-135362648D01*
X125855791Y-135483600D01*
X126944363Y-137902648D02*
X126944363Y-135362648D01*
X126944363Y-136572171D02*
X128395791Y-136572171D01*
X128395791Y-137902648D02*
X128395791Y-135362648D01*
X129605315Y-137660743D02*
X129726267Y-137781695D01*
X129605315Y-137902648D01*
X129484363Y-137781695D01*
X129605315Y-137660743D01*
X129605315Y-137902648D01*
X129605315Y-136330267D02*
X129726267Y-136451219D01*
X129605315Y-136572171D01*
X129484363Y-136451219D01*
X129605315Y-136330267D01*
X129605315Y-136572171D01*
X132750077Y-136572171D02*
X133596744Y-136572171D01*
X133959601Y-137902648D02*
X132750077Y-137902648D01*
X132750077Y-135362648D01*
X133959601Y-135362648D01*
X135048172Y-137902648D02*
X135048172Y-135362648D01*
X136499600Y-137902648D01*
X136499600Y-135362648D01*
X137709124Y-137902648D02*
X137709124Y-135362648D01*
X140249124Y-135483600D02*
X140007219Y-135362648D01*
X139644362Y-135362648D01*
X139281505Y-135483600D01*
X139039600Y-135725505D01*
X138918648Y-135967410D01*
X138797696Y-136451219D01*
X138797696Y-136814076D01*
X138918648Y-137297886D01*
X139039600Y-137539790D01*
X139281505Y-137781695D01*
X139644362Y-137902648D01*
X139886267Y-137902648D01*
X140249124Y-137781695D01*
X140370076Y-137660743D01*
X140370076Y-136814076D01*
X139886267Y-136814076D01*
X141458648Y-137660743D02*
X141579600Y-137781695D01*
X141458648Y-137902648D01*
X141337696Y-137781695D01*
X141458648Y-137660743D01*
X141458648Y-137902648D01*
X111825314Y-141966648D02*
X112309124Y-141966648D01*
X112551029Y-141845695D01*
X112671981Y-141724743D01*
X112913886Y-141361886D01*
X113034838Y-140878076D01*
X113034838Y-139910457D01*
X112913886Y-139668552D01*
X112792933Y-139547600D01*
X112551029Y-139426648D01*
X112067219Y-139426648D01*
X111825314Y-139547600D01*
X111704362Y-139668552D01*
X111583410Y-139910457D01*
X111583410Y-140515219D01*
X111704362Y-140757124D01*
X111825314Y-140878076D01*
X112067219Y-140999029D01*
X112551029Y-140999029D01*
X112792933Y-140878076D01*
X112913886Y-140757124D01*
X113034838Y-140515219D01*
X114123410Y-141724743D02*
X114244362Y-141845695D01*
X114123410Y-141966648D01*
X114002458Y-141845695D01*
X114123410Y-141724743D01*
X114123410Y-141966648D01*
X117268172Y-141966648D02*
X117268172Y-139426648D01*
X118114839Y-141240933D01*
X118961505Y-139426648D01*
X118961505Y-141966648D01*
X120171029Y-141966648D02*
X120171029Y-139426648D01*
X121380553Y-141966648D02*
X121380553Y-139426648D01*
X122831981Y-141966648D01*
X122831981Y-139426648D01*
X124041505Y-141966648D02*
X124041505Y-139426648D01*
X125251029Y-141966648D02*
X125251029Y-139426648D01*
X126097696Y-141240933D01*
X126944362Y-139426648D01*
X126944362Y-141966648D01*
X128153886Y-139426648D02*
X128153886Y-141482838D01*
X128274838Y-141724743D01*
X128395791Y-141845695D01*
X128637695Y-141966648D01*
X129121505Y-141966648D01*
X129363410Y-141845695D01*
X129484362Y-141724743D01*
X129605314Y-141482838D01*
X129605314Y-139426648D01*
X130814838Y-141966648D02*
X130814838Y-139426648D01*
X131661505Y-141240933D01*
X132508171Y-139426648D01*
X132508171Y-141966648D01*
X135290076Y-139426648D02*
X136741504Y-139426648D01*
X136015790Y-141966648D02*
X136015790Y-139426648D01*
X139039599Y-141966648D02*
X138192933Y-140757124D01*
X137588171Y-141966648D02*
X137588171Y-139426648D01*
X138555790Y-139426648D01*
X138797695Y-139547600D01*
X138918647Y-139668552D01*
X139039599Y-139910457D01*
X139039599Y-140273314D01*
X138918647Y-140515219D01*
X138797695Y-140636171D01*
X138555790Y-140757124D01*
X137588171Y-140757124D01*
X140007219Y-141240933D02*
X141216742Y-141240933D01*
X139765314Y-141966648D02*
X140611980Y-139426648D01*
X141458647Y-141966648D01*
X143756742Y-141724743D02*
X143635790Y-141845695D01*
X143272933Y-141966648D01*
X143031028Y-141966648D01*
X142668171Y-141845695D01*
X142426266Y-141603790D01*
X142305314Y-141361886D01*
X142184362Y-140878076D01*
X142184362Y-140515219D01*
X142305314Y-140031410D01*
X142426266Y-139789505D01*
X142668171Y-139547600D01*
X143031028Y-139426648D01*
X143272933Y-139426648D01*
X143635790Y-139547600D01*
X143756742Y-139668552D01*
X144845314Y-140636171D02*
X145691981Y-140636171D01*
X146054838Y-141966648D02*
X144845314Y-141966648D01*
X144845314Y-139426648D01*
X146054838Y-139426648D01*
X148836742Y-139426648D02*
X149441504Y-141966648D01*
X149925314Y-140152362D01*
X150409123Y-141966648D01*
X151013885Y-139426648D01*
X151981504Y-141966648D02*
X151981504Y-139426648D01*
X153191028Y-141966648D02*
X153191028Y-139426648D01*
X153795790Y-139426648D01*
X154158647Y-139547600D01*
X154400552Y-139789505D01*
X154521504Y-140031410D01*
X154642456Y-140515219D01*
X154642456Y-140878076D01*
X154521504Y-141361886D01*
X154400552Y-141603790D01*
X154158647Y-141845695D01*
X153795790Y-141966648D01*
X153191028Y-141966648D01*
X155368171Y-139426648D02*
X156819599Y-139426648D01*
X156093885Y-141966648D02*
X156093885Y-139426648D01*
X157666266Y-141966648D02*
X157666266Y-139426648D01*
X157666266Y-140636171D02*
X159117694Y-140636171D01*
X159117694Y-141966648D02*
X159117694Y-139426648D01*
X162262456Y-140999029D02*
X164197694Y-140999029D01*
X167826265Y-139426648D02*
X168068170Y-139426648D01*
X168310075Y-139547600D01*
X168431027Y-139668552D01*
X168551980Y-139910457D01*
X168672932Y-140394267D01*
X168672932Y-140999029D01*
X168551980Y-141482838D01*
X168431027Y-141724743D01*
X168310075Y-141845695D01*
X168068170Y-141966648D01*
X167826265Y-141966648D01*
X167584361Y-141845695D01*
X167463408Y-141724743D01*
X167342456Y-141482838D01*
X167221504Y-140999029D01*
X167221504Y-140394267D01*
X167342456Y-139910457D01*
X167463408Y-139668552D01*
X167584361Y-139547600D01*
X167826265Y-139426648D01*
X169761504Y-141724743D02*
X169882456Y-141845695D01*
X169761504Y-141966648D01*
X169640552Y-141845695D01*
X169761504Y-141724743D01*
X169761504Y-141966648D01*
X171454837Y-139426648D02*
X171696742Y-139426648D01*
X171938647Y-139547600D01*
X172059599Y-139668552D01*
X172180552Y-139910457D01*
X172301504Y-140394267D01*
X172301504Y-140999029D01*
X172180552Y-141482838D01*
X172059599Y-141724743D01*
X171938647Y-141845695D01*
X171696742Y-141966648D01*
X171454837Y-141966648D01*
X171212933Y-141845695D01*
X171091980Y-141724743D01*
X170971028Y-141482838D01*
X170850076Y-140999029D01*
X170850076Y-140394267D01*
X170971028Y-139910457D01*
X171091980Y-139668552D01*
X171212933Y-139547600D01*
X171454837Y-139426648D01*
X173873885Y-139426648D02*
X174115790Y-139426648D01*
X174357695Y-139547600D01*
X174478647Y-139668552D01*
X174599600Y-139910457D01*
X174720552Y-140394267D01*
X174720552Y-140999029D01*
X174599600Y-141482838D01*
X174478647Y-141724743D01*
X174357695Y-141845695D01*
X174115790Y-141966648D01*
X173873885Y-141966648D01*
X173631981Y-141845695D01*
X173511028Y-141724743D01*
X173390076Y-141482838D01*
X173269124Y-140999029D01*
X173269124Y-140394267D01*
X173390076Y-139910457D01*
X173511028Y-139668552D01*
X173631981Y-139547600D01*
X173873885Y-139426648D01*
X176897695Y-139426648D02*
X176413886Y-139426648D01*
X176171981Y-139547600D01*
X176051029Y-139668552D01*
X175809124Y-140031410D01*
X175688172Y-140515219D01*
X175688172Y-141482838D01*
X175809124Y-141724743D01*
X175930076Y-141845695D01*
X176171981Y-141966648D01*
X176655791Y-141966648D01*
X176897695Y-141845695D01*
X177018648Y-141724743D01*
X177139600Y-141482838D01*
X177139600Y-140878076D01*
X177018648Y-140636171D01*
X176897695Y-140515219D01*
X176655791Y-140394267D01*
X176171981Y-140394267D01*
X175930076Y-140515219D01*
X175809124Y-140636171D01*
X175688172Y-140878076D01*
X180163410Y-141966648D02*
X180163410Y-139426648D01*
X181372934Y-141966648D02*
X181372934Y-139426648D01*
X182824362Y-141966648D01*
X182824362Y-139426648D01*
X185485314Y-141724743D02*
X185364362Y-141845695D01*
X185001505Y-141966648D01*
X184759600Y-141966648D01*
X184396743Y-141845695D01*
X184154838Y-141603790D01*
X184033886Y-141361886D01*
X183912934Y-140878076D01*
X183912934Y-140515219D01*
X184033886Y-140031410D01*
X184154838Y-139789505D01*
X184396743Y-139547600D01*
X184759600Y-139426648D01*
X185001505Y-139426648D01*
X185364362Y-139547600D01*
X185485314Y-139668552D01*
X186573886Y-141966648D02*
X186573886Y-139426648D01*
X186573886Y-140636171D02*
X188025314Y-140636171D01*
X188025314Y-141966648D02*
X188025314Y-139426648D01*
X189234838Y-141724743D02*
X189355790Y-141845695D01*
X189234838Y-141966648D01*
X189113886Y-141845695D01*
X189234838Y-141724743D01*
X189234838Y-141966648D01*
X117510076Y-146030648D02*
X117510076Y-143490648D01*
X118356743Y-145304933D01*
X119203409Y-143490648D01*
X119203409Y-146030648D01*
X120412933Y-146030648D02*
X120412933Y-143490648D01*
X121622457Y-146030648D02*
X121622457Y-143490648D01*
X123073885Y-146030648D01*
X123073885Y-143490648D01*
X124283409Y-146030648D02*
X124283409Y-143490648D01*
X125492933Y-146030648D02*
X125492933Y-143490648D01*
X126339600Y-145304933D01*
X127186266Y-143490648D01*
X127186266Y-146030648D01*
X128395790Y-143490648D02*
X128395790Y-145546838D01*
X128516742Y-145788743D01*
X128637695Y-145909695D01*
X128879599Y-146030648D01*
X129363409Y-146030648D01*
X129605314Y-145909695D01*
X129726266Y-145788743D01*
X129847218Y-145546838D01*
X129847218Y-143490648D01*
X131056742Y-146030648D02*
X131056742Y-143490648D01*
X131903409Y-145304933D01*
X132750075Y-143490648D01*
X132750075Y-146030648D01*
X135773885Y-145909695D02*
X136136742Y-146030648D01*
X136741504Y-146030648D01*
X136983408Y-145909695D01*
X137104361Y-145788743D01*
X137225313Y-145546838D01*
X137225313Y-145304933D01*
X137104361Y-145063029D01*
X136983408Y-144942076D01*
X136741504Y-144821124D01*
X136257694Y-144700171D01*
X136015789Y-144579219D01*
X135894837Y-144458267D01*
X135773885Y-144216362D01*
X135773885Y-143974457D01*
X135894837Y-143732552D01*
X136015789Y-143611600D01*
X136257694Y-143490648D01*
X136862456Y-143490648D01*
X137225313Y-143611600D01*
X138313885Y-146030648D02*
X138313885Y-143490648D01*
X139281504Y-143490648D01*
X139523409Y-143611600D01*
X139644361Y-143732552D01*
X139765313Y-143974457D01*
X139765313Y-144337314D01*
X139644361Y-144579219D01*
X139523409Y-144700171D01*
X139281504Y-144821124D01*
X138313885Y-144821124D01*
X140732933Y-145304933D02*
X141942456Y-145304933D01*
X140491028Y-146030648D02*
X141337694Y-143490648D01*
X142184361Y-146030648D01*
X144482456Y-145788743D02*
X144361504Y-145909695D01*
X143998647Y-146030648D01*
X143756742Y-146030648D01*
X143393885Y-145909695D01*
X143151980Y-145667790D01*
X143031028Y-145425886D01*
X142910076Y-144942076D01*
X142910076Y-144579219D01*
X143031028Y-144095410D01*
X143151980Y-143853505D01*
X143393885Y-143611600D01*
X143756742Y-143490648D01*
X143998647Y-143490648D01*
X144361504Y-143611600D01*
X144482456Y-143732552D01*
X145571028Y-144700171D02*
X146417695Y-144700171D01*
X146780552Y-146030648D02*
X145571028Y-146030648D01*
X145571028Y-143490648D01*
X146780552Y-143490648D01*
X149804361Y-145063029D02*
X151739599Y-145063029D01*
X155368170Y-143490648D02*
X155610075Y-143490648D01*
X155851980Y-143611600D01*
X155972932Y-143732552D01*
X156093885Y-143974457D01*
X156214837Y-144458267D01*
X156214837Y-145063029D01*
X156093885Y-145546838D01*
X155972932Y-145788743D01*
X155851980Y-145909695D01*
X155610075Y-146030648D01*
X155368170Y-146030648D01*
X155126266Y-145909695D01*
X155005313Y-145788743D01*
X154884361Y-145546838D01*
X154763409Y-145063029D01*
X154763409Y-144458267D01*
X154884361Y-143974457D01*
X155005313Y-143732552D01*
X155126266Y-143611600D01*
X155368170Y-143490648D01*
X157303409Y-145788743D02*
X157424361Y-145909695D01*
X157303409Y-146030648D01*
X157182457Y-145909695D01*
X157303409Y-145788743D01*
X157303409Y-146030648D01*
X158996742Y-143490648D02*
X159238647Y-143490648D01*
X159480552Y-143611600D01*
X159601504Y-143732552D01*
X159722457Y-143974457D01*
X159843409Y-144458267D01*
X159843409Y-145063029D01*
X159722457Y-145546838D01*
X159601504Y-145788743D01*
X159480552Y-145909695D01*
X159238647Y-146030648D01*
X158996742Y-146030648D01*
X158754838Y-145909695D01*
X158633885Y-145788743D01*
X158512933Y-145546838D01*
X158391981Y-145063029D01*
X158391981Y-144458267D01*
X158512933Y-143974457D01*
X158633885Y-143732552D01*
X158754838Y-143611600D01*
X158996742Y-143490648D01*
X161415790Y-143490648D02*
X161657695Y-143490648D01*
X161899600Y-143611600D01*
X162020552Y-143732552D01*
X162141505Y-143974457D01*
X162262457Y-144458267D01*
X162262457Y-145063029D01*
X162141505Y-145546838D01*
X162020552Y-145788743D01*
X161899600Y-145909695D01*
X161657695Y-146030648D01*
X161415790Y-146030648D01*
X161173886Y-145909695D01*
X161052933Y-145788743D01*
X160931981Y-145546838D01*
X160811029Y-145063029D01*
X160811029Y-144458267D01*
X160931981Y-143974457D01*
X161052933Y-143732552D01*
X161173886Y-143611600D01*
X161415790Y-143490648D01*
X164439600Y-143490648D02*
X163955791Y-143490648D01*
X163713886Y-143611600D01*
X163592934Y-143732552D01*
X163351029Y-144095410D01*
X163230077Y-144579219D01*
X163230077Y-145546838D01*
X163351029Y-145788743D01*
X163471981Y-145909695D01*
X163713886Y-146030648D01*
X164197696Y-146030648D01*
X164439600Y-145909695D01*
X164560553Y-145788743D01*
X164681505Y-145546838D01*
X164681505Y-144942076D01*
X164560553Y-144700171D01*
X164439600Y-144579219D01*
X164197696Y-144458267D01*
X163713886Y-144458267D01*
X163471981Y-144579219D01*
X163351029Y-144700171D01*
X163230077Y-144942076D01*
X167705315Y-146030648D02*
X167705315Y-143490648D01*
X168914839Y-146030648D02*
X168914839Y-143490648D01*
X170366267Y-146030648D01*
X170366267Y-143490648D01*
X173027219Y-145788743D02*
X172906267Y-145909695D01*
X172543410Y-146030648D01*
X172301505Y-146030648D01*
X171938648Y-145909695D01*
X171696743Y-145667790D01*
X171575791Y-145425886D01*
X171454839Y-144942076D01*
X171454839Y-144579219D01*
X171575791Y-144095410D01*
X171696743Y-143853505D01*
X171938648Y-143611600D01*
X172301505Y-143490648D01*
X172543410Y-143490648D01*
X172906267Y-143611600D01*
X173027219Y-143732552D01*
X174115791Y-146030648D02*
X174115791Y-143490648D01*
X174115791Y-144700171D02*
X175567219Y-144700171D01*
X175567219Y-146030648D02*
X175567219Y-143490648D01*
X176776743Y-145788743D02*
X176897695Y-145909695D01*
X176776743Y-146030648D01*
X176655791Y-145909695D01*
X176776743Y-145788743D01*
X176776743Y-146030648D01*
X117510076Y-150094648D02*
X117510076Y-147554648D01*
X118356743Y-149368933D01*
X119203409Y-147554648D01*
X119203409Y-150094648D01*
X120412933Y-150094648D02*
X120412933Y-147554648D01*
X121622457Y-150094648D02*
X121622457Y-147554648D01*
X123073885Y-150094648D01*
X123073885Y-147554648D01*
X124283409Y-150094648D02*
X124283409Y-147554648D01*
X125492933Y-150094648D02*
X125492933Y-147554648D01*
X126339600Y-149368933D01*
X127186266Y-147554648D01*
X127186266Y-150094648D01*
X128395790Y-147554648D02*
X128395790Y-149610838D01*
X128516742Y-149852743D01*
X128637695Y-149973695D01*
X128879599Y-150094648D01*
X129363409Y-150094648D01*
X129605314Y-149973695D01*
X129726266Y-149852743D01*
X129847218Y-149610838D01*
X129847218Y-147554648D01*
X131056742Y-150094648D02*
X131056742Y-147554648D01*
X131903409Y-149368933D01*
X132750075Y-147554648D01*
X132750075Y-150094648D01*
X135894837Y-150094648D02*
X135894837Y-147554648D01*
X135894837Y-148764171D02*
X137346265Y-148764171D01*
X137346265Y-150094648D02*
X137346265Y-147554648D01*
X139039598Y-147554648D02*
X139523408Y-147554648D01*
X139765313Y-147675600D01*
X140007217Y-147917505D01*
X140128170Y-148401314D01*
X140128170Y-149247981D01*
X140007217Y-149731790D01*
X139765313Y-149973695D01*
X139523408Y-150094648D01*
X139039598Y-150094648D01*
X138797694Y-149973695D01*
X138555789Y-149731790D01*
X138434837Y-149247981D01*
X138434837Y-148401314D01*
X138555789Y-147917505D01*
X138797694Y-147675600D01*
X139039598Y-147554648D01*
X142426265Y-150094648D02*
X141216741Y-150094648D01*
X141216741Y-147554648D01*
X143272931Y-148764171D02*
X144119598Y-148764171D01*
X144482455Y-150094648D02*
X143272931Y-150094648D01*
X143272931Y-147554648D01*
X144482455Y-147554648D01*
X147506264Y-150094648D02*
X147506264Y-147554648D01*
X148111026Y-147554648D01*
X148473883Y-147675600D01*
X148715788Y-147917505D01*
X148836740Y-148159410D01*
X148957692Y-148643219D01*
X148957692Y-149006076D01*
X148836740Y-149489886D01*
X148715788Y-149731790D01*
X148473883Y-149973695D01*
X148111026Y-150094648D01*
X147506264Y-150094648D01*
X150046264Y-150094648D02*
X150046264Y-147554648D01*
X151134836Y-149368933D02*
X152344359Y-149368933D01*
X150892931Y-150094648D02*
X151739597Y-147554648D01*
X152586264Y-150094648D01*
X155368169Y-149127029D02*
X157303407Y-149127029D01*
X160931978Y-147554648D02*
X161173883Y-147554648D01*
X161415788Y-147675600D01*
X161536740Y-147796552D01*
X161657693Y-148038457D01*
X161778645Y-148522267D01*
X161778645Y-149127029D01*
X161657693Y-149610838D01*
X161536740Y-149852743D01*
X161415788Y-149973695D01*
X161173883Y-150094648D01*
X160931978Y-150094648D01*
X160690074Y-149973695D01*
X160569121Y-149852743D01*
X160448169Y-149610838D01*
X160327217Y-149127029D01*
X160327217Y-148522267D01*
X160448169Y-148038457D01*
X160569121Y-147796552D01*
X160690074Y-147675600D01*
X160931978Y-147554648D01*
X162867217Y-149852743D02*
X162988169Y-149973695D01*
X162867217Y-150094648D01*
X162746265Y-149973695D01*
X162867217Y-149852743D01*
X162867217Y-150094648D01*
X164560550Y-147554648D02*
X164802455Y-147554648D01*
X165044360Y-147675600D01*
X165165312Y-147796552D01*
X165286265Y-148038457D01*
X165407217Y-148522267D01*
X165407217Y-149127029D01*
X165286265Y-149610838D01*
X165165312Y-149852743D01*
X165044360Y-149973695D01*
X164802455Y-150094648D01*
X164560550Y-150094648D01*
X164318646Y-149973695D01*
X164197693Y-149852743D01*
X164076741Y-149610838D01*
X163955789Y-149127029D01*
X163955789Y-148522267D01*
X164076741Y-148038457D01*
X164197693Y-147796552D01*
X164318646Y-147675600D01*
X164560550Y-147554648D01*
X167826265Y-150094648D02*
X166374837Y-150094648D01*
X167100551Y-150094648D02*
X167100551Y-147554648D01*
X166858646Y-147917505D01*
X166616741Y-148159410D01*
X166374837Y-148280362D01*
X168672932Y-147554648D02*
X170245313Y-147554648D01*
X169398646Y-148522267D01*
X169761504Y-148522267D01*
X170003408Y-148643219D01*
X170124361Y-148764171D01*
X170245313Y-149006076D01*
X170245313Y-149610838D01*
X170124361Y-149852743D01*
X170003408Y-149973695D01*
X169761504Y-150094648D01*
X169035789Y-150094648D01*
X168793885Y-149973695D01*
X168672932Y-149852743D01*
X173269123Y-150094648D02*
X173269123Y-147554648D01*
X174478647Y-150094648D02*
X174478647Y-147554648D01*
X175930075Y-150094648D01*
X175930075Y-147554648D01*
X178591027Y-149852743D02*
X178470075Y-149973695D01*
X178107218Y-150094648D01*
X177865313Y-150094648D01*
X177502456Y-149973695D01*
X177260551Y-149731790D01*
X177139599Y-149489886D01*
X177018647Y-149006076D01*
X177018647Y-148643219D01*
X177139599Y-148159410D01*
X177260551Y-147917505D01*
X177502456Y-147675600D01*
X177865313Y-147554648D01*
X178107218Y-147554648D01*
X178470075Y-147675600D01*
X178591027Y-147796552D01*
X179679599Y-150094648D02*
X179679599Y-147554648D01*
X179679599Y-148764171D02*
X181131027Y-148764171D01*
X181131027Y-150094648D02*
X181131027Y-147554648D01*
X182340551Y-149852743D02*
X182461503Y-149973695D01*
X182340551Y-150094648D01*
X182219599Y-149973695D01*
X182340551Y-149852743D01*
X182340551Y-150094648D01*
X113034838Y-154158648D02*
X111583410Y-154158648D01*
X112309124Y-154158648D02*
X112309124Y-151618648D01*
X112067219Y-151981505D01*
X111825314Y-152223410D01*
X111583410Y-152344362D01*
X114607219Y-151618648D02*
X114849124Y-151618648D01*
X115091029Y-151739600D01*
X115211981Y-151860552D01*
X115332934Y-152102457D01*
X115453886Y-152586267D01*
X115453886Y-153191029D01*
X115332934Y-153674838D01*
X115211981Y-153916743D01*
X115091029Y-154037695D01*
X114849124Y-154158648D01*
X114607219Y-154158648D01*
X114365315Y-154037695D01*
X114244362Y-153916743D01*
X114123410Y-153674838D01*
X114002458Y-153191029D01*
X114002458Y-152586267D01*
X114123410Y-152102457D01*
X114244362Y-151860552D01*
X114365315Y-151739600D01*
X114607219Y-151618648D01*
X116542458Y-153916743D02*
X116663410Y-154037695D01*
X116542458Y-154158648D01*
X116421506Y-154037695D01*
X116542458Y-153916743D01*
X116542458Y-154158648D01*
X119687220Y-154158648D02*
X119687220Y-151618648D01*
X120533887Y-153432933D01*
X121380553Y-151618648D01*
X121380553Y-154158648D01*
X122469125Y-153432933D02*
X123678648Y-153432933D01*
X122227220Y-154158648D02*
X123073886Y-151618648D01*
X123920553Y-154158648D01*
X124525315Y-151618648D02*
X126218648Y-154158648D01*
X126218648Y-151618648D02*
X124525315Y-154158648D01*
X129121506Y-154158648D02*
X129121506Y-151618648D01*
X129121506Y-152828171D02*
X130572934Y-152828171D01*
X130572934Y-154158648D02*
X130572934Y-151618648D01*
X132266267Y-151618648D02*
X132750077Y-151618648D01*
X132991982Y-151739600D01*
X133233886Y-151981505D01*
X133354839Y-152465314D01*
X133354839Y-153311981D01*
X133233886Y-153795790D01*
X132991982Y-154037695D01*
X132750077Y-154158648D01*
X132266267Y-154158648D01*
X132024363Y-154037695D01*
X131782458Y-153795790D01*
X131661506Y-153311981D01*
X131661506Y-152465314D01*
X131782458Y-151981505D01*
X132024363Y-151739600D01*
X132266267Y-151618648D01*
X135652934Y-154158648D02*
X134443410Y-154158648D01*
X134443410Y-151618648D01*
X136499600Y-152828171D02*
X137346267Y-152828171D01*
X137709124Y-154158648D02*
X136499600Y-154158648D01*
X136499600Y-151618648D01*
X137709124Y-151618648D01*
X140732933Y-154158648D02*
X140732933Y-151618648D01*
X141700552Y-151618648D01*
X141942457Y-151739600D01*
X142063409Y-151860552D01*
X142184361Y-152102457D01*
X142184361Y-152465314D01*
X142063409Y-152707219D01*
X141942457Y-152828171D01*
X141700552Y-152949124D01*
X140732933Y-152949124D01*
X144482457Y-154158648D02*
X143272933Y-154158648D01*
X143272933Y-151618648D01*
X145208171Y-153432933D02*
X146417694Y-153432933D01*
X144966266Y-154158648D02*
X145812932Y-151618648D01*
X146659599Y-154158648D01*
X148957694Y-153916743D02*
X148836742Y-154037695D01*
X148473885Y-154158648D01*
X148231980Y-154158648D01*
X147869123Y-154037695D01*
X147627218Y-153795790D01*
X147506266Y-153553886D01*
X147385314Y-153070076D01*
X147385314Y-152707219D01*
X147506266Y-152223410D01*
X147627218Y-151981505D01*
X147869123Y-151739600D01*
X148231980Y-151618648D01*
X148473885Y-151618648D01*
X148836742Y-151739600D01*
X148957694Y-151860552D01*
X150046266Y-152828171D02*
X150892933Y-152828171D01*
X151255790Y-154158648D02*
X150046266Y-154158648D01*
X150046266Y-151618648D01*
X151255790Y-151618648D01*
X152344361Y-154158648D02*
X152344361Y-151618648D01*
X153191028Y-153432933D01*
X154037694Y-151618648D01*
X154037694Y-154158648D01*
X155247218Y-152828171D02*
X156093885Y-152828171D01*
X156456742Y-154158648D02*
X155247218Y-154158648D01*
X155247218Y-151618648D01*
X156456742Y-151618648D01*
X157545313Y-154158648D02*
X157545313Y-151618648D01*
X158996741Y-154158648D01*
X158996741Y-151618648D01*
X159843408Y-151618648D02*
X161294836Y-151618648D01*
X160569122Y-154158648D02*
X160569122Y-151618648D01*
X163713884Y-151618648D02*
X165165312Y-151618648D01*
X164439598Y-154158648D02*
X164439598Y-151618648D01*
X166495788Y-151618648D02*
X166979598Y-151618648D01*
X167221503Y-151739600D01*
X167463407Y-151981505D01*
X167584360Y-152465314D01*
X167584360Y-153311981D01*
X167463407Y-153795790D01*
X167221503Y-154037695D01*
X166979598Y-154158648D01*
X166495788Y-154158648D01*
X166253884Y-154037695D01*
X166011979Y-153795790D01*
X165891027Y-153311981D01*
X165891027Y-152465314D01*
X166011979Y-151981505D01*
X166253884Y-151739600D01*
X166495788Y-151618648D01*
X169882455Y-154158648D02*
X168672931Y-154158648D01*
X168672931Y-151618648D01*
X170729121Y-152828171D02*
X171575788Y-152828171D01*
X171938645Y-154158648D02*
X170729121Y-154158648D01*
X170729121Y-151618648D01*
X171938645Y-151618648D01*
X174478644Y-154158648D02*
X173631978Y-152949124D01*
X173027216Y-154158648D02*
X173027216Y-151618648D01*
X173994835Y-151618648D01*
X174236740Y-151739600D01*
X174357692Y-151860552D01*
X174478644Y-152102457D01*
X174478644Y-152465314D01*
X174357692Y-152707219D01*
X174236740Y-152828171D01*
X173994835Y-152949124D01*
X173027216Y-152949124D01*
X175446264Y-153432933D02*
X176655787Y-153432933D01*
X175204359Y-154158648D02*
X176051025Y-151618648D01*
X176897692Y-154158648D01*
X177744359Y-154158648D02*
X177744359Y-151618648D01*
X179195787Y-154158648D01*
X179195787Y-151618648D01*
X181856739Y-153916743D02*
X181735787Y-154037695D01*
X181372930Y-154158648D01*
X181131025Y-154158648D01*
X180768168Y-154037695D01*
X180526263Y-153795790D01*
X180405311Y-153553886D01*
X180284359Y-153070076D01*
X180284359Y-152707219D01*
X180405311Y-152223410D01*
X180526263Y-151981505D01*
X180768168Y-151739600D01*
X181131025Y-151618648D01*
X181372930Y-151618648D01*
X181735787Y-151739600D01*
X181856739Y-151860552D01*
X182945311Y-152828171D02*
X183791978Y-152828171D01*
X184154835Y-154158648D02*
X182945311Y-154158648D01*
X182945311Y-151618648D01*
X184154835Y-151618648D01*
X187662453Y-151618648D02*
X188146263Y-151618648D01*
X188388168Y-151739600D01*
X188630072Y-151981505D01*
X188751025Y-152465314D01*
X188751025Y-153311981D01*
X188630072Y-153795790D01*
X188388168Y-154037695D01*
X188146263Y-154158648D01*
X187662453Y-154158648D01*
X187420549Y-154037695D01*
X187178644Y-153795790D01*
X187057692Y-153311981D01*
X187057692Y-152465314D01*
X187178644Y-151981505D01*
X187420549Y-151739600D01*
X187662453Y-151618648D01*
X190686263Y-152828171D02*
X189839596Y-152828171D01*
X189839596Y-154158648D02*
X189839596Y-151618648D01*
X191049120Y-151618648D01*
X193951977Y-153191029D02*
X195887215Y-153191029D01*
X194919596Y-154158648D02*
X194919596Y-152223410D01*
X198911025Y-151497695D02*
X196733882Y-154763410D01*
X199757691Y-153191029D02*
X201692929Y-153191029D01*
X205321500Y-151618648D02*
X205563405Y-151618648D01*
X205805310Y-151739600D01*
X205926262Y-151860552D01*
X206047215Y-152102457D01*
X206168167Y-152586267D01*
X206168167Y-153191029D01*
X206047215Y-153674838D01*
X205926262Y-153916743D01*
X205805310Y-154037695D01*
X205563405Y-154158648D01*
X205321500Y-154158648D01*
X205079596Y-154037695D01*
X204958643Y-153916743D01*
X204837691Y-153674838D01*
X204716739Y-153191029D01*
X204716739Y-152586267D01*
X204837691Y-152102457D01*
X204958643Y-151860552D01*
X205079596Y-151739600D01*
X205321500Y-151618648D01*
X207256739Y-153916743D02*
X207377691Y-154037695D01*
X207256739Y-154158648D01*
X207135787Y-154037695D01*
X207256739Y-153916743D01*
X207256739Y-154158648D01*
X208950072Y-151618648D02*
X209191977Y-151618648D01*
X209433882Y-151739600D01*
X209554834Y-151860552D01*
X209675787Y-152102457D01*
X209796739Y-152586267D01*
X209796739Y-153191029D01*
X209675787Y-153674838D01*
X209554834Y-153916743D01*
X209433882Y-154037695D01*
X209191977Y-154158648D01*
X208950072Y-154158648D01*
X208708168Y-154037695D01*
X208587215Y-153916743D01*
X208466263Y-153674838D01*
X208345311Y-153191029D01*
X208345311Y-152586267D01*
X208466263Y-152102457D01*
X208587215Y-151860552D01*
X208708168Y-151739600D01*
X208950072Y-151618648D01*
X211369120Y-151618648D02*
X211611025Y-151618648D01*
X211852930Y-151739600D01*
X211973882Y-151860552D01*
X212094835Y-152102457D01*
X212215787Y-152586267D01*
X212215787Y-153191029D01*
X212094835Y-153674838D01*
X211973882Y-153916743D01*
X211852930Y-154037695D01*
X211611025Y-154158648D01*
X211369120Y-154158648D01*
X211127216Y-154037695D01*
X211006263Y-153916743D01*
X210885311Y-153674838D01*
X210764359Y-153191029D01*
X210764359Y-152586267D01*
X210885311Y-152102457D01*
X211006263Y-151860552D01*
X211127216Y-151739600D01*
X211369120Y-151618648D01*
X213062454Y-151618648D02*
X214634835Y-151618648D01*
X213788168Y-152586267D01*
X214151026Y-152586267D01*
X214392930Y-152707219D01*
X214513883Y-152828171D01*
X214634835Y-153070076D01*
X214634835Y-153674838D01*
X214513883Y-153916743D01*
X214392930Y-154037695D01*
X214151026Y-154158648D01*
X213425311Y-154158648D01*
X213183407Y-154037695D01*
X213062454Y-153916743D01*
X217658645Y-154158648D02*
X217658645Y-151618648D01*
X218868169Y-154158648D02*
X218868169Y-151618648D01*
X220319597Y-154158648D01*
X220319597Y-151618648D01*
X222980549Y-153916743D02*
X222859597Y-154037695D01*
X222496740Y-154158648D01*
X222254835Y-154158648D01*
X221891978Y-154037695D01*
X221650073Y-153795790D01*
X221529121Y-153553886D01*
X221408169Y-153070076D01*
X221408169Y-152707219D01*
X221529121Y-152223410D01*
X221650073Y-151981505D01*
X221891978Y-151739600D01*
X222254835Y-151618648D01*
X222496740Y-151618648D01*
X222859597Y-151739600D01*
X222980549Y-151860552D01*
X224069121Y-154158648D02*
X224069121Y-151618648D01*
X224069121Y-152828171D02*
X225520549Y-152828171D01*
X225520549Y-154158648D02*
X225520549Y-151618648D01*
X226730073Y-153916743D02*
X226851025Y-154037695D01*
X226730073Y-154158648D01*
X226609121Y-154037695D01*
X226730073Y-153916743D01*
X226730073Y-154158648D01*
X113034838Y-158222648D02*
X111583410Y-158222648D01*
X112309124Y-158222648D02*
X112309124Y-155682648D01*
X112067219Y-156045505D01*
X111825314Y-156287410D01*
X111583410Y-156408362D01*
X115453886Y-158222648D02*
X114002458Y-158222648D01*
X114728172Y-158222648D02*
X114728172Y-155682648D01*
X114486267Y-156045505D01*
X114244362Y-156287410D01*
X114002458Y-156408362D01*
X116542458Y-157980743D02*
X116663410Y-158101695D01*
X116542458Y-158222648D01*
X116421506Y-158101695D01*
X116542458Y-157980743D01*
X116542458Y-158222648D01*
X119687220Y-158222648D02*
X119687220Y-155682648D01*
X120533887Y-157496933D01*
X121380553Y-155682648D01*
X121380553Y-158222648D01*
X122469125Y-157496933D02*
X123678648Y-157496933D01*
X122227220Y-158222648D02*
X123073886Y-155682648D01*
X123920553Y-158222648D01*
X124525315Y-155682648D02*
X126218648Y-158222648D01*
X126218648Y-155682648D02*
X124525315Y-158222648D01*
X129121506Y-158222648D02*
X129121506Y-155682648D01*
X129121506Y-156892171D02*
X130572934Y-156892171D01*
X130572934Y-158222648D02*
X130572934Y-155682648D01*
X132266267Y-155682648D02*
X132750077Y-155682648D01*
X132991982Y-155803600D01*
X133233886Y-156045505D01*
X133354839Y-156529314D01*
X133354839Y-157375981D01*
X133233886Y-157859790D01*
X132991982Y-158101695D01*
X132750077Y-158222648D01*
X132266267Y-158222648D01*
X132024363Y-158101695D01*
X131782458Y-157859790D01*
X131661506Y-157375981D01*
X131661506Y-156529314D01*
X131782458Y-156045505D01*
X132024363Y-155803600D01*
X132266267Y-155682648D01*
X135652934Y-158222648D02*
X134443410Y-158222648D01*
X134443410Y-155682648D01*
X136499600Y-156892171D02*
X137346267Y-156892171D01*
X137709124Y-158222648D02*
X136499600Y-158222648D01*
X136499600Y-155682648D01*
X137709124Y-155682648D01*
X140732933Y-158222648D02*
X140732933Y-155682648D01*
X141337695Y-155682648D01*
X141700552Y-155803600D01*
X141942457Y-156045505D01*
X142063409Y-156287410D01*
X142184361Y-156771219D01*
X142184361Y-157134076D01*
X142063409Y-157617886D01*
X141942457Y-157859790D01*
X141700552Y-158101695D01*
X141337695Y-158222648D01*
X140732933Y-158222648D01*
X143272933Y-158222648D02*
X143272933Y-155682648D01*
X144361505Y-157496933D02*
X145571028Y-157496933D01*
X144119600Y-158222648D02*
X144966266Y-155682648D01*
X145812933Y-158222648D01*
X146659600Y-158222648D02*
X146659600Y-155682648D01*
X147506267Y-157496933D01*
X148352933Y-155682648D01*
X148352933Y-158222648D01*
X149562457Y-156892171D02*
X150409124Y-156892171D01*
X150771981Y-158222648D02*
X149562457Y-158222648D01*
X149562457Y-155682648D01*
X150771981Y-155682648D01*
X151497695Y-155682648D02*
X152949123Y-155682648D01*
X152223409Y-158222648D02*
X152223409Y-155682648D01*
X153795790Y-156892171D02*
X154642457Y-156892171D01*
X155005314Y-158222648D02*
X153795790Y-158222648D01*
X153795790Y-155682648D01*
X155005314Y-155682648D01*
X157545313Y-158222648D02*
X156698647Y-157013124D01*
X156093885Y-158222648D02*
X156093885Y-155682648D01*
X157061504Y-155682648D01*
X157303409Y-155803600D01*
X157424361Y-155924552D01*
X157545313Y-156166457D01*
X157545313Y-156529314D01*
X157424361Y-156771219D01*
X157303409Y-156892171D01*
X157061504Y-157013124D01*
X156093885Y-157013124D01*
X160206266Y-155682648D02*
X161657694Y-155682648D01*
X160931980Y-158222648D02*
X160931980Y-155682648D01*
X162988170Y-155682648D02*
X163471980Y-155682648D01*
X163713885Y-155803600D01*
X163955789Y-156045505D01*
X164076742Y-156529314D01*
X164076742Y-157375981D01*
X163955789Y-157859790D01*
X163713885Y-158101695D01*
X163471980Y-158222648D01*
X162988170Y-158222648D01*
X162746266Y-158101695D01*
X162504361Y-157859790D01*
X162383409Y-157375981D01*
X162383409Y-156529314D01*
X162504361Y-156045505D01*
X162746266Y-155803600D01*
X162988170Y-155682648D01*
X166374837Y-158222648D02*
X165165313Y-158222648D01*
X165165313Y-155682648D01*
X167221503Y-156892171D02*
X168068170Y-156892171D01*
X168431027Y-158222648D02*
X167221503Y-158222648D01*
X167221503Y-155682648D01*
X168431027Y-155682648D01*
X170971026Y-158222648D02*
X170124360Y-157013124D01*
X169519598Y-158222648D02*
X169519598Y-155682648D01*
X170487217Y-155682648D01*
X170729122Y-155803600D01*
X170850074Y-155924552D01*
X170971026Y-156166457D01*
X170971026Y-156529314D01*
X170850074Y-156771219D01*
X170729122Y-156892171D01*
X170487217Y-157013124D01*
X169519598Y-157013124D01*
X171938646Y-157496933D02*
X173148169Y-157496933D01*
X171696741Y-158222648D02*
X172543407Y-155682648D01*
X173390074Y-158222648D01*
X174236741Y-158222648D02*
X174236741Y-155682648D01*
X175688169Y-158222648D01*
X175688169Y-155682648D01*
X178349121Y-157980743D02*
X178228169Y-158101695D01*
X177865312Y-158222648D01*
X177623407Y-158222648D01*
X177260550Y-158101695D01*
X177018645Y-157859790D01*
X176897693Y-157617886D01*
X176776741Y-157134076D01*
X176776741Y-156771219D01*
X176897693Y-156287410D01*
X177018645Y-156045505D01*
X177260550Y-155803600D01*
X177623407Y-155682648D01*
X177865312Y-155682648D01*
X178228169Y-155803600D01*
X178349121Y-155924552D01*
X179437693Y-156892171D02*
X180284360Y-156892171D01*
X180647217Y-158222648D02*
X179437693Y-158222648D01*
X179437693Y-155682648D01*
X180647217Y-155682648D01*
X184154835Y-155682648D02*
X184638645Y-155682648D01*
X184880550Y-155803600D01*
X185122454Y-156045505D01*
X185243407Y-156529314D01*
X185243407Y-157375981D01*
X185122454Y-157859790D01*
X184880550Y-158101695D01*
X184638645Y-158222648D01*
X184154835Y-158222648D01*
X183912931Y-158101695D01*
X183671026Y-157859790D01*
X183550074Y-157375981D01*
X183550074Y-156529314D01*
X183671026Y-156045505D01*
X183912931Y-155803600D01*
X184154835Y-155682648D01*
X187178645Y-156892171D02*
X186331978Y-156892171D01*
X186331978Y-158222648D02*
X186331978Y-155682648D01*
X187541502Y-155682648D01*
X190444359Y-157255029D02*
X192379597Y-157255029D01*
X191411978Y-158222648D02*
X191411978Y-156287410D01*
X195403407Y-155561695D02*
X193226264Y-158827410D01*
X196250073Y-157255029D02*
X198185311Y-157255029D01*
X201813882Y-155682648D02*
X202055787Y-155682648D01*
X202297692Y-155803600D01*
X202418644Y-155924552D01*
X202539597Y-156166457D01*
X202660549Y-156650267D01*
X202660549Y-157255029D01*
X202539597Y-157738838D01*
X202418644Y-157980743D01*
X202297692Y-158101695D01*
X202055787Y-158222648D01*
X201813882Y-158222648D01*
X201571978Y-158101695D01*
X201451025Y-157980743D01*
X201330073Y-157738838D01*
X201209121Y-157255029D01*
X201209121Y-156650267D01*
X201330073Y-156166457D01*
X201451025Y-155924552D01*
X201571978Y-155803600D01*
X201813882Y-155682648D01*
X203749121Y-157980743D02*
X203870073Y-158101695D01*
X203749121Y-158222648D01*
X203628169Y-158101695D01*
X203749121Y-157980743D01*
X203749121Y-158222648D01*
X205442454Y-155682648D02*
X205684359Y-155682648D01*
X205926264Y-155803600D01*
X206047216Y-155924552D01*
X206168169Y-156166457D01*
X206289121Y-156650267D01*
X206289121Y-157255029D01*
X206168169Y-157738838D01*
X206047216Y-157980743D01*
X205926264Y-158101695D01*
X205684359Y-158222648D01*
X205442454Y-158222648D01*
X205200550Y-158101695D01*
X205079597Y-157980743D01*
X204958645Y-157738838D01*
X204837693Y-157255029D01*
X204837693Y-156650267D01*
X204958645Y-156166457D01*
X205079597Y-155924552D01*
X205200550Y-155803600D01*
X205442454Y-155682648D01*
X207861502Y-155682648D02*
X208103407Y-155682648D01*
X208345312Y-155803600D01*
X208466264Y-155924552D01*
X208587217Y-156166457D01*
X208708169Y-156650267D01*
X208708169Y-157255029D01*
X208587217Y-157738838D01*
X208466264Y-157980743D01*
X208345312Y-158101695D01*
X208103407Y-158222648D01*
X207861502Y-158222648D01*
X207619598Y-158101695D01*
X207498645Y-157980743D01*
X207377693Y-157738838D01*
X207256741Y-157255029D01*
X207256741Y-156650267D01*
X207377693Y-156166457D01*
X207498645Y-155924552D01*
X207619598Y-155803600D01*
X207861502Y-155682648D01*
X209554836Y-155682648D02*
X211127217Y-155682648D01*
X210280550Y-156650267D01*
X210643408Y-156650267D01*
X210885312Y-156771219D01*
X211006265Y-156892171D01*
X211127217Y-157134076D01*
X211127217Y-157738838D01*
X211006265Y-157980743D01*
X210885312Y-158101695D01*
X210643408Y-158222648D01*
X209917693Y-158222648D01*
X209675789Y-158101695D01*
X209554836Y-157980743D01*
X214151027Y-158222648D02*
X214151027Y-155682648D01*
X215360551Y-158222648D02*
X215360551Y-155682648D01*
X216811979Y-158222648D01*
X216811979Y-155682648D01*
X219472931Y-157980743D02*
X219351979Y-158101695D01*
X218989122Y-158222648D01*
X218747217Y-158222648D01*
X218384360Y-158101695D01*
X218142455Y-157859790D01*
X218021503Y-157617886D01*
X217900551Y-157134076D01*
X217900551Y-156771219D01*
X218021503Y-156287410D01*
X218142455Y-156045505D01*
X218384360Y-155803600D01*
X218747217Y-155682648D01*
X218989122Y-155682648D01*
X219351979Y-155803600D01*
X219472931Y-155924552D01*
X220561503Y-158222648D02*
X220561503Y-155682648D01*
X220561503Y-156892171D02*
X222012931Y-156892171D01*
X222012931Y-158222648D02*
X222012931Y-155682648D01*
X225036741Y-157496933D02*
X226246264Y-157496933D01*
X224794836Y-158222648D02*
X225641502Y-155682648D01*
X226488169Y-158222648D01*
X228181503Y-156892171D02*
X227334836Y-156892171D01*
X227334836Y-158222648D02*
X227334836Y-155682648D01*
X228544360Y-155682648D01*
X229149122Y-155682648D02*
X230600550Y-155682648D01*
X229874836Y-158222648D02*
X229874836Y-155682648D01*
X231447217Y-156892171D02*
X232293884Y-156892171D01*
X232656741Y-158222648D02*
X231447217Y-158222648D01*
X231447217Y-155682648D01*
X232656741Y-155682648D01*
X235196740Y-158222648D02*
X234350074Y-157013124D01*
X233745312Y-158222648D02*
X233745312Y-155682648D01*
X234712931Y-155682648D01*
X234954836Y-155803600D01*
X235075788Y-155924552D01*
X235196740Y-156166457D01*
X235196740Y-156529314D01*
X235075788Y-156771219D01*
X234954836Y-156892171D01*
X234712931Y-157013124D01*
X233745312Y-157013124D01*
X238220550Y-158222648D02*
X238220550Y-155682648D01*
X239188169Y-155682648D01*
X239430074Y-155803600D01*
X239551026Y-155924552D01*
X239671978Y-156166457D01*
X239671978Y-156529314D01*
X239551026Y-156771219D01*
X239430074Y-156892171D01*
X239188169Y-157013124D01*
X238220550Y-157013124D01*
X241970074Y-158222648D02*
X240760550Y-158222648D01*
X240760550Y-155682648D01*
X242695788Y-157496933D02*
X243905311Y-157496933D01*
X242453883Y-158222648D02*
X243300549Y-155682648D01*
X244147216Y-158222648D01*
X244631026Y-155682648D02*
X246082454Y-155682648D01*
X245356740Y-158222648D02*
X245356740Y-155682648D01*
X246929121Y-158222648D02*
X246929121Y-155682648D01*
X248138645Y-158222648D02*
X248138645Y-155682648D01*
X249590073Y-158222648D01*
X249590073Y-155682648D01*
X252130073Y-155803600D02*
X251888168Y-155682648D01*
X251525311Y-155682648D01*
X251162454Y-155803600D01*
X250920549Y-156045505D01*
X250799597Y-156287410D01*
X250678645Y-156771219D01*
X250678645Y-157134076D01*
X250799597Y-157617886D01*
X250920549Y-157859790D01*
X251162454Y-158101695D01*
X251525311Y-158222648D01*
X251767216Y-158222648D01*
X252130073Y-158101695D01*
X252251025Y-157980743D01*
X252251025Y-157134076D01*
X251767216Y-157134076D01*
X253339597Y-157980743D02*
X253460549Y-158101695D01*
X253339597Y-158222648D01*
X253218645Y-158101695D01*
X253339597Y-157980743D01*
X253339597Y-158222648D01*
D12*
X55388935Y-92788619D02*
X55582459Y-92788619D01*
X55679220Y-92740238D01*
X55727601Y-92691857D01*
X55824363Y-92546714D01*
X55872744Y-92353190D01*
X55872744Y-91966143D01*
X55824363Y-91869381D01*
X55775982Y-91821000D01*
X55679220Y-91772619D01*
X55485697Y-91772619D01*
X55388935Y-91821000D01*
X55340554Y-91869381D01*
X55292173Y-91966143D01*
X55292173Y-92208048D01*
X55340554Y-92304810D01*
X55388935Y-92353190D01*
X55485697Y-92401571D01*
X55679220Y-92401571D01*
X55775982Y-92353190D01*
X55824363Y-92304810D01*
X55872744Y-92208048D01*
X56743601Y-92111286D02*
X56743601Y-92788619D01*
X56501697Y-91724238D02*
X56259792Y-92449952D01*
X56888744Y-92449952D01*
X57469316Y-91772619D02*
X57566077Y-91772619D01*
X57662839Y-91821000D01*
X57711220Y-91869381D01*
X57759601Y-91966143D01*
X57807982Y-92159667D01*
X57807982Y-92401571D01*
X57759601Y-92595095D01*
X57711220Y-92691857D01*
X57662839Y-92740238D01*
X57566077Y-92788619D01*
X57469316Y-92788619D01*
X57372554Y-92740238D01*
X57324173Y-92691857D01*
X57275792Y-92595095D01*
X57227411Y-92401571D01*
X57227411Y-92159667D01*
X57275792Y-91966143D01*
X57324173Y-91869381D01*
X57372554Y-91821000D01*
X57469316Y-91772619D01*
X58243411Y-92111286D02*
X58243411Y-92788619D01*
X58243411Y-92208048D02*
X58291792Y-92159667D01*
X58388554Y-92111286D01*
X58533696Y-92111286D01*
X58630458Y-92159667D01*
X58678839Y-92256429D01*
X58678839Y-92788619D01*
X59162649Y-92788619D02*
X59162649Y-92111286D01*
X59162649Y-92208048D02*
X59211030Y-92159667D01*
X59307792Y-92111286D01*
X59452934Y-92111286D01*
X59549696Y-92159667D01*
X59598077Y-92256429D01*
X59598077Y-92788619D01*
X59598077Y-92256429D02*
X59646458Y-92159667D01*
X59743220Y-92111286D01*
X59888363Y-92111286D01*
X59985125Y-92159667D01*
X60033506Y-92256429D01*
X60033506Y-92788619D01*
X61291411Y-92788619D02*
X61291411Y-91772619D01*
X61678458Y-91772619D01*
X61775220Y-91821000D01*
X61823601Y-91869381D01*
X61871982Y-91966143D01*
X61871982Y-92111286D01*
X61823601Y-92208048D01*
X61775220Y-92256429D01*
X61678458Y-92304810D01*
X61291411Y-92304810D01*
X62307411Y-92788619D02*
X62307411Y-91772619D01*
X62742839Y-92788619D02*
X62742839Y-92256429D01*
X62694458Y-92159667D01*
X62597696Y-92111286D01*
X62452554Y-92111286D01*
X62355792Y-92159667D01*
X62307411Y-92208048D01*
X63371792Y-92788619D02*
X63275030Y-92740238D01*
X63226649Y-92691857D01*
X63178268Y-92595095D01*
X63178268Y-92304810D01*
X63226649Y-92208048D01*
X63275030Y-92159667D01*
X63371792Y-92111286D01*
X63516934Y-92111286D01*
X63613696Y-92159667D01*
X63662077Y-92208048D01*
X63710458Y-92304810D01*
X63710458Y-92595095D01*
X63662077Y-92691857D01*
X63613696Y-92740238D01*
X63516934Y-92788619D01*
X63371792Y-92788619D01*
X64000744Y-92111286D02*
X64387792Y-92111286D01*
X64145887Y-91772619D02*
X64145887Y-92643476D01*
X64194268Y-92740238D01*
X64291030Y-92788619D01*
X64387792Y-92788619D01*
X64871601Y-92788619D02*
X64774839Y-92740238D01*
X64726458Y-92691857D01*
X64678077Y-92595095D01*
X64678077Y-92304810D01*
X64726458Y-92208048D01*
X64774839Y-92159667D01*
X64871601Y-92111286D01*
X65016743Y-92111286D01*
X65113505Y-92159667D01*
X65161886Y-92208048D01*
X65210267Y-92304810D01*
X65210267Y-92595095D01*
X65161886Y-92691857D01*
X65113505Y-92740238D01*
X65016743Y-92788619D01*
X64871601Y-92788619D01*
X66081124Y-92788619D02*
X66081124Y-91772619D01*
X66081124Y-92740238D02*
X65984362Y-92788619D01*
X65790839Y-92788619D01*
X65694077Y-92740238D01*
X65645696Y-92691857D01*
X65597315Y-92595095D01*
X65597315Y-92304810D01*
X65645696Y-92208048D01*
X65694077Y-92159667D01*
X65790839Y-92111286D01*
X65984362Y-92111286D01*
X66081124Y-92159667D01*
X66564934Y-92788619D02*
X66564934Y-92111286D01*
X66564934Y-91772619D02*
X66516553Y-91821000D01*
X66564934Y-91869381D01*
X66613315Y-91821000D01*
X66564934Y-91772619D01*
X66564934Y-91869381D01*
X67193887Y-92788619D02*
X67097125Y-92740238D01*
X67048744Y-92691857D01*
X67000363Y-92595095D01*
X67000363Y-92304810D01*
X67048744Y-92208048D01*
X67097125Y-92159667D01*
X67193887Y-92111286D01*
X67339029Y-92111286D01*
X67435791Y-92159667D01*
X67484172Y-92208048D01*
X67532553Y-92304810D01*
X67532553Y-92595095D01*
X67484172Y-92691857D01*
X67435791Y-92740238D01*
X67339029Y-92788619D01*
X67193887Y-92788619D01*
X68403410Y-92788619D02*
X68403410Y-91772619D01*
X68403410Y-92740238D02*
X68306648Y-92788619D01*
X68113125Y-92788619D01*
X68016363Y-92740238D01*
X67967982Y-92691857D01*
X67919601Y-92595095D01*
X67919601Y-92304810D01*
X67967982Y-92208048D01*
X68016363Y-92159667D01*
X68113125Y-92111286D01*
X68306648Y-92111286D01*
X68403410Y-92159667D01*
X69274267Y-92740238D02*
X69177505Y-92788619D01*
X68983982Y-92788619D01*
X68887220Y-92740238D01*
X68838839Y-92643476D01*
X68838839Y-92256429D01*
X68887220Y-92159667D01*
X68983982Y-92111286D01*
X69177505Y-92111286D01*
X69274267Y-92159667D01*
X69322648Y-92256429D01*
X69322648Y-92353190D01*
X68838839Y-92449952D01*
X71112743Y-92788619D02*
X70774077Y-92304810D01*
X70532172Y-92788619D02*
X70532172Y-91772619D01*
X70919219Y-91772619D01*
X71015981Y-91821000D01*
X71064362Y-91869381D01*
X71112743Y-91966143D01*
X71112743Y-92111286D01*
X71064362Y-92208048D01*
X71015981Y-92256429D01*
X70919219Y-92304810D01*
X70532172Y-92304810D01*
X71935219Y-92740238D02*
X71838457Y-92788619D01*
X71644934Y-92788619D01*
X71548172Y-92740238D01*
X71499791Y-92643476D01*
X71499791Y-92256429D01*
X71548172Y-92159667D01*
X71644934Y-92111286D01*
X71838457Y-92111286D01*
X71935219Y-92159667D01*
X71983600Y-92256429D01*
X71983600Y-92353190D01*
X71499791Y-92449952D01*
X72854457Y-92740238D02*
X72757695Y-92788619D01*
X72564172Y-92788619D01*
X72467410Y-92740238D01*
X72419029Y-92691857D01*
X72370648Y-92595095D01*
X72370648Y-92304810D01*
X72419029Y-92208048D01*
X72467410Y-92159667D01*
X72564172Y-92111286D01*
X72757695Y-92111286D01*
X72854457Y-92159667D01*
X73676933Y-92740238D02*
X73580171Y-92788619D01*
X73386648Y-92788619D01*
X73289886Y-92740238D01*
X73241505Y-92643476D01*
X73241505Y-92256429D01*
X73289886Y-92159667D01*
X73386648Y-92111286D01*
X73580171Y-92111286D01*
X73676933Y-92159667D01*
X73725314Y-92256429D01*
X73725314Y-92353190D01*
X73241505Y-92449952D01*
X74160743Y-92788619D02*
X74160743Y-92111286D01*
X74160743Y-91772619D02*
X74112362Y-91821000D01*
X74160743Y-91869381D01*
X74209124Y-91821000D01*
X74160743Y-91772619D01*
X74160743Y-91869381D01*
X74547791Y-92111286D02*
X74789696Y-92788619D01*
X75031600Y-92111286D01*
X75805695Y-92740238D02*
X75708933Y-92788619D01*
X75515410Y-92788619D01*
X75418648Y-92740238D01*
X75370267Y-92643476D01*
X75370267Y-92256429D01*
X75418648Y-92159667D01*
X75515410Y-92111286D01*
X75708933Y-92111286D01*
X75805695Y-92159667D01*
X75854076Y-92256429D01*
X75854076Y-92353190D01*
X75370267Y-92449952D01*
X76289505Y-92788619D02*
X76289505Y-92111286D01*
X76289505Y-92304810D02*
X76337886Y-92208048D01*
X76386267Y-92159667D01*
X76483029Y-92111286D01*
X76579790Y-92111286D01*
X78031218Y-92256429D02*
X78176361Y-92304810D01*
X78224742Y-92353190D01*
X78273123Y-92449952D01*
X78273123Y-92595095D01*
X78224742Y-92691857D01*
X78176361Y-92740238D01*
X78079599Y-92788619D01*
X77692552Y-92788619D01*
X77692552Y-91772619D01*
X78031218Y-91772619D01*
X78127980Y-91821000D01*
X78176361Y-91869381D01*
X78224742Y-91966143D01*
X78224742Y-92062905D01*
X78176361Y-92159667D01*
X78127980Y-92208048D01*
X78031218Y-92256429D01*
X77692552Y-92256429D01*
X78853695Y-92788619D02*
X78756933Y-92740238D01*
X78708552Y-92691857D01*
X78660171Y-92595095D01*
X78660171Y-92304810D01*
X78708552Y-92208048D01*
X78756933Y-92159667D01*
X78853695Y-92111286D01*
X78998837Y-92111286D01*
X79095599Y-92159667D01*
X79143980Y-92208048D01*
X79192361Y-92304810D01*
X79192361Y-92595095D01*
X79143980Y-92691857D01*
X79095599Y-92740238D01*
X78998837Y-92788619D01*
X78853695Y-92788619D01*
X80063218Y-92788619D02*
X80063218Y-92256429D01*
X80014837Y-92159667D01*
X79918075Y-92111286D01*
X79724552Y-92111286D01*
X79627790Y-92159667D01*
X80063218Y-92740238D02*
X79966456Y-92788619D01*
X79724552Y-92788619D01*
X79627790Y-92740238D01*
X79579409Y-92643476D01*
X79579409Y-92546714D01*
X79627790Y-92449952D01*
X79724552Y-92401571D01*
X79966456Y-92401571D01*
X80063218Y-92353190D01*
X80547028Y-92788619D02*
X80547028Y-92111286D01*
X80547028Y-92304810D02*
X80595409Y-92208048D01*
X80643790Y-92159667D01*
X80740552Y-92111286D01*
X80837313Y-92111286D01*
X81611408Y-92788619D02*
X81611408Y-91772619D01*
X81611408Y-92740238D02*
X81514646Y-92788619D01*
X81321123Y-92788619D01*
X81224361Y-92740238D01*
X81175980Y-92691857D01*
X81127599Y-92595095D01*
X81127599Y-92304810D01*
X81175980Y-92208048D01*
X81224361Y-92159667D01*
X81321123Y-92111286D01*
X81514646Y-92111286D01*
X81611408Y-92159667D01*
X82772551Y-92111286D02*
X83014456Y-92788619D01*
X83256360Y-92111286D01*
X84175598Y-92788619D02*
X83595027Y-92788619D01*
X83885313Y-92788619D02*
X83885313Y-91772619D01*
X83788551Y-91917762D01*
X83691789Y-92014524D01*
X83595027Y-92062905D01*
X84611027Y-92691857D02*
X84659408Y-92740238D01*
X84611027Y-92788619D01*
X84562646Y-92740238D01*
X84611027Y-92691857D01*
X84611027Y-92788619D01*
X85288361Y-91772619D02*
X85385122Y-91772619D01*
X85481884Y-91821000D01*
X85530265Y-91869381D01*
X85578646Y-91966143D01*
X85627027Y-92159667D01*
X85627027Y-92401571D01*
X85578646Y-92595095D01*
X85530265Y-92691857D01*
X85481884Y-92740238D01*
X85385122Y-92788619D01*
X85288361Y-92788619D01*
X85191599Y-92740238D01*
X85143218Y-92691857D01*
X85094837Y-92595095D01*
X85046456Y-92401571D01*
X85046456Y-92159667D01*
X85094837Y-91966143D01*
X85143218Y-91869381D01*
X85191599Y-91821000D01*
X85288361Y-91772619D01*
D13*
X37947695Y-92217857D02*
X39471505Y-92217857D01*
X38709600Y-92979762D02*
X38709600Y-91455952D01*
X37947695Y-102377857D02*
X39471505Y-102377857D01*
D14*
X39979600Y-97255000D02*
X39979600Y-99795000D01*
X40259600Y-94435000D02*
X40259600Y-95985000D01*
X39979600Y-97255000D02*
X37439600Y-97255000D01*
X37159600Y-95985000D02*
X37159600Y-94435000D01*
X37159600Y-94435000D02*
X40259600Y-94435000D01*
X37439600Y-97255000D02*
X37439600Y-99795000D01*
X37439600Y-99795000D02*
X39979600Y-99795000D01*
D15*
X102459600Y-99906000D02*
X102459600Y-94064000D01*
X97379600Y-99906000D02*
X102459600Y-99906000D01*
X97379600Y-94064000D02*
X97379600Y-99906000D01*
X102459600Y-94064000D02*
X97379600Y-94064000D01*
D16*
X101697600Y-100287000D02*
X98141600Y-100287000D01*
D15*
X96459600Y-99906000D02*
X96459600Y-94064000D01*
X91379600Y-99906000D02*
X96459600Y-99906000D01*
X91379600Y-94064000D02*
X91379600Y-99906000D01*
X96459600Y-94064000D02*
X91379600Y-94064000D01*
D16*
X95697600Y-100287000D02*
X92141600Y-100287000D01*
D15*
X90459600Y-99906000D02*
X90459600Y-94064000D01*
X85379600Y-99906000D02*
X90459600Y-99906000D01*
X85379600Y-94064000D02*
X85379600Y-99906000D01*
X90459600Y-94064000D02*
X85379600Y-94064000D01*
D16*
X89697600Y-100287000D02*
X86141600Y-100287000D01*
D15*
X84459600Y-99906000D02*
X84459600Y-94064000D01*
X79379600Y-99906000D02*
X84459600Y-99906000D01*
X79379600Y-94064000D02*
X79379600Y-99906000D01*
X84459600Y-94064000D02*
X79379600Y-94064000D01*
D16*
X83697600Y-100287000D02*
X80141600Y-100287000D01*
D15*
X78459600Y-99906000D02*
X78459600Y-94064000D01*
X73379600Y-99906000D02*
X78459600Y-99906000D01*
X73379600Y-94064000D02*
X73379600Y-99906000D01*
X78459600Y-94064000D02*
X73379600Y-94064000D01*
D16*
X77697600Y-100287000D02*
X74141600Y-100287000D01*
D15*
X72459600Y-99906000D02*
X72459600Y-94064000D01*
X67379600Y-99906000D02*
X72459600Y-99906000D01*
X67379600Y-94064000D02*
X67379600Y-99906000D01*
X72459600Y-94064000D02*
X67379600Y-94064000D01*
D16*
X71697600Y-100287000D02*
X68141600Y-100287000D01*
D15*
X66459600Y-99906000D02*
X66459600Y-94064000D01*
X61379600Y-99906000D02*
X66459600Y-99906000D01*
X61379600Y-94064000D02*
X61379600Y-99906000D01*
X66459600Y-94064000D02*
X61379600Y-94064000D01*
D16*
X65697600Y-100287000D02*
X62141600Y-100287000D01*
D15*
X60459600Y-99906000D02*
X60459600Y-94064000D01*
X55379600Y-99906000D02*
X60459600Y-99906000D01*
X55379600Y-94064000D02*
X55379600Y-99906000D01*
X60459600Y-94064000D02*
X55379600Y-94064000D01*
D16*
X59697600Y-100287000D02*
X56141600Y-100287000D01*
D15*
X54459600Y-99906000D02*
X54459600Y-94064000D01*
X49379600Y-99906000D02*
X54459600Y-99906000D01*
X49379600Y-94064000D02*
X49379600Y-99906000D01*
X54459600Y-94064000D02*
X49379600Y-94064000D01*
D16*
X53697600Y-100287000D02*
X50141600Y-100287000D01*
D15*
X48459600Y-99906000D02*
X48459600Y-94064000D01*
X43379600Y-99906000D02*
X48459600Y-99906000D01*
X43379600Y-94064000D02*
X43379600Y-99906000D01*
X48459600Y-94064000D02*
X43379600Y-94064000D01*
D16*
X47697600Y-100287000D02*
X44141600Y-100287000D01*
D14*
X98197362Y-101755381D02*
X97721171Y-101755381D01*
X97721171Y-100755381D01*
X98530695Y-101231571D02*
X98864029Y-101231571D01*
X99006886Y-101755381D02*
X98530695Y-101755381D01*
X98530695Y-100755381D01*
X99006886Y-100755381D01*
X99435457Y-101755381D02*
X99435457Y-100755381D01*
X99673552Y-100755381D01*
X99816410Y-100803000D01*
X99911648Y-100898238D01*
X99959267Y-100993476D01*
X100006886Y-101183952D01*
X100006886Y-101326810D01*
X99959267Y-101517286D01*
X99911648Y-101612524D01*
X99816410Y-101707762D01*
X99673552Y-101755381D01*
X99435457Y-101755381D01*
X100959267Y-101755381D02*
X100387838Y-101755381D01*
X100673552Y-101755381D02*
X100673552Y-100755381D01*
X100578314Y-100898238D01*
X100483076Y-100993476D01*
X100387838Y-101041095D01*
X101578314Y-100755381D02*
X101673553Y-100755381D01*
X101768791Y-100803000D01*
X101816410Y-100850619D01*
X101864029Y-100945857D01*
X101911648Y-101136333D01*
X101911648Y-101374429D01*
X101864029Y-101564905D01*
X101816410Y-101660143D01*
X101768791Y-101707762D01*
X101673553Y-101755381D01*
X101578314Y-101755381D01*
X101483076Y-101707762D01*
X101435457Y-101660143D01*
X101387838Y-101564905D01*
X101340219Y-101374429D01*
X101340219Y-101136333D01*
X101387838Y-100945857D01*
X101435457Y-100850619D01*
X101483076Y-100803000D01*
X101578314Y-100755381D01*
X92673553Y-101755381D02*
X92197362Y-101755381D01*
X92197362Y-100755381D01*
X93006886Y-101231571D02*
X93340220Y-101231571D01*
X93483077Y-101755381D02*
X93006886Y-101755381D01*
X93006886Y-100755381D01*
X93483077Y-100755381D01*
X93911648Y-101755381D02*
X93911648Y-100755381D01*
X94149743Y-100755381D01*
X94292601Y-100803000D01*
X94387839Y-100898238D01*
X94435458Y-100993476D01*
X94483077Y-101183952D01*
X94483077Y-101326810D01*
X94435458Y-101517286D01*
X94387839Y-101612524D01*
X94292601Y-101707762D01*
X94149743Y-101755381D01*
X93911648Y-101755381D01*
X94959267Y-101755381D02*
X95149743Y-101755381D01*
X95244982Y-101707762D01*
X95292601Y-101660143D01*
X95387839Y-101517286D01*
X95435458Y-101326810D01*
X95435458Y-100945857D01*
X95387839Y-100850619D01*
X95340220Y-100803000D01*
X95244982Y-100755381D01*
X95054505Y-100755381D01*
X94959267Y-100803000D01*
X94911648Y-100850619D01*
X94864029Y-100945857D01*
X94864029Y-101183952D01*
X94911648Y-101279190D01*
X94959267Y-101326810D01*
X95054505Y-101374429D01*
X95244982Y-101374429D01*
X95340220Y-101326810D01*
X95387839Y-101279190D01*
X95435458Y-101183952D01*
X86673553Y-101755381D02*
X86197362Y-101755381D01*
X86197362Y-100755381D01*
X87006886Y-101231571D02*
X87340220Y-101231571D01*
X87483077Y-101755381D02*
X87006886Y-101755381D01*
X87006886Y-100755381D01*
X87483077Y-100755381D01*
X87911648Y-101755381D02*
X87911648Y-100755381D01*
X88149743Y-100755381D01*
X88292601Y-100803000D01*
X88387839Y-100898238D01*
X88435458Y-100993476D01*
X88483077Y-101183952D01*
X88483077Y-101326810D01*
X88435458Y-101517286D01*
X88387839Y-101612524D01*
X88292601Y-101707762D01*
X88149743Y-101755381D01*
X87911648Y-101755381D01*
X89054505Y-101183952D02*
X88959267Y-101136333D01*
X88911648Y-101088714D01*
X88864029Y-100993476D01*
X88864029Y-100945857D01*
X88911648Y-100850619D01*
X88959267Y-100803000D01*
X89054505Y-100755381D01*
X89244982Y-100755381D01*
X89340220Y-100803000D01*
X89387839Y-100850619D01*
X89435458Y-100945857D01*
X89435458Y-100993476D01*
X89387839Y-101088714D01*
X89340220Y-101136333D01*
X89244982Y-101183952D01*
X89054505Y-101183952D01*
X88959267Y-101231571D01*
X88911648Y-101279190D01*
X88864029Y-101374429D01*
X88864029Y-101564905D01*
X88911648Y-101660143D01*
X88959267Y-101707762D01*
X89054505Y-101755381D01*
X89244982Y-101755381D01*
X89340220Y-101707762D01*
X89387839Y-101660143D01*
X89435458Y-101564905D01*
X89435458Y-101374429D01*
X89387839Y-101279190D01*
X89340220Y-101231571D01*
X89244982Y-101183952D01*
X80673553Y-101755381D02*
X80197362Y-101755381D01*
X80197362Y-100755381D01*
X81006886Y-101231571D02*
X81340220Y-101231571D01*
X81483077Y-101755381D02*
X81006886Y-101755381D01*
X81006886Y-100755381D01*
X81483077Y-100755381D01*
X81911648Y-101755381D02*
X81911648Y-100755381D01*
X82149743Y-100755381D01*
X82292601Y-100803000D01*
X82387839Y-100898238D01*
X82435458Y-100993476D01*
X82483077Y-101183952D01*
X82483077Y-101326810D01*
X82435458Y-101517286D01*
X82387839Y-101612524D01*
X82292601Y-101707762D01*
X82149743Y-101755381D01*
X81911648Y-101755381D01*
X82816410Y-100755381D02*
X83483077Y-100755381D01*
X83054505Y-101755381D01*
X74673553Y-101755381D02*
X74197362Y-101755381D01*
X74197362Y-100755381D01*
X75006886Y-101231571D02*
X75340220Y-101231571D01*
X75483077Y-101755381D02*
X75006886Y-101755381D01*
X75006886Y-100755381D01*
X75483077Y-100755381D01*
X75911648Y-101755381D02*
X75911648Y-100755381D01*
X76149743Y-100755381D01*
X76292601Y-100803000D01*
X76387839Y-100898238D01*
X76435458Y-100993476D01*
X76483077Y-101183952D01*
X76483077Y-101326810D01*
X76435458Y-101517286D01*
X76387839Y-101612524D01*
X76292601Y-101707762D01*
X76149743Y-101755381D01*
X75911648Y-101755381D01*
X77340220Y-100755381D02*
X77149743Y-100755381D01*
X77054505Y-100803000D01*
X77006886Y-100850619D01*
X76911648Y-100993476D01*
X76864029Y-101183952D01*
X76864029Y-101564905D01*
X76911648Y-101660143D01*
X76959267Y-101707762D01*
X77054505Y-101755381D01*
X77244982Y-101755381D01*
X77340220Y-101707762D01*
X77387839Y-101660143D01*
X77435458Y-101564905D01*
X77435458Y-101326810D01*
X77387839Y-101231571D01*
X77340220Y-101183952D01*
X77244982Y-101136333D01*
X77054505Y-101136333D01*
X76959267Y-101183952D01*
X76911648Y-101231571D01*
X76864029Y-101326810D01*
X68673553Y-101755381D02*
X68197362Y-101755381D01*
X68197362Y-100755381D01*
X69006886Y-101231571D02*
X69340220Y-101231571D01*
X69483077Y-101755381D02*
X69006886Y-101755381D01*
X69006886Y-100755381D01*
X69483077Y-100755381D01*
X69911648Y-101755381D02*
X69911648Y-100755381D01*
X70149743Y-100755381D01*
X70292601Y-100803000D01*
X70387839Y-100898238D01*
X70435458Y-100993476D01*
X70483077Y-101183952D01*
X70483077Y-101326810D01*
X70435458Y-101517286D01*
X70387839Y-101612524D01*
X70292601Y-101707762D01*
X70149743Y-101755381D01*
X69911648Y-101755381D01*
X71387839Y-100755381D02*
X70911648Y-100755381D01*
X70864029Y-101231571D01*
X70911648Y-101183952D01*
X71006886Y-101136333D01*
X71244982Y-101136333D01*
X71340220Y-101183952D01*
X71387839Y-101231571D01*
X71435458Y-101326810D01*
X71435458Y-101564905D01*
X71387839Y-101660143D01*
X71340220Y-101707762D01*
X71244982Y-101755381D01*
X71006886Y-101755381D01*
X70911648Y-101707762D01*
X70864029Y-101660143D01*
X62673553Y-101755381D02*
X62197362Y-101755381D01*
X62197362Y-100755381D01*
X63006886Y-101231571D02*
X63340220Y-101231571D01*
X63483077Y-101755381D02*
X63006886Y-101755381D01*
X63006886Y-100755381D01*
X63483077Y-100755381D01*
X63911648Y-101755381D02*
X63911648Y-100755381D01*
X64149743Y-100755381D01*
X64292601Y-100803000D01*
X64387839Y-100898238D01*
X64435458Y-100993476D01*
X64483077Y-101183952D01*
X64483077Y-101326810D01*
X64435458Y-101517286D01*
X64387839Y-101612524D01*
X64292601Y-101707762D01*
X64149743Y-101755381D01*
X63911648Y-101755381D01*
X65340220Y-101088714D02*
X65340220Y-101755381D01*
X65102124Y-100707762D02*
X64864029Y-101422048D01*
X65483077Y-101422048D01*
X56673553Y-101755381D02*
X56197362Y-101755381D01*
X56197362Y-100755381D01*
X57006886Y-101231571D02*
X57340220Y-101231571D01*
X57483077Y-101755381D02*
X57006886Y-101755381D01*
X57006886Y-100755381D01*
X57483077Y-100755381D01*
X57911648Y-101755381D02*
X57911648Y-100755381D01*
X58149743Y-100755381D01*
X58292601Y-100803000D01*
X58387839Y-100898238D01*
X58435458Y-100993476D01*
X58483077Y-101183952D01*
X58483077Y-101326810D01*
X58435458Y-101517286D01*
X58387839Y-101612524D01*
X58292601Y-101707762D01*
X58149743Y-101755381D01*
X57911648Y-101755381D01*
X58816410Y-100755381D02*
X59435458Y-100755381D01*
X59102124Y-101136333D01*
X59244982Y-101136333D01*
X59340220Y-101183952D01*
X59387839Y-101231571D01*
X59435458Y-101326810D01*
X59435458Y-101564905D01*
X59387839Y-101660143D01*
X59340220Y-101707762D01*
X59244982Y-101755381D01*
X58959267Y-101755381D01*
X58864029Y-101707762D01*
X58816410Y-101660143D01*
X50673553Y-101755381D02*
X50197362Y-101755381D01*
X50197362Y-100755381D01*
X51006886Y-101231571D02*
X51340220Y-101231571D01*
X51483077Y-101755381D02*
X51006886Y-101755381D01*
X51006886Y-100755381D01*
X51483077Y-100755381D01*
X51911648Y-101755381D02*
X51911648Y-100755381D01*
X52149743Y-100755381D01*
X52292601Y-100803000D01*
X52387839Y-100898238D01*
X52435458Y-100993476D01*
X52483077Y-101183952D01*
X52483077Y-101326810D01*
X52435458Y-101517286D01*
X52387839Y-101612524D01*
X52292601Y-101707762D01*
X52149743Y-101755381D01*
X51911648Y-101755381D01*
X52864029Y-100850619D02*
X52911648Y-100803000D01*
X53006886Y-100755381D01*
X53244982Y-100755381D01*
X53340220Y-100803000D01*
X53387839Y-100850619D01*
X53435458Y-100945857D01*
X53435458Y-101041095D01*
X53387839Y-101183952D01*
X52816410Y-101755381D01*
X53435458Y-101755381D01*
X44673553Y-101755381D02*
X44197362Y-101755381D01*
X44197362Y-100755381D01*
X45006886Y-101231571D02*
X45340220Y-101231571D01*
X45483077Y-101755381D02*
X45006886Y-101755381D01*
X45006886Y-100755381D01*
X45483077Y-100755381D01*
X45911648Y-101755381D02*
X45911648Y-100755381D01*
X46149743Y-100755381D01*
X46292601Y-100803000D01*
X46387839Y-100898238D01*
X46435458Y-100993476D01*
X46483077Y-101183952D01*
X46483077Y-101326810D01*
X46435458Y-101517286D01*
X46387839Y-101612524D01*
X46292601Y-101707762D01*
X46149743Y-101755381D01*
X45911648Y-101755381D01*
X47435458Y-101755381D02*
X46864029Y-101755381D01*
X47149743Y-101755381D02*
X47149743Y-100755381D01*
X47054505Y-100898238D01*
X46959267Y-100993476D01*
X46864029Y-101041095D01*
%LPC*%
D17*
X38709600Y-95985000D03*
D18*
X38709600Y-98525000D03*
D19*
X99919600Y-94710000D03*
X99919600Y-99260000D03*
X93919600Y-94710000D03*
X93919600Y-99260000D03*
X87919600Y-94710000D03*
X87919600Y-99260000D03*
X81919600Y-94710000D03*
X81919600Y-99260000D03*
X75919600Y-94710000D03*
X75919600Y-99260000D03*
X69919600Y-94710000D03*
X69919600Y-99260000D03*
X63919600Y-94710000D03*
X63919600Y-99260000D03*
X57919600Y-94710000D03*
X57919600Y-99260000D03*
X51919600Y-94710000D03*
X51919600Y-99260000D03*
X45919600Y-94710000D03*
X45919600Y-99260000D03*
M02*
