%TF.GenerationSoftware,KiCad,Pcbnew,4.0.5-e0-6337~49~ubuntu16.04.1*%
%TF.CreationDate,2017-08-14T14:23:48-07:00*%
%TF.ProjectId,mcphail-photodiode-detector-board,6D63706861696C2D70686F746F64696F,1.0*%
%TF.FileFunction,Soldermask,Bot*%
%FSLAX46Y46*%
G04 Gerber Fmt 4.6, Leading zero omitted, Abs format (unit mm)*
G04 Created by KiCad (PCBNEW 4.0.5-e0-6337~49~ubuntu16.04.1) date Mon Aug 14 14:23:48 2017*
%MOMM*%
%LPD*%
G01*
G04 APERTURE LIST*
%ADD10C,0.350000*%
G04 APERTURE END LIST*
D10*
G36*
X38720995Y-97432842D02*
X38730134Y-97432906D01*
X38941966Y-97456667D01*
X39145148Y-97521120D01*
X39331942Y-97623811D01*
X39495232Y-97760828D01*
X39628799Y-97926951D01*
X39727555Y-98115855D01*
X39787739Y-98320342D01*
X39787743Y-98320383D01*
X39787744Y-98320387D01*
X39807059Y-98532623D01*
X39784783Y-98744570D01*
X39784781Y-98744575D01*
X39784777Y-98744617D01*
X39721744Y-98948245D01*
X39620360Y-99135750D01*
X39484486Y-99299993D01*
X39319299Y-99434717D01*
X39131090Y-99534789D01*
X38927028Y-99596399D01*
X38714885Y-99617200D01*
X38704279Y-99617200D01*
X38698205Y-99617158D01*
X38689066Y-99617094D01*
X38477234Y-99593333D01*
X38274052Y-99528880D01*
X38087258Y-99426189D01*
X37923968Y-99289172D01*
X37790401Y-99123049D01*
X37691645Y-98934145D01*
X37631461Y-98729658D01*
X37631457Y-98729617D01*
X37631456Y-98729613D01*
X37612141Y-98517377D01*
X37634417Y-98305430D01*
X37634419Y-98305425D01*
X37634423Y-98305383D01*
X37697456Y-98101755D01*
X37798840Y-97914250D01*
X37934714Y-97750007D01*
X38099901Y-97615283D01*
X38288110Y-97515211D01*
X38492172Y-97453601D01*
X38704315Y-97432800D01*
X38714921Y-97432800D01*
X38720995Y-97432842D01*
X38720995Y-97432842D01*
G37*
G36*
X39801800Y-97077200D02*
X37617400Y-97077200D01*
X37617400Y-94892800D01*
X39801800Y-94892800D01*
X39801800Y-97077200D01*
X39801800Y-97077200D01*
G37*
M02*
