%TF.GenerationSoftware,KiCad,Pcbnew,4.0.5-e0-6337~49~ubuntu16.04.1*%
%TF.CreationDate,2017-08-14T14:23:48-07:00*%
%TF.ProjectId,mcphail-photodiode-detector-board,6D63706861696C2D70686F746F64696F,1.0*%
%TF.FileFunction,Legend,Top*%
%FSLAX46Y46*%
G04 Gerber Fmt 4.6, Leading zero omitted, Abs format (unit mm)*
G04 Created by KiCad (PCBNEW 4.0.5-e0-6337~49~ubuntu16.04.1) date Mon Aug 14 14:23:48 2017*
%MOMM*%
%LPD*%
G01*
G04 APERTURE LIST*
%ADD10C,0.350000*%
%ADD11C,0.152400*%
%ADD12C,0.300000*%
%ADD13C,0.150000*%
%ADD14C,0.049784*%
%ADD15C,0.250000*%
%ADD16R,2.184400X2.184400*%
%ADD17O,2.184400X2.184400*%
%ADD18R,4.702400X0.902400*%
G04 APERTURE END LIST*
D10*
D11*
X55388935Y-92788619D02*
X55582459Y-92788619D01*
X55679220Y-92740238D01*
X55727601Y-92691857D01*
X55824363Y-92546714D01*
X55872744Y-92353190D01*
X55872744Y-91966143D01*
X55824363Y-91869381D01*
X55775982Y-91821000D01*
X55679220Y-91772619D01*
X55485697Y-91772619D01*
X55388935Y-91821000D01*
X55340554Y-91869381D01*
X55292173Y-91966143D01*
X55292173Y-92208048D01*
X55340554Y-92304810D01*
X55388935Y-92353190D01*
X55485697Y-92401571D01*
X55679220Y-92401571D01*
X55775982Y-92353190D01*
X55824363Y-92304810D01*
X55872744Y-92208048D01*
X56743601Y-92111286D02*
X56743601Y-92788619D01*
X56501697Y-91724238D02*
X56259792Y-92449952D01*
X56888744Y-92449952D01*
X57469316Y-91772619D02*
X57566077Y-91772619D01*
X57662839Y-91821000D01*
X57711220Y-91869381D01*
X57759601Y-91966143D01*
X57807982Y-92159667D01*
X57807982Y-92401571D01*
X57759601Y-92595095D01*
X57711220Y-92691857D01*
X57662839Y-92740238D01*
X57566077Y-92788619D01*
X57469316Y-92788619D01*
X57372554Y-92740238D01*
X57324173Y-92691857D01*
X57275792Y-92595095D01*
X57227411Y-92401571D01*
X57227411Y-92159667D01*
X57275792Y-91966143D01*
X57324173Y-91869381D01*
X57372554Y-91821000D01*
X57469316Y-91772619D01*
X58243411Y-92111286D02*
X58243411Y-92788619D01*
X58243411Y-92208048D02*
X58291792Y-92159667D01*
X58388554Y-92111286D01*
X58533696Y-92111286D01*
X58630458Y-92159667D01*
X58678839Y-92256429D01*
X58678839Y-92788619D01*
X59162649Y-92788619D02*
X59162649Y-92111286D01*
X59162649Y-92208048D02*
X59211030Y-92159667D01*
X59307792Y-92111286D01*
X59452934Y-92111286D01*
X59549696Y-92159667D01*
X59598077Y-92256429D01*
X59598077Y-92788619D01*
X59598077Y-92256429D02*
X59646458Y-92159667D01*
X59743220Y-92111286D01*
X59888363Y-92111286D01*
X59985125Y-92159667D01*
X60033506Y-92256429D01*
X60033506Y-92788619D01*
X61291411Y-92788619D02*
X61291411Y-91772619D01*
X61678458Y-91772619D01*
X61775220Y-91821000D01*
X61823601Y-91869381D01*
X61871982Y-91966143D01*
X61871982Y-92111286D01*
X61823601Y-92208048D01*
X61775220Y-92256429D01*
X61678458Y-92304810D01*
X61291411Y-92304810D01*
X62307411Y-92788619D02*
X62307411Y-91772619D01*
X62742839Y-92788619D02*
X62742839Y-92256429D01*
X62694458Y-92159667D01*
X62597696Y-92111286D01*
X62452554Y-92111286D01*
X62355792Y-92159667D01*
X62307411Y-92208048D01*
X63371792Y-92788619D02*
X63275030Y-92740238D01*
X63226649Y-92691857D01*
X63178268Y-92595095D01*
X63178268Y-92304810D01*
X63226649Y-92208048D01*
X63275030Y-92159667D01*
X63371792Y-92111286D01*
X63516934Y-92111286D01*
X63613696Y-92159667D01*
X63662077Y-92208048D01*
X63710458Y-92304810D01*
X63710458Y-92595095D01*
X63662077Y-92691857D01*
X63613696Y-92740238D01*
X63516934Y-92788619D01*
X63371792Y-92788619D01*
X64000744Y-92111286D02*
X64387792Y-92111286D01*
X64145887Y-91772619D02*
X64145887Y-92643476D01*
X64194268Y-92740238D01*
X64291030Y-92788619D01*
X64387792Y-92788619D01*
X64871601Y-92788619D02*
X64774839Y-92740238D01*
X64726458Y-92691857D01*
X64678077Y-92595095D01*
X64678077Y-92304810D01*
X64726458Y-92208048D01*
X64774839Y-92159667D01*
X64871601Y-92111286D01*
X65016743Y-92111286D01*
X65113505Y-92159667D01*
X65161886Y-92208048D01*
X65210267Y-92304810D01*
X65210267Y-92595095D01*
X65161886Y-92691857D01*
X65113505Y-92740238D01*
X65016743Y-92788619D01*
X64871601Y-92788619D01*
X66081124Y-92788619D02*
X66081124Y-91772619D01*
X66081124Y-92740238D02*
X65984362Y-92788619D01*
X65790839Y-92788619D01*
X65694077Y-92740238D01*
X65645696Y-92691857D01*
X65597315Y-92595095D01*
X65597315Y-92304810D01*
X65645696Y-92208048D01*
X65694077Y-92159667D01*
X65790839Y-92111286D01*
X65984362Y-92111286D01*
X66081124Y-92159667D01*
X66564934Y-92788619D02*
X66564934Y-92111286D01*
X66564934Y-91772619D02*
X66516553Y-91821000D01*
X66564934Y-91869381D01*
X66613315Y-91821000D01*
X66564934Y-91772619D01*
X66564934Y-91869381D01*
X67193887Y-92788619D02*
X67097125Y-92740238D01*
X67048744Y-92691857D01*
X67000363Y-92595095D01*
X67000363Y-92304810D01*
X67048744Y-92208048D01*
X67097125Y-92159667D01*
X67193887Y-92111286D01*
X67339029Y-92111286D01*
X67435791Y-92159667D01*
X67484172Y-92208048D01*
X67532553Y-92304810D01*
X67532553Y-92595095D01*
X67484172Y-92691857D01*
X67435791Y-92740238D01*
X67339029Y-92788619D01*
X67193887Y-92788619D01*
X68403410Y-92788619D02*
X68403410Y-91772619D01*
X68403410Y-92740238D02*
X68306648Y-92788619D01*
X68113125Y-92788619D01*
X68016363Y-92740238D01*
X67967982Y-92691857D01*
X67919601Y-92595095D01*
X67919601Y-92304810D01*
X67967982Y-92208048D01*
X68016363Y-92159667D01*
X68113125Y-92111286D01*
X68306648Y-92111286D01*
X68403410Y-92159667D01*
X69274267Y-92740238D02*
X69177505Y-92788619D01*
X68983982Y-92788619D01*
X68887220Y-92740238D01*
X68838839Y-92643476D01*
X68838839Y-92256429D01*
X68887220Y-92159667D01*
X68983982Y-92111286D01*
X69177505Y-92111286D01*
X69274267Y-92159667D01*
X69322648Y-92256429D01*
X69322648Y-92353190D01*
X68838839Y-92449952D01*
X71112743Y-92788619D02*
X70774077Y-92304810D01*
X70532172Y-92788619D02*
X70532172Y-91772619D01*
X70919219Y-91772619D01*
X71015981Y-91821000D01*
X71064362Y-91869381D01*
X71112743Y-91966143D01*
X71112743Y-92111286D01*
X71064362Y-92208048D01*
X71015981Y-92256429D01*
X70919219Y-92304810D01*
X70532172Y-92304810D01*
X71935219Y-92740238D02*
X71838457Y-92788619D01*
X71644934Y-92788619D01*
X71548172Y-92740238D01*
X71499791Y-92643476D01*
X71499791Y-92256429D01*
X71548172Y-92159667D01*
X71644934Y-92111286D01*
X71838457Y-92111286D01*
X71935219Y-92159667D01*
X71983600Y-92256429D01*
X71983600Y-92353190D01*
X71499791Y-92449952D01*
X72854457Y-92740238D02*
X72757695Y-92788619D01*
X72564172Y-92788619D01*
X72467410Y-92740238D01*
X72419029Y-92691857D01*
X72370648Y-92595095D01*
X72370648Y-92304810D01*
X72419029Y-92208048D01*
X72467410Y-92159667D01*
X72564172Y-92111286D01*
X72757695Y-92111286D01*
X72854457Y-92159667D01*
X73676933Y-92740238D02*
X73580171Y-92788619D01*
X73386648Y-92788619D01*
X73289886Y-92740238D01*
X73241505Y-92643476D01*
X73241505Y-92256429D01*
X73289886Y-92159667D01*
X73386648Y-92111286D01*
X73580171Y-92111286D01*
X73676933Y-92159667D01*
X73725314Y-92256429D01*
X73725314Y-92353190D01*
X73241505Y-92449952D01*
X74160743Y-92788619D02*
X74160743Y-92111286D01*
X74160743Y-91772619D02*
X74112362Y-91821000D01*
X74160743Y-91869381D01*
X74209124Y-91821000D01*
X74160743Y-91772619D01*
X74160743Y-91869381D01*
X74547791Y-92111286D02*
X74789696Y-92788619D01*
X75031600Y-92111286D01*
X75805695Y-92740238D02*
X75708933Y-92788619D01*
X75515410Y-92788619D01*
X75418648Y-92740238D01*
X75370267Y-92643476D01*
X75370267Y-92256429D01*
X75418648Y-92159667D01*
X75515410Y-92111286D01*
X75708933Y-92111286D01*
X75805695Y-92159667D01*
X75854076Y-92256429D01*
X75854076Y-92353190D01*
X75370267Y-92449952D01*
X76289505Y-92788619D02*
X76289505Y-92111286D01*
X76289505Y-92304810D02*
X76337886Y-92208048D01*
X76386267Y-92159667D01*
X76483029Y-92111286D01*
X76579790Y-92111286D01*
X78031218Y-92256429D02*
X78176361Y-92304810D01*
X78224742Y-92353190D01*
X78273123Y-92449952D01*
X78273123Y-92595095D01*
X78224742Y-92691857D01*
X78176361Y-92740238D01*
X78079599Y-92788619D01*
X77692552Y-92788619D01*
X77692552Y-91772619D01*
X78031218Y-91772619D01*
X78127980Y-91821000D01*
X78176361Y-91869381D01*
X78224742Y-91966143D01*
X78224742Y-92062905D01*
X78176361Y-92159667D01*
X78127980Y-92208048D01*
X78031218Y-92256429D01*
X77692552Y-92256429D01*
X78853695Y-92788619D02*
X78756933Y-92740238D01*
X78708552Y-92691857D01*
X78660171Y-92595095D01*
X78660171Y-92304810D01*
X78708552Y-92208048D01*
X78756933Y-92159667D01*
X78853695Y-92111286D01*
X78998837Y-92111286D01*
X79095599Y-92159667D01*
X79143980Y-92208048D01*
X79192361Y-92304810D01*
X79192361Y-92595095D01*
X79143980Y-92691857D01*
X79095599Y-92740238D01*
X78998837Y-92788619D01*
X78853695Y-92788619D01*
X80063218Y-92788619D02*
X80063218Y-92256429D01*
X80014837Y-92159667D01*
X79918075Y-92111286D01*
X79724552Y-92111286D01*
X79627790Y-92159667D01*
X80063218Y-92740238D02*
X79966456Y-92788619D01*
X79724552Y-92788619D01*
X79627790Y-92740238D01*
X79579409Y-92643476D01*
X79579409Y-92546714D01*
X79627790Y-92449952D01*
X79724552Y-92401571D01*
X79966456Y-92401571D01*
X80063218Y-92353190D01*
X80547028Y-92788619D02*
X80547028Y-92111286D01*
X80547028Y-92304810D02*
X80595409Y-92208048D01*
X80643790Y-92159667D01*
X80740552Y-92111286D01*
X80837313Y-92111286D01*
X81611408Y-92788619D02*
X81611408Y-91772619D01*
X81611408Y-92740238D02*
X81514646Y-92788619D01*
X81321123Y-92788619D01*
X81224361Y-92740238D01*
X81175980Y-92691857D01*
X81127599Y-92595095D01*
X81127599Y-92304810D01*
X81175980Y-92208048D01*
X81224361Y-92159667D01*
X81321123Y-92111286D01*
X81514646Y-92111286D01*
X81611408Y-92159667D01*
X82772551Y-92111286D02*
X83014456Y-92788619D01*
X83256360Y-92111286D01*
X84175598Y-92788619D02*
X83595027Y-92788619D01*
X83885313Y-92788619D02*
X83885313Y-91772619D01*
X83788551Y-91917762D01*
X83691789Y-92014524D01*
X83595027Y-92062905D01*
X84611027Y-92691857D02*
X84659408Y-92740238D01*
X84611027Y-92788619D01*
X84562646Y-92740238D01*
X84611027Y-92691857D01*
X84611027Y-92788619D01*
X85288361Y-91772619D02*
X85385122Y-91772619D01*
X85481884Y-91821000D01*
X85530265Y-91869381D01*
X85578646Y-91966143D01*
X85627027Y-92159667D01*
X85627027Y-92401571D01*
X85578646Y-92595095D01*
X85530265Y-92691857D01*
X85481884Y-92740238D01*
X85385122Y-92788619D01*
X85288361Y-92788619D01*
X85191599Y-92740238D01*
X85143218Y-92691857D01*
X85094837Y-92595095D01*
X85046456Y-92401571D01*
X85046456Y-92159667D01*
X85094837Y-91966143D01*
X85143218Y-91869381D01*
X85191599Y-91821000D01*
X85288361Y-91772619D01*
D12*
X37947695Y-92217857D02*
X39471505Y-92217857D01*
X38709600Y-92979762D02*
X38709600Y-91455952D01*
X37947695Y-102377857D02*
X39471505Y-102377857D01*
D13*
X39979600Y-97255000D02*
X39979600Y-99795000D01*
X40259600Y-94435000D02*
X40259600Y-95985000D01*
X39979600Y-97255000D02*
X37439600Y-97255000D01*
X37159600Y-95985000D02*
X37159600Y-94435000D01*
X37159600Y-94435000D02*
X40259600Y-94435000D01*
X37439600Y-97255000D02*
X37439600Y-99795000D01*
X37439600Y-99795000D02*
X39979600Y-99795000D01*
D14*
X102459600Y-99906000D02*
X102459600Y-94064000D01*
X97379600Y-99906000D02*
X102459600Y-99906000D01*
X97379600Y-94064000D02*
X97379600Y-99906000D01*
X102459600Y-94064000D02*
X97379600Y-94064000D01*
D15*
X101697600Y-100287000D02*
X98141600Y-100287000D01*
D14*
X96459600Y-99906000D02*
X96459600Y-94064000D01*
X91379600Y-99906000D02*
X96459600Y-99906000D01*
X91379600Y-94064000D02*
X91379600Y-99906000D01*
X96459600Y-94064000D02*
X91379600Y-94064000D01*
D15*
X95697600Y-100287000D02*
X92141600Y-100287000D01*
D14*
X90459600Y-99906000D02*
X90459600Y-94064000D01*
X85379600Y-99906000D02*
X90459600Y-99906000D01*
X85379600Y-94064000D02*
X85379600Y-99906000D01*
X90459600Y-94064000D02*
X85379600Y-94064000D01*
D15*
X89697600Y-100287000D02*
X86141600Y-100287000D01*
D14*
X84459600Y-99906000D02*
X84459600Y-94064000D01*
X79379600Y-99906000D02*
X84459600Y-99906000D01*
X79379600Y-94064000D02*
X79379600Y-99906000D01*
X84459600Y-94064000D02*
X79379600Y-94064000D01*
D15*
X83697600Y-100287000D02*
X80141600Y-100287000D01*
D14*
X78459600Y-99906000D02*
X78459600Y-94064000D01*
X73379600Y-99906000D02*
X78459600Y-99906000D01*
X73379600Y-94064000D02*
X73379600Y-99906000D01*
X78459600Y-94064000D02*
X73379600Y-94064000D01*
D15*
X77697600Y-100287000D02*
X74141600Y-100287000D01*
D14*
X72459600Y-99906000D02*
X72459600Y-94064000D01*
X67379600Y-99906000D02*
X72459600Y-99906000D01*
X67379600Y-94064000D02*
X67379600Y-99906000D01*
X72459600Y-94064000D02*
X67379600Y-94064000D01*
D15*
X71697600Y-100287000D02*
X68141600Y-100287000D01*
D14*
X66459600Y-99906000D02*
X66459600Y-94064000D01*
X61379600Y-99906000D02*
X66459600Y-99906000D01*
X61379600Y-94064000D02*
X61379600Y-99906000D01*
X66459600Y-94064000D02*
X61379600Y-94064000D01*
D15*
X65697600Y-100287000D02*
X62141600Y-100287000D01*
D14*
X60459600Y-99906000D02*
X60459600Y-94064000D01*
X55379600Y-99906000D02*
X60459600Y-99906000D01*
X55379600Y-94064000D02*
X55379600Y-99906000D01*
X60459600Y-94064000D02*
X55379600Y-94064000D01*
D15*
X59697600Y-100287000D02*
X56141600Y-100287000D01*
D14*
X54459600Y-99906000D02*
X54459600Y-94064000D01*
X49379600Y-99906000D02*
X54459600Y-99906000D01*
X49379600Y-94064000D02*
X49379600Y-99906000D01*
X54459600Y-94064000D02*
X49379600Y-94064000D01*
D15*
X53697600Y-100287000D02*
X50141600Y-100287000D01*
D14*
X48459600Y-99906000D02*
X48459600Y-94064000D01*
X43379600Y-99906000D02*
X48459600Y-99906000D01*
X43379600Y-94064000D02*
X43379600Y-99906000D01*
X48459600Y-94064000D02*
X43379600Y-94064000D01*
D15*
X47697600Y-100287000D02*
X44141600Y-100287000D01*
D13*
X98197362Y-101755381D02*
X97721171Y-101755381D01*
X97721171Y-100755381D01*
X98530695Y-101231571D02*
X98864029Y-101231571D01*
X99006886Y-101755381D02*
X98530695Y-101755381D01*
X98530695Y-100755381D01*
X99006886Y-100755381D01*
X99435457Y-101755381D02*
X99435457Y-100755381D01*
X99673552Y-100755381D01*
X99816410Y-100803000D01*
X99911648Y-100898238D01*
X99959267Y-100993476D01*
X100006886Y-101183952D01*
X100006886Y-101326810D01*
X99959267Y-101517286D01*
X99911648Y-101612524D01*
X99816410Y-101707762D01*
X99673552Y-101755381D01*
X99435457Y-101755381D01*
X100959267Y-101755381D02*
X100387838Y-101755381D01*
X100673552Y-101755381D02*
X100673552Y-100755381D01*
X100578314Y-100898238D01*
X100483076Y-100993476D01*
X100387838Y-101041095D01*
X101578314Y-100755381D02*
X101673553Y-100755381D01*
X101768791Y-100803000D01*
X101816410Y-100850619D01*
X101864029Y-100945857D01*
X101911648Y-101136333D01*
X101911648Y-101374429D01*
X101864029Y-101564905D01*
X101816410Y-101660143D01*
X101768791Y-101707762D01*
X101673553Y-101755381D01*
X101578314Y-101755381D01*
X101483076Y-101707762D01*
X101435457Y-101660143D01*
X101387838Y-101564905D01*
X101340219Y-101374429D01*
X101340219Y-101136333D01*
X101387838Y-100945857D01*
X101435457Y-100850619D01*
X101483076Y-100803000D01*
X101578314Y-100755381D01*
X92673553Y-101755381D02*
X92197362Y-101755381D01*
X92197362Y-100755381D01*
X93006886Y-101231571D02*
X93340220Y-101231571D01*
X93483077Y-101755381D02*
X93006886Y-101755381D01*
X93006886Y-100755381D01*
X93483077Y-100755381D01*
X93911648Y-101755381D02*
X93911648Y-100755381D01*
X94149743Y-100755381D01*
X94292601Y-100803000D01*
X94387839Y-100898238D01*
X94435458Y-100993476D01*
X94483077Y-101183952D01*
X94483077Y-101326810D01*
X94435458Y-101517286D01*
X94387839Y-101612524D01*
X94292601Y-101707762D01*
X94149743Y-101755381D01*
X93911648Y-101755381D01*
X94959267Y-101755381D02*
X95149743Y-101755381D01*
X95244982Y-101707762D01*
X95292601Y-101660143D01*
X95387839Y-101517286D01*
X95435458Y-101326810D01*
X95435458Y-100945857D01*
X95387839Y-100850619D01*
X95340220Y-100803000D01*
X95244982Y-100755381D01*
X95054505Y-100755381D01*
X94959267Y-100803000D01*
X94911648Y-100850619D01*
X94864029Y-100945857D01*
X94864029Y-101183952D01*
X94911648Y-101279190D01*
X94959267Y-101326810D01*
X95054505Y-101374429D01*
X95244982Y-101374429D01*
X95340220Y-101326810D01*
X95387839Y-101279190D01*
X95435458Y-101183952D01*
X86673553Y-101755381D02*
X86197362Y-101755381D01*
X86197362Y-100755381D01*
X87006886Y-101231571D02*
X87340220Y-101231571D01*
X87483077Y-101755381D02*
X87006886Y-101755381D01*
X87006886Y-100755381D01*
X87483077Y-100755381D01*
X87911648Y-101755381D02*
X87911648Y-100755381D01*
X88149743Y-100755381D01*
X88292601Y-100803000D01*
X88387839Y-100898238D01*
X88435458Y-100993476D01*
X88483077Y-101183952D01*
X88483077Y-101326810D01*
X88435458Y-101517286D01*
X88387839Y-101612524D01*
X88292601Y-101707762D01*
X88149743Y-101755381D01*
X87911648Y-101755381D01*
X89054505Y-101183952D02*
X88959267Y-101136333D01*
X88911648Y-101088714D01*
X88864029Y-100993476D01*
X88864029Y-100945857D01*
X88911648Y-100850619D01*
X88959267Y-100803000D01*
X89054505Y-100755381D01*
X89244982Y-100755381D01*
X89340220Y-100803000D01*
X89387839Y-100850619D01*
X89435458Y-100945857D01*
X89435458Y-100993476D01*
X89387839Y-101088714D01*
X89340220Y-101136333D01*
X89244982Y-101183952D01*
X89054505Y-101183952D01*
X88959267Y-101231571D01*
X88911648Y-101279190D01*
X88864029Y-101374429D01*
X88864029Y-101564905D01*
X88911648Y-101660143D01*
X88959267Y-101707762D01*
X89054505Y-101755381D01*
X89244982Y-101755381D01*
X89340220Y-101707762D01*
X89387839Y-101660143D01*
X89435458Y-101564905D01*
X89435458Y-101374429D01*
X89387839Y-101279190D01*
X89340220Y-101231571D01*
X89244982Y-101183952D01*
X80673553Y-101755381D02*
X80197362Y-101755381D01*
X80197362Y-100755381D01*
X81006886Y-101231571D02*
X81340220Y-101231571D01*
X81483077Y-101755381D02*
X81006886Y-101755381D01*
X81006886Y-100755381D01*
X81483077Y-100755381D01*
X81911648Y-101755381D02*
X81911648Y-100755381D01*
X82149743Y-100755381D01*
X82292601Y-100803000D01*
X82387839Y-100898238D01*
X82435458Y-100993476D01*
X82483077Y-101183952D01*
X82483077Y-101326810D01*
X82435458Y-101517286D01*
X82387839Y-101612524D01*
X82292601Y-101707762D01*
X82149743Y-101755381D01*
X81911648Y-101755381D01*
X82816410Y-100755381D02*
X83483077Y-100755381D01*
X83054505Y-101755381D01*
X74673553Y-101755381D02*
X74197362Y-101755381D01*
X74197362Y-100755381D01*
X75006886Y-101231571D02*
X75340220Y-101231571D01*
X75483077Y-101755381D02*
X75006886Y-101755381D01*
X75006886Y-100755381D01*
X75483077Y-100755381D01*
X75911648Y-101755381D02*
X75911648Y-100755381D01*
X76149743Y-100755381D01*
X76292601Y-100803000D01*
X76387839Y-100898238D01*
X76435458Y-100993476D01*
X76483077Y-101183952D01*
X76483077Y-101326810D01*
X76435458Y-101517286D01*
X76387839Y-101612524D01*
X76292601Y-101707762D01*
X76149743Y-101755381D01*
X75911648Y-101755381D01*
X77340220Y-100755381D02*
X77149743Y-100755381D01*
X77054505Y-100803000D01*
X77006886Y-100850619D01*
X76911648Y-100993476D01*
X76864029Y-101183952D01*
X76864029Y-101564905D01*
X76911648Y-101660143D01*
X76959267Y-101707762D01*
X77054505Y-101755381D01*
X77244982Y-101755381D01*
X77340220Y-101707762D01*
X77387839Y-101660143D01*
X77435458Y-101564905D01*
X77435458Y-101326810D01*
X77387839Y-101231571D01*
X77340220Y-101183952D01*
X77244982Y-101136333D01*
X77054505Y-101136333D01*
X76959267Y-101183952D01*
X76911648Y-101231571D01*
X76864029Y-101326810D01*
X68673553Y-101755381D02*
X68197362Y-101755381D01*
X68197362Y-100755381D01*
X69006886Y-101231571D02*
X69340220Y-101231571D01*
X69483077Y-101755381D02*
X69006886Y-101755381D01*
X69006886Y-100755381D01*
X69483077Y-100755381D01*
X69911648Y-101755381D02*
X69911648Y-100755381D01*
X70149743Y-100755381D01*
X70292601Y-100803000D01*
X70387839Y-100898238D01*
X70435458Y-100993476D01*
X70483077Y-101183952D01*
X70483077Y-101326810D01*
X70435458Y-101517286D01*
X70387839Y-101612524D01*
X70292601Y-101707762D01*
X70149743Y-101755381D01*
X69911648Y-101755381D01*
X71387839Y-100755381D02*
X70911648Y-100755381D01*
X70864029Y-101231571D01*
X70911648Y-101183952D01*
X71006886Y-101136333D01*
X71244982Y-101136333D01*
X71340220Y-101183952D01*
X71387839Y-101231571D01*
X71435458Y-101326810D01*
X71435458Y-101564905D01*
X71387839Y-101660143D01*
X71340220Y-101707762D01*
X71244982Y-101755381D01*
X71006886Y-101755381D01*
X70911648Y-101707762D01*
X70864029Y-101660143D01*
X62673553Y-101755381D02*
X62197362Y-101755381D01*
X62197362Y-100755381D01*
X63006886Y-101231571D02*
X63340220Y-101231571D01*
X63483077Y-101755381D02*
X63006886Y-101755381D01*
X63006886Y-100755381D01*
X63483077Y-100755381D01*
X63911648Y-101755381D02*
X63911648Y-100755381D01*
X64149743Y-100755381D01*
X64292601Y-100803000D01*
X64387839Y-100898238D01*
X64435458Y-100993476D01*
X64483077Y-101183952D01*
X64483077Y-101326810D01*
X64435458Y-101517286D01*
X64387839Y-101612524D01*
X64292601Y-101707762D01*
X64149743Y-101755381D01*
X63911648Y-101755381D01*
X65340220Y-101088714D02*
X65340220Y-101755381D01*
X65102124Y-100707762D02*
X64864029Y-101422048D01*
X65483077Y-101422048D01*
X56673553Y-101755381D02*
X56197362Y-101755381D01*
X56197362Y-100755381D01*
X57006886Y-101231571D02*
X57340220Y-101231571D01*
X57483077Y-101755381D02*
X57006886Y-101755381D01*
X57006886Y-100755381D01*
X57483077Y-100755381D01*
X57911648Y-101755381D02*
X57911648Y-100755381D01*
X58149743Y-100755381D01*
X58292601Y-100803000D01*
X58387839Y-100898238D01*
X58435458Y-100993476D01*
X58483077Y-101183952D01*
X58483077Y-101326810D01*
X58435458Y-101517286D01*
X58387839Y-101612524D01*
X58292601Y-101707762D01*
X58149743Y-101755381D01*
X57911648Y-101755381D01*
X58816410Y-100755381D02*
X59435458Y-100755381D01*
X59102124Y-101136333D01*
X59244982Y-101136333D01*
X59340220Y-101183952D01*
X59387839Y-101231571D01*
X59435458Y-101326810D01*
X59435458Y-101564905D01*
X59387839Y-101660143D01*
X59340220Y-101707762D01*
X59244982Y-101755381D01*
X58959267Y-101755381D01*
X58864029Y-101707762D01*
X58816410Y-101660143D01*
X50673553Y-101755381D02*
X50197362Y-101755381D01*
X50197362Y-100755381D01*
X51006886Y-101231571D02*
X51340220Y-101231571D01*
X51483077Y-101755381D02*
X51006886Y-101755381D01*
X51006886Y-100755381D01*
X51483077Y-100755381D01*
X51911648Y-101755381D02*
X51911648Y-100755381D01*
X52149743Y-100755381D01*
X52292601Y-100803000D01*
X52387839Y-100898238D01*
X52435458Y-100993476D01*
X52483077Y-101183952D01*
X52483077Y-101326810D01*
X52435458Y-101517286D01*
X52387839Y-101612524D01*
X52292601Y-101707762D01*
X52149743Y-101755381D01*
X51911648Y-101755381D01*
X52864029Y-100850619D02*
X52911648Y-100803000D01*
X53006886Y-100755381D01*
X53244982Y-100755381D01*
X53340220Y-100803000D01*
X53387839Y-100850619D01*
X53435458Y-100945857D01*
X53435458Y-101041095D01*
X53387839Y-101183952D01*
X52816410Y-101755381D01*
X53435458Y-101755381D01*
X44673553Y-101755381D02*
X44197362Y-101755381D01*
X44197362Y-100755381D01*
X45006886Y-101231571D02*
X45340220Y-101231571D01*
X45483077Y-101755381D02*
X45006886Y-101755381D01*
X45006886Y-100755381D01*
X45483077Y-100755381D01*
X45911648Y-101755381D02*
X45911648Y-100755381D01*
X46149743Y-100755381D01*
X46292601Y-100803000D01*
X46387839Y-100898238D01*
X46435458Y-100993476D01*
X46483077Y-101183952D01*
X46483077Y-101326810D01*
X46435458Y-101517286D01*
X46387839Y-101612524D01*
X46292601Y-101707762D01*
X46149743Y-101755381D01*
X45911648Y-101755381D01*
X47435458Y-101755381D02*
X46864029Y-101755381D01*
X47149743Y-101755381D02*
X47149743Y-100755381D01*
X47054505Y-100898238D01*
X46959267Y-100993476D01*
X46864029Y-101041095D01*
%LPC*%
D16*
X38709600Y-95985000D03*
D17*
X38709600Y-98525000D03*
D18*
X99919600Y-94710000D03*
X99919600Y-99260000D03*
X93919600Y-94710000D03*
X93919600Y-99260000D03*
X87919600Y-94710000D03*
X87919600Y-99260000D03*
X81919600Y-94710000D03*
X81919600Y-99260000D03*
X75919600Y-94710000D03*
X75919600Y-99260000D03*
X69919600Y-94710000D03*
X69919600Y-99260000D03*
X63919600Y-94710000D03*
X63919600Y-99260000D03*
X57919600Y-94710000D03*
X57919600Y-99260000D03*
X51919600Y-94710000D03*
X51919600Y-99260000D03*
X45919600Y-94710000D03*
X45919600Y-99260000D03*
M02*
