G04 This is an RS-274x file exported by *
G04 gerbv version 2.6.0 *
G04 More information is available about gerbv at *
G04 http://gerbv.gpleda.org/ *
G04 --End of header info--*
%MOIN*%
%FSLAX34Y34*%
%IPPOS*%
G04 --Define apertures--*
%ADD10C,0.0050*%
%ADD11C,0.0060*%
%ADD12C,0.0079*%
%ADD13C,0.0118*%
%ADD14C,0.0138*%
G04 --Start main section--*
G54D11*
G01X0041240Y-040750D02*
G01X0041240Y-035750D01*
G01X0014240Y-040750D02*
G01X0041240Y-040750D01*
G01X0014240Y-035750D02*
G01X0014240Y-040750D01*
G01X0041240Y-035750D02*
G01X0014240Y-035750D01*
G54D12*
G01X0015040Y-037589D02*
G01X0015440Y-037989D01*
G01X0015440Y-037589D02*
G01X0015040Y-037989D01*
G01X0015040Y-038589D02*
G01X0015440Y-038989D01*
G01X0015440Y-038589D02*
G01X0015040Y-038989D01*
G54D13*
G01X0015279Y-042614D02*
G01X0015279Y-041432D01*
G01X0015279Y-041432D02*
G01X0015560Y-041432D01*
G01X0015560Y-041432D02*
G01X0015729Y-041489D01*
G01X0015729Y-041489D02*
G01X0015841Y-041601D01*
G01X0015841Y-041601D02*
G01X0015897Y-041714D01*
G01X0015897Y-041714D02*
G01X0015954Y-041939D01*
G01X0015954Y-041939D02*
G01X0015954Y-042107D01*
G01X0015954Y-042107D02*
G01X0015897Y-042332D01*
G01X0015897Y-042332D02*
G01X0015841Y-042445D01*
G01X0015841Y-042445D02*
G01X0015729Y-042557D01*
G01X0015729Y-042557D02*
G01X0015560Y-042614D01*
G01X0015560Y-042614D02*
G01X0015279Y-042614D01*
G01X0016460Y-042614D02*
G01X0016460Y-041826D01*
G01X0016460Y-042051D02*
G01X0016516Y-041939D01*
G01X0016516Y-041939D02*
G01X0016572Y-041882D01*
G01X0016572Y-041882D02*
G01X0016685Y-041826D01*
G01X0016685Y-041826D02*
G01X0016797Y-041826D01*
G01X0017191Y-042614D02*
G01X0017191Y-041826D01*
G01X0017191Y-041432D02*
G01X0017135Y-041489D01*
G01X0017135Y-041489D02*
G01X0017191Y-041545D01*
G01X0017191Y-041545D02*
G01X0017247Y-041489D01*
G01X0017247Y-041489D02*
G01X0017191Y-041432D01*
G01X0017191Y-041432D02*
G01X0017191Y-041545D01*
G01X0017922Y-042614D02*
G01X0017810Y-042557D01*
G01X0017810Y-042557D02*
G01X0017753Y-042445D01*
G01X0017753Y-042445D02*
G01X0017753Y-041432D01*
G01X0018541Y-042614D02*
G01X0018428Y-042557D01*
G01X0018428Y-042557D02*
G01X0018372Y-042445D01*
G01X0018372Y-042445D02*
G01X0018372Y-041432D01*
G01X0019891Y-042614D02*
G01X0019891Y-041432D01*
G01X0019891Y-041432D02*
G01X0020284Y-042276D01*
G01X0020284Y-042276D02*
G01X0020678Y-041432D01*
G01X0020678Y-041432D02*
G01X0020678Y-042614D01*
G01X0021747Y-042614D02*
G01X0021747Y-041995D01*
G01X0021747Y-041995D02*
G01X0021690Y-041882D01*
G01X0021690Y-041882D02*
G01X0021578Y-041826D01*
G01X0021578Y-041826D02*
G01X0021353Y-041826D01*
G01X0021353Y-041826D02*
G01X0021240Y-041882D01*
G01X0021747Y-042557D02*
G01X0021634Y-042614D01*
G01X0021634Y-042614D02*
G01X0021353Y-042614D01*
G01X0021353Y-042614D02*
G01X0021240Y-042557D01*
G01X0021240Y-042557D02*
G01X0021184Y-042445D01*
G01X0021184Y-042445D02*
G01X0021184Y-042332D01*
G01X0021184Y-042332D02*
G01X0021240Y-042220D01*
G01X0021240Y-042220D02*
G01X0021353Y-042164D01*
G01X0021353Y-042164D02*
G01X0021634Y-042164D01*
G01X0021634Y-042164D02*
G01X0021747Y-042107D01*
G01X0022309Y-041826D02*
G01X0022309Y-043007D01*
G01X0022309Y-041882D02*
G01X0022421Y-041826D01*
G01X0022421Y-041826D02*
G01X0022646Y-041826D01*
G01X0022646Y-041826D02*
G01X0022759Y-041882D01*
G01X0022759Y-041882D02*
G01X0022815Y-041939D01*
G01X0022815Y-041939D02*
G01X0022871Y-042051D01*
G01X0022871Y-042051D02*
G01X0022871Y-042389D01*
G01X0022871Y-042389D02*
G01X0022815Y-042501D01*
G01X0022815Y-042501D02*
G01X0022759Y-042557D01*
G01X0022759Y-042557D02*
G01X0022646Y-042614D01*
G01X0022646Y-042614D02*
G01X0022421Y-042614D01*
G01X0022421Y-042614D02*
G01X0022309Y-042557D01*
G01X0023378Y-042501D02*
G01X0023434Y-042557D01*
G01X0023434Y-042557D02*
G01X0023378Y-042614D01*
G01X0023378Y-042614D02*
G01X0023321Y-042557D01*
G01X0023321Y-042557D02*
G01X0023378Y-042501D01*
G01X0023378Y-042501D02*
G01X0023378Y-042614D01*
G01X0023378Y-041882D02*
G01X0023434Y-041939D01*
G01X0023434Y-041939D02*
G01X0023378Y-041995D01*
G01X0023378Y-041995D02*
G01X0023321Y-041939D01*
G01X0023321Y-041939D02*
G01X0023378Y-041882D01*
G01X0023378Y-041882D02*
G01X0023378Y-041995D01*
G01X0013810Y-044360D02*
G01X0014210Y-044760D01*
G01X0014210Y-044360D02*
G01X0013810Y-044760D01*
G01X0015897Y-045094D02*
G01X0015222Y-045094D01*
G01X0015560Y-045094D02*
G01X0015560Y-043913D01*
G01X0015560Y-043913D02*
G01X0015447Y-044081D01*
G01X0015447Y-044081D02*
G01X0015335Y-044194D01*
G01X0015335Y-044194D02*
G01X0015222Y-044250D01*
G01X0016403Y-044981D02*
G01X0016460Y-045038D01*
G01X0016460Y-045038D02*
G01X0016403Y-045094D01*
G01X0016403Y-045094D02*
G01X0016347Y-045038D01*
G01X0016347Y-045038D02*
G01X0016403Y-044981D01*
G01X0016403Y-044981D02*
G01X0016403Y-045094D01*
G01X0017191Y-043913D02*
G01X0017303Y-043913D01*
G01X0017303Y-043913D02*
G01X0017416Y-043969D01*
G01X0017416Y-043969D02*
G01X0017472Y-044025D01*
G01X0017472Y-044025D02*
G01X0017528Y-044138D01*
G01X0017528Y-044138D02*
G01X0017585Y-044363D01*
G01X0017585Y-044363D02*
G01X0017585Y-044644D01*
G01X0017585Y-044644D02*
G01X0017528Y-044869D01*
G01X0017528Y-044869D02*
G01X0017472Y-044981D01*
G01X0017472Y-044981D02*
G01X0017416Y-045038D01*
G01X0017416Y-045038D02*
G01X0017303Y-045094D01*
G01X0017303Y-045094D02*
G01X0017191Y-045094D01*
G01X0017191Y-045094D02*
G01X0017078Y-045038D01*
G01X0017078Y-045038D02*
G01X0017022Y-044981D01*
G01X0017022Y-044981D02*
G01X0016966Y-044869D01*
G01X0016966Y-044869D02*
G01X0016910Y-044644D01*
G01X0016910Y-044644D02*
G01X0016910Y-044363D01*
G01X0016910Y-044363D02*
G01X0016966Y-044138D01*
G01X0016966Y-044138D02*
G01X0017022Y-044025D01*
G01X0017022Y-044025D02*
G01X0017078Y-043969D01*
G01X0017078Y-043969D02*
G01X0017191Y-043913D01*
G01X0018035Y-044025D02*
G01X0018091Y-043969D01*
G01X0018091Y-043969D02*
G01X0018203Y-043913D01*
G01X0018203Y-043913D02*
G01X0018484Y-043913D01*
G01X0018484Y-043913D02*
G01X0018597Y-043969D01*
G01X0018597Y-043969D02*
G01X0018653Y-044025D01*
G01X0018653Y-044025D02*
G01X0018709Y-044138D01*
G01X0018709Y-044138D02*
G01X0018709Y-044250D01*
G01X0018709Y-044250D02*
G01X0018653Y-044419D01*
G01X0018653Y-044419D02*
G01X0017978Y-045094D01*
G01X0017978Y-045094D02*
G01X0018709Y-045094D01*
G01X0019216Y-045094D02*
G01X0019216Y-044306D01*
G01X0019216Y-044419D02*
G01X0019272Y-044363D01*
G01X0019272Y-044363D02*
G01X0019384Y-044306D01*
G01X0019384Y-044306D02*
G01X0019553Y-044306D01*
G01X0019553Y-044306D02*
G01X0019666Y-044363D01*
G01X0019666Y-044363D02*
G01X0019722Y-044475D01*
G01X0019722Y-044475D02*
G01X0019722Y-045094D01*
G01X0019722Y-044475D02*
G01X0019778Y-044363D01*
G01X0019778Y-044363D02*
G01X0019891Y-044306D01*
G01X0019891Y-044306D02*
G01X0020059Y-044306D01*
G01X0020059Y-044306D02*
G01X0020172Y-044363D01*
G01X0020172Y-044363D02*
G01X0020228Y-044475D01*
G01X0020228Y-044475D02*
G01X0020228Y-045094D01*
G01X0020790Y-045094D02*
G01X0020790Y-044306D01*
G01X0020790Y-044419D02*
G01X0020847Y-044363D01*
G01X0020847Y-044363D02*
G01X0020959Y-044306D01*
G01X0020959Y-044306D02*
G01X0021128Y-044306D01*
G01X0021128Y-044306D02*
G01X0021240Y-044363D01*
G01X0021240Y-044363D02*
G01X0021297Y-044475D01*
G01X0021297Y-044475D02*
G01X0021297Y-045094D01*
G01X0021297Y-044475D02*
G01X0021353Y-044363D01*
G01X0021353Y-044363D02*
G01X0021465Y-044306D01*
G01X0021465Y-044306D02*
G01X0021634Y-044306D01*
G01X0021634Y-044306D02*
G01X0021747Y-044363D01*
G01X0021747Y-044363D02*
G01X0021803Y-044475D01*
G01X0021803Y-044475D02*
G01X0021803Y-045094D01*
G01X0024109Y-043856D02*
G01X0023096Y-045375D01*
G01X0025627Y-043913D02*
G01X0025740Y-043913D01*
G01X0025740Y-043913D02*
G01X0025852Y-043969D01*
G01X0025852Y-043969D02*
G01X0025909Y-044025D01*
G01X0025909Y-044025D02*
G01X0025965Y-044138D01*
G01X0025965Y-044138D02*
G01X0026021Y-044363D01*
G01X0026021Y-044363D02*
G01X0026021Y-044644D01*
G01X0026021Y-044644D02*
G01X0025965Y-044869D01*
G01X0025965Y-044869D02*
G01X0025909Y-044981D01*
G01X0025909Y-044981D02*
G01X0025852Y-045038D01*
G01X0025852Y-045038D02*
G01X0025740Y-045094D01*
G01X0025740Y-045094D02*
G01X0025627Y-045094D01*
G01X0025627Y-045094D02*
G01X0025515Y-045038D01*
G01X0025515Y-045038D02*
G01X0025459Y-044981D01*
G01X0025459Y-044981D02*
G01X0025402Y-044869D01*
G01X0025402Y-044869D02*
G01X0025346Y-044644D01*
G01X0025346Y-044644D02*
G01X0025346Y-044363D01*
G01X0025346Y-044363D02*
G01X0025402Y-044138D01*
G01X0025402Y-044138D02*
G01X0025459Y-044025D01*
G01X0025459Y-044025D02*
G01X0025515Y-043969D01*
G01X0025515Y-043969D02*
G01X0025627Y-043913D01*
G01X0026527Y-044981D02*
G01X0026583Y-045038D01*
G01X0026583Y-045038D02*
G01X0026527Y-045094D01*
G01X0026527Y-045094D02*
G01X0026471Y-045038D01*
G01X0026471Y-045038D02*
G01X0026527Y-044981D01*
G01X0026527Y-044981D02*
G01X0026527Y-045094D01*
G01X0027315Y-043913D02*
G01X0027427Y-043913D01*
G01X0027427Y-043913D02*
G01X0027540Y-043969D01*
G01X0027540Y-043969D02*
G01X0027596Y-044025D01*
G01X0027596Y-044025D02*
G01X0027652Y-044138D01*
G01X0027652Y-044138D02*
G01X0027708Y-044363D01*
G01X0027708Y-044363D02*
G01X0027708Y-044644D01*
G01X0027708Y-044644D02*
G01X0027652Y-044869D01*
G01X0027652Y-044869D02*
G01X0027596Y-044981D01*
G01X0027596Y-044981D02*
G01X0027540Y-045038D01*
G01X0027540Y-045038D02*
G01X0027427Y-045094D01*
G01X0027427Y-045094D02*
G01X0027315Y-045094D01*
G01X0027315Y-045094D02*
G01X0027202Y-045038D01*
G01X0027202Y-045038D02*
G01X0027146Y-044981D01*
G01X0027146Y-044981D02*
G01X0027090Y-044869D01*
G01X0027090Y-044869D02*
G01X0027033Y-044644D01*
G01X0027033Y-044644D02*
G01X0027033Y-044363D01*
G01X0027033Y-044363D02*
G01X0027090Y-044138D01*
G01X0027090Y-044138D02*
G01X0027146Y-044025D01*
G01X0027146Y-044025D02*
G01X0027202Y-043969D01*
G01X0027202Y-043969D02*
G01X0027315Y-043913D01*
G01X0028721Y-044306D02*
G01X0028721Y-045094D01*
G01X0028439Y-043856D02*
G01X0028158Y-044700D01*
G01X0028158Y-044700D02*
G01X0028889Y-044700D01*
G01X0029564Y-043913D02*
G01X0029677Y-043913D01*
G01X0029677Y-043913D02*
G01X0029789Y-043969D01*
G01X0029789Y-043969D02*
G01X0029846Y-044025D01*
G01X0029846Y-044025D02*
G01X0029902Y-044138D01*
G01X0029902Y-044138D02*
G01X0029958Y-044363D01*
G01X0029958Y-044363D02*
G01X0029958Y-044644D01*
G01X0029958Y-044644D02*
G01X0029902Y-044869D01*
G01X0029902Y-044869D02*
G01X0029846Y-044981D01*
G01X0029846Y-044981D02*
G01X0029789Y-045038D01*
G01X0029789Y-045038D02*
G01X0029677Y-045094D01*
G01X0029677Y-045094D02*
G01X0029564Y-045094D01*
G01X0029564Y-045094D02*
G01X0029452Y-045038D01*
G01X0029452Y-045038D02*
G01X0029396Y-044981D01*
G01X0029396Y-044981D02*
G01X0029339Y-044869D01*
G01X0029339Y-044869D02*
G01X0029283Y-044644D01*
G01X0029283Y-044644D02*
G01X0029283Y-044363D01*
G01X0029283Y-044363D02*
G01X0029339Y-044138D01*
G01X0029339Y-044138D02*
G01X0029396Y-044025D01*
G01X0029396Y-044025D02*
G01X0029452Y-043969D01*
G01X0029452Y-043969D02*
G01X0029564Y-043913D01*
G01X0030408Y-043913D02*
G01X0030408Y-044138D01*
G01X0030858Y-043913D02*
G01X0030858Y-044138D01*
G01X0032601Y-045544D02*
G01X0032545Y-045488D01*
G01X0032545Y-045488D02*
G01X0032433Y-045319D01*
G01X0032433Y-045319D02*
G01X0032376Y-045206D01*
G01X0032376Y-045206D02*
G01X0032320Y-045038D01*
G01X0032320Y-045038D02*
G01X0032264Y-044756D01*
G01X0032264Y-044756D02*
G01X0032264Y-044531D01*
G01X0032264Y-044531D02*
G01X0032320Y-044250D01*
G01X0032320Y-044250D02*
G01X0032376Y-044081D01*
G01X0032376Y-044081D02*
G01X0032433Y-043969D01*
G01X0032433Y-043969D02*
G01X0032545Y-043800D01*
G01X0032545Y-043800D02*
G01X0032601Y-043744D01*
G01X0032995Y-044025D02*
G01X0033051Y-043969D01*
G01X0033051Y-043969D02*
G01X0033164Y-043913D01*
G01X0033164Y-043913D02*
G01X0033445Y-043913D01*
G01X0033445Y-043913D02*
G01X0033558Y-043969D01*
G01X0033558Y-043969D02*
G01X0033614Y-044025D01*
G01X0033614Y-044025D02*
G01X0033670Y-044138D01*
G01X0033670Y-044138D02*
G01X0033670Y-044250D01*
G01X0033670Y-044250D02*
G01X0033614Y-044419D01*
G01X0033614Y-044419D02*
G01X0032939Y-045094D01*
G01X0032939Y-045094D02*
G01X0033670Y-045094D01*
G01X0035076Y-045094D02*
G01X0035076Y-043913D01*
G01X0035582Y-045094D02*
G01X0035582Y-044475D01*
G01X0035582Y-044475D02*
G01X0035526Y-044363D01*
G01X0035526Y-044363D02*
G01X0035414Y-044306D01*
G01X0035414Y-044306D02*
G01X0035245Y-044306D01*
G01X0035245Y-044306D02*
G01X0035132Y-044363D01*
G01X0035132Y-044363D02*
G01X0035076Y-044419D01*
G01X0036313Y-045094D02*
G01X0036201Y-045038D01*
G01X0036201Y-045038D02*
G01X0036145Y-044981D01*
G01X0036145Y-044981D02*
G01X0036089Y-044869D01*
G01X0036089Y-044869D02*
G01X0036089Y-044531D01*
G01X0036089Y-044531D02*
G01X0036145Y-044419D01*
G01X0036145Y-044419D02*
G01X0036201Y-044363D01*
G01X0036201Y-044363D02*
G01X0036313Y-044306D01*
G01X0036313Y-044306D02*
G01X0036482Y-044306D01*
G01X0036482Y-044306D02*
G01X0036595Y-044363D01*
G01X0036595Y-044363D02*
G01X0036651Y-044419D01*
G01X0036651Y-044419D02*
G01X0036707Y-044531D01*
G01X0036707Y-044531D02*
G01X0036707Y-044869D01*
G01X0036707Y-044869D02*
G01X0036651Y-044981D01*
G01X0036651Y-044981D02*
G01X0036595Y-045038D01*
G01X0036595Y-045038D02*
G01X0036482Y-045094D01*
G01X0036482Y-045094D02*
G01X0036313Y-045094D01*
G01X0037382Y-045094D02*
G01X0037270Y-045038D01*
G01X0037270Y-045038D02*
G01X0037213Y-044925D01*
G01X0037213Y-044925D02*
G01X0037213Y-043913D01*
G01X0038282Y-045038D02*
G01X0038170Y-045094D01*
G01X0038170Y-045094D02*
G01X0037945Y-045094D01*
G01X0037945Y-045094D02*
G01X0037832Y-045038D01*
G01X0037832Y-045038D02*
G01X0037776Y-044925D01*
G01X0037776Y-044925D02*
G01X0037776Y-044475D01*
G01X0037776Y-044475D02*
G01X0037832Y-044363D01*
G01X0037832Y-044363D02*
G01X0037945Y-044306D01*
G01X0037945Y-044306D02*
G01X0038170Y-044306D01*
G01X0038170Y-044306D02*
G01X0038282Y-044363D01*
G01X0038282Y-044363D02*
G01X0038338Y-044475D01*
G01X0038338Y-044475D02*
G01X0038338Y-044588D01*
G01X0038338Y-044588D02*
G01X0037776Y-044700D01*
G01X0038788Y-045038D02*
G01X0038901Y-045094D01*
G01X0038901Y-045094D02*
G01X0039126Y-045094D01*
G01X0039126Y-045094D02*
G01X0039238Y-045038D01*
G01X0039238Y-045038D02*
G01X0039294Y-044925D01*
G01X0039294Y-044925D02*
G01X0039294Y-044869D01*
G01X0039294Y-044869D02*
G01X0039238Y-044756D01*
G01X0039238Y-044756D02*
G01X0039126Y-044700D01*
G01X0039126Y-044700D02*
G01X0038957Y-044700D01*
G01X0038957Y-044700D02*
G01X0038844Y-044644D01*
G01X0038844Y-044644D02*
G01X0038788Y-044531D01*
G01X0038788Y-044531D02*
G01X0038788Y-044475D01*
G01X0038788Y-044475D02*
G01X0038844Y-044363D01*
G01X0038844Y-044363D02*
G01X0038957Y-044306D01*
G01X0038957Y-044306D02*
G01X0039126Y-044306D01*
G01X0039126Y-044306D02*
G01X0039238Y-044363D01*
G01X0039688Y-045544D02*
G01X0039744Y-045488D01*
G01X0039744Y-045488D02*
G01X0039857Y-045319D01*
G01X0039857Y-045319D02*
G01X0039913Y-045206D01*
G01X0039913Y-045206D02*
G01X0039969Y-045038D01*
G01X0039969Y-045038D02*
G01X0040026Y-044756D01*
G01X0040026Y-044756D02*
G01X0040026Y-044531D01*
G01X0040026Y-044531D02*
G01X0039969Y-044250D01*
G01X0039969Y-044250D02*
G01X0039913Y-044081D01*
G01X0039913Y-044081D02*
G01X0039857Y-043969D01*
G01X0039857Y-043969D02*
G01X0039744Y-043800D01*
G01X0039744Y-043800D02*
G01X0039688Y-043744D01*
G01X0000000Y0000000D02*
G54D11*
G01X0041240Y-040750D02*
G01X0041240Y-035750D01*
G01X0014240Y-040750D02*
G01X0041240Y-040750D01*
G01X0014240Y-035750D02*
G01X0014240Y-040750D01*
G01X0041240Y-035750D02*
G01X0014240Y-035750D01*
G01X0000000Y0000000D02*
M02*
