%TF.GenerationSoftware,KiCad,Pcbnew,4.0.5-e0-6337~49~ubuntu16.04.1*%
%TF.CreationDate,2017-08-06T10:19:08-07:00*%
%TF.ProjectId,mcphail-ir-emitter-board,6D63706861696C2D69722D656D697474,1.0*%
%TF.FileFunction,Copper,L2,Bot,Signal*%
%FSLAX46Y46*%
G04 Gerber Fmt 4.6, Leading zero omitted, Abs format (unit mm)*
G04 Created by KiCad (PCBNEW 4.0.5-e0-6337~49~ubuntu16.04.1) date Sun Aug  6 10:19:08 2017*
%MOMM*%
%LPD*%
G01*
G04 APERTURE LIST*
%ADD10C,0.350000*%
%ADD11R,2.032000X2.032000*%
%ADD12O,2.032000X2.032000*%
%ADD13R,2.000000X1.900000*%
%ADD14C,1.900000*%
%ADD15C,0.350000*%
G04 APERTURE END LIST*
D10*
D11*
X104140000Y-81280000D03*
D12*
X104140000Y-83820000D03*
D13*
X166370000Y-83820000D03*
D14*
X166370000Y-81280000D03*
D13*
X160020000Y-83820000D03*
D14*
X160020000Y-81280000D03*
D13*
X153670000Y-83820000D03*
D14*
X153670000Y-81280000D03*
D13*
X147320000Y-83820000D03*
D14*
X147320000Y-81280000D03*
D13*
X140970000Y-83820000D03*
D14*
X140970000Y-81280000D03*
D13*
X134620000Y-83820000D03*
D14*
X134620000Y-81280000D03*
D13*
X128270000Y-83820000D03*
D14*
X128270000Y-81280000D03*
D13*
X121920000Y-83820000D03*
D14*
X121920000Y-81280000D03*
D13*
X115570000Y-83820000D03*
D14*
X115570000Y-81280000D03*
D13*
X109220000Y-83820000D03*
D14*
X109220000Y-81280000D03*
D15*
X104140000Y-81280000D03*
X104140000Y-83820000D03*
X166370000Y-83820000D03*
X166370000Y-81280000D03*
X160020000Y-83820000D03*
X160020000Y-81280000D03*
X153670000Y-83820000D03*
X153670000Y-81280000D03*
X147320000Y-83820000D03*
X147320000Y-81280000D03*
X140970000Y-83820000D03*
X140970000Y-81280000D03*
X134620000Y-83820000D03*
X134620000Y-81280000D03*
X128270000Y-83820000D03*
X128270000Y-81280000D03*
X121920000Y-83820000D03*
X121920000Y-81280000D03*
X115570000Y-83820000D03*
X115570000Y-81280000D03*
X109220000Y-83820000D03*
X109220000Y-81280000D03*
M02*
