G04 This is an RS-274x file exported by *
G04 gerbv version 2.6.0 *
G04 More information is available about gerbv at *
G04 http://gerbv.gpleda.org/ *
G04 --End of header info--*
%MOIN*%
%FSLAX34Y34*%
%IPPOS*%
G04 --Define apertures--*
%ADD10C,0.0138*%
%ADD11C,0.0118*%
%ADD12C,0.0020*%
%ADD13C,0.0060*%
%ADD14C,0.0059*%
G04 --Start main section--*
G54D11*
G01X0011140Y-030046D02*
G01X0011740Y-030046D01*
G01X0011140Y-026296D02*
G01X0011740Y-026296D01*
G01X0011440Y-026596D02*
G01X0011440Y-025996D01*
G54D12*
G01X0012129Y-029413D02*
G01X0012129Y-027051D01*
G01X0012129Y-029413D02*
G01X0010751Y-029413D01*
G01X0010751Y-027051D02*
G01X0010751Y-029413D01*
G01X0012129Y-027051D02*
G01X0010751Y-027051D01*
G01X0035340Y-029190D02*
G75*
G02X0036540Y-029190I0000600J0000962D01*
G01X0035330Y-029190D02*
G01X0036550Y-029190D01*
G01X0032840Y-029190D02*
G75*
G02X0034040Y-029190I0000600J0000962D01*
G01X0032830Y-029190D02*
G01X0034050Y-029190D01*
G01X0030340Y-029190D02*
G75*
G02X0031540Y-029190I0000600J0000962D01*
G01X0030330Y-029190D02*
G01X0031550Y-029190D01*
G01X0027840Y-029190D02*
G75*
G02X0029040Y-029190I0000600J0000962D01*
G01X0027830Y-029190D02*
G01X0029050Y-029190D01*
G01X0025340Y-029190D02*
G75*
G02X0026540Y-029190I0000600J0000962D01*
G01X0025330Y-029190D02*
G01X0026550Y-029190D01*
G01X0022840Y-029190D02*
G75*
G02X0024040Y-029190I0000600J0000962D01*
G01X0022830Y-029190D02*
G01X0024050Y-029190D01*
G01X0020340Y-029190D02*
G75*
G02X0021540Y-029190I0000600J0000962D01*
G01X0020330Y-029190D02*
G01X0021550Y-029190D01*
G01X0017840Y-029190D02*
G75*
G02X0019040Y-029190I0000600J0000962D01*
G01X0017830Y-029190D02*
G01X0019050Y-029190D01*
G01X0015340Y-029190D02*
G75*
G02X0016540Y-029190I0000600J0000962D01*
G01X0015330Y-029190D02*
G01X0016550Y-029190D01*
G01X0012840Y-029190D02*
G75*
G02X0014040Y-029190I0000600J0000962D01*
G01X0012830Y-029190D02*
G01X0014050Y-029190D01*
G54D13*
G01X0011221Y-028365D02*
G01X0011507Y-028365D01*
G01X0011507Y-028365D02*
G01X0011564Y-028385D01*
G01X0011564Y-028385D02*
G01X0011602Y-028423D01*
G01X0011602Y-028423D02*
G01X0011621Y-028480D01*
G01X0011621Y-028480D02*
G01X0011621Y-028518D01*
G01X0011621Y-027965D02*
G01X0011621Y-028194D01*
G01X0011621Y-028080D02*
G01X0011221Y-028080D01*
G01X0011221Y-028080D02*
G01X0011278Y-028118D01*
G01X0011278Y-028118D02*
G01X0011316Y-028156D01*
G01X0011316Y-028156D02*
G01X0011335Y-028194D01*
G54D14*
G01X0035312Y-028426D02*
G01X0035124Y-028426D01*
G01X0035124Y-028426D02*
G01X0035124Y-028032D01*
G01X0035443Y-028220D02*
G01X0035574Y-028220D01*
G01X0035631Y-028426D02*
G01X0035443Y-028426D01*
G01X0035443Y-028426D02*
G01X0035443Y-028032D01*
G01X0035443Y-028032D02*
G01X0035631Y-028032D01*
G01X0035799Y-028426D02*
G01X0035799Y-028032D01*
G01X0035799Y-028032D02*
G01X0035893Y-028032D01*
G01X0035893Y-028032D02*
G01X0035949Y-028051D01*
G01X0035949Y-028051D02*
G01X0035987Y-028089D01*
G01X0035987Y-028089D02*
G01X0036006Y-028126D01*
G01X0036006Y-028126D02*
G01X0036024Y-028201D01*
G01X0036024Y-028201D02*
G01X0036024Y-028257D01*
G01X0036024Y-028257D02*
G01X0036006Y-028332D01*
G01X0036006Y-028332D02*
G01X0035987Y-028370D01*
G01X0035987Y-028370D02*
G01X0035949Y-028407D01*
G01X0035949Y-028407D02*
G01X0035893Y-028426D01*
G01X0035893Y-028426D02*
G01X0035799Y-028426D01*
G01X0036399Y-028426D02*
G01X0036174Y-028426D01*
G01X0036287Y-028426D02*
G01X0036287Y-028032D01*
G01X0036287Y-028032D02*
G01X0036249Y-028089D01*
G01X0036249Y-028089D02*
G01X0036212Y-028126D01*
G01X0036212Y-028126D02*
G01X0036174Y-028145D01*
G01X0036643Y-028032D02*
G01X0036681Y-028032D01*
G01X0036681Y-028032D02*
G01X0036718Y-028051D01*
G01X0036718Y-028051D02*
G01X0036737Y-028070D01*
G01X0036737Y-028070D02*
G01X0036756Y-028107D01*
G01X0036756Y-028107D02*
G01X0036774Y-028182D01*
G01X0036774Y-028182D02*
G01X0036774Y-028276D01*
G01X0036774Y-028276D02*
G01X0036756Y-028351D01*
G01X0036756Y-028351D02*
G01X0036737Y-028388D01*
G01X0036737Y-028388D02*
G01X0036718Y-028407D01*
G01X0036718Y-028407D02*
G01X0036681Y-028426D01*
G01X0036681Y-028426D02*
G01X0036643Y-028426D01*
G01X0036643Y-028426D02*
G01X0036606Y-028407D01*
G01X0036606Y-028407D02*
G01X0036587Y-028388D01*
G01X0036587Y-028388D02*
G01X0036568Y-028351D01*
G01X0036568Y-028351D02*
G01X0036549Y-028276D01*
G01X0036549Y-028276D02*
G01X0036549Y-028182D01*
G01X0036549Y-028182D02*
G01X0036568Y-028107D01*
G01X0036568Y-028107D02*
G01X0036587Y-028070D01*
G01X0036587Y-028070D02*
G01X0036606Y-028051D01*
G01X0036606Y-028051D02*
G01X0036643Y-028032D01*
G01X0032999Y-028426D02*
G01X0032812Y-028426D01*
G01X0032812Y-028426D02*
G01X0032812Y-028032D01*
G01X0033131Y-028220D02*
G01X0033262Y-028220D01*
G01X0033318Y-028426D02*
G01X0033131Y-028426D01*
G01X0033131Y-028426D02*
G01X0033131Y-028032D01*
G01X0033131Y-028032D02*
G01X0033318Y-028032D01*
G01X0033487Y-028426D02*
G01X0033487Y-028032D01*
G01X0033487Y-028032D02*
G01X0033581Y-028032D01*
G01X0033581Y-028032D02*
G01X0033637Y-028051D01*
G01X0033637Y-028051D02*
G01X0033674Y-028089D01*
G01X0033674Y-028089D02*
G01X0033693Y-028126D01*
G01X0033693Y-028126D02*
G01X0033712Y-028201D01*
G01X0033712Y-028201D02*
G01X0033712Y-028257D01*
G01X0033712Y-028257D02*
G01X0033693Y-028332D01*
G01X0033693Y-028332D02*
G01X0033674Y-028370D01*
G01X0033674Y-028370D02*
G01X0033637Y-028407D01*
G01X0033637Y-028407D02*
G01X0033581Y-028426D01*
G01X0033581Y-028426D02*
G01X0033487Y-028426D01*
G01X0033899Y-028426D02*
G01X0033974Y-028426D01*
G01X0033974Y-028426D02*
G01X0034012Y-028407D01*
G01X0034012Y-028407D02*
G01X0034031Y-028388D01*
G01X0034031Y-028388D02*
G01X0034068Y-028332D01*
G01X0034068Y-028332D02*
G01X0034087Y-028257D01*
G01X0034087Y-028257D02*
G01X0034087Y-028107D01*
G01X0034087Y-028107D02*
G01X0034068Y-028070D01*
G01X0034068Y-028070D02*
G01X0034049Y-028051D01*
G01X0034049Y-028051D02*
G01X0034012Y-028032D01*
G01X0034012Y-028032D02*
G01X0033937Y-028032D01*
G01X0033937Y-028032D02*
G01X0033899Y-028051D01*
G01X0033899Y-028051D02*
G01X0033881Y-028070D01*
G01X0033881Y-028070D02*
G01X0033862Y-028107D01*
G01X0033862Y-028107D02*
G01X0033862Y-028201D01*
G01X0033862Y-028201D02*
G01X0033881Y-028239D01*
G01X0033881Y-028239D02*
G01X0033899Y-028257D01*
G01X0033899Y-028257D02*
G01X0033937Y-028276D01*
G01X0033937Y-028276D02*
G01X0034012Y-028276D01*
G01X0034012Y-028276D02*
G01X0034049Y-028257D01*
G01X0034049Y-028257D02*
G01X0034068Y-028239D01*
G01X0034068Y-028239D02*
G01X0034087Y-028201D01*
G01X0030499Y-028426D02*
G01X0030312Y-028426D01*
G01X0030312Y-028426D02*
G01X0030312Y-028032D01*
G01X0030631Y-028220D02*
G01X0030762Y-028220D01*
G01X0030818Y-028426D02*
G01X0030631Y-028426D01*
G01X0030631Y-028426D02*
G01X0030631Y-028032D01*
G01X0030631Y-028032D02*
G01X0030818Y-028032D01*
G01X0030987Y-028426D02*
G01X0030987Y-028032D01*
G01X0030987Y-028032D02*
G01X0031081Y-028032D01*
G01X0031081Y-028032D02*
G01X0031137Y-028051D01*
G01X0031137Y-028051D02*
G01X0031174Y-028089D01*
G01X0031174Y-028089D02*
G01X0031193Y-028126D01*
G01X0031193Y-028126D02*
G01X0031212Y-028201D01*
G01X0031212Y-028201D02*
G01X0031212Y-028257D01*
G01X0031212Y-028257D02*
G01X0031193Y-028332D01*
G01X0031193Y-028332D02*
G01X0031174Y-028370D01*
G01X0031174Y-028370D02*
G01X0031137Y-028407D01*
G01X0031137Y-028407D02*
G01X0031081Y-028426D01*
G01X0031081Y-028426D02*
G01X0030987Y-028426D01*
G01X0031437Y-028201D02*
G01X0031399Y-028182D01*
G01X0031399Y-028182D02*
G01X0031381Y-028164D01*
G01X0031381Y-028164D02*
G01X0031362Y-028126D01*
G01X0031362Y-028126D02*
G01X0031362Y-028107D01*
G01X0031362Y-028107D02*
G01X0031381Y-028070D01*
G01X0031381Y-028070D02*
G01X0031399Y-028051D01*
G01X0031399Y-028051D02*
G01X0031437Y-028032D01*
G01X0031437Y-028032D02*
G01X0031512Y-028032D01*
G01X0031512Y-028032D02*
G01X0031549Y-028051D01*
G01X0031549Y-028051D02*
G01X0031568Y-028070D01*
G01X0031568Y-028070D02*
G01X0031587Y-028107D01*
G01X0031587Y-028107D02*
G01X0031587Y-028126D01*
G01X0031587Y-028126D02*
G01X0031568Y-028164D01*
G01X0031568Y-028164D02*
G01X0031549Y-028182D01*
G01X0031549Y-028182D02*
G01X0031512Y-028201D01*
G01X0031512Y-028201D02*
G01X0031437Y-028201D01*
G01X0031437Y-028201D02*
G01X0031399Y-028220D01*
G01X0031399Y-028220D02*
G01X0031381Y-028239D01*
G01X0031381Y-028239D02*
G01X0031362Y-028276D01*
G01X0031362Y-028276D02*
G01X0031362Y-028351D01*
G01X0031362Y-028351D02*
G01X0031381Y-028388D01*
G01X0031381Y-028388D02*
G01X0031399Y-028407D01*
G01X0031399Y-028407D02*
G01X0031437Y-028426D01*
G01X0031437Y-028426D02*
G01X0031512Y-028426D01*
G01X0031512Y-028426D02*
G01X0031549Y-028407D01*
G01X0031549Y-028407D02*
G01X0031568Y-028388D01*
G01X0031568Y-028388D02*
G01X0031587Y-028351D01*
G01X0031587Y-028351D02*
G01X0031587Y-028276D01*
G01X0031587Y-028276D02*
G01X0031568Y-028239D01*
G01X0031568Y-028239D02*
G01X0031549Y-028220D01*
G01X0031549Y-028220D02*
G01X0031512Y-028201D01*
G01X0027999Y-028426D02*
G01X0027812Y-028426D01*
G01X0027812Y-028426D02*
G01X0027812Y-028032D01*
G01X0028131Y-028220D02*
G01X0028262Y-028220D01*
G01X0028318Y-028426D02*
G01X0028131Y-028426D01*
G01X0028131Y-028426D02*
G01X0028131Y-028032D01*
G01X0028131Y-028032D02*
G01X0028318Y-028032D01*
G01X0028487Y-028426D02*
G01X0028487Y-028032D01*
G01X0028487Y-028032D02*
G01X0028581Y-028032D01*
G01X0028581Y-028032D02*
G01X0028637Y-028051D01*
G01X0028637Y-028051D02*
G01X0028674Y-028089D01*
G01X0028674Y-028089D02*
G01X0028693Y-028126D01*
G01X0028693Y-028126D02*
G01X0028712Y-028201D01*
G01X0028712Y-028201D02*
G01X0028712Y-028257D01*
G01X0028712Y-028257D02*
G01X0028693Y-028332D01*
G01X0028693Y-028332D02*
G01X0028674Y-028370D01*
G01X0028674Y-028370D02*
G01X0028637Y-028407D01*
G01X0028637Y-028407D02*
G01X0028581Y-028426D01*
G01X0028581Y-028426D02*
G01X0028487Y-028426D01*
G01X0028843Y-028032D02*
G01X0029106Y-028032D01*
G01X0029106Y-028032D02*
G01X0028937Y-028426D01*
G01X0025499Y-028426D02*
G01X0025312Y-028426D01*
G01X0025312Y-028426D02*
G01X0025312Y-028032D01*
G01X0025631Y-028220D02*
G01X0025762Y-028220D01*
G01X0025818Y-028426D02*
G01X0025631Y-028426D01*
G01X0025631Y-028426D02*
G01X0025631Y-028032D01*
G01X0025631Y-028032D02*
G01X0025818Y-028032D01*
G01X0025987Y-028426D02*
G01X0025987Y-028032D01*
G01X0025987Y-028032D02*
G01X0026081Y-028032D01*
G01X0026081Y-028032D02*
G01X0026137Y-028051D01*
G01X0026137Y-028051D02*
G01X0026174Y-028089D01*
G01X0026174Y-028089D02*
G01X0026193Y-028126D01*
G01X0026193Y-028126D02*
G01X0026212Y-028201D01*
G01X0026212Y-028201D02*
G01X0026212Y-028257D01*
G01X0026212Y-028257D02*
G01X0026193Y-028332D01*
G01X0026193Y-028332D02*
G01X0026174Y-028370D01*
G01X0026174Y-028370D02*
G01X0026137Y-028407D01*
G01X0026137Y-028407D02*
G01X0026081Y-028426D01*
G01X0026081Y-028426D02*
G01X0025987Y-028426D01*
G01X0026549Y-028032D02*
G01X0026474Y-028032D01*
G01X0026474Y-028032D02*
G01X0026437Y-028051D01*
G01X0026437Y-028051D02*
G01X0026418Y-028070D01*
G01X0026418Y-028070D02*
G01X0026381Y-028126D01*
G01X0026381Y-028126D02*
G01X0026362Y-028201D01*
G01X0026362Y-028201D02*
G01X0026362Y-028351D01*
G01X0026362Y-028351D02*
G01X0026381Y-028388D01*
G01X0026381Y-028388D02*
G01X0026399Y-028407D01*
G01X0026399Y-028407D02*
G01X0026437Y-028426D01*
G01X0026437Y-028426D02*
G01X0026512Y-028426D01*
G01X0026512Y-028426D02*
G01X0026549Y-028407D01*
G01X0026549Y-028407D02*
G01X0026568Y-028388D01*
G01X0026568Y-028388D02*
G01X0026587Y-028351D01*
G01X0026587Y-028351D02*
G01X0026587Y-028257D01*
G01X0026587Y-028257D02*
G01X0026568Y-028220D01*
G01X0026568Y-028220D02*
G01X0026549Y-028201D01*
G01X0026549Y-028201D02*
G01X0026512Y-028182D01*
G01X0026512Y-028182D02*
G01X0026437Y-028182D01*
G01X0026437Y-028182D02*
G01X0026399Y-028201D01*
G01X0026399Y-028201D02*
G01X0026381Y-028220D01*
G01X0026381Y-028220D02*
G01X0026362Y-028257D01*
G01X0022999Y-028426D02*
G01X0022812Y-028426D01*
G01X0022812Y-028426D02*
G01X0022812Y-028032D01*
G01X0023131Y-028220D02*
G01X0023262Y-028220D01*
G01X0023318Y-028426D02*
G01X0023131Y-028426D01*
G01X0023131Y-028426D02*
G01X0023131Y-028032D01*
G01X0023131Y-028032D02*
G01X0023318Y-028032D01*
G01X0023487Y-028426D02*
G01X0023487Y-028032D01*
G01X0023487Y-028032D02*
G01X0023581Y-028032D01*
G01X0023581Y-028032D02*
G01X0023637Y-028051D01*
G01X0023637Y-028051D02*
G01X0023674Y-028089D01*
G01X0023674Y-028089D02*
G01X0023693Y-028126D01*
G01X0023693Y-028126D02*
G01X0023712Y-028201D01*
G01X0023712Y-028201D02*
G01X0023712Y-028257D01*
G01X0023712Y-028257D02*
G01X0023693Y-028332D01*
G01X0023693Y-028332D02*
G01X0023674Y-028370D01*
G01X0023674Y-028370D02*
G01X0023637Y-028407D01*
G01X0023637Y-028407D02*
G01X0023581Y-028426D01*
G01X0023581Y-028426D02*
G01X0023487Y-028426D01*
G01X0024068Y-028032D02*
G01X0023881Y-028032D01*
G01X0023881Y-028032D02*
G01X0023862Y-028220D01*
G01X0023862Y-028220D02*
G01X0023881Y-028201D01*
G01X0023881Y-028201D02*
G01X0023918Y-028182D01*
G01X0023918Y-028182D02*
G01X0024012Y-028182D01*
G01X0024012Y-028182D02*
G01X0024049Y-028201D01*
G01X0024049Y-028201D02*
G01X0024068Y-028220D01*
G01X0024068Y-028220D02*
G01X0024087Y-028257D01*
G01X0024087Y-028257D02*
G01X0024087Y-028351D01*
G01X0024087Y-028351D02*
G01X0024068Y-028388D01*
G01X0024068Y-028388D02*
G01X0024049Y-028407D01*
G01X0024049Y-028407D02*
G01X0024012Y-028426D01*
G01X0024012Y-028426D02*
G01X0023918Y-028426D01*
G01X0023918Y-028426D02*
G01X0023881Y-028407D01*
G01X0023881Y-028407D02*
G01X0023862Y-028388D01*
G01X0020499Y-028426D02*
G01X0020312Y-028426D01*
G01X0020312Y-028426D02*
G01X0020312Y-028032D01*
G01X0020631Y-028220D02*
G01X0020762Y-028220D01*
G01X0020818Y-028426D02*
G01X0020631Y-028426D01*
G01X0020631Y-028426D02*
G01X0020631Y-028032D01*
G01X0020631Y-028032D02*
G01X0020818Y-028032D01*
G01X0020987Y-028426D02*
G01X0020987Y-028032D01*
G01X0020987Y-028032D02*
G01X0021081Y-028032D01*
G01X0021081Y-028032D02*
G01X0021137Y-028051D01*
G01X0021137Y-028051D02*
G01X0021174Y-028089D01*
G01X0021174Y-028089D02*
G01X0021193Y-028126D01*
G01X0021193Y-028126D02*
G01X0021212Y-028201D01*
G01X0021212Y-028201D02*
G01X0021212Y-028257D01*
G01X0021212Y-028257D02*
G01X0021193Y-028332D01*
G01X0021193Y-028332D02*
G01X0021174Y-028370D01*
G01X0021174Y-028370D02*
G01X0021137Y-028407D01*
G01X0021137Y-028407D02*
G01X0021081Y-028426D01*
G01X0021081Y-028426D02*
G01X0020987Y-028426D01*
G01X0021549Y-028164D02*
G01X0021549Y-028426D01*
G01X0021456Y-028014D02*
G01X0021362Y-028295D01*
G01X0021362Y-028295D02*
G01X0021606Y-028295D01*
G01X0017999Y-028426D02*
G01X0017812Y-028426D01*
G01X0017812Y-028426D02*
G01X0017812Y-028032D01*
G01X0018131Y-028220D02*
G01X0018262Y-028220D01*
G01X0018318Y-028426D02*
G01X0018131Y-028426D01*
G01X0018131Y-028426D02*
G01X0018131Y-028032D01*
G01X0018131Y-028032D02*
G01X0018318Y-028032D01*
G01X0018487Y-028426D02*
G01X0018487Y-028032D01*
G01X0018487Y-028032D02*
G01X0018581Y-028032D01*
G01X0018581Y-028032D02*
G01X0018637Y-028051D01*
G01X0018637Y-028051D02*
G01X0018674Y-028089D01*
G01X0018674Y-028089D02*
G01X0018693Y-028126D01*
G01X0018693Y-028126D02*
G01X0018712Y-028201D01*
G01X0018712Y-028201D02*
G01X0018712Y-028257D01*
G01X0018712Y-028257D02*
G01X0018693Y-028332D01*
G01X0018693Y-028332D02*
G01X0018674Y-028370D01*
G01X0018674Y-028370D02*
G01X0018637Y-028407D01*
G01X0018637Y-028407D02*
G01X0018581Y-028426D01*
G01X0018581Y-028426D02*
G01X0018487Y-028426D01*
G01X0018843Y-028032D02*
G01X0019087Y-028032D01*
G01X0019087Y-028032D02*
G01X0018956Y-028182D01*
G01X0018956Y-028182D02*
G01X0019012Y-028182D01*
G01X0019012Y-028182D02*
G01X0019049Y-028201D01*
G01X0019049Y-028201D02*
G01X0019068Y-028220D01*
G01X0019068Y-028220D02*
G01X0019087Y-028257D01*
G01X0019087Y-028257D02*
G01X0019087Y-028351D01*
G01X0019087Y-028351D02*
G01X0019068Y-028388D01*
G01X0019068Y-028388D02*
G01X0019049Y-028407D01*
G01X0019049Y-028407D02*
G01X0019012Y-028426D01*
G01X0019012Y-028426D02*
G01X0018899Y-028426D01*
G01X0018899Y-028426D02*
G01X0018862Y-028407D01*
G01X0018862Y-028407D02*
G01X0018843Y-028388D01*
G01X0015499Y-028426D02*
G01X0015312Y-028426D01*
G01X0015312Y-028426D02*
G01X0015312Y-028032D01*
G01X0015631Y-028220D02*
G01X0015762Y-028220D01*
G01X0015818Y-028426D02*
G01X0015631Y-028426D01*
G01X0015631Y-028426D02*
G01X0015631Y-028032D01*
G01X0015631Y-028032D02*
G01X0015818Y-028032D01*
G01X0015987Y-028426D02*
G01X0015987Y-028032D01*
G01X0015987Y-028032D02*
G01X0016081Y-028032D01*
G01X0016081Y-028032D02*
G01X0016137Y-028051D01*
G01X0016137Y-028051D02*
G01X0016174Y-028089D01*
G01X0016174Y-028089D02*
G01X0016193Y-028126D01*
G01X0016193Y-028126D02*
G01X0016212Y-028201D01*
G01X0016212Y-028201D02*
G01X0016212Y-028257D01*
G01X0016212Y-028257D02*
G01X0016193Y-028332D01*
G01X0016193Y-028332D02*
G01X0016174Y-028370D01*
G01X0016174Y-028370D02*
G01X0016137Y-028407D01*
G01X0016137Y-028407D02*
G01X0016081Y-028426D01*
G01X0016081Y-028426D02*
G01X0015987Y-028426D01*
G01X0016362Y-028070D02*
G01X0016381Y-028051D01*
G01X0016381Y-028051D02*
G01X0016418Y-028032D01*
G01X0016418Y-028032D02*
G01X0016512Y-028032D01*
G01X0016512Y-028032D02*
G01X0016549Y-028051D01*
G01X0016549Y-028051D02*
G01X0016568Y-028070D01*
G01X0016568Y-028070D02*
G01X0016587Y-028107D01*
G01X0016587Y-028107D02*
G01X0016587Y-028145D01*
G01X0016587Y-028145D02*
G01X0016568Y-028201D01*
G01X0016568Y-028201D02*
G01X0016343Y-028426D01*
G01X0016343Y-028426D02*
G01X0016587Y-028426D01*
G01X0012999Y-028426D02*
G01X0012812Y-028426D01*
G01X0012812Y-028426D02*
G01X0012812Y-028032D01*
G01X0013131Y-028220D02*
G01X0013262Y-028220D01*
G01X0013318Y-028426D02*
G01X0013131Y-028426D01*
G01X0013131Y-028426D02*
G01X0013131Y-028032D01*
G01X0013131Y-028032D02*
G01X0013318Y-028032D01*
G01X0013487Y-028426D02*
G01X0013487Y-028032D01*
G01X0013487Y-028032D02*
G01X0013581Y-028032D01*
G01X0013581Y-028032D02*
G01X0013637Y-028051D01*
G01X0013637Y-028051D02*
G01X0013674Y-028089D01*
G01X0013674Y-028089D02*
G01X0013693Y-028126D01*
G01X0013693Y-028126D02*
G01X0013712Y-028201D01*
G01X0013712Y-028201D02*
G01X0013712Y-028257D01*
G01X0013712Y-028257D02*
G01X0013693Y-028332D01*
G01X0013693Y-028332D02*
G01X0013674Y-028370D01*
G01X0013674Y-028370D02*
G01X0013637Y-028407D01*
G01X0013637Y-028407D02*
G01X0013581Y-028426D01*
G01X0013581Y-028426D02*
G01X0013487Y-028426D01*
G01X0014087Y-028426D02*
G01X0013862Y-028426D01*
G01X0013974Y-028426D02*
G01X0013974Y-028032D01*
G01X0013974Y-028032D02*
G01X0013937Y-028089D01*
G01X0013937Y-028089D02*
G01X0013899Y-028126D01*
G01X0013899Y-028126D02*
G01X0013862Y-028145D01*
G01X0000000Y0000000D02*
G54D13*
G01X0010440Y-030740D02*
G01X0010440Y-025740D01*
G01X0037440Y-030740D02*
G01X0010440Y-030740D01*
G01X0037440Y-025740D02*
G01X0037440Y-030740D01*
G01X0010440Y-025740D02*
G01X0037440Y-025740D01*
M02*
