M48
;DRILL file {KiCad 4.0.5-e0-6337~49~ubuntu16.04.1} date Mon Aug 14 10:41:38 2017
;FORMAT={-:-/ absolute / metric / decimal}
FMAT,2
METRIC,TZ
T1C1.001
T2C1.016
%
G90
G05
M71
T1
X34.138Y-70.46
X34.138Y-73.
X40.488Y-70.46
X40.488Y-73.
X46.838Y-70.46
X46.838Y-73.
X53.188Y-70.46
X53.188Y-73.
X59.538Y-70.46
X59.538Y-73.
X65.888Y-70.46
X65.888Y-73.
X72.238Y-70.46
X72.238Y-73.
X78.588Y-70.46
X78.588Y-73.
X84.938Y-70.46
X84.938Y-73.
X91.288Y-70.46
X91.288Y-73.
T2
X29.058Y-70.46
X29.058Y-73.
T0
M30
