%TF.GenerationSoftware,KiCad,Pcbnew,4.0.5-e0-6337~49~ubuntu16.04.1*%
%TF.CreationDate,2017-08-06T10:19:08-07:00*%
%TF.ProjectId,mcphail-ir-emitter-board,6D63706861696C2D69722D656D697474,1.0*%
%TF.FileFunction,Soldermask,Top*%
%FSLAX46Y46*%
G04 Gerber Fmt 4.6, Leading zero omitted, Abs format (unit mm)*
G04 Created by KiCad (PCBNEW 4.0.5-e0-6337~49~ubuntu16.04.1) date Sun Aug  6 10:19:08 2017*
%MOMM*%
%LPD*%
G01*
G04 APERTURE LIST*
%ADD10C,0.350000*%
G04 APERTURE END LIST*
D10*
G36*
X104151395Y-82727842D02*
X104160534Y-82727906D01*
X104372366Y-82751667D01*
X104575548Y-82816120D01*
X104762342Y-82918811D01*
X104925632Y-83055828D01*
X105059199Y-83221951D01*
X105157955Y-83410855D01*
X105218139Y-83615342D01*
X105218143Y-83615383D01*
X105218144Y-83615387D01*
X105237459Y-83827623D01*
X105215183Y-84039570D01*
X105215181Y-84039575D01*
X105215177Y-84039617D01*
X105152144Y-84243245D01*
X105050760Y-84430750D01*
X104914886Y-84594993D01*
X104749699Y-84729717D01*
X104561490Y-84829789D01*
X104357428Y-84891399D01*
X104145285Y-84912200D01*
X104134679Y-84912200D01*
X104128605Y-84912158D01*
X104119466Y-84912094D01*
X103907634Y-84888333D01*
X103704452Y-84823880D01*
X103517658Y-84721189D01*
X103354368Y-84584172D01*
X103220801Y-84418049D01*
X103122045Y-84229145D01*
X103061861Y-84024658D01*
X103061857Y-84024617D01*
X103061856Y-84024613D01*
X103042541Y-83812377D01*
X103064817Y-83600430D01*
X103064819Y-83600425D01*
X103064823Y-83600383D01*
X103127856Y-83396755D01*
X103229240Y-83209250D01*
X103365114Y-83045007D01*
X103530301Y-82910283D01*
X103718510Y-82810211D01*
X103922572Y-82748601D01*
X104134715Y-82727800D01*
X104145321Y-82727800D01*
X104151395Y-82727842D01*
X104151395Y-82727842D01*
G37*
G36*
X110296200Y-84846200D02*
X108143800Y-84846200D01*
X108143800Y-82793800D01*
X110296200Y-82793800D01*
X110296200Y-84846200D01*
X110296200Y-84846200D01*
G37*
G36*
X167446200Y-84846200D02*
X165293800Y-84846200D01*
X165293800Y-82793800D01*
X167446200Y-82793800D01*
X167446200Y-84846200D01*
X167446200Y-84846200D01*
G37*
G36*
X161096200Y-84846200D02*
X158943800Y-84846200D01*
X158943800Y-82793800D01*
X161096200Y-82793800D01*
X161096200Y-84846200D01*
X161096200Y-84846200D01*
G37*
G36*
X154746200Y-84846200D02*
X152593800Y-84846200D01*
X152593800Y-82793800D01*
X154746200Y-82793800D01*
X154746200Y-84846200D01*
X154746200Y-84846200D01*
G37*
G36*
X148396200Y-84846200D02*
X146243800Y-84846200D01*
X146243800Y-82793800D01*
X148396200Y-82793800D01*
X148396200Y-84846200D01*
X148396200Y-84846200D01*
G37*
G36*
X142046200Y-84846200D02*
X139893800Y-84846200D01*
X139893800Y-82793800D01*
X142046200Y-82793800D01*
X142046200Y-84846200D01*
X142046200Y-84846200D01*
G37*
G36*
X135696200Y-84846200D02*
X133543800Y-84846200D01*
X133543800Y-82793800D01*
X135696200Y-82793800D01*
X135696200Y-84846200D01*
X135696200Y-84846200D01*
G37*
G36*
X129346200Y-84846200D02*
X127193800Y-84846200D01*
X127193800Y-82793800D01*
X129346200Y-82793800D01*
X129346200Y-84846200D01*
X129346200Y-84846200D01*
G37*
G36*
X122996200Y-84846200D02*
X120843800Y-84846200D01*
X120843800Y-82793800D01*
X122996200Y-82793800D01*
X122996200Y-84846200D01*
X122996200Y-84846200D01*
G37*
G36*
X116646200Y-84846200D02*
X114493800Y-84846200D01*
X114493800Y-82793800D01*
X116646200Y-82793800D01*
X116646200Y-84846200D01*
X116646200Y-84846200D01*
G37*
G36*
X105232200Y-82372200D02*
X103047800Y-82372200D01*
X103047800Y-80187800D01*
X105232200Y-80187800D01*
X105232200Y-82372200D01*
X105232200Y-82372200D01*
G37*
G36*
X160127790Y-80254481D02*
X160324921Y-80294947D01*
X160510451Y-80372937D01*
X160677292Y-80485473D01*
X160819098Y-80628272D01*
X160930466Y-80795895D01*
X161007156Y-80981958D01*
X161046176Y-81179027D01*
X161046176Y-81179032D01*
X161046244Y-81179376D01*
X161043034Y-81409239D01*
X161042957Y-81409577D01*
X161042957Y-81409586D01*
X160998449Y-81605490D01*
X160916596Y-81789335D01*
X160800588Y-81953786D01*
X160654850Y-82092571D01*
X160484931Y-82200405D01*
X160297299Y-82273182D01*
X160099112Y-82308128D01*
X159897905Y-82303913D01*
X159701351Y-82260699D01*
X159516933Y-82180128D01*
X159351682Y-82065275D01*
X159211882Y-81920509D01*
X159102864Y-81751345D01*
X159028777Y-81564224D01*
X158992449Y-81366288D01*
X158995258Y-81165058D01*
X159037102Y-80968205D01*
X159116380Y-80783232D01*
X159230080Y-80617178D01*
X159373865Y-80476373D01*
X159542265Y-80366176D01*
X159728860Y-80290786D01*
X159926540Y-80253077D01*
X160127790Y-80254481D01*
X160127790Y-80254481D01*
G37*
G36*
X166477790Y-80254481D02*
X166674921Y-80294947D01*
X166860451Y-80372937D01*
X167027292Y-80485473D01*
X167169098Y-80628272D01*
X167280466Y-80795895D01*
X167357156Y-80981958D01*
X167396176Y-81179027D01*
X167396176Y-81179032D01*
X167396244Y-81179376D01*
X167393034Y-81409239D01*
X167392957Y-81409577D01*
X167392957Y-81409586D01*
X167348449Y-81605490D01*
X167266596Y-81789335D01*
X167150588Y-81953786D01*
X167004850Y-82092571D01*
X166834931Y-82200405D01*
X166647299Y-82273182D01*
X166449112Y-82308128D01*
X166247905Y-82303913D01*
X166051351Y-82260699D01*
X165866933Y-82180128D01*
X165701682Y-82065275D01*
X165561882Y-81920509D01*
X165452864Y-81751345D01*
X165378777Y-81564224D01*
X165342449Y-81366288D01*
X165345258Y-81165058D01*
X165387102Y-80968205D01*
X165466380Y-80783232D01*
X165580080Y-80617178D01*
X165723865Y-80476373D01*
X165892265Y-80366176D01*
X166078860Y-80290786D01*
X166276540Y-80253077D01*
X166477790Y-80254481D01*
X166477790Y-80254481D01*
G37*
G36*
X153777790Y-80254481D02*
X153974921Y-80294947D01*
X154160451Y-80372937D01*
X154327292Y-80485473D01*
X154469098Y-80628272D01*
X154580466Y-80795895D01*
X154657156Y-80981958D01*
X154696176Y-81179027D01*
X154696176Y-81179032D01*
X154696244Y-81179376D01*
X154693034Y-81409239D01*
X154692957Y-81409577D01*
X154692957Y-81409586D01*
X154648449Y-81605490D01*
X154566596Y-81789335D01*
X154450588Y-81953786D01*
X154304850Y-82092571D01*
X154134931Y-82200405D01*
X153947299Y-82273182D01*
X153749112Y-82308128D01*
X153547905Y-82303913D01*
X153351351Y-82260699D01*
X153166933Y-82180128D01*
X153001682Y-82065275D01*
X152861882Y-81920509D01*
X152752864Y-81751345D01*
X152678777Y-81564224D01*
X152642449Y-81366288D01*
X152645258Y-81165058D01*
X152687102Y-80968205D01*
X152766380Y-80783232D01*
X152880080Y-80617178D01*
X153023865Y-80476373D01*
X153192265Y-80366176D01*
X153378860Y-80290786D01*
X153576540Y-80253077D01*
X153777790Y-80254481D01*
X153777790Y-80254481D01*
G37*
G36*
X147427790Y-80254481D02*
X147624921Y-80294947D01*
X147810451Y-80372937D01*
X147977292Y-80485473D01*
X148119098Y-80628272D01*
X148230466Y-80795895D01*
X148307156Y-80981958D01*
X148346176Y-81179027D01*
X148346176Y-81179032D01*
X148346244Y-81179376D01*
X148343034Y-81409239D01*
X148342957Y-81409577D01*
X148342957Y-81409586D01*
X148298449Y-81605490D01*
X148216596Y-81789335D01*
X148100588Y-81953786D01*
X147954850Y-82092571D01*
X147784931Y-82200405D01*
X147597299Y-82273182D01*
X147399112Y-82308128D01*
X147197905Y-82303913D01*
X147001351Y-82260699D01*
X146816933Y-82180128D01*
X146651682Y-82065275D01*
X146511882Y-81920509D01*
X146402864Y-81751345D01*
X146328777Y-81564224D01*
X146292449Y-81366288D01*
X146295258Y-81165058D01*
X146337102Y-80968205D01*
X146416380Y-80783232D01*
X146530080Y-80617178D01*
X146673865Y-80476373D01*
X146842265Y-80366176D01*
X147028860Y-80290786D01*
X147226540Y-80253077D01*
X147427790Y-80254481D01*
X147427790Y-80254481D01*
G37*
G36*
X141077790Y-80254481D02*
X141274921Y-80294947D01*
X141460451Y-80372937D01*
X141627292Y-80485473D01*
X141769098Y-80628272D01*
X141880466Y-80795895D01*
X141957156Y-80981958D01*
X141996176Y-81179027D01*
X141996176Y-81179032D01*
X141996244Y-81179376D01*
X141993034Y-81409239D01*
X141992957Y-81409577D01*
X141992957Y-81409586D01*
X141948449Y-81605490D01*
X141866596Y-81789335D01*
X141750588Y-81953786D01*
X141604850Y-82092571D01*
X141434931Y-82200405D01*
X141247299Y-82273182D01*
X141049112Y-82308128D01*
X140847905Y-82303913D01*
X140651351Y-82260699D01*
X140466933Y-82180128D01*
X140301682Y-82065275D01*
X140161882Y-81920509D01*
X140052864Y-81751345D01*
X139978777Y-81564224D01*
X139942449Y-81366288D01*
X139945258Y-81165058D01*
X139987102Y-80968205D01*
X140066380Y-80783232D01*
X140180080Y-80617178D01*
X140323865Y-80476373D01*
X140492265Y-80366176D01*
X140678860Y-80290786D01*
X140876540Y-80253077D01*
X141077790Y-80254481D01*
X141077790Y-80254481D01*
G37*
G36*
X109327790Y-80254481D02*
X109524921Y-80294947D01*
X109710451Y-80372937D01*
X109877292Y-80485473D01*
X110019098Y-80628272D01*
X110130466Y-80795895D01*
X110207156Y-80981958D01*
X110246176Y-81179027D01*
X110246176Y-81179032D01*
X110246244Y-81179376D01*
X110243034Y-81409239D01*
X110242957Y-81409577D01*
X110242957Y-81409586D01*
X110198449Y-81605490D01*
X110116596Y-81789335D01*
X110000588Y-81953786D01*
X109854850Y-82092571D01*
X109684931Y-82200405D01*
X109497299Y-82273182D01*
X109299112Y-82308128D01*
X109097905Y-82303913D01*
X108901351Y-82260699D01*
X108716933Y-82180128D01*
X108551682Y-82065275D01*
X108411882Y-81920509D01*
X108302864Y-81751345D01*
X108228777Y-81564224D01*
X108192449Y-81366288D01*
X108195258Y-81165058D01*
X108237102Y-80968205D01*
X108316380Y-80783232D01*
X108430080Y-80617178D01*
X108573865Y-80476373D01*
X108742265Y-80366176D01*
X108928860Y-80290786D01*
X109126540Y-80253077D01*
X109327790Y-80254481D01*
X109327790Y-80254481D01*
G37*
G36*
X134727790Y-80254481D02*
X134924921Y-80294947D01*
X135110451Y-80372937D01*
X135277292Y-80485473D01*
X135419098Y-80628272D01*
X135530466Y-80795895D01*
X135607156Y-80981958D01*
X135646176Y-81179027D01*
X135646176Y-81179032D01*
X135646244Y-81179376D01*
X135643034Y-81409239D01*
X135642957Y-81409577D01*
X135642957Y-81409586D01*
X135598449Y-81605490D01*
X135516596Y-81789335D01*
X135400588Y-81953786D01*
X135254850Y-82092571D01*
X135084931Y-82200405D01*
X134897299Y-82273182D01*
X134699112Y-82308128D01*
X134497905Y-82303913D01*
X134301351Y-82260699D01*
X134116933Y-82180128D01*
X133951682Y-82065275D01*
X133811882Y-81920509D01*
X133702864Y-81751345D01*
X133628777Y-81564224D01*
X133592449Y-81366288D01*
X133595258Y-81165058D01*
X133637102Y-80968205D01*
X133716380Y-80783232D01*
X133830080Y-80617178D01*
X133973865Y-80476373D01*
X134142265Y-80366176D01*
X134328860Y-80290786D01*
X134526540Y-80253077D01*
X134727790Y-80254481D01*
X134727790Y-80254481D01*
G37*
G36*
X128377790Y-80254481D02*
X128574921Y-80294947D01*
X128760451Y-80372937D01*
X128927292Y-80485473D01*
X129069098Y-80628272D01*
X129180466Y-80795895D01*
X129257156Y-80981958D01*
X129296176Y-81179027D01*
X129296176Y-81179032D01*
X129296244Y-81179376D01*
X129293034Y-81409239D01*
X129292957Y-81409577D01*
X129292957Y-81409586D01*
X129248449Y-81605490D01*
X129166596Y-81789335D01*
X129050588Y-81953786D01*
X128904850Y-82092571D01*
X128734931Y-82200405D01*
X128547299Y-82273182D01*
X128349112Y-82308128D01*
X128147905Y-82303913D01*
X127951351Y-82260699D01*
X127766933Y-82180128D01*
X127601682Y-82065275D01*
X127461882Y-81920509D01*
X127352864Y-81751345D01*
X127278777Y-81564224D01*
X127242449Y-81366288D01*
X127245258Y-81165058D01*
X127287102Y-80968205D01*
X127366380Y-80783232D01*
X127480080Y-80617178D01*
X127623865Y-80476373D01*
X127792265Y-80366176D01*
X127978860Y-80290786D01*
X128176540Y-80253077D01*
X128377790Y-80254481D01*
X128377790Y-80254481D01*
G37*
G36*
X115677790Y-80254481D02*
X115874921Y-80294947D01*
X116060451Y-80372937D01*
X116227292Y-80485473D01*
X116369098Y-80628272D01*
X116480466Y-80795895D01*
X116557156Y-80981958D01*
X116596176Y-81179027D01*
X116596176Y-81179032D01*
X116596244Y-81179376D01*
X116593034Y-81409239D01*
X116592957Y-81409577D01*
X116592957Y-81409586D01*
X116548449Y-81605490D01*
X116466596Y-81789335D01*
X116350588Y-81953786D01*
X116204850Y-82092571D01*
X116034931Y-82200405D01*
X115847299Y-82273182D01*
X115649112Y-82308128D01*
X115447905Y-82303913D01*
X115251351Y-82260699D01*
X115066933Y-82180128D01*
X114901682Y-82065275D01*
X114761882Y-81920509D01*
X114652864Y-81751345D01*
X114578777Y-81564224D01*
X114542449Y-81366288D01*
X114545258Y-81165058D01*
X114587102Y-80968205D01*
X114666380Y-80783232D01*
X114780080Y-80617178D01*
X114923865Y-80476373D01*
X115092265Y-80366176D01*
X115278860Y-80290786D01*
X115476540Y-80253077D01*
X115677790Y-80254481D01*
X115677790Y-80254481D01*
G37*
G36*
X122027790Y-80254481D02*
X122224921Y-80294947D01*
X122410451Y-80372937D01*
X122577292Y-80485473D01*
X122719098Y-80628272D01*
X122830466Y-80795895D01*
X122907156Y-80981958D01*
X122946176Y-81179027D01*
X122946176Y-81179032D01*
X122946244Y-81179376D01*
X122943034Y-81409239D01*
X122942957Y-81409577D01*
X122942957Y-81409586D01*
X122898449Y-81605490D01*
X122816596Y-81789335D01*
X122700588Y-81953786D01*
X122554850Y-82092571D01*
X122384931Y-82200405D01*
X122197299Y-82273182D01*
X121999112Y-82308128D01*
X121797905Y-82303913D01*
X121601351Y-82260699D01*
X121416933Y-82180128D01*
X121251682Y-82065275D01*
X121111882Y-81920509D01*
X121002864Y-81751345D01*
X120928777Y-81564224D01*
X120892449Y-81366288D01*
X120895258Y-81165058D01*
X120937102Y-80968205D01*
X121016380Y-80783232D01*
X121130080Y-80617178D01*
X121273865Y-80476373D01*
X121442265Y-80366176D01*
X121628860Y-80290786D01*
X121826540Y-80253077D01*
X122027790Y-80254481D01*
X122027790Y-80254481D01*
G37*
M02*
