G04 This is an RS-274x file exported by *
G04 gerbv version 2.6.0 *
G04 More information is available about gerbv at *
G04 http://gerbv.gpleda.org/ *
G04 --End of header info--*
%MOIN*%
%FSLAX34Y34*%
%IPPOS*%
G04 --Define apertures--*
%ADD10C,0.0050*%
%ADD11C,0.0060*%
%ADD12C,0.0079*%
%ADD13C,0.0118*%
%ADD14C,0.0138*%
%ADD15C,0.0059*%
G04 --Start main section--*
G54D11*
G01X0040000Y-035000D02*
G01X0040000Y-030000D01*
G01X0067000Y-035000D02*
G01X0040000Y-035000D01*
G01X0067000Y-030000D02*
G01X0067000Y-035000D01*
G01X0040000Y-030000D02*
G01X0067000Y-030000D01*
G54D12*
G01X0042803Y-031803D02*
G01X0043197Y-032197D01*
G01X0043197Y-031803D02*
G01X0042803Y-032197D01*
G01X0042803Y-032803D02*
G01X0043197Y-033197D01*
G01X0043197Y-032803D02*
G01X0042803Y-033197D01*
G01X0045303Y-031803D02*
G01X0045697Y-032197D01*
G01X0045697Y-031803D02*
G01X0045303Y-032197D01*
G01X0045303Y-032803D02*
G01X0045697Y-033197D01*
G01X0045697Y-032803D02*
G01X0045303Y-033197D01*
G01X0047803Y-031803D02*
G01X0048197Y-032197D01*
G01X0048197Y-031803D02*
G01X0047803Y-032197D01*
G01X0047803Y-032803D02*
G01X0048197Y-033197D01*
G01X0048197Y-032803D02*
G01X0047803Y-033197D01*
G01X0050303Y-031803D02*
G01X0050697Y-032197D01*
G01X0050697Y-031803D02*
G01X0050303Y-032197D01*
G01X0050303Y-032803D02*
G01X0050697Y-033197D01*
G01X0050697Y-032803D02*
G01X0050303Y-033197D01*
G01X0052803Y-031803D02*
G01X0053197Y-032197D01*
G01X0053197Y-031803D02*
G01X0052803Y-032197D01*
G01X0052803Y-032803D02*
G01X0053197Y-033197D01*
G01X0053197Y-032803D02*
G01X0052803Y-033197D01*
G01X0055303Y-031803D02*
G01X0055697Y-032197D01*
G01X0055697Y-031803D02*
G01X0055303Y-032197D01*
G01X0055303Y-032803D02*
G01X0055697Y-033197D01*
G01X0055697Y-032803D02*
G01X0055303Y-033197D01*
G01X0057803Y-031803D02*
G01X0058197Y-032197D01*
G01X0058197Y-031803D02*
G01X0057803Y-032197D01*
G01X0057803Y-032803D02*
G01X0058197Y-033197D01*
G01X0058197Y-032803D02*
G01X0057803Y-033197D01*
G01X0060303Y-031803D02*
G01X0060697Y-032197D01*
G01X0060697Y-031803D02*
G01X0060303Y-032197D01*
G01X0060303Y-032803D02*
G01X0060697Y-033197D01*
G01X0060697Y-032803D02*
G01X0060303Y-033197D01*
G01X0062803Y-031803D02*
G01X0063197Y-032197D01*
G01X0063197Y-031803D02*
G01X0062803Y-032197D01*
G01X0062803Y-032803D02*
G01X0063197Y-033197D01*
G01X0063197Y-032803D02*
G01X0062803Y-033197D01*
G01X0065303Y-031803D02*
G01X0065697Y-032197D01*
G01X0065697Y-031803D02*
G01X0065303Y-032197D01*
G01X0065303Y-032803D02*
G01X0065697Y-033197D01*
G01X0065697Y-032803D02*
G01X0065303Y-033197D01*
G01X0041200Y-032000D02*
G75*
G03X0041200Y-032000I-000200J0000000D01*
G01X0041200Y-033000D02*
G75*
G03X0041200Y-033000I-000200J0000000D01*
G54D13*
G01X0041039Y-036864D02*
G01X0041039Y-035682D01*
G01X0041039Y-035682D02*
G01X0041320Y-035682D01*
G01X0041320Y-035682D02*
G01X0041489Y-035739D01*
G01X0041489Y-035739D02*
G01X0041601Y-035851D01*
G01X0041601Y-035851D02*
G01X0041657Y-035964D01*
G01X0041657Y-035964D02*
G01X0041714Y-036189D01*
G01X0041714Y-036189D02*
G01X0041714Y-036357D01*
G01X0041714Y-036357D02*
G01X0041657Y-036582D01*
G01X0041657Y-036582D02*
G01X0041601Y-036695D01*
G01X0041601Y-036695D02*
G01X0041489Y-036807D01*
G01X0041489Y-036807D02*
G01X0041320Y-036864D01*
G01X0041320Y-036864D02*
G01X0041039Y-036864D01*
G01X0042220Y-036864D02*
G01X0042220Y-036076D01*
G01X0042220Y-036301D02*
G01X0042276Y-036189D01*
G01X0042276Y-036189D02*
G01X0042332Y-036132D01*
G01X0042332Y-036132D02*
G01X0042445Y-036076D01*
G01X0042445Y-036076D02*
G01X0042557Y-036076D01*
G01X0042951Y-036864D02*
G01X0042951Y-036076D01*
G01X0042951Y-035682D02*
G01X0042895Y-035739D01*
G01X0042895Y-035739D02*
G01X0042951Y-035795D01*
G01X0042951Y-035795D02*
G01X0043007Y-035739D01*
G01X0043007Y-035739D02*
G01X0042951Y-035682D01*
G01X0042951Y-035682D02*
G01X0042951Y-035795D01*
G01X0043682Y-036864D02*
G01X0043570Y-036807D01*
G01X0043570Y-036807D02*
G01X0043513Y-036695D01*
G01X0043513Y-036695D02*
G01X0043513Y-035682D01*
G01X0044301Y-036864D02*
G01X0044188Y-036807D01*
G01X0044188Y-036807D02*
G01X0044132Y-036695D01*
G01X0044132Y-036695D02*
G01X0044132Y-035682D01*
G01X0045651Y-036864D02*
G01X0045651Y-035682D01*
G01X0045651Y-035682D02*
G01X0046044Y-036526D01*
G01X0046044Y-036526D02*
G01X0046438Y-035682D01*
G01X0046438Y-035682D02*
G01X0046438Y-036864D01*
G01X0047507Y-036864D02*
G01X0047507Y-036245D01*
G01X0047507Y-036245D02*
G01X0047450Y-036132D01*
G01X0047450Y-036132D02*
G01X0047338Y-036076D01*
G01X0047338Y-036076D02*
G01X0047113Y-036076D01*
G01X0047113Y-036076D02*
G01X0047000Y-036132D01*
G01X0047507Y-036807D02*
G01X0047394Y-036864D01*
G01X0047394Y-036864D02*
G01X0047113Y-036864D01*
G01X0047113Y-036864D02*
G01X0047000Y-036807D01*
G01X0047000Y-036807D02*
G01X0046944Y-036695D01*
G01X0046944Y-036695D02*
G01X0046944Y-036582D01*
G01X0046944Y-036582D02*
G01X0047000Y-036470D01*
G01X0047000Y-036470D02*
G01X0047113Y-036414D01*
G01X0047113Y-036414D02*
G01X0047394Y-036414D01*
G01X0047394Y-036414D02*
G01X0047507Y-036357D01*
G01X0048069Y-036076D02*
G01X0048069Y-037257D01*
G01X0048069Y-036132D02*
G01X0048181Y-036076D01*
G01X0048181Y-036076D02*
G01X0048406Y-036076D01*
G01X0048406Y-036076D02*
G01X0048519Y-036132D01*
G01X0048519Y-036132D02*
G01X0048575Y-036189D01*
G01X0048575Y-036189D02*
G01X0048631Y-036301D01*
G01X0048631Y-036301D02*
G01X0048631Y-036639D01*
G01X0048631Y-036639D02*
G01X0048575Y-036751D01*
G01X0048575Y-036751D02*
G01X0048519Y-036807D01*
G01X0048519Y-036807D02*
G01X0048406Y-036864D01*
G01X0048406Y-036864D02*
G01X0048181Y-036864D01*
G01X0048181Y-036864D02*
G01X0048069Y-036807D01*
G01X0049138Y-036751D02*
G01X0049194Y-036807D01*
G01X0049194Y-036807D02*
G01X0049138Y-036864D01*
G01X0049138Y-036864D02*
G01X0049081Y-036807D01*
G01X0049081Y-036807D02*
G01X0049138Y-036751D01*
G01X0049138Y-036751D02*
G01X0049138Y-036864D01*
G01X0049138Y-036132D02*
G01X0049194Y-036189D01*
G01X0049194Y-036189D02*
G01X0049138Y-036245D01*
G01X0049138Y-036245D02*
G01X0049081Y-036189D01*
G01X0049081Y-036189D02*
G01X0049138Y-036132D01*
G01X0049138Y-036132D02*
G01X0049138Y-036245D01*
G01X0039576Y-038613D02*
G01X0039970Y-039007D01*
G01X0039970Y-038613D02*
G01X0039576Y-039007D01*
G01X0041657Y-039344D02*
G01X0040982Y-039344D01*
G01X0041320Y-039344D02*
G01X0041320Y-038163D01*
G01X0041320Y-038163D02*
G01X0041207Y-038331D01*
G01X0041207Y-038331D02*
G01X0041095Y-038444D01*
G01X0041095Y-038444D02*
G01X0040982Y-038500D01*
G01X0042163Y-039231D02*
G01X0042220Y-039288D01*
G01X0042220Y-039288D02*
G01X0042163Y-039344D01*
G01X0042163Y-039344D02*
G01X0042107Y-039288D01*
G01X0042107Y-039288D02*
G01X0042163Y-039231D01*
G01X0042163Y-039231D02*
G01X0042163Y-039344D01*
G01X0042951Y-038163D02*
G01X0043063Y-038163D01*
G01X0043063Y-038163D02*
G01X0043176Y-038219D01*
G01X0043176Y-038219D02*
G01X0043232Y-038275D01*
G01X0043232Y-038275D02*
G01X0043288Y-038388D01*
G01X0043288Y-038388D02*
G01X0043345Y-038613D01*
G01X0043345Y-038613D02*
G01X0043345Y-038894D01*
G01X0043345Y-038894D02*
G01X0043288Y-039119D01*
G01X0043288Y-039119D02*
G01X0043232Y-039231D01*
G01X0043232Y-039231D02*
G01X0043176Y-039288D01*
G01X0043176Y-039288D02*
G01X0043063Y-039344D01*
G01X0043063Y-039344D02*
G01X0042951Y-039344D01*
G01X0042951Y-039344D02*
G01X0042838Y-039288D01*
G01X0042838Y-039288D02*
G01X0042782Y-039231D01*
G01X0042782Y-039231D02*
G01X0042726Y-039119D01*
G01X0042726Y-039119D02*
G01X0042670Y-038894D01*
G01X0042670Y-038894D02*
G01X0042670Y-038613D01*
G01X0042670Y-038613D02*
G01X0042726Y-038388D01*
G01X0042726Y-038388D02*
G01X0042782Y-038275D01*
G01X0042782Y-038275D02*
G01X0042838Y-038219D01*
G01X0042838Y-038219D02*
G01X0042951Y-038163D01*
G01X0044076Y-038163D02*
G01X0044188Y-038163D01*
G01X0044188Y-038163D02*
G01X0044301Y-038219D01*
G01X0044301Y-038219D02*
G01X0044357Y-038275D01*
G01X0044357Y-038275D02*
G01X0044413Y-038388D01*
G01X0044413Y-038388D02*
G01X0044469Y-038613D01*
G01X0044469Y-038613D02*
G01X0044469Y-038894D01*
G01X0044469Y-038894D02*
G01X0044413Y-039119D01*
G01X0044413Y-039119D02*
G01X0044357Y-039231D01*
G01X0044357Y-039231D02*
G01X0044301Y-039288D01*
G01X0044301Y-039288D02*
G01X0044188Y-039344D01*
G01X0044188Y-039344D02*
G01X0044076Y-039344D01*
G01X0044076Y-039344D02*
G01X0043963Y-039288D01*
G01X0043963Y-039288D02*
G01X0043907Y-039231D01*
G01X0043907Y-039231D02*
G01X0043851Y-039119D01*
G01X0043851Y-039119D02*
G01X0043795Y-038894D01*
G01X0043795Y-038894D02*
G01X0043795Y-038613D01*
G01X0043795Y-038613D02*
G01X0043851Y-038388D01*
G01X0043851Y-038388D02*
G01X0043907Y-038275D01*
G01X0043907Y-038275D02*
G01X0043963Y-038219D01*
G01X0043963Y-038219D02*
G01X0044076Y-038163D01*
G01X0044976Y-039344D02*
G01X0044976Y-038556D01*
G01X0044976Y-038669D02*
G01X0045032Y-038613D01*
G01X0045032Y-038613D02*
G01X0045144Y-038556D01*
G01X0045144Y-038556D02*
G01X0045313Y-038556D01*
G01X0045313Y-038556D02*
G01X0045426Y-038613D01*
G01X0045426Y-038613D02*
G01X0045482Y-038725D01*
G01X0045482Y-038725D02*
G01X0045482Y-039344D01*
G01X0045482Y-038725D02*
G01X0045538Y-038613D01*
G01X0045538Y-038613D02*
G01X0045651Y-038556D01*
G01X0045651Y-038556D02*
G01X0045819Y-038556D01*
G01X0045819Y-038556D02*
G01X0045932Y-038613D01*
G01X0045932Y-038613D02*
G01X0045988Y-038725D01*
G01X0045988Y-038725D02*
G01X0045988Y-039344D01*
G01X0046550Y-039344D02*
G01X0046550Y-038556D01*
G01X0046550Y-038669D02*
G01X0046607Y-038613D01*
G01X0046607Y-038613D02*
G01X0046719Y-038556D01*
G01X0046719Y-038556D02*
G01X0046888Y-038556D01*
G01X0046888Y-038556D02*
G01X0047000Y-038613D01*
G01X0047000Y-038613D02*
G01X0047057Y-038725D01*
G01X0047057Y-038725D02*
G01X0047057Y-039344D01*
G01X0047057Y-038725D02*
G01X0047113Y-038613D01*
G01X0047113Y-038613D02*
G01X0047225Y-038556D01*
G01X0047225Y-038556D02*
G01X0047394Y-038556D01*
G01X0047394Y-038556D02*
G01X0047507Y-038613D01*
G01X0047507Y-038613D02*
G01X0047563Y-038725D01*
G01X0047563Y-038725D02*
G01X0047563Y-039344D01*
G01X0049869Y-038106D02*
G01X0048856Y-039625D01*
G01X0051387Y-038163D02*
G01X0051500Y-038163D01*
G01X0051500Y-038163D02*
G01X0051612Y-038219D01*
G01X0051612Y-038219D02*
G01X0051669Y-038275D01*
G01X0051669Y-038275D02*
G01X0051725Y-038388D01*
G01X0051725Y-038388D02*
G01X0051781Y-038613D01*
G01X0051781Y-038613D02*
G01X0051781Y-038894D01*
G01X0051781Y-038894D02*
G01X0051725Y-039119D01*
G01X0051725Y-039119D02*
G01X0051669Y-039231D01*
G01X0051669Y-039231D02*
G01X0051612Y-039288D01*
G01X0051612Y-039288D02*
G01X0051500Y-039344D01*
G01X0051500Y-039344D02*
G01X0051387Y-039344D01*
G01X0051387Y-039344D02*
G01X0051275Y-039288D01*
G01X0051275Y-039288D02*
G01X0051219Y-039231D01*
G01X0051219Y-039231D02*
G01X0051162Y-039119D01*
G01X0051162Y-039119D02*
G01X0051106Y-038894D01*
G01X0051106Y-038894D02*
G01X0051106Y-038613D01*
G01X0051106Y-038613D02*
G01X0051162Y-038388D01*
G01X0051162Y-038388D02*
G01X0051219Y-038275D01*
G01X0051219Y-038275D02*
G01X0051275Y-038219D01*
G01X0051275Y-038219D02*
G01X0051387Y-038163D01*
G01X0052287Y-039231D02*
G01X0052343Y-039288D01*
G01X0052343Y-039288D02*
G01X0052287Y-039344D01*
G01X0052287Y-039344D02*
G01X0052231Y-039288D01*
G01X0052231Y-039288D02*
G01X0052287Y-039231D01*
G01X0052287Y-039231D02*
G01X0052287Y-039344D01*
G01X0053075Y-038163D02*
G01X0053187Y-038163D01*
G01X0053187Y-038163D02*
G01X0053300Y-038219D01*
G01X0053300Y-038219D02*
G01X0053356Y-038275D01*
G01X0053356Y-038275D02*
G01X0053412Y-038388D01*
G01X0053412Y-038388D02*
G01X0053468Y-038613D01*
G01X0053468Y-038613D02*
G01X0053468Y-038894D01*
G01X0053468Y-038894D02*
G01X0053412Y-039119D01*
G01X0053412Y-039119D02*
G01X0053356Y-039231D01*
G01X0053356Y-039231D02*
G01X0053300Y-039288D01*
G01X0053300Y-039288D02*
G01X0053187Y-039344D01*
G01X0053187Y-039344D02*
G01X0053075Y-039344D01*
G01X0053075Y-039344D02*
G01X0052962Y-039288D01*
G01X0052962Y-039288D02*
G01X0052906Y-039231D01*
G01X0052906Y-039231D02*
G01X0052850Y-039119D01*
G01X0052850Y-039119D02*
G01X0052793Y-038894D01*
G01X0052793Y-038894D02*
G01X0052793Y-038613D01*
G01X0052793Y-038613D02*
G01X0052850Y-038388D01*
G01X0052850Y-038388D02*
G01X0052906Y-038275D01*
G01X0052906Y-038275D02*
G01X0052962Y-038219D01*
G01X0052962Y-038219D02*
G01X0053075Y-038163D01*
G01X0053862Y-038163D02*
G01X0054593Y-038163D01*
G01X0054593Y-038163D02*
G01X0054199Y-038613D01*
G01X0054199Y-038613D02*
G01X0054368Y-038613D01*
G01X0054368Y-038613D02*
G01X0054481Y-038669D01*
G01X0054481Y-038669D02*
G01X0054537Y-038725D01*
G01X0054537Y-038725D02*
G01X0054593Y-038838D01*
G01X0054593Y-038838D02*
G01X0054593Y-039119D01*
G01X0054593Y-039119D02*
G01X0054537Y-039231D01*
G01X0054537Y-039231D02*
G01X0054481Y-039288D01*
G01X0054481Y-039288D02*
G01X0054368Y-039344D01*
G01X0054368Y-039344D02*
G01X0054031Y-039344D01*
G01X0054031Y-039344D02*
G01X0053918Y-039288D01*
G01X0053918Y-039288D02*
G01X0053862Y-039231D01*
G01X0055156Y-039344D02*
G01X0055381Y-039344D01*
G01X0055381Y-039344D02*
G01X0055493Y-039288D01*
G01X0055493Y-039288D02*
G01X0055549Y-039231D01*
G01X0055549Y-039231D02*
G01X0055662Y-039063D01*
G01X0055662Y-039063D02*
G01X0055718Y-038838D01*
G01X0055718Y-038838D02*
G01X0055718Y-038388D01*
G01X0055718Y-038388D02*
G01X0055662Y-038275D01*
G01X0055662Y-038275D02*
G01X0055606Y-038219D01*
G01X0055606Y-038219D02*
G01X0055493Y-038163D01*
G01X0055493Y-038163D02*
G01X0055268Y-038163D01*
G01X0055268Y-038163D02*
G01X0055156Y-038219D01*
G01X0055156Y-038219D02*
G01X0055099Y-038275D01*
G01X0055099Y-038275D02*
G01X0055043Y-038388D01*
G01X0055043Y-038388D02*
G01X0055043Y-038669D01*
G01X0055043Y-038669D02*
G01X0055099Y-038781D01*
G01X0055099Y-038781D02*
G01X0055156Y-038838D01*
G01X0055156Y-038838D02*
G01X0055268Y-038894D01*
G01X0055268Y-038894D02*
G01X0055493Y-038894D01*
G01X0055493Y-038894D02*
G01X0055606Y-038838D01*
G01X0055606Y-038838D02*
G01X0055662Y-038781D01*
G01X0055662Y-038781D02*
G01X0055718Y-038669D01*
G01X0056168Y-038163D02*
G01X0056168Y-038388D01*
G01X0056618Y-038163D02*
G01X0056618Y-038388D01*
G01X0058361Y-039794D02*
G01X0058305Y-039738D01*
G01X0058305Y-039738D02*
G01X0058193Y-039569D01*
G01X0058193Y-039569D02*
G01X0058136Y-039456D01*
G01X0058136Y-039456D02*
G01X0058080Y-039288D01*
G01X0058080Y-039288D02*
G01X0058024Y-039006D01*
G01X0058024Y-039006D02*
G01X0058024Y-038781D01*
G01X0058024Y-038781D02*
G01X0058080Y-038500D01*
G01X0058080Y-038500D02*
G01X0058136Y-038331D01*
G01X0058136Y-038331D02*
G01X0058193Y-038219D01*
G01X0058193Y-038219D02*
G01X0058305Y-038050D01*
G01X0058305Y-038050D02*
G01X0058361Y-037994D01*
G01X0058755Y-038275D02*
G01X0058811Y-038219D01*
G01X0058811Y-038219D02*
G01X0058924Y-038163D01*
G01X0058924Y-038163D02*
G01X0059205Y-038163D01*
G01X0059205Y-038163D02*
G01X0059318Y-038219D01*
G01X0059318Y-038219D02*
G01X0059374Y-038275D01*
G01X0059374Y-038275D02*
G01X0059430Y-038388D01*
G01X0059430Y-038388D02*
G01X0059430Y-038500D01*
G01X0059430Y-038500D02*
G01X0059374Y-038669D01*
G01X0059374Y-038669D02*
G01X0058699Y-039344D01*
G01X0058699Y-039344D02*
G01X0059430Y-039344D01*
G01X0060161Y-038163D02*
G01X0060274Y-038163D01*
G01X0060274Y-038163D02*
G01X0060386Y-038219D01*
G01X0060386Y-038219D02*
G01X0060442Y-038275D01*
G01X0060442Y-038275D02*
G01X0060499Y-038388D01*
G01X0060499Y-038388D02*
G01X0060555Y-038613D01*
G01X0060555Y-038613D02*
G01X0060555Y-038894D01*
G01X0060555Y-038894D02*
G01X0060499Y-039119D01*
G01X0060499Y-039119D02*
G01X0060442Y-039231D01*
G01X0060442Y-039231D02*
G01X0060386Y-039288D01*
G01X0060386Y-039288D02*
G01X0060274Y-039344D01*
G01X0060274Y-039344D02*
G01X0060161Y-039344D01*
G01X0060161Y-039344D02*
G01X0060049Y-039288D01*
G01X0060049Y-039288D02*
G01X0059992Y-039231D01*
G01X0059992Y-039231D02*
G01X0059936Y-039119D01*
G01X0059936Y-039119D02*
G01X0059880Y-038894D01*
G01X0059880Y-038894D02*
G01X0059880Y-038613D01*
G01X0059880Y-038613D02*
G01X0059936Y-038388D01*
G01X0059936Y-038388D02*
G01X0059992Y-038275D01*
G01X0059992Y-038275D02*
G01X0060049Y-038219D01*
G01X0060049Y-038219D02*
G01X0060161Y-038163D01*
G01X0061961Y-039344D02*
G01X0061961Y-038163D01*
G01X0062467Y-039344D02*
G01X0062467Y-038725D01*
G01X0062467Y-038725D02*
G01X0062411Y-038613D01*
G01X0062411Y-038613D02*
G01X0062298Y-038556D01*
G01X0062298Y-038556D02*
G01X0062130Y-038556D01*
G01X0062130Y-038556D02*
G01X0062017Y-038613D01*
G01X0062017Y-038613D02*
G01X0061961Y-038669D01*
G01X0063198Y-039344D02*
G01X0063086Y-039288D01*
G01X0063086Y-039288D02*
G01X0063030Y-039231D01*
G01X0063030Y-039231D02*
G01X0062973Y-039119D01*
G01X0062973Y-039119D02*
G01X0062973Y-038781D01*
G01X0062973Y-038781D02*
G01X0063030Y-038669D01*
G01X0063030Y-038669D02*
G01X0063086Y-038613D01*
G01X0063086Y-038613D02*
G01X0063198Y-038556D01*
G01X0063198Y-038556D02*
G01X0063367Y-038556D01*
G01X0063367Y-038556D02*
G01X0063480Y-038613D01*
G01X0063480Y-038613D02*
G01X0063536Y-038669D01*
G01X0063536Y-038669D02*
G01X0063592Y-038781D01*
G01X0063592Y-038781D02*
G01X0063592Y-039119D01*
G01X0063592Y-039119D02*
G01X0063536Y-039231D01*
G01X0063536Y-039231D02*
G01X0063480Y-039288D01*
G01X0063480Y-039288D02*
G01X0063367Y-039344D01*
G01X0063367Y-039344D02*
G01X0063198Y-039344D01*
G01X0064267Y-039344D02*
G01X0064154Y-039288D01*
G01X0064154Y-039288D02*
G01X0064098Y-039175D01*
G01X0064098Y-039175D02*
G01X0064098Y-038163D01*
G01X0065167Y-039288D02*
G01X0065054Y-039344D01*
G01X0065054Y-039344D02*
G01X0064829Y-039344D01*
G01X0064829Y-039344D02*
G01X0064717Y-039288D01*
G01X0064717Y-039288D02*
G01X0064661Y-039175D01*
G01X0064661Y-039175D02*
G01X0064661Y-038725D01*
G01X0064661Y-038725D02*
G01X0064717Y-038613D01*
G01X0064717Y-038613D02*
G01X0064829Y-038556D01*
G01X0064829Y-038556D02*
G01X0065054Y-038556D01*
G01X0065054Y-038556D02*
G01X0065167Y-038613D01*
G01X0065167Y-038613D02*
G01X0065223Y-038725D01*
G01X0065223Y-038725D02*
G01X0065223Y-038838D01*
G01X0065223Y-038838D02*
G01X0064661Y-038950D01*
G01X0065673Y-039288D02*
G01X0065786Y-039344D01*
G01X0065786Y-039344D02*
G01X0066010Y-039344D01*
G01X0066010Y-039344D02*
G01X0066123Y-039288D01*
G01X0066123Y-039288D02*
G01X0066179Y-039175D01*
G01X0066179Y-039175D02*
G01X0066179Y-039119D01*
G01X0066179Y-039119D02*
G01X0066123Y-039006D01*
G01X0066123Y-039006D02*
G01X0066010Y-038950D01*
G01X0066010Y-038950D02*
G01X0065842Y-038950D01*
G01X0065842Y-038950D02*
G01X0065729Y-038894D01*
G01X0065729Y-038894D02*
G01X0065673Y-038781D01*
G01X0065673Y-038781D02*
G01X0065673Y-038725D01*
G01X0065673Y-038725D02*
G01X0065729Y-038613D01*
G01X0065729Y-038613D02*
G01X0065842Y-038556D01*
G01X0065842Y-038556D02*
G01X0066010Y-038556D01*
G01X0066010Y-038556D02*
G01X0066123Y-038613D01*
G01X0066573Y-039794D02*
G01X0066629Y-039738D01*
G01X0066629Y-039738D02*
G01X0066742Y-039569D01*
G01X0066742Y-039569D02*
G01X0066798Y-039456D01*
G01X0066798Y-039456D02*
G01X0066854Y-039288D01*
G01X0066854Y-039288D02*
G01X0066910Y-039006D01*
G01X0066910Y-039006D02*
G01X0066910Y-038781D01*
G01X0066910Y-038781D02*
G01X0066854Y-038500D01*
G01X0066854Y-038500D02*
G01X0066798Y-038331D01*
G01X0066798Y-038331D02*
G01X0066742Y-038219D01*
G01X0066742Y-038219D02*
G01X0066629Y-038050D01*
G01X0066629Y-038050D02*
G01X0066573Y-037994D01*
G01X0039970Y-040369D02*
G75*
G03X0039970Y-040369I-000200J0000000D01*
G01X0041657Y-040903D02*
G01X0040982Y-040903D01*
G01X0041320Y-040903D02*
G01X0041320Y-039722D01*
G01X0041320Y-039722D02*
G01X0041207Y-039891D01*
G01X0041207Y-039891D02*
G01X0041095Y-040003D01*
G01X0041095Y-040003D02*
G01X0040982Y-040059D01*
G01X0042163Y-040790D02*
G01X0042220Y-040847D01*
G01X0042220Y-040847D02*
G01X0042163Y-040903D01*
G01X0042163Y-040903D02*
G01X0042107Y-040847D01*
G01X0042107Y-040847D02*
G01X0042163Y-040790D01*
G01X0042163Y-040790D02*
G01X0042163Y-040903D01*
G01X0042951Y-039722D02*
G01X0043063Y-039722D01*
G01X0043063Y-039722D02*
G01X0043176Y-039778D01*
G01X0043176Y-039778D02*
G01X0043232Y-039834D01*
G01X0043232Y-039834D02*
G01X0043288Y-039947D01*
G01X0043288Y-039947D02*
G01X0043345Y-040172D01*
G01X0043345Y-040172D02*
G01X0043345Y-040453D01*
G01X0043345Y-040453D02*
G01X0043288Y-040678D01*
G01X0043288Y-040678D02*
G01X0043232Y-040790D01*
G01X0043232Y-040790D02*
G01X0043176Y-040847D01*
G01X0043176Y-040847D02*
G01X0043063Y-040903D01*
G01X0043063Y-040903D02*
G01X0042951Y-040903D01*
G01X0042951Y-040903D02*
G01X0042838Y-040847D01*
G01X0042838Y-040847D02*
G01X0042782Y-040790D01*
G01X0042782Y-040790D02*
G01X0042726Y-040678D01*
G01X0042726Y-040678D02*
G01X0042670Y-040453D01*
G01X0042670Y-040453D02*
G01X0042670Y-040172D01*
G01X0042670Y-040172D02*
G01X0042726Y-039947D01*
G01X0042726Y-039947D02*
G01X0042782Y-039834D01*
G01X0042782Y-039834D02*
G01X0042838Y-039778D01*
G01X0042838Y-039778D02*
G01X0042951Y-039722D01*
G01X0043795Y-039834D02*
G01X0043851Y-039778D01*
G01X0043851Y-039778D02*
G01X0043963Y-039722D01*
G01X0043963Y-039722D02*
G01X0044244Y-039722D01*
G01X0044244Y-039722D02*
G01X0044357Y-039778D01*
G01X0044357Y-039778D02*
G01X0044413Y-039834D01*
G01X0044413Y-039834D02*
G01X0044469Y-039947D01*
G01X0044469Y-039947D02*
G01X0044469Y-040059D01*
G01X0044469Y-040059D02*
G01X0044413Y-040228D01*
G01X0044413Y-040228D02*
G01X0043738Y-040903D01*
G01X0043738Y-040903D02*
G01X0044469Y-040903D01*
G01X0044976Y-040903D02*
G01X0044976Y-040115D01*
G01X0044976Y-040228D02*
G01X0045032Y-040172D01*
G01X0045032Y-040172D02*
G01X0045144Y-040115D01*
G01X0045144Y-040115D02*
G01X0045313Y-040115D01*
G01X0045313Y-040115D02*
G01X0045426Y-040172D01*
G01X0045426Y-040172D02*
G01X0045482Y-040284D01*
G01X0045482Y-040284D02*
G01X0045482Y-040903D01*
G01X0045482Y-040284D02*
G01X0045538Y-040172D01*
G01X0045538Y-040172D02*
G01X0045651Y-040115D01*
G01X0045651Y-040115D02*
G01X0045819Y-040115D01*
G01X0045819Y-040115D02*
G01X0045932Y-040172D01*
G01X0045932Y-040172D02*
G01X0045988Y-040284D01*
G01X0045988Y-040284D02*
G01X0045988Y-040903D01*
G01X0046550Y-040903D02*
G01X0046550Y-040115D01*
G01X0046550Y-040228D02*
G01X0046607Y-040172D01*
G01X0046607Y-040172D02*
G01X0046719Y-040115D01*
G01X0046719Y-040115D02*
G01X0046888Y-040115D01*
G01X0046888Y-040115D02*
G01X0047000Y-040172D01*
G01X0047000Y-040172D02*
G01X0047057Y-040284D01*
G01X0047057Y-040284D02*
G01X0047057Y-040903D01*
G01X0047057Y-040284D02*
G01X0047113Y-040172D01*
G01X0047113Y-040172D02*
G01X0047225Y-040115D01*
G01X0047225Y-040115D02*
G01X0047394Y-040115D01*
G01X0047394Y-040115D02*
G01X0047507Y-040172D01*
G01X0047507Y-040172D02*
G01X0047563Y-040284D01*
G01X0047563Y-040284D02*
G01X0047563Y-040903D01*
G01X0049869Y-039666D02*
G01X0048856Y-041184D01*
G01X0051387Y-039722D02*
G01X0051500Y-039722D01*
G01X0051500Y-039722D02*
G01X0051612Y-039778D01*
G01X0051612Y-039778D02*
G01X0051669Y-039834D01*
G01X0051669Y-039834D02*
G01X0051725Y-039947D01*
G01X0051725Y-039947D02*
G01X0051781Y-040172D01*
G01X0051781Y-040172D02*
G01X0051781Y-040453D01*
G01X0051781Y-040453D02*
G01X0051725Y-040678D01*
G01X0051725Y-040678D02*
G01X0051669Y-040790D01*
G01X0051669Y-040790D02*
G01X0051612Y-040847D01*
G01X0051612Y-040847D02*
G01X0051500Y-040903D01*
G01X0051500Y-040903D02*
G01X0051387Y-040903D01*
G01X0051387Y-040903D02*
G01X0051275Y-040847D01*
G01X0051275Y-040847D02*
G01X0051219Y-040790D01*
G01X0051219Y-040790D02*
G01X0051162Y-040678D01*
G01X0051162Y-040678D02*
G01X0051106Y-040453D01*
G01X0051106Y-040453D02*
G01X0051106Y-040172D01*
G01X0051106Y-040172D02*
G01X0051162Y-039947D01*
G01X0051162Y-039947D02*
G01X0051219Y-039834D01*
G01X0051219Y-039834D02*
G01X0051275Y-039778D01*
G01X0051275Y-039778D02*
G01X0051387Y-039722D01*
G01X0052287Y-040790D02*
G01X0052343Y-040847D01*
G01X0052343Y-040847D02*
G01X0052287Y-040903D01*
G01X0052287Y-040903D02*
G01X0052231Y-040847D01*
G01X0052231Y-040847D02*
G01X0052287Y-040790D01*
G01X0052287Y-040790D02*
G01X0052287Y-040903D01*
G01X0053075Y-039722D02*
G01X0053187Y-039722D01*
G01X0053187Y-039722D02*
G01X0053300Y-039778D01*
G01X0053300Y-039778D02*
G01X0053356Y-039834D01*
G01X0053356Y-039834D02*
G01X0053412Y-039947D01*
G01X0053412Y-039947D02*
G01X0053468Y-040172D01*
G01X0053468Y-040172D02*
G01X0053468Y-040453D01*
G01X0053468Y-040453D02*
G01X0053412Y-040678D01*
G01X0053412Y-040678D02*
G01X0053356Y-040790D01*
G01X0053356Y-040790D02*
G01X0053300Y-040847D01*
G01X0053300Y-040847D02*
G01X0053187Y-040903D01*
G01X0053187Y-040903D02*
G01X0053075Y-040903D01*
G01X0053075Y-040903D02*
G01X0052962Y-040847D01*
G01X0052962Y-040847D02*
G01X0052906Y-040790D01*
G01X0052906Y-040790D02*
G01X0052850Y-040678D01*
G01X0052850Y-040678D02*
G01X0052793Y-040453D01*
G01X0052793Y-040453D02*
G01X0052793Y-040172D01*
G01X0052793Y-040172D02*
G01X0052850Y-039947D01*
G01X0052850Y-039947D02*
G01X0052906Y-039834D01*
G01X0052906Y-039834D02*
G01X0052962Y-039778D01*
G01X0052962Y-039778D02*
G01X0053075Y-039722D01*
G01X0054481Y-040115D02*
G01X0054481Y-040903D01*
G01X0054199Y-039666D02*
G01X0053918Y-040509D01*
G01X0053918Y-040509D02*
G01X0054649Y-040509D01*
G01X0055324Y-039722D02*
G01X0055437Y-039722D01*
G01X0055437Y-039722D02*
G01X0055549Y-039778D01*
G01X0055549Y-039778D02*
G01X0055606Y-039834D01*
G01X0055606Y-039834D02*
G01X0055662Y-039947D01*
G01X0055662Y-039947D02*
G01X0055718Y-040172D01*
G01X0055718Y-040172D02*
G01X0055718Y-040453D01*
G01X0055718Y-040453D02*
G01X0055662Y-040678D01*
G01X0055662Y-040678D02*
G01X0055606Y-040790D01*
G01X0055606Y-040790D02*
G01X0055549Y-040847D01*
G01X0055549Y-040847D02*
G01X0055437Y-040903D01*
G01X0055437Y-040903D02*
G01X0055324Y-040903D01*
G01X0055324Y-040903D02*
G01X0055212Y-040847D01*
G01X0055212Y-040847D02*
G01X0055156Y-040790D01*
G01X0055156Y-040790D02*
G01X0055099Y-040678D01*
G01X0055099Y-040678D02*
G01X0055043Y-040453D01*
G01X0055043Y-040453D02*
G01X0055043Y-040172D01*
G01X0055043Y-040172D02*
G01X0055099Y-039947D01*
G01X0055099Y-039947D02*
G01X0055156Y-039834D01*
G01X0055156Y-039834D02*
G01X0055212Y-039778D01*
G01X0055212Y-039778D02*
G01X0055324Y-039722D01*
G01X0056168Y-039722D02*
G01X0056168Y-039947D01*
G01X0056618Y-039722D02*
G01X0056618Y-039947D01*
G01X0058361Y-041353D02*
G01X0058305Y-041297D01*
G01X0058305Y-041297D02*
G01X0058193Y-041128D01*
G01X0058193Y-041128D02*
G01X0058136Y-041015D01*
G01X0058136Y-041015D02*
G01X0058080Y-040847D01*
G01X0058080Y-040847D02*
G01X0058024Y-040565D01*
G01X0058024Y-040565D02*
G01X0058024Y-040340D01*
G01X0058024Y-040340D02*
G01X0058080Y-040059D01*
G01X0058080Y-040059D02*
G01X0058136Y-039891D01*
G01X0058136Y-039891D02*
G01X0058193Y-039778D01*
G01X0058193Y-039778D02*
G01X0058305Y-039609D01*
G01X0058305Y-039609D02*
G01X0058361Y-039553D01*
G01X0058755Y-039834D02*
G01X0058811Y-039778D01*
G01X0058811Y-039778D02*
G01X0058924Y-039722D01*
G01X0058924Y-039722D02*
G01X0059205Y-039722D01*
G01X0059205Y-039722D02*
G01X0059318Y-039778D01*
G01X0059318Y-039778D02*
G01X0059374Y-039834D01*
G01X0059374Y-039834D02*
G01X0059430Y-039947D01*
G01X0059430Y-039947D02*
G01X0059430Y-040059D01*
G01X0059430Y-040059D02*
G01X0059374Y-040228D01*
G01X0059374Y-040228D02*
G01X0058699Y-040903D01*
G01X0058699Y-040903D02*
G01X0059430Y-040903D01*
G01X0060836Y-040903D02*
G01X0060836Y-039722D01*
G01X0061342Y-040903D02*
G01X0061342Y-040284D01*
G01X0061342Y-040284D02*
G01X0061286Y-040172D01*
G01X0061286Y-040172D02*
G01X0061174Y-040115D01*
G01X0061174Y-040115D02*
G01X0061005Y-040115D01*
G01X0061005Y-040115D02*
G01X0060892Y-040172D01*
G01X0060892Y-040172D02*
G01X0060836Y-040228D01*
G01X0062073Y-040903D02*
G01X0061961Y-040847D01*
G01X0061961Y-040847D02*
G01X0061905Y-040790D01*
G01X0061905Y-040790D02*
G01X0061849Y-040678D01*
G01X0061849Y-040678D02*
G01X0061849Y-040340D01*
G01X0061849Y-040340D02*
G01X0061905Y-040228D01*
G01X0061905Y-040228D02*
G01X0061961Y-040172D01*
G01X0061961Y-040172D02*
G01X0062073Y-040115D01*
G01X0062073Y-040115D02*
G01X0062242Y-040115D01*
G01X0062242Y-040115D02*
G01X0062355Y-040172D01*
G01X0062355Y-040172D02*
G01X0062411Y-040228D01*
G01X0062411Y-040228D02*
G01X0062467Y-040340D01*
G01X0062467Y-040340D02*
G01X0062467Y-040678D01*
G01X0062467Y-040678D02*
G01X0062411Y-040790D01*
G01X0062411Y-040790D02*
G01X0062355Y-040847D01*
G01X0062355Y-040847D02*
G01X0062242Y-040903D01*
G01X0062242Y-040903D02*
G01X0062073Y-040903D01*
G01X0063142Y-040903D02*
G01X0063030Y-040847D01*
G01X0063030Y-040847D02*
G01X0062973Y-040734D01*
G01X0062973Y-040734D02*
G01X0062973Y-039722D01*
G01X0064042Y-040847D02*
G01X0063930Y-040903D01*
G01X0063930Y-040903D02*
G01X0063705Y-040903D01*
G01X0063705Y-040903D02*
G01X0063592Y-040847D01*
G01X0063592Y-040847D02*
G01X0063536Y-040734D01*
G01X0063536Y-040734D02*
G01X0063536Y-040284D01*
G01X0063536Y-040284D02*
G01X0063592Y-040172D01*
G01X0063592Y-040172D02*
G01X0063705Y-040115D01*
G01X0063705Y-040115D02*
G01X0063930Y-040115D01*
G01X0063930Y-040115D02*
G01X0064042Y-040172D01*
G01X0064042Y-040172D02*
G01X0064098Y-040284D01*
G01X0064098Y-040284D02*
G01X0064098Y-040397D01*
G01X0064098Y-040397D02*
G01X0063536Y-040509D01*
G01X0064548Y-040847D02*
G01X0064661Y-040903D01*
G01X0064661Y-040903D02*
G01X0064886Y-040903D01*
G01X0064886Y-040903D02*
G01X0064998Y-040847D01*
G01X0064998Y-040847D02*
G01X0065054Y-040734D01*
G01X0065054Y-040734D02*
G01X0065054Y-040678D01*
G01X0065054Y-040678D02*
G01X0064998Y-040565D01*
G01X0064998Y-040565D02*
G01X0064886Y-040509D01*
G01X0064886Y-040509D02*
G01X0064717Y-040509D01*
G01X0064717Y-040509D02*
G01X0064604Y-040453D01*
G01X0064604Y-040453D02*
G01X0064548Y-040340D01*
G01X0064548Y-040340D02*
G01X0064548Y-040284D01*
G01X0064548Y-040284D02*
G01X0064604Y-040172D01*
G01X0064604Y-040172D02*
G01X0064717Y-040115D01*
G01X0064717Y-040115D02*
G01X0064886Y-040115D01*
G01X0064886Y-040115D02*
G01X0064998Y-040172D01*
G01X0065448Y-041353D02*
G01X0065504Y-041297D01*
G01X0065504Y-041297D02*
G01X0065617Y-041128D01*
G01X0065617Y-041128D02*
G01X0065673Y-041015D01*
G01X0065673Y-041015D02*
G01X0065729Y-040847D01*
G01X0065729Y-040847D02*
G01X0065786Y-040565D01*
G01X0065786Y-040565D02*
G01X0065786Y-040340D01*
G01X0065786Y-040340D02*
G01X0065729Y-040059D01*
G01X0065729Y-040059D02*
G01X0065673Y-039891D01*
G01X0065673Y-039891D02*
G01X0065617Y-039778D01*
G01X0065617Y-039778D02*
G01X0065504Y-039609D01*
G01X0065504Y-039609D02*
G01X0065448Y-039553D01*
G01X0000000Y0000000D02*
G54D11*
G01X0040000Y-035000D02*
G01X0040000Y-030000D01*
G01X0067000Y-035000D02*
G01X0040000Y-035000D01*
G01X0067000Y-030000D02*
G01X0067000Y-035000D01*
G01X0040000Y-030000D02*
G01X0067000Y-030000D01*
G01X0000000Y0000000D02*
G54D15*
G01X0046700Y-030300D02*
G75*
G03X0046700Y-030300I-000500J0000000D01*
G01X0045050Y-031100D02*
G01X0045050Y-029500D01*
G01X0047350Y-031100D02*
G01X0045050Y-031100D01*
G01X0047350Y-029500D02*
G01X0047350Y-031100D01*
G01X0045050Y-029500D02*
G01X0047350Y-029500D01*
G01X0047450Y-037000D02*
G01X0041200Y-037000D01*
G01X0068250Y-040250D02*
G01X0068250Y-037250D01*
G01X0070250Y-040250D02*
G01X0068250Y-040250D01*
G01X0070250Y-037250D02*
G01X0070250Y-040250D01*
G01X0068250Y-037250D02*
G01X0070250Y-037250D01*
G01X0042950Y-048500D02*
G01X0042950Y-045000D01*
G01X0048200Y-048500D02*
G01X0042950Y-048500D01*
G01X0048200Y-045000D02*
G01X0048200Y-048500D01*
G01X0042950Y-045000D02*
G01X0048200Y-045000D01*
G01X0041200Y-037000D02*
G01X0041200Y-032500D01*
G01X0047450Y-032500D02*
G01X0047450Y-037000D01*
G01X0041200Y-032500D02*
G01X0047450Y-032500D01*
M02*
