%TF.GenerationSoftware,KiCad,Pcbnew,4.0.5-e0-6337~49~ubuntu16.04.1*%
%TF.CreationDate,2017-08-14T10:41:38-07:00*%
%TF.ProjectId,mcphail-ir-emitter-board,6D63706861696C2D69722D656D697474,1.0*%
%TF.FileFunction,Copper,L1,Top,Signal*%
%FSLAX46Y46*%
G04 Gerber Fmt 4.6, Leading zero omitted, Abs format (unit mm)*
G04 Created by KiCad (PCBNEW 4.0.5-e0-6337~49~ubuntu16.04.1) date Mon Aug 14 10:41:38 2017*
%MOMM*%
%LPD*%
G01*
G04 APERTURE LIST*
%ADD10C,0.350000*%
%ADD11R,2.032000X2.032000*%
%ADD12O,2.032000X2.032000*%
%ADD13R,2.000000X1.900000*%
%ADD14C,1.900000*%
%ADD15C,0.508000*%
%ADD16C,0.350000*%
G04 APERTURE END LIST*
D10*
D11*
X29057600Y-70459600D03*
D12*
X29057600Y-72999600D03*
D13*
X91287600Y-72999600D03*
D14*
X91287600Y-70459600D03*
D13*
X84937600Y-72999600D03*
D14*
X84937600Y-70459600D03*
D13*
X78587600Y-72999600D03*
D14*
X78587600Y-70459600D03*
D13*
X72237600Y-72999600D03*
D14*
X72237600Y-70459600D03*
D13*
X65887600Y-72999600D03*
D14*
X65887600Y-70459600D03*
D13*
X59537600Y-72999600D03*
D14*
X59537600Y-70459600D03*
D13*
X53187600Y-72999600D03*
D14*
X53187600Y-70459600D03*
D13*
X46837600Y-72999600D03*
D14*
X46837600Y-70459600D03*
D13*
X40487600Y-72999600D03*
D14*
X40487600Y-70459600D03*
D13*
X34137600Y-72999600D03*
D14*
X34137600Y-70459600D03*
D15*
X29057600Y-70459600D02*
X30581600Y-70459600D01*
X30581600Y-70459600D02*
X34137600Y-70459600D01*
X90652600Y-74904600D02*
X90840600Y-74904600D01*
X90840600Y-74904600D02*
X91287600Y-74457600D01*
X91287600Y-74457600D02*
X91287600Y-72999600D01*
X89382600Y-76174600D02*
X90652600Y-74904600D01*
X32232600Y-76174600D02*
X89382600Y-76174600D01*
X29057600Y-72999600D02*
X32232600Y-76174600D01*
X34137600Y-72999600D02*
X35645600Y-72999600D01*
X39144098Y-70459600D02*
X40487600Y-70459600D01*
X35645600Y-72999600D02*
X38185600Y-70459600D01*
X38185600Y-70459600D02*
X39144098Y-70459600D01*
X46837600Y-72999600D02*
X46887600Y-72999600D01*
X51844098Y-70459600D02*
X53187600Y-70459600D01*
X46887600Y-72999600D02*
X49427600Y-70459600D01*
X49427600Y-70459600D02*
X51844098Y-70459600D01*
X59537600Y-72999600D02*
X61045600Y-72999600D01*
X61045600Y-72999600D02*
X63585600Y-70459600D01*
X63585600Y-70459600D02*
X64544098Y-70459600D01*
X64544098Y-70459600D02*
X65887600Y-70459600D01*
X72237600Y-72999600D02*
X73745600Y-72999600D01*
X73745600Y-72999600D02*
X76285600Y-70459600D01*
X76285600Y-70459600D02*
X77244098Y-70459600D01*
X77244098Y-70459600D02*
X78587600Y-70459600D01*
X84937600Y-72999600D02*
X84987600Y-72999600D01*
X87527600Y-70459600D02*
X89944098Y-70459600D01*
X89944098Y-70459600D02*
X91287600Y-70459600D01*
X84987600Y-72999600D02*
X87527600Y-70459600D01*
X40487600Y-72999600D02*
X41995600Y-72999600D01*
X41995600Y-72999600D02*
X44535600Y-70459600D01*
X44535600Y-70459600D02*
X45494098Y-70459600D01*
X45494098Y-70459600D02*
X46837600Y-70459600D01*
X53187600Y-72999600D02*
X54695600Y-72999600D01*
X54695600Y-72999600D02*
X57235600Y-70459600D01*
X57235600Y-70459600D02*
X58194098Y-70459600D01*
X58194098Y-70459600D02*
X59537600Y-70459600D01*
X65887600Y-72999600D02*
X67395600Y-72999600D01*
X67395600Y-72999600D02*
X69935600Y-70459600D01*
X69935600Y-70459600D02*
X70894098Y-70459600D01*
X70894098Y-70459600D02*
X72237600Y-70459600D01*
X82635600Y-70459600D02*
X84937600Y-70459600D01*
X78587600Y-72999600D02*
X80095600Y-72999600D01*
X80095600Y-72999600D02*
X82635600Y-70459600D01*
D16*
X29057600Y-70459600D03*
X29057600Y-72999600D03*
X91287600Y-72999600D03*
X91287600Y-70459600D03*
X84937600Y-72999600D03*
X84937600Y-70459600D03*
X78587600Y-72999600D03*
X78587600Y-70459600D03*
X72237600Y-72999600D03*
X72237600Y-70459600D03*
X65887600Y-72999600D03*
X65887600Y-70459600D03*
X59537600Y-72999600D03*
X59537600Y-70459600D03*
X53187600Y-72999600D03*
X53187600Y-70459600D03*
X46837600Y-72999600D03*
X46837600Y-70459600D03*
X40487600Y-72999600D03*
X40487600Y-70459600D03*
X34137600Y-72999600D03*
X34137600Y-70459600D03*
M02*
