%TF.GenerationSoftware,KiCad,Pcbnew,4.0.5-e0-6337~49~ubuntu16.04.1*%
%TF.CreationDate,2017-08-06T10:19:08-07:00*%
%TF.ProjectId,mcphail-ir-emitter-board,6D63706861696C2D69722D656D697474,1.0*%
%TF.FileFunction,Copper,L1,Top,Signal*%
%FSLAX46Y46*%
G04 Gerber Fmt 4.6, Leading zero omitted, Abs format (unit mm)*
G04 Created by KiCad (PCBNEW 4.0.5-e0-6337~49~ubuntu16.04.1) date Sun Aug  6 10:19:08 2017*
%MOMM*%
%LPD*%
G01*
G04 APERTURE LIST*
%ADD10C,0.350000*%
%ADD11R,2.032000X2.032000*%
%ADD12O,2.032000X2.032000*%
%ADD13R,2.000000X1.900000*%
%ADD14C,1.900000*%
%ADD15C,0.508000*%
%ADD16C,0.350000*%
G04 APERTURE END LIST*
D10*
D11*
X104140000Y-81280000D03*
D12*
X104140000Y-83820000D03*
D13*
X166370000Y-83820000D03*
D14*
X166370000Y-81280000D03*
D13*
X160020000Y-83820000D03*
D14*
X160020000Y-81280000D03*
D13*
X153670000Y-83820000D03*
D14*
X153670000Y-81280000D03*
D13*
X147320000Y-83820000D03*
D14*
X147320000Y-81280000D03*
D13*
X140970000Y-83820000D03*
D14*
X140970000Y-81280000D03*
D13*
X134620000Y-83820000D03*
D14*
X134620000Y-81280000D03*
D13*
X128270000Y-83820000D03*
D14*
X128270000Y-81280000D03*
D13*
X121920000Y-83820000D03*
D14*
X121920000Y-81280000D03*
D13*
X115570000Y-83820000D03*
D14*
X115570000Y-81280000D03*
D13*
X109220000Y-83820000D03*
D14*
X109220000Y-81280000D03*
D15*
X104140000Y-81280000D02*
X105664000Y-81280000D01*
X105664000Y-81280000D02*
X109220000Y-81280000D01*
X165735000Y-85725000D02*
X165923000Y-85725000D01*
X165923000Y-85725000D02*
X166370000Y-85278000D01*
X166370000Y-85278000D02*
X166370000Y-83820000D01*
X164465000Y-86995000D02*
X165735000Y-85725000D01*
X107315000Y-86995000D02*
X164465000Y-86995000D01*
X104140000Y-83820000D02*
X107315000Y-86995000D01*
X109220000Y-83820000D02*
X110728000Y-83820000D01*
X114226498Y-81280000D02*
X115570000Y-81280000D01*
X110728000Y-83820000D02*
X113268000Y-81280000D01*
X113268000Y-81280000D02*
X114226498Y-81280000D01*
X121920000Y-83820000D02*
X121970000Y-83820000D01*
X126926498Y-81280000D02*
X128270000Y-81280000D01*
X121970000Y-83820000D02*
X124510000Y-81280000D01*
X124510000Y-81280000D02*
X126926498Y-81280000D01*
X134620000Y-83820000D02*
X136128000Y-83820000D01*
X136128000Y-83820000D02*
X138668000Y-81280000D01*
X138668000Y-81280000D02*
X139626498Y-81280000D01*
X139626498Y-81280000D02*
X140970000Y-81280000D01*
X147320000Y-83820000D02*
X148828000Y-83820000D01*
X148828000Y-83820000D02*
X151368000Y-81280000D01*
X151368000Y-81280000D02*
X152326498Y-81280000D01*
X152326498Y-81280000D02*
X153670000Y-81280000D01*
X160020000Y-83820000D02*
X160070000Y-83820000D01*
X162610000Y-81280000D02*
X165026498Y-81280000D01*
X165026498Y-81280000D02*
X166370000Y-81280000D01*
X160070000Y-83820000D02*
X162610000Y-81280000D01*
X115570000Y-83820000D02*
X117078000Y-83820000D01*
X117078000Y-83820000D02*
X119618000Y-81280000D01*
X119618000Y-81280000D02*
X120576498Y-81280000D01*
X120576498Y-81280000D02*
X121920000Y-81280000D01*
X128270000Y-83820000D02*
X129778000Y-83820000D01*
X129778000Y-83820000D02*
X132318000Y-81280000D01*
X132318000Y-81280000D02*
X133276498Y-81280000D01*
X133276498Y-81280000D02*
X134620000Y-81280000D01*
X140970000Y-83820000D02*
X142478000Y-83820000D01*
X142478000Y-83820000D02*
X145018000Y-81280000D01*
X145018000Y-81280000D02*
X145976498Y-81280000D01*
X145976498Y-81280000D02*
X147320000Y-81280000D01*
X157718000Y-81280000D02*
X160020000Y-81280000D01*
X153670000Y-83820000D02*
X155178000Y-83820000D01*
X155178000Y-83820000D02*
X157718000Y-81280000D01*
D16*
X104140000Y-81280000D03*
X104140000Y-83820000D03*
X166370000Y-83820000D03*
X166370000Y-81280000D03*
X160020000Y-83820000D03*
X160020000Y-81280000D03*
X153670000Y-83820000D03*
X153670000Y-81280000D03*
X147320000Y-83820000D03*
X147320000Y-81280000D03*
X140970000Y-83820000D03*
X140970000Y-81280000D03*
X134620000Y-83820000D03*
X134620000Y-81280000D03*
X128270000Y-83820000D03*
X128270000Y-81280000D03*
X121920000Y-83820000D03*
X121920000Y-81280000D03*
X115570000Y-83820000D03*
X115570000Y-81280000D03*
X109220000Y-83820000D03*
X109220000Y-81280000D03*
M02*
