M48
;DRILL file {KiCad 4.0.5-e0-6337~49~ubuntu16.04.1} date Sun Aug  6 10:19:08 2017
;FORMAT={-:-/ absolute / metric / decimal}
FMAT,2
METRIC,TZ
T1C1.001
T2C1.016
%
G90
G05
M71
T1
X109.22Y-81.28
X109.22Y-83.82
X115.57Y-81.28
X115.57Y-83.82
X121.92Y-81.28
X121.92Y-83.82
X128.27Y-81.28
X128.27Y-83.82
X134.62Y-81.28
X134.62Y-83.82
X140.97Y-81.28
X140.97Y-83.82
X147.32Y-81.28
X147.32Y-83.82
X153.67Y-81.28
X153.67Y-83.82
X160.02Y-81.28
X160.02Y-83.82
X166.37Y-81.28
X166.37Y-83.82
T2
X104.14Y-81.28
X104.14Y-83.82
T0
M30
