%TF.GenerationSoftware,KiCad,Pcbnew,4.0.5-e0-6337~49~ubuntu16.04.1*%
%TF.CreationDate,2017-08-14T10:41:38-07:00*%
%TF.ProjectId,mcphail-ir-emitter-board,6D63706861696C2D69722D656D697474,1.0*%
%TF.FileFunction,Soldermask,Top*%
%FSLAX46Y46*%
G04 Gerber Fmt 4.6, Leading zero omitted, Abs format (unit mm)*
G04 Created by KiCad (PCBNEW 4.0.5-e0-6337~49~ubuntu16.04.1) date Mon Aug 14 10:41:38 2017*
%MOMM*%
%LPD*%
G01*
G04 APERTURE LIST*
%ADD10C,0.350000*%
G04 APERTURE END LIST*
D10*
G36*
X29068995Y-71907442D02*
X29078134Y-71907506D01*
X29289966Y-71931267D01*
X29493148Y-71995720D01*
X29679942Y-72098411D01*
X29843232Y-72235428D01*
X29976799Y-72401551D01*
X30075555Y-72590455D01*
X30135739Y-72794942D01*
X30135743Y-72794983D01*
X30135744Y-72794987D01*
X30155059Y-73007223D01*
X30132783Y-73219170D01*
X30132781Y-73219175D01*
X30132777Y-73219217D01*
X30069744Y-73422845D01*
X29968360Y-73610350D01*
X29832486Y-73774593D01*
X29667299Y-73909317D01*
X29479090Y-74009389D01*
X29275028Y-74070999D01*
X29062885Y-74091800D01*
X29052279Y-74091800D01*
X29046205Y-74091758D01*
X29037066Y-74091694D01*
X28825234Y-74067933D01*
X28622052Y-74003480D01*
X28435258Y-73900789D01*
X28271968Y-73763772D01*
X28138401Y-73597649D01*
X28039645Y-73408745D01*
X27979461Y-73204258D01*
X27979457Y-73204217D01*
X27979456Y-73204213D01*
X27960141Y-72991977D01*
X27982417Y-72780030D01*
X27982419Y-72780025D01*
X27982423Y-72779983D01*
X28045456Y-72576355D01*
X28146840Y-72388850D01*
X28282714Y-72224607D01*
X28447901Y-72089883D01*
X28636110Y-71989811D01*
X28840172Y-71928201D01*
X29052315Y-71907400D01*
X29062921Y-71907400D01*
X29068995Y-71907442D01*
X29068995Y-71907442D01*
G37*
G36*
X35213800Y-74025800D02*
X33061400Y-74025800D01*
X33061400Y-71973400D01*
X35213800Y-71973400D01*
X35213800Y-74025800D01*
X35213800Y-74025800D01*
G37*
G36*
X92363800Y-74025800D02*
X90211400Y-74025800D01*
X90211400Y-71973400D01*
X92363800Y-71973400D01*
X92363800Y-74025800D01*
X92363800Y-74025800D01*
G37*
G36*
X86013800Y-74025800D02*
X83861400Y-74025800D01*
X83861400Y-71973400D01*
X86013800Y-71973400D01*
X86013800Y-74025800D01*
X86013800Y-74025800D01*
G37*
G36*
X79663800Y-74025800D02*
X77511400Y-74025800D01*
X77511400Y-71973400D01*
X79663800Y-71973400D01*
X79663800Y-74025800D01*
X79663800Y-74025800D01*
G37*
G36*
X73313800Y-74025800D02*
X71161400Y-74025800D01*
X71161400Y-71973400D01*
X73313800Y-71973400D01*
X73313800Y-74025800D01*
X73313800Y-74025800D01*
G37*
G36*
X66963800Y-74025800D02*
X64811400Y-74025800D01*
X64811400Y-71973400D01*
X66963800Y-71973400D01*
X66963800Y-74025800D01*
X66963800Y-74025800D01*
G37*
G36*
X60613800Y-74025800D02*
X58461400Y-74025800D01*
X58461400Y-71973400D01*
X60613800Y-71973400D01*
X60613800Y-74025800D01*
X60613800Y-74025800D01*
G37*
G36*
X54263800Y-74025800D02*
X52111400Y-74025800D01*
X52111400Y-71973400D01*
X54263800Y-71973400D01*
X54263800Y-74025800D01*
X54263800Y-74025800D01*
G37*
G36*
X47913800Y-74025800D02*
X45761400Y-74025800D01*
X45761400Y-71973400D01*
X47913800Y-71973400D01*
X47913800Y-74025800D01*
X47913800Y-74025800D01*
G37*
G36*
X41563800Y-74025800D02*
X39411400Y-74025800D01*
X39411400Y-71973400D01*
X41563800Y-71973400D01*
X41563800Y-74025800D01*
X41563800Y-74025800D01*
G37*
G36*
X30149800Y-71551800D02*
X27965400Y-71551800D01*
X27965400Y-69367400D01*
X30149800Y-69367400D01*
X30149800Y-71551800D01*
X30149800Y-71551800D01*
G37*
G36*
X85045390Y-69434081D02*
X85242521Y-69474547D01*
X85428051Y-69552537D01*
X85594892Y-69665073D01*
X85736698Y-69807872D01*
X85848066Y-69975495D01*
X85924756Y-70161558D01*
X85963776Y-70358627D01*
X85963776Y-70358632D01*
X85963844Y-70358976D01*
X85960634Y-70588839D01*
X85960557Y-70589177D01*
X85960557Y-70589186D01*
X85916049Y-70785090D01*
X85834196Y-70968935D01*
X85718188Y-71133386D01*
X85572450Y-71272171D01*
X85402531Y-71380005D01*
X85214899Y-71452782D01*
X85016712Y-71487728D01*
X84815505Y-71483513D01*
X84618951Y-71440299D01*
X84434533Y-71359728D01*
X84269282Y-71244875D01*
X84129482Y-71100109D01*
X84020464Y-70930945D01*
X83946377Y-70743824D01*
X83910049Y-70545888D01*
X83912858Y-70344658D01*
X83954702Y-70147805D01*
X84033980Y-69962832D01*
X84147680Y-69796778D01*
X84291465Y-69655973D01*
X84459865Y-69545776D01*
X84646460Y-69470386D01*
X84844140Y-69432677D01*
X85045390Y-69434081D01*
X85045390Y-69434081D01*
G37*
G36*
X91395390Y-69434081D02*
X91592521Y-69474547D01*
X91778051Y-69552537D01*
X91944892Y-69665073D01*
X92086698Y-69807872D01*
X92198066Y-69975495D01*
X92274756Y-70161558D01*
X92313776Y-70358627D01*
X92313776Y-70358632D01*
X92313844Y-70358976D01*
X92310634Y-70588839D01*
X92310557Y-70589177D01*
X92310557Y-70589186D01*
X92266049Y-70785090D01*
X92184196Y-70968935D01*
X92068188Y-71133386D01*
X91922450Y-71272171D01*
X91752531Y-71380005D01*
X91564899Y-71452782D01*
X91366712Y-71487728D01*
X91165505Y-71483513D01*
X90968951Y-71440299D01*
X90784533Y-71359728D01*
X90619282Y-71244875D01*
X90479482Y-71100109D01*
X90370464Y-70930945D01*
X90296377Y-70743824D01*
X90260049Y-70545888D01*
X90262858Y-70344658D01*
X90304702Y-70147805D01*
X90383980Y-69962832D01*
X90497680Y-69796778D01*
X90641465Y-69655973D01*
X90809865Y-69545776D01*
X90996460Y-69470386D01*
X91194140Y-69432677D01*
X91395390Y-69434081D01*
X91395390Y-69434081D01*
G37*
G36*
X78695390Y-69434081D02*
X78892521Y-69474547D01*
X79078051Y-69552537D01*
X79244892Y-69665073D01*
X79386698Y-69807872D01*
X79498066Y-69975495D01*
X79574756Y-70161558D01*
X79613776Y-70358627D01*
X79613776Y-70358632D01*
X79613844Y-70358976D01*
X79610634Y-70588839D01*
X79610557Y-70589177D01*
X79610557Y-70589186D01*
X79566049Y-70785090D01*
X79484196Y-70968935D01*
X79368188Y-71133386D01*
X79222450Y-71272171D01*
X79052531Y-71380005D01*
X78864899Y-71452782D01*
X78666712Y-71487728D01*
X78465505Y-71483513D01*
X78268951Y-71440299D01*
X78084533Y-71359728D01*
X77919282Y-71244875D01*
X77779482Y-71100109D01*
X77670464Y-70930945D01*
X77596377Y-70743824D01*
X77560049Y-70545888D01*
X77562858Y-70344658D01*
X77604702Y-70147805D01*
X77683980Y-69962832D01*
X77797680Y-69796778D01*
X77941465Y-69655973D01*
X78109865Y-69545776D01*
X78296460Y-69470386D01*
X78494140Y-69432677D01*
X78695390Y-69434081D01*
X78695390Y-69434081D01*
G37*
G36*
X72345390Y-69434081D02*
X72542521Y-69474547D01*
X72728051Y-69552537D01*
X72894892Y-69665073D01*
X73036698Y-69807872D01*
X73148066Y-69975495D01*
X73224756Y-70161558D01*
X73263776Y-70358627D01*
X73263776Y-70358632D01*
X73263844Y-70358976D01*
X73260634Y-70588839D01*
X73260557Y-70589177D01*
X73260557Y-70589186D01*
X73216049Y-70785090D01*
X73134196Y-70968935D01*
X73018188Y-71133386D01*
X72872450Y-71272171D01*
X72702531Y-71380005D01*
X72514899Y-71452782D01*
X72316712Y-71487728D01*
X72115505Y-71483513D01*
X71918951Y-71440299D01*
X71734533Y-71359728D01*
X71569282Y-71244875D01*
X71429482Y-71100109D01*
X71320464Y-70930945D01*
X71246377Y-70743824D01*
X71210049Y-70545888D01*
X71212858Y-70344658D01*
X71254702Y-70147805D01*
X71333980Y-69962832D01*
X71447680Y-69796778D01*
X71591465Y-69655973D01*
X71759865Y-69545776D01*
X71946460Y-69470386D01*
X72144140Y-69432677D01*
X72345390Y-69434081D01*
X72345390Y-69434081D01*
G37*
G36*
X65995390Y-69434081D02*
X66192521Y-69474547D01*
X66378051Y-69552537D01*
X66544892Y-69665073D01*
X66686698Y-69807872D01*
X66798066Y-69975495D01*
X66874756Y-70161558D01*
X66913776Y-70358627D01*
X66913776Y-70358632D01*
X66913844Y-70358976D01*
X66910634Y-70588839D01*
X66910557Y-70589177D01*
X66910557Y-70589186D01*
X66866049Y-70785090D01*
X66784196Y-70968935D01*
X66668188Y-71133386D01*
X66522450Y-71272171D01*
X66352531Y-71380005D01*
X66164899Y-71452782D01*
X65966712Y-71487728D01*
X65765505Y-71483513D01*
X65568951Y-71440299D01*
X65384533Y-71359728D01*
X65219282Y-71244875D01*
X65079482Y-71100109D01*
X64970464Y-70930945D01*
X64896377Y-70743824D01*
X64860049Y-70545888D01*
X64862858Y-70344658D01*
X64904702Y-70147805D01*
X64983980Y-69962832D01*
X65097680Y-69796778D01*
X65241465Y-69655973D01*
X65409865Y-69545776D01*
X65596460Y-69470386D01*
X65794140Y-69432677D01*
X65995390Y-69434081D01*
X65995390Y-69434081D01*
G37*
G36*
X34245390Y-69434081D02*
X34442521Y-69474547D01*
X34628051Y-69552537D01*
X34794892Y-69665073D01*
X34936698Y-69807872D01*
X35048066Y-69975495D01*
X35124756Y-70161558D01*
X35163776Y-70358627D01*
X35163776Y-70358632D01*
X35163844Y-70358976D01*
X35160634Y-70588839D01*
X35160557Y-70589177D01*
X35160557Y-70589186D01*
X35116049Y-70785090D01*
X35034196Y-70968935D01*
X34918188Y-71133386D01*
X34772450Y-71272171D01*
X34602531Y-71380005D01*
X34414899Y-71452782D01*
X34216712Y-71487728D01*
X34015505Y-71483513D01*
X33818951Y-71440299D01*
X33634533Y-71359728D01*
X33469282Y-71244875D01*
X33329482Y-71100109D01*
X33220464Y-70930945D01*
X33146377Y-70743824D01*
X33110049Y-70545888D01*
X33112858Y-70344658D01*
X33154702Y-70147805D01*
X33233980Y-69962832D01*
X33347680Y-69796778D01*
X33491465Y-69655973D01*
X33659865Y-69545776D01*
X33846460Y-69470386D01*
X34044140Y-69432677D01*
X34245390Y-69434081D01*
X34245390Y-69434081D01*
G37*
G36*
X59645390Y-69434081D02*
X59842521Y-69474547D01*
X60028051Y-69552537D01*
X60194892Y-69665073D01*
X60336698Y-69807872D01*
X60448066Y-69975495D01*
X60524756Y-70161558D01*
X60563776Y-70358627D01*
X60563776Y-70358632D01*
X60563844Y-70358976D01*
X60560634Y-70588839D01*
X60560557Y-70589177D01*
X60560557Y-70589186D01*
X60516049Y-70785090D01*
X60434196Y-70968935D01*
X60318188Y-71133386D01*
X60172450Y-71272171D01*
X60002531Y-71380005D01*
X59814899Y-71452782D01*
X59616712Y-71487728D01*
X59415505Y-71483513D01*
X59218951Y-71440299D01*
X59034533Y-71359728D01*
X58869282Y-71244875D01*
X58729482Y-71100109D01*
X58620464Y-70930945D01*
X58546377Y-70743824D01*
X58510049Y-70545888D01*
X58512858Y-70344658D01*
X58554702Y-70147805D01*
X58633980Y-69962832D01*
X58747680Y-69796778D01*
X58891465Y-69655973D01*
X59059865Y-69545776D01*
X59246460Y-69470386D01*
X59444140Y-69432677D01*
X59645390Y-69434081D01*
X59645390Y-69434081D01*
G37*
G36*
X53295390Y-69434081D02*
X53492521Y-69474547D01*
X53678051Y-69552537D01*
X53844892Y-69665073D01*
X53986698Y-69807872D01*
X54098066Y-69975495D01*
X54174756Y-70161558D01*
X54213776Y-70358627D01*
X54213776Y-70358632D01*
X54213844Y-70358976D01*
X54210634Y-70588839D01*
X54210557Y-70589177D01*
X54210557Y-70589186D01*
X54166049Y-70785090D01*
X54084196Y-70968935D01*
X53968188Y-71133386D01*
X53822450Y-71272171D01*
X53652531Y-71380005D01*
X53464899Y-71452782D01*
X53266712Y-71487728D01*
X53065505Y-71483513D01*
X52868951Y-71440299D01*
X52684533Y-71359728D01*
X52519282Y-71244875D01*
X52379482Y-71100109D01*
X52270464Y-70930945D01*
X52196377Y-70743824D01*
X52160049Y-70545888D01*
X52162858Y-70344658D01*
X52204702Y-70147805D01*
X52283980Y-69962832D01*
X52397680Y-69796778D01*
X52541465Y-69655973D01*
X52709865Y-69545776D01*
X52896460Y-69470386D01*
X53094140Y-69432677D01*
X53295390Y-69434081D01*
X53295390Y-69434081D01*
G37*
G36*
X40595390Y-69434081D02*
X40792521Y-69474547D01*
X40978051Y-69552537D01*
X41144892Y-69665073D01*
X41286698Y-69807872D01*
X41398066Y-69975495D01*
X41474756Y-70161558D01*
X41513776Y-70358627D01*
X41513776Y-70358632D01*
X41513844Y-70358976D01*
X41510634Y-70588839D01*
X41510557Y-70589177D01*
X41510557Y-70589186D01*
X41466049Y-70785090D01*
X41384196Y-70968935D01*
X41268188Y-71133386D01*
X41122450Y-71272171D01*
X40952531Y-71380005D01*
X40764899Y-71452782D01*
X40566712Y-71487728D01*
X40365505Y-71483513D01*
X40168951Y-71440299D01*
X39984533Y-71359728D01*
X39819282Y-71244875D01*
X39679482Y-71100109D01*
X39570464Y-70930945D01*
X39496377Y-70743824D01*
X39460049Y-70545888D01*
X39462858Y-70344658D01*
X39504702Y-70147805D01*
X39583980Y-69962832D01*
X39697680Y-69796778D01*
X39841465Y-69655973D01*
X40009865Y-69545776D01*
X40196460Y-69470386D01*
X40394140Y-69432677D01*
X40595390Y-69434081D01*
X40595390Y-69434081D01*
G37*
G36*
X46945390Y-69434081D02*
X47142521Y-69474547D01*
X47328051Y-69552537D01*
X47494892Y-69665073D01*
X47636698Y-69807872D01*
X47748066Y-69975495D01*
X47824756Y-70161558D01*
X47863776Y-70358627D01*
X47863776Y-70358632D01*
X47863844Y-70358976D01*
X47860634Y-70588839D01*
X47860557Y-70589177D01*
X47860557Y-70589186D01*
X47816049Y-70785090D01*
X47734196Y-70968935D01*
X47618188Y-71133386D01*
X47472450Y-71272171D01*
X47302531Y-71380005D01*
X47114899Y-71452782D01*
X46916712Y-71487728D01*
X46715505Y-71483513D01*
X46518951Y-71440299D01*
X46334533Y-71359728D01*
X46169282Y-71244875D01*
X46029482Y-71100109D01*
X45920464Y-70930945D01*
X45846377Y-70743824D01*
X45810049Y-70545888D01*
X45812858Y-70344658D01*
X45854702Y-70147805D01*
X45933980Y-69962832D01*
X46047680Y-69796778D01*
X46191465Y-69655973D01*
X46359865Y-69545776D01*
X46546460Y-69470386D01*
X46744140Y-69432677D01*
X46945390Y-69434081D01*
X46945390Y-69434081D01*
G37*
M02*
