%TF.GenerationSoftware,KiCad,Pcbnew,4.0.7-e2-6376~58~ubuntu16.04.1*%
%TF.CreationDate,2017-10-04T18:34:51-07:00*%
%TF.ProjectId,mcphail-zero-analog-shield,6D63706861696C2D7A65726F2D616E61,v1.0*%
%TF.FileFunction,Legend,Top*%
%FSLAX46Y46*%
G04 Gerber Fmt 4.6, Leading zero omitted, Abs format (unit mm)*
G04 Created by KiCad (PCBNEW 4.0.7-e2-6376~58~ubuntu16.04.1) date Wed Oct  4 18:34:51 2017*
%MOMM*%
%LPD*%
G01*
G04 APERTURE LIST*
%ADD10C,0.350000*%
%ADD11C,0.203200*%
%ADD12C,0.152400*%
%ADD13C,0.150000*%
%ADD14C,0.200000*%
%ADD15C,0.127000*%
%ADD16C,0.254000*%
%ADD17R,1.402400X1.152400*%
%ADD18R,1.212400X0.802400*%
%ADD19R,0.952400X0.902400*%
%ADD20R,1.652400X0.752400*%
%ADD21C,2.946400*%
%ADD22R,1.152400X2.652400*%
%ADD23R,2.652400X1.152400*%
%ADD24R,0.952400X1.852400*%
%ADD25R,0.902400X0.952400*%
%ADD26R,1.152400X1.402400*%
%ADD27R,1.152400X1.752400*%
%ADD28R,1.752400X1.152400*%
%ADD29C,1.752400*%
%ADD30R,2.184400X2.184400*%
%ADD31O,2.184400X2.184400*%
%ADD32O,1.676400X2.692400*%
%ADD33C,3.327400*%
G04 APERTURE END LIST*
D10*
D11*
X34123086Y-157833181D02*
X34123086Y-158800800D01*
X34123086Y-161340800D02*
X34123086Y-162308419D01*
X33639276Y-161824609D02*
X34606895Y-161824609D01*
D12*
X34667372Y-155526619D02*
X34667372Y-154510619D01*
X34909277Y-154510619D01*
X35054419Y-154559000D01*
X35151181Y-154655762D01*
X35199562Y-154752524D01*
X35247943Y-154946048D01*
X35247943Y-155091190D01*
X35199562Y-155284714D01*
X35151181Y-155381476D01*
X35054419Y-155478238D01*
X34909277Y-155526619D01*
X34667372Y-155526619D01*
X35683372Y-154994429D02*
X36022038Y-154994429D01*
X36167181Y-155526619D02*
X35683372Y-155526619D01*
X35683372Y-154510619D01*
X36167181Y-154510619D01*
X36457467Y-154510619D02*
X37038038Y-154510619D01*
X36747753Y-155526619D02*
X36747753Y-154510619D01*
X37376705Y-154994429D02*
X37715371Y-154994429D01*
X37860514Y-155526619D02*
X37376705Y-155526619D01*
X37376705Y-154510619D01*
X37860514Y-154510619D01*
X38876514Y-155429857D02*
X38828133Y-155478238D01*
X38682990Y-155526619D01*
X38586228Y-155526619D01*
X38441086Y-155478238D01*
X38344324Y-155381476D01*
X38295943Y-155284714D01*
X38247562Y-155091190D01*
X38247562Y-154946048D01*
X38295943Y-154752524D01*
X38344324Y-154655762D01*
X38441086Y-154559000D01*
X38586228Y-154510619D01*
X38682990Y-154510619D01*
X38828133Y-154559000D01*
X38876514Y-154607381D01*
X39166800Y-154510619D02*
X39747371Y-154510619D01*
X39457086Y-155526619D02*
X39457086Y-154510619D01*
X40279562Y-154510619D02*
X40473085Y-154510619D01*
X40569847Y-154559000D01*
X40666609Y-154655762D01*
X40714990Y-154849286D01*
X40714990Y-155187952D01*
X40666609Y-155381476D01*
X40569847Y-155478238D01*
X40473085Y-155526619D01*
X40279562Y-155526619D01*
X40182800Y-155478238D01*
X40086038Y-155381476D01*
X40037657Y-155187952D01*
X40037657Y-154849286D01*
X40086038Y-154655762D01*
X40182800Y-154559000D01*
X40279562Y-154510619D01*
X41730990Y-155526619D02*
X41392324Y-155042810D01*
X41150419Y-155526619D02*
X41150419Y-154510619D01*
X41537466Y-154510619D01*
X41634228Y-154559000D01*
X41682609Y-154607381D01*
X41730990Y-154704143D01*
X41730990Y-154849286D01*
X41682609Y-154946048D01*
X41634228Y-154994429D01*
X41537466Y-155042810D01*
X41150419Y-155042810D01*
X42118038Y-155478238D02*
X42263181Y-155526619D01*
X42505085Y-155526619D01*
X42601847Y-155478238D01*
X42650228Y-155429857D01*
X42698609Y-155333095D01*
X42698609Y-155236333D01*
X42650228Y-155139571D01*
X42601847Y-155091190D01*
X42505085Y-155042810D01*
X42311562Y-154994429D01*
X42214800Y-154946048D01*
X42166419Y-154897667D01*
X42118038Y-154800905D01*
X42118038Y-154704143D01*
X42166419Y-154607381D01*
X42214800Y-154559000D01*
X42311562Y-154510619D01*
X42553466Y-154510619D01*
X42698609Y-154559000D01*
D11*
X33970686Y-131366381D02*
X33970686Y-132334000D01*
X33486876Y-131850190D02*
X34454495Y-131850190D01*
X33970686Y-134874000D02*
X33970686Y-135841619D01*
D12*
X35469286Y-128959429D02*
X35807952Y-128959429D01*
X35953095Y-129491619D02*
X35469286Y-129491619D01*
X35469286Y-128475619D01*
X35953095Y-128475619D01*
X36388524Y-129491619D02*
X36388524Y-128475619D01*
X36727190Y-129201333D01*
X37065857Y-128475619D01*
X37065857Y-129491619D01*
X37549667Y-129491619D02*
X37549667Y-128475619D01*
X37888334Y-128475619D02*
X38468905Y-128475619D01*
X38178620Y-129491619D02*
X38178620Y-128475619D01*
X38662429Y-128475619D02*
X39243000Y-128475619D01*
X38952715Y-129491619D02*
X38952715Y-128475619D01*
X39581667Y-128959429D02*
X39920333Y-128959429D01*
X40065476Y-129491619D02*
X39581667Y-129491619D01*
X39581667Y-128475619D01*
X40065476Y-128475619D01*
X41081476Y-129491619D02*
X40742810Y-129007810D01*
X40500905Y-129491619D02*
X40500905Y-128475619D01*
X40887952Y-128475619D01*
X40984714Y-128524000D01*
X41033095Y-128572381D01*
X41081476Y-128669143D01*
X41081476Y-128814286D01*
X41033095Y-128911048D01*
X40984714Y-128959429D01*
X40887952Y-129007810D01*
X40500905Y-129007810D01*
X41468524Y-129443238D02*
X41613667Y-129491619D01*
X41855571Y-129491619D01*
X41952333Y-129443238D01*
X42000714Y-129394857D01*
X42049095Y-129298095D01*
X42049095Y-129201333D01*
X42000714Y-129104571D01*
X41952333Y-129056190D01*
X41855571Y-129007810D01*
X41662048Y-128959429D01*
X41565286Y-128911048D01*
X41516905Y-128862667D01*
X41468524Y-128765905D01*
X41468524Y-128669143D01*
X41516905Y-128572381D01*
X41565286Y-128524000D01*
X41662048Y-128475619D01*
X41903952Y-128475619D01*
X42049095Y-128524000D01*
X50467381Y-167134419D02*
X50128715Y-166650610D01*
X49886810Y-167134419D02*
X49886810Y-166118419D01*
X50273857Y-166118419D01*
X50370619Y-166166800D01*
X50419000Y-166215181D01*
X50467381Y-166311943D01*
X50467381Y-166457086D01*
X50419000Y-166553848D01*
X50370619Y-166602229D01*
X50273857Y-166650610D01*
X49886810Y-166650610D01*
X50902810Y-166602229D02*
X51241476Y-166602229D01*
X51386619Y-167134419D02*
X50902810Y-167134419D01*
X50902810Y-166118419D01*
X51386619Y-166118419D01*
X51773667Y-167086038D02*
X51918810Y-167134419D01*
X52160714Y-167134419D01*
X52257476Y-167086038D01*
X52305857Y-167037657D01*
X52354238Y-166940895D01*
X52354238Y-166844133D01*
X52305857Y-166747371D01*
X52257476Y-166698990D01*
X52160714Y-166650610D01*
X51967191Y-166602229D01*
X51870429Y-166553848D01*
X51822048Y-166505467D01*
X51773667Y-166408705D01*
X51773667Y-166311943D01*
X51822048Y-166215181D01*
X51870429Y-166166800D01*
X51967191Y-166118419D01*
X52209095Y-166118419D01*
X52354238Y-166166800D01*
X52789667Y-166602229D02*
X53128333Y-166602229D01*
X53273476Y-167134419D02*
X52789667Y-167134419D01*
X52789667Y-166118419D01*
X53273476Y-166118419D01*
X53563762Y-166118419D02*
X54144333Y-166118419D01*
X53854048Y-167134419D02*
X53854048Y-166118419D01*
X60107286Y-133962019D02*
X60445953Y-134978019D01*
X60784619Y-133962019D01*
X61703857Y-134978019D02*
X61365191Y-134494210D01*
X61123286Y-134978019D02*
X61123286Y-133962019D01*
X61510333Y-133962019D01*
X61607095Y-134010400D01*
X61655476Y-134058781D01*
X61703857Y-134155543D01*
X61703857Y-134300686D01*
X61655476Y-134397448D01*
X61607095Y-134445829D01*
X61510333Y-134494210D01*
X61123286Y-134494210D01*
X62139286Y-134445829D02*
X62477952Y-134445829D01*
X62623095Y-134978019D02*
X62139286Y-134978019D01*
X62139286Y-133962019D01*
X62623095Y-133962019D01*
X63397190Y-134445829D02*
X63058524Y-134445829D01*
X63058524Y-134978019D02*
X63058524Y-133962019D01*
X63542333Y-133962019D01*
D13*
X71832291Y-146617099D02*
X71832291Y-147617099D01*
X73532291Y-147617099D02*
X73532291Y-146617099D01*
X47130600Y-157416800D02*
X46630600Y-157416800D01*
X47130600Y-160316800D02*
X47130600Y-157416800D01*
X46630600Y-160316800D02*
X47130600Y-160316800D01*
X46630600Y-157416800D02*
X46630600Y-160316800D01*
D12*
X89533164Y-156931946D02*
X89533164Y-158201946D01*
X92263664Y-156931946D02*
X92263664Y-158201946D01*
D13*
X89533164Y-156931946D02*
X92263664Y-156931946D01*
X92263664Y-158201946D02*
X89533164Y-158201946D01*
D14*
X82989400Y-141401800D02*
G75*
G03X82989400Y-141401800I-127000J0D01*
G01*
D13*
X77866400Y-141152800D02*
X77866400Y-141037800D01*
X77866400Y-132252800D02*
X77866400Y-132367800D01*
X82016400Y-132252800D02*
X82016400Y-132367800D01*
X81973400Y-141147800D02*
X77866400Y-141152800D01*
X82016400Y-132252800D02*
X77866400Y-132252800D01*
X81973400Y-141152800D02*
X81973400Y-141037800D01*
D12*
X63357538Y-137261600D02*
G75*
G03X63357538Y-137261600I-1457738J0D01*
G01*
D14*
X85981564Y-158176546D02*
G75*
G03X85981564Y-158176546I-127000J0D01*
G01*
D13*
X80858564Y-157927546D02*
X80858564Y-157812546D01*
X80858564Y-149027546D02*
X80858564Y-149142546D01*
X85008564Y-149027546D02*
X85008564Y-149142546D01*
X84965564Y-157922546D02*
X80858564Y-157927546D01*
X85008564Y-149027546D02*
X80858564Y-149027546D01*
X84965564Y-157927546D02*
X84965564Y-157812546D01*
X75623800Y-127963400D02*
X73623800Y-127963400D01*
X73623800Y-130913400D02*
X75623800Y-130913400D01*
X94105200Y-147007200D02*
X94105200Y-149007200D01*
X97055200Y-149007200D02*
X97055200Y-147007200D01*
X53788520Y-167964800D02*
X50788520Y-167964800D01*
X53788520Y-170464800D02*
X50788520Y-170464800D01*
D10*
X53895200Y-167214800D02*
X53895200Y-167214800D01*
X46973180Y-165901620D02*
X46973180Y-165901620D01*
D12*
X95046800Y-130175000D02*
X95046800Y-128905000D01*
X92316300Y-130175000D02*
X92316300Y-128905000D01*
D13*
X95046800Y-130175000D02*
X92316300Y-130175000D01*
X92316300Y-128905000D02*
X95046800Y-128905000D01*
D12*
X79857600Y-163945000D02*
X78587600Y-163945000D01*
X79857600Y-166675500D02*
X78587600Y-166675500D01*
D13*
X79857600Y-163945000D02*
X79857600Y-166675500D01*
X78587600Y-166675500D02*
X78587600Y-163945000D01*
D12*
X81584800Y-142214600D02*
X81584800Y-143484600D01*
X84315300Y-142214600D02*
X84315300Y-143484600D01*
D13*
X81584800Y-142214600D02*
X84315300Y-142214600D01*
X84315300Y-143484600D02*
X81584800Y-143484600D01*
D12*
X86289179Y-142204949D02*
X85019179Y-142204949D01*
X86289179Y-144935449D02*
X85019179Y-144935449D01*
D13*
X86289179Y-142204949D02*
X86289179Y-144935449D01*
X85019179Y-144935449D02*
X85019179Y-142204949D01*
D12*
X88041779Y-142267749D02*
X86771779Y-142267749D01*
X88041779Y-144998249D02*
X86771779Y-144998249D01*
D13*
X88041779Y-142267749D02*
X88041779Y-144998249D01*
X86771779Y-144998249D02*
X86771779Y-142267749D01*
D12*
X82588800Y-158877000D02*
X82588800Y-160147000D01*
X85319300Y-158877000D02*
X85319300Y-160147000D01*
D13*
X82588800Y-158877000D02*
X85319300Y-158877000D01*
X85319300Y-160147000D02*
X82588800Y-160147000D01*
D12*
X76415200Y-157556200D02*
X76415200Y-156286200D01*
X73684700Y-157556200D02*
X73684700Y-156286200D01*
D13*
X76415200Y-157556200D02*
X73684700Y-157556200D01*
X73684700Y-156286200D02*
X76415200Y-156286200D01*
D12*
X87172800Y-158177800D02*
X88442800Y-158177800D01*
X87172800Y-155447300D02*
X88442800Y-155447300D01*
D13*
X87172800Y-158177800D02*
X87172800Y-155447300D01*
X88442800Y-155447300D02*
X88442800Y-158177800D01*
D12*
X74599291Y-154610099D02*
X74599291Y-153340099D01*
X71868791Y-154610099D02*
X71868791Y-153340099D01*
D13*
X74599291Y-154610099D02*
X71868791Y-154610099D01*
X71868791Y-153340099D02*
X74599291Y-153340099D01*
X88837400Y-147902800D02*
X88837400Y-148902800D01*
X90537400Y-148902800D02*
X90537400Y-147902800D01*
X91187400Y-150788000D02*
X90187400Y-150788000D01*
X90187400Y-152488000D02*
X91187400Y-152488000D01*
D12*
X92337320Y-160157160D02*
X92337320Y-158887160D01*
X89606820Y-160157160D02*
X89606820Y-158887160D01*
D13*
X92337320Y-160157160D02*
X89606820Y-160157160D01*
X89606820Y-158887160D02*
X92337320Y-158887160D01*
D12*
X91033600Y-155192046D02*
X91033600Y-156462046D01*
X93764100Y-155192046D02*
X93764100Y-156462046D01*
D13*
X91033600Y-155192046D02*
X93764100Y-155192046D01*
X93764100Y-156462046D02*
X91033600Y-156462046D01*
D12*
X68338000Y-156387800D02*
X68338000Y-155117800D01*
X65607500Y-156387800D02*
X65607500Y-155117800D01*
D13*
X68338000Y-156387800D02*
X65607500Y-156387800D01*
X65607500Y-155117800D02*
X68338000Y-155117800D01*
D12*
X59448891Y-154090099D02*
X60718891Y-154090099D01*
X59448891Y-151359599D02*
X60718891Y-151359599D01*
D13*
X59448891Y-154090099D02*
X59448891Y-151359599D01*
X60718891Y-151359599D02*
X60718891Y-154090099D01*
D12*
X85448140Y-131540820D02*
X84178140Y-131540820D01*
X85448140Y-134271320D02*
X84178140Y-134271320D01*
D13*
X85448140Y-131540820D02*
X85448140Y-134271320D01*
X84178140Y-134271320D02*
X84178140Y-131540820D01*
D12*
X77583600Y-128752600D02*
X77583600Y-130022600D01*
X80314100Y-128752600D02*
X80314100Y-130022600D01*
D13*
X77583600Y-128752600D02*
X80314100Y-128752600D01*
X80314100Y-130022600D02*
X77583600Y-130022600D01*
D12*
X57861200Y-144004600D02*
X56591200Y-144004600D01*
X57861200Y-146735100D02*
X56591200Y-146735100D01*
D13*
X57861200Y-144004600D02*
X57861200Y-146735100D01*
X56591200Y-146735100D02*
X56591200Y-144004600D01*
D12*
X72138540Y-132748020D02*
X72138540Y-131478020D01*
X69408040Y-132748020D02*
X69408040Y-131478020D01*
D13*
X72138540Y-132748020D02*
X69408040Y-132748020D01*
X69408040Y-131478020D02*
X72138540Y-131478020D01*
D12*
X62378583Y-141656099D02*
X62378583Y-142926099D01*
X65109083Y-141656099D02*
X65109083Y-142926099D01*
D13*
X62378583Y-141656099D02*
X65109083Y-141656099D01*
X65109083Y-142926099D02*
X62378583Y-142926099D01*
D12*
X74968800Y-143941800D02*
X74968800Y-145211800D01*
X77699300Y-143941800D02*
X77699300Y-145211800D01*
D13*
X74968800Y-143941800D02*
X77699300Y-143941800D01*
X77699300Y-145211800D02*
X74968800Y-145211800D01*
D12*
X65607691Y-141656099D02*
X65607691Y-142926099D01*
X68338191Y-141656099D02*
X68338191Y-142926099D01*
D13*
X65607691Y-141656099D02*
X68338191Y-141656099D01*
X68338191Y-142926099D02*
X65607691Y-142926099D01*
D12*
X78294800Y-142214600D02*
X78294800Y-143484600D01*
X81025300Y-142214600D02*
X81025300Y-143484600D01*
D13*
X78294800Y-142214600D02*
X81025300Y-142214600D01*
X81025300Y-143484600D02*
X78294800Y-143484600D01*
D12*
X75653200Y-141554200D02*
X75653200Y-140284200D01*
X72922700Y-141554200D02*
X72922700Y-140284200D01*
D13*
X75653200Y-141554200D02*
X72922700Y-141554200D01*
X72922700Y-140284200D02*
X75653200Y-140284200D01*
D12*
X69342000Y-144969800D02*
X70612000Y-144969800D01*
X69342000Y-142239300D02*
X70612000Y-142239300D01*
D13*
X69342000Y-144969800D02*
X69342000Y-142239300D01*
X70612000Y-142239300D02*
X70612000Y-144969800D01*
D12*
X69354891Y-150280099D02*
X70624891Y-150280099D01*
X69354891Y-147549599D02*
X70624891Y-147549599D01*
D13*
X69354891Y-150280099D02*
X69354891Y-147549599D01*
X70624891Y-147549599D02*
X70624891Y-150280099D01*
D12*
X44970000Y-155524200D02*
X44970000Y-156794200D01*
X47700500Y-155524200D02*
X47700500Y-156794200D01*
D13*
X44970000Y-155524200D02*
X47700500Y-155524200D01*
X47700500Y-156794200D02*
X44970000Y-156794200D01*
D12*
X45884400Y-132105400D02*
X45884400Y-130835400D01*
X43153900Y-132105400D02*
X43153900Y-130835400D01*
D13*
X45884400Y-132105400D02*
X43153900Y-132105400D01*
X43153900Y-130835400D02*
X45884400Y-130835400D01*
D15*
X95186800Y-126756400D02*
X95186800Y-128056400D01*
D13*
X94011800Y-128106400D02*
X93311800Y-128106400D01*
X93311800Y-126706400D02*
X94011800Y-126706400D01*
X84166340Y-136092820D02*
X84166340Y-137092820D01*
X85866340Y-137092820D02*
X85866340Y-136092820D01*
D12*
X84127340Y-141599220D02*
X85397340Y-141599220D01*
X84127340Y-138868720D02*
X85397340Y-138868720D01*
D13*
X84127340Y-141599220D02*
X84127340Y-138868720D01*
X85397340Y-138868720D02*
X85397340Y-141599220D01*
D12*
X75336400Y-154621800D02*
X76606400Y-154621800D01*
X75336400Y-151891300D02*
X76606400Y-151891300D01*
D13*
X75336400Y-154621800D02*
X75336400Y-151891300D01*
X76606400Y-151891300D02*
X76606400Y-154621800D01*
D12*
X87122000Y-154801000D02*
X88392000Y-154801000D01*
X87122000Y-152070500D02*
X88392000Y-152070500D01*
D13*
X87122000Y-154801000D02*
X87122000Y-152070500D01*
X88392000Y-152070500D02*
X88392000Y-154801000D01*
X69864600Y-159216200D02*
X71864600Y-159216200D01*
X71864600Y-157166200D02*
X69864600Y-157166200D01*
X71205200Y-155279600D02*
X71205200Y-153279600D01*
X69155200Y-153279600D02*
X69155200Y-155279600D01*
X64862200Y-159267000D02*
X66862200Y-159267000D01*
X66862200Y-157217000D02*
X64862200Y-157217000D01*
X56811800Y-157939000D02*
X58811800Y-157939000D01*
X58811800Y-154989000D02*
X56811800Y-154989000D01*
D12*
X87213440Y-131490720D02*
X85943440Y-131490720D01*
X87213440Y-134221220D02*
X85943440Y-134221220D01*
D13*
X87213440Y-131490720D02*
X87213440Y-134221220D01*
X85943440Y-134221220D02*
X85943440Y-131490720D01*
X54424200Y-154332200D02*
X56424200Y-154332200D01*
X56424200Y-151382200D02*
X54424200Y-151382200D01*
X52855600Y-144010000D02*
X52855600Y-146010000D01*
X55805600Y-146010000D02*
X55805600Y-144010000D01*
X58533091Y-149148199D02*
X59533091Y-149148199D01*
X59533091Y-147448199D02*
X58533091Y-147448199D01*
X50156000Y-144010000D02*
X50156000Y-146010000D01*
X52206000Y-146010000D02*
X52206000Y-144010000D01*
D12*
X75539600Y-131542220D02*
X74269600Y-131542220D01*
X75539600Y-134272720D02*
X74269600Y-134272720D01*
D13*
X75539600Y-131542220D02*
X75539600Y-134272720D01*
X74269600Y-134272720D02*
X74269600Y-131542220D01*
X58588800Y-143552800D02*
X58588800Y-145552800D01*
X60638800Y-145552800D02*
X60638800Y-143552800D01*
D12*
X69189600Y-135114600D02*
X67919600Y-135114600D01*
X69189600Y-137845100D02*
X67919600Y-137845100D01*
D13*
X69189600Y-135114600D02*
X69189600Y-137845100D01*
X67919600Y-137845100D02*
X67919600Y-135114600D01*
X71832291Y-150443099D02*
X71832291Y-151443099D01*
X73532291Y-151443099D02*
X73532291Y-150443099D01*
D12*
X77724000Y-143484600D02*
X77724000Y-142214600D01*
X74993500Y-143484600D02*
X74993500Y-142214600D01*
D13*
X77724000Y-143484600D02*
X74993500Y-143484600D01*
X74993500Y-142214600D02*
X77724000Y-142214600D01*
X49107200Y-146060800D02*
X49107200Y-144060800D01*
X47057200Y-144060800D02*
X47057200Y-146060800D01*
X72572240Y-137956820D02*
X74572240Y-137956820D01*
X74572240Y-135006820D02*
X72572240Y-135006820D01*
D12*
X72859200Y-138353800D02*
X72859200Y-139623800D01*
X75589700Y-138353800D02*
X75589700Y-139623800D01*
D13*
X72859200Y-138353800D02*
X75589700Y-138353800D01*
X75589700Y-139623800D02*
X72859200Y-139623800D01*
D12*
X50800000Y-157314200D02*
X49530000Y-157314200D01*
X50800000Y-160044700D02*
X49530000Y-160044700D01*
D13*
X50800000Y-157314200D02*
X50800000Y-160044700D01*
X49530000Y-160044700D02*
X49530000Y-157314200D01*
X49107200Y-151595200D02*
X49107200Y-149595200D01*
X47057200Y-149595200D02*
X47057200Y-151595200D01*
X91202400Y-146929600D02*
X91202400Y-148929600D01*
X93252400Y-148929600D02*
X93252400Y-146929600D01*
D12*
X54926800Y-149631400D02*
X54926800Y-150901400D01*
X57657300Y-149631400D02*
X57657300Y-150901400D01*
D13*
X54926800Y-149631400D02*
X57657300Y-149631400D01*
X57657300Y-150901400D02*
X54926800Y-150901400D01*
D12*
X72150540Y-134437120D02*
X72150540Y-133167120D01*
X69420040Y-134437120D02*
X69420040Y-133167120D01*
D13*
X72150540Y-134437120D02*
X69420040Y-134437120D01*
X69420040Y-133167120D02*
X72150540Y-133167120D01*
X91187400Y-153023200D02*
X90187400Y-153023200D01*
X90187400Y-154723200D02*
X91187400Y-154723200D01*
D16*
X53990600Y-135605000D02*
X49540600Y-135605000D01*
X54990600Y-133330000D02*
G75*
G03X54990600Y-133330000I-3200000J0D01*
G01*
X53290600Y-130830000D02*
X54290600Y-130830000D01*
X53790600Y-130330000D02*
X53790600Y-131330000D01*
D12*
X77114400Y-158127000D02*
X78384400Y-158127000D01*
X77114400Y-155396500D02*
X78384400Y-155396500D01*
D13*
X77114400Y-158127000D02*
X77114400Y-155396500D01*
X78384400Y-155396500D02*
X78384400Y-158127000D01*
D14*
X62212200Y-144754600D02*
G75*
G03X62212200Y-144754600I-127000J0D01*
G01*
D13*
X67081200Y-145003600D02*
X67081200Y-145118600D01*
X67081200Y-153903600D02*
X67081200Y-153788600D01*
X62931200Y-153903600D02*
X62931200Y-153788600D01*
X62974200Y-145008600D02*
X67081200Y-145003600D01*
X62931200Y-153903600D02*
X67081200Y-153903600D01*
X62974200Y-145003600D02*
X62974200Y-145118600D01*
X37465000Y-159969200D02*
X37465000Y-157429200D01*
X37185000Y-162789200D02*
X37185000Y-161239200D01*
X37465000Y-159969200D02*
X40005000Y-159969200D01*
X40285000Y-161239200D02*
X40285000Y-162789200D01*
X40285000Y-162789200D02*
X37185000Y-162789200D01*
X40005000Y-159969200D02*
X40005000Y-157429200D01*
X40005000Y-157429200D02*
X37465000Y-157429200D01*
X40005000Y-133604000D02*
X40005000Y-136144000D01*
X40285000Y-130784000D02*
X40285000Y-132334000D01*
X40005000Y-133604000D02*
X37465000Y-133604000D01*
X37185000Y-132334000D02*
X37185000Y-130784000D01*
X37185000Y-130784000D02*
X40285000Y-130784000D01*
X37465000Y-133604000D02*
X37465000Y-136144000D01*
X37465000Y-136144000D02*
X40005000Y-136144000D01*
X74855343Y-147334266D02*
X74902962Y-147381885D01*
X74950581Y-147524742D01*
X74950581Y-147619980D01*
X74902962Y-147762838D01*
X74807724Y-147858076D01*
X74712486Y-147905695D01*
X74522010Y-147953314D01*
X74379152Y-147953314D01*
X74188676Y-147905695D01*
X74093438Y-147858076D01*
X73998200Y-147762838D01*
X73950581Y-147619980D01*
X73950581Y-147524742D01*
X73998200Y-147381885D01*
X74045819Y-147334266D01*
X74283914Y-146477123D02*
X74950581Y-146477123D01*
X73902962Y-146715219D02*
X74617248Y-146953314D01*
X74617248Y-146334266D01*
X46118695Y-155719181D02*
X46118695Y-156528705D01*
X46166314Y-156623943D01*
X46213933Y-156671562D01*
X46309171Y-156719181D01*
X46499648Y-156719181D01*
X46594886Y-156671562D01*
X46642505Y-156623943D01*
X46690124Y-156528705D01*
X46690124Y-155719181D01*
X47594886Y-156052514D02*
X47594886Y-156719181D01*
X47356790Y-155671562D02*
X47118695Y-156385848D01*
X47737743Y-156385848D01*
X93565743Y-157983181D02*
X93232409Y-157506990D01*
X92994314Y-157983181D02*
X92994314Y-156983181D01*
X93375267Y-156983181D01*
X93470505Y-157030800D01*
X93518124Y-157078419D01*
X93565743Y-157173657D01*
X93565743Y-157316514D01*
X93518124Y-157411752D01*
X93470505Y-157459371D01*
X93375267Y-157506990D01*
X92994314Y-157506990D01*
X93946695Y-157078419D02*
X93994314Y-157030800D01*
X94089552Y-156983181D01*
X94327648Y-156983181D01*
X94422886Y-157030800D01*
X94470505Y-157078419D01*
X94518124Y-157173657D01*
X94518124Y-157268895D01*
X94470505Y-157411752D01*
X93899076Y-157983181D01*
X94518124Y-157983181D01*
X94899076Y-157078419D02*
X94946695Y-157030800D01*
X95041933Y-156983181D01*
X95280029Y-156983181D01*
X95375267Y-157030800D01*
X95422886Y-157078419D01*
X95470505Y-157173657D01*
X95470505Y-157268895D01*
X95422886Y-157411752D01*
X94851457Y-157983181D01*
X95470505Y-157983181D01*
X79324295Y-130668781D02*
X79324295Y-131478305D01*
X79371914Y-131573543D01*
X79419533Y-131621162D01*
X79514771Y-131668781D01*
X79705248Y-131668781D01*
X79800486Y-131621162D01*
X79848105Y-131573543D01*
X79895724Y-131478305D01*
X79895724Y-130668781D01*
X80324295Y-130764019D02*
X80371914Y-130716400D01*
X80467152Y-130668781D01*
X80705248Y-130668781D01*
X80800486Y-130716400D01*
X80848105Y-130764019D01*
X80895724Y-130859257D01*
X80895724Y-130954495D01*
X80848105Y-131097352D01*
X80276676Y-131668781D01*
X80895724Y-131668781D01*
X82169095Y-147534381D02*
X82169095Y-148343905D01*
X82216714Y-148439143D01*
X82264333Y-148486762D01*
X82359571Y-148534381D01*
X82550048Y-148534381D01*
X82645286Y-148486762D01*
X82692905Y-148439143D01*
X82740524Y-148343905D01*
X82740524Y-147534381D01*
X83121476Y-147534381D02*
X83740524Y-147534381D01*
X83407190Y-147915333D01*
X83550048Y-147915333D01*
X83645286Y-147962952D01*
X83692905Y-148010571D01*
X83740524Y-148105810D01*
X83740524Y-148343905D01*
X83692905Y-148439143D01*
X83645286Y-148486762D01*
X83550048Y-148534381D01*
X83264333Y-148534381D01*
X83169095Y-148486762D01*
X83121476Y-148439143D01*
X71807343Y-130081257D02*
X71854962Y-130128876D01*
X71902581Y-130271733D01*
X71902581Y-130366971D01*
X71854962Y-130509829D01*
X71759724Y-130605067D01*
X71664486Y-130652686D01*
X71474010Y-130700305D01*
X71331152Y-130700305D01*
X71140676Y-130652686D01*
X71045438Y-130605067D01*
X70950200Y-130509829D01*
X70902581Y-130366971D01*
X70902581Y-130271733D01*
X70950200Y-130128876D01*
X70997819Y-130081257D01*
X71902581Y-129128876D02*
X71902581Y-129700305D01*
X71902581Y-129414591D02*
X70902581Y-129414591D01*
X71045438Y-129509829D01*
X71140676Y-129605067D01*
X71188295Y-129700305D01*
X70902581Y-128224114D02*
X70902581Y-128700305D01*
X71378771Y-128747924D01*
X71331152Y-128700305D01*
X71283533Y-128605067D01*
X71283533Y-128366971D01*
X71331152Y-128271733D01*
X71378771Y-128224114D01*
X71474010Y-128176495D01*
X71712105Y-128176495D01*
X71807343Y-128224114D01*
X71854962Y-128271733D01*
X71902581Y-128366971D01*
X71902581Y-128605067D01*
X71854962Y-128700305D01*
X71807343Y-128747924D01*
X94734143Y-144984743D02*
X94686524Y-145032362D01*
X94543667Y-145079981D01*
X94448429Y-145079981D01*
X94305571Y-145032362D01*
X94210333Y-144937124D01*
X94162714Y-144841886D01*
X94115095Y-144651410D01*
X94115095Y-144508552D01*
X94162714Y-144318076D01*
X94210333Y-144222838D01*
X94305571Y-144127600D01*
X94448429Y-144079981D01*
X94543667Y-144079981D01*
X94686524Y-144127600D01*
X94734143Y-144175219D01*
X95115095Y-144175219D02*
X95162714Y-144127600D01*
X95257952Y-144079981D01*
X95496048Y-144079981D01*
X95591286Y-144127600D01*
X95638905Y-144175219D01*
X95686524Y-144270457D01*
X95686524Y-144365695D01*
X95638905Y-144508552D01*
X95067476Y-145079981D01*
X95686524Y-145079981D01*
X96067476Y-144175219D02*
X96115095Y-144127600D01*
X96210333Y-144079981D01*
X96448429Y-144079981D01*
X96543667Y-144127600D01*
X96591286Y-144175219D01*
X96638905Y-144270457D01*
X96638905Y-144365695D01*
X96591286Y-144508552D01*
X96019857Y-145079981D01*
X96638905Y-145079981D01*
X89895443Y-130055881D02*
X89562109Y-129579690D01*
X89324014Y-130055881D02*
X89324014Y-129055881D01*
X89704967Y-129055881D01*
X89800205Y-129103500D01*
X89847824Y-129151119D01*
X89895443Y-129246357D01*
X89895443Y-129389214D01*
X89847824Y-129484452D01*
X89800205Y-129532071D01*
X89704967Y-129579690D01*
X89324014Y-129579690D01*
X90228776Y-129055881D02*
X90847824Y-129055881D01*
X90514490Y-129436833D01*
X90657348Y-129436833D01*
X90752586Y-129484452D01*
X90800205Y-129532071D01*
X90847824Y-129627310D01*
X90847824Y-129865405D01*
X90800205Y-129960643D01*
X90752586Y-130008262D01*
X90657348Y-130055881D01*
X90371633Y-130055881D01*
X90276395Y-130008262D01*
X90228776Y-129960643D01*
X91228776Y-129151119D02*
X91276395Y-129103500D01*
X91371633Y-129055881D01*
X91609729Y-129055881D01*
X91704967Y-129103500D01*
X91752586Y-129151119D01*
X91800205Y-129246357D01*
X91800205Y-129341595D01*
X91752586Y-129484452D01*
X91181157Y-130055881D01*
X91800205Y-130055881D01*
X79751181Y-162948857D02*
X79274990Y-163282191D01*
X79751181Y-163520286D02*
X78751181Y-163520286D01*
X78751181Y-163139333D01*
X78798800Y-163044095D01*
X78846419Y-162996476D01*
X78941657Y-162948857D01*
X79084514Y-162948857D01*
X79179752Y-162996476D01*
X79227371Y-163044095D01*
X79274990Y-163139333D01*
X79274990Y-163520286D01*
X78751181Y-162615524D02*
X78751181Y-161996476D01*
X79132133Y-162329810D01*
X79132133Y-162186952D01*
X79179752Y-162091714D01*
X79227371Y-162044095D01*
X79322610Y-161996476D01*
X79560705Y-161996476D01*
X79655943Y-162044095D01*
X79703562Y-162091714D01*
X79751181Y-162186952D01*
X79751181Y-162472667D01*
X79703562Y-162567905D01*
X79655943Y-162615524D01*
X79751181Y-161044095D02*
X79751181Y-161615524D01*
X79751181Y-161329810D02*
X78751181Y-161329810D01*
X78894038Y-161425048D01*
X78989276Y-161520286D01*
X79036895Y-161615524D01*
X82389743Y-145029181D02*
X82056409Y-144552990D01*
X81818314Y-145029181D02*
X81818314Y-144029181D01*
X82199267Y-144029181D01*
X82294505Y-144076800D01*
X82342124Y-144124419D01*
X82389743Y-144219657D01*
X82389743Y-144362514D01*
X82342124Y-144457752D01*
X82294505Y-144505371D01*
X82199267Y-144552990D01*
X81818314Y-144552990D01*
X82723076Y-144029181D02*
X83342124Y-144029181D01*
X83008790Y-144410133D01*
X83151648Y-144410133D01*
X83246886Y-144457752D01*
X83294505Y-144505371D01*
X83342124Y-144600610D01*
X83342124Y-144838705D01*
X83294505Y-144933943D01*
X83246886Y-144981562D01*
X83151648Y-145029181D01*
X82865933Y-145029181D01*
X82770695Y-144981562D01*
X82723076Y-144933943D01*
X83961171Y-144029181D02*
X84056410Y-144029181D01*
X84151648Y-144076800D01*
X84199267Y-144124419D01*
X84246886Y-144219657D01*
X84294505Y-144410133D01*
X84294505Y-144648229D01*
X84246886Y-144838705D01*
X84199267Y-144933943D01*
X84151648Y-144981562D01*
X84056410Y-145029181D01*
X83961171Y-145029181D01*
X83865933Y-144981562D01*
X83818314Y-144933943D01*
X83770695Y-144838705D01*
X83723076Y-144648229D01*
X83723076Y-144410133D01*
X83770695Y-144219657D01*
X83818314Y-144124419D01*
X83865933Y-144076800D01*
X83961171Y-144029181D01*
X86106560Y-147407806D02*
X85630369Y-147741140D01*
X86106560Y-147979235D02*
X85106560Y-147979235D01*
X85106560Y-147598282D01*
X85154179Y-147503044D01*
X85201798Y-147455425D01*
X85297036Y-147407806D01*
X85439893Y-147407806D01*
X85535131Y-147455425D01*
X85582750Y-147503044D01*
X85630369Y-147598282D01*
X85630369Y-147979235D01*
X85201798Y-147026854D02*
X85154179Y-146979235D01*
X85106560Y-146883997D01*
X85106560Y-146645901D01*
X85154179Y-146550663D01*
X85201798Y-146503044D01*
X85297036Y-146455425D01*
X85392274Y-146455425D01*
X85535131Y-146503044D01*
X86106560Y-147074473D01*
X86106560Y-146455425D01*
X86106560Y-145979235D02*
X86106560Y-145788759D01*
X86058941Y-145693520D01*
X86011322Y-145645901D01*
X85868465Y-145550663D01*
X85677989Y-145503044D01*
X85297036Y-145503044D01*
X85201798Y-145550663D01*
X85154179Y-145598282D01*
X85106560Y-145693520D01*
X85106560Y-145883997D01*
X85154179Y-145979235D01*
X85201798Y-146026854D01*
X85297036Y-146074473D01*
X85535131Y-146074473D01*
X85630369Y-146026854D01*
X85677989Y-145979235D01*
X85725608Y-145883997D01*
X85725608Y-145693520D01*
X85677989Y-145598282D01*
X85630369Y-145550663D01*
X85535131Y-145503044D01*
X87859160Y-147470606D02*
X87382969Y-147803940D01*
X87859160Y-148042035D02*
X86859160Y-148042035D01*
X86859160Y-147661082D01*
X86906779Y-147565844D01*
X86954398Y-147518225D01*
X87049636Y-147470606D01*
X87192493Y-147470606D01*
X87287731Y-147518225D01*
X87335350Y-147565844D01*
X87382969Y-147661082D01*
X87382969Y-148042035D01*
X86954398Y-147089654D02*
X86906779Y-147042035D01*
X86859160Y-146946797D01*
X86859160Y-146708701D01*
X86906779Y-146613463D01*
X86954398Y-146565844D01*
X87049636Y-146518225D01*
X87144874Y-146518225D01*
X87287731Y-146565844D01*
X87859160Y-147137273D01*
X87859160Y-146518225D01*
X86859160Y-146184892D02*
X86859160Y-145518225D01*
X87859160Y-145946797D01*
X80002143Y-160065981D02*
X79668809Y-159589790D01*
X79430714Y-160065981D02*
X79430714Y-159065981D01*
X79811667Y-159065981D01*
X79906905Y-159113600D01*
X79954524Y-159161219D01*
X80002143Y-159256457D01*
X80002143Y-159399314D01*
X79954524Y-159494552D01*
X79906905Y-159542171D01*
X79811667Y-159589790D01*
X79430714Y-159589790D01*
X80383095Y-159161219D02*
X80430714Y-159113600D01*
X80525952Y-159065981D01*
X80764048Y-159065981D01*
X80859286Y-159113600D01*
X80906905Y-159161219D01*
X80954524Y-159256457D01*
X80954524Y-159351695D01*
X80906905Y-159494552D01*
X80335476Y-160065981D01*
X80954524Y-160065981D01*
X81811667Y-159065981D02*
X81621190Y-159065981D01*
X81525952Y-159113600D01*
X81478333Y-159161219D01*
X81383095Y-159304076D01*
X81335476Y-159494552D01*
X81335476Y-159875505D01*
X81383095Y-159970743D01*
X81430714Y-160018362D01*
X81525952Y-160065981D01*
X81716429Y-160065981D01*
X81811667Y-160018362D01*
X81859286Y-159970743D01*
X81906905Y-159875505D01*
X81906905Y-159637410D01*
X81859286Y-159542171D01*
X81811667Y-159494552D01*
X81716429Y-159446933D01*
X81525952Y-159446933D01*
X81430714Y-159494552D01*
X81383095Y-159542171D01*
X81335476Y-159637410D01*
X74387343Y-158999181D02*
X74054009Y-158522990D01*
X73815914Y-158999181D02*
X73815914Y-157999181D01*
X74196867Y-157999181D01*
X74292105Y-158046800D01*
X74339724Y-158094419D01*
X74387343Y-158189657D01*
X74387343Y-158332514D01*
X74339724Y-158427752D01*
X74292105Y-158475371D01*
X74196867Y-158522990D01*
X73815914Y-158522990D01*
X74768295Y-158094419D02*
X74815914Y-158046800D01*
X74911152Y-157999181D01*
X75149248Y-157999181D01*
X75244486Y-158046800D01*
X75292105Y-158094419D01*
X75339724Y-158189657D01*
X75339724Y-158284895D01*
X75292105Y-158427752D01*
X74720676Y-158999181D01*
X75339724Y-158999181D01*
X76244486Y-157999181D02*
X75768295Y-157999181D01*
X75720676Y-158475371D01*
X75768295Y-158427752D01*
X75863533Y-158380133D01*
X76101629Y-158380133D01*
X76196867Y-158427752D01*
X76244486Y-158475371D01*
X76292105Y-158570610D01*
X76292105Y-158808705D01*
X76244486Y-158903943D01*
X76196867Y-158951562D01*
X76101629Y-158999181D01*
X75863533Y-158999181D01*
X75768295Y-158951562D01*
X75720676Y-158903943D01*
X88260181Y-160662857D02*
X87783990Y-160996191D01*
X88260181Y-161234286D02*
X87260181Y-161234286D01*
X87260181Y-160853333D01*
X87307800Y-160758095D01*
X87355419Y-160710476D01*
X87450657Y-160662857D01*
X87593514Y-160662857D01*
X87688752Y-160710476D01*
X87736371Y-160758095D01*
X87783990Y-160853333D01*
X87783990Y-161234286D01*
X87355419Y-160281905D02*
X87307800Y-160234286D01*
X87260181Y-160139048D01*
X87260181Y-159900952D01*
X87307800Y-159805714D01*
X87355419Y-159758095D01*
X87450657Y-159710476D01*
X87545895Y-159710476D01*
X87688752Y-159758095D01*
X88260181Y-160329524D01*
X88260181Y-159710476D01*
X87593514Y-158853333D02*
X88260181Y-158853333D01*
X87212562Y-159091429D02*
X87926848Y-159329524D01*
X87926848Y-158710476D01*
X72636143Y-155900381D02*
X72302809Y-155424190D01*
X72064714Y-155900381D02*
X72064714Y-154900381D01*
X72445667Y-154900381D01*
X72540905Y-154948000D01*
X72588524Y-154995619D01*
X72636143Y-155090857D01*
X72636143Y-155233714D01*
X72588524Y-155328952D01*
X72540905Y-155376571D01*
X72445667Y-155424190D01*
X72064714Y-155424190D01*
X73017095Y-154995619D02*
X73064714Y-154948000D01*
X73159952Y-154900381D01*
X73398048Y-154900381D01*
X73493286Y-154948000D01*
X73540905Y-154995619D01*
X73588524Y-155090857D01*
X73588524Y-155186095D01*
X73540905Y-155328952D01*
X72969476Y-155900381D01*
X73588524Y-155900381D01*
X73921857Y-154900381D02*
X74540905Y-154900381D01*
X74207571Y-155281333D01*
X74350429Y-155281333D01*
X74445667Y-155328952D01*
X74493286Y-155376571D01*
X74540905Y-155471810D01*
X74540905Y-155709905D01*
X74493286Y-155805143D01*
X74445667Y-155852762D01*
X74350429Y-155900381D01*
X74064714Y-155900381D01*
X73969476Y-155852762D01*
X73921857Y-155805143D01*
X90088981Y-145642057D02*
X89612790Y-145975391D01*
X90088981Y-146213486D02*
X89088981Y-146213486D01*
X89088981Y-145832533D01*
X89136600Y-145737295D01*
X89184219Y-145689676D01*
X89279457Y-145642057D01*
X89422314Y-145642057D01*
X89517552Y-145689676D01*
X89565171Y-145737295D01*
X89612790Y-145832533D01*
X89612790Y-146213486D01*
X89184219Y-145261105D02*
X89136600Y-145213486D01*
X89088981Y-145118248D01*
X89088981Y-144880152D01*
X89136600Y-144784914D01*
X89184219Y-144737295D01*
X89279457Y-144689676D01*
X89374695Y-144689676D01*
X89517552Y-144737295D01*
X90088981Y-145308724D01*
X90088981Y-144689676D01*
X90088981Y-143737295D02*
X90088981Y-144308724D01*
X90088981Y-144023010D02*
X89088981Y-144023010D01*
X89231838Y-144118248D01*
X89327076Y-144213486D01*
X89374695Y-144308724D01*
X93565743Y-152141181D02*
X93232409Y-151664990D01*
X92994314Y-152141181D02*
X92994314Y-151141181D01*
X93375267Y-151141181D01*
X93470505Y-151188800D01*
X93518124Y-151236419D01*
X93565743Y-151331657D01*
X93565743Y-151474514D01*
X93518124Y-151569752D01*
X93470505Y-151617371D01*
X93375267Y-151664990D01*
X92994314Y-151664990D01*
X93946695Y-151236419D02*
X93994314Y-151188800D01*
X94089552Y-151141181D01*
X94327648Y-151141181D01*
X94422886Y-151188800D01*
X94470505Y-151236419D01*
X94518124Y-151331657D01*
X94518124Y-151426895D01*
X94470505Y-151569752D01*
X93899076Y-152141181D01*
X94518124Y-152141181D01*
X95137171Y-151141181D02*
X95232410Y-151141181D01*
X95327648Y-151188800D01*
X95375267Y-151236419D01*
X95422886Y-151331657D01*
X95470505Y-151522133D01*
X95470505Y-151760229D01*
X95422886Y-151950705D01*
X95375267Y-152045943D01*
X95327648Y-152093562D01*
X95232410Y-152141181D01*
X95137171Y-152141181D01*
X95041933Y-152093562D01*
X94994314Y-152045943D01*
X94946695Y-151950705D01*
X94899076Y-151760229D01*
X94899076Y-151522133D01*
X94946695Y-151331657D01*
X94994314Y-151236419D01*
X95041933Y-151188800D01*
X95137171Y-151141181D01*
X93565743Y-160015181D02*
X93232409Y-159538990D01*
X92994314Y-160015181D02*
X92994314Y-159015181D01*
X93375267Y-159015181D01*
X93470505Y-159062800D01*
X93518124Y-159110419D01*
X93565743Y-159205657D01*
X93565743Y-159348514D01*
X93518124Y-159443752D01*
X93470505Y-159491371D01*
X93375267Y-159538990D01*
X92994314Y-159538990D01*
X94518124Y-160015181D02*
X93946695Y-160015181D01*
X94232409Y-160015181D02*
X94232409Y-159015181D01*
X94137171Y-159158038D01*
X94041933Y-159253276D01*
X93946695Y-159300895D01*
X94994314Y-160015181D02*
X95184790Y-160015181D01*
X95280029Y-159967562D01*
X95327648Y-159919943D01*
X95422886Y-159777086D01*
X95470505Y-159586610D01*
X95470505Y-159205657D01*
X95422886Y-159110419D01*
X95375267Y-159062800D01*
X95280029Y-159015181D01*
X95089552Y-159015181D01*
X94994314Y-159062800D01*
X94946695Y-159110419D01*
X94899076Y-159205657D01*
X94899076Y-159443752D01*
X94946695Y-159538990D01*
X94994314Y-159586610D01*
X95089552Y-159634229D01*
X95280029Y-159634229D01*
X95375267Y-159586610D01*
X95422886Y-159538990D01*
X95470505Y-159443752D01*
X94989979Y-156306781D02*
X94656645Y-155830590D01*
X94418550Y-156306781D02*
X94418550Y-155306781D01*
X94799503Y-155306781D01*
X94894741Y-155354400D01*
X94942360Y-155402019D01*
X94989979Y-155497257D01*
X94989979Y-155640114D01*
X94942360Y-155735352D01*
X94894741Y-155782971D01*
X94799503Y-155830590D01*
X94418550Y-155830590D01*
X95942360Y-156306781D02*
X95370931Y-156306781D01*
X95656645Y-156306781D02*
X95656645Y-155306781D01*
X95561407Y-155449638D01*
X95466169Y-155544876D01*
X95370931Y-155592495D01*
X96513788Y-155735352D02*
X96418550Y-155687733D01*
X96370931Y-155640114D01*
X96323312Y-155544876D01*
X96323312Y-155497257D01*
X96370931Y-155402019D01*
X96418550Y-155354400D01*
X96513788Y-155306781D01*
X96704265Y-155306781D01*
X96799503Y-155354400D01*
X96847122Y-155402019D01*
X96894741Y-155497257D01*
X96894741Y-155544876D01*
X96847122Y-155640114D01*
X96799503Y-155687733D01*
X96704265Y-155735352D01*
X96513788Y-155735352D01*
X96418550Y-155782971D01*
X96370931Y-155830590D01*
X96323312Y-155925829D01*
X96323312Y-156116305D01*
X96370931Y-156211543D01*
X96418550Y-156259162D01*
X96513788Y-156306781D01*
X96704265Y-156306781D01*
X96799503Y-156259162D01*
X96847122Y-156211543D01*
X96894741Y-156116305D01*
X96894741Y-155925829D01*
X96847122Y-155830590D01*
X96799503Y-155782971D01*
X96704265Y-155735352D01*
X63238143Y-156306781D02*
X62904809Y-155830590D01*
X62666714Y-156306781D02*
X62666714Y-155306781D01*
X63047667Y-155306781D01*
X63142905Y-155354400D01*
X63190524Y-155402019D01*
X63238143Y-155497257D01*
X63238143Y-155640114D01*
X63190524Y-155735352D01*
X63142905Y-155782971D01*
X63047667Y-155830590D01*
X62666714Y-155830590D01*
X64190524Y-156306781D02*
X63619095Y-156306781D01*
X63904809Y-156306781D02*
X63904809Y-155306781D01*
X63809571Y-155449638D01*
X63714333Y-155544876D01*
X63619095Y-155592495D01*
X64523857Y-155306781D02*
X65190524Y-155306781D01*
X64761952Y-156306781D01*
X58999381Y-153347657D02*
X58523190Y-153680991D01*
X58999381Y-153919086D02*
X57999381Y-153919086D01*
X57999381Y-153538133D01*
X58047000Y-153442895D01*
X58094619Y-153395276D01*
X58189857Y-153347657D01*
X58332714Y-153347657D01*
X58427952Y-153395276D01*
X58475571Y-153442895D01*
X58523190Y-153538133D01*
X58523190Y-153919086D01*
X58999381Y-152395276D02*
X58999381Y-152966705D01*
X58999381Y-152680991D02*
X57999381Y-152680991D01*
X58142238Y-152776229D01*
X58237476Y-152871467D01*
X58285095Y-152966705D01*
X57999381Y-151538133D02*
X57999381Y-151728610D01*
X58047000Y-151823848D01*
X58094619Y-151871467D01*
X58237476Y-151966705D01*
X58427952Y-152014324D01*
X58808905Y-152014324D01*
X58904143Y-151966705D01*
X58951762Y-151919086D01*
X58999381Y-151823848D01*
X58999381Y-151633371D01*
X58951762Y-151538133D01*
X58904143Y-151490514D01*
X58808905Y-151442895D01*
X58570810Y-151442895D01*
X58475571Y-151490514D01*
X58427952Y-151538133D01*
X58380333Y-151633371D01*
X58380333Y-151823848D01*
X58427952Y-151919086D01*
X58475571Y-151966705D01*
X58570810Y-152014324D01*
X85339181Y-130500357D02*
X84862990Y-130833691D01*
X85339181Y-131071786D02*
X84339181Y-131071786D01*
X84339181Y-130690833D01*
X84386800Y-130595595D01*
X84434419Y-130547976D01*
X84529657Y-130500357D01*
X84672514Y-130500357D01*
X84767752Y-130547976D01*
X84815371Y-130595595D01*
X84862990Y-130690833D01*
X84862990Y-131071786D01*
X85339181Y-129547976D02*
X85339181Y-130119405D01*
X85339181Y-129833691D02*
X84339181Y-129833691D01*
X84482038Y-129928929D01*
X84577276Y-130024167D01*
X84624895Y-130119405D01*
X84339181Y-128643214D02*
X84339181Y-129119405D01*
X84815371Y-129167024D01*
X84767752Y-129119405D01*
X84720133Y-129024167D01*
X84720133Y-128786071D01*
X84767752Y-128690833D01*
X84815371Y-128643214D01*
X84910610Y-128595595D01*
X85148705Y-128595595D01*
X85243943Y-128643214D01*
X85291562Y-128690833D01*
X85339181Y-128786071D01*
X85339181Y-129024167D01*
X85291562Y-129119405D01*
X85243943Y-129167024D01*
X81526143Y-129789181D02*
X81192809Y-129312990D01*
X80954714Y-129789181D02*
X80954714Y-128789181D01*
X81335667Y-128789181D01*
X81430905Y-128836800D01*
X81478524Y-128884419D01*
X81526143Y-128979657D01*
X81526143Y-129122514D01*
X81478524Y-129217752D01*
X81430905Y-129265371D01*
X81335667Y-129312990D01*
X80954714Y-129312990D01*
X82478524Y-129789181D02*
X81907095Y-129789181D01*
X82192809Y-129789181D02*
X82192809Y-128789181D01*
X82097571Y-128932038D01*
X82002333Y-129027276D01*
X81907095Y-129074895D01*
X82811857Y-128789181D02*
X83430905Y-128789181D01*
X83097571Y-129170133D01*
X83240429Y-129170133D01*
X83335667Y-129217752D01*
X83383286Y-129265371D01*
X83430905Y-129360610D01*
X83430905Y-129598705D01*
X83383286Y-129693943D01*
X83335667Y-129741562D01*
X83240429Y-129789181D01*
X82954714Y-129789181D01*
X82859476Y-129741562D01*
X82811857Y-129693943D01*
X57678581Y-142906857D02*
X57202390Y-143240191D01*
X57678581Y-143478286D02*
X56678581Y-143478286D01*
X56678581Y-143097333D01*
X56726200Y-143002095D01*
X56773819Y-142954476D01*
X56869057Y-142906857D01*
X57011914Y-142906857D01*
X57107152Y-142954476D01*
X57154771Y-143002095D01*
X57202390Y-143097333D01*
X57202390Y-143478286D01*
X57678581Y-141954476D02*
X57678581Y-142525905D01*
X57678581Y-142240191D02*
X56678581Y-142240191D01*
X56821438Y-142335429D01*
X56916676Y-142430667D01*
X56964295Y-142525905D01*
X56773819Y-141573524D02*
X56726200Y-141525905D01*
X56678581Y-141430667D01*
X56678581Y-141192571D01*
X56726200Y-141097333D01*
X56773819Y-141049714D01*
X56869057Y-141002095D01*
X56964295Y-141002095D01*
X57107152Y-141049714D01*
X57678581Y-141621143D01*
X57678581Y-141002095D01*
X67048143Y-132583181D02*
X66714809Y-132106990D01*
X66476714Y-132583181D02*
X66476714Y-131583181D01*
X66857667Y-131583181D01*
X66952905Y-131630800D01*
X67000524Y-131678419D01*
X67048143Y-131773657D01*
X67048143Y-131916514D01*
X67000524Y-132011752D01*
X66952905Y-132059371D01*
X66857667Y-132106990D01*
X66476714Y-132106990D01*
X68000524Y-132583181D02*
X67429095Y-132583181D01*
X67714809Y-132583181D02*
X67714809Y-131583181D01*
X67619571Y-131726038D01*
X67524333Y-131821276D01*
X67429095Y-131868895D01*
X68952905Y-132583181D02*
X68381476Y-132583181D01*
X68667190Y-132583181D02*
X68667190Y-131583181D01*
X68571952Y-131726038D01*
X68476714Y-131821276D01*
X68381476Y-131868895D01*
X63206334Y-141320781D02*
X62873000Y-140844590D01*
X62634905Y-141320781D02*
X62634905Y-140320781D01*
X63015858Y-140320781D01*
X63111096Y-140368400D01*
X63158715Y-140416019D01*
X63206334Y-140511257D01*
X63206334Y-140654114D01*
X63158715Y-140749352D01*
X63111096Y-140796971D01*
X63015858Y-140844590D01*
X62634905Y-140844590D01*
X63682524Y-141320781D02*
X63873000Y-141320781D01*
X63968239Y-141273162D01*
X64015858Y-141225543D01*
X64111096Y-141082686D01*
X64158715Y-140892210D01*
X64158715Y-140511257D01*
X64111096Y-140416019D01*
X64063477Y-140368400D01*
X63968239Y-140320781D01*
X63777762Y-140320781D01*
X63682524Y-140368400D01*
X63634905Y-140416019D01*
X63587286Y-140511257D01*
X63587286Y-140749352D01*
X63634905Y-140844590D01*
X63682524Y-140892210D01*
X63777762Y-140939829D01*
X63968239Y-140939829D01*
X64063477Y-140892210D01*
X64111096Y-140844590D01*
X64158715Y-140749352D01*
X73545534Y-145130781D02*
X73212200Y-144654590D01*
X72974105Y-145130781D02*
X72974105Y-144130781D01*
X73355058Y-144130781D01*
X73450296Y-144178400D01*
X73497915Y-144226019D01*
X73545534Y-144321257D01*
X73545534Y-144464114D01*
X73497915Y-144559352D01*
X73450296Y-144606971D01*
X73355058Y-144654590D01*
X72974105Y-144654590D01*
X74116962Y-144559352D02*
X74021724Y-144511733D01*
X73974105Y-144464114D01*
X73926486Y-144368876D01*
X73926486Y-144321257D01*
X73974105Y-144226019D01*
X74021724Y-144178400D01*
X74116962Y-144130781D01*
X74307439Y-144130781D01*
X74402677Y-144178400D01*
X74450296Y-144226019D01*
X74497915Y-144321257D01*
X74497915Y-144368876D01*
X74450296Y-144464114D01*
X74402677Y-144511733D01*
X74307439Y-144559352D01*
X74116962Y-144559352D01*
X74021724Y-144606971D01*
X73974105Y-144654590D01*
X73926486Y-144749829D01*
X73926486Y-144940305D01*
X73974105Y-145035543D01*
X74021724Y-145083162D01*
X74116962Y-145130781D01*
X74307439Y-145130781D01*
X74402677Y-145083162D01*
X74450296Y-145035543D01*
X74497915Y-144940305D01*
X74497915Y-144749829D01*
X74450296Y-144654590D01*
X74402677Y-144606971D01*
X74307439Y-144559352D01*
X66863934Y-141269981D02*
X66530600Y-140793790D01*
X66292505Y-141269981D02*
X66292505Y-140269981D01*
X66673458Y-140269981D01*
X66768696Y-140317600D01*
X66816315Y-140365219D01*
X66863934Y-140460457D01*
X66863934Y-140603314D01*
X66816315Y-140698552D01*
X66768696Y-140746171D01*
X66673458Y-140793790D01*
X66292505Y-140793790D01*
X67197267Y-140269981D02*
X67863934Y-140269981D01*
X67435362Y-141269981D01*
X79563934Y-145029181D02*
X79230600Y-144552990D01*
X78992505Y-145029181D02*
X78992505Y-144029181D01*
X79373458Y-144029181D01*
X79468696Y-144076800D01*
X79516315Y-144124419D01*
X79563934Y-144219657D01*
X79563934Y-144362514D01*
X79516315Y-144457752D01*
X79468696Y-144505371D01*
X79373458Y-144552990D01*
X78992505Y-144552990D01*
X80421077Y-144029181D02*
X80230600Y-144029181D01*
X80135362Y-144076800D01*
X80087743Y-144124419D01*
X79992505Y-144267276D01*
X79944886Y-144457752D01*
X79944886Y-144838705D01*
X79992505Y-144933943D01*
X80040124Y-144981562D01*
X80135362Y-145029181D01*
X80325839Y-145029181D01*
X80421077Y-144981562D01*
X80468696Y-144933943D01*
X80516315Y-144838705D01*
X80516315Y-144600610D01*
X80468696Y-144505371D01*
X80421077Y-144457752D01*
X80325839Y-144410133D01*
X80135362Y-144410133D01*
X80040124Y-144457752D01*
X79992505Y-144505371D01*
X79944886Y-144600610D01*
X71486734Y-141422381D02*
X71153400Y-140946190D01*
X70915305Y-141422381D02*
X70915305Y-140422381D01*
X71296258Y-140422381D01*
X71391496Y-140470000D01*
X71439115Y-140517619D01*
X71486734Y-140612857D01*
X71486734Y-140755714D01*
X71439115Y-140850952D01*
X71391496Y-140898571D01*
X71296258Y-140946190D01*
X70915305Y-140946190D01*
X72391496Y-140422381D02*
X71915305Y-140422381D01*
X71867686Y-140898571D01*
X71915305Y-140850952D01*
X72010543Y-140803333D01*
X72248639Y-140803333D01*
X72343877Y-140850952D01*
X72391496Y-140898571D01*
X72439115Y-140993810D01*
X72439115Y-141231905D01*
X72391496Y-141327143D01*
X72343877Y-141374762D01*
X72248639Y-141422381D01*
X72010543Y-141422381D01*
X71915305Y-141374762D01*
X71867686Y-141327143D01*
X70429381Y-141274966D02*
X69953190Y-141608300D01*
X70429381Y-141846395D02*
X69429381Y-141846395D01*
X69429381Y-141465442D01*
X69477000Y-141370204D01*
X69524619Y-141322585D01*
X69619857Y-141274966D01*
X69762714Y-141274966D01*
X69857952Y-141322585D01*
X69905571Y-141370204D01*
X69953190Y-141465442D01*
X69953190Y-141846395D01*
X69762714Y-140417823D02*
X70429381Y-140417823D01*
X69381762Y-140655919D02*
X70096048Y-140894014D01*
X70096048Y-140274966D01*
X70480181Y-146585265D02*
X70003990Y-146918599D01*
X70480181Y-147156694D02*
X69480181Y-147156694D01*
X69480181Y-146775741D01*
X69527800Y-146680503D01*
X69575419Y-146632884D01*
X69670657Y-146585265D01*
X69813514Y-146585265D01*
X69908752Y-146632884D01*
X69956371Y-146680503D01*
X70003990Y-146775741D01*
X70003990Y-147156694D01*
X69480181Y-146251932D02*
X69480181Y-145632884D01*
X69861133Y-145966218D01*
X69861133Y-145823360D01*
X69908752Y-145728122D01*
X69956371Y-145680503D01*
X70051610Y-145632884D01*
X70289705Y-145632884D01*
X70384943Y-145680503D01*
X70432562Y-145728122D01*
X70480181Y-145823360D01*
X70480181Y-146109075D01*
X70432562Y-146204313D01*
X70384943Y-146251932D01*
X48779134Y-156560781D02*
X48445800Y-156084590D01*
X48207705Y-156560781D02*
X48207705Y-155560781D01*
X48588658Y-155560781D01*
X48683896Y-155608400D01*
X48731515Y-155656019D01*
X48779134Y-155751257D01*
X48779134Y-155894114D01*
X48731515Y-155989352D01*
X48683896Y-156036971D01*
X48588658Y-156084590D01*
X48207705Y-156084590D01*
X49160086Y-155656019D02*
X49207705Y-155608400D01*
X49302943Y-155560781D01*
X49541039Y-155560781D01*
X49636277Y-155608400D01*
X49683896Y-155656019D01*
X49731515Y-155751257D01*
X49731515Y-155846495D01*
X49683896Y-155989352D01*
X49112467Y-156560781D01*
X49731515Y-156560781D01*
X44461134Y-130246381D02*
X44127800Y-129770190D01*
X43889705Y-130246381D02*
X43889705Y-129246381D01*
X44270658Y-129246381D01*
X44365896Y-129294000D01*
X44413515Y-129341619D01*
X44461134Y-129436857D01*
X44461134Y-129579714D01*
X44413515Y-129674952D01*
X44365896Y-129722571D01*
X44270658Y-129770190D01*
X43889705Y-129770190D01*
X45413515Y-130246381D02*
X44842086Y-130246381D01*
X45127800Y-130246381D02*
X45127800Y-129246381D01*
X45032562Y-129389238D01*
X44937324Y-129484476D01*
X44842086Y-129532095D01*
X88530253Y-127896881D02*
X88054062Y-127896881D01*
X88054062Y-126896881D01*
X88863586Y-127373071D02*
X89196920Y-127373071D01*
X89339777Y-127896881D02*
X88863586Y-127896881D01*
X88863586Y-126896881D01*
X89339777Y-126896881D01*
X89768348Y-127896881D02*
X89768348Y-126896881D01*
X90006443Y-126896881D01*
X90149301Y-126944500D01*
X90244539Y-127039738D01*
X90292158Y-127134976D01*
X90339777Y-127325452D01*
X90339777Y-127468310D01*
X90292158Y-127658786D01*
X90244539Y-127754024D01*
X90149301Y-127849262D01*
X90006443Y-127896881D01*
X89768348Y-127896881D01*
X91292158Y-127896881D02*
X90720729Y-127896881D01*
X91006443Y-127896881D02*
X91006443Y-126896881D01*
X90911205Y-127039738D01*
X90815967Y-127134976D01*
X90720729Y-127182595D01*
X87085443Y-137358357D02*
X87133062Y-137405976D01*
X87180681Y-137548833D01*
X87180681Y-137644071D01*
X87133062Y-137786929D01*
X87037824Y-137882167D01*
X86942586Y-137929786D01*
X86752110Y-137977405D01*
X86609252Y-137977405D01*
X86418776Y-137929786D01*
X86323538Y-137882167D01*
X86228300Y-137786929D01*
X86180681Y-137644071D01*
X86180681Y-137548833D01*
X86228300Y-137405976D01*
X86275919Y-137358357D01*
X86275919Y-136977405D02*
X86228300Y-136929786D01*
X86180681Y-136834548D01*
X86180681Y-136596452D01*
X86228300Y-136501214D01*
X86275919Y-136453595D01*
X86371157Y-136405976D01*
X86466395Y-136405976D01*
X86609252Y-136453595D01*
X87180681Y-137025024D01*
X87180681Y-136405976D01*
X87180681Y-135929786D02*
X87180681Y-135739310D01*
X87133062Y-135644071D01*
X87085443Y-135596452D01*
X86942586Y-135501214D01*
X86752110Y-135453595D01*
X86371157Y-135453595D01*
X86275919Y-135501214D01*
X86228300Y-135548833D01*
X86180681Y-135644071D01*
X86180681Y-135834548D01*
X86228300Y-135929786D01*
X86275919Y-135977405D01*
X86371157Y-136025024D01*
X86609252Y-136025024D01*
X86704490Y-135977405D01*
X86752110Y-135929786D01*
X86799729Y-135834548D01*
X86799729Y-135644071D01*
X86752110Y-135548833D01*
X86704490Y-135501214D01*
X86609252Y-135453595D01*
X86704443Y-140914357D02*
X86752062Y-140961976D01*
X86799681Y-141104833D01*
X86799681Y-141200071D01*
X86752062Y-141342929D01*
X86656824Y-141438167D01*
X86561586Y-141485786D01*
X86371110Y-141533405D01*
X86228252Y-141533405D01*
X86037776Y-141485786D01*
X85942538Y-141438167D01*
X85847300Y-141342929D01*
X85799681Y-141200071D01*
X85799681Y-141104833D01*
X85847300Y-140961976D01*
X85894919Y-140914357D01*
X85894919Y-140533405D02*
X85847300Y-140485786D01*
X85799681Y-140390548D01*
X85799681Y-140152452D01*
X85847300Y-140057214D01*
X85894919Y-140009595D01*
X85990157Y-139961976D01*
X86085395Y-139961976D01*
X86228252Y-140009595D01*
X86799681Y-140581024D01*
X86799681Y-139961976D01*
X86228252Y-139390548D02*
X86180633Y-139485786D01*
X86133014Y-139533405D01*
X86037776Y-139581024D01*
X85990157Y-139581024D01*
X85894919Y-139533405D01*
X85847300Y-139485786D01*
X85799681Y-139390548D01*
X85799681Y-139200071D01*
X85847300Y-139104833D01*
X85894919Y-139057214D01*
X85990157Y-139009595D01*
X86037776Y-139009595D01*
X86133014Y-139057214D01*
X86180633Y-139104833D01*
X86228252Y-139200071D01*
X86228252Y-139390548D01*
X86275871Y-139485786D01*
X86323490Y-139533405D01*
X86418729Y-139581024D01*
X86609205Y-139581024D01*
X86704443Y-139533405D01*
X86752062Y-139485786D01*
X86799681Y-139390548D01*
X86799681Y-139200071D01*
X86752062Y-139104833D01*
X86704443Y-139057214D01*
X86609205Y-139009595D01*
X86418729Y-139009595D01*
X86323490Y-139057214D01*
X86275871Y-139104833D01*
X86228252Y-139200071D01*
X76328543Y-150882457D02*
X76376162Y-150930076D01*
X76423781Y-151072933D01*
X76423781Y-151168171D01*
X76376162Y-151311029D01*
X76280924Y-151406267D01*
X76185686Y-151453886D01*
X75995210Y-151501505D01*
X75852352Y-151501505D01*
X75661876Y-151453886D01*
X75566638Y-151406267D01*
X75471400Y-151311029D01*
X75423781Y-151168171D01*
X75423781Y-151072933D01*
X75471400Y-150930076D01*
X75519019Y-150882457D01*
X75519019Y-150501505D02*
X75471400Y-150453886D01*
X75423781Y-150358648D01*
X75423781Y-150120552D01*
X75471400Y-150025314D01*
X75519019Y-149977695D01*
X75614257Y-149930076D01*
X75709495Y-149930076D01*
X75852352Y-149977695D01*
X76423781Y-150549124D01*
X76423781Y-149930076D01*
X75423781Y-149596743D02*
X75423781Y-148930076D01*
X76423781Y-149358648D01*
X88164943Y-150885257D02*
X88212562Y-150932876D01*
X88260181Y-151075733D01*
X88260181Y-151170971D01*
X88212562Y-151313829D01*
X88117324Y-151409067D01*
X88022086Y-151456686D01*
X87831610Y-151504305D01*
X87688752Y-151504305D01*
X87498276Y-151456686D01*
X87403038Y-151409067D01*
X87307800Y-151313829D01*
X87260181Y-151170971D01*
X87260181Y-151075733D01*
X87307800Y-150932876D01*
X87355419Y-150885257D01*
X87355419Y-150504305D02*
X87307800Y-150456686D01*
X87260181Y-150361448D01*
X87260181Y-150123352D01*
X87307800Y-150028114D01*
X87355419Y-149980495D01*
X87450657Y-149932876D01*
X87545895Y-149932876D01*
X87688752Y-149980495D01*
X88260181Y-150551924D01*
X88260181Y-149932876D01*
X87260181Y-149075733D02*
X87260181Y-149266210D01*
X87307800Y-149361448D01*
X87355419Y-149409067D01*
X87498276Y-149504305D01*
X87688752Y-149551924D01*
X88069705Y-149551924D01*
X88164943Y-149504305D01*
X88212562Y-149456686D01*
X88260181Y-149361448D01*
X88260181Y-149170971D01*
X88212562Y-149075733D01*
X88164943Y-149028114D01*
X88069705Y-148980495D01*
X87831610Y-148980495D01*
X87736371Y-149028114D01*
X87688752Y-149075733D01*
X87641133Y-149170971D01*
X87641133Y-149361448D01*
X87688752Y-149456686D01*
X87736371Y-149504305D01*
X87831610Y-149551924D01*
X70350143Y-160580343D02*
X70302524Y-160627962D01*
X70159667Y-160675581D01*
X70064429Y-160675581D01*
X69921571Y-160627962D01*
X69826333Y-160532724D01*
X69778714Y-160437486D01*
X69731095Y-160247010D01*
X69731095Y-160104152D01*
X69778714Y-159913676D01*
X69826333Y-159818438D01*
X69921571Y-159723200D01*
X70064429Y-159675581D01*
X70159667Y-159675581D01*
X70302524Y-159723200D01*
X70350143Y-159770819D01*
X70731095Y-159770819D02*
X70778714Y-159723200D01*
X70873952Y-159675581D01*
X71112048Y-159675581D01*
X71207286Y-159723200D01*
X71254905Y-159770819D01*
X71302524Y-159866057D01*
X71302524Y-159961295D01*
X71254905Y-160104152D01*
X70683476Y-160675581D01*
X71302524Y-160675581D01*
X72159667Y-160008914D02*
X72159667Y-160675581D01*
X71921571Y-159627962D02*
X71683476Y-160342248D01*
X72302524Y-160342248D01*
X69588143Y-151588743D02*
X69540524Y-151636362D01*
X69397667Y-151683981D01*
X69302429Y-151683981D01*
X69159571Y-151636362D01*
X69064333Y-151541124D01*
X69016714Y-151445886D01*
X68969095Y-151255410D01*
X68969095Y-151112552D01*
X69016714Y-150922076D01*
X69064333Y-150826838D01*
X69159571Y-150731600D01*
X69302429Y-150683981D01*
X69397667Y-150683981D01*
X69540524Y-150731600D01*
X69588143Y-150779219D01*
X69969095Y-150779219D02*
X70016714Y-150731600D01*
X70111952Y-150683981D01*
X70350048Y-150683981D01*
X70445286Y-150731600D01*
X70492905Y-150779219D01*
X70540524Y-150874457D01*
X70540524Y-150969695D01*
X70492905Y-151112552D01*
X69921476Y-151683981D01*
X70540524Y-151683981D01*
X70873857Y-150683981D02*
X71492905Y-150683981D01*
X71159571Y-151064933D01*
X71302429Y-151064933D01*
X71397667Y-151112552D01*
X71445286Y-151160171D01*
X71492905Y-151255410D01*
X71492905Y-151493505D01*
X71445286Y-151588743D01*
X71397667Y-151636362D01*
X71302429Y-151683981D01*
X71016714Y-151683981D01*
X70921476Y-151636362D01*
X70873857Y-151588743D01*
X65230452Y-160529244D02*
X65182833Y-160576863D01*
X65039976Y-160624482D01*
X64944738Y-160624482D01*
X64801880Y-160576863D01*
X64706642Y-160481625D01*
X64659023Y-160386387D01*
X64611404Y-160195911D01*
X64611404Y-160053053D01*
X64659023Y-159862577D01*
X64706642Y-159767339D01*
X64801880Y-159672101D01*
X64944738Y-159624482D01*
X65039976Y-159624482D01*
X65182833Y-159672101D01*
X65230452Y-159719720D01*
X65611404Y-159719720D02*
X65659023Y-159672101D01*
X65754261Y-159624482D01*
X65992357Y-159624482D01*
X66087595Y-159672101D01*
X66135214Y-159719720D01*
X66182833Y-159814958D01*
X66182833Y-159910196D01*
X66135214Y-160053053D01*
X65563785Y-160624482D01*
X66182833Y-160624482D01*
X66801880Y-159624482D02*
X66897119Y-159624482D01*
X66992357Y-159672101D01*
X67039976Y-159719720D01*
X67087595Y-159814958D01*
X67135214Y-160005434D01*
X67135214Y-160243530D01*
X67087595Y-160434006D01*
X67039976Y-160529244D01*
X66992357Y-160576863D01*
X66897119Y-160624482D01*
X66801880Y-160624482D01*
X66706642Y-160576863D01*
X66659023Y-160529244D01*
X66611404Y-160434006D01*
X66563785Y-160243530D01*
X66563785Y-160005434D01*
X66611404Y-159814958D01*
X66659023Y-159719720D01*
X66706642Y-159672101D01*
X66801880Y-159624482D01*
X57142143Y-159259543D02*
X57094524Y-159307162D01*
X56951667Y-159354781D01*
X56856429Y-159354781D01*
X56713571Y-159307162D01*
X56618333Y-159211924D01*
X56570714Y-159116686D01*
X56523095Y-158926210D01*
X56523095Y-158783352D01*
X56570714Y-158592876D01*
X56618333Y-158497638D01*
X56713571Y-158402400D01*
X56856429Y-158354781D01*
X56951667Y-158354781D01*
X57094524Y-158402400D01*
X57142143Y-158450019D01*
X58094524Y-159354781D02*
X57523095Y-159354781D01*
X57808809Y-159354781D02*
X57808809Y-158354781D01*
X57713571Y-158497638D01*
X57618333Y-158592876D01*
X57523095Y-158640495D01*
X58570714Y-159354781D02*
X58761190Y-159354781D01*
X58856429Y-159307162D01*
X58904048Y-159259543D01*
X58999286Y-159116686D01*
X59046905Y-158926210D01*
X59046905Y-158545257D01*
X58999286Y-158450019D01*
X58951667Y-158402400D01*
X58856429Y-158354781D01*
X58665952Y-158354781D01*
X58570714Y-158402400D01*
X58523095Y-158450019D01*
X58475476Y-158545257D01*
X58475476Y-158783352D01*
X58523095Y-158878590D01*
X58570714Y-158926210D01*
X58665952Y-158973829D01*
X58856429Y-158973829D01*
X58951667Y-158926210D01*
X58999286Y-158878590D01*
X59046905Y-158783352D01*
X86958443Y-130500357D02*
X87006062Y-130547976D01*
X87053681Y-130690833D01*
X87053681Y-130786071D01*
X87006062Y-130928929D01*
X86910824Y-131024167D01*
X86815586Y-131071786D01*
X86625110Y-131119405D01*
X86482252Y-131119405D01*
X86291776Y-131071786D01*
X86196538Y-131024167D01*
X86101300Y-130928929D01*
X86053681Y-130786071D01*
X86053681Y-130690833D01*
X86101300Y-130547976D01*
X86148919Y-130500357D01*
X87053681Y-129547976D02*
X87053681Y-130119405D01*
X87053681Y-129833691D02*
X86053681Y-129833691D01*
X86196538Y-129928929D01*
X86291776Y-130024167D01*
X86339395Y-130119405D01*
X86482252Y-128976548D02*
X86434633Y-129071786D01*
X86387014Y-129119405D01*
X86291776Y-129167024D01*
X86244157Y-129167024D01*
X86148919Y-129119405D01*
X86101300Y-129071786D01*
X86053681Y-128976548D01*
X86053681Y-128786071D01*
X86101300Y-128690833D01*
X86148919Y-128643214D01*
X86244157Y-128595595D01*
X86291776Y-128595595D01*
X86387014Y-128643214D01*
X86434633Y-128690833D01*
X86482252Y-128786071D01*
X86482252Y-128976548D01*
X86529871Y-129071786D01*
X86577490Y-129119405D01*
X86672729Y-129167024D01*
X86863205Y-129167024D01*
X86958443Y-129119405D01*
X87006062Y-129071786D01*
X87053681Y-128976548D01*
X87053681Y-128786071D01*
X87006062Y-128690833D01*
X86958443Y-128643214D01*
X86863205Y-128595595D01*
X86672729Y-128595595D01*
X86577490Y-128643214D01*
X86529871Y-128690833D01*
X86482252Y-128786071D01*
X52757343Y-153500057D02*
X52804962Y-153547676D01*
X52852581Y-153690533D01*
X52852581Y-153785771D01*
X52804962Y-153928629D01*
X52709724Y-154023867D01*
X52614486Y-154071486D01*
X52424010Y-154119105D01*
X52281152Y-154119105D01*
X52090676Y-154071486D01*
X51995438Y-154023867D01*
X51900200Y-153928629D01*
X51852581Y-153785771D01*
X51852581Y-153690533D01*
X51900200Y-153547676D01*
X51947819Y-153500057D01*
X52852581Y-152547676D02*
X52852581Y-153119105D01*
X52852581Y-152833391D02*
X51852581Y-152833391D01*
X51995438Y-152928629D01*
X52090676Y-153023867D01*
X52138295Y-153119105D01*
X51852581Y-152214343D02*
X51852581Y-151547676D01*
X52852581Y-151976248D01*
X53738543Y-142343143D02*
X53690924Y-142390762D01*
X53548067Y-142438381D01*
X53452829Y-142438381D01*
X53309971Y-142390762D01*
X53214733Y-142295524D01*
X53167114Y-142200286D01*
X53119495Y-142009810D01*
X53119495Y-141866952D01*
X53167114Y-141676476D01*
X53214733Y-141581238D01*
X53309971Y-141486000D01*
X53452829Y-141438381D01*
X53548067Y-141438381D01*
X53690924Y-141486000D01*
X53738543Y-141533619D01*
X54690924Y-142438381D02*
X54119495Y-142438381D01*
X54405209Y-142438381D02*
X54405209Y-141438381D01*
X54309971Y-141581238D01*
X54214733Y-141676476D01*
X54119495Y-141724095D01*
X55548067Y-141438381D02*
X55357590Y-141438381D01*
X55262352Y-141486000D01*
X55214733Y-141533619D01*
X55119495Y-141676476D01*
X55071876Y-141866952D01*
X55071876Y-142247905D01*
X55119495Y-142343143D01*
X55167114Y-142390762D01*
X55262352Y-142438381D01*
X55452829Y-142438381D01*
X55548067Y-142390762D01*
X55595686Y-142343143D01*
X55643305Y-142247905D01*
X55643305Y-142009810D01*
X55595686Y-141914571D01*
X55548067Y-141866952D01*
X55452829Y-141819333D01*
X55262352Y-141819333D01*
X55167114Y-141866952D01*
X55119495Y-141914571D01*
X55071876Y-142009810D01*
X54957743Y-148693143D02*
X54910124Y-148740762D01*
X54767267Y-148788381D01*
X54672029Y-148788381D01*
X54529171Y-148740762D01*
X54433933Y-148645524D01*
X54386314Y-148550286D01*
X54338695Y-148359810D01*
X54338695Y-148216952D01*
X54386314Y-148026476D01*
X54433933Y-147931238D01*
X54529171Y-147836000D01*
X54672029Y-147788381D01*
X54767267Y-147788381D01*
X54910124Y-147836000D01*
X54957743Y-147883619D01*
X55910124Y-148788381D02*
X55338695Y-148788381D01*
X55624409Y-148788381D02*
X55624409Y-147788381D01*
X55529171Y-147931238D01*
X55433933Y-148026476D01*
X55338695Y-148074095D01*
X56767267Y-148121714D02*
X56767267Y-148788381D01*
X56529171Y-147740762D02*
X56291076Y-148455048D01*
X56910124Y-148455048D01*
X50436543Y-142393943D02*
X50388924Y-142441562D01*
X50246067Y-142489181D01*
X50150829Y-142489181D01*
X50007971Y-142441562D01*
X49912733Y-142346324D01*
X49865114Y-142251086D01*
X49817495Y-142060610D01*
X49817495Y-141917752D01*
X49865114Y-141727276D01*
X49912733Y-141632038D01*
X50007971Y-141536800D01*
X50150829Y-141489181D01*
X50246067Y-141489181D01*
X50388924Y-141536800D01*
X50436543Y-141584419D01*
X51388924Y-142489181D02*
X50817495Y-142489181D01*
X51103209Y-142489181D02*
X51103209Y-141489181D01*
X51007971Y-141632038D01*
X50912733Y-141727276D01*
X50817495Y-141774895D01*
X51722257Y-141489181D02*
X52341305Y-141489181D01*
X52007971Y-141870133D01*
X52150829Y-141870133D01*
X52246067Y-141917752D01*
X52293686Y-141965371D01*
X52341305Y-142060610D01*
X52341305Y-142298705D01*
X52293686Y-142393943D01*
X52246067Y-142441562D01*
X52150829Y-142489181D01*
X51865114Y-142489181D01*
X51769876Y-142441562D01*
X51722257Y-142393943D01*
X73636143Y-133586457D02*
X73683762Y-133634076D01*
X73731381Y-133776933D01*
X73731381Y-133872171D01*
X73683762Y-134015029D01*
X73588524Y-134110267D01*
X73493286Y-134157886D01*
X73302810Y-134205505D01*
X73159952Y-134205505D01*
X72969476Y-134157886D01*
X72874238Y-134110267D01*
X72779000Y-134015029D01*
X72731381Y-133872171D01*
X72731381Y-133776933D01*
X72779000Y-133634076D01*
X72826619Y-133586457D01*
X73731381Y-132634076D02*
X73731381Y-133205505D01*
X73731381Y-132919791D02*
X72731381Y-132919791D01*
X72874238Y-133015029D01*
X72969476Y-133110267D01*
X73017095Y-133205505D01*
X72826619Y-132253124D02*
X72779000Y-132205505D01*
X72731381Y-132110267D01*
X72731381Y-131872171D01*
X72779000Y-131776933D01*
X72826619Y-131729314D01*
X72921857Y-131681695D01*
X73017095Y-131681695D01*
X73159952Y-131729314D01*
X73731381Y-132300743D01*
X73731381Y-131681695D01*
X60055652Y-141372658D02*
X60103271Y-141420277D01*
X60150890Y-141563134D01*
X60150890Y-141658372D01*
X60103271Y-141801230D01*
X60008033Y-141896468D01*
X59912795Y-141944087D01*
X59722319Y-141991706D01*
X59579461Y-141991706D01*
X59388985Y-141944087D01*
X59293747Y-141896468D01*
X59198509Y-141801230D01*
X59150890Y-141658372D01*
X59150890Y-141563134D01*
X59198509Y-141420277D01*
X59246128Y-141372658D01*
X60150890Y-140420277D02*
X60150890Y-140991706D01*
X60150890Y-140705992D02*
X59150890Y-140705992D01*
X59293747Y-140801230D01*
X59388985Y-140896468D01*
X59436604Y-140991706D01*
X60150890Y-139467896D02*
X60150890Y-140039325D01*
X60150890Y-139753611D02*
X59150890Y-139753611D01*
X59293747Y-139848849D01*
X59388985Y-139944087D01*
X59436604Y-140039325D01*
X67336943Y-137142457D02*
X67384562Y-137190076D01*
X67432181Y-137332933D01*
X67432181Y-137428171D01*
X67384562Y-137571029D01*
X67289324Y-137666267D01*
X67194086Y-137713886D01*
X67003610Y-137761505D01*
X66860752Y-137761505D01*
X66670276Y-137713886D01*
X66575038Y-137666267D01*
X66479800Y-137571029D01*
X66432181Y-137428171D01*
X66432181Y-137332933D01*
X66479800Y-137190076D01*
X66527419Y-137142457D01*
X67432181Y-136190076D02*
X67432181Y-136761505D01*
X67432181Y-136475791D02*
X66432181Y-136475791D01*
X66575038Y-136571029D01*
X66670276Y-136666267D01*
X66717895Y-136761505D01*
X66432181Y-135571029D02*
X66432181Y-135475790D01*
X66479800Y-135380552D01*
X66527419Y-135332933D01*
X66622657Y-135285314D01*
X66813133Y-135237695D01*
X67051229Y-135237695D01*
X67241705Y-135285314D01*
X67336943Y-135332933D01*
X67384562Y-135380552D01*
X67432181Y-135475790D01*
X67432181Y-135571029D01*
X67384562Y-135666267D01*
X67336943Y-135713886D01*
X67241705Y-135761505D01*
X67051229Y-135809124D01*
X66813133Y-135809124D01*
X66622657Y-135761505D01*
X66527419Y-135713886D01*
X66479800Y-135666267D01*
X66432181Y-135571029D01*
X74753743Y-151144266D02*
X74801362Y-151191885D01*
X74848981Y-151334742D01*
X74848981Y-151429980D01*
X74801362Y-151572838D01*
X74706124Y-151668076D01*
X74610886Y-151715695D01*
X74420410Y-151763314D01*
X74277552Y-151763314D01*
X74087076Y-151715695D01*
X73991838Y-151668076D01*
X73896600Y-151572838D01*
X73848981Y-151429980D01*
X73848981Y-151334742D01*
X73896600Y-151191885D01*
X73944219Y-151144266D01*
X74848981Y-150668076D02*
X74848981Y-150477600D01*
X74801362Y-150382361D01*
X74753743Y-150334742D01*
X74610886Y-150239504D01*
X74420410Y-150191885D01*
X74039457Y-150191885D01*
X73944219Y-150239504D01*
X73896600Y-150287123D01*
X73848981Y-150382361D01*
X73848981Y-150572838D01*
X73896600Y-150668076D01*
X73944219Y-150715695D01*
X74039457Y-150763314D01*
X74277552Y-150763314D01*
X74372790Y-150715695D01*
X74420410Y-150668076D01*
X74468029Y-150572838D01*
X74468029Y-150382361D01*
X74420410Y-150287123D01*
X74372790Y-150239504D01*
X74277552Y-150191885D01*
X73518734Y-143308343D02*
X73471115Y-143355962D01*
X73328258Y-143403581D01*
X73233020Y-143403581D01*
X73090162Y-143355962D01*
X72994924Y-143260724D01*
X72947305Y-143165486D01*
X72899686Y-142975010D01*
X72899686Y-142832152D01*
X72947305Y-142641676D01*
X72994924Y-142546438D01*
X73090162Y-142451200D01*
X73233020Y-142403581D01*
X73328258Y-142403581D01*
X73471115Y-142451200D01*
X73518734Y-142498819D01*
X74090162Y-142832152D02*
X73994924Y-142784533D01*
X73947305Y-142736914D01*
X73899686Y-142641676D01*
X73899686Y-142594057D01*
X73947305Y-142498819D01*
X73994924Y-142451200D01*
X74090162Y-142403581D01*
X74280639Y-142403581D01*
X74375877Y-142451200D01*
X74423496Y-142498819D01*
X74471115Y-142594057D01*
X74471115Y-142641676D01*
X74423496Y-142736914D01*
X74375877Y-142784533D01*
X74280639Y-142832152D01*
X74090162Y-142832152D01*
X73994924Y-142879771D01*
X73947305Y-142927390D01*
X73899686Y-143022629D01*
X73899686Y-143213105D01*
X73947305Y-143308343D01*
X73994924Y-143355962D01*
X74090162Y-143403581D01*
X74280639Y-143403581D01*
X74375877Y-143355962D01*
X74423496Y-143308343D01*
X74471115Y-143213105D01*
X74471115Y-143022629D01*
X74423496Y-142927390D01*
X74375877Y-142879771D01*
X74280639Y-142832152D01*
X47864734Y-142396743D02*
X47817115Y-142444362D01*
X47674258Y-142491981D01*
X47579020Y-142491981D01*
X47436162Y-142444362D01*
X47340924Y-142349124D01*
X47293305Y-142253886D01*
X47245686Y-142063410D01*
X47245686Y-141920552D01*
X47293305Y-141730076D01*
X47340924Y-141634838D01*
X47436162Y-141539600D01*
X47579020Y-141491981D01*
X47674258Y-141491981D01*
X47817115Y-141539600D01*
X47864734Y-141587219D01*
X48198067Y-141491981D02*
X48864734Y-141491981D01*
X48436162Y-142491981D01*
X70689743Y-136564666D02*
X70737362Y-136612285D01*
X70784981Y-136755142D01*
X70784981Y-136850380D01*
X70737362Y-136993238D01*
X70642124Y-137088476D01*
X70546886Y-137136095D01*
X70356410Y-137183714D01*
X70213552Y-137183714D01*
X70023076Y-137136095D01*
X69927838Y-137088476D01*
X69832600Y-136993238D01*
X69784981Y-136850380D01*
X69784981Y-136755142D01*
X69832600Y-136612285D01*
X69880219Y-136564666D01*
X69784981Y-135707523D02*
X69784981Y-135898000D01*
X69832600Y-135993238D01*
X69880219Y-136040857D01*
X70023076Y-136136095D01*
X70213552Y-136183714D01*
X70594505Y-136183714D01*
X70689743Y-136136095D01*
X70737362Y-136088476D01*
X70784981Y-135993238D01*
X70784981Y-135802761D01*
X70737362Y-135707523D01*
X70689743Y-135659904D01*
X70594505Y-135612285D01*
X70356410Y-135612285D01*
X70261171Y-135659904D01*
X70213552Y-135707523D01*
X70165933Y-135802761D01*
X70165933Y-135993238D01*
X70213552Y-136088476D01*
X70261171Y-136136095D01*
X70356410Y-136183714D01*
X71537534Y-139447543D02*
X71489915Y-139495162D01*
X71347058Y-139542781D01*
X71251820Y-139542781D01*
X71108962Y-139495162D01*
X71013724Y-139399924D01*
X70966105Y-139304686D01*
X70918486Y-139114210D01*
X70918486Y-138971352D01*
X70966105Y-138780876D01*
X71013724Y-138685638D01*
X71108962Y-138590400D01*
X71251820Y-138542781D01*
X71347058Y-138542781D01*
X71489915Y-138590400D01*
X71537534Y-138638019D01*
X72442296Y-138542781D02*
X71966105Y-138542781D01*
X71918486Y-139018971D01*
X71966105Y-138971352D01*
X72061343Y-138923733D01*
X72299439Y-138923733D01*
X72394677Y-138971352D01*
X72442296Y-139018971D01*
X72489915Y-139114210D01*
X72489915Y-139352305D01*
X72442296Y-139447543D01*
X72394677Y-139495162D01*
X72299439Y-139542781D01*
X72061343Y-139542781D01*
X71966105Y-139495162D01*
X71918486Y-139447543D01*
X51995343Y-158865866D02*
X52042962Y-158913485D01*
X52090581Y-159056342D01*
X52090581Y-159151580D01*
X52042962Y-159294438D01*
X51947724Y-159389676D01*
X51852486Y-159437295D01*
X51662010Y-159484914D01*
X51519152Y-159484914D01*
X51328676Y-159437295D01*
X51233438Y-159389676D01*
X51138200Y-159294438D01*
X51090581Y-159151580D01*
X51090581Y-159056342D01*
X51138200Y-158913485D01*
X51185819Y-158865866D01*
X51090581Y-158532533D02*
X51090581Y-157913485D01*
X51471533Y-158246819D01*
X51471533Y-158103961D01*
X51519152Y-158008723D01*
X51566771Y-157961104D01*
X51662010Y-157913485D01*
X51900105Y-157913485D01*
X51995343Y-157961104D01*
X52042962Y-158008723D01*
X52090581Y-158103961D01*
X52090581Y-158389676D01*
X52042962Y-158484914D01*
X51995343Y-158532533D01*
X47953634Y-154281143D02*
X47906015Y-154328762D01*
X47763158Y-154376381D01*
X47667920Y-154376381D01*
X47525062Y-154328762D01*
X47429824Y-154233524D01*
X47382205Y-154138286D01*
X47334586Y-153947810D01*
X47334586Y-153804952D01*
X47382205Y-153614476D01*
X47429824Y-153519238D01*
X47525062Y-153424000D01*
X47667920Y-153376381D01*
X47763158Y-153376381D01*
X47906015Y-153424000D01*
X47953634Y-153471619D01*
X48334586Y-153471619D02*
X48382205Y-153424000D01*
X48477443Y-153376381D01*
X48715539Y-153376381D01*
X48810777Y-153424000D01*
X48858396Y-153471619D01*
X48906015Y-153566857D01*
X48906015Y-153662095D01*
X48858396Y-153804952D01*
X48286967Y-154376381D01*
X48906015Y-154376381D01*
X92635343Y-144660857D02*
X92682962Y-144708476D01*
X92730581Y-144851333D01*
X92730581Y-144946571D01*
X92682962Y-145089429D01*
X92587724Y-145184667D01*
X92492486Y-145232286D01*
X92302010Y-145279905D01*
X92159152Y-145279905D01*
X91968676Y-145232286D01*
X91873438Y-145184667D01*
X91778200Y-145089429D01*
X91730581Y-144946571D01*
X91730581Y-144851333D01*
X91778200Y-144708476D01*
X91825819Y-144660857D01*
X91825819Y-144279905D02*
X91778200Y-144232286D01*
X91730581Y-144137048D01*
X91730581Y-143898952D01*
X91778200Y-143803714D01*
X91825819Y-143756095D01*
X91921057Y-143708476D01*
X92016295Y-143708476D01*
X92159152Y-143756095D01*
X92730581Y-144327524D01*
X92730581Y-143708476D01*
X92730581Y-142756095D02*
X92730581Y-143327524D01*
X92730581Y-143041810D02*
X91730581Y-143041810D01*
X91873438Y-143137048D01*
X91968676Y-143232286D01*
X92016295Y-143327524D01*
X58767743Y-150769581D02*
X58434409Y-150293390D01*
X58196314Y-150769581D02*
X58196314Y-149769581D01*
X58577267Y-149769581D01*
X58672505Y-149817200D01*
X58720124Y-149864819D01*
X58767743Y-149960057D01*
X58767743Y-150102914D01*
X58720124Y-150198152D01*
X58672505Y-150245771D01*
X58577267Y-150293390D01*
X58196314Y-150293390D01*
X59720124Y-150769581D02*
X59148695Y-150769581D01*
X59434409Y-150769581D02*
X59434409Y-149769581D01*
X59339171Y-149912438D01*
X59243933Y-150007676D01*
X59148695Y-150055295D01*
X60577267Y-150102914D02*
X60577267Y-150769581D01*
X60339171Y-149721962D02*
X60101076Y-150436248D01*
X60720124Y-150436248D01*
X66997343Y-134361181D02*
X66664009Y-133884990D01*
X66425914Y-134361181D02*
X66425914Y-133361181D01*
X66806867Y-133361181D01*
X66902105Y-133408800D01*
X66949724Y-133456419D01*
X66997343Y-133551657D01*
X66997343Y-133694514D01*
X66949724Y-133789752D01*
X66902105Y-133837371D01*
X66806867Y-133884990D01*
X66425914Y-133884990D01*
X67949724Y-134361181D02*
X67378295Y-134361181D01*
X67664009Y-134361181D02*
X67664009Y-133361181D01*
X67568771Y-133504038D01*
X67473533Y-133599276D01*
X67378295Y-133646895D01*
X68568771Y-133361181D02*
X68664010Y-133361181D01*
X68759248Y-133408800D01*
X68806867Y-133456419D01*
X68854486Y-133551657D01*
X68902105Y-133742133D01*
X68902105Y-133980229D01*
X68854486Y-134170705D01*
X68806867Y-134265943D01*
X68759248Y-134313562D01*
X68664010Y-134361181D01*
X68568771Y-134361181D01*
X68473533Y-134313562D01*
X68425914Y-134265943D01*
X68378295Y-134170705D01*
X68330676Y-133980229D01*
X68330676Y-133742133D01*
X68378295Y-133551657D01*
X68425914Y-133456419D01*
X68473533Y-133408800D01*
X68568771Y-133361181D01*
X93514943Y-154179543D02*
X93467324Y-154227162D01*
X93324467Y-154274781D01*
X93229229Y-154274781D01*
X93086371Y-154227162D01*
X92991133Y-154131924D01*
X92943514Y-154036686D01*
X92895895Y-153846210D01*
X92895895Y-153703352D01*
X92943514Y-153512876D01*
X92991133Y-153417638D01*
X93086371Y-153322400D01*
X93229229Y-153274781D01*
X93324467Y-153274781D01*
X93467324Y-153322400D01*
X93514943Y-153370019D01*
X93895895Y-153370019D02*
X93943514Y-153322400D01*
X94038752Y-153274781D01*
X94276848Y-153274781D01*
X94372086Y-153322400D01*
X94419705Y-153370019D01*
X94467324Y-153465257D01*
X94467324Y-153560495D01*
X94419705Y-153703352D01*
X93848276Y-154274781D01*
X94467324Y-154274781D01*
X95372086Y-153274781D02*
X94895895Y-153274781D01*
X94848276Y-153750971D01*
X94895895Y-153703352D01*
X94991133Y-153655733D01*
X95229229Y-153655733D01*
X95324467Y-153703352D01*
X95372086Y-153750971D01*
X95419705Y-153846210D01*
X95419705Y-154084305D01*
X95372086Y-154179543D01*
X95324467Y-154227162D01*
X95229229Y-154274781D01*
X94991133Y-154274781D01*
X94895895Y-154227162D01*
X94848276Y-154179543D01*
D11*
X55075667Y-130461657D02*
X55027286Y-130510038D01*
X54882143Y-130558419D01*
X54785381Y-130558419D01*
X54640239Y-130510038D01*
X54543477Y-130413276D01*
X54495096Y-130316514D01*
X54446715Y-130122990D01*
X54446715Y-129977848D01*
X54495096Y-129784324D01*
X54543477Y-129687562D01*
X54640239Y-129590800D01*
X54785381Y-129542419D01*
X54882143Y-129542419D01*
X55027286Y-129590800D01*
X55075667Y-129639181D01*
X56043286Y-130558419D02*
X55462715Y-130558419D01*
X55753001Y-130558419D02*
X55753001Y-129542419D01*
X55656239Y-129687562D01*
X55559477Y-129784324D01*
X55462715Y-129832705D01*
D13*
X78201781Y-154312857D02*
X77725590Y-154646191D01*
X78201781Y-154884286D02*
X77201781Y-154884286D01*
X77201781Y-154503333D01*
X77249400Y-154408095D01*
X77297019Y-154360476D01*
X77392257Y-154312857D01*
X77535114Y-154312857D01*
X77630352Y-154360476D01*
X77677971Y-154408095D01*
X77725590Y-154503333D01*
X77725590Y-154884286D01*
X77297019Y-153931905D02*
X77249400Y-153884286D01*
X77201781Y-153789048D01*
X77201781Y-153550952D01*
X77249400Y-153455714D01*
X77297019Y-153408095D01*
X77392257Y-153360476D01*
X77487495Y-153360476D01*
X77630352Y-153408095D01*
X78201781Y-153979524D01*
X78201781Y-153360476D01*
X77630352Y-152789048D02*
X77582733Y-152884286D01*
X77535114Y-152931905D01*
X77439876Y-152979524D01*
X77392257Y-152979524D01*
X77297019Y-152931905D01*
X77249400Y-152884286D01*
X77201781Y-152789048D01*
X77201781Y-152598571D01*
X77249400Y-152503333D01*
X77297019Y-152455714D01*
X77392257Y-152408095D01*
X77439876Y-152408095D01*
X77535114Y-152455714D01*
X77582733Y-152503333D01*
X77630352Y-152598571D01*
X77630352Y-152789048D01*
X77677971Y-152884286D01*
X77725590Y-152931905D01*
X77820829Y-152979524D01*
X78011305Y-152979524D01*
X78106543Y-152931905D01*
X78154162Y-152884286D01*
X78201781Y-152789048D01*
X78201781Y-152598571D01*
X78154162Y-152503333D01*
X78106543Y-152455714D01*
X78011305Y-152408095D01*
X77820829Y-152408095D01*
X77725590Y-152455714D01*
X77677971Y-152503333D01*
X77630352Y-152598571D01*
X64244295Y-143572567D02*
X64244295Y-144382091D01*
X64291914Y-144477329D01*
X64339533Y-144524948D01*
X64434771Y-144572567D01*
X64625248Y-144572567D01*
X64720486Y-144524948D01*
X64768105Y-144477329D01*
X64815724Y-144382091D01*
X64815724Y-143572567D01*
X65815724Y-144572567D02*
X65244295Y-144572567D01*
X65530009Y-144572567D02*
X65530009Y-143572567D01*
X65434771Y-143715424D01*
X65339533Y-143810662D01*
X65244295Y-143858281D01*
X61920381Y-167715962D02*
X60920381Y-167715962D01*
X60920381Y-167049296D02*
X60920381Y-166858819D01*
X60968000Y-166763581D01*
X61063238Y-166668343D01*
X61253714Y-166620724D01*
X61587048Y-166620724D01*
X61777524Y-166668343D01*
X61872762Y-166763581D01*
X61920381Y-166858819D01*
X61920381Y-167049296D01*
X61872762Y-167144534D01*
X61777524Y-167239772D01*
X61587048Y-167287391D01*
X61253714Y-167287391D01*
X61063238Y-167239772D01*
X60968000Y-167144534D01*
X60920381Y-167049296D01*
X61920381Y-165620724D02*
X61444190Y-165954058D01*
X61920381Y-166192153D02*
X60920381Y-166192153D01*
X60920381Y-165811200D01*
X60968000Y-165715962D01*
X61015619Y-165668343D01*
X61110857Y-165620724D01*
X61253714Y-165620724D01*
X61348952Y-165668343D01*
X61396571Y-165715962D01*
X61444190Y-165811200D01*
X61444190Y-166192153D01*
X61396571Y-165192153D02*
X61396571Y-164858819D01*
X61920381Y-164715962D02*
X61920381Y-165192153D01*
X60920381Y-165192153D01*
X60920381Y-164715962D01*
X61396571Y-163954057D02*
X61396571Y-164287391D01*
X61920381Y-164287391D02*
X60920381Y-164287391D01*
X60920381Y-163811200D01*
X59360381Y-167739914D02*
X58360381Y-167739914D01*
X59360381Y-167168485D01*
X58360381Y-167168485D01*
X59265143Y-166120866D02*
X59312762Y-166168485D01*
X59360381Y-166311342D01*
X59360381Y-166406580D01*
X59312762Y-166549438D01*
X59217524Y-166644676D01*
X59122286Y-166692295D01*
X58931810Y-166739914D01*
X58788952Y-166739914D01*
X58598476Y-166692295D01*
X58503238Y-166644676D01*
X58408000Y-166549438D01*
X58360381Y-166406580D01*
X58360381Y-166311342D01*
X58408000Y-166168485D01*
X58455619Y-166120866D01*
X64460381Y-167247819D02*
X63984190Y-167581153D01*
X64460381Y-167819248D02*
X63460381Y-167819248D01*
X63460381Y-167438295D01*
X63508000Y-167343057D01*
X63555619Y-167295438D01*
X63650857Y-167247819D01*
X63793714Y-167247819D01*
X63888952Y-167295438D01*
X63936571Y-167343057D01*
X63984190Y-167438295D01*
X63984190Y-167819248D01*
X64412762Y-166866867D02*
X64460381Y-166724010D01*
X64460381Y-166485914D01*
X64412762Y-166390676D01*
X64365143Y-166343057D01*
X64269905Y-166295438D01*
X64174667Y-166295438D01*
X64079429Y-166343057D01*
X64031810Y-166390676D01*
X63984190Y-166485914D01*
X63936571Y-166676391D01*
X63888952Y-166771629D01*
X63841333Y-166819248D01*
X63746095Y-166866867D01*
X63650857Y-166866867D01*
X63555619Y-166819248D01*
X63508000Y-166771629D01*
X63460381Y-166676391D01*
X63460381Y-166438295D01*
X63508000Y-166295438D01*
X63460381Y-166009724D02*
X63460381Y-165438295D01*
X64460381Y-165724010D02*
X63460381Y-165724010D01*
X66127381Y-167795390D02*
X66127381Y-167176342D01*
X66508333Y-167509676D01*
X66508333Y-167366818D01*
X66555952Y-167271580D01*
X66603571Y-167223961D01*
X66698810Y-167176342D01*
X66936905Y-167176342D01*
X67032143Y-167223961D01*
X67079762Y-167271580D01*
X67127381Y-167366818D01*
X67127381Y-167652533D01*
X67079762Y-167747771D01*
X67032143Y-167795390D01*
X67032143Y-166747771D02*
X67079762Y-166700152D01*
X67127381Y-166747771D01*
X67079762Y-166795390D01*
X67032143Y-166747771D01*
X67127381Y-166747771D01*
X66127381Y-166366819D02*
X66127381Y-165747771D01*
X66508333Y-166081105D01*
X66508333Y-165938247D01*
X66555952Y-165843009D01*
X66603571Y-165795390D01*
X66698810Y-165747771D01*
X66936905Y-165747771D01*
X67032143Y-165795390D01*
X67079762Y-165843009D01*
X67127381Y-165938247D01*
X67127381Y-166223962D01*
X67079762Y-166319200D01*
X67032143Y-166366819D01*
X66127381Y-165462057D02*
X67127381Y-165128724D01*
X66127381Y-164795390D01*
X68520381Y-167144676D02*
X68520381Y-167620867D01*
X68996571Y-167668486D01*
X68948952Y-167620867D01*
X68901333Y-167525629D01*
X68901333Y-167287533D01*
X68948952Y-167192295D01*
X68996571Y-167144676D01*
X69091810Y-167097057D01*
X69329905Y-167097057D01*
X69425143Y-167144676D01*
X69472762Y-167192295D01*
X69520381Y-167287533D01*
X69520381Y-167525629D01*
X69472762Y-167620867D01*
X69425143Y-167668486D01*
X68520381Y-166811343D02*
X69520381Y-166478010D01*
X68520381Y-166144676D01*
X71108000Y-167208104D02*
X71060381Y-167303342D01*
X71060381Y-167446199D01*
X71108000Y-167589057D01*
X71203238Y-167684295D01*
X71298476Y-167731914D01*
X71488952Y-167779533D01*
X71631810Y-167779533D01*
X71822286Y-167731914D01*
X71917524Y-167684295D01*
X72012762Y-167589057D01*
X72060381Y-167446199D01*
X72060381Y-167350961D01*
X72012762Y-167208104D01*
X71965143Y-167160485D01*
X71631810Y-167160485D01*
X71631810Y-167350961D01*
X72060381Y-166731914D02*
X71060381Y-166731914D01*
X72060381Y-166160485D01*
X71060381Y-166160485D01*
X72060381Y-165684295D02*
X71060381Y-165684295D01*
X71060381Y-165446200D01*
X71108000Y-165303342D01*
X71203238Y-165208104D01*
X71298476Y-165160485D01*
X71488952Y-165112866D01*
X71631810Y-165112866D01*
X71822286Y-165160485D01*
X71917524Y-165208104D01*
X72012762Y-165303342D01*
X72060381Y-165446200D01*
X72060381Y-165684295D01*
X73683000Y-167208104D02*
X73635381Y-167303342D01*
X73635381Y-167446199D01*
X73683000Y-167589057D01*
X73778238Y-167684295D01*
X73873476Y-167731914D01*
X74063952Y-167779533D01*
X74206810Y-167779533D01*
X74397286Y-167731914D01*
X74492524Y-167684295D01*
X74587762Y-167589057D01*
X74635381Y-167446199D01*
X74635381Y-167350961D01*
X74587762Y-167208104D01*
X74540143Y-167160485D01*
X74206810Y-167160485D01*
X74206810Y-167350961D01*
X74635381Y-166731914D02*
X73635381Y-166731914D01*
X74635381Y-166160485D01*
X73635381Y-166160485D01*
X74635381Y-165684295D02*
X73635381Y-165684295D01*
X73635381Y-165446200D01*
X73683000Y-165303342D01*
X73778238Y-165208104D01*
X73873476Y-165160485D01*
X74063952Y-165112866D01*
X74206810Y-165112866D01*
X74397286Y-165160485D01*
X74492524Y-165208104D01*
X74587762Y-165303342D01*
X74635381Y-165446200D01*
X74635381Y-165684295D01*
X76310381Y-167616438D02*
X77310381Y-167283105D01*
X76310381Y-166949771D01*
X77310381Y-166616438D02*
X76310381Y-166616438D01*
X77310381Y-166140248D02*
X76310381Y-166140248D01*
X77310381Y-165568819D01*
X76310381Y-165568819D01*
X94804667Y-167743486D02*
X94804667Y-167267295D01*
X95090381Y-167838724D02*
X94090381Y-167505391D01*
X95090381Y-167172057D01*
X94090381Y-166362533D02*
X94090381Y-166838724D01*
X94566571Y-166886343D01*
X94518952Y-166838724D01*
X94471333Y-166743486D01*
X94471333Y-166505390D01*
X94518952Y-166410152D01*
X94566571Y-166362533D01*
X94661810Y-166314914D01*
X94899905Y-166314914D01*
X94995143Y-166362533D01*
X95042762Y-166410152D01*
X95090381Y-166505390D01*
X95090381Y-166743486D01*
X95042762Y-166838724D01*
X94995143Y-166886343D01*
X92129667Y-167668486D02*
X92129667Y-167192295D01*
X92415381Y-167763724D02*
X91415381Y-167430391D01*
X92415381Y-167097057D01*
X91748714Y-166335152D02*
X92415381Y-166335152D01*
X91367762Y-166573248D02*
X92082048Y-166811343D01*
X92082048Y-166192295D01*
X89554667Y-167668486D02*
X89554667Y-167192295D01*
X89840381Y-167763724D02*
X88840381Y-167430391D01*
X89840381Y-167097057D01*
X88840381Y-166858962D02*
X88840381Y-166239914D01*
X89221333Y-166573248D01*
X89221333Y-166430390D01*
X89268952Y-166335152D01*
X89316571Y-166287533D01*
X89411810Y-166239914D01*
X89649905Y-166239914D01*
X89745143Y-166287533D01*
X89792762Y-166335152D01*
X89840381Y-166430390D01*
X89840381Y-166716105D01*
X89792762Y-166811343D01*
X89745143Y-166858962D01*
X87014667Y-167668486D02*
X87014667Y-167192295D01*
X87300381Y-167763724D02*
X86300381Y-167430391D01*
X87300381Y-167097057D01*
X86395619Y-166811343D02*
X86348000Y-166763724D01*
X86300381Y-166668486D01*
X86300381Y-166430390D01*
X86348000Y-166335152D01*
X86395619Y-166287533D01*
X86490857Y-166239914D01*
X86586095Y-166239914D01*
X86728952Y-166287533D01*
X87300381Y-166858962D01*
X87300381Y-166239914D01*
X84601667Y-167668486D02*
X84601667Y-167192295D01*
X84887381Y-167763724D02*
X83887381Y-167430391D01*
X84887381Y-167097057D01*
X84887381Y-166239914D02*
X84887381Y-166811343D01*
X84887381Y-166525629D02*
X83887381Y-166525629D01*
X84030238Y-166620867D01*
X84125476Y-166716105D01*
X84173095Y-166811343D01*
X82081667Y-167668486D02*
X82081667Y-167192295D01*
X82367381Y-167763724D02*
X81367381Y-167430391D01*
X82367381Y-167097057D01*
X81367381Y-166573248D02*
X81367381Y-166478009D01*
X81415000Y-166382771D01*
X81462619Y-166335152D01*
X81557857Y-166287533D01*
X81748333Y-166239914D01*
X81986429Y-166239914D01*
X82176905Y-166287533D01*
X82272143Y-166335152D01*
X82319762Y-166382771D01*
X82367381Y-166478009D01*
X82367381Y-166573248D01*
X82319762Y-166668486D01*
X82272143Y-166716105D01*
X82176905Y-166763724D01*
X81986429Y-166811343D01*
X81748333Y-166811343D01*
X81557857Y-166763724D01*
X81462619Y-166716105D01*
X81415000Y-166668486D01*
X81367381Y-166573248D01*
X50422762Y-126234676D02*
X50470381Y-126091819D01*
X50470381Y-125853723D01*
X50422762Y-125758485D01*
X50375143Y-125710866D01*
X50279905Y-125663247D01*
X50184667Y-125663247D01*
X50089429Y-125710866D01*
X50041810Y-125758485D01*
X49994190Y-125853723D01*
X49946571Y-126044200D01*
X49898952Y-126139438D01*
X49851333Y-126187057D01*
X49756095Y-126234676D01*
X49660857Y-126234676D01*
X49565619Y-126187057D01*
X49518000Y-126139438D01*
X49470381Y-126044200D01*
X49470381Y-125806104D01*
X49518000Y-125663247D01*
X50375143Y-124663247D02*
X50422762Y-124710866D01*
X50470381Y-124853723D01*
X50470381Y-124948961D01*
X50422762Y-125091819D01*
X50327524Y-125187057D01*
X50232286Y-125234676D01*
X50041810Y-125282295D01*
X49898952Y-125282295D01*
X49708476Y-125234676D01*
X49613238Y-125187057D01*
X49518000Y-125091819D01*
X49470381Y-124948961D01*
X49470381Y-124853723D01*
X49518000Y-124710866D01*
X49565619Y-124663247D01*
X50470381Y-123758485D02*
X50470381Y-124234676D01*
X49470381Y-124234676D01*
X52835762Y-126258486D02*
X52883381Y-126115629D01*
X52883381Y-125877533D01*
X52835762Y-125782295D01*
X52788143Y-125734676D01*
X52692905Y-125687057D01*
X52597667Y-125687057D01*
X52502429Y-125734676D01*
X52454810Y-125782295D01*
X52407190Y-125877533D01*
X52359571Y-126068010D01*
X52311952Y-126163248D01*
X52264333Y-126210867D01*
X52169095Y-126258486D01*
X52073857Y-126258486D01*
X51978619Y-126210867D01*
X51931000Y-126163248D01*
X51883381Y-126068010D01*
X51883381Y-125829914D01*
X51931000Y-125687057D01*
X52883381Y-125258486D02*
X51883381Y-125258486D01*
X51883381Y-125020391D01*
X51931000Y-124877533D01*
X52026238Y-124782295D01*
X52121476Y-124734676D01*
X52311952Y-124687057D01*
X52454810Y-124687057D01*
X52645286Y-124734676D01*
X52740524Y-124782295D01*
X52835762Y-124877533D01*
X52883381Y-125020391D01*
X52883381Y-125258486D01*
X52597667Y-124306105D02*
X52597667Y-123829914D01*
X52883381Y-124401343D02*
X51883381Y-124068010D01*
X52883381Y-123734676D01*
X55137667Y-126234676D02*
X55137667Y-125758485D01*
X55423381Y-126329914D02*
X54423381Y-125996581D01*
X55423381Y-125663247D01*
X55423381Y-124758485D02*
X54947190Y-125091819D01*
X55423381Y-125329914D02*
X54423381Y-125329914D01*
X54423381Y-124948961D01*
X54471000Y-124853723D01*
X54518619Y-124806104D01*
X54613857Y-124758485D01*
X54756714Y-124758485D01*
X54851952Y-124806104D01*
X54899571Y-124853723D01*
X54947190Y-124948961D01*
X54947190Y-125329914D01*
X54899571Y-124329914D02*
X54899571Y-123996580D01*
X55423381Y-123853723D02*
X55423381Y-124329914D01*
X54423381Y-124329914D01*
X54423381Y-123853723D01*
X57011000Y-125806104D02*
X56963381Y-125901342D01*
X56963381Y-126044199D01*
X57011000Y-126187057D01*
X57106238Y-126282295D01*
X57201476Y-126329914D01*
X57391952Y-126377533D01*
X57534810Y-126377533D01*
X57725286Y-126329914D01*
X57820524Y-126282295D01*
X57915762Y-126187057D01*
X57963381Y-126044199D01*
X57963381Y-125948961D01*
X57915762Y-125806104D01*
X57868143Y-125758485D01*
X57534810Y-125758485D01*
X57534810Y-125948961D01*
X57963381Y-125329914D02*
X56963381Y-125329914D01*
X57963381Y-124758485D01*
X56963381Y-124758485D01*
X57963381Y-124282295D02*
X56963381Y-124282295D01*
X56963381Y-124044200D01*
X57011000Y-123901342D01*
X57106238Y-123806104D01*
X57201476Y-123758485D01*
X57391952Y-123710866D01*
X57534810Y-123710866D01*
X57725286Y-123758485D01*
X57820524Y-123806104D01*
X57915762Y-123901342D01*
X57963381Y-124044200D01*
X57963381Y-124282295D01*
X60630381Y-126258486D02*
X59630381Y-126258486D01*
X59630381Y-126020391D01*
X59678000Y-125877533D01*
X59773238Y-125782295D01*
X59868476Y-125734676D01*
X60058952Y-125687057D01*
X60201810Y-125687057D01*
X60392286Y-125734676D01*
X60487524Y-125782295D01*
X60582762Y-125877533D01*
X60630381Y-126020391D01*
X60630381Y-126258486D01*
X60630381Y-124734676D02*
X60630381Y-125306105D01*
X60630381Y-125020391D02*
X59630381Y-125020391D01*
X59773238Y-125115629D01*
X59868476Y-125210867D01*
X59916095Y-125306105D01*
X59630381Y-124401343D02*
X59630381Y-123782295D01*
X60011333Y-124115629D01*
X60011333Y-123972771D01*
X60058952Y-123877533D01*
X60106571Y-123829914D01*
X60201810Y-123782295D01*
X60439905Y-123782295D01*
X60535143Y-123829914D01*
X60582762Y-123877533D01*
X60630381Y-123972771D01*
X60630381Y-124258486D01*
X60582762Y-124353724D01*
X60535143Y-124401343D01*
X63170381Y-126258486D02*
X62170381Y-126258486D01*
X62170381Y-126020391D01*
X62218000Y-125877533D01*
X62313238Y-125782295D01*
X62408476Y-125734676D01*
X62598952Y-125687057D01*
X62741810Y-125687057D01*
X62932286Y-125734676D01*
X63027524Y-125782295D01*
X63122762Y-125877533D01*
X63170381Y-126020391D01*
X63170381Y-126258486D01*
X63170381Y-124734676D02*
X63170381Y-125306105D01*
X63170381Y-125020391D02*
X62170381Y-125020391D01*
X62313238Y-125115629D01*
X62408476Y-125210867D01*
X62456095Y-125306105D01*
X62265619Y-124353724D02*
X62218000Y-124306105D01*
X62170381Y-124210867D01*
X62170381Y-123972771D01*
X62218000Y-123877533D01*
X62265619Y-123829914D01*
X62360857Y-123782295D01*
X62456095Y-123782295D01*
X62598952Y-123829914D01*
X63170381Y-124401343D01*
X63170381Y-123782295D01*
X65710381Y-126258486D02*
X64710381Y-126258486D01*
X64710381Y-126020391D01*
X64758000Y-125877533D01*
X64853238Y-125782295D01*
X64948476Y-125734676D01*
X65138952Y-125687057D01*
X65281810Y-125687057D01*
X65472286Y-125734676D01*
X65567524Y-125782295D01*
X65662762Y-125877533D01*
X65710381Y-126020391D01*
X65710381Y-126258486D01*
X65710381Y-124734676D02*
X65710381Y-125306105D01*
X65710381Y-125020391D02*
X64710381Y-125020391D01*
X64853238Y-125115629D01*
X64948476Y-125210867D01*
X64996095Y-125306105D01*
X65710381Y-123782295D02*
X65710381Y-124353724D01*
X65710381Y-124068010D02*
X64710381Y-124068010D01*
X64853238Y-124163248D01*
X64948476Y-124258486D01*
X64996095Y-124353724D01*
X68123381Y-126258486D02*
X67123381Y-126258486D01*
X67123381Y-126020391D01*
X67171000Y-125877533D01*
X67266238Y-125782295D01*
X67361476Y-125734676D01*
X67551952Y-125687057D01*
X67694810Y-125687057D01*
X67885286Y-125734676D01*
X67980524Y-125782295D01*
X68075762Y-125877533D01*
X68123381Y-126020391D01*
X68123381Y-126258486D01*
X68123381Y-124734676D02*
X68123381Y-125306105D01*
X68123381Y-125020391D02*
X67123381Y-125020391D01*
X67266238Y-125115629D01*
X67361476Y-125210867D01*
X67409095Y-125306105D01*
X67123381Y-124115629D02*
X67123381Y-124020390D01*
X67171000Y-123925152D01*
X67218619Y-123877533D01*
X67313857Y-123829914D01*
X67504333Y-123782295D01*
X67742429Y-123782295D01*
X67932905Y-123829914D01*
X68028143Y-123877533D01*
X68075762Y-123925152D01*
X68123381Y-124020390D01*
X68123381Y-124115629D01*
X68075762Y-124210867D01*
X68028143Y-124258486D01*
X67932905Y-124306105D01*
X67742429Y-124353724D01*
X67504333Y-124353724D01*
X67313857Y-124306105D01*
X67218619Y-124258486D01*
X67171000Y-124210867D01*
X67123381Y-124115629D01*
X70790381Y-125401295D02*
X69790381Y-125401295D01*
X69790381Y-125163200D01*
X69838000Y-125020342D01*
X69933238Y-124925104D01*
X70028476Y-124877485D01*
X70218952Y-124829866D01*
X70361810Y-124829866D01*
X70552286Y-124877485D01*
X70647524Y-124925104D01*
X70742762Y-125020342D01*
X70790381Y-125163200D01*
X70790381Y-125401295D01*
X70790381Y-124353676D02*
X70790381Y-124163200D01*
X70742762Y-124067961D01*
X70695143Y-124020342D01*
X70552286Y-123925104D01*
X70361810Y-123877485D01*
X69980857Y-123877485D01*
X69885619Y-123925104D01*
X69838000Y-123972723D01*
X69790381Y-124067961D01*
X69790381Y-124258438D01*
X69838000Y-124353676D01*
X69885619Y-124401295D01*
X69980857Y-124448914D01*
X70218952Y-124448914D01*
X70314190Y-124401295D01*
X70361810Y-124353676D01*
X70409429Y-124258438D01*
X70409429Y-124067961D01*
X70361810Y-123972723D01*
X70314190Y-123925104D01*
X70218952Y-123877485D01*
X73330381Y-125401295D02*
X72330381Y-125401295D01*
X72330381Y-125163200D01*
X72378000Y-125020342D01*
X72473238Y-124925104D01*
X72568476Y-124877485D01*
X72758952Y-124829866D01*
X72901810Y-124829866D01*
X73092286Y-124877485D01*
X73187524Y-124925104D01*
X73282762Y-125020342D01*
X73330381Y-125163200D01*
X73330381Y-125401295D01*
X72758952Y-124258438D02*
X72711333Y-124353676D01*
X72663714Y-124401295D01*
X72568476Y-124448914D01*
X72520857Y-124448914D01*
X72425619Y-124401295D01*
X72378000Y-124353676D01*
X72330381Y-124258438D01*
X72330381Y-124067961D01*
X72378000Y-123972723D01*
X72425619Y-123925104D01*
X72520857Y-123877485D01*
X72568476Y-123877485D01*
X72663714Y-123925104D01*
X72711333Y-123972723D01*
X72758952Y-124067961D01*
X72758952Y-124258438D01*
X72806571Y-124353676D01*
X72854190Y-124401295D01*
X72949429Y-124448914D01*
X73139905Y-124448914D01*
X73235143Y-124401295D01*
X73282762Y-124353676D01*
X73330381Y-124258438D01*
X73330381Y-124067961D01*
X73282762Y-123972723D01*
X73235143Y-123925104D01*
X73139905Y-123877485D01*
X72949429Y-123877485D01*
X72854190Y-123925104D01*
X72806571Y-123972723D01*
X72758952Y-124067961D01*
X77394381Y-125528295D02*
X76394381Y-125528295D01*
X76394381Y-125290200D01*
X76442000Y-125147342D01*
X76537238Y-125052104D01*
X76632476Y-125004485D01*
X76822952Y-124956866D01*
X76965810Y-124956866D01*
X77156286Y-125004485D01*
X77251524Y-125052104D01*
X77346762Y-125147342D01*
X77394381Y-125290200D01*
X77394381Y-125528295D01*
X76394381Y-124623533D02*
X76394381Y-123956866D01*
X77394381Y-124385438D01*
X79807381Y-125528295D02*
X78807381Y-125528295D01*
X78807381Y-125290200D01*
X78855000Y-125147342D01*
X78950238Y-125052104D01*
X79045476Y-125004485D01*
X79235952Y-124956866D01*
X79378810Y-124956866D01*
X79569286Y-125004485D01*
X79664524Y-125052104D01*
X79759762Y-125147342D01*
X79807381Y-125290200D01*
X79807381Y-125528295D01*
X78807381Y-124099723D02*
X78807381Y-124290200D01*
X78855000Y-124385438D01*
X78902619Y-124433057D01*
X79045476Y-124528295D01*
X79235952Y-124575914D01*
X79616905Y-124575914D01*
X79712143Y-124528295D01*
X79759762Y-124480676D01*
X79807381Y-124385438D01*
X79807381Y-124194961D01*
X79759762Y-124099723D01*
X79712143Y-124052104D01*
X79616905Y-124004485D01*
X79378810Y-124004485D01*
X79283571Y-124052104D01*
X79235952Y-124099723D01*
X79188333Y-124194961D01*
X79188333Y-124385438D01*
X79235952Y-124480676D01*
X79283571Y-124528295D01*
X79378810Y-124575914D01*
X82347381Y-125528295D02*
X81347381Y-125528295D01*
X81347381Y-125290200D01*
X81395000Y-125147342D01*
X81490238Y-125052104D01*
X81585476Y-125004485D01*
X81775952Y-124956866D01*
X81918810Y-124956866D01*
X82109286Y-125004485D01*
X82204524Y-125052104D01*
X82299762Y-125147342D01*
X82347381Y-125290200D01*
X82347381Y-125528295D01*
X81347381Y-124052104D02*
X81347381Y-124528295D01*
X81823571Y-124575914D01*
X81775952Y-124528295D01*
X81728333Y-124433057D01*
X81728333Y-124194961D01*
X81775952Y-124099723D01*
X81823571Y-124052104D01*
X81918810Y-124004485D01*
X82156905Y-124004485D01*
X82252143Y-124052104D01*
X82299762Y-124099723D01*
X82347381Y-124194961D01*
X82347381Y-124433057D01*
X82299762Y-124528295D01*
X82252143Y-124575914D01*
X85014381Y-125528295D02*
X84014381Y-125528295D01*
X84014381Y-125290200D01*
X84062000Y-125147342D01*
X84157238Y-125052104D01*
X84252476Y-125004485D01*
X84442952Y-124956866D01*
X84585810Y-124956866D01*
X84776286Y-125004485D01*
X84871524Y-125052104D01*
X84966762Y-125147342D01*
X85014381Y-125290200D01*
X85014381Y-125528295D01*
X84347714Y-124099723D02*
X85014381Y-124099723D01*
X83966762Y-124337819D02*
X84681048Y-124575914D01*
X84681048Y-123956866D01*
X87427381Y-125528295D02*
X86427381Y-125528295D01*
X86427381Y-125290200D01*
X86475000Y-125147342D01*
X86570238Y-125052104D01*
X86665476Y-125004485D01*
X86855952Y-124956866D01*
X86998810Y-124956866D01*
X87189286Y-125004485D01*
X87284524Y-125052104D01*
X87379762Y-125147342D01*
X87427381Y-125290200D01*
X87427381Y-125528295D01*
X86427381Y-124623533D02*
X86427381Y-124004485D01*
X86808333Y-124337819D01*
X86808333Y-124194961D01*
X86855952Y-124099723D01*
X86903571Y-124052104D01*
X86998810Y-124004485D01*
X87236905Y-124004485D01*
X87332143Y-124052104D01*
X87379762Y-124099723D01*
X87427381Y-124194961D01*
X87427381Y-124480676D01*
X87379762Y-124575914D01*
X87332143Y-124623533D01*
X89967381Y-125528295D02*
X88967381Y-125528295D01*
X88967381Y-125290200D01*
X89015000Y-125147342D01*
X89110238Y-125052104D01*
X89205476Y-125004485D01*
X89395952Y-124956866D01*
X89538810Y-124956866D01*
X89729286Y-125004485D01*
X89824524Y-125052104D01*
X89919762Y-125147342D01*
X89967381Y-125290200D01*
X89967381Y-125528295D01*
X89062619Y-124575914D02*
X89015000Y-124528295D01*
X88967381Y-124433057D01*
X88967381Y-124194961D01*
X89015000Y-124099723D01*
X89062619Y-124052104D01*
X89157857Y-124004485D01*
X89253095Y-124004485D01*
X89395952Y-124052104D01*
X89967381Y-124623533D01*
X89967381Y-124004485D01*
X92542381Y-125528295D02*
X91542381Y-125528295D01*
X91542381Y-125290200D01*
X91590000Y-125147342D01*
X91685238Y-125052104D01*
X91780476Y-125004485D01*
X91970952Y-124956866D01*
X92113810Y-124956866D01*
X92304286Y-125004485D01*
X92399524Y-125052104D01*
X92494762Y-125147342D01*
X92542381Y-125290200D01*
X92542381Y-125528295D01*
X92542381Y-124004485D02*
X92542381Y-124575914D01*
X92542381Y-124290200D02*
X91542381Y-124290200D01*
X91685238Y-124385438D01*
X91780476Y-124480676D01*
X91828095Y-124575914D01*
X95217381Y-125603295D02*
X94217381Y-125603295D01*
X94217381Y-125365200D01*
X94265000Y-125222342D01*
X94360238Y-125127104D01*
X94455476Y-125079485D01*
X94645952Y-125031866D01*
X94788810Y-125031866D01*
X94979286Y-125079485D01*
X95074524Y-125127104D01*
X95169762Y-125222342D01*
X95217381Y-125365200D01*
X95217381Y-125603295D01*
X94217381Y-124412819D02*
X94217381Y-124317580D01*
X94265000Y-124222342D01*
X94312619Y-124174723D01*
X94407857Y-124127104D01*
X94598333Y-124079485D01*
X94836429Y-124079485D01*
X95026905Y-124127104D01*
X95122143Y-124174723D01*
X95169762Y-124222342D01*
X95217381Y-124317580D01*
X95217381Y-124412819D01*
X95169762Y-124508057D01*
X95122143Y-124555676D01*
X95026905Y-124603295D01*
X94836429Y-124650914D01*
X94598333Y-124650914D01*
X94407857Y-124603295D01*
X94312619Y-124555676D01*
X94265000Y-124508057D01*
X94217381Y-124412819D01*
%LPC*%
D17*
X72682291Y-148117099D03*
X72682291Y-146117099D03*
D18*
X45780600Y-157916800D03*
X45780600Y-158866800D03*
X45780600Y-159816800D03*
X47980600Y-159816800D03*
X47980600Y-157916800D03*
D19*
X90180164Y-157566946D03*
X91680164Y-157566946D03*
D20*
X82641400Y-140512800D03*
X82641400Y-139242800D03*
X82641400Y-137972800D03*
X82641400Y-136702800D03*
X82641400Y-135432800D03*
X82641400Y-134162800D03*
X82641400Y-132892800D03*
X77241400Y-132892800D03*
X77241400Y-134162800D03*
X77241400Y-135432800D03*
X77241400Y-136702800D03*
X77241400Y-137972800D03*
X77241400Y-139242800D03*
X77241400Y-140512800D03*
D21*
X61899800Y-137261600D03*
D20*
X85633564Y-157287546D03*
X85633564Y-156017546D03*
X85633564Y-154747546D03*
X85633564Y-153477546D03*
X85633564Y-152207546D03*
X85633564Y-150937546D03*
X85633564Y-149667546D03*
X80233564Y-149667546D03*
X80233564Y-150937546D03*
X80233564Y-152207546D03*
X80233564Y-153477546D03*
X80233564Y-154747546D03*
X80233564Y-156017546D03*
X80233564Y-157287546D03*
D22*
X73123800Y-129438400D03*
X76123800Y-129438400D03*
D23*
X95580200Y-149507200D03*
X95580200Y-146507200D03*
D24*
X50495200Y-169214800D03*
X53895200Y-169214800D03*
D19*
X94399800Y-129540000D03*
X92899800Y-129540000D03*
D25*
X79222600Y-164592000D03*
X79222600Y-166092000D03*
D19*
X82231800Y-142849600D03*
X83731800Y-142849600D03*
D25*
X85654179Y-142851949D03*
X85654179Y-144351949D03*
X87406779Y-142914749D03*
X87406779Y-144414749D03*
D19*
X83235800Y-159512000D03*
X84735800Y-159512000D03*
X75768200Y-156921200D03*
X74268200Y-156921200D03*
D25*
X87807800Y-157530800D03*
X87807800Y-156030800D03*
D19*
X73952291Y-153975099D03*
X72452291Y-153975099D03*
D17*
X89687400Y-149402800D03*
X89687400Y-147402800D03*
D26*
X89687400Y-151638000D03*
X91687400Y-151638000D03*
D19*
X91690320Y-159522160D03*
X90190320Y-159522160D03*
X91680600Y-155827046D03*
X93180600Y-155827046D03*
X67691000Y-155752800D03*
X66191000Y-155752800D03*
D25*
X60083891Y-153443099D03*
X60083891Y-151943099D03*
X84813140Y-132187820D03*
X84813140Y-133687820D03*
D19*
X78230600Y-129387600D03*
X79730600Y-129387600D03*
D25*
X57226200Y-144651600D03*
X57226200Y-146151600D03*
D19*
X71491540Y-132113020D03*
X69991540Y-132113020D03*
X63025583Y-142291099D03*
X64525583Y-142291099D03*
X75615800Y-144576800D03*
X77115800Y-144576800D03*
X66254691Y-142291099D03*
X67754691Y-142291099D03*
X78941800Y-142849600D03*
X80441800Y-142849600D03*
X75006200Y-140919200D03*
X73506200Y-140919200D03*
D25*
X69977000Y-144322800D03*
X69977000Y-142822800D03*
X69989891Y-149633099D03*
X69989891Y-148133099D03*
D19*
X45617000Y-156159200D03*
X47117000Y-156159200D03*
X45237400Y-131470400D03*
X43737400Y-131470400D03*
X94411800Y-127406400D03*
X92911800Y-127406400D03*
D17*
X85016340Y-137592820D03*
X85016340Y-135592820D03*
D25*
X84762340Y-140952220D03*
X84762340Y-139452220D03*
X75971400Y-153974800D03*
X75971400Y-152474800D03*
X87757000Y-154154000D03*
X87757000Y-152654000D03*
D27*
X72364600Y-158191200D03*
X69364600Y-158191200D03*
D28*
X70180200Y-152779600D03*
X70180200Y-155779600D03*
D27*
X67362200Y-158242000D03*
X64362200Y-158242000D03*
D22*
X59311800Y-156464000D03*
X56311800Y-156464000D03*
D25*
X86578440Y-132137720D03*
X86578440Y-133637720D03*
D22*
X56924200Y-152857200D03*
X53924200Y-152857200D03*
D23*
X54330600Y-146510000D03*
X54330600Y-143510000D03*
D26*
X60033091Y-148298199D03*
X58033091Y-148298199D03*
D28*
X51181000Y-146510000D03*
X51181000Y-143510000D03*
D25*
X74904600Y-132189220D03*
X74904600Y-133689220D03*
D28*
X59613800Y-146052800D03*
X59613800Y-143052800D03*
D25*
X68554600Y-135761600D03*
X68554600Y-137261600D03*
D17*
X72682291Y-151943099D03*
X72682291Y-149943099D03*
D19*
X77077000Y-142849600D03*
X75577000Y-142849600D03*
D28*
X48082200Y-143560800D03*
X48082200Y-146560800D03*
D22*
X75072240Y-136481820D03*
X72072240Y-136481820D03*
D19*
X73506200Y-138988800D03*
X75006200Y-138988800D03*
D25*
X50165000Y-157961200D03*
X50165000Y-159461200D03*
D28*
X48082200Y-149095200D03*
X48082200Y-152095200D03*
X92227400Y-149429600D03*
X92227400Y-146429600D03*
D19*
X55573800Y-150266400D03*
X57073800Y-150266400D03*
X71503540Y-133802120D03*
X70003540Y-133802120D03*
D26*
X89687400Y-153873200D03*
X91687400Y-153873200D03*
D29*
X51790600Y-132080000D03*
X51790600Y-134580000D03*
D25*
X77749400Y-157480000D03*
X77749400Y-155980000D03*
D20*
X62306200Y-145643600D03*
X62306200Y-146913600D03*
X62306200Y-148183600D03*
X62306200Y-149453600D03*
X62306200Y-150723600D03*
X62306200Y-151993600D03*
X62306200Y-153263600D03*
X67706200Y-153263600D03*
X67706200Y-151993600D03*
X67706200Y-150723600D03*
X67706200Y-149453600D03*
X67706200Y-148183600D03*
X67706200Y-146913600D03*
X67706200Y-145643600D03*
D30*
X38735000Y-161239200D03*
D31*
X38735000Y-158699200D03*
D30*
X38735000Y-132334000D03*
D31*
X38735000Y-134874000D03*
D32*
X94615000Y-169875200D03*
X92075000Y-169875200D03*
X89535000Y-169875200D03*
X81915000Y-169875200D03*
X84455000Y-169875200D03*
X86995000Y-169875200D03*
X76835000Y-169875200D03*
X74295000Y-169875200D03*
X71755000Y-169875200D03*
X66675000Y-169875200D03*
X64135000Y-169875200D03*
X94615000Y-121615200D03*
X92075000Y-121615200D03*
X89535000Y-121615200D03*
X86995000Y-121615200D03*
X84455000Y-121615200D03*
X81915000Y-121615200D03*
X79375000Y-121615200D03*
X76835000Y-121615200D03*
X72771000Y-121615200D03*
X70231000Y-121615200D03*
X67691000Y-121615200D03*
X65151000Y-121615200D03*
X62611000Y-121615200D03*
X60071000Y-121615200D03*
X57531000Y-121615200D03*
X54991000Y-121615200D03*
X69215000Y-169875200D03*
D33*
X97155000Y-164795200D03*
X97155000Y-136855200D03*
X46355000Y-121615200D03*
X45085000Y-169875200D03*
D32*
X52451000Y-121615200D03*
X49911000Y-121615200D03*
X61595000Y-169875200D03*
X59055000Y-169875200D03*
M02*
