%TF.GenerationSoftware,KiCad,Pcbnew,4.0.7-e2-6376~58~ubuntu16.04.1*%
%TF.CreationDate,2017-10-04T18:34:51-07:00*%
%TF.ProjectId,mcphail-zero-analog-shield,6D63706861696C2D7A65726F2D616E61,v1.0*%
%TF.FileFunction,Copper,L1,Top,Signal*%
%FSLAX46Y46*%
G04 Gerber Fmt 4.6, Leading zero omitted, Abs format (unit mm)*
G04 Created by KiCad (PCBNEW 4.0.7-e2-6376~58~ubuntu16.04.1) date Wed Oct  4 18:34:51 2017*
%MOMM*%
%LPD*%
G01*
G04 APERTURE LIST*
%ADD10C,0.350000*%
%ADD11R,1.250000X1.000000*%
%ADD12R,1.060000X0.650000*%
%ADD13R,0.800000X0.750000*%
%ADD14R,1.500000X0.600000*%
%ADD15C,2.794000*%
%ADD16R,1.000000X2.500000*%
%ADD17R,2.500000X1.000000*%
%ADD18R,0.800000X1.700000*%
%ADD19R,0.750000X0.800000*%
%ADD20R,1.000000X1.250000*%
%ADD21R,1.000000X1.600000*%
%ADD22R,1.600000X1.000000*%
%ADD23C,1.600000*%
%ADD24R,2.032000X2.032000*%
%ADD25O,2.032000X2.032000*%
%ADD26O,1.524000X2.540000*%
%ADD27C,0.685800*%
%ADD28C,0.254000*%
%ADD29C,0.152400*%
%ADD30C,0.508000*%
%ADD31C,0.330200*%
%ADD32C,0.350000*%
G04 APERTURE END LIST*
D10*
D11*
X72682291Y-148117099D03*
X72682291Y-146117099D03*
D12*
X45780600Y-157916800D03*
X45780600Y-158866800D03*
X45780600Y-159816800D03*
X47980600Y-159816800D03*
X47980600Y-157916800D03*
D13*
X90180164Y-157566946D03*
X91680164Y-157566946D03*
D14*
X82641400Y-140512800D03*
X82641400Y-139242800D03*
X82641400Y-137972800D03*
X82641400Y-136702800D03*
X82641400Y-135432800D03*
X82641400Y-134162800D03*
X82641400Y-132892800D03*
X77241400Y-132892800D03*
X77241400Y-134162800D03*
X77241400Y-135432800D03*
X77241400Y-136702800D03*
X77241400Y-137972800D03*
X77241400Y-139242800D03*
X77241400Y-140512800D03*
D15*
X61899800Y-137261600D03*
D14*
X85633564Y-157287546D03*
X85633564Y-156017546D03*
X85633564Y-154747546D03*
X85633564Y-153477546D03*
X85633564Y-152207546D03*
X85633564Y-150937546D03*
X85633564Y-149667546D03*
X80233564Y-149667546D03*
X80233564Y-150937546D03*
X80233564Y-152207546D03*
X80233564Y-153477546D03*
X80233564Y-154747546D03*
X80233564Y-156017546D03*
X80233564Y-157287546D03*
D16*
X73123800Y-129438400D03*
X76123800Y-129438400D03*
D17*
X95580200Y-149507200D03*
X95580200Y-146507200D03*
D18*
X50495200Y-169214800D03*
X53895200Y-169214800D03*
D13*
X94399800Y-129540000D03*
X92899800Y-129540000D03*
D19*
X79222600Y-164592000D03*
X79222600Y-166092000D03*
D13*
X82231800Y-142849600D03*
X83731800Y-142849600D03*
D19*
X85654179Y-142851949D03*
X85654179Y-144351949D03*
X87406779Y-142914749D03*
X87406779Y-144414749D03*
D13*
X83235800Y-159512000D03*
X84735800Y-159512000D03*
X75768200Y-156921200D03*
X74268200Y-156921200D03*
D19*
X87807800Y-157530800D03*
X87807800Y-156030800D03*
D13*
X73952291Y-153975099D03*
X72452291Y-153975099D03*
D11*
X89687400Y-149402800D03*
X89687400Y-147402800D03*
D20*
X89687400Y-151638000D03*
X91687400Y-151638000D03*
D13*
X91690320Y-159522160D03*
X90190320Y-159522160D03*
X91680600Y-155827046D03*
X93180600Y-155827046D03*
X67691000Y-155752800D03*
X66191000Y-155752800D03*
D19*
X60083891Y-153443099D03*
X60083891Y-151943099D03*
X84813140Y-132187820D03*
X84813140Y-133687820D03*
D13*
X78230600Y-129387600D03*
X79730600Y-129387600D03*
D19*
X57226200Y-144651600D03*
X57226200Y-146151600D03*
D13*
X71491540Y-132113020D03*
X69991540Y-132113020D03*
X63025583Y-142291099D03*
X64525583Y-142291099D03*
X75615800Y-144576800D03*
X77115800Y-144576800D03*
X66254691Y-142291099D03*
X67754691Y-142291099D03*
X78941800Y-142849600D03*
X80441800Y-142849600D03*
X75006200Y-140919200D03*
X73506200Y-140919200D03*
D19*
X69977000Y-144322800D03*
X69977000Y-142822800D03*
X69989891Y-149633099D03*
X69989891Y-148133099D03*
D13*
X45617000Y-156159200D03*
X47117000Y-156159200D03*
X45237400Y-131470400D03*
X43737400Y-131470400D03*
X94411800Y-127406400D03*
X92911800Y-127406400D03*
D11*
X85016340Y-137592820D03*
X85016340Y-135592820D03*
D19*
X84762340Y-140952220D03*
X84762340Y-139452220D03*
X75971400Y-153974800D03*
X75971400Y-152474800D03*
X87757000Y-154154000D03*
X87757000Y-152654000D03*
D21*
X72364600Y-158191200D03*
X69364600Y-158191200D03*
D22*
X70180200Y-152779600D03*
X70180200Y-155779600D03*
D21*
X67362200Y-158242000D03*
X64362200Y-158242000D03*
D16*
X59311800Y-156464000D03*
X56311800Y-156464000D03*
D19*
X86578440Y-132137720D03*
X86578440Y-133637720D03*
D16*
X56924200Y-152857200D03*
X53924200Y-152857200D03*
D17*
X54330600Y-146510000D03*
X54330600Y-143510000D03*
D20*
X60033091Y-148298199D03*
X58033091Y-148298199D03*
D22*
X51181000Y-146510000D03*
X51181000Y-143510000D03*
D19*
X74904600Y-132189220D03*
X74904600Y-133689220D03*
D22*
X59613800Y-146052800D03*
X59613800Y-143052800D03*
D19*
X68554600Y-135761600D03*
X68554600Y-137261600D03*
D11*
X72682291Y-151943099D03*
X72682291Y-149943099D03*
D13*
X77077000Y-142849600D03*
X75577000Y-142849600D03*
D22*
X48082200Y-143560800D03*
X48082200Y-146560800D03*
D16*
X75072240Y-136481820D03*
X72072240Y-136481820D03*
D13*
X73506200Y-138988800D03*
X75006200Y-138988800D03*
D19*
X50165000Y-157961200D03*
X50165000Y-159461200D03*
D22*
X48082200Y-149095200D03*
X48082200Y-152095200D03*
X92227400Y-149429600D03*
X92227400Y-146429600D03*
D13*
X55573800Y-150266400D03*
X57073800Y-150266400D03*
X71503540Y-133802120D03*
X70003540Y-133802120D03*
D20*
X89687400Y-153873200D03*
X91687400Y-153873200D03*
D23*
X51790600Y-132080000D03*
X51790600Y-134580000D03*
D19*
X77749400Y-157480000D03*
X77749400Y-155980000D03*
D14*
X62306200Y-145643600D03*
X62306200Y-146913600D03*
X62306200Y-148183600D03*
X62306200Y-149453600D03*
X62306200Y-150723600D03*
X62306200Y-151993600D03*
X62306200Y-153263600D03*
X67706200Y-153263600D03*
X67706200Y-151993600D03*
X67706200Y-150723600D03*
X67706200Y-149453600D03*
X67706200Y-148183600D03*
X67706200Y-146913600D03*
X67706200Y-145643600D03*
D24*
X38735000Y-161239200D03*
D25*
X38735000Y-158699200D03*
D24*
X38735000Y-132334000D03*
D25*
X38735000Y-134874000D03*
D26*
X94615000Y-169875200D03*
X92075000Y-169875200D03*
X89535000Y-169875200D03*
X81915000Y-169875200D03*
X84455000Y-169875200D03*
X86995000Y-169875200D03*
X76835000Y-169875200D03*
X74295000Y-169875200D03*
X71755000Y-169875200D03*
X66675000Y-169875200D03*
X64135000Y-169875200D03*
X94615000Y-121615200D03*
X92075000Y-121615200D03*
X89535000Y-121615200D03*
X86995000Y-121615200D03*
X84455000Y-121615200D03*
X81915000Y-121615200D03*
X79375000Y-121615200D03*
X76835000Y-121615200D03*
X72771000Y-121615200D03*
X70231000Y-121615200D03*
X67691000Y-121615200D03*
X65151000Y-121615200D03*
X62611000Y-121615200D03*
X60071000Y-121615200D03*
X57531000Y-121615200D03*
X54991000Y-121615200D03*
X69215000Y-169875200D03*
X52451000Y-121615200D03*
X49911000Y-121615200D03*
X61595000Y-169875200D03*
X59055000Y-169875200D03*
D27*
X44526200Y-160070800D03*
X48945800Y-169214800D03*
X92938600Y-131114800D03*
X71145400Y-149860000D03*
X90195400Y-160883600D03*
X71247000Y-146050000D03*
X71145400Y-142849600D03*
X66522600Y-143814800D03*
X70231000Y-136753600D03*
X44592200Y-158866800D03*
X50165000Y-160680400D03*
X58033091Y-149301200D03*
X54889400Y-148285200D03*
X66167000Y-149453600D03*
X79933800Y-136702800D03*
X86842600Y-136144000D03*
X93345000Y-153771600D03*
X87706200Y-151028400D03*
X81813400Y-153466800D03*
X64693800Y-149479000D03*
X64693800Y-140716000D03*
X77089000Y-148336000D03*
X79070200Y-148336000D03*
X64643000Y-151384000D03*
X69011800Y-149656800D03*
X75920600Y-136753600D03*
X68554600Y-138480800D03*
D28*
X50495200Y-169214800D02*
X48945800Y-169214800D01*
X92899800Y-129540000D02*
X92899800Y-131076000D01*
X92899800Y-131076000D02*
X92938600Y-131114800D01*
X72682291Y-149943099D02*
X71228499Y-149943099D01*
X71228499Y-149943099D02*
X71145400Y-149860000D01*
X90190320Y-159522160D02*
X90190320Y-160878520D01*
X90190320Y-160878520D02*
X90195400Y-160883600D01*
X72682291Y-146117099D02*
X71314099Y-146117099D01*
X71314099Y-146117099D02*
X71247000Y-146050000D01*
X69977000Y-142822800D02*
X71118600Y-142822800D01*
X71118600Y-142822800D02*
X71145400Y-142849600D01*
X66167000Y-149453600D02*
X66167000Y-144170400D01*
X66167000Y-144170400D02*
X66522600Y-143814800D01*
X66167000Y-149453600D02*
X67706200Y-149453600D01*
X38735000Y-158699200D02*
X45613000Y-158699200D01*
X45613000Y-158699200D02*
X45780600Y-158866800D01*
X45780600Y-158866800D02*
X44592200Y-158866800D01*
X44592200Y-158866800D02*
X44577000Y-158851600D01*
X50165000Y-159461200D02*
X50165000Y-160680400D01*
X45780600Y-159816800D02*
X45780600Y-158866800D01*
X58033091Y-149301200D02*
X58033091Y-149650891D01*
X58033091Y-148298199D02*
X58033091Y-149301200D01*
X58033091Y-149650891D02*
X58089800Y-149707600D01*
X58033091Y-148298199D02*
X54902399Y-148298199D01*
X54902399Y-148298199D02*
X54889400Y-148285200D01*
X72021891Y-149943099D02*
X73094301Y-149943099D01*
X77241400Y-136702800D02*
X79933800Y-136702800D01*
X85016340Y-135592820D02*
X86291420Y-135592820D01*
X86291420Y-135592820D02*
X86842600Y-136144000D01*
X72072240Y-136481820D02*
X70451980Y-136481820D01*
X70451980Y-136481820D02*
X70180200Y-136753600D01*
X72072240Y-136481820D02*
X70314820Y-136481820D01*
X70314820Y-136481820D02*
X70281800Y-136448800D01*
X91687400Y-153873200D02*
X93243400Y-153873200D01*
X93243400Y-153873200D02*
X93345000Y-153771600D01*
X87757000Y-152654000D02*
X87757000Y-151079200D01*
X87757000Y-151079200D02*
X87706200Y-151028400D01*
X80233564Y-153477546D02*
X81802654Y-153477546D01*
X81802654Y-153477546D02*
X81813400Y-153466800D01*
D29*
X63995300Y-149453600D02*
X64122300Y-149453600D01*
D28*
X64122300Y-149453600D02*
X64147700Y-149479000D01*
X64147700Y-149479000D02*
X64693800Y-149479000D01*
X63995300Y-149453600D02*
X64135000Y-149453600D01*
X62306200Y-149453600D02*
X63995300Y-149453600D01*
X64693800Y-140716000D02*
X60426600Y-140716000D01*
X60426600Y-140716000D02*
X51790600Y-132080000D01*
X77089000Y-148336000D02*
X76528500Y-148896500D01*
X70701490Y-148896500D02*
X69989891Y-149608099D01*
X76528500Y-148896500D02*
X70701490Y-148896500D01*
X69989891Y-149608099D02*
X69989891Y-149633099D01*
X85420200Y-148336000D02*
X79070200Y-148336000D01*
X88722200Y-145034000D02*
X85420200Y-148336000D01*
X88722200Y-140419680D02*
X88722200Y-145034000D01*
X85016340Y-137592820D02*
X85895340Y-137592820D01*
X85895340Y-137592820D02*
X88722200Y-140419680D01*
X64897000Y-156311600D02*
X64897000Y-151638000D01*
X64897000Y-151638000D02*
X64643000Y-151384000D01*
X65405000Y-156819600D02*
X64897000Y-156311600D01*
X65405000Y-162560000D02*
X65405000Y-156819600D01*
X65405000Y-171043600D02*
X65405000Y-162560000D01*
X65405000Y-162560000D02*
X65405000Y-162204400D01*
X50165000Y-157961200D02*
X50794000Y-157961200D01*
X50794000Y-157961200D02*
X55392800Y-162560000D01*
X55392800Y-162560000D02*
X65405000Y-162560000D01*
X50165000Y-157961200D02*
X48025000Y-157961200D01*
X48025000Y-157961200D02*
X47980600Y-157916800D01*
X62306200Y-149453600D02*
X61063492Y-149453600D01*
X61063492Y-149453600D02*
X60033091Y-148423199D01*
X60033091Y-148423199D02*
X60033091Y-148298199D01*
X45237400Y-131470400D02*
X51181000Y-131470400D01*
X51181000Y-131470400D02*
X51790600Y-132080000D01*
X69215000Y-169875200D02*
X69215000Y-170383200D01*
X69215000Y-170383200D02*
X67843400Y-171754800D01*
X67843400Y-171754800D02*
X66116200Y-171754800D01*
X66116200Y-171754800D02*
X65405000Y-171043600D01*
X61856200Y-149453600D02*
X62306200Y-149453600D01*
X69989891Y-149633099D02*
X69035501Y-149633099D01*
X69035501Y-149633099D02*
X69011800Y-149656800D01*
X85016340Y-137592820D02*
X83981420Y-137592820D01*
X83981420Y-137592820D02*
X83091400Y-136702800D01*
X83091400Y-136702800D02*
X82641400Y-136702800D01*
X45780600Y-157916800D02*
X45780600Y-156322800D01*
X45780600Y-156322800D02*
X45617000Y-156159200D01*
X48082200Y-149095200D02*
X47028200Y-149095200D01*
X45617000Y-150506400D02*
X45617000Y-155530200D01*
X47028200Y-149095200D02*
X45617000Y-150506400D01*
X45617000Y-155530200D02*
X45617000Y-156159200D01*
X48082200Y-146560800D02*
X48082200Y-149095200D01*
X69989891Y-148133099D02*
X71602600Y-148133099D01*
X71602600Y-148133099D02*
X72005891Y-148133099D01*
X72682291Y-148117099D02*
X71618600Y-148117099D01*
X71618600Y-148117099D02*
X71602600Y-148133099D01*
X69977000Y-144322800D02*
X69977000Y-148120208D01*
X69977000Y-148120208D02*
X69989891Y-148133099D01*
X67706200Y-148183600D02*
X69939390Y-148183600D01*
X69939390Y-148183600D02*
X69989891Y-148133099D01*
X72005891Y-148133099D02*
X72021891Y-148117099D01*
X75920600Y-138887200D02*
X76255599Y-138552201D01*
X76255599Y-138552201D02*
X78786001Y-138552201D01*
X78786001Y-138552201D02*
X80441800Y-140208000D01*
X75920600Y-139395200D02*
X75920600Y-138887200D01*
X75463400Y-139852400D02*
X75920600Y-139395200D01*
X73506200Y-139852400D02*
X73506200Y-140919200D01*
X73506200Y-139547600D02*
X73506200Y-139852400D01*
X73506200Y-139852400D02*
X75463400Y-139852400D01*
X73506200Y-139090400D02*
X73506200Y-139547600D01*
X73506200Y-138988800D02*
X73506200Y-139547600D01*
X80441800Y-140208000D02*
X80441800Y-142849600D01*
X80441800Y-142849600D02*
X82231800Y-142849600D01*
X48082200Y-143560800D02*
X51130200Y-143560800D01*
X51130200Y-143560800D02*
X51181000Y-143510000D01*
X51133000Y-143558000D02*
X51181000Y-143510000D01*
X51697000Y-142240000D02*
X51239800Y-142697200D01*
X51181000Y-143510000D02*
X51181000Y-142756000D01*
X51239800Y-142697200D02*
X51231800Y-142705200D01*
X51181000Y-142756000D02*
X51239800Y-142697200D01*
X51993800Y-142240000D02*
X51697000Y-142240000D01*
X56057800Y-142240000D02*
X51993800Y-142240000D01*
X56870600Y-143052800D02*
X56057800Y-142240000D01*
X57105400Y-143052800D02*
X56870600Y-143052800D01*
X63025583Y-142291099D02*
X60675501Y-142291099D01*
X60675501Y-142291099D02*
X59913800Y-143052800D01*
X59913800Y-143052800D02*
X59613800Y-143052800D01*
X59613800Y-143052800D02*
X57105400Y-143052800D01*
X77115800Y-144576800D02*
X77115800Y-142888400D01*
X77115800Y-142888400D02*
X77077000Y-142849600D01*
X78941800Y-142849600D02*
X77077000Y-142849600D01*
X77241400Y-140512800D02*
X77241400Y-142685200D01*
X77241400Y-142685200D02*
X77077000Y-142849600D01*
X76791400Y-139242800D02*
X77241400Y-139242800D01*
X75115000Y-140919200D02*
X76791400Y-139242800D01*
X75006200Y-140919200D02*
X75115000Y-140919200D01*
X75577000Y-142849600D02*
X75577000Y-141490000D01*
X75577000Y-141490000D02*
X75006200Y-140919200D01*
X69570600Y-139185600D02*
X69570600Y-136802600D01*
X68554600Y-135786600D02*
X68554600Y-135761600D01*
X69570600Y-136802600D02*
X68554600Y-135786600D01*
X75615800Y-144576800D02*
X74961800Y-144576800D01*
X74961800Y-144576800D02*
X69570600Y-139185600D01*
X70003540Y-133802120D02*
X70003540Y-132125020D01*
X70003540Y-132125020D02*
X69991540Y-132113020D01*
X68554600Y-135761600D02*
X68554600Y-135226060D01*
X68554600Y-135226060D02*
X69978540Y-133802120D01*
X69978540Y-133802120D02*
X70003540Y-133802120D01*
X57226200Y-146151600D02*
X59515000Y-146151600D01*
X59515000Y-146151600D02*
X59613800Y-146052800D01*
X62306200Y-146913600D02*
X60774600Y-146913600D01*
X60774600Y-146913600D02*
X59913800Y-146052800D01*
X59913800Y-146052800D02*
X59613800Y-146052800D01*
X74904600Y-132189220D02*
X76087820Y-132189220D01*
X76087820Y-132189220D02*
X76791400Y-132892800D01*
X76791400Y-132892800D02*
X77241400Y-132892800D01*
X73126600Y-132189220D02*
X71567740Y-132189220D01*
X74904600Y-132189220D02*
X73126600Y-132189220D01*
X73126600Y-132189220D02*
X73123800Y-132186420D01*
X73123800Y-132186420D02*
X73123800Y-129438400D01*
X71567740Y-132189220D02*
X71491540Y-132113020D01*
X71503540Y-133802120D02*
X74791700Y-133802120D01*
X74791700Y-133802120D02*
X74904600Y-133689220D01*
X77241400Y-134162800D02*
X75378180Y-134162800D01*
X75378180Y-134162800D02*
X74904600Y-133689220D01*
X52603400Y-145440400D02*
X52550600Y-145440400D01*
X52550600Y-145440400D02*
X51481000Y-146510000D01*
X51481000Y-146510000D02*
X51181000Y-146510000D01*
X52603400Y-144526000D02*
X52603400Y-145440400D01*
X53619400Y-143510000D02*
X52603400Y-144526000D01*
X54330600Y-143510000D02*
X53619400Y-143510000D01*
X54330600Y-143660400D02*
X54330600Y-143510000D01*
X57226200Y-144651600D02*
X57226200Y-144626600D01*
X57226200Y-144626600D02*
X56109600Y-143510000D01*
X56109600Y-143510000D02*
X54330600Y-143510000D01*
X57226200Y-144651600D02*
X60864200Y-144651600D01*
X60864200Y-144651600D02*
X61856200Y-145643600D01*
X61856200Y-145643600D02*
X62306200Y-145643600D01*
X76123800Y-129438400D02*
X78179800Y-129438400D01*
X78179800Y-129438400D02*
X78230600Y-129387600D01*
X56311800Y-156464000D02*
X55557800Y-156464000D01*
X55557800Y-156464000D02*
X53924200Y-154830400D01*
X53924200Y-154361200D02*
X53924200Y-152857200D01*
X53924200Y-154830400D02*
X53924200Y-154361200D01*
X53924200Y-152857200D02*
X53924200Y-150266400D01*
X53924200Y-150266400D02*
X53924200Y-146916400D01*
X55573800Y-150266400D02*
X54919800Y-150266400D01*
X54919800Y-150266400D02*
X53924200Y-150266400D01*
X53924200Y-146916400D02*
X54330600Y-146510000D01*
X57531299Y-151943099D02*
X56924200Y-152550198D01*
X56924200Y-152550198D02*
X56924200Y-152857200D01*
X60083891Y-151943099D02*
X57531299Y-151943099D01*
X62306200Y-151993600D02*
X60134392Y-151993600D01*
X60134392Y-151993600D02*
X60083891Y-151943099D01*
X86578440Y-133637720D02*
X84863240Y-133637720D01*
X84863240Y-133637720D02*
X84813140Y-133687820D01*
X82641400Y-134162800D02*
X84338160Y-134162800D01*
X84338160Y-134162800D02*
X84813140Y-133687820D01*
X80645000Y-129648000D02*
X80645000Y-132616400D01*
X80645000Y-132616400D02*
X82191400Y-134162800D01*
X82191400Y-134162800D02*
X82641400Y-134162800D01*
X79730600Y-129387600D02*
X80384600Y-129387600D01*
X80384600Y-129387600D02*
X80645000Y-129648000D01*
X60083891Y-153555509D02*
X59311800Y-154327600D01*
X59311800Y-154327600D02*
X59311800Y-156464000D01*
X60083891Y-153443099D02*
X60083891Y-153555509D01*
X60083891Y-153443099D02*
X62126701Y-153443099D01*
X62126701Y-153443099D02*
X62306200Y-153263600D01*
X64362200Y-158242000D02*
X64362200Y-154869600D01*
X64362200Y-154869600D02*
X62756200Y-153263600D01*
X62756200Y-153263600D02*
X62306200Y-153263600D01*
X67362200Y-158242000D02*
X67362200Y-156081600D01*
X67362200Y-156081600D02*
X67691000Y-155752800D01*
X69364600Y-158191200D02*
X67413000Y-158191200D01*
X67413000Y-158191200D02*
X67362200Y-158242000D01*
X67691000Y-155752800D02*
X69367400Y-155752800D01*
X69367400Y-155752800D02*
X70153400Y-155752800D01*
X69364600Y-158191200D02*
X69364600Y-156111200D01*
X69364600Y-156111200D02*
X69367400Y-156108400D01*
X69367400Y-156108400D02*
X69367400Y-155752800D01*
X70153400Y-155752800D02*
X70180200Y-155779600D01*
X91687400Y-151638000D02*
X91687400Y-149969600D01*
X91687400Y-149969600D02*
X92227400Y-149429600D01*
X92227400Y-149429600D02*
X89714200Y-149429600D01*
X89714200Y-149429600D02*
X89687400Y-149402800D01*
X86893400Y-149910800D02*
X87401400Y-149402800D01*
X87401400Y-149402800D02*
X89687400Y-149402800D01*
X86893400Y-151397710D02*
X86893400Y-149910800D01*
X85633564Y-152207546D02*
X86083564Y-152207546D01*
X86083564Y-152207546D02*
X86893400Y-151397710D01*
X89812400Y-149841200D02*
X89687400Y-149841200D01*
X90679400Y-146429600D02*
X90679400Y-146535800D01*
X90679400Y-146535800D02*
X89812400Y-147402800D01*
X92227400Y-146429600D02*
X90679400Y-146429600D01*
X80233564Y-157287546D02*
X77941854Y-157287546D01*
X77941854Y-157287546D02*
X77749400Y-157480000D01*
X81915000Y-169875200D02*
X81915000Y-158518982D01*
X81915000Y-158518982D02*
X80683564Y-157287546D01*
X80683564Y-157287546D02*
X80233564Y-157287546D01*
X71921400Y-153466800D02*
X71943992Y-153466800D01*
X71943992Y-153466800D02*
X72452291Y-153975099D01*
X70180200Y-152779600D02*
X71234200Y-152779600D01*
X71234200Y-152779600D02*
X71921400Y-153466800D01*
X67706200Y-151993600D02*
X69094200Y-151993600D01*
X69094200Y-151993600D02*
X69880200Y-152779600D01*
X69880200Y-152779600D02*
X70180200Y-152779600D01*
X74268200Y-156921200D02*
X73634600Y-156921200D01*
X73634600Y-156921200D02*
X72364600Y-158191200D01*
X73952291Y-153975099D02*
X73952291Y-154736800D01*
X73952291Y-154736800D02*
X73952291Y-156605291D01*
X67706200Y-153263600D02*
X67706200Y-153817600D01*
X67706200Y-153817600D02*
X68625400Y-154736800D01*
X68625400Y-154736800D02*
X73952291Y-154736800D01*
X73952291Y-156605291D02*
X74268200Y-156921200D01*
X81284165Y-155438145D02*
X86283800Y-155438145D01*
X86283800Y-155438145D02*
X86700055Y-155438145D01*
X87757000Y-154154000D02*
X87757000Y-154808000D01*
X87757000Y-154808000D02*
X87126855Y-155438145D01*
X87126855Y-155438145D02*
X86283800Y-155438145D01*
X81274310Y-155448000D02*
X81284165Y-155438145D01*
X81264455Y-155438145D02*
X81274310Y-155448000D01*
X78663800Y-154889200D02*
X79212745Y-155438145D01*
X79212745Y-155438145D02*
X81264455Y-155438145D01*
X76987400Y-154889200D02*
X78663800Y-154889200D01*
X76682600Y-155194000D02*
X76987400Y-154889200D01*
X76682600Y-155549600D02*
X76682600Y-155346400D01*
X76682600Y-158699200D02*
X76682600Y-155549600D01*
X76682600Y-155549600D02*
X76682600Y-155194000D01*
X79222600Y-161239200D02*
X76682600Y-158699200D01*
X79222600Y-164592000D02*
X79222600Y-161239200D01*
X91705600Y-155827046D02*
X91680600Y-155827046D01*
X91680600Y-155827046D02*
X91655600Y-155827046D01*
X91655600Y-155827046D02*
X89701754Y-153873200D01*
X89701754Y-153873200D02*
X89687400Y-153873200D01*
X89687400Y-153873200D02*
X89687400Y-151638000D01*
X87757000Y-154154000D02*
X89406600Y-154154000D01*
X89406600Y-154154000D02*
X89687400Y-153873200D01*
X86091346Y-153477546D02*
X86767800Y-154154000D01*
X86767800Y-154154000D02*
X87757000Y-154154000D01*
X85633564Y-153477546D02*
X86091346Y-153477546D01*
X85654179Y-144351949D02*
X87343979Y-144351949D01*
X87343979Y-144351949D02*
X87406779Y-144414749D01*
X78257400Y-148132800D02*
X81975451Y-144414749D01*
X81975451Y-144414749D02*
X87406779Y-144414749D01*
X78257400Y-152317800D02*
X78257400Y-148132800D01*
X75971400Y-153974800D02*
X76600400Y-153974800D01*
X76600400Y-153974800D02*
X78257400Y-152317800D01*
X75768200Y-156921200D02*
X75768200Y-154178000D01*
X75768200Y-154178000D02*
X75971400Y-153974800D01*
X85654179Y-142851949D02*
X83734149Y-142851949D01*
X83734149Y-142851949D02*
X83731800Y-142849600D01*
X82641400Y-140512800D02*
X83091400Y-140512800D01*
X83091400Y-140512800D02*
X83530820Y-140952220D01*
X83530820Y-140952220D02*
X84133340Y-140952220D01*
X83731800Y-142849600D02*
X83731800Y-141274800D01*
X83731800Y-141274800D02*
X83731800Y-141153200D01*
X84762340Y-140952220D02*
X84133340Y-140952220D01*
X84133340Y-140952220D02*
X83810760Y-141274800D01*
X83810760Y-141274800D02*
X83731800Y-141274800D01*
X83731800Y-141153200D02*
X83091400Y-140512800D01*
X87406779Y-142914749D02*
X87406779Y-141630400D01*
X87406779Y-141630400D02*
X87406779Y-141467659D01*
X84762340Y-139452220D02*
X86594820Y-139452220D01*
X86594820Y-139452220D02*
X87406779Y-140264179D01*
X87406779Y-140264179D02*
X87406779Y-141630400D01*
X82641400Y-139242800D02*
X84552920Y-139242800D01*
X84552920Y-139242800D02*
X84762340Y-139452220D01*
X43737400Y-131470400D02*
X39598600Y-131470400D01*
X39598600Y-131470400D02*
X38735000Y-132334000D01*
X91690320Y-159522160D02*
X91690320Y-157577102D01*
X91690320Y-157577102D02*
X91680164Y-157566946D01*
X93180600Y-155827046D02*
X93180600Y-156066510D01*
X93180600Y-156066510D02*
X91680164Y-157566946D01*
X91690320Y-162233480D02*
X86995000Y-166928800D01*
X86995000Y-166928800D02*
X86995000Y-169875200D01*
X91690320Y-159522160D02*
X91690320Y-162233480D01*
X93180600Y-155827046D02*
X93205600Y-155827046D01*
X93205600Y-155827046D02*
X95580200Y-153452446D01*
X95580200Y-153452446D02*
X95580200Y-150261200D01*
X95580200Y-150261200D02*
X95580200Y-149507200D01*
X80233564Y-156017546D02*
X77786946Y-156017546D01*
X77786946Y-156017546D02*
X77749400Y-155980000D01*
X83235800Y-166471600D02*
X84455000Y-167690800D01*
X84455000Y-167690800D02*
X84455000Y-169875200D01*
X83235800Y-159512000D02*
X83235800Y-166471600D01*
X80233564Y-156017546D02*
X81237564Y-156017546D01*
X81237564Y-156017546D02*
X83235800Y-158015782D01*
X83235800Y-158015782D02*
X83235800Y-158883000D01*
X83235800Y-158883000D02*
X83235800Y-159512000D01*
X94399800Y-129540000D02*
X94399800Y-127418400D01*
X94399800Y-127418400D02*
X94411800Y-127406400D01*
X67706200Y-146913600D02*
X67706200Y-145643600D01*
X67706200Y-145643600D02*
X67706200Y-142339590D01*
X67706200Y-142339590D02*
X67754691Y-142291099D01*
X85633564Y-156017546D02*
X87794546Y-156017546D01*
X87794546Y-156017546D02*
X87807800Y-156030800D01*
X87807800Y-156030800D02*
X89273018Y-156030800D01*
X89273018Y-156030800D02*
X90180164Y-156937946D01*
X90180164Y-156937946D02*
X90180164Y-157566946D01*
X85633564Y-157287546D02*
X85633564Y-158639236D01*
X85633564Y-158639236D02*
X84760800Y-159512000D01*
X84760800Y-159512000D02*
X84735800Y-159512000D01*
X85633564Y-157287546D02*
X87564546Y-157287546D01*
X87564546Y-157287546D02*
X87807800Y-157530800D01*
X79273400Y-166089200D02*
X69953000Y-166089200D01*
X69953000Y-166089200D02*
X66675000Y-169367200D01*
X66675000Y-169367200D02*
X66675000Y-169875200D01*
X46812200Y-156464000D02*
X46812200Y-159816800D01*
X46812200Y-159816800D02*
X46812200Y-161036000D01*
X47980600Y-159816800D02*
X47196600Y-159816800D01*
X47196600Y-159816800D02*
X46812200Y-159816800D01*
X47117000Y-156159200D02*
X46812200Y-156464000D01*
X46812200Y-161036000D02*
X46609000Y-161239200D01*
X46609000Y-161239200D02*
X38735000Y-161239200D01*
X48082200Y-152095200D02*
X48082200Y-155219000D01*
X48082200Y-155219000D02*
X47142000Y-156159200D01*
X47142000Y-156159200D02*
X47117000Y-156159200D01*
X47980600Y-159816800D02*
X47828200Y-159816800D01*
D30*
X75920600Y-136753600D02*
X75344020Y-136753600D01*
X75344020Y-136753600D02*
X75072240Y-136481820D01*
X75748800Y-137992200D02*
X75260200Y-138480800D01*
X75748800Y-137363200D02*
X75748800Y-137992200D01*
X75006200Y-138988800D02*
X75006200Y-138105800D01*
X75006200Y-138105800D02*
X75748800Y-137363200D01*
X75006200Y-138988800D02*
X75006200Y-137668000D01*
X75006200Y-137668000D02*
X75920600Y-136753600D01*
X75006200Y-138988800D02*
X75006200Y-136547860D01*
X75006200Y-136547860D02*
X75072240Y-136481820D01*
D28*
X75031200Y-138988800D02*
X75945600Y-138074400D01*
X75920600Y-138049400D02*
X75945600Y-138074400D01*
X75945600Y-138074400D02*
X76047200Y-137972800D01*
X75920600Y-137656000D02*
X75920600Y-138049400D01*
X75006200Y-138988800D02*
X75031200Y-138988800D01*
X76047200Y-137972800D02*
X76237400Y-137972800D01*
X76237400Y-137972800D02*
X77241400Y-137972800D01*
X61899800Y-137261600D02*
X63480325Y-137261600D01*
X63480325Y-137261600D02*
X65455800Y-139237075D01*
X65455800Y-139237075D02*
X65455800Y-139344400D01*
X60426600Y-150266400D02*
X60883800Y-150723600D01*
X60883800Y-150723600D02*
X62306200Y-150723600D01*
X57073800Y-150266400D02*
X60426600Y-150266400D01*
X72682291Y-151943099D02*
X75439699Y-151943099D01*
X75439699Y-151943099D02*
X75971400Y-152474800D01*
X75971400Y-152474800D02*
X75615800Y-152474800D01*
X72568099Y-151943099D02*
X71348600Y-150723600D01*
X71348600Y-150723600D02*
X67706200Y-150723600D01*
X72682291Y-151943099D02*
X72568099Y-151943099D01*
X65455800Y-150723600D02*
X65455800Y-155042600D01*
X65455800Y-155042600D02*
X66166000Y-155752800D01*
X66166000Y-155752800D02*
X66191000Y-155752800D01*
X65455800Y-142291099D02*
X65455800Y-148183600D01*
X65455800Y-148183600D02*
X65455800Y-150723600D01*
X62306200Y-148183600D02*
X65455800Y-148183600D01*
X62306200Y-150723600D02*
X65455800Y-150723600D01*
X65455800Y-150723600D02*
X67706200Y-150723600D01*
X65455800Y-139344400D02*
X65455800Y-142291099D01*
X64525583Y-142291099D02*
X65455800Y-142291099D01*
X65455800Y-142291099D02*
X66254691Y-142291099D01*
X66319400Y-138480800D02*
X65455800Y-139344400D01*
X68554600Y-138480800D02*
X66319400Y-138480800D01*
X82641400Y-137972800D02*
X77241400Y-137972800D01*
X82641400Y-135432800D02*
X77241400Y-135432800D01*
X76237400Y-137972800D02*
X75920600Y-137656000D01*
X75920600Y-137656000D02*
X75920600Y-137238533D01*
X75920600Y-137238533D02*
X75920600Y-136753600D01*
X77241400Y-135432800D02*
X76237400Y-135432800D01*
X76237400Y-135432800D02*
X75920600Y-135749600D01*
X75920600Y-135749600D02*
X75920600Y-136753600D01*
X68554600Y-137261600D02*
X68554600Y-138480800D01*
X92837000Y-140868400D02*
X95580200Y-143611600D01*
X95580200Y-143611600D02*
X95580200Y-146507200D01*
X92837000Y-135636000D02*
X92837000Y-140868400D01*
X89338720Y-132137720D02*
X92837000Y-135636000D01*
X86578440Y-132137720D02*
X89338720Y-132137720D01*
X86578440Y-132137720D02*
X84863240Y-132137720D01*
X84863240Y-132137720D02*
X84813140Y-132187820D01*
X84813140Y-132187820D02*
X83796380Y-132187820D01*
X83796380Y-132187820D02*
X83091400Y-132892800D01*
X83091400Y-132892800D02*
X82641400Y-132892800D01*
X92911800Y-127406400D02*
X92911800Y-124992000D01*
X76708000Y-122275600D02*
X76708000Y-121767600D01*
X92911800Y-124992000D02*
X92430600Y-124510800D01*
X92430600Y-124510800D02*
X78943200Y-124510800D01*
X78943200Y-124510800D02*
X76708000Y-122275600D01*
X55397400Y-167233600D02*
X55397400Y-167262600D01*
X53895200Y-168764800D02*
X53895200Y-169214800D01*
X55397400Y-167262600D02*
X53895200Y-168764800D01*
X62001400Y-167233600D02*
X55397400Y-167233600D01*
X64135000Y-169875200D02*
X64135000Y-169367200D01*
X64135000Y-169367200D02*
X62001400Y-167233600D01*
X83032600Y-151384000D02*
X83479054Y-150937546D01*
X83479054Y-150937546D02*
X85633564Y-150937546D01*
X83032600Y-154747546D02*
X85633564Y-154747546D01*
X80233564Y-154747546D02*
X83032600Y-154747546D01*
X83032600Y-154747546D02*
X83032600Y-151384000D01*
X85633564Y-149667546D02*
X85633564Y-150937546D01*
G36*
X44471955Y-120354611D02*
X44132887Y-121171178D01*
X44132115Y-122055343D01*
X44469758Y-122872500D01*
X45094411Y-123498245D01*
X45910978Y-123837313D01*
X46795143Y-123838085D01*
X47612300Y-123500442D01*
X48238045Y-122875789D01*
X48520818Y-122194796D01*
X48620340Y-122695130D01*
X48923172Y-123148349D01*
X49376391Y-123451181D01*
X49911000Y-123557521D01*
X50445609Y-123451181D01*
X50898828Y-123148349D01*
X51181000Y-122726050D01*
X51463172Y-123148349D01*
X51916391Y-123451181D01*
X52451000Y-123557521D01*
X52985609Y-123451181D01*
X53438828Y-123148349D01*
X53721000Y-122726050D01*
X54003172Y-123148349D01*
X54456391Y-123451181D01*
X54991000Y-123557521D01*
X55525609Y-123451181D01*
X55978828Y-123148349D01*
X56270330Y-122712087D01*
X56288941Y-122775141D01*
X56632974Y-123200830D01*
X57113723Y-123462460D01*
X57187930Y-123477420D01*
X57404000Y-123354920D01*
X57404000Y-121742200D01*
X57384000Y-121742200D01*
X57384000Y-121488200D01*
X57404000Y-121488200D01*
X57404000Y-121468200D01*
X57658000Y-121468200D01*
X57658000Y-121488200D01*
X57678000Y-121488200D01*
X57678000Y-121742200D01*
X57658000Y-121742200D01*
X57658000Y-123354920D01*
X57874070Y-123477420D01*
X57948277Y-123462460D01*
X58429026Y-123200830D01*
X58773059Y-122775141D01*
X58791670Y-122712087D01*
X59083172Y-123148349D01*
X59536391Y-123451181D01*
X60071000Y-123557521D01*
X60605609Y-123451181D01*
X61058828Y-123148349D01*
X61341000Y-122726050D01*
X61623172Y-123148349D01*
X62076391Y-123451181D01*
X62611000Y-123557521D01*
X63145609Y-123451181D01*
X63598828Y-123148349D01*
X63881000Y-122726050D01*
X64163172Y-123148349D01*
X64616391Y-123451181D01*
X65151000Y-123557521D01*
X65685609Y-123451181D01*
X66138828Y-123148349D01*
X66421000Y-122726050D01*
X66703172Y-123148349D01*
X67156391Y-123451181D01*
X67691000Y-123557521D01*
X68225609Y-123451181D01*
X68678828Y-123148349D01*
X68961000Y-122726050D01*
X69243172Y-123148349D01*
X69696391Y-123451181D01*
X70231000Y-123557521D01*
X70765609Y-123451181D01*
X71218828Y-123148349D01*
X71501000Y-122726050D01*
X71783172Y-123148349D01*
X72236391Y-123451181D01*
X72771000Y-123557521D01*
X73305609Y-123451181D01*
X73758828Y-123148349D01*
X74061660Y-122695130D01*
X74168000Y-122160521D01*
X74168000Y-121069879D01*
X74061660Y-120535270D01*
X73758828Y-120082051D01*
X73392383Y-119837200D01*
X76213617Y-119837200D01*
X75847172Y-120082051D01*
X75544340Y-120535270D01*
X75438000Y-121069879D01*
X75438000Y-122160521D01*
X75544340Y-122695130D01*
X75847172Y-123148349D01*
X76300391Y-123451181D01*
X76835000Y-123557521D01*
X76899468Y-123544698D01*
X78404385Y-125049615D01*
X78651595Y-125214796D01*
X78943200Y-125272800D01*
X92114970Y-125272800D01*
X92149800Y-125307631D01*
X92149800Y-126509756D01*
X92060359Y-126567310D01*
X91915369Y-126779510D01*
X91864360Y-127031400D01*
X91864360Y-127781400D01*
X91908638Y-128016717D01*
X92047710Y-128232841D01*
X92259910Y-128377831D01*
X92511800Y-128428840D01*
X93311800Y-128428840D01*
X93547117Y-128384562D01*
X93637800Y-128326209D01*
X93637800Y-128617685D01*
X93426109Y-128530000D01*
X93185550Y-128530000D01*
X93026800Y-128688750D01*
X93026800Y-129413000D01*
X93046800Y-129413000D01*
X93046800Y-129667000D01*
X93026800Y-129667000D01*
X93026800Y-130391250D01*
X93185550Y-130550000D01*
X93426109Y-130550000D01*
X93659498Y-130453327D01*
X93660868Y-130451957D01*
X93747910Y-130511431D01*
X93999800Y-130562440D01*
X94799800Y-130562440D01*
X95035117Y-130518162D01*
X95251241Y-130379090D01*
X95396231Y-130166890D01*
X95447240Y-129915000D01*
X95447240Y-129165000D01*
X95402962Y-128929683D01*
X95263890Y-128713559D01*
X95161800Y-128643804D01*
X95161800Y-128310766D01*
X95263241Y-128245490D01*
X95408231Y-128033290D01*
X95459240Y-127781400D01*
X95459240Y-127031400D01*
X95414962Y-126796083D01*
X95275890Y-126579959D01*
X95063690Y-126434969D01*
X94811800Y-126383960D01*
X94011800Y-126383960D01*
X93776483Y-126428238D01*
X93673800Y-126494313D01*
X93673800Y-124992000D01*
X93615797Y-124700396D01*
X93450616Y-124453185D01*
X92969415Y-123971985D01*
X92722205Y-123806804D01*
X92430600Y-123748800D01*
X79258830Y-123748800D01*
X78991211Y-123481181D01*
X79375000Y-123557521D01*
X79909609Y-123451181D01*
X80362828Y-123148349D01*
X80645000Y-122726050D01*
X80927172Y-123148349D01*
X81380391Y-123451181D01*
X81915000Y-123557521D01*
X82449609Y-123451181D01*
X82902828Y-123148349D01*
X83185000Y-122726050D01*
X83467172Y-123148349D01*
X83920391Y-123451181D01*
X84455000Y-123557521D01*
X84989609Y-123451181D01*
X85442828Y-123148349D01*
X85725000Y-122726050D01*
X86007172Y-123148349D01*
X86460391Y-123451181D01*
X86995000Y-123557521D01*
X87529609Y-123451181D01*
X87982828Y-123148349D01*
X88265000Y-122726050D01*
X88547172Y-123148349D01*
X89000391Y-123451181D01*
X89535000Y-123557521D01*
X90069609Y-123451181D01*
X90522828Y-123148349D01*
X90805000Y-122726050D01*
X91087172Y-123148349D01*
X91540391Y-123451181D01*
X92075000Y-123557521D01*
X92609609Y-123451181D01*
X93062828Y-123148349D01*
X93345000Y-122726050D01*
X93627172Y-123148349D01*
X94080391Y-123451181D01*
X94615000Y-123557521D01*
X95149609Y-123451181D01*
X95602828Y-123148349D01*
X95905660Y-122695130D01*
X96012000Y-122160521D01*
X96012000Y-121069879D01*
X95905660Y-120535270D01*
X95602828Y-120082051D01*
X95236383Y-119837200D01*
X95641212Y-119837200D01*
X96494600Y-120690589D01*
X96494600Y-131826000D01*
X96548737Y-132098165D01*
X96702906Y-132328894D01*
X101320600Y-136946589D01*
X101320600Y-166010625D01*
X96783917Y-169353444D01*
X96747651Y-169393208D01*
X96702906Y-169423106D01*
X96655014Y-169494782D01*
X96596924Y-169558475D01*
X96578636Y-169609088D01*
X96548737Y-169653836D01*
X96531919Y-169738386D01*
X96502626Y-169819458D01*
X96505099Y-169873216D01*
X96494600Y-169926000D01*
X96494600Y-171754800D01*
X94930321Y-171754800D01*
X95149609Y-171711181D01*
X95602828Y-171408349D01*
X95905660Y-170955130D01*
X96012000Y-170420521D01*
X96012000Y-169329879D01*
X95905660Y-168795270D01*
X95602828Y-168342051D01*
X95149609Y-168039219D01*
X94615000Y-167932879D01*
X94080391Y-168039219D01*
X93627172Y-168342051D01*
X93345000Y-168764350D01*
X93062828Y-168342051D01*
X92609609Y-168039219D01*
X92075000Y-167932879D01*
X91540391Y-168039219D01*
X91087172Y-168342051D01*
X90805000Y-168764350D01*
X90522828Y-168342051D01*
X90069609Y-168039219D01*
X89535000Y-167932879D01*
X89000391Y-168039219D01*
X88547172Y-168342051D01*
X88265000Y-168764350D01*
X87982828Y-168342051D01*
X87757000Y-168191157D01*
X87757000Y-167244430D01*
X89766087Y-165235343D01*
X94932115Y-165235343D01*
X95269758Y-166052500D01*
X95894411Y-166678245D01*
X96710978Y-167017313D01*
X97595143Y-167018085D01*
X98412300Y-166680442D01*
X99038045Y-166055789D01*
X99377113Y-165239222D01*
X99377885Y-164355057D01*
X99040242Y-163537900D01*
X98415589Y-162912155D01*
X97599022Y-162573087D01*
X96714857Y-162572315D01*
X95897700Y-162909958D01*
X95271955Y-163534611D01*
X94932887Y-164351178D01*
X94932115Y-165235343D01*
X89766087Y-165235343D01*
X92229135Y-162772296D01*
X92394316Y-162525085D01*
X92401192Y-162490517D01*
X92452320Y-162233480D01*
X92452320Y-160418804D01*
X92541761Y-160361250D01*
X92686751Y-160149050D01*
X92737760Y-159897160D01*
X92737760Y-159147160D01*
X92693482Y-158911843D01*
X92554410Y-158695719D01*
X92452320Y-158625964D01*
X92452320Y-158457055D01*
X92531605Y-158406036D01*
X92676595Y-158193836D01*
X92727604Y-157941946D01*
X92727604Y-157597136D01*
X93475254Y-156849486D01*
X93580600Y-156849486D01*
X93815917Y-156805208D01*
X94032041Y-156666136D01*
X94177031Y-156453936D01*
X94228040Y-156202046D01*
X94228040Y-155882236D01*
X96119016Y-153991261D01*
X96284197Y-153744050D01*
X96342200Y-153452446D01*
X96342200Y-150654640D01*
X96830200Y-150654640D01*
X97065517Y-150610362D01*
X97281641Y-150471290D01*
X97426631Y-150259090D01*
X97477640Y-150007200D01*
X97477640Y-149007200D01*
X97433362Y-148771883D01*
X97294290Y-148555759D01*
X97082090Y-148410769D01*
X96830200Y-148359760D01*
X94330200Y-148359760D01*
X94094883Y-148404038D01*
X93878759Y-148543110D01*
X93733769Y-148755310D01*
X93682760Y-149007200D01*
X93682760Y-150007200D01*
X93727038Y-150242517D01*
X93866110Y-150458641D01*
X94078310Y-150603631D01*
X94330200Y-150654640D01*
X94818200Y-150654640D01*
X94818200Y-153136815D01*
X93150410Y-154804606D01*
X92780600Y-154804606D01*
X92745029Y-154811299D01*
X92822400Y-154624510D01*
X92822400Y-154158950D01*
X92663650Y-154000200D01*
X91814400Y-154000200D01*
X91814400Y-154020200D01*
X91560400Y-154020200D01*
X91560400Y-154000200D01*
X91540400Y-154000200D01*
X91540400Y-153746200D01*
X91560400Y-153746200D01*
X91560400Y-153726200D01*
X91814400Y-153726200D01*
X91814400Y-153746200D01*
X92663650Y-153746200D01*
X92822400Y-153587450D01*
X92822400Y-153121890D01*
X92725727Y-152888501D01*
X92593495Y-152756270D01*
X92638841Y-152727090D01*
X92783831Y-152514890D01*
X92834840Y-152263000D01*
X92834840Y-151013000D01*
X92790562Y-150777683D01*
X92661452Y-150577040D01*
X93027400Y-150577040D01*
X93262717Y-150532762D01*
X93478841Y-150393690D01*
X93623831Y-150181490D01*
X93674840Y-149929600D01*
X93674840Y-148929600D01*
X93630562Y-148694283D01*
X93491490Y-148478159D01*
X93279290Y-148333169D01*
X93027400Y-148282160D01*
X91427400Y-148282160D01*
X91192083Y-148326438D01*
X90975959Y-148465510D01*
X90877923Y-148608990D01*
X90776490Y-148451359D01*
X90706689Y-148403666D01*
X90763841Y-148366890D01*
X90908831Y-148154690D01*
X90959840Y-147902800D01*
X90959840Y-147375648D01*
X90963310Y-147381041D01*
X91175510Y-147526031D01*
X91427400Y-147577040D01*
X93027400Y-147577040D01*
X93262717Y-147532762D01*
X93478841Y-147393690D01*
X93623831Y-147181490D01*
X93674840Y-146929600D01*
X93674840Y-145929600D01*
X93630562Y-145694283D01*
X93491490Y-145478159D01*
X93279290Y-145333169D01*
X93027400Y-145282160D01*
X91427400Y-145282160D01*
X91192083Y-145326438D01*
X90975959Y-145465510D01*
X90837877Y-145667600D01*
X90679400Y-145667600D01*
X90387795Y-145725604D01*
X90140585Y-145890785D01*
X89975404Y-146137995D01*
X89969402Y-146168168D01*
X89882210Y-146255360D01*
X89062400Y-146255360D01*
X88827083Y-146299638D01*
X88610959Y-146438710D01*
X88465969Y-146650910D01*
X88414960Y-146902800D01*
X88414960Y-147902800D01*
X88459238Y-148138117D01*
X88598310Y-148354241D01*
X88668111Y-148401934D01*
X88610959Y-148438710D01*
X88472877Y-148640800D01*
X87401400Y-148640800D01*
X87146012Y-148691600D01*
X87109795Y-148698804D01*
X86862584Y-148863985D01*
X86825560Y-148901009D01*
X86635454Y-148771115D01*
X86383564Y-148720106D01*
X86113724Y-148720106D01*
X89261015Y-145572815D01*
X89426196Y-145325605D01*
X89431108Y-145300910D01*
X89484200Y-145034000D01*
X89484200Y-140419680D01*
X89426196Y-140128075D01*
X89348129Y-140011240D01*
X89261016Y-139880865D01*
X86434155Y-137054005D01*
X86387744Y-137022994D01*
X86259520Y-136937317D01*
X86244502Y-136857503D01*
X86105430Y-136641379D01*
X86037334Y-136594851D01*
X86179667Y-136452518D01*
X86276340Y-136219129D01*
X86276340Y-135878570D01*
X86117590Y-135719820D01*
X85143340Y-135719820D01*
X85143340Y-135739820D01*
X84889340Y-135739820D01*
X84889340Y-135719820D01*
X84869340Y-135719820D01*
X84869340Y-135465820D01*
X84889340Y-135465820D01*
X84889340Y-135445820D01*
X85143340Y-135445820D01*
X85143340Y-135465820D01*
X86117590Y-135465820D01*
X86276340Y-135307070D01*
X86276340Y-134966511D01*
X86179667Y-134733122D01*
X86113490Y-134666945D01*
X86203440Y-134685160D01*
X86953440Y-134685160D01*
X87188757Y-134640882D01*
X87404881Y-134501810D01*
X87549871Y-134289610D01*
X87600880Y-134037720D01*
X87600880Y-133237720D01*
X87556602Y-133002403D01*
X87490527Y-132899720D01*
X89023090Y-132899720D01*
X92075000Y-135951630D01*
X92075000Y-140868400D01*
X92133004Y-141160005D01*
X92298185Y-141407215D01*
X94818200Y-143927231D01*
X94818200Y-145359760D01*
X94330200Y-145359760D01*
X94094883Y-145404038D01*
X93878759Y-145543110D01*
X93733769Y-145755310D01*
X93682760Y-146007200D01*
X93682760Y-147007200D01*
X93727038Y-147242517D01*
X93866110Y-147458641D01*
X94078310Y-147603631D01*
X94330200Y-147654640D01*
X96830200Y-147654640D01*
X97065517Y-147610362D01*
X97281641Y-147471290D01*
X97426631Y-147259090D01*
X97477640Y-147007200D01*
X97477640Y-146007200D01*
X97433362Y-145771883D01*
X97294290Y-145555759D01*
X97082090Y-145410769D01*
X96830200Y-145359760D01*
X96342200Y-145359760D01*
X96342200Y-143611600D01*
X96284196Y-143319995D01*
X96218034Y-143220977D01*
X96119016Y-143072785D01*
X93599000Y-140552770D01*
X93599000Y-137295343D01*
X94932115Y-137295343D01*
X95269758Y-138112500D01*
X95894411Y-138738245D01*
X96710978Y-139077313D01*
X97595143Y-139078085D01*
X98412300Y-138740442D01*
X99038045Y-138115789D01*
X99377113Y-137299222D01*
X99377885Y-136415057D01*
X99040242Y-135597900D01*
X98415589Y-134972155D01*
X97599022Y-134633087D01*
X96714857Y-134632315D01*
X95897700Y-134969958D01*
X95271955Y-135594611D01*
X94932887Y-136411178D01*
X94932115Y-137295343D01*
X93599000Y-137295343D01*
X93599000Y-135636000D01*
X93540996Y-135344395D01*
X93375815Y-135097185D01*
X89877535Y-131598905D01*
X89810083Y-131553835D01*
X89630325Y-131433724D01*
X89338720Y-131375720D01*
X87475084Y-131375720D01*
X87417530Y-131286279D01*
X87205330Y-131141289D01*
X86953440Y-131090280D01*
X86203440Y-131090280D01*
X85968123Y-131134558D01*
X85751999Y-131273630D01*
X85682244Y-131375720D01*
X85677545Y-131375720D01*
X85652230Y-131336379D01*
X85440030Y-131191389D01*
X85188140Y-131140380D01*
X84438140Y-131140380D01*
X84202823Y-131184658D01*
X83986699Y-131323730D01*
X83916944Y-131425820D01*
X83796380Y-131425820D01*
X83511813Y-131482424D01*
X83504775Y-131483824D01*
X83257564Y-131649005D01*
X82961209Y-131945360D01*
X81891400Y-131945360D01*
X81656083Y-131989638D01*
X81439959Y-132128710D01*
X81407000Y-132176947D01*
X81407000Y-129825750D01*
X91864800Y-129825750D01*
X91864800Y-130041310D01*
X91961473Y-130274699D01*
X92140102Y-130453327D01*
X92373491Y-130550000D01*
X92614050Y-130550000D01*
X92772800Y-130391250D01*
X92772800Y-129667000D01*
X92023550Y-129667000D01*
X91864800Y-129825750D01*
X81407000Y-129825750D01*
X81407000Y-129648000D01*
X81348996Y-129356395D01*
X81221110Y-129165000D01*
X81183815Y-129109184D01*
X81113321Y-129038690D01*
X91864800Y-129038690D01*
X91864800Y-129254250D01*
X92023550Y-129413000D01*
X92772800Y-129413000D01*
X92772800Y-128688750D01*
X92614050Y-128530000D01*
X92373491Y-128530000D01*
X92140102Y-128626673D01*
X91961473Y-128805301D01*
X91864800Y-129038690D01*
X81113321Y-129038690D01*
X80923415Y-128848785D01*
X80816405Y-128777283D01*
X80676205Y-128683604D01*
X80673081Y-128682983D01*
X80594690Y-128561159D01*
X80382490Y-128416169D01*
X80130600Y-128365160D01*
X79330600Y-128365160D01*
X79095283Y-128409438D01*
X78980622Y-128483220D01*
X78882490Y-128416169D01*
X78630600Y-128365160D01*
X77830600Y-128365160D01*
X77595283Y-128409438D01*
X77379159Y-128548510D01*
X77291776Y-128676400D01*
X77271240Y-128676400D01*
X77271240Y-128188400D01*
X77226962Y-127953083D01*
X77087890Y-127736959D01*
X76875690Y-127591969D01*
X76623800Y-127540960D01*
X75623800Y-127540960D01*
X75388483Y-127585238D01*
X75172359Y-127724310D01*
X75027369Y-127936510D01*
X74976360Y-128188400D01*
X74976360Y-130688400D01*
X75020638Y-130923717D01*
X75159710Y-131139841D01*
X75162548Y-131141780D01*
X74529600Y-131141780D01*
X74294283Y-131186058D01*
X74078159Y-131325130D01*
X74008404Y-131427220D01*
X73885800Y-131427220D01*
X73885800Y-131274392D01*
X74075241Y-131152490D01*
X74220231Y-130940290D01*
X74271240Y-130688400D01*
X74271240Y-128188400D01*
X74226962Y-127953083D01*
X74087890Y-127736959D01*
X73875690Y-127591969D01*
X73623800Y-127540960D01*
X72623800Y-127540960D01*
X72388483Y-127585238D01*
X72172359Y-127724310D01*
X72027369Y-127936510D01*
X71976360Y-128188400D01*
X71976360Y-130688400D01*
X72020638Y-130923717D01*
X72159710Y-131139841D01*
X72361800Y-131277923D01*
X72361800Y-131296167D01*
X72355630Y-131286579D01*
X72143430Y-131141589D01*
X71891540Y-131090580D01*
X71091540Y-131090580D01*
X70856223Y-131134858D01*
X70741562Y-131208640D01*
X70643430Y-131141589D01*
X70391540Y-131090580D01*
X69591540Y-131090580D01*
X69356223Y-131134858D01*
X69140099Y-131273930D01*
X68995109Y-131486130D01*
X68944100Y-131738020D01*
X68944100Y-132488020D01*
X68988378Y-132723337D01*
X69127450Y-132939461D01*
X69157169Y-132959767D01*
X69152099Y-132963030D01*
X69007109Y-133175230D01*
X68956100Y-133427120D01*
X68956100Y-133746929D01*
X68015785Y-134687245D01*
X67971657Y-134753287D01*
X67944283Y-134758438D01*
X67728159Y-134897510D01*
X67583169Y-135109710D01*
X67532160Y-135361600D01*
X67532160Y-136161600D01*
X67576438Y-136396917D01*
X67650220Y-136511578D01*
X67583169Y-136609710D01*
X67532160Y-136861600D01*
X67532160Y-137661600D01*
X67542923Y-137718800D01*
X66319400Y-137718800D01*
X66027795Y-137776804D01*
X65848034Y-137896917D01*
X65780585Y-137941985D01*
X65509463Y-138213107D01*
X64019140Y-136722785D01*
X63913203Y-136652000D01*
X63821123Y-136590474D01*
X63623450Y-136112068D01*
X63052338Y-135539959D01*
X62305763Y-135229954D01*
X61497384Y-135229248D01*
X60750268Y-135537950D01*
X60178159Y-136109062D01*
X59868154Y-136855637D01*
X59867448Y-137664016D01*
X60176150Y-138411132D01*
X60747262Y-138983241D01*
X61493837Y-139293246D01*
X62302216Y-139293952D01*
X63049332Y-138985250D01*
X63588308Y-138447213D01*
X64693800Y-139552706D01*
X64693800Y-139738100D01*
X64500137Y-139737931D01*
X64140588Y-139886493D01*
X64072963Y-139954000D01*
X60742231Y-139954000D01*
X53204686Y-132416456D01*
X53225350Y-132366691D01*
X53225848Y-131795813D01*
X53007843Y-131268200D01*
X52604523Y-130864176D01*
X52077291Y-130645250D01*
X51506413Y-130644752D01*
X51296683Y-130731411D01*
X51181000Y-130708400D01*
X46142957Y-130708400D01*
X46101490Y-130643959D01*
X45889290Y-130498969D01*
X45637400Y-130447960D01*
X44837400Y-130447960D01*
X44602083Y-130492238D01*
X44487422Y-130566020D01*
X44389290Y-130498969D01*
X44137400Y-130447960D01*
X43337400Y-130447960D01*
X43102083Y-130492238D01*
X42885959Y-130631310D01*
X42833286Y-130708400D01*
X39937860Y-130708400D01*
X39751000Y-130670560D01*
X37719000Y-130670560D01*
X37483683Y-130714838D01*
X37267559Y-130853910D01*
X37122569Y-131066110D01*
X37071560Y-131318000D01*
X37071560Y-133350000D01*
X37115838Y-133585317D01*
X37254910Y-133801441D01*
X37417948Y-133912840D01*
X37328615Y-134009182D01*
X37129025Y-134491056D01*
X37248164Y-134747000D01*
X38608000Y-134747000D01*
X38608000Y-134727000D01*
X38862000Y-134727000D01*
X38862000Y-134747000D01*
X40221836Y-134747000D01*
X40340975Y-134491056D01*
X40288028Y-134363223D01*
X50343635Y-134363223D01*
X50370822Y-134933454D01*
X50536736Y-135334005D01*
X50782855Y-135408139D01*
X51610995Y-134580000D01*
X50782855Y-133751861D01*
X50536736Y-133825995D01*
X50343635Y-134363223D01*
X40288028Y-134363223D01*
X40141385Y-134009182D01*
X40050903Y-133911602D01*
X40202441Y-133814090D01*
X40347431Y-133601890D01*
X40398440Y-133350000D01*
X40398440Y-132232400D01*
X42831843Y-132232400D01*
X42873310Y-132296841D01*
X43085510Y-132441831D01*
X43337400Y-132492840D01*
X44137400Y-132492840D01*
X44372717Y-132448562D01*
X44487378Y-132374780D01*
X44585510Y-132441831D01*
X44837400Y-132492840D01*
X45637400Y-132492840D01*
X45872717Y-132448562D01*
X46088841Y-132309490D01*
X46141514Y-132232400D01*
X50355467Y-132232400D01*
X50355352Y-132364187D01*
X50573357Y-132891800D01*
X50976677Y-133295824D01*
X51043144Y-133323423D01*
X51036595Y-133326136D01*
X50962461Y-133572255D01*
X51790600Y-134400395D01*
X51804742Y-134386252D01*
X51984348Y-134565858D01*
X51970205Y-134580000D01*
X52798345Y-135408139D01*
X53044464Y-135334005D01*
X53237565Y-134796777D01*
X53227944Y-134594974D01*
X59887784Y-141254815D01*
X60033561Y-141352220D01*
X60134995Y-141419996D01*
X60426600Y-141478000D01*
X62156383Y-141478000D01*
X62121469Y-141529099D01*
X60675501Y-141529099D01*
X60383896Y-141587103D01*
X60226885Y-141692015D01*
X60136686Y-141752284D01*
X59983610Y-141905360D01*
X58813800Y-141905360D01*
X58578483Y-141949638D01*
X58362359Y-142088710D01*
X58224277Y-142290800D01*
X57186231Y-142290800D01*
X56596615Y-141701185D01*
X56566080Y-141680782D01*
X56349405Y-141536004D01*
X56057800Y-141478000D01*
X51697000Y-141478000D01*
X51405395Y-141536004D01*
X51158184Y-141701185D01*
X50700988Y-142158382D01*
X50700985Y-142158384D01*
X50642185Y-142217185D01*
X50545048Y-142362560D01*
X50381000Y-142362560D01*
X50145683Y-142406838D01*
X49929559Y-142545910D01*
X49784569Y-142758110D01*
X49776329Y-142798800D01*
X49468192Y-142798800D01*
X49346290Y-142609359D01*
X49134090Y-142464369D01*
X48882200Y-142413360D01*
X47282200Y-142413360D01*
X47046883Y-142457638D01*
X46830759Y-142596710D01*
X46685769Y-142808910D01*
X46634760Y-143060800D01*
X46634760Y-144060800D01*
X46679038Y-144296117D01*
X46818110Y-144512241D01*
X47030310Y-144657231D01*
X47282200Y-144708240D01*
X48882200Y-144708240D01*
X49117517Y-144663962D01*
X49333641Y-144524890D01*
X49471723Y-144322800D01*
X49827697Y-144322800D01*
X49916910Y-144461441D01*
X50129110Y-144606431D01*
X50381000Y-144657440D01*
X51841400Y-144657440D01*
X51841400Y-145071970D01*
X51550810Y-145362560D01*
X50381000Y-145362560D01*
X50145683Y-145406838D01*
X49929559Y-145545910D01*
X49784569Y-145758110D01*
X49733560Y-146010000D01*
X49733560Y-147010000D01*
X49777838Y-147245317D01*
X49916910Y-147461441D01*
X50129110Y-147606431D01*
X50381000Y-147657440D01*
X51981000Y-147657440D01*
X52216317Y-147613162D01*
X52432441Y-147474090D01*
X52531427Y-147329219D01*
X52616510Y-147461441D01*
X52828710Y-147606431D01*
X53080600Y-147657440D01*
X53162200Y-147657440D01*
X53162200Y-151021208D01*
X52972759Y-151143110D01*
X52827769Y-151355310D01*
X52776760Y-151607200D01*
X52776760Y-154107200D01*
X52821038Y-154342517D01*
X52960110Y-154558641D01*
X53162200Y-154696723D01*
X53162200Y-154830400D01*
X53220204Y-155122005D01*
X53370418Y-155346815D01*
X53385385Y-155369215D01*
X55018984Y-157002815D01*
X55164360Y-157099952D01*
X55164360Y-157714000D01*
X55208638Y-157949317D01*
X55347710Y-158165441D01*
X55559910Y-158310431D01*
X55811800Y-158361440D01*
X56811800Y-158361440D01*
X57047117Y-158317162D01*
X57263241Y-158178090D01*
X57408231Y-157965890D01*
X57459240Y-157714000D01*
X57459240Y-155214000D01*
X57414962Y-154978683D01*
X57275890Y-154762559D01*
X57264300Y-154754640D01*
X57424200Y-154754640D01*
X57659517Y-154710362D01*
X57875641Y-154571290D01*
X58020631Y-154359090D01*
X58071640Y-154107200D01*
X58071640Y-152705099D01*
X59171296Y-152705099D01*
X59112460Y-152791209D01*
X59061451Y-153043099D01*
X59061451Y-153500319D01*
X58772985Y-153788785D01*
X58607804Y-154035995D01*
X58549800Y-154327600D01*
X58549800Y-154628008D01*
X58360359Y-154749910D01*
X58215369Y-154962110D01*
X58164360Y-155214000D01*
X58164360Y-157714000D01*
X58208638Y-157949317D01*
X58347710Y-158165441D01*
X58559910Y-158310431D01*
X58811800Y-158361440D01*
X59811800Y-158361440D01*
X60047117Y-158317162D01*
X60263241Y-158178090D01*
X60408231Y-157965890D01*
X60459240Y-157714000D01*
X60459240Y-155214000D01*
X60414962Y-154978683D01*
X60275890Y-154762559D01*
X60084941Y-154632089D01*
X60226491Y-154490539D01*
X60458891Y-154490539D01*
X60694208Y-154446261D01*
X60910332Y-154307189D01*
X60980087Y-154205099D01*
X61526862Y-154205099D01*
X61556200Y-154211040D01*
X62626010Y-154211040D01*
X63600200Y-155185230D01*
X63600200Y-156856008D01*
X63410759Y-156977910D01*
X63265769Y-157190110D01*
X63214760Y-157442000D01*
X63214760Y-159042000D01*
X63259038Y-159277317D01*
X63398110Y-159493441D01*
X63610310Y-159638431D01*
X63862200Y-159689440D01*
X64643000Y-159689440D01*
X64643000Y-161798000D01*
X55708431Y-161798000D01*
X51332815Y-157422385D01*
X51109048Y-157272868D01*
X51004090Y-157109759D01*
X50791890Y-156964769D01*
X50540000Y-156913760D01*
X49790000Y-156913760D01*
X49554683Y-156958038D01*
X49338559Y-157097110D01*
X49268804Y-157199200D01*
X49012553Y-157199200D01*
X48974690Y-157140359D01*
X48762490Y-156995369D01*
X48510600Y-156944360D01*
X48005290Y-156944360D01*
X48113431Y-156786090D01*
X48164440Y-156534200D01*
X48164440Y-156214391D01*
X48621016Y-155757815D01*
X48786197Y-155510604D01*
X48844200Y-155219000D01*
X48844200Y-153242640D01*
X48882200Y-153242640D01*
X49117517Y-153198362D01*
X49333641Y-153059290D01*
X49478631Y-152847090D01*
X49529640Y-152595200D01*
X49529640Y-151595200D01*
X49485362Y-151359883D01*
X49346290Y-151143759D01*
X49134090Y-150998769D01*
X48882200Y-150947760D01*
X47282200Y-150947760D01*
X47046883Y-150992038D01*
X46830759Y-151131110D01*
X46685769Y-151343310D01*
X46634760Y-151595200D01*
X46634760Y-152595200D01*
X46679038Y-152830517D01*
X46818110Y-153046641D01*
X47030310Y-153191631D01*
X47282200Y-153242640D01*
X47320200Y-153242640D01*
X47320200Y-154903369D01*
X47086809Y-155136760D01*
X46717000Y-155136760D01*
X46481683Y-155181038D01*
X46379000Y-155247113D01*
X46379000Y-150822030D01*
X47017887Y-150183143D01*
X47030310Y-150191631D01*
X47282200Y-150242640D01*
X48882200Y-150242640D01*
X49117517Y-150198362D01*
X49333641Y-150059290D01*
X49478631Y-149847090D01*
X49529640Y-149595200D01*
X49529640Y-148595200D01*
X49485362Y-148359883D01*
X49346290Y-148143759D01*
X49134090Y-147998769D01*
X48882200Y-147947760D01*
X48844200Y-147947760D01*
X48844200Y-147708240D01*
X48882200Y-147708240D01*
X49117517Y-147663962D01*
X49333641Y-147524890D01*
X49478631Y-147312690D01*
X49529640Y-147060800D01*
X49529640Y-146060800D01*
X49485362Y-145825483D01*
X49346290Y-145609359D01*
X49134090Y-145464369D01*
X48882200Y-145413360D01*
X47282200Y-145413360D01*
X47046883Y-145457638D01*
X46830759Y-145596710D01*
X46685769Y-145808910D01*
X46634760Y-146060800D01*
X46634760Y-147060800D01*
X46679038Y-147296117D01*
X46818110Y-147512241D01*
X47030310Y-147657231D01*
X47282200Y-147708240D01*
X47320200Y-147708240D01*
X47320200Y-147947760D01*
X47282200Y-147947760D01*
X47046883Y-147992038D01*
X46830759Y-148131110D01*
X46685769Y-148343310D01*
X46666599Y-148437974D01*
X46489385Y-148556385D01*
X45078185Y-149967585D01*
X44913004Y-150214795D01*
X44855000Y-150506400D01*
X44855000Y-155262556D01*
X44765559Y-155320110D01*
X44620569Y-155532310D01*
X44569560Y-155784200D01*
X44569560Y-156534200D01*
X44613838Y-156769517D01*
X44752910Y-156985641D01*
X44882421Y-157074132D01*
X44799159Y-157127710D01*
X44654169Y-157339910D01*
X44603160Y-157591800D01*
X44603160Y-158241800D01*
X44629519Y-158381886D01*
X44615600Y-158415490D01*
X44615600Y-158581050D01*
X44774350Y-158739800D01*
X44854651Y-158739800D01*
X44998710Y-158838231D01*
X45113165Y-158861409D01*
X44890902Y-158953473D01*
X44850575Y-158993800D01*
X44774350Y-158993800D01*
X44675120Y-159093030D01*
X44332537Y-159092731D01*
X43972988Y-159241293D01*
X43697660Y-159516141D01*
X43548470Y-159875430D01*
X43548131Y-160264463D01*
X43636032Y-160477200D01*
X40398440Y-160477200D01*
X40398440Y-160223200D01*
X40354162Y-159987883D01*
X40215090Y-159771759D01*
X40052052Y-159660360D01*
X40141385Y-159564018D01*
X40340975Y-159082144D01*
X40221836Y-158826200D01*
X38862000Y-158826200D01*
X38862000Y-158846200D01*
X38608000Y-158846200D01*
X38608000Y-158826200D01*
X37248164Y-158826200D01*
X37129025Y-159082144D01*
X37328615Y-159564018D01*
X37419097Y-159661598D01*
X37267559Y-159759110D01*
X37122569Y-159971310D01*
X37071560Y-160223200D01*
X37071560Y-162255200D01*
X37115838Y-162490517D01*
X37254910Y-162706641D01*
X37467110Y-162851631D01*
X37719000Y-162902640D01*
X39751000Y-162902640D01*
X39986317Y-162858362D01*
X40202441Y-162719290D01*
X40347431Y-162507090D01*
X40398440Y-162255200D01*
X40398440Y-162001200D01*
X46609000Y-162001200D01*
X46900605Y-161943196D01*
X47147815Y-161778015D01*
X47351015Y-161574816D01*
X47516196Y-161327605D01*
X47533781Y-161239200D01*
X47574200Y-161036000D01*
X47574200Y-160789240D01*
X48510600Y-160789240D01*
X48745917Y-160744962D01*
X48962041Y-160605890D01*
X49107031Y-160393690D01*
X49158040Y-160141800D01*
X49158040Y-159994848D01*
X49251673Y-160220898D01*
X49430301Y-160399527D01*
X49663690Y-160496200D01*
X49879250Y-160496200D01*
X50038000Y-160337450D01*
X50038000Y-159588200D01*
X50292000Y-159588200D01*
X50292000Y-160337450D01*
X50450750Y-160496200D01*
X50666310Y-160496200D01*
X50899699Y-160399527D01*
X51078327Y-160220898D01*
X51175000Y-159987509D01*
X51175000Y-159746950D01*
X51016250Y-159588200D01*
X50292000Y-159588200D01*
X50038000Y-159588200D01*
X49313750Y-159588200D01*
X49158040Y-159743910D01*
X49158040Y-159491800D01*
X49113762Y-159256483D01*
X48974690Y-159040359D01*
X48762490Y-158895369D01*
X48625480Y-158867624D01*
X48745917Y-158844962D01*
X48935140Y-158723200D01*
X49242685Y-158723200D01*
X49155000Y-158934891D01*
X49155000Y-159175450D01*
X49313750Y-159334200D01*
X50038000Y-159334200D01*
X50038000Y-159314200D01*
X50292000Y-159314200D01*
X50292000Y-159334200D01*
X51016250Y-159334200D01*
X51052810Y-159297640D01*
X54853984Y-163098815D01*
X55101195Y-163263996D01*
X55392800Y-163322000D01*
X64643000Y-163322000D01*
X64643000Y-168033926D01*
X64135000Y-167932879D01*
X63837488Y-167992058D01*
X62540215Y-166694785D01*
X62454027Y-166637196D01*
X62293005Y-166529604D01*
X62001400Y-166471600D01*
X55397400Y-166471600D01*
X55105795Y-166529604D01*
X54858585Y-166694785D01*
X54800190Y-166782179D01*
X53865010Y-167717360D01*
X53495200Y-167717360D01*
X53259883Y-167761638D01*
X53043759Y-167900710D01*
X52898769Y-168112910D01*
X52847760Y-168364800D01*
X52847760Y-170064800D01*
X52892038Y-170300117D01*
X53031110Y-170516241D01*
X53243310Y-170661231D01*
X53495200Y-170712240D01*
X54295200Y-170712240D01*
X54530517Y-170667962D01*
X54746641Y-170528890D01*
X54891631Y-170316690D01*
X54942640Y-170064800D01*
X54942640Y-168794990D01*
X55742031Y-167995600D01*
X58739679Y-167995600D01*
X58520391Y-168039219D01*
X58067172Y-168342051D01*
X57764340Y-168795270D01*
X57658000Y-169329879D01*
X57658000Y-170420521D01*
X57764340Y-170955130D01*
X58067172Y-171408349D01*
X58520391Y-171711181D01*
X58739679Y-171754800D01*
X46347952Y-171754800D01*
X46968045Y-171135789D01*
X47307113Y-170319222D01*
X47307827Y-169500550D01*
X49460200Y-169500550D01*
X49460200Y-170191110D01*
X49556873Y-170424499D01*
X49735502Y-170603127D01*
X49968891Y-170699800D01*
X50209450Y-170699800D01*
X50368200Y-170541050D01*
X50368200Y-169341800D01*
X50622200Y-169341800D01*
X50622200Y-170541050D01*
X50780950Y-170699800D01*
X51021509Y-170699800D01*
X51254898Y-170603127D01*
X51433527Y-170424499D01*
X51530200Y-170191110D01*
X51530200Y-169500550D01*
X51371450Y-169341800D01*
X50622200Y-169341800D01*
X50368200Y-169341800D01*
X49618950Y-169341800D01*
X49460200Y-169500550D01*
X47307827Y-169500550D01*
X47307885Y-169435057D01*
X46970242Y-168617900D01*
X46591495Y-168238490D01*
X49460200Y-168238490D01*
X49460200Y-168929050D01*
X49618950Y-169087800D01*
X50368200Y-169087800D01*
X50368200Y-167888550D01*
X50622200Y-167888550D01*
X50622200Y-169087800D01*
X51371450Y-169087800D01*
X51530200Y-168929050D01*
X51530200Y-168238490D01*
X51433527Y-168005101D01*
X51254898Y-167826473D01*
X51021509Y-167729800D01*
X50780950Y-167729800D01*
X50622200Y-167888550D01*
X50368200Y-167888550D01*
X50209450Y-167729800D01*
X49968891Y-167729800D01*
X49735502Y-167826473D01*
X49556873Y-168005101D01*
X49460200Y-168238490D01*
X46591495Y-168238490D01*
X46345589Y-167992155D01*
X45529022Y-167653087D01*
X44644857Y-167652315D01*
X43827700Y-167989958D01*
X43201955Y-168614611D01*
X42862887Y-169431178D01*
X42862115Y-170315343D01*
X43199758Y-171132500D01*
X43820972Y-171754800D01*
X31877000Y-171754800D01*
X31877000Y-158316256D01*
X37129025Y-158316256D01*
X37248164Y-158572200D01*
X38608000Y-158572200D01*
X38608000Y-157211833D01*
X38862000Y-157211833D01*
X38862000Y-158572200D01*
X40221836Y-158572200D01*
X40340975Y-158316256D01*
X40141385Y-157834382D01*
X39703379Y-157362012D01*
X39117946Y-157093217D01*
X38862000Y-157211833D01*
X38608000Y-157211833D01*
X38352054Y-157093217D01*
X37766621Y-157362012D01*
X37328615Y-157834382D01*
X37129025Y-158316256D01*
X31877000Y-158316256D01*
X31877000Y-135256944D01*
X37129025Y-135256944D01*
X37328615Y-135738818D01*
X37766621Y-136211188D01*
X38352054Y-136479983D01*
X38608000Y-136361367D01*
X38608000Y-135001000D01*
X38862000Y-135001000D01*
X38862000Y-136361367D01*
X39117946Y-136479983D01*
X39703379Y-136211188D01*
X40141385Y-135738818D01*
X40203958Y-135587745D01*
X50962461Y-135587745D01*
X51036595Y-135833864D01*
X51573823Y-136026965D01*
X52144054Y-135999778D01*
X52544605Y-135833864D01*
X52618739Y-135587745D01*
X51790600Y-134759605D01*
X50962461Y-135587745D01*
X40203958Y-135587745D01*
X40340975Y-135256944D01*
X40221836Y-135001000D01*
X38862000Y-135001000D01*
X38608000Y-135001000D01*
X37248164Y-135001000D01*
X37129025Y-135256944D01*
X31877000Y-135256944D01*
X31877000Y-119837200D01*
X44990271Y-119837200D01*
X44471955Y-120354611D01*
X44471955Y-120354611D01*
G37*
X44471955Y-120354611D02*
X44132887Y-121171178D01*
X44132115Y-122055343D01*
X44469758Y-122872500D01*
X45094411Y-123498245D01*
X45910978Y-123837313D01*
X46795143Y-123838085D01*
X47612300Y-123500442D01*
X48238045Y-122875789D01*
X48520818Y-122194796D01*
X48620340Y-122695130D01*
X48923172Y-123148349D01*
X49376391Y-123451181D01*
X49911000Y-123557521D01*
X50445609Y-123451181D01*
X50898828Y-123148349D01*
X51181000Y-122726050D01*
X51463172Y-123148349D01*
X51916391Y-123451181D01*
X52451000Y-123557521D01*
X52985609Y-123451181D01*
X53438828Y-123148349D01*
X53721000Y-122726050D01*
X54003172Y-123148349D01*
X54456391Y-123451181D01*
X54991000Y-123557521D01*
X55525609Y-123451181D01*
X55978828Y-123148349D01*
X56270330Y-122712087D01*
X56288941Y-122775141D01*
X56632974Y-123200830D01*
X57113723Y-123462460D01*
X57187930Y-123477420D01*
X57404000Y-123354920D01*
X57404000Y-121742200D01*
X57384000Y-121742200D01*
X57384000Y-121488200D01*
X57404000Y-121488200D01*
X57404000Y-121468200D01*
X57658000Y-121468200D01*
X57658000Y-121488200D01*
X57678000Y-121488200D01*
X57678000Y-121742200D01*
X57658000Y-121742200D01*
X57658000Y-123354920D01*
X57874070Y-123477420D01*
X57948277Y-123462460D01*
X58429026Y-123200830D01*
X58773059Y-122775141D01*
X58791670Y-122712087D01*
X59083172Y-123148349D01*
X59536391Y-123451181D01*
X60071000Y-123557521D01*
X60605609Y-123451181D01*
X61058828Y-123148349D01*
X61341000Y-122726050D01*
X61623172Y-123148349D01*
X62076391Y-123451181D01*
X62611000Y-123557521D01*
X63145609Y-123451181D01*
X63598828Y-123148349D01*
X63881000Y-122726050D01*
X64163172Y-123148349D01*
X64616391Y-123451181D01*
X65151000Y-123557521D01*
X65685609Y-123451181D01*
X66138828Y-123148349D01*
X66421000Y-122726050D01*
X66703172Y-123148349D01*
X67156391Y-123451181D01*
X67691000Y-123557521D01*
X68225609Y-123451181D01*
X68678828Y-123148349D01*
X68961000Y-122726050D01*
X69243172Y-123148349D01*
X69696391Y-123451181D01*
X70231000Y-123557521D01*
X70765609Y-123451181D01*
X71218828Y-123148349D01*
X71501000Y-122726050D01*
X71783172Y-123148349D01*
X72236391Y-123451181D01*
X72771000Y-123557521D01*
X73305609Y-123451181D01*
X73758828Y-123148349D01*
X74061660Y-122695130D01*
X74168000Y-122160521D01*
X74168000Y-121069879D01*
X74061660Y-120535270D01*
X73758828Y-120082051D01*
X73392383Y-119837200D01*
X76213617Y-119837200D01*
X75847172Y-120082051D01*
X75544340Y-120535270D01*
X75438000Y-121069879D01*
X75438000Y-122160521D01*
X75544340Y-122695130D01*
X75847172Y-123148349D01*
X76300391Y-123451181D01*
X76835000Y-123557521D01*
X76899468Y-123544698D01*
X78404385Y-125049615D01*
X78651595Y-125214796D01*
X78943200Y-125272800D01*
X92114970Y-125272800D01*
X92149800Y-125307631D01*
X92149800Y-126509756D01*
X92060359Y-126567310D01*
X91915369Y-126779510D01*
X91864360Y-127031400D01*
X91864360Y-127781400D01*
X91908638Y-128016717D01*
X92047710Y-128232841D01*
X92259910Y-128377831D01*
X92511800Y-128428840D01*
X93311800Y-128428840D01*
X93547117Y-128384562D01*
X93637800Y-128326209D01*
X93637800Y-128617685D01*
X93426109Y-128530000D01*
X93185550Y-128530000D01*
X93026800Y-128688750D01*
X93026800Y-129413000D01*
X93046800Y-129413000D01*
X93046800Y-129667000D01*
X93026800Y-129667000D01*
X93026800Y-130391250D01*
X93185550Y-130550000D01*
X93426109Y-130550000D01*
X93659498Y-130453327D01*
X93660868Y-130451957D01*
X93747910Y-130511431D01*
X93999800Y-130562440D01*
X94799800Y-130562440D01*
X95035117Y-130518162D01*
X95251241Y-130379090D01*
X95396231Y-130166890D01*
X95447240Y-129915000D01*
X95447240Y-129165000D01*
X95402962Y-128929683D01*
X95263890Y-128713559D01*
X95161800Y-128643804D01*
X95161800Y-128310766D01*
X95263241Y-128245490D01*
X95408231Y-128033290D01*
X95459240Y-127781400D01*
X95459240Y-127031400D01*
X95414962Y-126796083D01*
X95275890Y-126579959D01*
X95063690Y-126434969D01*
X94811800Y-126383960D01*
X94011800Y-126383960D01*
X93776483Y-126428238D01*
X93673800Y-126494313D01*
X93673800Y-124992000D01*
X93615797Y-124700396D01*
X93450616Y-124453185D01*
X92969415Y-123971985D01*
X92722205Y-123806804D01*
X92430600Y-123748800D01*
X79258830Y-123748800D01*
X78991211Y-123481181D01*
X79375000Y-123557521D01*
X79909609Y-123451181D01*
X80362828Y-123148349D01*
X80645000Y-122726050D01*
X80927172Y-123148349D01*
X81380391Y-123451181D01*
X81915000Y-123557521D01*
X82449609Y-123451181D01*
X82902828Y-123148349D01*
X83185000Y-122726050D01*
X83467172Y-123148349D01*
X83920391Y-123451181D01*
X84455000Y-123557521D01*
X84989609Y-123451181D01*
X85442828Y-123148349D01*
X85725000Y-122726050D01*
X86007172Y-123148349D01*
X86460391Y-123451181D01*
X86995000Y-123557521D01*
X87529609Y-123451181D01*
X87982828Y-123148349D01*
X88265000Y-122726050D01*
X88547172Y-123148349D01*
X89000391Y-123451181D01*
X89535000Y-123557521D01*
X90069609Y-123451181D01*
X90522828Y-123148349D01*
X90805000Y-122726050D01*
X91087172Y-123148349D01*
X91540391Y-123451181D01*
X92075000Y-123557521D01*
X92609609Y-123451181D01*
X93062828Y-123148349D01*
X93345000Y-122726050D01*
X93627172Y-123148349D01*
X94080391Y-123451181D01*
X94615000Y-123557521D01*
X95149609Y-123451181D01*
X95602828Y-123148349D01*
X95905660Y-122695130D01*
X96012000Y-122160521D01*
X96012000Y-121069879D01*
X95905660Y-120535270D01*
X95602828Y-120082051D01*
X95236383Y-119837200D01*
X95641212Y-119837200D01*
X96494600Y-120690589D01*
X96494600Y-131826000D01*
X96548737Y-132098165D01*
X96702906Y-132328894D01*
X101320600Y-136946589D01*
X101320600Y-166010625D01*
X96783917Y-169353444D01*
X96747651Y-169393208D01*
X96702906Y-169423106D01*
X96655014Y-169494782D01*
X96596924Y-169558475D01*
X96578636Y-169609088D01*
X96548737Y-169653836D01*
X96531919Y-169738386D01*
X96502626Y-169819458D01*
X96505099Y-169873216D01*
X96494600Y-169926000D01*
X96494600Y-171754800D01*
X94930321Y-171754800D01*
X95149609Y-171711181D01*
X95602828Y-171408349D01*
X95905660Y-170955130D01*
X96012000Y-170420521D01*
X96012000Y-169329879D01*
X95905660Y-168795270D01*
X95602828Y-168342051D01*
X95149609Y-168039219D01*
X94615000Y-167932879D01*
X94080391Y-168039219D01*
X93627172Y-168342051D01*
X93345000Y-168764350D01*
X93062828Y-168342051D01*
X92609609Y-168039219D01*
X92075000Y-167932879D01*
X91540391Y-168039219D01*
X91087172Y-168342051D01*
X90805000Y-168764350D01*
X90522828Y-168342051D01*
X90069609Y-168039219D01*
X89535000Y-167932879D01*
X89000391Y-168039219D01*
X88547172Y-168342051D01*
X88265000Y-168764350D01*
X87982828Y-168342051D01*
X87757000Y-168191157D01*
X87757000Y-167244430D01*
X89766087Y-165235343D01*
X94932115Y-165235343D01*
X95269758Y-166052500D01*
X95894411Y-166678245D01*
X96710978Y-167017313D01*
X97595143Y-167018085D01*
X98412300Y-166680442D01*
X99038045Y-166055789D01*
X99377113Y-165239222D01*
X99377885Y-164355057D01*
X99040242Y-163537900D01*
X98415589Y-162912155D01*
X97599022Y-162573087D01*
X96714857Y-162572315D01*
X95897700Y-162909958D01*
X95271955Y-163534611D01*
X94932887Y-164351178D01*
X94932115Y-165235343D01*
X89766087Y-165235343D01*
X92229135Y-162772296D01*
X92394316Y-162525085D01*
X92401192Y-162490517D01*
X92452320Y-162233480D01*
X92452320Y-160418804D01*
X92541761Y-160361250D01*
X92686751Y-160149050D01*
X92737760Y-159897160D01*
X92737760Y-159147160D01*
X92693482Y-158911843D01*
X92554410Y-158695719D01*
X92452320Y-158625964D01*
X92452320Y-158457055D01*
X92531605Y-158406036D01*
X92676595Y-158193836D01*
X92727604Y-157941946D01*
X92727604Y-157597136D01*
X93475254Y-156849486D01*
X93580600Y-156849486D01*
X93815917Y-156805208D01*
X94032041Y-156666136D01*
X94177031Y-156453936D01*
X94228040Y-156202046D01*
X94228040Y-155882236D01*
X96119016Y-153991261D01*
X96284197Y-153744050D01*
X96342200Y-153452446D01*
X96342200Y-150654640D01*
X96830200Y-150654640D01*
X97065517Y-150610362D01*
X97281641Y-150471290D01*
X97426631Y-150259090D01*
X97477640Y-150007200D01*
X97477640Y-149007200D01*
X97433362Y-148771883D01*
X97294290Y-148555759D01*
X97082090Y-148410769D01*
X96830200Y-148359760D01*
X94330200Y-148359760D01*
X94094883Y-148404038D01*
X93878759Y-148543110D01*
X93733769Y-148755310D01*
X93682760Y-149007200D01*
X93682760Y-150007200D01*
X93727038Y-150242517D01*
X93866110Y-150458641D01*
X94078310Y-150603631D01*
X94330200Y-150654640D01*
X94818200Y-150654640D01*
X94818200Y-153136815D01*
X93150410Y-154804606D01*
X92780600Y-154804606D01*
X92745029Y-154811299D01*
X92822400Y-154624510D01*
X92822400Y-154158950D01*
X92663650Y-154000200D01*
X91814400Y-154000200D01*
X91814400Y-154020200D01*
X91560400Y-154020200D01*
X91560400Y-154000200D01*
X91540400Y-154000200D01*
X91540400Y-153746200D01*
X91560400Y-153746200D01*
X91560400Y-153726200D01*
X91814400Y-153726200D01*
X91814400Y-153746200D01*
X92663650Y-153746200D01*
X92822400Y-153587450D01*
X92822400Y-153121890D01*
X92725727Y-152888501D01*
X92593495Y-152756270D01*
X92638841Y-152727090D01*
X92783831Y-152514890D01*
X92834840Y-152263000D01*
X92834840Y-151013000D01*
X92790562Y-150777683D01*
X92661452Y-150577040D01*
X93027400Y-150577040D01*
X93262717Y-150532762D01*
X93478841Y-150393690D01*
X93623831Y-150181490D01*
X93674840Y-149929600D01*
X93674840Y-148929600D01*
X93630562Y-148694283D01*
X93491490Y-148478159D01*
X93279290Y-148333169D01*
X93027400Y-148282160D01*
X91427400Y-148282160D01*
X91192083Y-148326438D01*
X90975959Y-148465510D01*
X90877923Y-148608990D01*
X90776490Y-148451359D01*
X90706689Y-148403666D01*
X90763841Y-148366890D01*
X90908831Y-148154690D01*
X90959840Y-147902800D01*
X90959840Y-147375648D01*
X90963310Y-147381041D01*
X91175510Y-147526031D01*
X91427400Y-147577040D01*
X93027400Y-147577040D01*
X93262717Y-147532762D01*
X93478841Y-147393690D01*
X93623831Y-147181490D01*
X93674840Y-146929600D01*
X93674840Y-145929600D01*
X93630562Y-145694283D01*
X93491490Y-145478159D01*
X93279290Y-145333169D01*
X93027400Y-145282160D01*
X91427400Y-145282160D01*
X91192083Y-145326438D01*
X90975959Y-145465510D01*
X90837877Y-145667600D01*
X90679400Y-145667600D01*
X90387795Y-145725604D01*
X90140585Y-145890785D01*
X89975404Y-146137995D01*
X89969402Y-146168168D01*
X89882210Y-146255360D01*
X89062400Y-146255360D01*
X88827083Y-146299638D01*
X88610959Y-146438710D01*
X88465969Y-146650910D01*
X88414960Y-146902800D01*
X88414960Y-147902800D01*
X88459238Y-148138117D01*
X88598310Y-148354241D01*
X88668111Y-148401934D01*
X88610959Y-148438710D01*
X88472877Y-148640800D01*
X87401400Y-148640800D01*
X87146012Y-148691600D01*
X87109795Y-148698804D01*
X86862584Y-148863985D01*
X86825560Y-148901009D01*
X86635454Y-148771115D01*
X86383564Y-148720106D01*
X86113724Y-148720106D01*
X89261015Y-145572815D01*
X89426196Y-145325605D01*
X89431108Y-145300910D01*
X89484200Y-145034000D01*
X89484200Y-140419680D01*
X89426196Y-140128075D01*
X89348129Y-140011240D01*
X89261016Y-139880865D01*
X86434155Y-137054005D01*
X86387744Y-137022994D01*
X86259520Y-136937317D01*
X86244502Y-136857503D01*
X86105430Y-136641379D01*
X86037334Y-136594851D01*
X86179667Y-136452518D01*
X86276340Y-136219129D01*
X86276340Y-135878570D01*
X86117590Y-135719820D01*
X85143340Y-135719820D01*
X85143340Y-135739820D01*
X84889340Y-135739820D01*
X84889340Y-135719820D01*
X84869340Y-135719820D01*
X84869340Y-135465820D01*
X84889340Y-135465820D01*
X84889340Y-135445820D01*
X85143340Y-135445820D01*
X85143340Y-135465820D01*
X86117590Y-135465820D01*
X86276340Y-135307070D01*
X86276340Y-134966511D01*
X86179667Y-134733122D01*
X86113490Y-134666945D01*
X86203440Y-134685160D01*
X86953440Y-134685160D01*
X87188757Y-134640882D01*
X87404881Y-134501810D01*
X87549871Y-134289610D01*
X87600880Y-134037720D01*
X87600880Y-133237720D01*
X87556602Y-133002403D01*
X87490527Y-132899720D01*
X89023090Y-132899720D01*
X92075000Y-135951630D01*
X92075000Y-140868400D01*
X92133004Y-141160005D01*
X92298185Y-141407215D01*
X94818200Y-143927231D01*
X94818200Y-145359760D01*
X94330200Y-145359760D01*
X94094883Y-145404038D01*
X93878759Y-145543110D01*
X93733769Y-145755310D01*
X93682760Y-146007200D01*
X93682760Y-147007200D01*
X93727038Y-147242517D01*
X93866110Y-147458641D01*
X94078310Y-147603631D01*
X94330200Y-147654640D01*
X96830200Y-147654640D01*
X97065517Y-147610362D01*
X97281641Y-147471290D01*
X97426631Y-147259090D01*
X97477640Y-147007200D01*
X97477640Y-146007200D01*
X97433362Y-145771883D01*
X97294290Y-145555759D01*
X97082090Y-145410769D01*
X96830200Y-145359760D01*
X96342200Y-145359760D01*
X96342200Y-143611600D01*
X96284196Y-143319995D01*
X96218034Y-143220977D01*
X96119016Y-143072785D01*
X93599000Y-140552770D01*
X93599000Y-137295343D01*
X94932115Y-137295343D01*
X95269758Y-138112500D01*
X95894411Y-138738245D01*
X96710978Y-139077313D01*
X97595143Y-139078085D01*
X98412300Y-138740442D01*
X99038045Y-138115789D01*
X99377113Y-137299222D01*
X99377885Y-136415057D01*
X99040242Y-135597900D01*
X98415589Y-134972155D01*
X97599022Y-134633087D01*
X96714857Y-134632315D01*
X95897700Y-134969958D01*
X95271955Y-135594611D01*
X94932887Y-136411178D01*
X94932115Y-137295343D01*
X93599000Y-137295343D01*
X93599000Y-135636000D01*
X93540996Y-135344395D01*
X93375815Y-135097185D01*
X89877535Y-131598905D01*
X89810083Y-131553835D01*
X89630325Y-131433724D01*
X89338720Y-131375720D01*
X87475084Y-131375720D01*
X87417530Y-131286279D01*
X87205330Y-131141289D01*
X86953440Y-131090280D01*
X86203440Y-131090280D01*
X85968123Y-131134558D01*
X85751999Y-131273630D01*
X85682244Y-131375720D01*
X85677545Y-131375720D01*
X85652230Y-131336379D01*
X85440030Y-131191389D01*
X85188140Y-131140380D01*
X84438140Y-131140380D01*
X84202823Y-131184658D01*
X83986699Y-131323730D01*
X83916944Y-131425820D01*
X83796380Y-131425820D01*
X83511813Y-131482424D01*
X83504775Y-131483824D01*
X83257564Y-131649005D01*
X82961209Y-131945360D01*
X81891400Y-131945360D01*
X81656083Y-131989638D01*
X81439959Y-132128710D01*
X81407000Y-132176947D01*
X81407000Y-129825750D01*
X91864800Y-129825750D01*
X91864800Y-130041310D01*
X91961473Y-130274699D01*
X92140102Y-130453327D01*
X92373491Y-130550000D01*
X92614050Y-130550000D01*
X92772800Y-130391250D01*
X92772800Y-129667000D01*
X92023550Y-129667000D01*
X91864800Y-129825750D01*
X81407000Y-129825750D01*
X81407000Y-129648000D01*
X81348996Y-129356395D01*
X81221110Y-129165000D01*
X81183815Y-129109184D01*
X81113321Y-129038690D01*
X91864800Y-129038690D01*
X91864800Y-129254250D01*
X92023550Y-129413000D01*
X92772800Y-129413000D01*
X92772800Y-128688750D01*
X92614050Y-128530000D01*
X92373491Y-128530000D01*
X92140102Y-128626673D01*
X91961473Y-128805301D01*
X91864800Y-129038690D01*
X81113321Y-129038690D01*
X80923415Y-128848785D01*
X80816405Y-128777283D01*
X80676205Y-128683604D01*
X80673081Y-128682983D01*
X80594690Y-128561159D01*
X80382490Y-128416169D01*
X80130600Y-128365160D01*
X79330600Y-128365160D01*
X79095283Y-128409438D01*
X78980622Y-128483220D01*
X78882490Y-128416169D01*
X78630600Y-128365160D01*
X77830600Y-128365160D01*
X77595283Y-128409438D01*
X77379159Y-128548510D01*
X77291776Y-128676400D01*
X77271240Y-128676400D01*
X77271240Y-128188400D01*
X77226962Y-127953083D01*
X77087890Y-127736959D01*
X76875690Y-127591969D01*
X76623800Y-127540960D01*
X75623800Y-127540960D01*
X75388483Y-127585238D01*
X75172359Y-127724310D01*
X75027369Y-127936510D01*
X74976360Y-128188400D01*
X74976360Y-130688400D01*
X75020638Y-130923717D01*
X75159710Y-131139841D01*
X75162548Y-131141780D01*
X74529600Y-131141780D01*
X74294283Y-131186058D01*
X74078159Y-131325130D01*
X74008404Y-131427220D01*
X73885800Y-131427220D01*
X73885800Y-131274392D01*
X74075241Y-131152490D01*
X74220231Y-130940290D01*
X74271240Y-130688400D01*
X74271240Y-128188400D01*
X74226962Y-127953083D01*
X74087890Y-127736959D01*
X73875690Y-127591969D01*
X73623800Y-127540960D01*
X72623800Y-127540960D01*
X72388483Y-127585238D01*
X72172359Y-127724310D01*
X72027369Y-127936510D01*
X71976360Y-128188400D01*
X71976360Y-130688400D01*
X72020638Y-130923717D01*
X72159710Y-131139841D01*
X72361800Y-131277923D01*
X72361800Y-131296167D01*
X72355630Y-131286579D01*
X72143430Y-131141589D01*
X71891540Y-131090580D01*
X71091540Y-131090580D01*
X70856223Y-131134858D01*
X70741562Y-131208640D01*
X70643430Y-131141589D01*
X70391540Y-131090580D01*
X69591540Y-131090580D01*
X69356223Y-131134858D01*
X69140099Y-131273930D01*
X68995109Y-131486130D01*
X68944100Y-131738020D01*
X68944100Y-132488020D01*
X68988378Y-132723337D01*
X69127450Y-132939461D01*
X69157169Y-132959767D01*
X69152099Y-132963030D01*
X69007109Y-133175230D01*
X68956100Y-133427120D01*
X68956100Y-133746929D01*
X68015785Y-134687245D01*
X67971657Y-134753287D01*
X67944283Y-134758438D01*
X67728159Y-134897510D01*
X67583169Y-135109710D01*
X67532160Y-135361600D01*
X67532160Y-136161600D01*
X67576438Y-136396917D01*
X67650220Y-136511578D01*
X67583169Y-136609710D01*
X67532160Y-136861600D01*
X67532160Y-137661600D01*
X67542923Y-137718800D01*
X66319400Y-137718800D01*
X66027795Y-137776804D01*
X65848034Y-137896917D01*
X65780585Y-137941985D01*
X65509463Y-138213107D01*
X64019140Y-136722785D01*
X63913203Y-136652000D01*
X63821123Y-136590474D01*
X63623450Y-136112068D01*
X63052338Y-135539959D01*
X62305763Y-135229954D01*
X61497384Y-135229248D01*
X60750268Y-135537950D01*
X60178159Y-136109062D01*
X59868154Y-136855637D01*
X59867448Y-137664016D01*
X60176150Y-138411132D01*
X60747262Y-138983241D01*
X61493837Y-139293246D01*
X62302216Y-139293952D01*
X63049332Y-138985250D01*
X63588308Y-138447213D01*
X64693800Y-139552706D01*
X64693800Y-139738100D01*
X64500137Y-139737931D01*
X64140588Y-139886493D01*
X64072963Y-139954000D01*
X60742231Y-139954000D01*
X53204686Y-132416456D01*
X53225350Y-132366691D01*
X53225848Y-131795813D01*
X53007843Y-131268200D01*
X52604523Y-130864176D01*
X52077291Y-130645250D01*
X51506413Y-130644752D01*
X51296683Y-130731411D01*
X51181000Y-130708400D01*
X46142957Y-130708400D01*
X46101490Y-130643959D01*
X45889290Y-130498969D01*
X45637400Y-130447960D01*
X44837400Y-130447960D01*
X44602083Y-130492238D01*
X44487422Y-130566020D01*
X44389290Y-130498969D01*
X44137400Y-130447960D01*
X43337400Y-130447960D01*
X43102083Y-130492238D01*
X42885959Y-130631310D01*
X42833286Y-130708400D01*
X39937860Y-130708400D01*
X39751000Y-130670560D01*
X37719000Y-130670560D01*
X37483683Y-130714838D01*
X37267559Y-130853910D01*
X37122569Y-131066110D01*
X37071560Y-131318000D01*
X37071560Y-133350000D01*
X37115838Y-133585317D01*
X37254910Y-133801441D01*
X37417948Y-133912840D01*
X37328615Y-134009182D01*
X37129025Y-134491056D01*
X37248164Y-134747000D01*
X38608000Y-134747000D01*
X38608000Y-134727000D01*
X38862000Y-134727000D01*
X38862000Y-134747000D01*
X40221836Y-134747000D01*
X40340975Y-134491056D01*
X40288028Y-134363223D01*
X50343635Y-134363223D01*
X50370822Y-134933454D01*
X50536736Y-135334005D01*
X50782855Y-135408139D01*
X51610995Y-134580000D01*
X50782855Y-133751861D01*
X50536736Y-133825995D01*
X50343635Y-134363223D01*
X40288028Y-134363223D01*
X40141385Y-134009182D01*
X40050903Y-133911602D01*
X40202441Y-133814090D01*
X40347431Y-133601890D01*
X40398440Y-133350000D01*
X40398440Y-132232400D01*
X42831843Y-132232400D01*
X42873310Y-132296841D01*
X43085510Y-132441831D01*
X43337400Y-132492840D01*
X44137400Y-132492840D01*
X44372717Y-132448562D01*
X44487378Y-132374780D01*
X44585510Y-132441831D01*
X44837400Y-132492840D01*
X45637400Y-132492840D01*
X45872717Y-132448562D01*
X46088841Y-132309490D01*
X46141514Y-132232400D01*
X50355467Y-132232400D01*
X50355352Y-132364187D01*
X50573357Y-132891800D01*
X50976677Y-133295824D01*
X51043144Y-133323423D01*
X51036595Y-133326136D01*
X50962461Y-133572255D01*
X51790600Y-134400395D01*
X51804742Y-134386252D01*
X51984348Y-134565858D01*
X51970205Y-134580000D01*
X52798345Y-135408139D01*
X53044464Y-135334005D01*
X53237565Y-134796777D01*
X53227944Y-134594974D01*
X59887784Y-141254815D01*
X60033561Y-141352220D01*
X60134995Y-141419996D01*
X60426600Y-141478000D01*
X62156383Y-141478000D01*
X62121469Y-141529099D01*
X60675501Y-141529099D01*
X60383896Y-141587103D01*
X60226885Y-141692015D01*
X60136686Y-141752284D01*
X59983610Y-141905360D01*
X58813800Y-141905360D01*
X58578483Y-141949638D01*
X58362359Y-142088710D01*
X58224277Y-142290800D01*
X57186231Y-142290800D01*
X56596615Y-141701185D01*
X56566080Y-141680782D01*
X56349405Y-141536004D01*
X56057800Y-141478000D01*
X51697000Y-141478000D01*
X51405395Y-141536004D01*
X51158184Y-141701185D01*
X50700988Y-142158382D01*
X50700985Y-142158384D01*
X50642185Y-142217185D01*
X50545048Y-142362560D01*
X50381000Y-142362560D01*
X50145683Y-142406838D01*
X49929559Y-142545910D01*
X49784569Y-142758110D01*
X49776329Y-142798800D01*
X49468192Y-142798800D01*
X49346290Y-142609359D01*
X49134090Y-142464369D01*
X48882200Y-142413360D01*
X47282200Y-142413360D01*
X47046883Y-142457638D01*
X46830759Y-142596710D01*
X46685769Y-142808910D01*
X46634760Y-143060800D01*
X46634760Y-144060800D01*
X46679038Y-144296117D01*
X46818110Y-144512241D01*
X47030310Y-144657231D01*
X47282200Y-144708240D01*
X48882200Y-144708240D01*
X49117517Y-144663962D01*
X49333641Y-144524890D01*
X49471723Y-144322800D01*
X49827697Y-144322800D01*
X49916910Y-144461441D01*
X50129110Y-144606431D01*
X50381000Y-144657440D01*
X51841400Y-144657440D01*
X51841400Y-145071970D01*
X51550810Y-145362560D01*
X50381000Y-145362560D01*
X50145683Y-145406838D01*
X49929559Y-145545910D01*
X49784569Y-145758110D01*
X49733560Y-146010000D01*
X49733560Y-147010000D01*
X49777838Y-147245317D01*
X49916910Y-147461441D01*
X50129110Y-147606431D01*
X50381000Y-147657440D01*
X51981000Y-147657440D01*
X52216317Y-147613162D01*
X52432441Y-147474090D01*
X52531427Y-147329219D01*
X52616510Y-147461441D01*
X52828710Y-147606431D01*
X53080600Y-147657440D01*
X53162200Y-147657440D01*
X53162200Y-151021208D01*
X52972759Y-151143110D01*
X52827769Y-151355310D01*
X52776760Y-151607200D01*
X52776760Y-154107200D01*
X52821038Y-154342517D01*
X52960110Y-154558641D01*
X53162200Y-154696723D01*
X53162200Y-154830400D01*
X53220204Y-155122005D01*
X53370418Y-155346815D01*
X53385385Y-155369215D01*
X55018984Y-157002815D01*
X55164360Y-157099952D01*
X55164360Y-157714000D01*
X55208638Y-157949317D01*
X55347710Y-158165441D01*
X55559910Y-158310431D01*
X55811800Y-158361440D01*
X56811800Y-158361440D01*
X57047117Y-158317162D01*
X57263241Y-158178090D01*
X57408231Y-157965890D01*
X57459240Y-157714000D01*
X57459240Y-155214000D01*
X57414962Y-154978683D01*
X57275890Y-154762559D01*
X57264300Y-154754640D01*
X57424200Y-154754640D01*
X57659517Y-154710362D01*
X57875641Y-154571290D01*
X58020631Y-154359090D01*
X58071640Y-154107200D01*
X58071640Y-152705099D01*
X59171296Y-152705099D01*
X59112460Y-152791209D01*
X59061451Y-153043099D01*
X59061451Y-153500319D01*
X58772985Y-153788785D01*
X58607804Y-154035995D01*
X58549800Y-154327600D01*
X58549800Y-154628008D01*
X58360359Y-154749910D01*
X58215369Y-154962110D01*
X58164360Y-155214000D01*
X58164360Y-157714000D01*
X58208638Y-157949317D01*
X58347710Y-158165441D01*
X58559910Y-158310431D01*
X58811800Y-158361440D01*
X59811800Y-158361440D01*
X60047117Y-158317162D01*
X60263241Y-158178090D01*
X60408231Y-157965890D01*
X60459240Y-157714000D01*
X60459240Y-155214000D01*
X60414962Y-154978683D01*
X60275890Y-154762559D01*
X60084941Y-154632089D01*
X60226491Y-154490539D01*
X60458891Y-154490539D01*
X60694208Y-154446261D01*
X60910332Y-154307189D01*
X60980087Y-154205099D01*
X61526862Y-154205099D01*
X61556200Y-154211040D01*
X62626010Y-154211040D01*
X63600200Y-155185230D01*
X63600200Y-156856008D01*
X63410759Y-156977910D01*
X63265769Y-157190110D01*
X63214760Y-157442000D01*
X63214760Y-159042000D01*
X63259038Y-159277317D01*
X63398110Y-159493441D01*
X63610310Y-159638431D01*
X63862200Y-159689440D01*
X64643000Y-159689440D01*
X64643000Y-161798000D01*
X55708431Y-161798000D01*
X51332815Y-157422385D01*
X51109048Y-157272868D01*
X51004090Y-157109759D01*
X50791890Y-156964769D01*
X50540000Y-156913760D01*
X49790000Y-156913760D01*
X49554683Y-156958038D01*
X49338559Y-157097110D01*
X49268804Y-157199200D01*
X49012553Y-157199200D01*
X48974690Y-157140359D01*
X48762490Y-156995369D01*
X48510600Y-156944360D01*
X48005290Y-156944360D01*
X48113431Y-156786090D01*
X48164440Y-156534200D01*
X48164440Y-156214391D01*
X48621016Y-155757815D01*
X48786197Y-155510604D01*
X48844200Y-155219000D01*
X48844200Y-153242640D01*
X48882200Y-153242640D01*
X49117517Y-153198362D01*
X49333641Y-153059290D01*
X49478631Y-152847090D01*
X49529640Y-152595200D01*
X49529640Y-151595200D01*
X49485362Y-151359883D01*
X49346290Y-151143759D01*
X49134090Y-150998769D01*
X48882200Y-150947760D01*
X47282200Y-150947760D01*
X47046883Y-150992038D01*
X46830759Y-151131110D01*
X46685769Y-151343310D01*
X46634760Y-151595200D01*
X46634760Y-152595200D01*
X46679038Y-152830517D01*
X46818110Y-153046641D01*
X47030310Y-153191631D01*
X47282200Y-153242640D01*
X47320200Y-153242640D01*
X47320200Y-154903369D01*
X47086809Y-155136760D01*
X46717000Y-155136760D01*
X46481683Y-155181038D01*
X46379000Y-155247113D01*
X46379000Y-150822030D01*
X47017887Y-150183143D01*
X47030310Y-150191631D01*
X47282200Y-150242640D01*
X48882200Y-150242640D01*
X49117517Y-150198362D01*
X49333641Y-150059290D01*
X49478631Y-149847090D01*
X49529640Y-149595200D01*
X49529640Y-148595200D01*
X49485362Y-148359883D01*
X49346290Y-148143759D01*
X49134090Y-147998769D01*
X48882200Y-147947760D01*
X48844200Y-147947760D01*
X48844200Y-147708240D01*
X48882200Y-147708240D01*
X49117517Y-147663962D01*
X49333641Y-147524890D01*
X49478631Y-147312690D01*
X49529640Y-147060800D01*
X49529640Y-146060800D01*
X49485362Y-145825483D01*
X49346290Y-145609359D01*
X49134090Y-145464369D01*
X48882200Y-145413360D01*
X47282200Y-145413360D01*
X47046883Y-145457638D01*
X46830759Y-145596710D01*
X46685769Y-145808910D01*
X46634760Y-146060800D01*
X46634760Y-147060800D01*
X46679038Y-147296117D01*
X46818110Y-147512241D01*
X47030310Y-147657231D01*
X47282200Y-147708240D01*
X47320200Y-147708240D01*
X47320200Y-147947760D01*
X47282200Y-147947760D01*
X47046883Y-147992038D01*
X46830759Y-148131110D01*
X46685769Y-148343310D01*
X46666599Y-148437974D01*
X46489385Y-148556385D01*
X45078185Y-149967585D01*
X44913004Y-150214795D01*
X44855000Y-150506400D01*
X44855000Y-155262556D01*
X44765559Y-155320110D01*
X44620569Y-155532310D01*
X44569560Y-155784200D01*
X44569560Y-156534200D01*
X44613838Y-156769517D01*
X44752910Y-156985641D01*
X44882421Y-157074132D01*
X44799159Y-157127710D01*
X44654169Y-157339910D01*
X44603160Y-157591800D01*
X44603160Y-158241800D01*
X44629519Y-158381886D01*
X44615600Y-158415490D01*
X44615600Y-158581050D01*
X44774350Y-158739800D01*
X44854651Y-158739800D01*
X44998710Y-158838231D01*
X45113165Y-158861409D01*
X44890902Y-158953473D01*
X44850575Y-158993800D01*
X44774350Y-158993800D01*
X44675120Y-159093030D01*
X44332537Y-159092731D01*
X43972988Y-159241293D01*
X43697660Y-159516141D01*
X43548470Y-159875430D01*
X43548131Y-160264463D01*
X43636032Y-160477200D01*
X40398440Y-160477200D01*
X40398440Y-160223200D01*
X40354162Y-159987883D01*
X40215090Y-159771759D01*
X40052052Y-159660360D01*
X40141385Y-159564018D01*
X40340975Y-159082144D01*
X40221836Y-158826200D01*
X38862000Y-158826200D01*
X38862000Y-158846200D01*
X38608000Y-158846200D01*
X38608000Y-158826200D01*
X37248164Y-158826200D01*
X37129025Y-159082144D01*
X37328615Y-159564018D01*
X37419097Y-159661598D01*
X37267559Y-159759110D01*
X37122569Y-159971310D01*
X37071560Y-160223200D01*
X37071560Y-162255200D01*
X37115838Y-162490517D01*
X37254910Y-162706641D01*
X37467110Y-162851631D01*
X37719000Y-162902640D01*
X39751000Y-162902640D01*
X39986317Y-162858362D01*
X40202441Y-162719290D01*
X40347431Y-162507090D01*
X40398440Y-162255200D01*
X40398440Y-162001200D01*
X46609000Y-162001200D01*
X46900605Y-161943196D01*
X47147815Y-161778015D01*
X47351015Y-161574816D01*
X47516196Y-161327605D01*
X47533781Y-161239200D01*
X47574200Y-161036000D01*
X47574200Y-160789240D01*
X48510600Y-160789240D01*
X48745917Y-160744962D01*
X48962041Y-160605890D01*
X49107031Y-160393690D01*
X49158040Y-160141800D01*
X49158040Y-159994848D01*
X49251673Y-160220898D01*
X49430301Y-160399527D01*
X49663690Y-160496200D01*
X49879250Y-160496200D01*
X50038000Y-160337450D01*
X50038000Y-159588200D01*
X50292000Y-159588200D01*
X50292000Y-160337450D01*
X50450750Y-160496200D01*
X50666310Y-160496200D01*
X50899699Y-160399527D01*
X51078327Y-160220898D01*
X51175000Y-159987509D01*
X51175000Y-159746950D01*
X51016250Y-159588200D01*
X50292000Y-159588200D01*
X50038000Y-159588200D01*
X49313750Y-159588200D01*
X49158040Y-159743910D01*
X49158040Y-159491800D01*
X49113762Y-159256483D01*
X48974690Y-159040359D01*
X48762490Y-158895369D01*
X48625480Y-158867624D01*
X48745917Y-158844962D01*
X48935140Y-158723200D01*
X49242685Y-158723200D01*
X49155000Y-158934891D01*
X49155000Y-159175450D01*
X49313750Y-159334200D01*
X50038000Y-159334200D01*
X50038000Y-159314200D01*
X50292000Y-159314200D01*
X50292000Y-159334200D01*
X51016250Y-159334200D01*
X51052810Y-159297640D01*
X54853984Y-163098815D01*
X55101195Y-163263996D01*
X55392800Y-163322000D01*
X64643000Y-163322000D01*
X64643000Y-168033926D01*
X64135000Y-167932879D01*
X63837488Y-167992058D01*
X62540215Y-166694785D01*
X62454027Y-166637196D01*
X62293005Y-166529604D01*
X62001400Y-166471600D01*
X55397400Y-166471600D01*
X55105795Y-166529604D01*
X54858585Y-166694785D01*
X54800190Y-166782179D01*
X53865010Y-167717360D01*
X53495200Y-167717360D01*
X53259883Y-167761638D01*
X53043759Y-167900710D01*
X52898769Y-168112910D01*
X52847760Y-168364800D01*
X52847760Y-170064800D01*
X52892038Y-170300117D01*
X53031110Y-170516241D01*
X53243310Y-170661231D01*
X53495200Y-170712240D01*
X54295200Y-170712240D01*
X54530517Y-170667962D01*
X54746641Y-170528890D01*
X54891631Y-170316690D01*
X54942640Y-170064800D01*
X54942640Y-168794990D01*
X55742031Y-167995600D01*
X58739679Y-167995600D01*
X58520391Y-168039219D01*
X58067172Y-168342051D01*
X57764340Y-168795270D01*
X57658000Y-169329879D01*
X57658000Y-170420521D01*
X57764340Y-170955130D01*
X58067172Y-171408349D01*
X58520391Y-171711181D01*
X58739679Y-171754800D01*
X46347952Y-171754800D01*
X46968045Y-171135789D01*
X47307113Y-170319222D01*
X47307827Y-169500550D01*
X49460200Y-169500550D01*
X49460200Y-170191110D01*
X49556873Y-170424499D01*
X49735502Y-170603127D01*
X49968891Y-170699800D01*
X50209450Y-170699800D01*
X50368200Y-170541050D01*
X50368200Y-169341800D01*
X50622200Y-169341800D01*
X50622200Y-170541050D01*
X50780950Y-170699800D01*
X51021509Y-170699800D01*
X51254898Y-170603127D01*
X51433527Y-170424499D01*
X51530200Y-170191110D01*
X51530200Y-169500550D01*
X51371450Y-169341800D01*
X50622200Y-169341800D01*
X50368200Y-169341800D01*
X49618950Y-169341800D01*
X49460200Y-169500550D01*
X47307827Y-169500550D01*
X47307885Y-169435057D01*
X46970242Y-168617900D01*
X46591495Y-168238490D01*
X49460200Y-168238490D01*
X49460200Y-168929050D01*
X49618950Y-169087800D01*
X50368200Y-169087800D01*
X50368200Y-167888550D01*
X50622200Y-167888550D01*
X50622200Y-169087800D01*
X51371450Y-169087800D01*
X51530200Y-168929050D01*
X51530200Y-168238490D01*
X51433527Y-168005101D01*
X51254898Y-167826473D01*
X51021509Y-167729800D01*
X50780950Y-167729800D01*
X50622200Y-167888550D01*
X50368200Y-167888550D01*
X50209450Y-167729800D01*
X49968891Y-167729800D01*
X49735502Y-167826473D01*
X49556873Y-168005101D01*
X49460200Y-168238490D01*
X46591495Y-168238490D01*
X46345589Y-167992155D01*
X45529022Y-167653087D01*
X44644857Y-167652315D01*
X43827700Y-167989958D01*
X43201955Y-168614611D01*
X42862887Y-169431178D01*
X42862115Y-170315343D01*
X43199758Y-171132500D01*
X43820972Y-171754800D01*
X31877000Y-171754800D01*
X31877000Y-158316256D01*
X37129025Y-158316256D01*
X37248164Y-158572200D01*
X38608000Y-158572200D01*
X38608000Y-157211833D01*
X38862000Y-157211833D01*
X38862000Y-158572200D01*
X40221836Y-158572200D01*
X40340975Y-158316256D01*
X40141385Y-157834382D01*
X39703379Y-157362012D01*
X39117946Y-157093217D01*
X38862000Y-157211833D01*
X38608000Y-157211833D01*
X38352054Y-157093217D01*
X37766621Y-157362012D01*
X37328615Y-157834382D01*
X37129025Y-158316256D01*
X31877000Y-158316256D01*
X31877000Y-135256944D01*
X37129025Y-135256944D01*
X37328615Y-135738818D01*
X37766621Y-136211188D01*
X38352054Y-136479983D01*
X38608000Y-136361367D01*
X38608000Y-135001000D01*
X38862000Y-135001000D01*
X38862000Y-136361367D01*
X39117946Y-136479983D01*
X39703379Y-136211188D01*
X40141385Y-135738818D01*
X40203958Y-135587745D01*
X50962461Y-135587745D01*
X51036595Y-135833864D01*
X51573823Y-136026965D01*
X52144054Y-135999778D01*
X52544605Y-135833864D01*
X52618739Y-135587745D01*
X51790600Y-134759605D01*
X50962461Y-135587745D01*
X40203958Y-135587745D01*
X40340975Y-135256944D01*
X40221836Y-135001000D01*
X38862000Y-135001000D01*
X38608000Y-135001000D01*
X37248164Y-135001000D01*
X37129025Y-135256944D01*
X31877000Y-135256944D01*
X31877000Y-119837200D01*
X44990271Y-119837200D01*
X44471955Y-120354611D01*
G36*
X79231674Y-158183977D02*
X79483564Y-158234986D01*
X80553374Y-158234986D01*
X81153000Y-158834613D01*
X81153000Y-168191157D01*
X80927172Y-168342051D01*
X80624340Y-168795270D01*
X80518000Y-169329879D01*
X80518000Y-170420521D01*
X80624340Y-170955130D01*
X80927172Y-171408349D01*
X81380391Y-171711181D01*
X81599679Y-171754800D01*
X77150321Y-171754800D01*
X77369609Y-171711181D01*
X77822828Y-171408349D01*
X78125660Y-170955130D01*
X78232000Y-170420521D01*
X78232000Y-169329879D01*
X78125660Y-168795270D01*
X77822828Y-168342051D01*
X77369609Y-168039219D01*
X76835000Y-167932879D01*
X76300391Y-168039219D01*
X75847172Y-168342051D01*
X75555670Y-168778313D01*
X75537059Y-168715259D01*
X75193026Y-168289570D01*
X74712277Y-168027940D01*
X74638070Y-168012980D01*
X74422000Y-168135480D01*
X74422000Y-169748200D01*
X74442000Y-169748200D01*
X74442000Y-170002200D01*
X74422000Y-170002200D01*
X74422000Y-170022200D01*
X74168000Y-170022200D01*
X74168000Y-170002200D01*
X71882000Y-170002200D01*
X71882000Y-170022200D01*
X71628000Y-170022200D01*
X71628000Y-170002200D01*
X71608000Y-170002200D01*
X71608000Y-169748200D01*
X71628000Y-169748200D01*
X71628000Y-168135480D01*
X71882000Y-168135480D01*
X71882000Y-169748200D01*
X74168000Y-169748200D01*
X74168000Y-168135480D01*
X73951930Y-168012980D01*
X73877723Y-168027940D01*
X73396974Y-168289570D01*
X73052941Y-168715259D01*
X73025000Y-168809923D01*
X72997059Y-168715259D01*
X72653026Y-168289570D01*
X72172277Y-168027940D01*
X72098070Y-168012980D01*
X71882000Y-168135480D01*
X71628000Y-168135480D01*
X71411930Y-168012980D01*
X71337723Y-168027940D01*
X70856974Y-168289570D01*
X70512941Y-168715259D01*
X70494330Y-168778313D01*
X70202828Y-168342051D01*
X69749609Y-168039219D01*
X69215000Y-167932879D01*
X69179986Y-167939844D01*
X70268630Y-166851200D01*
X78324155Y-166851200D01*
X78383510Y-166943441D01*
X78595710Y-167088431D01*
X78847600Y-167139440D01*
X79597600Y-167139440D01*
X79832917Y-167095162D01*
X80049041Y-166956090D01*
X80194031Y-166743890D01*
X80245040Y-166492000D01*
X80245040Y-165692000D01*
X80200762Y-165456683D01*
X80126980Y-165342022D01*
X80194031Y-165243890D01*
X80245040Y-164992000D01*
X80245040Y-164192000D01*
X80200762Y-163956683D01*
X80061690Y-163740559D01*
X79984600Y-163687886D01*
X79984600Y-161239200D01*
X79926596Y-160947595D01*
X79894353Y-160899340D01*
X79761415Y-160700384D01*
X77588470Y-158527440D01*
X78124400Y-158527440D01*
X78359717Y-158483162D01*
X78575841Y-158344090D01*
X78720831Y-158131890D01*
X78737506Y-158049546D01*
X79034928Y-158049546D01*
X79231674Y-158183977D01*
X79231674Y-158183977D01*
G37*
X79231674Y-158183977D02*
X79483564Y-158234986D01*
X80553374Y-158234986D01*
X81153000Y-158834613D01*
X81153000Y-168191157D01*
X80927172Y-168342051D01*
X80624340Y-168795270D01*
X80518000Y-169329879D01*
X80518000Y-170420521D01*
X80624340Y-170955130D01*
X80927172Y-171408349D01*
X81380391Y-171711181D01*
X81599679Y-171754800D01*
X77150321Y-171754800D01*
X77369609Y-171711181D01*
X77822828Y-171408349D01*
X78125660Y-170955130D01*
X78232000Y-170420521D01*
X78232000Y-169329879D01*
X78125660Y-168795270D01*
X77822828Y-168342051D01*
X77369609Y-168039219D01*
X76835000Y-167932879D01*
X76300391Y-168039219D01*
X75847172Y-168342051D01*
X75555670Y-168778313D01*
X75537059Y-168715259D01*
X75193026Y-168289570D01*
X74712277Y-168027940D01*
X74638070Y-168012980D01*
X74422000Y-168135480D01*
X74422000Y-169748200D01*
X74442000Y-169748200D01*
X74442000Y-170002200D01*
X74422000Y-170002200D01*
X74422000Y-170022200D01*
X74168000Y-170022200D01*
X74168000Y-170002200D01*
X71882000Y-170002200D01*
X71882000Y-170022200D01*
X71628000Y-170022200D01*
X71628000Y-170002200D01*
X71608000Y-170002200D01*
X71608000Y-169748200D01*
X71628000Y-169748200D01*
X71628000Y-168135480D01*
X71882000Y-168135480D01*
X71882000Y-169748200D01*
X74168000Y-169748200D01*
X74168000Y-168135480D01*
X73951930Y-168012980D01*
X73877723Y-168027940D01*
X73396974Y-168289570D01*
X73052941Y-168715259D01*
X73025000Y-168809923D01*
X72997059Y-168715259D01*
X72653026Y-168289570D01*
X72172277Y-168027940D01*
X72098070Y-168012980D01*
X71882000Y-168135480D01*
X71628000Y-168135480D01*
X71411930Y-168012980D01*
X71337723Y-168027940D01*
X70856974Y-168289570D01*
X70512941Y-168715259D01*
X70494330Y-168778313D01*
X70202828Y-168342051D01*
X69749609Y-168039219D01*
X69215000Y-167932879D01*
X69179986Y-167939844D01*
X70268630Y-166851200D01*
X78324155Y-166851200D01*
X78383510Y-166943441D01*
X78595710Y-167088431D01*
X78847600Y-167139440D01*
X79597600Y-167139440D01*
X79832917Y-167095162D01*
X80049041Y-166956090D01*
X80194031Y-166743890D01*
X80245040Y-166492000D01*
X80245040Y-165692000D01*
X80200762Y-165456683D01*
X80126980Y-165342022D01*
X80194031Y-165243890D01*
X80245040Y-164992000D01*
X80245040Y-164192000D01*
X80200762Y-163956683D01*
X80061690Y-163740559D01*
X79984600Y-163687886D01*
X79984600Y-161239200D01*
X79926596Y-160947595D01*
X79894353Y-160899340D01*
X79761415Y-160700384D01*
X77588470Y-158527440D01*
X78124400Y-158527440D01*
X78359717Y-158483162D01*
X78575841Y-158344090D01*
X78720831Y-158131890D01*
X78737506Y-158049546D01*
X79034928Y-158049546D01*
X79231674Y-158183977D01*
G36*
X89170414Y-157005826D02*
X89132724Y-157191946D01*
X89132724Y-157941946D01*
X89177002Y-158177263D01*
X89316074Y-158393387D01*
X89528274Y-158538377D01*
X89576930Y-158548230D01*
X89430622Y-158608833D01*
X89251993Y-158787461D01*
X89155320Y-159020850D01*
X89155320Y-159236410D01*
X89314070Y-159395160D01*
X90063320Y-159395160D01*
X90063320Y-159375160D01*
X90317320Y-159375160D01*
X90317320Y-159395160D01*
X90337320Y-159395160D01*
X90337320Y-159649160D01*
X90317320Y-159649160D01*
X90317320Y-160373410D01*
X90476070Y-160532160D01*
X90716629Y-160532160D01*
X90928320Y-160444475D01*
X90928320Y-161917849D01*
X86456185Y-166389985D01*
X86291004Y-166637195D01*
X86233000Y-166928800D01*
X86233000Y-168191157D01*
X86007172Y-168342051D01*
X85725000Y-168764350D01*
X85442828Y-168342051D01*
X85217000Y-168191157D01*
X85217000Y-167690800D01*
X85158996Y-167399195D01*
X84993815Y-167151985D01*
X83997800Y-166155970D01*
X83997800Y-160424595D01*
X84083910Y-160483431D01*
X84335800Y-160534440D01*
X85135800Y-160534440D01*
X85371117Y-160490162D01*
X85587241Y-160351090D01*
X85732231Y-160138890D01*
X85783240Y-159887000D01*
X85783240Y-159807910D01*
X89155320Y-159807910D01*
X89155320Y-160023470D01*
X89251993Y-160256859D01*
X89430622Y-160435487D01*
X89664011Y-160532160D01*
X89904570Y-160532160D01*
X90063320Y-160373410D01*
X90063320Y-159649160D01*
X89314070Y-159649160D01*
X89155320Y-159807910D01*
X85783240Y-159807910D01*
X85783240Y-159567191D01*
X86172380Y-159178051D01*
X86285576Y-159008640D01*
X86337560Y-158930841D01*
X86395564Y-158639236D01*
X86395564Y-158232728D01*
X86618881Y-158190708D01*
X86811003Y-158067081D01*
X86829638Y-158166117D01*
X86968710Y-158382241D01*
X87180910Y-158527231D01*
X87432800Y-158578240D01*
X88182800Y-158578240D01*
X88418117Y-158533962D01*
X88634241Y-158394890D01*
X88779231Y-158182690D01*
X88830240Y-157930800D01*
X88830240Y-157130800D01*
X88785962Y-156895483D01*
X88719887Y-156792800D01*
X88957388Y-156792800D01*
X89170414Y-157005826D01*
X89170414Y-157005826D01*
G37*
X89170414Y-157005826D02*
X89132724Y-157191946D01*
X89132724Y-157941946D01*
X89177002Y-158177263D01*
X89316074Y-158393387D01*
X89528274Y-158538377D01*
X89576930Y-158548230D01*
X89430622Y-158608833D01*
X89251993Y-158787461D01*
X89155320Y-159020850D01*
X89155320Y-159236410D01*
X89314070Y-159395160D01*
X90063320Y-159395160D01*
X90063320Y-159375160D01*
X90317320Y-159375160D01*
X90317320Y-159395160D01*
X90337320Y-159395160D01*
X90337320Y-159649160D01*
X90317320Y-159649160D01*
X90317320Y-160373410D01*
X90476070Y-160532160D01*
X90716629Y-160532160D01*
X90928320Y-160444475D01*
X90928320Y-161917849D01*
X86456185Y-166389985D01*
X86291004Y-166637195D01*
X86233000Y-166928800D01*
X86233000Y-168191157D01*
X86007172Y-168342051D01*
X85725000Y-168764350D01*
X85442828Y-168342051D01*
X85217000Y-168191157D01*
X85217000Y-167690800D01*
X85158996Y-167399195D01*
X84993815Y-167151985D01*
X83997800Y-166155970D01*
X83997800Y-160424595D01*
X84083910Y-160483431D01*
X84335800Y-160534440D01*
X85135800Y-160534440D01*
X85371117Y-160490162D01*
X85587241Y-160351090D01*
X85732231Y-160138890D01*
X85783240Y-159887000D01*
X85783240Y-159807910D01*
X89155320Y-159807910D01*
X89155320Y-160023470D01*
X89251993Y-160256859D01*
X89430622Y-160435487D01*
X89664011Y-160532160D01*
X89904570Y-160532160D01*
X90063320Y-160373410D01*
X90063320Y-159649160D01*
X89314070Y-159649160D01*
X89155320Y-159807910D01*
X85783240Y-159807910D01*
X85783240Y-159567191D01*
X86172380Y-159178051D01*
X86285576Y-159008640D01*
X86337560Y-158930841D01*
X86395564Y-158639236D01*
X86395564Y-158232728D01*
X86618881Y-158190708D01*
X86811003Y-158067081D01*
X86829638Y-158166117D01*
X86968710Y-158382241D01*
X87180910Y-158527231D01*
X87432800Y-158578240D01*
X88182800Y-158578240D01*
X88418117Y-158533962D01*
X88634241Y-158394890D01*
X88779231Y-158182690D01*
X88830240Y-157930800D01*
X88830240Y-157130800D01*
X88785962Y-156895483D01*
X88719887Y-156792800D01*
X88957388Y-156792800D01*
X89170414Y-157005826D01*
G36*
X45907600Y-159689800D02*
X45927600Y-159689800D01*
X45927600Y-159943800D01*
X45907600Y-159943800D01*
X45907600Y-159963800D01*
X45653600Y-159963800D01*
X45653600Y-159943800D01*
X45633600Y-159943800D01*
X45633600Y-159689800D01*
X45653600Y-159689800D01*
X45653600Y-159669800D01*
X45907600Y-159669800D01*
X45907600Y-159689800D01*
X45907600Y-159689800D01*
G37*
X45907600Y-159689800D02*
X45927600Y-159689800D01*
X45927600Y-159943800D01*
X45907600Y-159943800D01*
X45907600Y-159963800D01*
X45653600Y-159963800D01*
X45653600Y-159943800D01*
X45633600Y-159943800D01*
X45633600Y-159689800D01*
X45653600Y-159689800D01*
X45653600Y-159669800D01*
X45907600Y-159669800D01*
X45907600Y-159689800D01*
G36*
X84287133Y-149115656D02*
X84236124Y-149367546D01*
X84236124Y-149967546D01*
X84275262Y-150175546D01*
X83479054Y-150175546D01*
X83206050Y-150229850D01*
X83187449Y-150233550D01*
X82940238Y-150398731D01*
X82493785Y-150845185D01*
X82328604Y-151092395D01*
X82270600Y-151384000D01*
X82270600Y-153985546D01*
X81584727Y-153985546D01*
X81618564Y-153903856D01*
X81618564Y-153763296D01*
X81459814Y-153604546D01*
X80360564Y-153604546D01*
X80360564Y-153624546D01*
X80106564Y-153624546D01*
X80106564Y-153604546D01*
X79007314Y-153604546D01*
X78848564Y-153763296D01*
X78848564Y-153903856D01*
X78938370Y-154120668D01*
X78901589Y-154174499D01*
X78663800Y-154127200D01*
X77525630Y-154127200D01*
X78796215Y-152856615D01*
X78828844Y-152807782D01*
X78878605Y-152733311D01*
X78880402Y-152742863D01*
X78938742Y-152833526D01*
X78848564Y-153051236D01*
X78848564Y-153191796D01*
X79007314Y-153350546D01*
X80106564Y-153350546D01*
X80106564Y-153330546D01*
X80360564Y-153330546D01*
X80360564Y-153350546D01*
X81459814Y-153350546D01*
X81618564Y-153191796D01*
X81618564Y-153051236D01*
X81528758Y-152834424D01*
X81579995Y-152759436D01*
X81631004Y-152507546D01*
X81631004Y-151907546D01*
X81586726Y-151672229D01*
X81522886Y-151573018D01*
X81579995Y-151489436D01*
X81631004Y-151237546D01*
X81631004Y-150637546D01*
X81586726Y-150402229D01*
X81522886Y-150303018D01*
X81579995Y-150219436D01*
X81631004Y-149967546D01*
X81631004Y-149367546D01*
X81586726Y-149132229D01*
X81564700Y-149098000D01*
X84299197Y-149098000D01*
X84287133Y-149115656D01*
X84287133Y-149115656D01*
G37*
X84287133Y-149115656D02*
X84236124Y-149367546D01*
X84236124Y-149967546D01*
X84275262Y-150175546D01*
X83479054Y-150175546D01*
X83206050Y-150229850D01*
X83187449Y-150233550D01*
X82940238Y-150398731D01*
X82493785Y-150845185D01*
X82328604Y-151092395D01*
X82270600Y-151384000D01*
X82270600Y-153985546D01*
X81584727Y-153985546D01*
X81618564Y-153903856D01*
X81618564Y-153763296D01*
X81459814Y-153604546D01*
X80360564Y-153604546D01*
X80360564Y-153624546D01*
X80106564Y-153624546D01*
X80106564Y-153604546D01*
X79007314Y-153604546D01*
X78848564Y-153763296D01*
X78848564Y-153903856D01*
X78938370Y-154120668D01*
X78901589Y-154174499D01*
X78663800Y-154127200D01*
X77525630Y-154127200D01*
X78796215Y-152856615D01*
X78828844Y-152807782D01*
X78878605Y-152733311D01*
X78880402Y-152742863D01*
X78938742Y-152833526D01*
X78848564Y-153051236D01*
X78848564Y-153191796D01*
X79007314Y-153350546D01*
X80106564Y-153350546D01*
X80106564Y-153330546D01*
X80360564Y-153330546D01*
X80360564Y-153350546D01*
X81459814Y-153350546D01*
X81618564Y-153191796D01*
X81618564Y-153051236D01*
X81528758Y-152834424D01*
X81579995Y-152759436D01*
X81631004Y-152507546D01*
X81631004Y-151907546D01*
X81586726Y-151672229D01*
X81522886Y-151573018D01*
X81579995Y-151489436D01*
X81631004Y-151237546D01*
X81631004Y-150637546D01*
X81586726Y-150402229D01*
X81522886Y-150303018D01*
X81579995Y-150219436D01*
X81631004Y-149967546D01*
X81631004Y-149367546D01*
X81586726Y-149132229D01*
X81564700Y-149098000D01*
X84299197Y-149098000D01*
X84287133Y-149115656D01*
G36*
X88598310Y-150354241D02*
X88810510Y-150499231D01*
X88812527Y-150499640D01*
X88735959Y-150548910D01*
X88590969Y-150761110D01*
X88539960Y-151013000D01*
X88539960Y-151763934D01*
X88491699Y-151715673D01*
X88258310Y-151619000D01*
X88042750Y-151619000D01*
X87884000Y-151777750D01*
X87884000Y-152527000D01*
X87904000Y-152527000D01*
X87904000Y-152781000D01*
X87884000Y-152781000D01*
X87884000Y-152801000D01*
X87630000Y-152801000D01*
X87630000Y-152781000D01*
X87610000Y-152781000D01*
X87610000Y-152527000D01*
X87630000Y-152527000D01*
X87630000Y-151777750D01*
X87575033Y-151722783D01*
X87597396Y-151689315D01*
X87597461Y-151688987D01*
X87655400Y-151397710D01*
X87655400Y-150226430D01*
X87717031Y-150164800D01*
X88476408Y-150164800D01*
X88598310Y-150354241D01*
X88598310Y-150354241D01*
G37*
X88598310Y-150354241D02*
X88810510Y-150499231D01*
X88812527Y-150499640D01*
X88735959Y-150548910D01*
X88590969Y-150761110D01*
X88539960Y-151013000D01*
X88539960Y-151763934D01*
X88491699Y-151715673D01*
X88258310Y-151619000D01*
X88042750Y-151619000D01*
X87884000Y-151777750D01*
X87884000Y-152527000D01*
X87904000Y-152527000D01*
X87904000Y-152781000D01*
X87884000Y-152781000D01*
X87884000Y-152801000D01*
X87630000Y-152801000D01*
X87630000Y-152781000D01*
X87610000Y-152781000D01*
X87610000Y-152527000D01*
X87630000Y-152527000D01*
X87630000Y-151777750D01*
X87575033Y-151722783D01*
X87597396Y-151689315D01*
X87597461Y-151688987D01*
X87655400Y-151397710D01*
X87655400Y-150226430D01*
X87717031Y-150164800D01*
X88476408Y-150164800D01*
X88598310Y-150354241D01*
G36*
X77495400Y-152002170D02*
X76993840Y-152503730D01*
X76993840Y-152074800D01*
X76949562Y-151839483D01*
X76810490Y-151623359D01*
X76598290Y-151478369D01*
X76346400Y-151427360D01*
X76001590Y-151427360D01*
X75978514Y-151404284D01*
X75948157Y-151384000D01*
X75731304Y-151239103D01*
X75439699Y-151181099D01*
X73893283Y-151181099D01*
X73771381Y-150991658D01*
X73703285Y-150945130D01*
X73845618Y-150802797D01*
X73942291Y-150569408D01*
X73942291Y-150228849D01*
X73783541Y-150070099D01*
X72809291Y-150070099D01*
X72809291Y-150090099D01*
X72555291Y-150090099D01*
X72555291Y-150070099D01*
X71715776Y-150070099D01*
X71640205Y-150019604D01*
X71348600Y-149961600D01*
X71012331Y-149961600D01*
X71012331Y-149663289D01*
X71017120Y-149658500D01*
X71423442Y-149658500D01*
X71581041Y-149816099D01*
X72555291Y-149816099D01*
X72555291Y-149796099D01*
X72809291Y-149796099D01*
X72809291Y-149816099D01*
X73783541Y-149816099D01*
X73941140Y-149658500D01*
X76528500Y-149658500D01*
X76820105Y-149600496D01*
X77067315Y-149435315D01*
X77188643Y-149313987D01*
X77282663Y-149314069D01*
X77495400Y-149226168D01*
X77495400Y-152002170D01*
X77495400Y-152002170D01*
G37*
X77495400Y-152002170D02*
X76993840Y-152503730D01*
X76993840Y-152074800D01*
X76949562Y-151839483D01*
X76810490Y-151623359D01*
X76598290Y-151478369D01*
X76346400Y-151427360D01*
X76001590Y-151427360D01*
X75978514Y-151404284D01*
X75948157Y-151384000D01*
X75731304Y-151239103D01*
X75439699Y-151181099D01*
X73893283Y-151181099D01*
X73771381Y-150991658D01*
X73703285Y-150945130D01*
X73845618Y-150802797D01*
X73942291Y-150569408D01*
X73942291Y-150228849D01*
X73783541Y-150070099D01*
X72809291Y-150070099D01*
X72809291Y-150090099D01*
X72555291Y-150090099D01*
X72555291Y-150070099D01*
X71715776Y-150070099D01*
X71640205Y-150019604D01*
X71348600Y-149961600D01*
X71012331Y-149961600D01*
X71012331Y-149663289D01*
X71017120Y-149658500D01*
X71423442Y-149658500D01*
X71581041Y-149816099D01*
X72555291Y-149816099D01*
X72555291Y-149796099D01*
X72809291Y-149796099D01*
X72809291Y-149816099D01*
X73783541Y-149816099D01*
X73941140Y-149658500D01*
X76528500Y-149658500D01*
X76820105Y-149600496D01*
X77067315Y-149435315D01*
X77188643Y-149313987D01*
X77282663Y-149314069D01*
X77495400Y-149226168D01*
X77495400Y-152002170D01*
G36*
X66944200Y-144698418D02*
X66720883Y-144740438D01*
X66504759Y-144879510D01*
X66359769Y-145091710D01*
X66308760Y-145343600D01*
X66308760Y-145943600D01*
X66353038Y-146178917D01*
X66416878Y-146278128D01*
X66359769Y-146361710D01*
X66308760Y-146613600D01*
X66308760Y-147213600D01*
X66353038Y-147448917D01*
X66416878Y-147548128D01*
X66359769Y-147631710D01*
X66308760Y-147883600D01*
X66308760Y-148483600D01*
X66353038Y-148718917D01*
X66411378Y-148809580D01*
X66321200Y-149027290D01*
X66321200Y-149167850D01*
X66479950Y-149326600D01*
X67579200Y-149326600D01*
X67579200Y-149306600D01*
X67833200Y-149306600D01*
X67833200Y-149326600D01*
X67853200Y-149326600D01*
X67853200Y-149580600D01*
X67833200Y-149580600D01*
X67833200Y-149600600D01*
X67579200Y-149600600D01*
X67579200Y-149580600D01*
X66479950Y-149580600D01*
X66321200Y-149739350D01*
X66321200Y-149879910D01*
X66355037Y-149961600D01*
X66217800Y-149961600D01*
X66217800Y-143313539D01*
X66654691Y-143313539D01*
X66890008Y-143269261D01*
X66944200Y-143234389D01*
X66944200Y-144698418D01*
X66944200Y-144698418D01*
G37*
X66944200Y-144698418D02*
X66720883Y-144740438D01*
X66504759Y-144879510D01*
X66359769Y-145091710D01*
X66308760Y-145343600D01*
X66308760Y-145943600D01*
X66353038Y-146178917D01*
X66416878Y-146278128D01*
X66359769Y-146361710D01*
X66308760Y-146613600D01*
X66308760Y-147213600D01*
X66353038Y-147448917D01*
X66416878Y-147548128D01*
X66359769Y-147631710D01*
X66308760Y-147883600D01*
X66308760Y-148483600D01*
X66353038Y-148718917D01*
X66411378Y-148809580D01*
X66321200Y-149027290D01*
X66321200Y-149167850D01*
X66479950Y-149326600D01*
X67579200Y-149326600D01*
X67579200Y-149306600D01*
X67833200Y-149306600D01*
X67833200Y-149326600D01*
X67853200Y-149326600D01*
X67853200Y-149580600D01*
X67833200Y-149580600D01*
X67833200Y-149600600D01*
X67579200Y-149600600D01*
X67579200Y-149580600D01*
X66479950Y-149580600D01*
X66321200Y-149739350D01*
X66321200Y-149879910D01*
X66355037Y-149961600D01*
X66217800Y-149961600D01*
X66217800Y-143313539D01*
X66654691Y-143313539D01*
X66890008Y-143269261D01*
X66944200Y-143234389D01*
X66944200Y-144698418D01*
G36*
X56248038Y-146786917D02*
X56387110Y-147003041D01*
X56599310Y-147148031D01*
X56851200Y-147199040D01*
X57109225Y-147199040D01*
X56994764Y-147313500D01*
X56898091Y-147546889D01*
X56898091Y-148012449D01*
X57056841Y-148171199D01*
X57906091Y-148171199D01*
X57906091Y-147196949D01*
X57853181Y-147144039D01*
X58052641Y-147015690D01*
X58122396Y-146913600D01*
X58291384Y-146913600D01*
X58349710Y-147004241D01*
X58399409Y-147038199D01*
X58318841Y-147038199D01*
X58160091Y-147196949D01*
X58160091Y-148171199D01*
X58180091Y-148171199D01*
X58180091Y-148425199D01*
X58160091Y-148425199D01*
X58160091Y-148445199D01*
X57906091Y-148445199D01*
X57906091Y-148425199D01*
X57056841Y-148425199D01*
X56898091Y-148583949D01*
X56898091Y-149049509D01*
X56978635Y-149243960D01*
X56673800Y-149243960D01*
X56438483Y-149288238D01*
X56323822Y-149362020D01*
X56225690Y-149294969D01*
X55973800Y-149243960D01*
X55173800Y-149243960D01*
X54938483Y-149288238D01*
X54722359Y-149427310D01*
X54686200Y-149480230D01*
X54686200Y-147657440D01*
X55580600Y-147657440D01*
X55815917Y-147613162D01*
X56032041Y-147474090D01*
X56177031Y-147261890D01*
X56228040Y-147010000D01*
X56228040Y-146680637D01*
X56248038Y-146786917D01*
X56248038Y-146786917D01*
G37*
X56248038Y-146786917D02*
X56387110Y-147003041D01*
X56599310Y-147148031D01*
X56851200Y-147199040D01*
X57109225Y-147199040D01*
X56994764Y-147313500D01*
X56898091Y-147546889D01*
X56898091Y-148012449D01*
X57056841Y-148171199D01*
X57906091Y-148171199D01*
X57906091Y-147196949D01*
X57853181Y-147144039D01*
X58052641Y-147015690D01*
X58122396Y-146913600D01*
X58291384Y-146913600D01*
X58349710Y-147004241D01*
X58399409Y-147038199D01*
X58318841Y-147038199D01*
X58160091Y-147196949D01*
X58160091Y-148171199D01*
X58180091Y-148171199D01*
X58180091Y-148425199D01*
X58160091Y-148425199D01*
X58160091Y-148445199D01*
X57906091Y-148445199D01*
X57906091Y-148425199D01*
X57056841Y-148425199D01*
X56898091Y-148583949D01*
X56898091Y-149049509D01*
X56978635Y-149243960D01*
X56673800Y-149243960D01*
X56438483Y-149288238D01*
X56323822Y-149362020D01*
X56225690Y-149294969D01*
X55973800Y-149243960D01*
X55173800Y-149243960D01*
X54938483Y-149288238D01*
X54722359Y-149427310D01*
X54686200Y-149480230D01*
X54686200Y-147657440D01*
X55580600Y-147657440D01*
X55815917Y-147613162D01*
X56032041Y-147474090D01*
X56177031Y-147261890D01*
X56228040Y-147010000D01*
X56228040Y-146680637D01*
X56248038Y-146786917D01*
G36*
X67999941Y-139309340D02*
X68359230Y-139458530D01*
X68748263Y-139458869D01*
X68854246Y-139415078D01*
X68866604Y-139477205D01*
X69006655Y-139686805D01*
X69031785Y-139724415D01*
X74422985Y-145115615D01*
X74670195Y-145280796D01*
X74673319Y-145281417D01*
X74751710Y-145403241D01*
X74963910Y-145548231D01*
X75215800Y-145599240D01*
X76015800Y-145599240D01*
X76251117Y-145554962D01*
X76365778Y-145481180D01*
X76463910Y-145548231D01*
X76715800Y-145599240D01*
X77515800Y-145599240D01*
X77751117Y-145554962D01*
X77967241Y-145415890D01*
X78112231Y-145203690D01*
X78163240Y-144951800D01*
X78163240Y-144201800D01*
X78118962Y-143966483D01*
X77979890Y-143750359D01*
X77908456Y-143701550D01*
X77928441Y-143688690D01*
X77981114Y-143611600D01*
X78036243Y-143611600D01*
X78077710Y-143676041D01*
X78289910Y-143821031D01*
X78541800Y-143872040D01*
X79341800Y-143872040D01*
X79577117Y-143827762D01*
X79691778Y-143753980D01*
X79789910Y-143821031D01*
X80041800Y-143872040D01*
X80841800Y-143872040D01*
X81077117Y-143827762D01*
X81293241Y-143688690D01*
X81335784Y-143626426D01*
X81367710Y-143676041D01*
X81549698Y-143800388D01*
X81436636Y-143875934D01*
X77724314Y-147588256D01*
X77643659Y-147507460D01*
X77284370Y-147358270D01*
X76895337Y-147357931D01*
X76535788Y-147506493D01*
X76260460Y-147781341D01*
X76113815Y-148134500D01*
X73954731Y-148134500D01*
X73954731Y-147617099D01*
X73910453Y-147381782D01*
X73771381Y-147165658D01*
X73703285Y-147119130D01*
X73845618Y-146976797D01*
X73942291Y-146743408D01*
X73942291Y-146402849D01*
X73783541Y-146244099D01*
X72809291Y-146244099D01*
X72809291Y-146264099D01*
X72555291Y-146264099D01*
X72555291Y-146244099D01*
X71581041Y-146244099D01*
X71422291Y-146402849D01*
X71422291Y-146743408D01*
X71518964Y-146976797D01*
X71660201Y-147118035D01*
X71605850Y-147153009D01*
X71460860Y-147365209D01*
X71459667Y-147371099D01*
X70886535Y-147371099D01*
X70828981Y-147281658D01*
X70739000Y-147220177D01*
X70739000Y-145490790D01*
X71422291Y-145490790D01*
X71422291Y-145831349D01*
X71581041Y-145990099D01*
X72555291Y-145990099D01*
X72555291Y-145140849D01*
X72809291Y-145140849D01*
X72809291Y-145990099D01*
X73783541Y-145990099D01*
X73942291Y-145831349D01*
X73942291Y-145490790D01*
X73845618Y-145257401D01*
X73666990Y-145078772D01*
X73433601Y-144982099D01*
X72968041Y-144982099D01*
X72809291Y-145140849D01*
X72555291Y-145140849D01*
X72396541Y-144982099D01*
X71930981Y-144982099D01*
X71697592Y-145078772D01*
X71518964Y-145257401D01*
X71422291Y-145490790D01*
X70739000Y-145490790D01*
X70739000Y-145228357D01*
X70803441Y-145186890D01*
X70948431Y-144974690D01*
X70999440Y-144722800D01*
X70999440Y-143922800D01*
X70955162Y-143687483D01*
X70888671Y-143584154D01*
X70890327Y-143582498D01*
X70987000Y-143349109D01*
X70987000Y-143108550D01*
X70828250Y-142949800D01*
X70104000Y-142949800D01*
X70104000Y-142969800D01*
X69850000Y-142969800D01*
X69850000Y-142949800D01*
X69125750Y-142949800D01*
X68967000Y-143108550D01*
X68967000Y-143349109D01*
X69063673Y-143582498D01*
X69065043Y-143583868D01*
X69005569Y-143670910D01*
X68954560Y-143922800D01*
X68954560Y-144722800D01*
X68998838Y-144958117D01*
X69137910Y-145174241D01*
X69215000Y-145226914D01*
X69215000Y-147235837D01*
X69163450Y-147269009D01*
X69062500Y-147416754D01*
X69103640Y-147213600D01*
X69103640Y-146613600D01*
X69059362Y-146378283D01*
X68995522Y-146279072D01*
X69052631Y-146195490D01*
X69103640Y-145943600D01*
X69103640Y-145343600D01*
X69059362Y-145108283D01*
X68920290Y-144892159D01*
X68708090Y-144747169D01*
X68468200Y-144698590D01*
X68468200Y-143218946D01*
X68606132Y-143130189D01*
X68751122Y-142917989D01*
X68802131Y-142666099D01*
X68802131Y-142296491D01*
X68967000Y-142296491D01*
X68967000Y-142537050D01*
X69125750Y-142695800D01*
X69850000Y-142695800D01*
X69850000Y-141946550D01*
X70104000Y-141946550D01*
X70104000Y-142695800D01*
X70828250Y-142695800D01*
X70987000Y-142537050D01*
X70987000Y-142296491D01*
X70890327Y-142063102D01*
X70711699Y-141884473D01*
X70478310Y-141787800D01*
X70262750Y-141787800D01*
X70104000Y-141946550D01*
X69850000Y-141946550D01*
X69691250Y-141787800D01*
X69475690Y-141787800D01*
X69242301Y-141884473D01*
X69063673Y-142063102D01*
X68967000Y-142296491D01*
X68802131Y-142296491D01*
X68802131Y-141916099D01*
X68757853Y-141680782D01*
X68618781Y-141464658D01*
X68406581Y-141319668D01*
X68154691Y-141268659D01*
X67354691Y-141268659D01*
X67119374Y-141312937D01*
X67004713Y-141386719D01*
X66906581Y-141319668D01*
X66654691Y-141268659D01*
X66217800Y-141268659D01*
X66217800Y-139660030D01*
X66635030Y-139242800D01*
X67933517Y-139242800D01*
X67999941Y-139309340D01*
X67999941Y-139309340D01*
G37*
X67999941Y-139309340D02*
X68359230Y-139458530D01*
X68748263Y-139458869D01*
X68854246Y-139415078D01*
X68866604Y-139477205D01*
X69006655Y-139686805D01*
X69031785Y-139724415D01*
X74422985Y-145115615D01*
X74670195Y-145280796D01*
X74673319Y-145281417D01*
X74751710Y-145403241D01*
X74963910Y-145548231D01*
X75215800Y-145599240D01*
X76015800Y-145599240D01*
X76251117Y-145554962D01*
X76365778Y-145481180D01*
X76463910Y-145548231D01*
X76715800Y-145599240D01*
X77515800Y-145599240D01*
X77751117Y-145554962D01*
X77967241Y-145415890D01*
X78112231Y-145203690D01*
X78163240Y-144951800D01*
X78163240Y-144201800D01*
X78118962Y-143966483D01*
X77979890Y-143750359D01*
X77908456Y-143701550D01*
X77928441Y-143688690D01*
X77981114Y-143611600D01*
X78036243Y-143611600D01*
X78077710Y-143676041D01*
X78289910Y-143821031D01*
X78541800Y-143872040D01*
X79341800Y-143872040D01*
X79577117Y-143827762D01*
X79691778Y-143753980D01*
X79789910Y-143821031D01*
X80041800Y-143872040D01*
X80841800Y-143872040D01*
X81077117Y-143827762D01*
X81293241Y-143688690D01*
X81335784Y-143626426D01*
X81367710Y-143676041D01*
X81549698Y-143800388D01*
X81436636Y-143875934D01*
X77724314Y-147588256D01*
X77643659Y-147507460D01*
X77284370Y-147358270D01*
X76895337Y-147357931D01*
X76535788Y-147506493D01*
X76260460Y-147781341D01*
X76113815Y-148134500D01*
X73954731Y-148134500D01*
X73954731Y-147617099D01*
X73910453Y-147381782D01*
X73771381Y-147165658D01*
X73703285Y-147119130D01*
X73845618Y-146976797D01*
X73942291Y-146743408D01*
X73942291Y-146402849D01*
X73783541Y-146244099D01*
X72809291Y-146244099D01*
X72809291Y-146264099D01*
X72555291Y-146264099D01*
X72555291Y-146244099D01*
X71581041Y-146244099D01*
X71422291Y-146402849D01*
X71422291Y-146743408D01*
X71518964Y-146976797D01*
X71660201Y-147118035D01*
X71605850Y-147153009D01*
X71460860Y-147365209D01*
X71459667Y-147371099D01*
X70886535Y-147371099D01*
X70828981Y-147281658D01*
X70739000Y-147220177D01*
X70739000Y-145490790D01*
X71422291Y-145490790D01*
X71422291Y-145831349D01*
X71581041Y-145990099D01*
X72555291Y-145990099D01*
X72555291Y-145140849D01*
X72809291Y-145140849D01*
X72809291Y-145990099D01*
X73783541Y-145990099D01*
X73942291Y-145831349D01*
X73942291Y-145490790D01*
X73845618Y-145257401D01*
X73666990Y-145078772D01*
X73433601Y-144982099D01*
X72968041Y-144982099D01*
X72809291Y-145140849D01*
X72555291Y-145140849D01*
X72396541Y-144982099D01*
X71930981Y-144982099D01*
X71697592Y-145078772D01*
X71518964Y-145257401D01*
X71422291Y-145490790D01*
X70739000Y-145490790D01*
X70739000Y-145228357D01*
X70803441Y-145186890D01*
X70948431Y-144974690D01*
X70999440Y-144722800D01*
X70999440Y-143922800D01*
X70955162Y-143687483D01*
X70888671Y-143584154D01*
X70890327Y-143582498D01*
X70987000Y-143349109D01*
X70987000Y-143108550D01*
X70828250Y-142949800D01*
X70104000Y-142949800D01*
X70104000Y-142969800D01*
X69850000Y-142969800D01*
X69850000Y-142949800D01*
X69125750Y-142949800D01*
X68967000Y-143108550D01*
X68967000Y-143349109D01*
X69063673Y-143582498D01*
X69065043Y-143583868D01*
X69005569Y-143670910D01*
X68954560Y-143922800D01*
X68954560Y-144722800D01*
X68998838Y-144958117D01*
X69137910Y-145174241D01*
X69215000Y-145226914D01*
X69215000Y-147235837D01*
X69163450Y-147269009D01*
X69062500Y-147416754D01*
X69103640Y-147213600D01*
X69103640Y-146613600D01*
X69059362Y-146378283D01*
X68995522Y-146279072D01*
X69052631Y-146195490D01*
X69103640Y-145943600D01*
X69103640Y-145343600D01*
X69059362Y-145108283D01*
X68920290Y-144892159D01*
X68708090Y-144747169D01*
X68468200Y-144698590D01*
X68468200Y-143218946D01*
X68606132Y-143130189D01*
X68751122Y-142917989D01*
X68802131Y-142666099D01*
X68802131Y-142296491D01*
X68967000Y-142296491D01*
X68967000Y-142537050D01*
X69125750Y-142695800D01*
X69850000Y-142695800D01*
X69850000Y-141946550D01*
X70104000Y-141946550D01*
X70104000Y-142695800D01*
X70828250Y-142695800D01*
X70987000Y-142537050D01*
X70987000Y-142296491D01*
X70890327Y-142063102D01*
X70711699Y-141884473D01*
X70478310Y-141787800D01*
X70262750Y-141787800D01*
X70104000Y-141946550D01*
X69850000Y-141946550D01*
X69691250Y-141787800D01*
X69475690Y-141787800D01*
X69242301Y-141884473D01*
X69063673Y-142063102D01*
X68967000Y-142296491D01*
X68802131Y-142296491D01*
X68802131Y-141916099D01*
X68757853Y-141680782D01*
X68618781Y-141464658D01*
X68406581Y-141319668D01*
X68154691Y-141268659D01*
X67354691Y-141268659D01*
X67119374Y-141312937D01*
X67004713Y-141386719D01*
X66906581Y-141319668D01*
X66654691Y-141268659D01*
X66217800Y-141268659D01*
X66217800Y-139660030D01*
X66635030Y-139242800D01*
X67933517Y-139242800D01*
X67999941Y-139309340D01*
G36*
X74263472Y-134675923D02*
X74120799Y-134767730D01*
X73975809Y-134979930D01*
X73924800Y-135231820D01*
X73924800Y-137731820D01*
X73969078Y-137967137D01*
X73977924Y-137980885D01*
X73906200Y-137966360D01*
X73162410Y-137966360D01*
X73207240Y-137858130D01*
X73207240Y-136767570D01*
X73048490Y-136608820D01*
X72199240Y-136608820D01*
X72199240Y-138208070D01*
X72357990Y-138366820D01*
X72508775Y-138366820D01*
X72458760Y-138613800D01*
X72458760Y-139363800D01*
X72503038Y-139599117D01*
X72642110Y-139815241D01*
X72744200Y-139884996D01*
X72744200Y-140022556D01*
X72654759Y-140080110D01*
X72509769Y-140292310D01*
X72458760Y-140544200D01*
X72458760Y-140996130D01*
X70332600Y-138869970D01*
X70332600Y-136802600D01*
X70325633Y-136767570D01*
X70937240Y-136767570D01*
X70937240Y-137858130D01*
X71033913Y-138091519D01*
X71212542Y-138270147D01*
X71445931Y-138366820D01*
X71786490Y-138366820D01*
X71945240Y-138208070D01*
X71945240Y-136608820D01*
X71095990Y-136608820D01*
X70937240Y-136767570D01*
X70325633Y-136767570D01*
X70274596Y-136510995D01*
X70109415Y-136263785D01*
X69577040Y-135731410D01*
X69577040Y-135361600D01*
X69564315Y-135293975D01*
X70033731Y-134824560D01*
X70403540Y-134824560D01*
X70638857Y-134780282D01*
X70753518Y-134706500D01*
X70851650Y-134773551D01*
X71085190Y-134820844D01*
X71033913Y-134872121D01*
X70937240Y-135105510D01*
X70937240Y-136196070D01*
X71095990Y-136354820D01*
X71945240Y-136354820D01*
X71945240Y-136334820D01*
X72199240Y-136334820D01*
X72199240Y-136354820D01*
X73048490Y-136354820D01*
X73207240Y-136196070D01*
X73207240Y-135105510D01*
X73110567Y-134872121D01*
X72931938Y-134693493D01*
X72698549Y-134596820D01*
X72385311Y-134596820D01*
X72407654Y-134564120D01*
X74099843Y-134564120D01*
X74263472Y-134675923D01*
X74263472Y-134675923D01*
G37*
X74263472Y-134675923D02*
X74120799Y-134767730D01*
X73975809Y-134979930D01*
X73924800Y-135231820D01*
X73924800Y-137731820D01*
X73969078Y-137967137D01*
X73977924Y-137980885D01*
X73906200Y-137966360D01*
X73162410Y-137966360D01*
X73207240Y-137858130D01*
X73207240Y-136767570D01*
X73048490Y-136608820D01*
X72199240Y-136608820D01*
X72199240Y-138208070D01*
X72357990Y-138366820D01*
X72508775Y-138366820D01*
X72458760Y-138613800D01*
X72458760Y-139363800D01*
X72503038Y-139599117D01*
X72642110Y-139815241D01*
X72744200Y-139884996D01*
X72744200Y-140022556D01*
X72654759Y-140080110D01*
X72509769Y-140292310D01*
X72458760Y-140544200D01*
X72458760Y-140996130D01*
X70332600Y-138869970D01*
X70332600Y-136802600D01*
X70325633Y-136767570D01*
X70937240Y-136767570D01*
X70937240Y-137858130D01*
X71033913Y-138091519D01*
X71212542Y-138270147D01*
X71445931Y-138366820D01*
X71786490Y-138366820D01*
X71945240Y-138208070D01*
X71945240Y-136608820D01*
X71095990Y-136608820D01*
X70937240Y-136767570D01*
X70325633Y-136767570D01*
X70274596Y-136510995D01*
X70109415Y-136263785D01*
X69577040Y-135731410D01*
X69577040Y-135361600D01*
X69564315Y-135293975D01*
X70033731Y-134824560D01*
X70403540Y-134824560D01*
X70638857Y-134780282D01*
X70753518Y-134706500D01*
X70851650Y-134773551D01*
X71085190Y-134820844D01*
X71033913Y-134872121D01*
X70937240Y-135105510D01*
X70937240Y-136196070D01*
X71095990Y-136354820D01*
X71945240Y-136354820D01*
X71945240Y-136334820D01*
X72199240Y-136334820D01*
X72199240Y-136354820D01*
X73048490Y-136354820D01*
X73207240Y-136196070D01*
X73207240Y-135105510D01*
X73110567Y-134872121D01*
X72931938Y-134693493D01*
X72698549Y-134596820D01*
X72385311Y-134596820D01*
X72407654Y-134564120D01*
X74099843Y-134564120D01*
X74263472Y-134675923D01*
G36*
X81243960Y-136402800D02*
X81243960Y-137002800D01*
X81283098Y-137210800D01*
X78592563Y-137210800D01*
X78626400Y-137129110D01*
X78626400Y-136988550D01*
X78467650Y-136829800D01*
X77368400Y-136829800D01*
X77368400Y-136849800D01*
X77114400Y-136849800D01*
X77114400Y-136829800D01*
X77094400Y-136829800D01*
X77094400Y-136575800D01*
X77114400Y-136575800D01*
X77114400Y-136555800D01*
X77368400Y-136555800D01*
X77368400Y-136575800D01*
X78467650Y-136575800D01*
X78626400Y-136417050D01*
X78626400Y-136276490D01*
X78592563Y-136194800D01*
X81286081Y-136194800D01*
X81243960Y-136402800D01*
X81243960Y-136402800D01*
G37*
X81243960Y-136402800D02*
X81243960Y-137002800D01*
X81283098Y-137210800D01*
X78592563Y-137210800D01*
X78626400Y-137129110D01*
X78626400Y-136988550D01*
X78467650Y-136829800D01*
X77368400Y-136829800D01*
X77368400Y-136849800D01*
X77114400Y-136849800D01*
X77114400Y-136829800D01*
X77094400Y-136829800D01*
X77094400Y-136575800D01*
X77114400Y-136575800D01*
X77114400Y-136555800D01*
X77368400Y-136555800D01*
X77368400Y-136575800D01*
X78467650Y-136575800D01*
X78626400Y-136417050D01*
X78626400Y-136276490D01*
X78592563Y-136194800D01*
X81286081Y-136194800D01*
X81243960Y-136402800D01*
D31*
X44526200Y-160070800D03*
X48945800Y-169214800D03*
X92938600Y-131114800D03*
X71145400Y-149860000D03*
X90195400Y-160883600D03*
X71247000Y-146050000D03*
X71145400Y-142849600D03*
X66522600Y-143814800D03*
X70231000Y-136753600D03*
X44592200Y-158866800D03*
X50165000Y-160680400D03*
X58033091Y-149301200D03*
X54889400Y-148285200D03*
X66167000Y-149453600D03*
X79933800Y-136702800D03*
X86842600Y-136144000D03*
X93345000Y-153771600D03*
X87706200Y-151028400D03*
X81813400Y-153466800D03*
X64693800Y-149479000D03*
X64693800Y-140716000D03*
X77089000Y-148336000D03*
X79070200Y-148336000D03*
X64643000Y-151384000D03*
X69011800Y-149656800D03*
X75920600Y-136753600D03*
X68554600Y-138480800D03*
D32*
X61899800Y-137261600D03*
X51790600Y-132080000D03*
X51790600Y-134580000D03*
X38735000Y-161239200D03*
X38735000Y-158699200D03*
X38735000Y-132334000D03*
X38735000Y-134874000D03*
X94615000Y-169875200D03*
X92075000Y-169875200D03*
X89535000Y-169875200D03*
X81915000Y-169875200D03*
X84455000Y-169875200D03*
X86995000Y-169875200D03*
X76835000Y-169875200D03*
X74295000Y-169875200D03*
X71755000Y-169875200D03*
X66675000Y-169875200D03*
X64135000Y-169875200D03*
X94615000Y-121615200D03*
X92075000Y-121615200D03*
X89535000Y-121615200D03*
X86995000Y-121615200D03*
X84455000Y-121615200D03*
X81915000Y-121615200D03*
X79375000Y-121615200D03*
X76835000Y-121615200D03*
X72771000Y-121615200D03*
X70231000Y-121615200D03*
X67691000Y-121615200D03*
X65151000Y-121615200D03*
X62611000Y-121615200D03*
X60071000Y-121615200D03*
X57531000Y-121615200D03*
X54991000Y-121615200D03*
X69215000Y-169875200D03*
X97155000Y-164795200D03*
X97155000Y-136855200D03*
X46355000Y-121615200D03*
X45085000Y-169875200D03*
X52451000Y-121615200D03*
X49911000Y-121615200D03*
X61595000Y-169875200D03*
X59055000Y-169875200D03*
M02*
