%TF.GenerationSoftware,KiCad,Pcbnew,4.0.7-e2-6376~58~ubuntu16.04.1*%
%TF.CreationDate,2017-10-04T18:34:51-07:00*%
%TF.ProjectId,mcphail-zero-analog-shield,6D63706861696C2D7A65726F2D616E61,v1.0*%
%TF.FileFunction,Soldermask,Top*%
%FSLAX46Y46*%
G04 Gerber Fmt 4.6, Leading zero omitted, Abs format (unit mm)*
G04 Created by KiCad (PCBNEW 4.0.7-e2-6376~58~ubuntu16.04.1) date Wed Oct  4 18:34:51 2017*
%MOMM*%
%LPD*%
G01*
G04 APERTURE LIST*
%ADD10C,0.350000*%
G04 APERTURE END LIST*
D10*
G36*
X45259749Y-168212606D02*
X45579347Y-168278210D01*
X45880128Y-168404647D01*
X46150616Y-168587094D01*
X46380516Y-168818603D01*
X46561069Y-169090358D01*
X46685400Y-169392008D01*
X46748704Y-169711717D01*
X46748704Y-169711727D01*
X46748771Y-169712066D01*
X46743568Y-170084726D01*
X46743491Y-170085064D01*
X46743491Y-170085073D01*
X46671285Y-170402890D01*
X46538581Y-170700947D01*
X46350508Y-170967557D01*
X46114233Y-171192559D01*
X45838756Y-171367382D01*
X45534565Y-171485370D01*
X45213257Y-171542025D01*
X44887058Y-171535192D01*
X44568399Y-171465130D01*
X44269417Y-171334509D01*
X44001506Y-171148305D01*
X43774860Y-170913607D01*
X43598117Y-170639354D01*
X43478007Y-170335993D01*
X43419111Y-170015091D01*
X43423666Y-169688853D01*
X43491502Y-169369711D01*
X43620031Y-169069828D01*
X43804364Y-168800618D01*
X44037472Y-168572341D01*
X44310484Y-168393687D01*
X44612996Y-168271464D01*
X44933483Y-168210328D01*
X45259749Y-168212606D01*
X45259749Y-168212606D01*
G37*
G36*
X94783544Y-168539606D02*
X94939816Y-168587980D01*
X95083715Y-168665787D01*
X95209762Y-168770062D01*
X95313155Y-168896833D01*
X95389954Y-169041273D01*
X95437237Y-169197879D01*
X95453200Y-169360686D01*
X95453200Y-170389746D01*
X95453133Y-170399359D01*
X95453132Y-170399365D01*
X95453118Y-170401417D01*
X95434883Y-170563986D01*
X95385419Y-170719916D01*
X95306610Y-170863269D01*
X95201458Y-170988585D01*
X95073967Y-171091090D01*
X94928995Y-171166880D01*
X94772063Y-171213067D01*
X94772022Y-171213071D01*
X94772018Y-171213072D01*
X94609151Y-171227894D01*
X94609148Y-171227894D01*
X94446456Y-171210794D01*
X94290184Y-171162420D01*
X94146285Y-171084613D01*
X94020238Y-170980338D01*
X93916845Y-170853567D01*
X93840046Y-170709127D01*
X93792763Y-170552521D01*
X93776800Y-170389714D01*
X93776800Y-169360654D01*
X93776867Y-169351041D01*
X93776868Y-169351035D01*
X93776882Y-169348983D01*
X93795117Y-169186414D01*
X93844581Y-169030484D01*
X93923390Y-168887131D01*
X94028542Y-168761815D01*
X94156033Y-168659310D01*
X94301005Y-168583520D01*
X94457937Y-168537333D01*
X94457978Y-168537329D01*
X94457982Y-168537328D01*
X94620850Y-168522506D01*
X94620852Y-168522506D01*
X94783544Y-168539606D01*
X94783544Y-168539606D01*
G37*
G36*
X61763544Y-168539606D02*
X61919816Y-168587980D01*
X62063715Y-168665787D01*
X62189762Y-168770062D01*
X62293155Y-168896833D01*
X62369954Y-169041273D01*
X62417237Y-169197879D01*
X62433200Y-169360686D01*
X62433200Y-170389746D01*
X62433133Y-170399359D01*
X62433132Y-170399365D01*
X62433118Y-170401417D01*
X62414883Y-170563986D01*
X62365419Y-170719916D01*
X62286610Y-170863269D01*
X62181458Y-170988585D01*
X62053967Y-171091090D01*
X61908995Y-171166880D01*
X61752063Y-171213067D01*
X61752022Y-171213071D01*
X61752018Y-171213072D01*
X61589151Y-171227894D01*
X61589148Y-171227894D01*
X61426456Y-171210794D01*
X61270184Y-171162420D01*
X61126285Y-171084613D01*
X61000238Y-170980338D01*
X60896845Y-170853567D01*
X60820046Y-170709127D01*
X60772763Y-170552521D01*
X60756800Y-170389714D01*
X60756800Y-169360654D01*
X60756867Y-169351041D01*
X60756868Y-169351035D01*
X60756882Y-169348983D01*
X60775117Y-169186414D01*
X60824581Y-169030484D01*
X60903390Y-168887131D01*
X61008542Y-168761815D01*
X61136033Y-168659310D01*
X61281005Y-168583520D01*
X61437937Y-168537333D01*
X61437978Y-168537329D01*
X61437982Y-168537328D01*
X61600850Y-168522506D01*
X61600852Y-168522506D01*
X61763544Y-168539606D01*
X61763544Y-168539606D01*
G37*
G36*
X69383544Y-168539606D02*
X69539816Y-168587980D01*
X69683715Y-168665787D01*
X69809762Y-168770062D01*
X69913155Y-168896833D01*
X69989954Y-169041273D01*
X70037237Y-169197879D01*
X70053200Y-169360686D01*
X70053200Y-170389746D01*
X70053133Y-170399359D01*
X70053132Y-170399365D01*
X70053118Y-170401417D01*
X70034883Y-170563986D01*
X69985419Y-170719916D01*
X69906610Y-170863269D01*
X69801458Y-170988585D01*
X69673967Y-171091090D01*
X69528995Y-171166880D01*
X69372063Y-171213067D01*
X69372022Y-171213071D01*
X69372018Y-171213072D01*
X69209151Y-171227894D01*
X69209148Y-171227894D01*
X69046456Y-171210794D01*
X68890184Y-171162420D01*
X68746285Y-171084613D01*
X68620238Y-170980338D01*
X68516845Y-170853567D01*
X68440046Y-170709127D01*
X68392763Y-170552521D01*
X68376800Y-170389714D01*
X68376800Y-169360654D01*
X68376867Y-169351041D01*
X68376868Y-169351035D01*
X68376882Y-169348983D01*
X68395117Y-169186414D01*
X68444581Y-169030484D01*
X68523390Y-168887131D01*
X68628542Y-168761815D01*
X68756033Y-168659310D01*
X68901005Y-168583520D01*
X69057937Y-168537333D01*
X69057978Y-168537329D01*
X69057982Y-168537328D01*
X69220850Y-168522506D01*
X69220852Y-168522506D01*
X69383544Y-168539606D01*
X69383544Y-168539606D01*
G37*
G36*
X64303544Y-168539606D02*
X64459816Y-168587980D01*
X64603715Y-168665787D01*
X64729762Y-168770062D01*
X64833155Y-168896833D01*
X64909954Y-169041273D01*
X64957237Y-169197879D01*
X64973200Y-169360686D01*
X64973200Y-170389746D01*
X64973133Y-170399359D01*
X64973132Y-170399365D01*
X64973118Y-170401417D01*
X64954883Y-170563986D01*
X64905419Y-170719916D01*
X64826610Y-170863269D01*
X64721458Y-170988585D01*
X64593967Y-171091090D01*
X64448995Y-171166880D01*
X64292063Y-171213067D01*
X64292022Y-171213071D01*
X64292018Y-171213072D01*
X64129151Y-171227894D01*
X64129148Y-171227894D01*
X63966456Y-171210794D01*
X63810184Y-171162420D01*
X63666285Y-171084613D01*
X63540238Y-170980338D01*
X63436845Y-170853567D01*
X63360046Y-170709127D01*
X63312763Y-170552521D01*
X63296800Y-170389714D01*
X63296800Y-169360654D01*
X63296867Y-169351041D01*
X63296868Y-169351035D01*
X63296882Y-169348983D01*
X63315117Y-169186414D01*
X63364581Y-169030484D01*
X63443390Y-168887131D01*
X63548542Y-168761815D01*
X63676033Y-168659310D01*
X63821005Y-168583520D01*
X63977937Y-168537333D01*
X63977978Y-168537329D01*
X63977982Y-168537328D01*
X64140850Y-168522506D01*
X64140852Y-168522506D01*
X64303544Y-168539606D01*
X64303544Y-168539606D01*
G37*
G36*
X66843544Y-168539606D02*
X66999816Y-168587980D01*
X67143715Y-168665787D01*
X67269762Y-168770062D01*
X67373155Y-168896833D01*
X67449954Y-169041273D01*
X67497237Y-169197879D01*
X67513200Y-169360686D01*
X67513200Y-170389746D01*
X67513133Y-170399359D01*
X67513132Y-170399365D01*
X67513118Y-170401417D01*
X67494883Y-170563986D01*
X67445419Y-170719916D01*
X67366610Y-170863269D01*
X67261458Y-170988585D01*
X67133967Y-171091090D01*
X66988995Y-171166880D01*
X66832063Y-171213067D01*
X66832022Y-171213071D01*
X66832018Y-171213072D01*
X66669151Y-171227894D01*
X66669148Y-171227894D01*
X66506456Y-171210794D01*
X66350184Y-171162420D01*
X66206285Y-171084613D01*
X66080238Y-170980338D01*
X65976845Y-170853567D01*
X65900046Y-170709127D01*
X65852763Y-170552521D01*
X65836800Y-170389714D01*
X65836800Y-169360654D01*
X65836867Y-169351041D01*
X65836868Y-169351035D01*
X65836882Y-169348983D01*
X65855117Y-169186414D01*
X65904581Y-169030484D01*
X65983390Y-168887131D01*
X66088542Y-168761815D01*
X66216033Y-168659310D01*
X66361005Y-168583520D01*
X66517937Y-168537333D01*
X66517978Y-168537329D01*
X66517982Y-168537328D01*
X66680850Y-168522506D01*
X66680852Y-168522506D01*
X66843544Y-168539606D01*
X66843544Y-168539606D01*
G37*
G36*
X71923544Y-168539606D02*
X72079816Y-168587980D01*
X72223715Y-168665787D01*
X72349762Y-168770062D01*
X72453155Y-168896833D01*
X72529954Y-169041273D01*
X72577237Y-169197879D01*
X72593200Y-169360686D01*
X72593200Y-170389746D01*
X72593133Y-170399359D01*
X72593132Y-170399365D01*
X72593118Y-170401417D01*
X72574883Y-170563986D01*
X72525419Y-170719916D01*
X72446610Y-170863269D01*
X72341458Y-170988585D01*
X72213967Y-171091090D01*
X72068995Y-171166880D01*
X71912063Y-171213067D01*
X71912022Y-171213071D01*
X71912018Y-171213072D01*
X71749151Y-171227894D01*
X71749148Y-171227894D01*
X71586456Y-171210794D01*
X71430184Y-171162420D01*
X71286285Y-171084613D01*
X71160238Y-170980338D01*
X71056845Y-170853567D01*
X70980046Y-170709127D01*
X70932763Y-170552521D01*
X70916800Y-170389714D01*
X70916800Y-169360654D01*
X70916867Y-169351041D01*
X70916868Y-169351035D01*
X70916882Y-169348983D01*
X70935117Y-169186414D01*
X70984581Y-169030484D01*
X71063390Y-168887131D01*
X71168542Y-168761815D01*
X71296033Y-168659310D01*
X71441005Y-168583520D01*
X71597937Y-168537333D01*
X71597978Y-168537329D01*
X71597982Y-168537328D01*
X71760850Y-168522506D01*
X71760852Y-168522506D01*
X71923544Y-168539606D01*
X71923544Y-168539606D01*
G37*
G36*
X74463544Y-168539606D02*
X74619816Y-168587980D01*
X74763715Y-168665787D01*
X74889762Y-168770062D01*
X74993155Y-168896833D01*
X75069954Y-169041273D01*
X75117237Y-169197879D01*
X75133200Y-169360686D01*
X75133200Y-170389746D01*
X75133133Y-170399359D01*
X75133132Y-170399365D01*
X75133118Y-170401417D01*
X75114883Y-170563986D01*
X75065419Y-170719916D01*
X74986610Y-170863269D01*
X74881458Y-170988585D01*
X74753967Y-171091090D01*
X74608995Y-171166880D01*
X74452063Y-171213067D01*
X74452022Y-171213071D01*
X74452018Y-171213072D01*
X74289151Y-171227894D01*
X74289148Y-171227894D01*
X74126456Y-171210794D01*
X73970184Y-171162420D01*
X73826285Y-171084613D01*
X73700238Y-170980338D01*
X73596845Y-170853567D01*
X73520046Y-170709127D01*
X73472763Y-170552521D01*
X73456800Y-170389714D01*
X73456800Y-169360654D01*
X73456867Y-169351041D01*
X73456868Y-169351035D01*
X73456882Y-169348983D01*
X73475117Y-169186414D01*
X73524581Y-169030484D01*
X73603390Y-168887131D01*
X73708542Y-168761815D01*
X73836033Y-168659310D01*
X73981005Y-168583520D01*
X74137937Y-168537333D01*
X74137978Y-168537329D01*
X74137982Y-168537328D01*
X74300850Y-168522506D01*
X74300852Y-168522506D01*
X74463544Y-168539606D01*
X74463544Y-168539606D01*
G37*
G36*
X87163544Y-168539606D02*
X87319816Y-168587980D01*
X87463715Y-168665787D01*
X87589762Y-168770062D01*
X87693155Y-168896833D01*
X87769954Y-169041273D01*
X87817237Y-169197879D01*
X87833200Y-169360686D01*
X87833200Y-170389746D01*
X87833133Y-170399359D01*
X87833132Y-170399365D01*
X87833118Y-170401417D01*
X87814883Y-170563986D01*
X87765419Y-170719916D01*
X87686610Y-170863269D01*
X87581458Y-170988585D01*
X87453967Y-171091090D01*
X87308995Y-171166880D01*
X87152063Y-171213067D01*
X87152022Y-171213071D01*
X87152018Y-171213072D01*
X86989151Y-171227894D01*
X86989148Y-171227894D01*
X86826456Y-171210794D01*
X86670184Y-171162420D01*
X86526285Y-171084613D01*
X86400238Y-170980338D01*
X86296845Y-170853567D01*
X86220046Y-170709127D01*
X86172763Y-170552521D01*
X86156800Y-170389714D01*
X86156800Y-169360654D01*
X86156867Y-169351041D01*
X86156868Y-169351035D01*
X86156882Y-169348983D01*
X86175117Y-169186414D01*
X86224581Y-169030484D01*
X86303390Y-168887131D01*
X86408542Y-168761815D01*
X86536033Y-168659310D01*
X86681005Y-168583520D01*
X86837937Y-168537333D01*
X86837978Y-168537329D01*
X86837982Y-168537328D01*
X87000850Y-168522506D01*
X87000852Y-168522506D01*
X87163544Y-168539606D01*
X87163544Y-168539606D01*
G37*
G36*
X77003544Y-168539606D02*
X77159816Y-168587980D01*
X77303715Y-168665787D01*
X77429762Y-168770062D01*
X77533155Y-168896833D01*
X77609954Y-169041273D01*
X77657237Y-169197879D01*
X77673200Y-169360686D01*
X77673200Y-170389746D01*
X77673133Y-170399359D01*
X77673132Y-170399365D01*
X77673118Y-170401417D01*
X77654883Y-170563986D01*
X77605419Y-170719916D01*
X77526610Y-170863269D01*
X77421458Y-170988585D01*
X77293967Y-171091090D01*
X77148995Y-171166880D01*
X76992063Y-171213067D01*
X76992022Y-171213071D01*
X76992018Y-171213072D01*
X76829151Y-171227894D01*
X76829148Y-171227894D01*
X76666456Y-171210794D01*
X76510184Y-171162420D01*
X76366285Y-171084613D01*
X76240238Y-170980338D01*
X76136845Y-170853567D01*
X76060046Y-170709127D01*
X76012763Y-170552521D01*
X75996800Y-170389714D01*
X75996800Y-169360654D01*
X75996867Y-169351041D01*
X75996868Y-169351035D01*
X75996882Y-169348983D01*
X76015117Y-169186414D01*
X76064581Y-169030484D01*
X76143390Y-168887131D01*
X76248542Y-168761815D01*
X76376033Y-168659310D01*
X76521005Y-168583520D01*
X76677937Y-168537333D01*
X76677978Y-168537329D01*
X76677982Y-168537328D01*
X76840850Y-168522506D01*
X76840852Y-168522506D01*
X77003544Y-168539606D01*
X77003544Y-168539606D01*
G37*
G36*
X59223544Y-168539606D02*
X59379816Y-168587980D01*
X59523715Y-168665787D01*
X59649762Y-168770062D01*
X59753155Y-168896833D01*
X59829954Y-169041273D01*
X59877237Y-169197879D01*
X59893200Y-169360686D01*
X59893200Y-170389746D01*
X59893133Y-170399359D01*
X59893132Y-170399365D01*
X59893118Y-170401417D01*
X59874883Y-170563986D01*
X59825419Y-170719916D01*
X59746610Y-170863269D01*
X59641458Y-170988585D01*
X59513967Y-171091090D01*
X59368995Y-171166880D01*
X59212063Y-171213067D01*
X59212022Y-171213071D01*
X59212018Y-171213072D01*
X59049151Y-171227894D01*
X59049148Y-171227894D01*
X58886456Y-171210794D01*
X58730184Y-171162420D01*
X58586285Y-171084613D01*
X58460238Y-170980338D01*
X58356845Y-170853567D01*
X58280046Y-170709127D01*
X58232763Y-170552521D01*
X58216800Y-170389714D01*
X58216800Y-169360654D01*
X58216867Y-169351041D01*
X58216868Y-169351035D01*
X58216882Y-169348983D01*
X58235117Y-169186414D01*
X58284581Y-169030484D01*
X58363390Y-168887131D01*
X58468542Y-168761815D01*
X58596033Y-168659310D01*
X58741005Y-168583520D01*
X58897937Y-168537333D01*
X58897978Y-168537329D01*
X58897982Y-168537328D01*
X59060850Y-168522506D01*
X59060852Y-168522506D01*
X59223544Y-168539606D01*
X59223544Y-168539606D01*
G37*
G36*
X92243544Y-168539606D02*
X92399816Y-168587980D01*
X92543715Y-168665787D01*
X92669762Y-168770062D01*
X92773155Y-168896833D01*
X92849954Y-169041273D01*
X92897237Y-169197879D01*
X92913200Y-169360686D01*
X92913200Y-170389746D01*
X92913133Y-170399359D01*
X92913132Y-170399365D01*
X92913118Y-170401417D01*
X92894883Y-170563986D01*
X92845419Y-170719916D01*
X92766610Y-170863269D01*
X92661458Y-170988585D01*
X92533967Y-171091090D01*
X92388995Y-171166880D01*
X92232063Y-171213067D01*
X92232022Y-171213071D01*
X92232018Y-171213072D01*
X92069151Y-171227894D01*
X92069148Y-171227894D01*
X91906456Y-171210794D01*
X91750184Y-171162420D01*
X91606285Y-171084613D01*
X91480238Y-170980338D01*
X91376845Y-170853567D01*
X91300046Y-170709127D01*
X91252763Y-170552521D01*
X91236800Y-170389714D01*
X91236800Y-169360654D01*
X91236867Y-169351041D01*
X91236868Y-169351035D01*
X91236882Y-169348983D01*
X91255117Y-169186414D01*
X91304581Y-169030484D01*
X91383390Y-168887131D01*
X91488542Y-168761815D01*
X91616033Y-168659310D01*
X91761005Y-168583520D01*
X91917937Y-168537333D01*
X91917978Y-168537329D01*
X91917982Y-168537328D01*
X92080850Y-168522506D01*
X92080852Y-168522506D01*
X92243544Y-168539606D01*
X92243544Y-168539606D01*
G37*
G36*
X82083544Y-168539606D02*
X82239816Y-168587980D01*
X82383715Y-168665787D01*
X82509762Y-168770062D01*
X82613155Y-168896833D01*
X82689954Y-169041273D01*
X82737237Y-169197879D01*
X82753200Y-169360686D01*
X82753200Y-170389746D01*
X82753133Y-170399359D01*
X82753132Y-170399365D01*
X82753118Y-170401417D01*
X82734883Y-170563986D01*
X82685419Y-170719916D01*
X82606610Y-170863269D01*
X82501458Y-170988585D01*
X82373967Y-171091090D01*
X82228995Y-171166880D01*
X82072063Y-171213067D01*
X82072022Y-171213071D01*
X82072018Y-171213072D01*
X81909151Y-171227894D01*
X81909148Y-171227894D01*
X81746456Y-171210794D01*
X81590184Y-171162420D01*
X81446285Y-171084613D01*
X81320238Y-170980338D01*
X81216845Y-170853567D01*
X81140046Y-170709127D01*
X81092763Y-170552521D01*
X81076800Y-170389714D01*
X81076800Y-169360654D01*
X81076867Y-169351041D01*
X81076868Y-169351035D01*
X81076882Y-169348983D01*
X81095117Y-169186414D01*
X81144581Y-169030484D01*
X81223390Y-168887131D01*
X81328542Y-168761815D01*
X81456033Y-168659310D01*
X81601005Y-168583520D01*
X81757937Y-168537333D01*
X81757978Y-168537329D01*
X81757982Y-168537328D01*
X81920850Y-168522506D01*
X81920852Y-168522506D01*
X82083544Y-168539606D01*
X82083544Y-168539606D01*
G37*
G36*
X89703544Y-168539606D02*
X89859816Y-168587980D01*
X90003715Y-168665787D01*
X90129762Y-168770062D01*
X90233155Y-168896833D01*
X90309954Y-169041273D01*
X90357237Y-169197879D01*
X90373200Y-169360686D01*
X90373200Y-170389746D01*
X90373133Y-170399359D01*
X90373132Y-170399365D01*
X90373118Y-170401417D01*
X90354883Y-170563986D01*
X90305419Y-170719916D01*
X90226610Y-170863269D01*
X90121458Y-170988585D01*
X89993967Y-171091090D01*
X89848995Y-171166880D01*
X89692063Y-171213067D01*
X89692022Y-171213071D01*
X89692018Y-171213072D01*
X89529151Y-171227894D01*
X89529148Y-171227894D01*
X89366456Y-171210794D01*
X89210184Y-171162420D01*
X89066285Y-171084613D01*
X88940238Y-170980338D01*
X88836845Y-170853567D01*
X88760046Y-170709127D01*
X88712763Y-170552521D01*
X88696800Y-170389714D01*
X88696800Y-169360654D01*
X88696867Y-169351041D01*
X88696868Y-169351035D01*
X88696882Y-169348983D01*
X88715117Y-169186414D01*
X88764581Y-169030484D01*
X88843390Y-168887131D01*
X88948542Y-168761815D01*
X89076033Y-168659310D01*
X89221005Y-168583520D01*
X89377937Y-168537333D01*
X89377978Y-168537329D01*
X89377982Y-168537328D01*
X89540850Y-168522506D01*
X89540852Y-168522506D01*
X89703544Y-168539606D01*
X89703544Y-168539606D01*
G37*
G36*
X84623544Y-168539606D02*
X84779816Y-168587980D01*
X84923715Y-168665787D01*
X85049762Y-168770062D01*
X85153155Y-168896833D01*
X85229954Y-169041273D01*
X85277237Y-169197879D01*
X85293200Y-169360686D01*
X85293200Y-170389746D01*
X85293133Y-170399359D01*
X85293132Y-170399365D01*
X85293118Y-170401417D01*
X85274883Y-170563986D01*
X85225419Y-170719916D01*
X85146610Y-170863269D01*
X85041458Y-170988585D01*
X84913967Y-171091090D01*
X84768995Y-171166880D01*
X84612063Y-171213067D01*
X84612022Y-171213071D01*
X84612018Y-171213072D01*
X84449151Y-171227894D01*
X84449148Y-171227894D01*
X84286456Y-171210794D01*
X84130184Y-171162420D01*
X83986285Y-171084613D01*
X83860238Y-170980338D01*
X83756845Y-170853567D01*
X83680046Y-170709127D01*
X83632763Y-170552521D01*
X83616800Y-170389714D01*
X83616800Y-169360654D01*
X83616867Y-169351041D01*
X83616868Y-169351035D01*
X83616882Y-169348983D01*
X83635117Y-169186414D01*
X83684581Y-169030484D01*
X83763390Y-168887131D01*
X83868542Y-168761815D01*
X83996033Y-168659310D01*
X84141005Y-168583520D01*
X84297937Y-168537333D01*
X84297978Y-168537329D01*
X84297982Y-168537328D01*
X84460850Y-168522506D01*
X84460852Y-168522506D01*
X84623544Y-168539606D01*
X84623544Y-168539606D01*
G37*
G36*
X50971400Y-170141000D02*
X50019000Y-170141000D01*
X50019000Y-168288600D01*
X50971400Y-168288600D01*
X50971400Y-170141000D01*
X50971400Y-170141000D01*
G37*
G36*
X54371400Y-170141000D02*
X53419000Y-170141000D01*
X53419000Y-168288600D01*
X54371400Y-168288600D01*
X54371400Y-170141000D01*
X54371400Y-170141000D01*
G37*
G36*
X79673800Y-166568200D02*
X78771400Y-166568200D01*
X78771400Y-165615800D01*
X79673800Y-165615800D01*
X79673800Y-166568200D01*
X79673800Y-166568200D01*
G37*
G36*
X97329749Y-163132606D02*
X97649347Y-163198210D01*
X97950128Y-163324647D01*
X98220616Y-163507094D01*
X98450516Y-163738603D01*
X98631069Y-164010358D01*
X98755400Y-164312008D01*
X98818704Y-164631717D01*
X98818704Y-164631727D01*
X98818771Y-164632066D01*
X98813568Y-165004726D01*
X98813491Y-165005064D01*
X98813491Y-165005073D01*
X98741285Y-165322890D01*
X98608581Y-165620947D01*
X98420508Y-165887557D01*
X98184233Y-166112559D01*
X97908756Y-166287382D01*
X97604565Y-166405370D01*
X97283257Y-166462025D01*
X96957058Y-166455192D01*
X96638399Y-166385130D01*
X96339417Y-166254509D01*
X96071506Y-166068305D01*
X95844860Y-165833607D01*
X95668117Y-165559354D01*
X95548007Y-165255993D01*
X95489111Y-164935091D01*
X95493666Y-164608853D01*
X95561502Y-164289711D01*
X95690031Y-163989828D01*
X95874364Y-163720618D01*
X96107472Y-163492341D01*
X96380484Y-163313687D01*
X96682996Y-163191464D01*
X97003483Y-163130328D01*
X97329749Y-163132606D01*
X97329749Y-163132606D01*
G37*
G36*
X79673800Y-165068200D02*
X78771400Y-165068200D01*
X78771400Y-164115800D01*
X79673800Y-164115800D01*
X79673800Y-165068200D01*
X79673800Y-165068200D01*
G37*
G36*
X39827200Y-162331400D02*
X37642800Y-162331400D01*
X37642800Y-160147000D01*
X39827200Y-160147000D01*
X39827200Y-162331400D01*
X39827200Y-162331400D01*
G37*
G36*
X48586800Y-160218000D02*
X47374400Y-160218000D01*
X47374400Y-159415600D01*
X48586800Y-159415600D01*
X48586800Y-160218000D01*
X48586800Y-160218000D01*
G37*
G36*
X46386800Y-160218000D02*
X45174400Y-160218000D01*
X45174400Y-159415600D01*
X46386800Y-159415600D01*
X46386800Y-160218000D01*
X46386800Y-160218000D01*
G37*
G36*
X92166520Y-159973360D02*
X91214120Y-159973360D01*
X91214120Y-159070960D01*
X92166520Y-159070960D01*
X92166520Y-159973360D01*
X92166520Y-159973360D01*
G37*
G36*
X90666520Y-159973360D02*
X89714120Y-159973360D01*
X89714120Y-159070960D01*
X90666520Y-159070960D01*
X90666520Y-159973360D01*
X90666520Y-159973360D01*
G37*
G36*
X85212000Y-159963200D02*
X84259600Y-159963200D01*
X84259600Y-159060800D01*
X85212000Y-159060800D01*
X85212000Y-159963200D01*
X85212000Y-159963200D01*
G37*
G36*
X83712000Y-159963200D02*
X82759600Y-159963200D01*
X82759600Y-159060800D01*
X83712000Y-159060800D01*
X83712000Y-159963200D01*
X83712000Y-159963200D01*
G37*
G36*
X50616200Y-159937400D02*
X49713800Y-159937400D01*
X49713800Y-158985000D01*
X50616200Y-158985000D01*
X50616200Y-159937400D01*
X50616200Y-159937400D01*
G37*
G36*
X38746395Y-157607042D02*
X38755534Y-157607106D01*
X38967366Y-157630867D01*
X39170548Y-157695320D01*
X39357342Y-157798011D01*
X39520632Y-157935028D01*
X39654199Y-158101151D01*
X39752955Y-158290055D01*
X39813139Y-158494542D01*
X39813143Y-158494583D01*
X39813144Y-158494587D01*
X39832459Y-158706823D01*
X39810183Y-158918770D01*
X39810181Y-158918775D01*
X39810177Y-158918817D01*
X39747144Y-159122445D01*
X39645760Y-159309950D01*
X39509886Y-159474193D01*
X39344699Y-159608917D01*
X39156490Y-159708989D01*
X38952428Y-159770599D01*
X38740285Y-159791400D01*
X38729679Y-159791400D01*
X38723605Y-159791358D01*
X38714466Y-159791294D01*
X38502634Y-159767533D01*
X38299452Y-159703080D01*
X38112658Y-159600389D01*
X37949368Y-159463372D01*
X37815801Y-159297249D01*
X37717045Y-159108345D01*
X37656861Y-158903858D01*
X37656857Y-158903817D01*
X37656856Y-158903813D01*
X37637541Y-158691577D01*
X37659817Y-158479630D01*
X37659819Y-158479625D01*
X37659823Y-158479583D01*
X37722856Y-158275955D01*
X37824240Y-158088450D01*
X37960114Y-157924207D01*
X38125301Y-157789483D01*
X38313510Y-157689411D01*
X38517572Y-157627801D01*
X38729715Y-157607000D01*
X38740321Y-157607000D01*
X38746395Y-157607042D01*
X38746395Y-157607042D01*
G37*
G36*
X46386800Y-159268000D02*
X45174400Y-159268000D01*
X45174400Y-158465600D01*
X46386800Y-158465600D01*
X46386800Y-159268000D01*
X46386800Y-159268000D01*
G37*
G36*
X64938400Y-159118200D02*
X63786000Y-159118200D01*
X63786000Y-157365800D01*
X64938400Y-157365800D01*
X64938400Y-159118200D01*
X64938400Y-159118200D01*
G37*
G36*
X67938400Y-159118200D02*
X66786000Y-159118200D01*
X66786000Y-157365800D01*
X67938400Y-157365800D01*
X67938400Y-159118200D01*
X67938400Y-159118200D01*
G37*
G36*
X69940800Y-159067400D02*
X68788400Y-159067400D01*
X68788400Y-157315000D01*
X69940800Y-157315000D01*
X69940800Y-159067400D01*
X69940800Y-159067400D01*
G37*
G36*
X72940800Y-159067400D02*
X71788400Y-159067400D01*
X71788400Y-157315000D01*
X72940800Y-157315000D01*
X72940800Y-159067400D01*
X72940800Y-159067400D01*
G37*
G36*
X50616200Y-158437400D02*
X49713800Y-158437400D01*
X49713800Y-157485000D01*
X50616200Y-157485000D01*
X50616200Y-158437400D01*
X50616200Y-158437400D01*
G37*
G36*
X46386800Y-158318000D02*
X45174400Y-158318000D01*
X45174400Y-157515600D01*
X46386800Y-157515600D01*
X46386800Y-158318000D01*
X46386800Y-158318000D01*
G37*
G36*
X48586800Y-158318000D02*
X47374400Y-158318000D01*
X47374400Y-157515600D01*
X48586800Y-157515600D01*
X48586800Y-158318000D01*
X48586800Y-158318000D01*
G37*
G36*
X92156364Y-158018146D02*
X91203964Y-158018146D01*
X91203964Y-157115746D01*
X92156364Y-157115746D01*
X92156364Y-158018146D01*
X92156364Y-158018146D01*
G37*
G36*
X90656364Y-158018146D02*
X89703964Y-158018146D01*
X89703964Y-157115746D01*
X90656364Y-157115746D01*
X90656364Y-158018146D01*
X90656364Y-158018146D01*
G37*
G36*
X88259000Y-158007000D02*
X87356600Y-158007000D01*
X87356600Y-157054600D01*
X88259000Y-157054600D01*
X88259000Y-158007000D01*
X88259000Y-158007000D01*
G37*
G36*
X78200600Y-157956200D02*
X77298200Y-157956200D01*
X77298200Y-157003800D01*
X78200600Y-157003800D01*
X78200600Y-157956200D01*
X78200600Y-157956200D01*
G37*
G36*
X59888000Y-157790200D02*
X58735600Y-157790200D01*
X58735600Y-155137800D01*
X59888000Y-155137800D01*
X59888000Y-157790200D01*
X59888000Y-157790200D01*
G37*
G36*
X56888000Y-157790200D02*
X55735600Y-157790200D01*
X55735600Y-155137800D01*
X56888000Y-155137800D01*
X56888000Y-157790200D01*
X56888000Y-157790200D01*
G37*
G36*
X86459764Y-157663746D02*
X84807364Y-157663746D01*
X84807364Y-156911346D01*
X86459764Y-156911346D01*
X86459764Y-157663746D01*
X86459764Y-157663746D01*
G37*
G36*
X81059764Y-157663746D02*
X79407364Y-157663746D01*
X79407364Y-156911346D01*
X81059764Y-156911346D01*
X81059764Y-157663746D01*
X81059764Y-157663746D01*
G37*
G36*
X76244400Y-157372400D02*
X75292000Y-157372400D01*
X75292000Y-156470000D01*
X76244400Y-156470000D01*
X76244400Y-157372400D01*
X76244400Y-157372400D01*
G37*
G36*
X74744400Y-157372400D02*
X73792000Y-157372400D01*
X73792000Y-156470000D01*
X74744400Y-156470000D01*
X74744400Y-157372400D01*
X74744400Y-157372400D01*
G37*
G36*
X47593200Y-156610400D02*
X46640800Y-156610400D01*
X46640800Y-155708000D01*
X47593200Y-155708000D01*
X47593200Y-156610400D01*
X47593200Y-156610400D01*
G37*
G36*
X46093200Y-156610400D02*
X45140800Y-156610400D01*
X45140800Y-155708000D01*
X46093200Y-155708000D01*
X46093200Y-156610400D01*
X46093200Y-156610400D01*
G37*
G36*
X88259000Y-156507000D02*
X87356600Y-156507000D01*
X87356600Y-155554600D01*
X88259000Y-155554600D01*
X88259000Y-156507000D01*
X88259000Y-156507000D01*
G37*
G36*
X78200600Y-156456200D02*
X77298200Y-156456200D01*
X77298200Y-155503800D01*
X78200600Y-155503800D01*
X78200600Y-156456200D01*
X78200600Y-156456200D01*
G37*
G36*
X86459764Y-156393746D02*
X84807364Y-156393746D01*
X84807364Y-155641346D01*
X86459764Y-155641346D01*
X86459764Y-156393746D01*
X86459764Y-156393746D01*
G37*
G36*
X81059764Y-156393746D02*
X79407364Y-156393746D01*
X79407364Y-155641346D01*
X81059764Y-155641346D01*
X81059764Y-156393746D01*
X81059764Y-156393746D01*
G37*
G36*
X71056400Y-156355800D02*
X69304000Y-156355800D01*
X69304000Y-155203400D01*
X71056400Y-155203400D01*
X71056400Y-156355800D01*
X71056400Y-156355800D01*
G37*
G36*
X93656800Y-156278246D02*
X92704400Y-156278246D01*
X92704400Y-155375846D01*
X93656800Y-155375846D01*
X93656800Y-156278246D01*
X93656800Y-156278246D01*
G37*
G36*
X92156800Y-156278246D02*
X91204400Y-156278246D01*
X91204400Y-155375846D01*
X92156800Y-155375846D01*
X92156800Y-156278246D01*
X92156800Y-156278246D01*
G37*
G36*
X66667200Y-156204000D02*
X65714800Y-156204000D01*
X65714800Y-155301600D01*
X66667200Y-155301600D01*
X66667200Y-156204000D01*
X66667200Y-156204000D01*
G37*
G36*
X68167200Y-156204000D02*
X67214800Y-156204000D01*
X67214800Y-155301600D01*
X68167200Y-155301600D01*
X68167200Y-156204000D01*
X68167200Y-156204000D01*
G37*
G36*
X81059764Y-155123746D02*
X79407364Y-155123746D01*
X79407364Y-154371346D01*
X81059764Y-154371346D01*
X81059764Y-155123746D01*
X81059764Y-155123746D01*
G37*
G36*
X86459764Y-155123746D02*
X84807364Y-155123746D01*
X84807364Y-154371346D01*
X86459764Y-154371346D01*
X86459764Y-155123746D01*
X86459764Y-155123746D01*
G37*
G36*
X88208200Y-154630200D02*
X87305800Y-154630200D01*
X87305800Y-153677800D01*
X88208200Y-153677800D01*
X88208200Y-154630200D01*
X88208200Y-154630200D01*
G37*
G36*
X92263600Y-154574400D02*
X91111200Y-154574400D01*
X91111200Y-153172000D01*
X92263600Y-153172000D01*
X92263600Y-154574400D01*
X92263600Y-154574400D01*
G37*
G36*
X90263600Y-154574400D02*
X89111200Y-154574400D01*
X89111200Y-153172000D01*
X90263600Y-153172000D01*
X90263600Y-154574400D01*
X90263600Y-154574400D01*
G37*
G36*
X76422600Y-154451000D02*
X75520200Y-154451000D01*
X75520200Y-153498600D01*
X76422600Y-153498600D01*
X76422600Y-154451000D01*
X76422600Y-154451000D01*
G37*
G36*
X72928491Y-154426299D02*
X71976091Y-154426299D01*
X71976091Y-153523899D01*
X72928491Y-153523899D01*
X72928491Y-154426299D01*
X72928491Y-154426299D01*
G37*
G36*
X74428491Y-154426299D02*
X73476091Y-154426299D01*
X73476091Y-153523899D01*
X74428491Y-153523899D01*
X74428491Y-154426299D01*
X74428491Y-154426299D01*
G37*
G36*
X54500400Y-154183400D02*
X53348000Y-154183400D01*
X53348000Y-151531000D01*
X54500400Y-151531000D01*
X54500400Y-154183400D01*
X54500400Y-154183400D01*
G37*
G36*
X57500400Y-154183400D02*
X56348000Y-154183400D01*
X56348000Y-151531000D01*
X57500400Y-151531000D01*
X57500400Y-154183400D01*
X57500400Y-154183400D01*
G37*
G36*
X60535091Y-153919299D02*
X59632691Y-153919299D01*
X59632691Y-152966899D01*
X60535091Y-152966899D01*
X60535091Y-153919299D01*
X60535091Y-153919299D01*
G37*
G36*
X86459764Y-153853746D02*
X84807364Y-153853746D01*
X84807364Y-153101346D01*
X86459764Y-153101346D01*
X86459764Y-153853746D01*
X86459764Y-153853746D01*
G37*
G36*
X81059764Y-153853746D02*
X79407364Y-153853746D01*
X79407364Y-153101346D01*
X81059764Y-153101346D01*
X81059764Y-153853746D01*
X81059764Y-153853746D01*
G37*
G36*
X68532400Y-153639800D02*
X66880000Y-153639800D01*
X66880000Y-152887400D01*
X68532400Y-152887400D01*
X68532400Y-153639800D01*
X68532400Y-153639800D01*
G37*
G36*
X63132400Y-153639800D02*
X61480000Y-153639800D01*
X61480000Y-152887400D01*
X63132400Y-152887400D01*
X63132400Y-153639800D01*
X63132400Y-153639800D01*
G37*
G36*
X71056400Y-153355800D02*
X69304000Y-153355800D01*
X69304000Y-152203400D01*
X71056400Y-152203400D01*
X71056400Y-153355800D01*
X71056400Y-153355800D01*
G37*
G36*
X88208200Y-153130200D02*
X87305800Y-153130200D01*
X87305800Y-152177800D01*
X88208200Y-152177800D01*
X88208200Y-153130200D01*
X88208200Y-153130200D01*
G37*
G36*
X76422600Y-152951000D02*
X75520200Y-152951000D01*
X75520200Y-151998600D01*
X76422600Y-151998600D01*
X76422600Y-152951000D01*
X76422600Y-152951000D01*
G37*
G36*
X48958400Y-152671400D02*
X47206000Y-152671400D01*
X47206000Y-151519000D01*
X48958400Y-151519000D01*
X48958400Y-152671400D01*
X48958400Y-152671400D01*
G37*
G36*
X86459764Y-152583746D02*
X84807364Y-152583746D01*
X84807364Y-151831346D01*
X86459764Y-151831346D01*
X86459764Y-152583746D01*
X86459764Y-152583746D01*
G37*
G36*
X81059764Y-152583746D02*
X79407364Y-152583746D01*
X79407364Y-151831346D01*
X81059764Y-151831346D01*
X81059764Y-152583746D01*
X81059764Y-152583746D01*
G37*
G36*
X73383491Y-152519299D02*
X71981091Y-152519299D01*
X71981091Y-151366899D01*
X73383491Y-151366899D01*
X73383491Y-152519299D01*
X73383491Y-152519299D01*
G37*
G36*
X60535091Y-152419299D02*
X59632691Y-152419299D01*
X59632691Y-151466899D01*
X60535091Y-151466899D01*
X60535091Y-152419299D01*
X60535091Y-152419299D01*
G37*
G36*
X68532400Y-152369800D02*
X66880000Y-152369800D01*
X66880000Y-151617400D01*
X68532400Y-151617400D01*
X68532400Y-152369800D01*
X68532400Y-152369800D01*
G37*
G36*
X63132400Y-152369800D02*
X61480000Y-152369800D01*
X61480000Y-151617400D01*
X63132400Y-151617400D01*
X63132400Y-152369800D01*
X63132400Y-152369800D01*
G37*
G36*
X92263600Y-152339200D02*
X91111200Y-152339200D01*
X91111200Y-150936800D01*
X92263600Y-150936800D01*
X92263600Y-152339200D01*
X92263600Y-152339200D01*
G37*
G36*
X90263600Y-152339200D02*
X89111200Y-152339200D01*
X89111200Y-150936800D01*
X90263600Y-150936800D01*
X90263600Y-152339200D01*
X90263600Y-152339200D01*
G37*
G36*
X86459764Y-151313746D02*
X84807364Y-151313746D01*
X84807364Y-150561346D01*
X86459764Y-150561346D01*
X86459764Y-151313746D01*
X86459764Y-151313746D01*
G37*
G36*
X81059764Y-151313746D02*
X79407364Y-151313746D01*
X79407364Y-150561346D01*
X81059764Y-150561346D01*
X81059764Y-151313746D01*
X81059764Y-151313746D01*
G37*
G36*
X63132400Y-151099800D02*
X61480000Y-151099800D01*
X61480000Y-150347400D01*
X63132400Y-150347400D01*
X63132400Y-151099800D01*
X63132400Y-151099800D01*
G37*
G36*
X68532400Y-151099800D02*
X66880000Y-151099800D01*
X66880000Y-150347400D01*
X68532400Y-150347400D01*
X68532400Y-151099800D01*
X68532400Y-151099800D01*
G37*
G36*
X57550000Y-150717600D02*
X56597600Y-150717600D01*
X56597600Y-149815200D01*
X57550000Y-149815200D01*
X57550000Y-150717600D01*
X57550000Y-150717600D01*
G37*
G36*
X56050000Y-150717600D02*
X55097600Y-150717600D01*
X55097600Y-149815200D01*
X56050000Y-149815200D01*
X56050000Y-150717600D01*
X56050000Y-150717600D01*
G37*
G36*
X73383491Y-150519299D02*
X71981091Y-150519299D01*
X71981091Y-149366899D01*
X73383491Y-149366899D01*
X73383491Y-150519299D01*
X73383491Y-150519299D01*
G37*
G36*
X70441091Y-150109299D02*
X69538691Y-150109299D01*
X69538691Y-149156899D01*
X70441091Y-149156899D01*
X70441091Y-150109299D01*
X70441091Y-150109299D01*
G37*
G36*
X96906400Y-150083400D02*
X94254000Y-150083400D01*
X94254000Y-148931000D01*
X96906400Y-148931000D01*
X96906400Y-150083400D01*
X96906400Y-150083400D01*
G37*
G36*
X86459764Y-150043746D02*
X84807364Y-150043746D01*
X84807364Y-149291346D01*
X86459764Y-149291346D01*
X86459764Y-150043746D01*
X86459764Y-150043746D01*
G37*
G36*
X81059764Y-150043746D02*
X79407364Y-150043746D01*
X79407364Y-149291346D01*
X81059764Y-149291346D01*
X81059764Y-150043746D01*
X81059764Y-150043746D01*
G37*
G36*
X93103600Y-150005800D02*
X91351200Y-150005800D01*
X91351200Y-148853400D01*
X93103600Y-148853400D01*
X93103600Y-150005800D01*
X93103600Y-150005800D01*
G37*
G36*
X90388600Y-149979000D02*
X88986200Y-149979000D01*
X88986200Y-148826600D01*
X90388600Y-148826600D01*
X90388600Y-149979000D01*
X90388600Y-149979000D01*
G37*
G36*
X68532400Y-149829800D02*
X66880000Y-149829800D01*
X66880000Y-149077400D01*
X68532400Y-149077400D01*
X68532400Y-149829800D01*
X68532400Y-149829800D01*
G37*
G36*
X63132400Y-149829800D02*
X61480000Y-149829800D01*
X61480000Y-149077400D01*
X63132400Y-149077400D01*
X63132400Y-149829800D01*
X63132400Y-149829800D01*
G37*
G36*
X48958400Y-149671400D02*
X47206000Y-149671400D01*
X47206000Y-148519000D01*
X48958400Y-148519000D01*
X48958400Y-149671400D01*
X48958400Y-149671400D01*
G37*
G36*
X60609291Y-148999399D02*
X59456891Y-148999399D01*
X59456891Y-147596999D01*
X60609291Y-147596999D01*
X60609291Y-148999399D01*
X60609291Y-148999399D01*
G37*
G36*
X58609291Y-148999399D02*
X57456891Y-148999399D01*
X57456891Y-147596999D01*
X58609291Y-147596999D01*
X58609291Y-148999399D01*
X58609291Y-148999399D01*
G37*
G36*
X73383491Y-148693299D02*
X71981091Y-148693299D01*
X71981091Y-147540899D01*
X73383491Y-147540899D01*
X73383491Y-148693299D01*
X73383491Y-148693299D01*
G37*
G36*
X70441091Y-148609299D02*
X69538691Y-148609299D01*
X69538691Y-147656899D01*
X70441091Y-147656899D01*
X70441091Y-148609299D01*
X70441091Y-148609299D01*
G37*
G36*
X68532400Y-148559800D02*
X66880000Y-148559800D01*
X66880000Y-147807400D01*
X68532400Y-147807400D01*
X68532400Y-148559800D01*
X68532400Y-148559800D01*
G37*
G36*
X63132400Y-148559800D02*
X61480000Y-148559800D01*
X61480000Y-147807400D01*
X63132400Y-147807400D01*
X63132400Y-148559800D01*
X63132400Y-148559800D01*
G37*
G36*
X90388600Y-147979000D02*
X88986200Y-147979000D01*
X88986200Y-146826600D01*
X90388600Y-146826600D01*
X90388600Y-147979000D01*
X90388600Y-147979000D01*
G37*
G36*
X63132400Y-147289800D02*
X61480000Y-147289800D01*
X61480000Y-146537400D01*
X63132400Y-146537400D01*
X63132400Y-147289800D01*
X63132400Y-147289800D01*
G37*
G36*
X68532400Y-147289800D02*
X66880000Y-147289800D01*
X66880000Y-146537400D01*
X68532400Y-146537400D01*
X68532400Y-147289800D01*
X68532400Y-147289800D01*
G37*
G36*
X48958400Y-147137000D02*
X47206000Y-147137000D01*
X47206000Y-145984600D01*
X48958400Y-145984600D01*
X48958400Y-147137000D01*
X48958400Y-147137000D01*
G37*
G36*
X52057200Y-147086200D02*
X50304800Y-147086200D01*
X50304800Y-145933800D01*
X52057200Y-145933800D01*
X52057200Y-147086200D01*
X52057200Y-147086200D01*
G37*
G36*
X55656800Y-147086200D02*
X53004400Y-147086200D01*
X53004400Y-145933800D01*
X55656800Y-145933800D01*
X55656800Y-147086200D01*
X55656800Y-147086200D01*
G37*
G36*
X96906400Y-147083400D02*
X94254000Y-147083400D01*
X94254000Y-145931000D01*
X96906400Y-145931000D01*
X96906400Y-147083400D01*
X96906400Y-147083400D01*
G37*
G36*
X93103600Y-147005800D02*
X91351200Y-147005800D01*
X91351200Y-145853400D01*
X93103600Y-145853400D01*
X93103600Y-147005800D01*
X93103600Y-147005800D01*
G37*
G36*
X73383491Y-146693299D02*
X71981091Y-146693299D01*
X71981091Y-145540899D01*
X73383491Y-145540899D01*
X73383491Y-146693299D01*
X73383491Y-146693299D01*
G37*
G36*
X60490000Y-146629000D02*
X58737600Y-146629000D01*
X58737600Y-145476600D01*
X60490000Y-145476600D01*
X60490000Y-146629000D01*
X60490000Y-146629000D01*
G37*
G36*
X57677400Y-146627800D02*
X56775000Y-146627800D01*
X56775000Y-145675400D01*
X57677400Y-145675400D01*
X57677400Y-146627800D01*
X57677400Y-146627800D01*
G37*
G36*
X63132400Y-146019800D02*
X61480000Y-146019800D01*
X61480000Y-145267400D01*
X63132400Y-145267400D01*
X63132400Y-146019800D01*
X63132400Y-146019800D01*
G37*
G36*
X68532400Y-146019800D02*
X66880000Y-146019800D01*
X66880000Y-145267400D01*
X68532400Y-145267400D01*
X68532400Y-146019800D01*
X68532400Y-146019800D01*
G37*
G36*
X57677400Y-145127800D02*
X56775000Y-145127800D01*
X56775000Y-144175400D01*
X57677400Y-144175400D01*
X57677400Y-145127800D01*
X57677400Y-145127800D01*
G37*
G36*
X76092000Y-145028000D02*
X75139600Y-145028000D01*
X75139600Y-144125600D01*
X76092000Y-144125600D01*
X76092000Y-145028000D01*
X76092000Y-145028000D01*
G37*
G36*
X77592000Y-145028000D02*
X76639600Y-145028000D01*
X76639600Y-144125600D01*
X77592000Y-144125600D01*
X77592000Y-145028000D01*
X77592000Y-145028000D01*
G37*
G36*
X87857979Y-144890949D02*
X86955579Y-144890949D01*
X86955579Y-143938549D01*
X87857979Y-143938549D01*
X87857979Y-144890949D01*
X87857979Y-144890949D01*
G37*
G36*
X86105379Y-144828149D02*
X85202979Y-144828149D01*
X85202979Y-143875749D01*
X86105379Y-143875749D01*
X86105379Y-144828149D01*
X86105379Y-144828149D01*
G37*
G36*
X70428200Y-144799000D02*
X69525800Y-144799000D01*
X69525800Y-143846600D01*
X70428200Y-143846600D01*
X70428200Y-144799000D01*
X70428200Y-144799000D01*
G37*
G36*
X48958400Y-144137000D02*
X47206000Y-144137000D01*
X47206000Y-142984600D01*
X48958400Y-142984600D01*
X48958400Y-144137000D01*
X48958400Y-144137000D01*
G37*
G36*
X52057200Y-144086200D02*
X50304800Y-144086200D01*
X50304800Y-142933800D01*
X52057200Y-142933800D01*
X52057200Y-144086200D01*
X52057200Y-144086200D01*
G37*
G36*
X55656800Y-144086200D02*
X53004400Y-144086200D01*
X53004400Y-142933800D01*
X55656800Y-142933800D01*
X55656800Y-144086200D01*
X55656800Y-144086200D01*
G37*
G36*
X60490000Y-143629000D02*
X58737600Y-143629000D01*
X58737600Y-142476600D01*
X60490000Y-142476600D01*
X60490000Y-143629000D01*
X60490000Y-143629000D01*
G37*
G36*
X87857979Y-143390949D02*
X86955579Y-143390949D01*
X86955579Y-142438549D01*
X87857979Y-142438549D01*
X87857979Y-143390949D01*
X87857979Y-143390949D01*
G37*
G36*
X86105379Y-143328149D02*
X85202979Y-143328149D01*
X85202979Y-142375749D01*
X86105379Y-142375749D01*
X86105379Y-143328149D01*
X86105379Y-143328149D01*
G37*
G36*
X82708000Y-143300800D02*
X81755600Y-143300800D01*
X81755600Y-142398400D01*
X82708000Y-142398400D01*
X82708000Y-143300800D01*
X82708000Y-143300800D01*
G37*
G36*
X80918000Y-143300800D02*
X79965600Y-143300800D01*
X79965600Y-142398400D01*
X80918000Y-142398400D01*
X80918000Y-143300800D01*
X80918000Y-143300800D01*
G37*
G36*
X79418000Y-143300800D02*
X78465600Y-143300800D01*
X78465600Y-142398400D01*
X79418000Y-142398400D01*
X79418000Y-143300800D01*
X79418000Y-143300800D01*
G37*
G36*
X77553200Y-143300800D02*
X76600800Y-143300800D01*
X76600800Y-142398400D01*
X77553200Y-142398400D01*
X77553200Y-143300800D01*
X77553200Y-143300800D01*
G37*
G36*
X76053200Y-143300800D02*
X75100800Y-143300800D01*
X75100800Y-142398400D01*
X76053200Y-142398400D01*
X76053200Y-143300800D01*
X76053200Y-143300800D01*
G37*
G36*
X84208000Y-143300800D02*
X83255600Y-143300800D01*
X83255600Y-142398400D01*
X84208000Y-142398400D01*
X84208000Y-143300800D01*
X84208000Y-143300800D01*
G37*
G36*
X70428200Y-143299000D02*
X69525800Y-143299000D01*
X69525800Y-142346600D01*
X70428200Y-142346600D01*
X70428200Y-143299000D01*
X70428200Y-143299000D01*
G37*
G36*
X65001783Y-142742299D02*
X64049383Y-142742299D01*
X64049383Y-141839899D01*
X65001783Y-141839899D01*
X65001783Y-142742299D01*
X65001783Y-142742299D01*
G37*
G36*
X68230891Y-142742299D02*
X67278491Y-142742299D01*
X67278491Y-141839899D01*
X68230891Y-141839899D01*
X68230891Y-142742299D01*
X68230891Y-142742299D01*
G37*
G36*
X66730891Y-142742299D02*
X65778491Y-142742299D01*
X65778491Y-141839899D01*
X66730891Y-141839899D01*
X66730891Y-142742299D01*
X66730891Y-142742299D01*
G37*
G36*
X63501783Y-142742299D02*
X62549383Y-142742299D01*
X62549383Y-141839899D01*
X63501783Y-141839899D01*
X63501783Y-142742299D01*
X63501783Y-142742299D01*
G37*
G36*
X85213540Y-141428420D02*
X84311140Y-141428420D01*
X84311140Y-140476020D01*
X85213540Y-140476020D01*
X85213540Y-141428420D01*
X85213540Y-141428420D01*
G37*
G36*
X73982400Y-141370400D02*
X73030000Y-141370400D01*
X73030000Y-140468000D01*
X73982400Y-140468000D01*
X73982400Y-141370400D01*
X73982400Y-141370400D01*
G37*
G36*
X75482400Y-141370400D02*
X74530000Y-141370400D01*
X74530000Y-140468000D01*
X75482400Y-140468000D01*
X75482400Y-141370400D01*
X75482400Y-141370400D01*
G37*
G36*
X83467600Y-140889000D02*
X81815200Y-140889000D01*
X81815200Y-140136600D01*
X83467600Y-140136600D01*
X83467600Y-140889000D01*
X83467600Y-140889000D01*
G37*
G36*
X78067600Y-140889000D02*
X76415200Y-140889000D01*
X76415200Y-140136600D01*
X78067600Y-140136600D01*
X78067600Y-140889000D01*
X78067600Y-140889000D01*
G37*
G36*
X85213540Y-139928420D02*
X84311140Y-139928420D01*
X84311140Y-138976020D01*
X85213540Y-138976020D01*
X85213540Y-139928420D01*
X85213540Y-139928420D01*
G37*
G36*
X78067600Y-139619000D02*
X76415200Y-139619000D01*
X76415200Y-138866600D01*
X78067600Y-138866600D01*
X78067600Y-139619000D01*
X78067600Y-139619000D01*
G37*
G36*
X83467600Y-139619000D02*
X81815200Y-139619000D01*
X81815200Y-138866600D01*
X83467600Y-138866600D01*
X83467600Y-139619000D01*
X83467600Y-139619000D01*
G37*
G36*
X73982400Y-139440000D02*
X73030000Y-139440000D01*
X73030000Y-138537600D01*
X73982400Y-138537600D01*
X73982400Y-139440000D01*
X73982400Y-139440000D01*
G37*
G36*
X75482400Y-139440000D02*
X74530000Y-139440000D01*
X74530000Y-138537600D01*
X75482400Y-138537600D01*
X75482400Y-139440000D01*
X75482400Y-139440000D01*
G37*
G36*
X62054540Y-135789379D02*
X62337542Y-135847472D01*
X62603884Y-135959431D01*
X62843400Y-136120987D01*
X63046975Y-136325988D01*
X63206853Y-136566625D01*
X63316948Y-136833735D01*
X63372995Y-137116796D01*
X63372995Y-137116801D01*
X63373063Y-137117145D01*
X63368455Y-137447134D01*
X63368379Y-137447468D01*
X63368379Y-137447481D01*
X63304449Y-137728868D01*
X63186941Y-137992796D01*
X63020403Y-138228877D01*
X62811182Y-138428116D01*
X62567246Y-138582923D01*
X62297890Y-138687399D01*
X62013372Y-138737568D01*
X61724523Y-138731517D01*
X61442351Y-138669477D01*
X61177604Y-138553812D01*
X60940370Y-138388930D01*
X60739676Y-138181106D01*
X60583171Y-137938257D01*
X60476814Y-137669630D01*
X60424662Y-137385473D01*
X60428695Y-137096590D01*
X60488764Y-136813992D01*
X60602576Y-136548446D01*
X60765801Y-136310062D01*
X60972218Y-136107923D01*
X61213969Y-135949726D01*
X61481843Y-135841498D01*
X61765632Y-135787363D01*
X62054540Y-135789379D01*
X62054540Y-135789379D01*
G37*
G36*
X97329749Y-135192606D02*
X97649347Y-135258210D01*
X97950128Y-135384647D01*
X98220616Y-135567094D01*
X98450516Y-135798603D01*
X98631069Y-136070358D01*
X98755400Y-136372008D01*
X98818704Y-136691717D01*
X98818704Y-136691727D01*
X98818771Y-136692066D01*
X98813568Y-137064726D01*
X98813491Y-137065064D01*
X98813491Y-137065073D01*
X98741285Y-137382890D01*
X98608581Y-137680947D01*
X98420508Y-137947557D01*
X98184233Y-138172559D01*
X97908756Y-138347382D01*
X97604565Y-138465370D01*
X97283257Y-138522025D01*
X96957058Y-138515192D01*
X96638399Y-138445130D01*
X96339417Y-138314509D01*
X96071506Y-138128305D01*
X95844860Y-137893607D01*
X95668117Y-137619354D01*
X95548007Y-137315993D01*
X95489111Y-136995091D01*
X95493666Y-136668853D01*
X95561502Y-136349711D01*
X95690031Y-136049828D01*
X95874364Y-135780618D01*
X96107472Y-135552341D01*
X96380484Y-135373687D01*
X96682996Y-135251464D01*
X97003483Y-135190328D01*
X97329749Y-135192606D01*
X97329749Y-135192606D01*
G37*
G36*
X78067600Y-138349000D02*
X76415200Y-138349000D01*
X76415200Y-137596600D01*
X78067600Y-137596600D01*
X78067600Y-138349000D01*
X78067600Y-138349000D01*
G37*
G36*
X83467600Y-138349000D02*
X81815200Y-138349000D01*
X81815200Y-137596600D01*
X83467600Y-137596600D01*
X83467600Y-138349000D01*
X83467600Y-138349000D01*
G37*
G36*
X85717540Y-138169020D02*
X84315140Y-138169020D01*
X84315140Y-137016620D01*
X85717540Y-137016620D01*
X85717540Y-138169020D01*
X85717540Y-138169020D01*
G37*
G36*
X75648440Y-137808020D02*
X74496040Y-137808020D01*
X74496040Y-135155620D01*
X75648440Y-135155620D01*
X75648440Y-137808020D01*
X75648440Y-137808020D01*
G37*
G36*
X72648440Y-137808020D02*
X71496040Y-137808020D01*
X71496040Y-135155620D01*
X72648440Y-135155620D01*
X72648440Y-137808020D01*
X72648440Y-137808020D01*
G37*
G36*
X69005800Y-137737800D02*
X68103400Y-137737800D01*
X68103400Y-136785400D01*
X69005800Y-136785400D01*
X69005800Y-137737800D01*
X69005800Y-137737800D01*
G37*
G36*
X78067600Y-137079000D02*
X76415200Y-137079000D01*
X76415200Y-136326600D01*
X78067600Y-136326600D01*
X78067600Y-137079000D01*
X78067600Y-137079000D01*
G37*
G36*
X83467600Y-137079000D02*
X81815200Y-137079000D01*
X81815200Y-136326600D01*
X83467600Y-136326600D01*
X83467600Y-137079000D01*
X83467600Y-137079000D01*
G37*
G36*
X69005800Y-136237800D02*
X68103400Y-136237800D01*
X68103400Y-135285400D01*
X69005800Y-135285400D01*
X69005800Y-136237800D01*
X69005800Y-136237800D01*
G37*
G36*
X85717540Y-136169020D02*
X84315140Y-136169020D01*
X84315140Y-135016620D01*
X85717540Y-135016620D01*
X85717540Y-136169020D01*
X85717540Y-136169020D01*
G37*
G36*
X38746395Y-133781842D02*
X38755534Y-133781906D01*
X38967366Y-133805667D01*
X39170548Y-133870120D01*
X39357342Y-133972811D01*
X39520632Y-134109828D01*
X39654199Y-134275951D01*
X39752955Y-134464855D01*
X39813139Y-134669342D01*
X39813143Y-134669383D01*
X39813144Y-134669387D01*
X39832459Y-134881623D01*
X39810183Y-135093570D01*
X39810181Y-135093575D01*
X39810177Y-135093617D01*
X39747144Y-135297245D01*
X39645760Y-135484750D01*
X39509886Y-135648993D01*
X39344699Y-135783717D01*
X39156490Y-135883789D01*
X38952428Y-135945399D01*
X38740285Y-135966200D01*
X38729679Y-135966200D01*
X38723605Y-135966158D01*
X38714466Y-135966094D01*
X38502634Y-135942333D01*
X38299452Y-135877880D01*
X38112658Y-135775189D01*
X37949368Y-135638172D01*
X37815801Y-135472049D01*
X37717045Y-135283145D01*
X37656861Y-135078658D01*
X37656857Y-135078617D01*
X37656856Y-135078613D01*
X37637541Y-134866377D01*
X37659817Y-134654430D01*
X37659819Y-134654425D01*
X37659823Y-134654383D01*
X37722856Y-134450755D01*
X37824240Y-134263250D01*
X37960114Y-134099007D01*
X38125301Y-133964283D01*
X38313510Y-133864211D01*
X38517572Y-133802601D01*
X38729715Y-133781800D01*
X38740321Y-133781800D01*
X38746395Y-133781842D01*
X38746395Y-133781842D01*
G37*
G36*
X78067600Y-135809000D02*
X76415200Y-135809000D01*
X76415200Y-135056600D01*
X78067600Y-135056600D01*
X78067600Y-135809000D01*
X78067600Y-135809000D01*
G37*
G36*
X83467600Y-135809000D02*
X81815200Y-135809000D01*
X81815200Y-135056600D01*
X83467600Y-135056600D01*
X83467600Y-135809000D01*
X83467600Y-135809000D01*
G37*
G36*
X51882635Y-133704382D02*
X52050950Y-133738933D01*
X52209362Y-133805523D01*
X52351816Y-133901609D01*
X52472894Y-134023535D01*
X52567981Y-134166654D01*
X52633463Y-134325524D01*
X52666769Y-134493735D01*
X52666838Y-134494084D01*
X52664097Y-134690348D01*
X52664020Y-134690686D01*
X52664020Y-134690695D01*
X52626029Y-134857913D01*
X52556140Y-135014885D01*
X52457090Y-135155298D01*
X52332653Y-135273797D01*
X52187570Y-135365870D01*
X52027369Y-135428008D01*
X51858148Y-135457847D01*
X51686351Y-135454247D01*
X51518528Y-135417350D01*
X51361066Y-135348556D01*
X51219970Y-135250492D01*
X51100605Y-135126886D01*
X51007522Y-134982449D01*
X50944264Y-134822678D01*
X50913247Y-134653676D01*
X50915645Y-134481859D01*
X50951372Y-134313780D01*
X51019062Y-134155845D01*
X51116143Y-134014063D01*
X51238911Y-133893839D01*
X51382696Y-133799750D01*
X51542016Y-133735379D01*
X51710801Y-133703183D01*
X51882635Y-133704382D01*
X51882635Y-133704382D01*
G37*
G36*
X78067600Y-134539000D02*
X76415200Y-134539000D01*
X76415200Y-133786600D01*
X78067600Y-133786600D01*
X78067600Y-134539000D01*
X78067600Y-134539000D01*
G37*
G36*
X83467600Y-134539000D02*
X81815200Y-134539000D01*
X81815200Y-133786600D01*
X83467600Y-133786600D01*
X83467600Y-134539000D01*
X83467600Y-134539000D01*
G37*
G36*
X70479740Y-134253320D02*
X69527340Y-134253320D01*
X69527340Y-133350920D01*
X70479740Y-133350920D01*
X70479740Y-134253320D01*
X70479740Y-134253320D01*
G37*
G36*
X71979740Y-134253320D02*
X71027340Y-134253320D01*
X71027340Y-133350920D01*
X71979740Y-133350920D01*
X71979740Y-134253320D01*
X71979740Y-134253320D01*
G37*
G36*
X75355800Y-134165420D02*
X74453400Y-134165420D01*
X74453400Y-133213020D01*
X75355800Y-133213020D01*
X75355800Y-134165420D01*
X75355800Y-134165420D01*
G37*
G36*
X85264340Y-134164020D02*
X84361940Y-134164020D01*
X84361940Y-133211620D01*
X85264340Y-133211620D01*
X85264340Y-134164020D01*
X85264340Y-134164020D01*
G37*
G36*
X87029640Y-134113920D02*
X86127240Y-134113920D01*
X86127240Y-133161520D01*
X87029640Y-133161520D01*
X87029640Y-134113920D01*
X87029640Y-134113920D01*
G37*
G36*
X39827200Y-133426200D02*
X37642800Y-133426200D01*
X37642800Y-131241800D01*
X39827200Y-131241800D01*
X39827200Y-133426200D01*
X39827200Y-133426200D01*
G37*
G36*
X78067600Y-133269000D02*
X76415200Y-133269000D01*
X76415200Y-132516600D01*
X78067600Y-132516600D01*
X78067600Y-133269000D01*
X78067600Y-133269000D01*
G37*
G36*
X83467600Y-133269000D02*
X81815200Y-133269000D01*
X81815200Y-132516600D01*
X83467600Y-132516600D01*
X83467600Y-133269000D01*
X83467600Y-133269000D01*
G37*
G36*
X51882635Y-131204382D02*
X52050950Y-131238933D01*
X52209362Y-131305523D01*
X52351816Y-131401609D01*
X52472894Y-131523535D01*
X52567981Y-131666654D01*
X52633463Y-131825524D01*
X52666769Y-131993735D01*
X52666838Y-131994084D01*
X52664097Y-132190348D01*
X52664020Y-132190686D01*
X52664020Y-132190695D01*
X52626029Y-132357913D01*
X52556140Y-132514885D01*
X52457090Y-132655298D01*
X52332653Y-132773797D01*
X52187570Y-132865870D01*
X52027369Y-132928008D01*
X51858148Y-132957847D01*
X51686351Y-132954247D01*
X51518528Y-132917350D01*
X51361066Y-132848556D01*
X51219970Y-132750492D01*
X51100605Y-132626886D01*
X51007522Y-132482449D01*
X50944264Y-132322678D01*
X50913247Y-132153676D01*
X50915645Y-131981859D01*
X50951372Y-131813780D01*
X51019062Y-131655845D01*
X51116143Y-131514063D01*
X51238911Y-131393839D01*
X51382696Y-131299750D01*
X51542016Y-131235379D01*
X51710801Y-131203183D01*
X51882635Y-131204382D01*
X51882635Y-131204382D01*
G37*
G36*
X75355800Y-132665420D02*
X74453400Y-132665420D01*
X74453400Y-131713020D01*
X75355800Y-131713020D01*
X75355800Y-132665420D01*
X75355800Y-132665420D01*
G37*
G36*
X85264340Y-132664020D02*
X84361940Y-132664020D01*
X84361940Y-131711620D01*
X85264340Y-131711620D01*
X85264340Y-132664020D01*
X85264340Y-132664020D01*
G37*
G36*
X87029640Y-132613920D02*
X86127240Y-132613920D01*
X86127240Y-131661520D01*
X87029640Y-131661520D01*
X87029640Y-132613920D01*
X87029640Y-132613920D01*
G37*
G36*
X71967740Y-132564220D02*
X71015340Y-132564220D01*
X71015340Y-131661820D01*
X71967740Y-131661820D01*
X71967740Y-132564220D01*
X71967740Y-132564220D01*
G37*
G36*
X70467740Y-132564220D02*
X69515340Y-132564220D01*
X69515340Y-131661820D01*
X70467740Y-131661820D01*
X70467740Y-132564220D01*
X70467740Y-132564220D01*
G37*
G36*
X45713600Y-131921600D02*
X44761200Y-131921600D01*
X44761200Y-131019200D01*
X45713600Y-131019200D01*
X45713600Y-131921600D01*
X45713600Y-131921600D01*
G37*
G36*
X44213600Y-131921600D02*
X43261200Y-131921600D01*
X43261200Y-131019200D01*
X44213600Y-131019200D01*
X44213600Y-131921600D01*
X44213600Y-131921600D01*
G37*
G36*
X73700000Y-130764600D02*
X72547600Y-130764600D01*
X72547600Y-128112200D01*
X73700000Y-128112200D01*
X73700000Y-130764600D01*
X73700000Y-130764600D01*
G37*
G36*
X76700000Y-130764600D02*
X75547600Y-130764600D01*
X75547600Y-128112200D01*
X76700000Y-128112200D01*
X76700000Y-130764600D01*
X76700000Y-130764600D01*
G37*
G36*
X94876000Y-129991200D02*
X93923600Y-129991200D01*
X93923600Y-129088800D01*
X94876000Y-129088800D01*
X94876000Y-129991200D01*
X94876000Y-129991200D01*
G37*
G36*
X93376000Y-129991200D02*
X92423600Y-129991200D01*
X92423600Y-129088800D01*
X93376000Y-129088800D01*
X93376000Y-129991200D01*
X93376000Y-129991200D01*
G37*
G36*
X80206800Y-129838800D02*
X79254400Y-129838800D01*
X79254400Y-128936400D01*
X80206800Y-128936400D01*
X80206800Y-129838800D01*
X80206800Y-129838800D01*
G37*
G36*
X78706800Y-129838800D02*
X77754400Y-129838800D01*
X77754400Y-128936400D01*
X78706800Y-128936400D01*
X78706800Y-129838800D01*
X78706800Y-129838800D01*
G37*
G36*
X93388000Y-127857600D02*
X92435600Y-127857600D01*
X92435600Y-126955200D01*
X93388000Y-126955200D01*
X93388000Y-127857600D01*
X93388000Y-127857600D01*
G37*
G36*
X94888000Y-127857600D02*
X93935600Y-127857600D01*
X93935600Y-126955200D01*
X94888000Y-126955200D01*
X94888000Y-127857600D01*
X94888000Y-127857600D01*
G37*
G36*
X46529749Y-119952606D02*
X46849347Y-120018210D01*
X47150128Y-120144647D01*
X47420616Y-120327094D01*
X47650516Y-120558603D01*
X47831069Y-120830358D01*
X47955400Y-121132008D01*
X48018704Y-121451717D01*
X48018704Y-121451727D01*
X48018771Y-121452066D01*
X48013568Y-121824726D01*
X48013491Y-121825064D01*
X48013491Y-121825073D01*
X47941285Y-122142890D01*
X47808581Y-122440947D01*
X47620508Y-122707557D01*
X47384233Y-122932559D01*
X47108756Y-123107382D01*
X46804565Y-123225370D01*
X46483257Y-123282025D01*
X46157058Y-123275192D01*
X45838399Y-123205130D01*
X45539417Y-123074509D01*
X45271506Y-122888305D01*
X45044860Y-122653607D01*
X44868117Y-122379354D01*
X44748007Y-122075993D01*
X44689111Y-121755091D01*
X44693666Y-121428853D01*
X44761502Y-121109711D01*
X44890031Y-120809828D01*
X45074364Y-120540618D01*
X45307472Y-120312341D01*
X45580484Y-120133687D01*
X45882996Y-120011464D01*
X46203483Y-119950328D01*
X46529749Y-119952606D01*
X46529749Y-119952606D01*
G37*
G36*
X92243544Y-120279606D02*
X92399816Y-120327980D01*
X92543715Y-120405787D01*
X92669762Y-120510062D01*
X92773155Y-120636833D01*
X92849954Y-120781273D01*
X92897237Y-120937879D01*
X92913200Y-121100686D01*
X92913200Y-122129746D01*
X92913133Y-122139359D01*
X92913132Y-122139365D01*
X92913118Y-122141417D01*
X92894883Y-122303986D01*
X92845419Y-122459916D01*
X92766610Y-122603269D01*
X92661458Y-122728585D01*
X92533967Y-122831090D01*
X92388995Y-122906880D01*
X92232063Y-122953067D01*
X92232022Y-122953071D01*
X92232018Y-122953072D01*
X92069151Y-122967894D01*
X92069148Y-122967894D01*
X91906456Y-122950794D01*
X91750184Y-122902420D01*
X91606285Y-122824613D01*
X91480238Y-122720338D01*
X91376845Y-122593567D01*
X91300046Y-122449127D01*
X91252763Y-122292521D01*
X91236800Y-122129714D01*
X91236800Y-121100654D01*
X91236867Y-121091041D01*
X91236868Y-121091035D01*
X91236882Y-121088983D01*
X91255117Y-120926414D01*
X91304581Y-120770484D01*
X91383390Y-120627131D01*
X91488542Y-120501815D01*
X91616033Y-120399310D01*
X91761005Y-120323520D01*
X91917937Y-120277333D01*
X91917978Y-120277329D01*
X91917982Y-120277328D01*
X92080850Y-120262506D01*
X92080852Y-120262506D01*
X92243544Y-120279606D01*
X92243544Y-120279606D01*
G37*
G36*
X94783544Y-120279606D02*
X94939816Y-120327980D01*
X95083715Y-120405787D01*
X95209762Y-120510062D01*
X95313155Y-120636833D01*
X95389954Y-120781273D01*
X95437237Y-120937879D01*
X95453200Y-121100686D01*
X95453200Y-122129746D01*
X95453133Y-122139359D01*
X95453132Y-122139365D01*
X95453118Y-122141417D01*
X95434883Y-122303986D01*
X95385419Y-122459916D01*
X95306610Y-122603269D01*
X95201458Y-122728585D01*
X95073967Y-122831090D01*
X94928995Y-122906880D01*
X94772063Y-122953067D01*
X94772022Y-122953071D01*
X94772018Y-122953072D01*
X94609151Y-122967894D01*
X94609148Y-122967894D01*
X94446456Y-122950794D01*
X94290184Y-122902420D01*
X94146285Y-122824613D01*
X94020238Y-122720338D01*
X93916845Y-122593567D01*
X93840046Y-122449127D01*
X93792763Y-122292521D01*
X93776800Y-122129714D01*
X93776800Y-121100654D01*
X93776867Y-121091041D01*
X93776868Y-121091035D01*
X93776882Y-121088983D01*
X93795117Y-120926414D01*
X93844581Y-120770484D01*
X93923390Y-120627131D01*
X94028542Y-120501815D01*
X94156033Y-120399310D01*
X94301005Y-120323520D01*
X94457937Y-120277333D01*
X94457978Y-120277329D01*
X94457982Y-120277328D01*
X94620850Y-120262506D01*
X94620852Y-120262506D01*
X94783544Y-120279606D01*
X94783544Y-120279606D01*
G37*
G36*
X84623544Y-120279606D02*
X84779816Y-120327980D01*
X84923715Y-120405787D01*
X85049762Y-120510062D01*
X85153155Y-120636833D01*
X85229954Y-120781273D01*
X85277237Y-120937879D01*
X85293200Y-121100686D01*
X85293200Y-122129746D01*
X85293133Y-122139359D01*
X85293132Y-122139365D01*
X85293118Y-122141417D01*
X85274883Y-122303986D01*
X85225419Y-122459916D01*
X85146610Y-122603269D01*
X85041458Y-122728585D01*
X84913967Y-122831090D01*
X84768995Y-122906880D01*
X84612063Y-122953067D01*
X84612022Y-122953071D01*
X84612018Y-122953072D01*
X84449151Y-122967894D01*
X84449148Y-122967894D01*
X84286456Y-122950794D01*
X84130184Y-122902420D01*
X83986285Y-122824613D01*
X83860238Y-122720338D01*
X83756845Y-122593567D01*
X83680046Y-122449127D01*
X83632763Y-122292521D01*
X83616800Y-122129714D01*
X83616800Y-121100654D01*
X83616867Y-121091041D01*
X83616868Y-121091035D01*
X83616882Y-121088983D01*
X83635117Y-120926414D01*
X83684581Y-120770484D01*
X83763390Y-120627131D01*
X83868542Y-120501815D01*
X83996033Y-120399310D01*
X84141005Y-120323520D01*
X84297937Y-120277333D01*
X84297978Y-120277329D01*
X84297982Y-120277328D01*
X84460850Y-120262506D01*
X84460852Y-120262506D01*
X84623544Y-120279606D01*
X84623544Y-120279606D01*
G37*
G36*
X87163544Y-120279606D02*
X87319816Y-120327980D01*
X87463715Y-120405787D01*
X87589762Y-120510062D01*
X87693155Y-120636833D01*
X87769954Y-120781273D01*
X87817237Y-120937879D01*
X87833200Y-121100686D01*
X87833200Y-122129746D01*
X87833133Y-122139359D01*
X87833132Y-122139365D01*
X87833118Y-122141417D01*
X87814883Y-122303986D01*
X87765419Y-122459916D01*
X87686610Y-122603269D01*
X87581458Y-122728585D01*
X87453967Y-122831090D01*
X87308995Y-122906880D01*
X87152063Y-122953067D01*
X87152022Y-122953071D01*
X87152018Y-122953072D01*
X86989151Y-122967894D01*
X86989148Y-122967894D01*
X86826456Y-122950794D01*
X86670184Y-122902420D01*
X86526285Y-122824613D01*
X86400238Y-122720338D01*
X86296845Y-122593567D01*
X86220046Y-122449127D01*
X86172763Y-122292521D01*
X86156800Y-122129714D01*
X86156800Y-121100654D01*
X86156867Y-121091041D01*
X86156868Y-121091035D01*
X86156882Y-121088983D01*
X86175117Y-120926414D01*
X86224581Y-120770484D01*
X86303390Y-120627131D01*
X86408542Y-120501815D01*
X86536033Y-120399310D01*
X86681005Y-120323520D01*
X86837937Y-120277333D01*
X86837978Y-120277329D01*
X86837982Y-120277328D01*
X87000850Y-120262506D01*
X87000852Y-120262506D01*
X87163544Y-120279606D01*
X87163544Y-120279606D01*
G37*
G36*
X89703544Y-120279606D02*
X89859816Y-120327980D01*
X90003715Y-120405787D01*
X90129762Y-120510062D01*
X90233155Y-120636833D01*
X90309954Y-120781273D01*
X90357237Y-120937879D01*
X90373200Y-121100686D01*
X90373200Y-122129746D01*
X90373133Y-122139359D01*
X90373132Y-122139365D01*
X90373118Y-122141417D01*
X90354883Y-122303986D01*
X90305419Y-122459916D01*
X90226610Y-122603269D01*
X90121458Y-122728585D01*
X89993967Y-122831090D01*
X89848995Y-122906880D01*
X89692063Y-122953067D01*
X89692022Y-122953071D01*
X89692018Y-122953072D01*
X89529151Y-122967894D01*
X89529148Y-122967894D01*
X89366456Y-122950794D01*
X89210184Y-122902420D01*
X89066285Y-122824613D01*
X88940238Y-122720338D01*
X88836845Y-122593567D01*
X88760046Y-122449127D01*
X88712763Y-122292521D01*
X88696800Y-122129714D01*
X88696800Y-121100654D01*
X88696867Y-121091041D01*
X88696868Y-121091035D01*
X88696882Y-121088983D01*
X88715117Y-120926414D01*
X88764581Y-120770484D01*
X88843390Y-120627131D01*
X88948542Y-120501815D01*
X89076033Y-120399310D01*
X89221005Y-120323520D01*
X89377937Y-120277333D01*
X89377978Y-120277329D01*
X89377982Y-120277328D01*
X89540850Y-120262506D01*
X89540852Y-120262506D01*
X89703544Y-120279606D01*
X89703544Y-120279606D01*
G37*
G36*
X50079544Y-120279606D02*
X50235816Y-120327980D01*
X50379715Y-120405787D01*
X50505762Y-120510062D01*
X50609155Y-120636833D01*
X50685954Y-120781273D01*
X50733237Y-120937879D01*
X50749200Y-121100686D01*
X50749200Y-122129746D01*
X50749133Y-122139359D01*
X50749132Y-122139365D01*
X50749118Y-122141417D01*
X50730883Y-122303986D01*
X50681419Y-122459916D01*
X50602610Y-122603269D01*
X50497458Y-122728585D01*
X50369967Y-122831090D01*
X50224995Y-122906880D01*
X50068063Y-122953067D01*
X50068022Y-122953071D01*
X50068018Y-122953072D01*
X49905151Y-122967894D01*
X49905148Y-122967894D01*
X49742456Y-122950794D01*
X49586184Y-122902420D01*
X49442285Y-122824613D01*
X49316238Y-122720338D01*
X49212845Y-122593567D01*
X49136046Y-122449127D01*
X49088763Y-122292521D01*
X49072800Y-122129714D01*
X49072800Y-121100654D01*
X49072867Y-121091041D01*
X49072868Y-121091035D01*
X49072882Y-121088983D01*
X49091117Y-120926414D01*
X49140581Y-120770484D01*
X49219390Y-120627131D01*
X49324542Y-120501815D01*
X49452033Y-120399310D01*
X49597005Y-120323520D01*
X49753937Y-120277333D01*
X49753978Y-120277329D01*
X49753982Y-120277328D01*
X49916850Y-120262506D01*
X49916852Y-120262506D01*
X50079544Y-120279606D01*
X50079544Y-120279606D01*
G37*
G36*
X52619544Y-120279606D02*
X52775816Y-120327980D01*
X52919715Y-120405787D01*
X53045762Y-120510062D01*
X53149155Y-120636833D01*
X53225954Y-120781273D01*
X53273237Y-120937879D01*
X53289200Y-121100686D01*
X53289200Y-122129746D01*
X53289133Y-122139359D01*
X53289132Y-122139365D01*
X53289118Y-122141417D01*
X53270883Y-122303986D01*
X53221419Y-122459916D01*
X53142610Y-122603269D01*
X53037458Y-122728585D01*
X52909967Y-122831090D01*
X52764995Y-122906880D01*
X52608063Y-122953067D01*
X52608022Y-122953071D01*
X52608018Y-122953072D01*
X52445151Y-122967894D01*
X52445148Y-122967894D01*
X52282456Y-122950794D01*
X52126184Y-122902420D01*
X51982285Y-122824613D01*
X51856238Y-122720338D01*
X51752845Y-122593567D01*
X51676046Y-122449127D01*
X51628763Y-122292521D01*
X51612800Y-122129714D01*
X51612800Y-121100654D01*
X51612867Y-121091041D01*
X51612868Y-121091035D01*
X51612882Y-121088983D01*
X51631117Y-120926414D01*
X51680581Y-120770484D01*
X51759390Y-120627131D01*
X51864542Y-120501815D01*
X51992033Y-120399310D01*
X52137005Y-120323520D01*
X52293937Y-120277333D01*
X52293978Y-120277329D01*
X52293982Y-120277328D01*
X52456850Y-120262506D01*
X52456852Y-120262506D01*
X52619544Y-120279606D01*
X52619544Y-120279606D01*
G37*
G36*
X55159544Y-120279606D02*
X55315816Y-120327980D01*
X55459715Y-120405787D01*
X55585762Y-120510062D01*
X55689155Y-120636833D01*
X55765954Y-120781273D01*
X55813237Y-120937879D01*
X55829200Y-121100686D01*
X55829200Y-122129746D01*
X55829133Y-122139359D01*
X55829132Y-122139365D01*
X55829118Y-122141417D01*
X55810883Y-122303986D01*
X55761419Y-122459916D01*
X55682610Y-122603269D01*
X55577458Y-122728585D01*
X55449967Y-122831090D01*
X55304995Y-122906880D01*
X55148063Y-122953067D01*
X55148022Y-122953071D01*
X55148018Y-122953072D01*
X54985151Y-122967894D01*
X54985148Y-122967894D01*
X54822456Y-122950794D01*
X54666184Y-122902420D01*
X54522285Y-122824613D01*
X54396238Y-122720338D01*
X54292845Y-122593567D01*
X54216046Y-122449127D01*
X54168763Y-122292521D01*
X54152800Y-122129714D01*
X54152800Y-121100654D01*
X54152867Y-121091041D01*
X54152868Y-121091035D01*
X54152882Y-121088983D01*
X54171117Y-120926414D01*
X54220581Y-120770484D01*
X54299390Y-120627131D01*
X54404542Y-120501815D01*
X54532033Y-120399310D01*
X54677005Y-120323520D01*
X54833937Y-120277333D01*
X54833978Y-120277329D01*
X54833982Y-120277328D01*
X54996850Y-120262506D01*
X54996852Y-120262506D01*
X55159544Y-120279606D01*
X55159544Y-120279606D01*
G37*
G36*
X57699544Y-120279606D02*
X57855816Y-120327980D01*
X57999715Y-120405787D01*
X58125762Y-120510062D01*
X58229155Y-120636833D01*
X58305954Y-120781273D01*
X58353237Y-120937879D01*
X58369200Y-121100686D01*
X58369200Y-122129746D01*
X58369133Y-122139359D01*
X58369132Y-122139365D01*
X58369118Y-122141417D01*
X58350883Y-122303986D01*
X58301419Y-122459916D01*
X58222610Y-122603269D01*
X58117458Y-122728585D01*
X57989967Y-122831090D01*
X57844995Y-122906880D01*
X57688063Y-122953067D01*
X57688022Y-122953071D01*
X57688018Y-122953072D01*
X57525151Y-122967894D01*
X57525148Y-122967894D01*
X57362456Y-122950794D01*
X57206184Y-122902420D01*
X57062285Y-122824613D01*
X56936238Y-122720338D01*
X56832845Y-122593567D01*
X56756046Y-122449127D01*
X56708763Y-122292521D01*
X56692800Y-122129714D01*
X56692800Y-121100654D01*
X56692867Y-121091041D01*
X56692868Y-121091035D01*
X56692882Y-121088983D01*
X56711117Y-120926414D01*
X56760581Y-120770484D01*
X56839390Y-120627131D01*
X56944542Y-120501815D01*
X57072033Y-120399310D01*
X57217005Y-120323520D01*
X57373937Y-120277333D01*
X57373978Y-120277329D01*
X57373982Y-120277328D01*
X57536850Y-120262506D01*
X57536852Y-120262506D01*
X57699544Y-120279606D01*
X57699544Y-120279606D01*
G37*
G36*
X60239544Y-120279606D02*
X60395816Y-120327980D01*
X60539715Y-120405787D01*
X60665762Y-120510062D01*
X60769155Y-120636833D01*
X60845954Y-120781273D01*
X60893237Y-120937879D01*
X60909200Y-121100686D01*
X60909200Y-122129746D01*
X60909133Y-122139359D01*
X60909132Y-122139365D01*
X60909118Y-122141417D01*
X60890883Y-122303986D01*
X60841419Y-122459916D01*
X60762610Y-122603269D01*
X60657458Y-122728585D01*
X60529967Y-122831090D01*
X60384995Y-122906880D01*
X60228063Y-122953067D01*
X60228022Y-122953071D01*
X60228018Y-122953072D01*
X60065151Y-122967894D01*
X60065148Y-122967894D01*
X59902456Y-122950794D01*
X59746184Y-122902420D01*
X59602285Y-122824613D01*
X59476238Y-122720338D01*
X59372845Y-122593567D01*
X59296046Y-122449127D01*
X59248763Y-122292521D01*
X59232800Y-122129714D01*
X59232800Y-121100654D01*
X59232867Y-121091041D01*
X59232868Y-121091035D01*
X59232882Y-121088983D01*
X59251117Y-120926414D01*
X59300581Y-120770484D01*
X59379390Y-120627131D01*
X59484542Y-120501815D01*
X59612033Y-120399310D01*
X59757005Y-120323520D01*
X59913937Y-120277333D01*
X59913978Y-120277329D01*
X59913982Y-120277328D01*
X60076850Y-120262506D01*
X60076852Y-120262506D01*
X60239544Y-120279606D01*
X60239544Y-120279606D01*
G37*
G36*
X62779544Y-120279606D02*
X62935816Y-120327980D01*
X63079715Y-120405787D01*
X63205762Y-120510062D01*
X63309155Y-120636833D01*
X63385954Y-120781273D01*
X63433237Y-120937879D01*
X63449200Y-121100686D01*
X63449200Y-122129746D01*
X63449133Y-122139359D01*
X63449132Y-122139365D01*
X63449118Y-122141417D01*
X63430883Y-122303986D01*
X63381419Y-122459916D01*
X63302610Y-122603269D01*
X63197458Y-122728585D01*
X63069967Y-122831090D01*
X62924995Y-122906880D01*
X62768063Y-122953067D01*
X62768022Y-122953071D01*
X62768018Y-122953072D01*
X62605151Y-122967894D01*
X62605148Y-122967894D01*
X62442456Y-122950794D01*
X62286184Y-122902420D01*
X62142285Y-122824613D01*
X62016238Y-122720338D01*
X61912845Y-122593567D01*
X61836046Y-122449127D01*
X61788763Y-122292521D01*
X61772800Y-122129714D01*
X61772800Y-121100654D01*
X61772867Y-121091041D01*
X61772868Y-121091035D01*
X61772882Y-121088983D01*
X61791117Y-120926414D01*
X61840581Y-120770484D01*
X61919390Y-120627131D01*
X62024542Y-120501815D01*
X62152033Y-120399310D01*
X62297005Y-120323520D01*
X62453937Y-120277333D01*
X62453978Y-120277329D01*
X62453982Y-120277328D01*
X62616850Y-120262506D01*
X62616852Y-120262506D01*
X62779544Y-120279606D01*
X62779544Y-120279606D01*
G37*
G36*
X65319544Y-120279606D02*
X65475816Y-120327980D01*
X65619715Y-120405787D01*
X65745762Y-120510062D01*
X65849155Y-120636833D01*
X65925954Y-120781273D01*
X65973237Y-120937879D01*
X65989200Y-121100686D01*
X65989200Y-122129746D01*
X65989133Y-122139359D01*
X65989132Y-122139365D01*
X65989118Y-122141417D01*
X65970883Y-122303986D01*
X65921419Y-122459916D01*
X65842610Y-122603269D01*
X65737458Y-122728585D01*
X65609967Y-122831090D01*
X65464995Y-122906880D01*
X65308063Y-122953067D01*
X65308022Y-122953071D01*
X65308018Y-122953072D01*
X65145151Y-122967894D01*
X65145148Y-122967894D01*
X64982456Y-122950794D01*
X64826184Y-122902420D01*
X64682285Y-122824613D01*
X64556238Y-122720338D01*
X64452845Y-122593567D01*
X64376046Y-122449127D01*
X64328763Y-122292521D01*
X64312800Y-122129714D01*
X64312800Y-121100654D01*
X64312867Y-121091041D01*
X64312868Y-121091035D01*
X64312882Y-121088983D01*
X64331117Y-120926414D01*
X64380581Y-120770484D01*
X64459390Y-120627131D01*
X64564542Y-120501815D01*
X64692033Y-120399310D01*
X64837005Y-120323520D01*
X64993937Y-120277333D01*
X64993978Y-120277329D01*
X64993982Y-120277328D01*
X65156850Y-120262506D01*
X65156852Y-120262506D01*
X65319544Y-120279606D01*
X65319544Y-120279606D01*
G37*
G36*
X67859544Y-120279606D02*
X68015816Y-120327980D01*
X68159715Y-120405787D01*
X68285762Y-120510062D01*
X68389155Y-120636833D01*
X68465954Y-120781273D01*
X68513237Y-120937879D01*
X68529200Y-121100686D01*
X68529200Y-122129746D01*
X68529133Y-122139359D01*
X68529132Y-122139365D01*
X68529118Y-122141417D01*
X68510883Y-122303986D01*
X68461419Y-122459916D01*
X68382610Y-122603269D01*
X68277458Y-122728585D01*
X68149967Y-122831090D01*
X68004995Y-122906880D01*
X67848063Y-122953067D01*
X67848022Y-122953071D01*
X67848018Y-122953072D01*
X67685151Y-122967894D01*
X67685148Y-122967894D01*
X67522456Y-122950794D01*
X67366184Y-122902420D01*
X67222285Y-122824613D01*
X67096238Y-122720338D01*
X66992845Y-122593567D01*
X66916046Y-122449127D01*
X66868763Y-122292521D01*
X66852800Y-122129714D01*
X66852800Y-121100654D01*
X66852867Y-121091041D01*
X66852868Y-121091035D01*
X66852882Y-121088983D01*
X66871117Y-120926414D01*
X66920581Y-120770484D01*
X66999390Y-120627131D01*
X67104542Y-120501815D01*
X67232033Y-120399310D01*
X67377005Y-120323520D01*
X67533937Y-120277333D01*
X67533978Y-120277329D01*
X67533982Y-120277328D01*
X67696850Y-120262506D01*
X67696852Y-120262506D01*
X67859544Y-120279606D01*
X67859544Y-120279606D01*
G37*
G36*
X70399544Y-120279606D02*
X70555816Y-120327980D01*
X70699715Y-120405787D01*
X70825762Y-120510062D01*
X70929155Y-120636833D01*
X71005954Y-120781273D01*
X71053237Y-120937879D01*
X71069200Y-121100686D01*
X71069200Y-122129746D01*
X71069133Y-122139359D01*
X71069132Y-122139365D01*
X71069118Y-122141417D01*
X71050883Y-122303986D01*
X71001419Y-122459916D01*
X70922610Y-122603269D01*
X70817458Y-122728585D01*
X70689967Y-122831090D01*
X70544995Y-122906880D01*
X70388063Y-122953067D01*
X70388022Y-122953071D01*
X70388018Y-122953072D01*
X70225151Y-122967894D01*
X70225148Y-122967894D01*
X70062456Y-122950794D01*
X69906184Y-122902420D01*
X69762285Y-122824613D01*
X69636238Y-122720338D01*
X69532845Y-122593567D01*
X69456046Y-122449127D01*
X69408763Y-122292521D01*
X69392800Y-122129714D01*
X69392800Y-121100654D01*
X69392867Y-121091041D01*
X69392868Y-121091035D01*
X69392882Y-121088983D01*
X69411117Y-120926414D01*
X69460581Y-120770484D01*
X69539390Y-120627131D01*
X69644542Y-120501815D01*
X69772033Y-120399310D01*
X69917005Y-120323520D01*
X70073937Y-120277333D01*
X70073978Y-120277329D01*
X70073982Y-120277328D01*
X70236850Y-120262506D01*
X70236852Y-120262506D01*
X70399544Y-120279606D01*
X70399544Y-120279606D01*
G37*
G36*
X72939544Y-120279606D02*
X73095816Y-120327980D01*
X73239715Y-120405787D01*
X73365762Y-120510062D01*
X73469155Y-120636833D01*
X73545954Y-120781273D01*
X73593237Y-120937879D01*
X73609200Y-121100686D01*
X73609200Y-122129746D01*
X73609133Y-122139359D01*
X73609132Y-122139365D01*
X73609118Y-122141417D01*
X73590883Y-122303986D01*
X73541419Y-122459916D01*
X73462610Y-122603269D01*
X73357458Y-122728585D01*
X73229967Y-122831090D01*
X73084995Y-122906880D01*
X72928063Y-122953067D01*
X72928022Y-122953071D01*
X72928018Y-122953072D01*
X72765151Y-122967894D01*
X72765148Y-122967894D01*
X72602456Y-122950794D01*
X72446184Y-122902420D01*
X72302285Y-122824613D01*
X72176238Y-122720338D01*
X72072845Y-122593567D01*
X71996046Y-122449127D01*
X71948763Y-122292521D01*
X71932800Y-122129714D01*
X71932800Y-121100654D01*
X71932867Y-121091041D01*
X71932868Y-121091035D01*
X71932882Y-121088983D01*
X71951117Y-120926414D01*
X72000581Y-120770484D01*
X72079390Y-120627131D01*
X72184542Y-120501815D01*
X72312033Y-120399310D01*
X72457005Y-120323520D01*
X72613937Y-120277333D01*
X72613978Y-120277329D01*
X72613982Y-120277328D01*
X72776850Y-120262506D01*
X72776852Y-120262506D01*
X72939544Y-120279606D01*
X72939544Y-120279606D01*
G37*
G36*
X77003544Y-120279606D02*
X77159816Y-120327980D01*
X77303715Y-120405787D01*
X77429762Y-120510062D01*
X77533155Y-120636833D01*
X77609954Y-120781273D01*
X77657237Y-120937879D01*
X77673200Y-121100686D01*
X77673200Y-122129746D01*
X77673133Y-122139359D01*
X77673132Y-122139365D01*
X77673118Y-122141417D01*
X77654883Y-122303986D01*
X77605419Y-122459916D01*
X77526610Y-122603269D01*
X77421458Y-122728585D01*
X77293967Y-122831090D01*
X77148995Y-122906880D01*
X76992063Y-122953067D01*
X76992022Y-122953071D01*
X76992018Y-122953072D01*
X76829151Y-122967894D01*
X76829148Y-122967894D01*
X76666456Y-122950794D01*
X76510184Y-122902420D01*
X76366285Y-122824613D01*
X76240238Y-122720338D01*
X76136845Y-122593567D01*
X76060046Y-122449127D01*
X76012763Y-122292521D01*
X75996800Y-122129714D01*
X75996800Y-121100654D01*
X75996867Y-121091041D01*
X75996868Y-121091035D01*
X75996882Y-121088983D01*
X76015117Y-120926414D01*
X76064581Y-120770484D01*
X76143390Y-120627131D01*
X76248542Y-120501815D01*
X76376033Y-120399310D01*
X76521005Y-120323520D01*
X76677937Y-120277333D01*
X76677978Y-120277329D01*
X76677982Y-120277328D01*
X76840850Y-120262506D01*
X76840852Y-120262506D01*
X77003544Y-120279606D01*
X77003544Y-120279606D01*
G37*
G36*
X82083544Y-120279606D02*
X82239816Y-120327980D01*
X82383715Y-120405787D01*
X82509762Y-120510062D01*
X82613155Y-120636833D01*
X82689954Y-120781273D01*
X82737237Y-120937879D01*
X82753200Y-121100686D01*
X82753200Y-122129746D01*
X82753133Y-122139359D01*
X82753132Y-122139365D01*
X82753118Y-122141417D01*
X82734883Y-122303986D01*
X82685419Y-122459916D01*
X82606610Y-122603269D01*
X82501458Y-122728585D01*
X82373967Y-122831090D01*
X82228995Y-122906880D01*
X82072063Y-122953067D01*
X82072022Y-122953071D01*
X82072018Y-122953072D01*
X81909151Y-122967894D01*
X81909148Y-122967894D01*
X81746456Y-122950794D01*
X81590184Y-122902420D01*
X81446285Y-122824613D01*
X81320238Y-122720338D01*
X81216845Y-122593567D01*
X81140046Y-122449127D01*
X81092763Y-122292521D01*
X81076800Y-122129714D01*
X81076800Y-121100654D01*
X81076867Y-121091041D01*
X81076868Y-121091035D01*
X81076882Y-121088983D01*
X81095117Y-120926414D01*
X81144581Y-120770484D01*
X81223390Y-120627131D01*
X81328542Y-120501815D01*
X81456033Y-120399310D01*
X81601005Y-120323520D01*
X81757937Y-120277333D01*
X81757978Y-120277329D01*
X81757982Y-120277328D01*
X81920850Y-120262506D01*
X81920852Y-120262506D01*
X82083544Y-120279606D01*
X82083544Y-120279606D01*
G37*
G36*
X79543544Y-120279606D02*
X79699816Y-120327980D01*
X79843715Y-120405787D01*
X79969762Y-120510062D01*
X80073155Y-120636833D01*
X80149954Y-120781273D01*
X80197237Y-120937879D01*
X80213200Y-121100686D01*
X80213200Y-122129746D01*
X80213133Y-122139359D01*
X80213132Y-122139365D01*
X80213118Y-122141417D01*
X80194883Y-122303986D01*
X80145419Y-122459916D01*
X80066610Y-122603269D01*
X79961458Y-122728585D01*
X79833967Y-122831090D01*
X79688995Y-122906880D01*
X79532063Y-122953067D01*
X79532022Y-122953071D01*
X79532018Y-122953072D01*
X79369151Y-122967894D01*
X79369148Y-122967894D01*
X79206456Y-122950794D01*
X79050184Y-122902420D01*
X78906285Y-122824613D01*
X78780238Y-122720338D01*
X78676845Y-122593567D01*
X78600046Y-122449127D01*
X78552763Y-122292521D01*
X78536800Y-122129714D01*
X78536800Y-121100654D01*
X78536867Y-121091041D01*
X78536868Y-121091035D01*
X78536882Y-121088983D01*
X78555117Y-120926414D01*
X78604581Y-120770484D01*
X78683390Y-120627131D01*
X78788542Y-120501815D01*
X78916033Y-120399310D01*
X79061005Y-120323520D01*
X79217937Y-120277333D01*
X79217978Y-120277329D01*
X79217982Y-120277328D01*
X79380850Y-120262506D01*
X79380852Y-120262506D01*
X79543544Y-120279606D01*
X79543544Y-120279606D01*
G37*
M02*
