%TF.GenerationSoftware,KiCad,Pcbnew,4.0.7-e2-6376~58~ubuntu16.04.1*%
%TF.CreationDate,2017-10-04T18:34:51-07:00*%
%TF.ProjectId,mcphail-zero-analog-shield,6D63706861696C2D7A65726F2D616E61,v1.0*%
%TF.FileFunction,Legend,Bot*%
%FSLAX46Y46*%
G04 Gerber Fmt 4.6, Leading zero omitted, Abs format (unit mm)*
G04 Created by KiCad (PCBNEW 4.0.7-e2-6376~58~ubuntu16.04.1) date Wed Oct  4 18:34:51 2017*
%MOMM*%
%LPD*%
G01*
G04 APERTURE LIST*
%ADD10C,0.350000*%
%ADD11C,0.254000*%
%ADD12C,0.203200*%
%ADD13C,2.946400*%
%ADD14C,1.752400*%
%ADD15R,2.184400X2.184400*%
%ADD16O,2.184400X2.184400*%
%ADD17O,1.676400X2.692400*%
%ADD18C,3.327400*%
G04 APERTURE END LIST*
D10*
D11*
X90725171Y-163975143D02*
X92249171Y-163975143D01*
X91160600Y-163467143D01*
X92249171Y-162959143D01*
X90725171Y-162959143D01*
X90797743Y-161580286D02*
X90725171Y-161725429D01*
X90725171Y-162015715D01*
X90797743Y-162160857D01*
X90870314Y-162233429D01*
X91015457Y-162306000D01*
X91450886Y-162306000D01*
X91596029Y-162233429D01*
X91668600Y-162160857D01*
X91741171Y-162015715D01*
X91741171Y-161725429D01*
X91668600Y-161580286D01*
X90725171Y-160927143D02*
X92249171Y-160927143D01*
X92249171Y-160346571D01*
X92176600Y-160201429D01*
X92104029Y-160128857D01*
X91958886Y-160056286D01*
X91741171Y-160056286D01*
X91596029Y-160128857D01*
X91523457Y-160201429D01*
X91450886Y-160346571D01*
X91450886Y-160927143D01*
X90725171Y-159403143D02*
X92249171Y-159403143D01*
X90725171Y-158750000D02*
X91523457Y-158750000D01*
X91668600Y-158822571D01*
X91741171Y-158967714D01*
X91741171Y-159185429D01*
X91668600Y-159330571D01*
X91596029Y-159403143D01*
X90725171Y-157371143D02*
X91523457Y-157371143D01*
X91668600Y-157443714D01*
X91741171Y-157588857D01*
X91741171Y-157879143D01*
X91668600Y-158024286D01*
X90797743Y-157371143D02*
X90725171Y-157516286D01*
X90725171Y-157879143D01*
X90797743Y-158024286D01*
X90942886Y-158096857D01*
X91088029Y-158096857D01*
X91233171Y-158024286D01*
X91305743Y-157879143D01*
X91305743Y-157516286D01*
X91378314Y-157371143D01*
X90725171Y-156645429D02*
X91741171Y-156645429D01*
X92249171Y-156645429D02*
X92176600Y-156718000D01*
X92104029Y-156645429D01*
X92176600Y-156572857D01*
X92249171Y-156645429D01*
X92104029Y-156645429D01*
X90725171Y-155702001D02*
X90797743Y-155847143D01*
X90942886Y-155919715D01*
X92249171Y-155919715D01*
X92249171Y-154105429D02*
X92249171Y-153089429D01*
X90725171Y-154105429D01*
X90725171Y-153089429D01*
X90797743Y-151928285D02*
X90725171Y-152073428D01*
X90725171Y-152363714D01*
X90797743Y-152508857D01*
X90942886Y-152581428D01*
X91523457Y-152581428D01*
X91668600Y-152508857D01*
X91741171Y-152363714D01*
X91741171Y-152073428D01*
X91668600Y-151928285D01*
X91523457Y-151855714D01*
X91378314Y-151855714D01*
X91233171Y-152581428D01*
X90725171Y-151202571D02*
X91741171Y-151202571D01*
X91450886Y-151202571D02*
X91596029Y-151129999D01*
X91668600Y-151057428D01*
X91741171Y-150912285D01*
X91741171Y-150767142D01*
X90725171Y-150041428D02*
X90797743Y-150186570D01*
X90870314Y-150259142D01*
X91015457Y-150331713D01*
X91450886Y-150331713D01*
X91596029Y-150259142D01*
X91668600Y-150186570D01*
X91741171Y-150041428D01*
X91741171Y-149823713D01*
X91668600Y-149678570D01*
X91596029Y-149605999D01*
X91450886Y-149533428D01*
X91015457Y-149533428D01*
X90870314Y-149605999D01*
X90797743Y-149678570D01*
X90725171Y-149823713D01*
X90725171Y-150041428D01*
X91160600Y-147791713D02*
X91160600Y-147065999D01*
X90725171Y-147936856D02*
X92249171Y-147428856D01*
X90725171Y-146920856D01*
X91741171Y-146412856D02*
X90725171Y-146412856D01*
X91596029Y-146412856D02*
X91668600Y-146340284D01*
X91741171Y-146195142D01*
X91741171Y-145977427D01*
X91668600Y-145832284D01*
X91523457Y-145759713D01*
X90725171Y-145759713D01*
X90725171Y-144380856D02*
X91523457Y-144380856D01*
X91668600Y-144453427D01*
X91741171Y-144598570D01*
X91741171Y-144888856D01*
X91668600Y-145033999D01*
X90797743Y-144380856D02*
X90725171Y-144525999D01*
X90725171Y-144888856D01*
X90797743Y-145033999D01*
X90942886Y-145106570D01*
X91088029Y-145106570D01*
X91233171Y-145033999D01*
X91305743Y-144888856D01*
X91305743Y-144525999D01*
X91378314Y-144380856D01*
X90725171Y-143437428D02*
X90797743Y-143582570D01*
X90942886Y-143655142D01*
X92249171Y-143655142D01*
X90725171Y-142639142D02*
X90797743Y-142784284D01*
X90870314Y-142856856D01*
X91015457Y-142929427D01*
X91450886Y-142929427D01*
X91596029Y-142856856D01*
X91668600Y-142784284D01*
X91741171Y-142639142D01*
X91741171Y-142421427D01*
X91668600Y-142276284D01*
X91596029Y-142203713D01*
X91450886Y-142131142D01*
X91015457Y-142131142D01*
X90870314Y-142203713D01*
X90797743Y-142276284D01*
X90725171Y-142421427D01*
X90725171Y-142639142D01*
X91741171Y-140824856D02*
X90507457Y-140824856D01*
X90362314Y-140897427D01*
X90289743Y-140969999D01*
X90217171Y-141115142D01*
X90217171Y-141332856D01*
X90289743Y-141477999D01*
X90797743Y-140824856D02*
X90725171Y-140969999D01*
X90725171Y-141260285D01*
X90797743Y-141405427D01*
X90870314Y-141477999D01*
X91015457Y-141550570D01*
X91450886Y-141550570D01*
X91596029Y-141477999D01*
X91668600Y-141405427D01*
X91741171Y-141260285D01*
X91741171Y-140969999D01*
X91668600Y-140824856D01*
X90797743Y-139010570D02*
X90725171Y-138792856D01*
X90725171Y-138429999D01*
X90797743Y-138284856D01*
X90870314Y-138212285D01*
X91015457Y-138139713D01*
X91160600Y-138139713D01*
X91305743Y-138212285D01*
X91378314Y-138284856D01*
X91450886Y-138429999D01*
X91523457Y-138720285D01*
X91596029Y-138865427D01*
X91668600Y-138937999D01*
X91813743Y-139010570D01*
X91958886Y-139010570D01*
X92104029Y-138937999D01*
X92176600Y-138865427D01*
X92249171Y-138720285D01*
X92249171Y-138357427D01*
X92176600Y-138139713D01*
X90725171Y-137486570D02*
X92249171Y-137486570D01*
X90725171Y-136833427D02*
X91523457Y-136833427D01*
X91668600Y-136905998D01*
X91741171Y-137051141D01*
X91741171Y-137268856D01*
X91668600Y-137413998D01*
X91596029Y-137486570D01*
X90725171Y-136107713D02*
X91741171Y-136107713D01*
X92249171Y-136107713D02*
X92176600Y-136180284D01*
X92104029Y-136107713D01*
X92176600Y-136035141D01*
X92249171Y-136107713D01*
X92104029Y-136107713D01*
X90797743Y-134801427D02*
X90725171Y-134946570D01*
X90725171Y-135236856D01*
X90797743Y-135381999D01*
X90942886Y-135454570D01*
X91523457Y-135454570D01*
X91668600Y-135381999D01*
X91741171Y-135236856D01*
X91741171Y-134946570D01*
X91668600Y-134801427D01*
X91523457Y-134728856D01*
X91378314Y-134728856D01*
X91233171Y-135454570D01*
X90725171Y-133857999D02*
X90797743Y-134003141D01*
X90942886Y-134075713D01*
X92249171Y-134075713D01*
X90725171Y-132624284D02*
X92249171Y-132624284D01*
X90797743Y-132624284D02*
X90725171Y-132769427D01*
X90725171Y-133059713D01*
X90797743Y-133204855D01*
X90870314Y-133277427D01*
X91015457Y-133349998D01*
X91450886Y-133349998D01*
X91596029Y-133277427D01*
X91668600Y-133204855D01*
X91741171Y-133059713D01*
X91741171Y-132769427D01*
X91668600Y-132624284D01*
X91741171Y-130882570D02*
X90725171Y-130519713D01*
X91741171Y-130156855D01*
X90725171Y-128777998D02*
X90725171Y-129648855D01*
X90725171Y-129213427D02*
X92249171Y-129213427D01*
X92031457Y-129358570D01*
X91886314Y-129503712D01*
X91813743Y-129648855D01*
X90870314Y-128124855D02*
X90797743Y-128052283D01*
X90725171Y-128124855D01*
X90797743Y-128197426D01*
X90870314Y-128124855D01*
X90725171Y-128124855D01*
X92249171Y-127108855D02*
X92249171Y-126963712D01*
X92176600Y-126818569D01*
X92104029Y-126745998D01*
X91958886Y-126673427D01*
X91668600Y-126600855D01*
X91305743Y-126600855D01*
X91015457Y-126673427D01*
X90870314Y-126745998D01*
X90797743Y-126818569D01*
X90725171Y-126963712D01*
X90725171Y-127108855D01*
X90797743Y-127253998D01*
X90870314Y-127326569D01*
X91015457Y-127399141D01*
X91305743Y-127471712D01*
X91668600Y-127471712D01*
X91958886Y-127399141D01*
X92104029Y-127326569D01*
X92176600Y-127253998D01*
X92249171Y-127108855D01*
X88185171Y-163975143D02*
X89709171Y-163975143D01*
X88185171Y-163104286D02*
X89056029Y-163757429D01*
X89709171Y-163104286D02*
X88838314Y-163975143D01*
X89201171Y-162596286D02*
X88185171Y-162233429D01*
X89201171Y-161870571D02*
X88185171Y-162233429D01*
X87822314Y-162378571D01*
X87749743Y-162451143D01*
X87677171Y-162596286D01*
X88185171Y-161072286D02*
X88257743Y-161217428D01*
X88402886Y-161290000D01*
X89709171Y-161290000D01*
X88257743Y-159911142D02*
X88185171Y-160056285D01*
X88185171Y-160346571D01*
X88257743Y-160491714D01*
X88402886Y-160564285D01*
X88983457Y-160564285D01*
X89128600Y-160491714D01*
X89201171Y-160346571D01*
X89201171Y-160056285D01*
X89128600Y-159911142D01*
X88983457Y-159838571D01*
X88838314Y-159838571D01*
X88693171Y-160564285D01*
X88983457Y-157516285D02*
X88910886Y-157298571D01*
X88838314Y-157225999D01*
X88693171Y-157153428D01*
X88475457Y-157153428D01*
X88330314Y-157225999D01*
X88257743Y-157298571D01*
X88185171Y-157443713D01*
X88185171Y-158024285D01*
X89709171Y-158024285D01*
X89709171Y-157516285D01*
X89636600Y-157371142D01*
X89564029Y-157298571D01*
X89418886Y-157225999D01*
X89273743Y-157225999D01*
X89128600Y-157298571D01*
X89056029Y-157371142D01*
X88983457Y-157516285D01*
X88983457Y-158024285D01*
X88185171Y-156500285D02*
X89201171Y-156500285D01*
X89709171Y-156500285D02*
X89636600Y-156572856D01*
X89564029Y-156500285D01*
X89636600Y-156427713D01*
X89709171Y-156500285D01*
X89564029Y-156500285D01*
X88185171Y-155774571D02*
X89201171Y-155774571D01*
X88910886Y-155774571D02*
X89056029Y-155701999D01*
X89128600Y-155629428D01*
X89201171Y-155484285D01*
X89201171Y-155339142D01*
X88257743Y-154177999D02*
X88185171Y-154323142D01*
X88185171Y-154613428D01*
X88257743Y-154758570D01*
X88330314Y-154831142D01*
X88475457Y-154903713D01*
X88910886Y-154903713D01*
X89056029Y-154831142D01*
X89128600Y-154758570D01*
X89201171Y-154613428D01*
X89201171Y-154323142D01*
X89128600Y-154177999D01*
X88185171Y-153524856D02*
X89709171Y-153524856D01*
X88185171Y-152871713D02*
X88983457Y-152871713D01*
X89128600Y-152944284D01*
X89201171Y-153089427D01*
X89201171Y-153307142D01*
X89128600Y-153452284D01*
X89056029Y-153524856D01*
X88185171Y-151492856D02*
X88983457Y-151492856D01*
X89128600Y-151565427D01*
X89201171Y-151710570D01*
X89201171Y-152000856D01*
X89128600Y-152145999D01*
X88257743Y-151492856D02*
X88185171Y-151637999D01*
X88185171Y-152000856D01*
X88257743Y-152145999D01*
X88402886Y-152218570D01*
X88548029Y-152218570D01*
X88693171Y-152145999D01*
X88765743Y-152000856D01*
X88765743Y-151637999D01*
X88838314Y-151492856D01*
X88185171Y-150767142D02*
X89201171Y-150767142D01*
X88910886Y-150767142D02*
X89056029Y-150694570D01*
X89128600Y-150621999D01*
X89201171Y-150476856D01*
X89201171Y-150331713D01*
X88185171Y-149170570D02*
X89709171Y-149170570D01*
X88257743Y-149170570D02*
X88185171Y-149315713D01*
X88185171Y-149605999D01*
X88257743Y-149751141D01*
X88330314Y-149823713D01*
X88475457Y-149896284D01*
X88910886Y-149896284D01*
X89056029Y-149823713D01*
X89128600Y-149751141D01*
X89201171Y-149605999D01*
X89201171Y-149315713D01*
X89128600Y-149170570D01*
X88185171Y-146630570D02*
X88983457Y-146630570D01*
X89128600Y-146703141D01*
X89201171Y-146848284D01*
X89201171Y-147138570D01*
X89128600Y-147283713D01*
X88257743Y-146630570D02*
X88185171Y-146775713D01*
X88185171Y-147138570D01*
X88257743Y-147283713D01*
X88402886Y-147356284D01*
X88548029Y-147356284D01*
X88693171Y-147283713D01*
X88765743Y-147138570D01*
X88765743Y-146775713D01*
X88838314Y-146630570D01*
X89201171Y-145904856D02*
X88185171Y-145904856D01*
X89056029Y-145904856D02*
X89128600Y-145832284D01*
X89201171Y-145687142D01*
X89201171Y-145469427D01*
X89128600Y-145324284D01*
X88983457Y-145251713D01*
X88185171Y-145251713D01*
X88185171Y-143872856D02*
X89709171Y-143872856D01*
X88257743Y-143872856D02*
X88185171Y-144017999D01*
X88185171Y-144308285D01*
X88257743Y-144453427D01*
X88330314Y-144525999D01*
X88475457Y-144598570D01*
X88910886Y-144598570D01*
X89056029Y-144525999D01*
X89128600Y-144453427D01*
X89201171Y-144308285D01*
X89201171Y-144017999D01*
X89128600Y-143872856D01*
X89709171Y-141550570D02*
X88620600Y-141550570D01*
X88402886Y-141623142D01*
X88257743Y-141768285D01*
X88185171Y-141985999D01*
X88185171Y-142131142D01*
X88257743Y-140244284D02*
X88185171Y-140389427D01*
X88185171Y-140679713D01*
X88257743Y-140824856D01*
X88402886Y-140897427D01*
X88983457Y-140897427D01*
X89128600Y-140824856D01*
X89201171Y-140679713D01*
X89201171Y-140389427D01*
X89128600Y-140244284D01*
X88983457Y-140171713D01*
X88838314Y-140171713D01*
X88693171Y-140897427D01*
X89201171Y-139518570D02*
X88185171Y-139518570D01*
X89056029Y-139518570D02*
X89128600Y-139445998D01*
X89201171Y-139300856D01*
X89201171Y-139083141D01*
X89128600Y-138937998D01*
X88983457Y-138865427D01*
X88185171Y-138865427D01*
X89201171Y-138139713D02*
X88185171Y-138139713D01*
X89056029Y-138139713D02*
X89128600Y-138067141D01*
X89201171Y-137921999D01*
X89201171Y-137704284D01*
X89128600Y-137559141D01*
X88983457Y-137486570D01*
X88185171Y-137486570D01*
X88257743Y-136180284D02*
X88185171Y-136325427D01*
X88185171Y-136615713D01*
X88257743Y-136760856D01*
X88402886Y-136833427D01*
X88983457Y-136833427D01*
X89128600Y-136760856D01*
X89201171Y-136615713D01*
X89201171Y-136325427D01*
X89128600Y-136180284D01*
X88983457Y-136107713D01*
X88838314Y-136107713D01*
X88693171Y-136833427D01*
X88185171Y-135454570D02*
X89201171Y-135454570D01*
X88910886Y-135454570D02*
X89056029Y-135381998D01*
X89128600Y-135309427D01*
X89201171Y-135164284D01*
X89201171Y-135019141D01*
X88185171Y-133349998D02*
X89709171Y-133349998D01*
X88983457Y-133349998D02*
X88983457Y-132479141D01*
X88185171Y-132479141D02*
X89709171Y-132479141D01*
X88185171Y-131100284D02*
X88983457Y-131100284D01*
X89128600Y-131172855D01*
X89201171Y-131317998D01*
X89201171Y-131608284D01*
X89128600Y-131753427D01*
X88257743Y-131100284D02*
X88185171Y-131245427D01*
X88185171Y-131608284D01*
X88257743Y-131753427D01*
X88402886Y-131825998D01*
X88548029Y-131825998D01*
X88693171Y-131753427D01*
X88765743Y-131608284D01*
X88765743Y-131245427D01*
X88838314Y-131100284D01*
X89201171Y-130374570D02*
X88185171Y-130374570D01*
X89056029Y-130374570D02*
X89128600Y-130301998D01*
X89201171Y-130156856D01*
X89201171Y-129939141D01*
X89128600Y-129793998D01*
X88983457Y-129721427D01*
X88185171Y-129721427D01*
X89201171Y-128995713D02*
X88185171Y-128995713D01*
X89056029Y-128995713D02*
X89128600Y-128923141D01*
X89201171Y-128777999D01*
X89201171Y-128560284D01*
X89128600Y-128415141D01*
X88983457Y-128342570D01*
X88185171Y-128342570D01*
X88185171Y-127616856D02*
X89201171Y-127616856D01*
X89709171Y-127616856D02*
X89636600Y-127689427D01*
X89564029Y-127616856D01*
X89636600Y-127544284D01*
X89709171Y-127616856D01*
X89564029Y-127616856D01*
D12*
X99662343Y-161038418D02*
X98573771Y-161038418D01*
X98452819Y-161098894D01*
X98392343Y-161219847D01*
X98392343Y-161280323D01*
X100085676Y-161038418D02*
X100025200Y-161098894D01*
X99964724Y-161038418D01*
X100025200Y-160977942D01*
X100085676Y-161038418D01*
X99964724Y-161038418D01*
X98876152Y-159949847D02*
X98815676Y-160070799D01*
X98815676Y-160312704D01*
X98876152Y-160433656D01*
X98997105Y-160494132D01*
X99480914Y-160494132D01*
X99601867Y-160433656D01*
X99662343Y-160312704D01*
X99662343Y-160070799D01*
X99601867Y-159949847D01*
X99480914Y-159889370D01*
X99359962Y-159889370D01*
X99239010Y-160494132D01*
X99662343Y-159345085D02*
X98815676Y-159345085D01*
X99541390Y-159345085D02*
X99601867Y-159284609D01*
X99662343Y-159163656D01*
X99662343Y-158982228D01*
X99601867Y-158861276D01*
X99480914Y-158800799D01*
X98815676Y-158800799D01*
X99662343Y-158196037D02*
X98815676Y-158196037D01*
X99541390Y-158196037D02*
X99601867Y-158135561D01*
X99662343Y-158014608D01*
X99662343Y-157833180D01*
X99601867Y-157712228D01*
X99480914Y-157651751D01*
X98815676Y-157651751D01*
X98876152Y-156563180D02*
X98815676Y-156684132D01*
X98815676Y-156926037D01*
X98876152Y-157046989D01*
X98997105Y-157107465D01*
X99480914Y-157107465D01*
X99601867Y-157046989D01*
X99662343Y-156926037D01*
X99662343Y-156684132D01*
X99601867Y-156563180D01*
X99480914Y-156502703D01*
X99359962Y-156502703D01*
X99239010Y-157107465D01*
X98815676Y-155958418D02*
X99662343Y-155958418D01*
X99420438Y-155958418D02*
X99541390Y-155897942D01*
X99601867Y-155837466D01*
X99662343Y-155716513D01*
X99662343Y-155595561D01*
X99420438Y-154386038D02*
X99480914Y-154446514D01*
X99541390Y-154567466D01*
X99541390Y-154688419D01*
X99480914Y-154809371D01*
X99420438Y-154869847D01*
X99299486Y-154930323D01*
X99178533Y-154930323D01*
X99057581Y-154869847D01*
X98997105Y-154809371D01*
X98936629Y-154688419D01*
X98936629Y-154567466D01*
X98997105Y-154446514D01*
X99057581Y-154386038D01*
X99541390Y-154386038D02*
X99057581Y-154386038D01*
X98997105Y-154325561D01*
X98997105Y-154265085D01*
X99057581Y-154144133D01*
X99178533Y-154083657D01*
X99480914Y-154083657D01*
X99662343Y-154204609D01*
X99783295Y-154386038D01*
X99843771Y-154627942D01*
X99783295Y-154869847D01*
X99662343Y-155051276D01*
X99480914Y-155172228D01*
X99239010Y-155232704D01*
X98997105Y-155172228D01*
X98815676Y-155051276D01*
X98694724Y-154869847D01*
X98634248Y-154627942D01*
X98694724Y-154386038D01*
X98815676Y-154204609D01*
X99662343Y-153660323D02*
X98815676Y-153418419D01*
X99420438Y-153176514D01*
X98815676Y-152934609D01*
X99662343Y-152692704D01*
X98815676Y-152208895D02*
X99662343Y-152208895D01*
X100085676Y-152208895D02*
X100025200Y-152269371D01*
X99964724Y-152208895D01*
X100025200Y-152148419D01*
X100085676Y-152208895D01*
X99964724Y-152208895D01*
X98876152Y-151059847D02*
X98815676Y-151180800D01*
X98815676Y-151422704D01*
X98876152Y-151543657D01*
X98936629Y-151604133D01*
X99057581Y-151664609D01*
X99420438Y-151664609D01*
X99541390Y-151604133D01*
X99601867Y-151543657D01*
X99662343Y-151422704D01*
X99662343Y-151180800D01*
X99601867Y-151059847D01*
X98815676Y-150515562D02*
X100085676Y-150515562D01*
X99299486Y-150394610D02*
X98815676Y-150031753D01*
X99662343Y-150031753D02*
X99178533Y-150515562D01*
X98876152Y-149003658D02*
X98815676Y-149124610D01*
X98815676Y-149366515D01*
X98876152Y-149487467D01*
X98997105Y-149547943D01*
X99480914Y-149547943D01*
X99601867Y-149487467D01*
X99662343Y-149366515D01*
X99662343Y-149124610D01*
X99601867Y-149003658D01*
X99480914Y-148943181D01*
X99359962Y-148943181D01*
X99239010Y-149547943D01*
X98815676Y-148398896D02*
X99662343Y-148398896D01*
X99420438Y-148398896D02*
X99541390Y-148338420D01*
X99601867Y-148277944D01*
X99662343Y-148156991D01*
X99662343Y-148036039D01*
X98815676Y-147612706D02*
X100085676Y-147612706D01*
X99601867Y-147612706D02*
X99662343Y-147491754D01*
X99662343Y-147249849D01*
X99601867Y-147128897D01*
X99541390Y-147068420D01*
X99420438Y-147007944D01*
X99057581Y-147007944D01*
X98936629Y-147068420D01*
X98876152Y-147128897D01*
X98815676Y-147249849D01*
X98815676Y-147491754D01*
X98876152Y-147612706D01*
X98815676Y-146282229D02*
X98876152Y-146403182D01*
X98936629Y-146463658D01*
X99057581Y-146524134D01*
X99420438Y-146524134D01*
X99541390Y-146463658D01*
X99601867Y-146403182D01*
X99662343Y-146282229D01*
X99662343Y-146100801D01*
X99601867Y-145979849D01*
X99541390Y-145919372D01*
X99420438Y-145858896D01*
X99057581Y-145858896D01*
X98936629Y-145919372D01*
X98876152Y-145979849D01*
X98815676Y-146100801D01*
X98815676Y-146282229D01*
X98815676Y-145435562D02*
X99662343Y-144770324D01*
X99662343Y-145435562D02*
X98815676Y-144770324D01*
X98936629Y-144286515D02*
X98876152Y-144226039D01*
X98815676Y-144286515D01*
X98876152Y-144346991D01*
X98936629Y-144286515D01*
X98815676Y-144286515D01*
X99662343Y-143681753D02*
X98815676Y-143681753D01*
X99541390Y-143681753D02*
X99601867Y-143621277D01*
X99662343Y-143500324D01*
X99662343Y-143318896D01*
X99601867Y-143197944D01*
X99480914Y-143137467D01*
X98815676Y-143137467D01*
X98876152Y-142048896D02*
X98815676Y-142169848D01*
X98815676Y-142411753D01*
X98876152Y-142532705D01*
X98997105Y-142593181D01*
X99480914Y-142593181D01*
X99601867Y-142532705D01*
X99662343Y-142411753D01*
X99662343Y-142169848D01*
X99601867Y-142048896D01*
X99480914Y-141988419D01*
X99359962Y-141988419D01*
X99239010Y-142593181D01*
X99662343Y-141625563D02*
X99662343Y-141141753D01*
X100085676Y-141444134D02*
X98997105Y-141444134D01*
X98876152Y-141383658D01*
X98815676Y-141262705D01*
X98815676Y-141141753D01*
%LPC*%
D13*
X61899800Y-137261600D03*
D14*
X51790600Y-132080000D03*
X51790600Y-134580000D03*
D15*
X38735000Y-161239200D03*
D16*
X38735000Y-158699200D03*
D15*
X38735000Y-132334000D03*
D16*
X38735000Y-134874000D03*
D17*
X94615000Y-169875200D03*
X92075000Y-169875200D03*
X89535000Y-169875200D03*
X81915000Y-169875200D03*
X84455000Y-169875200D03*
X86995000Y-169875200D03*
X76835000Y-169875200D03*
X74295000Y-169875200D03*
X71755000Y-169875200D03*
X66675000Y-169875200D03*
X64135000Y-169875200D03*
X94615000Y-121615200D03*
X92075000Y-121615200D03*
X89535000Y-121615200D03*
X86995000Y-121615200D03*
X84455000Y-121615200D03*
X81915000Y-121615200D03*
X79375000Y-121615200D03*
X76835000Y-121615200D03*
X72771000Y-121615200D03*
X70231000Y-121615200D03*
X67691000Y-121615200D03*
X65151000Y-121615200D03*
X62611000Y-121615200D03*
X60071000Y-121615200D03*
X57531000Y-121615200D03*
X54991000Y-121615200D03*
X69215000Y-169875200D03*
D18*
X97155000Y-164795200D03*
X97155000Y-136855200D03*
X46355000Y-121615200D03*
X45085000Y-169875200D03*
D17*
X52451000Y-121615200D03*
X49911000Y-121615200D03*
X61595000Y-169875200D03*
X59055000Y-169875200D03*
M02*
