M48
;DRILL file {KiCad 4.0.7-e2-6376~58~ubuntu16.04.1} date Wed Oct  4 18:34:51 2017
;FORMAT={-:-/ absolute / metric / decimal}
FMAT,2
METRIC,TZ
T1C0.330
T2C0.800
T3C1.016
T4C3.175
%
G90
G05
M71
T1
X44.526Y-160.071
X44.592Y-158.867
X48.946Y-169.215
X50.165Y-160.68
X54.889Y-148.285
X58.033Y-149.301
X64.643Y-151.384
X64.694Y-140.716
X64.694Y-149.479
X66.167Y-149.454
X66.523Y-143.815
X68.555Y-138.481
X69.012Y-149.657
X70.231Y-136.754
X71.145Y-142.85
X71.145Y-149.86
X71.247Y-146.05
X75.921Y-136.754
X77.089Y-148.336
X79.07Y-148.336
X79.934Y-136.703
X81.813Y-153.467
X86.843Y-136.144
X87.706Y-151.028
X90.195Y-160.884
X92.939Y-131.115
X93.345Y-153.772
T2
X51.791Y-132.08
X51.791Y-134.58
T3
X38.735Y-132.334
X38.735Y-134.874
X38.735Y-158.699
X38.735Y-161.239
X49.911Y-121.615
X52.451Y-121.615
X54.991Y-121.615
X57.531Y-121.615
X59.055Y-169.875
X60.071Y-121.615
X61.595Y-169.875
X61.9Y-137.262
X62.611Y-121.615
X64.135Y-169.875
X65.151Y-121.615
X66.675Y-169.875
X67.691Y-121.615
X69.215Y-169.875
X70.231Y-121.615
X71.755Y-169.875
X72.771Y-121.615
X74.295Y-169.875
X76.835Y-121.615
X76.835Y-169.875
X79.375Y-121.615
X81.915Y-121.615
X81.915Y-169.875
X84.455Y-121.615
X84.455Y-169.875
X86.995Y-121.615
X86.995Y-169.875
X89.535Y-121.615
X89.535Y-169.875
X92.075Y-121.615
X92.075Y-169.875
X94.615Y-121.615
X94.615Y-169.875
T4
X45.085Y-169.875
X46.355Y-121.615
X97.155Y-136.855
X97.155Y-164.795
T0
M30
