%TF.GenerationSoftware,KiCad,Pcbnew,4.0.5-e0-6337~49~ubuntu16.04.1*%
%TF.CreationDate,2017-08-12T11:29:06-07:00*%
%TF.ProjectId,mcphail-main-board,6D63706861696C2D6D61696E2D626F61,1.0*%
%TF.FileFunction,Legend,Bot*%
%FSLAX46Y46*%
G04 Gerber Fmt 4.6, Leading zero omitted, Abs format (unit mm)*
G04 Created by KiCad (PCBNEW 4.0.5-e0-6337~49~ubuntu16.04.1) date Sat Aug 12 11:29:06 2017*
%MOMM*%
%LPD*%
G01*
G04 APERTURE LIST*
%ADD10C,0.350000*%
%ADD11C,0.254000*%
%ADD12C,0.152400*%
%ADD13C,0.150000*%
%ADD14C,1.676400*%
%ADD15R,2.184400X1.879600*%
%ADD16O,2.184400X1.879600*%
%ADD17C,1.752400*%
%ADD18C,1.879600*%
%ADD19R,2.652400X5.252400*%
%ADD20C,10.352400*%
%ADD21R,2.184400X2.184400*%
%ADD22O,2.184400X2.184400*%
%ADD23C,1.352400*%
%ADD24C,4.152400*%
%ADD25R,1.879600X1.879600*%
%ADD26O,1.879600X1.879600*%
G04 APERTURE END LIST*
D10*
D11*
X100398943Y-45901429D02*
X100398943Y-44377429D01*
X99890943Y-45466000D01*
X99382943Y-44377429D01*
X99382943Y-45901429D01*
X98004086Y-45828857D02*
X98149229Y-45901429D01*
X98439515Y-45901429D01*
X98584657Y-45828857D01*
X98657229Y-45756286D01*
X98729800Y-45611143D01*
X98729800Y-45175714D01*
X98657229Y-45030571D01*
X98584657Y-44958000D01*
X98439515Y-44885429D01*
X98149229Y-44885429D01*
X98004086Y-44958000D01*
X97350943Y-45901429D02*
X97350943Y-44377429D01*
X96770371Y-44377429D01*
X96625229Y-44450000D01*
X96552657Y-44522571D01*
X96480086Y-44667714D01*
X96480086Y-44885429D01*
X96552657Y-45030571D01*
X96625229Y-45103143D01*
X96770371Y-45175714D01*
X97350943Y-45175714D01*
X95826943Y-45901429D02*
X95826943Y-44377429D01*
X95173800Y-45901429D02*
X95173800Y-45103143D01*
X95246371Y-44958000D01*
X95391514Y-44885429D01*
X95609229Y-44885429D01*
X95754371Y-44958000D01*
X95826943Y-45030571D01*
X93794943Y-45901429D02*
X93794943Y-45103143D01*
X93867514Y-44958000D01*
X94012657Y-44885429D01*
X94302943Y-44885429D01*
X94448086Y-44958000D01*
X93794943Y-45828857D02*
X93940086Y-45901429D01*
X94302943Y-45901429D01*
X94448086Y-45828857D01*
X94520657Y-45683714D01*
X94520657Y-45538571D01*
X94448086Y-45393429D01*
X94302943Y-45320857D01*
X93940086Y-45320857D01*
X93794943Y-45248286D01*
X93069229Y-45901429D02*
X93069229Y-44885429D01*
X93069229Y-44377429D02*
X93141800Y-44450000D01*
X93069229Y-44522571D01*
X92996657Y-44450000D01*
X93069229Y-44377429D01*
X93069229Y-44522571D01*
X92125801Y-45901429D02*
X92270943Y-45828857D01*
X92343515Y-45683714D01*
X92343515Y-44377429D01*
X90601800Y-44377429D02*
X89730943Y-44377429D01*
X90166372Y-45901429D02*
X90166372Y-44377429D01*
X89222943Y-45901429D02*
X89222943Y-44885429D01*
X89222943Y-45175714D02*
X89150371Y-45030571D01*
X89077800Y-44958000D01*
X88932657Y-44885429D01*
X88787514Y-44885429D01*
X87626371Y-45901429D02*
X87626371Y-45103143D01*
X87698942Y-44958000D01*
X87844085Y-44885429D01*
X88134371Y-44885429D01*
X88279514Y-44958000D01*
X87626371Y-45828857D02*
X87771514Y-45901429D01*
X88134371Y-45901429D01*
X88279514Y-45828857D01*
X88352085Y-45683714D01*
X88352085Y-45538571D01*
X88279514Y-45393429D01*
X88134371Y-45320857D01*
X87771514Y-45320857D01*
X87626371Y-45248286D01*
X86900657Y-44885429D02*
X86900657Y-46409429D01*
X86900657Y-44958000D02*
X86755514Y-44885429D01*
X86465228Y-44885429D01*
X86320085Y-44958000D01*
X86247514Y-45030571D01*
X86174943Y-45175714D01*
X86174943Y-45611143D01*
X86247514Y-45756286D01*
X86320085Y-45828857D01*
X86465228Y-45901429D01*
X86755514Y-45901429D01*
X86900657Y-45828857D01*
X84360657Y-45901429D02*
X84360657Y-44377429D01*
X83852657Y-45466000D01*
X83344657Y-44377429D01*
X83344657Y-45901429D01*
X81965800Y-45901429D02*
X81965800Y-45103143D01*
X82038371Y-44958000D01*
X82183514Y-44885429D01*
X82473800Y-44885429D01*
X82618943Y-44958000D01*
X81965800Y-45828857D02*
X82110943Y-45901429D01*
X82473800Y-45901429D01*
X82618943Y-45828857D01*
X82691514Y-45683714D01*
X82691514Y-45538571D01*
X82618943Y-45393429D01*
X82473800Y-45320857D01*
X82110943Y-45320857D01*
X81965800Y-45248286D01*
X81240086Y-45901429D02*
X81240086Y-44885429D01*
X81240086Y-44377429D02*
X81312657Y-44450000D01*
X81240086Y-44522571D01*
X81167514Y-44450000D01*
X81240086Y-44377429D01*
X81240086Y-44522571D01*
X80514372Y-44885429D02*
X80514372Y-45901429D01*
X80514372Y-45030571D02*
X80441800Y-44958000D01*
X80296658Y-44885429D01*
X80078943Y-44885429D01*
X79933800Y-44958000D01*
X79861229Y-45103143D01*
X79861229Y-45901429D01*
X77466372Y-45103143D02*
X77248658Y-45175714D01*
X77176086Y-45248286D01*
X77103515Y-45393429D01*
X77103515Y-45611143D01*
X77176086Y-45756286D01*
X77248658Y-45828857D01*
X77393800Y-45901429D01*
X77974372Y-45901429D01*
X77974372Y-44377429D01*
X77466372Y-44377429D01*
X77321229Y-44450000D01*
X77248658Y-44522571D01*
X77176086Y-44667714D01*
X77176086Y-44812857D01*
X77248658Y-44958000D01*
X77321229Y-45030571D01*
X77466372Y-45103143D01*
X77974372Y-45103143D01*
X76232658Y-45901429D02*
X76377800Y-45828857D01*
X76450372Y-45756286D01*
X76522943Y-45611143D01*
X76522943Y-45175714D01*
X76450372Y-45030571D01*
X76377800Y-44958000D01*
X76232658Y-44885429D01*
X76014943Y-44885429D01*
X75869800Y-44958000D01*
X75797229Y-45030571D01*
X75724658Y-45175714D01*
X75724658Y-45611143D01*
X75797229Y-45756286D01*
X75869800Y-45828857D01*
X76014943Y-45901429D01*
X76232658Y-45901429D01*
X74418372Y-45901429D02*
X74418372Y-45103143D01*
X74490943Y-44958000D01*
X74636086Y-44885429D01*
X74926372Y-44885429D01*
X75071515Y-44958000D01*
X74418372Y-45828857D02*
X74563515Y-45901429D01*
X74926372Y-45901429D01*
X75071515Y-45828857D01*
X75144086Y-45683714D01*
X75144086Y-45538571D01*
X75071515Y-45393429D01*
X74926372Y-45320857D01*
X74563515Y-45320857D01*
X74418372Y-45248286D01*
X73692658Y-45901429D02*
X73692658Y-44885429D01*
X73692658Y-45175714D02*
X73620086Y-45030571D01*
X73547515Y-44958000D01*
X73402372Y-44885429D01*
X73257229Y-44885429D01*
X72096086Y-45901429D02*
X72096086Y-44377429D01*
X72096086Y-45828857D02*
X72241229Y-45901429D01*
X72531515Y-45901429D01*
X72676657Y-45828857D01*
X72749229Y-45756286D01*
X72821800Y-45611143D01*
X72821800Y-45175714D01*
X72749229Y-45030571D01*
X72676657Y-44958000D01*
X72531515Y-44885429D01*
X72241229Y-44885429D01*
X72096086Y-44958000D01*
X70354372Y-44885429D02*
X69991515Y-45901429D01*
X69628657Y-44885429D01*
X68249800Y-45901429D02*
X69120657Y-45901429D01*
X68685229Y-45901429D02*
X68685229Y-44377429D01*
X68830372Y-44595143D01*
X68975514Y-44740286D01*
X69120657Y-44812857D01*
X67596657Y-45756286D02*
X67524085Y-45828857D01*
X67596657Y-45901429D01*
X67669228Y-45828857D01*
X67596657Y-45756286D01*
X67596657Y-45901429D01*
X66580657Y-44377429D02*
X66435514Y-44377429D01*
X66290371Y-44450000D01*
X66217800Y-44522571D01*
X66145229Y-44667714D01*
X66072657Y-44958000D01*
X66072657Y-45320857D01*
X66145229Y-45611143D01*
X66217800Y-45756286D01*
X66290371Y-45828857D01*
X66435514Y-45901429D01*
X66580657Y-45901429D01*
X66725800Y-45828857D01*
X66798371Y-45756286D01*
X66870943Y-45611143D01*
X66943514Y-45320857D01*
X66943514Y-44958000D01*
X66870943Y-44667714D01*
X66798371Y-44522571D01*
X66725800Y-44450000D01*
X66580657Y-44377429D01*
X100398943Y-48441429D02*
X100398943Y-46917429D01*
X99528086Y-48441429D02*
X100181229Y-47570571D01*
X99528086Y-46917429D02*
X100398943Y-47788286D01*
X99020086Y-47425429D02*
X98657229Y-48441429D01*
X98294371Y-47425429D02*
X98657229Y-48441429D01*
X98802371Y-48804286D01*
X98874943Y-48876857D01*
X99020086Y-48949429D01*
X97496086Y-48441429D02*
X97641228Y-48368857D01*
X97713800Y-48223714D01*
X97713800Y-46917429D01*
X96334942Y-48368857D02*
X96480085Y-48441429D01*
X96770371Y-48441429D01*
X96915514Y-48368857D01*
X96988085Y-48223714D01*
X96988085Y-47643143D01*
X96915514Y-47498000D01*
X96770371Y-47425429D01*
X96480085Y-47425429D01*
X96334942Y-47498000D01*
X96262371Y-47643143D01*
X96262371Y-47788286D01*
X96988085Y-47933429D01*
X93940085Y-47643143D02*
X93722371Y-47715714D01*
X93649799Y-47788286D01*
X93577228Y-47933429D01*
X93577228Y-48151143D01*
X93649799Y-48296286D01*
X93722371Y-48368857D01*
X93867513Y-48441429D01*
X94448085Y-48441429D01*
X94448085Y-46917429D01*
X93940085Y-46917429D01*
X93794942Y-46990000D01*
X93722371Y-47062571D01*
X93649799Y-47207714D01*
X93649799Y-47352857D01*
X93722371Y-47498000D01*
X93794942Y-47570571D01*
X93940085Y-47643143D01*
X94448085Y-47643143D01*
X92924085Y-48441429D02*
X92924085Y-47425429D01*
X92924085Y-46917429D02*
X92996656Y-46990000D01*
X92924085Y-47062571D01*
X92851513Y-46990000D01*
X92924085Y-46917429D01*
X92924085Y-47062571D01*
X92198371Y-48441429D02*
X92198371Y-47425429D01*
X92198371Y-47715714D02*
X92125799Y-47570571D01*
X92053228Y-47498000D01*
X91908085Y-47425429D01*
X91762942Y-47425429D01*
X90601799Y-48368857D02*
X90746942Y-48441429D01*
X91037228Y-48441429D01*
X91182370Y-48368857D01*
X91254942Y-48296286D01*
X91327513Y-48151143D01*
X91327513Y-47715714D01*
X91254942Y-47570571D01*
X91182370Y-47498000D01*
X91037228Y-47425429D01*
X90746942Y-47425429D01*
X90601799Y-47498000D01*
X89948656Y-48441429D02*
X89948656Y-46917429D01*
X89295513Y-48441429D02*
X89295513Y-47643143D01*
X89368084Y-47498000D01*
X89513227Y-47425429D01*
X89730942Y-47425429D01*
X89876084Y-47498000D01*
X89948656Y-47570571D01*
X87916656Y-48441429D02*
X87916656Y-47643143D01*
X87989227Y-47498000D01*
X88134370Y-47425429D01*
X88424656Y-47425429D01*
X88569799Y-47498000D01*
X87916656Y-48368857D02*
X88061799Y-48441429D01*
X88424656Y-48441429D01*
X88569799Y-48368857D01*
X88642370Y-48223714D01*
X88642370Y-48078571D01*
X88569799Y-47933429D01*
X88424656Y-47860857D01*
X88061799Y-47860857D01*
X87916656Y-47788286D01*
X87190942Y-48441429D02*
X87190942Y-47425429D01*
X87190942Y-47715714D02*
X87118370Y-47570571D01*
X87045799Y-47498000D01*
X86900656Y-47425429D01*
X86755513Y-47425429D01*
X85594370Y-48441429D02*
X85594370Y-46917429D01*
X85594370Y-48368857D02*
X85739513Y-48441429D01*
X86029799Y-48441429D01*
X86174941Y-48368857D01*
X86247513Y-48296286D01*
X86320084Y-48151143D01*
X86320084Y-47715714D01*
X86247513Y-47570571D01*
X86174941Y-47498000D01*
X86029799Y-47425429D01*
X85739513Y-47425429D01*
X85594370Y-47498000D01*
X83054370Y-48441429D02*
X83054370Y-47643143D01*
X83126941Y-47498000D01*
X83272084Y-47425429D01*
X83562370Y-47425429D01*
X83707513Y-47498000D01*
X83054370Y-48368857D02*
X83199513Y-48441429D01*
X83562370Y-48441429D01*
X83707513Y-48368857D01*
X83780084Y-48223714D01*
X83780084Y-48078571D01*
X83707513Y-47933429D01*
X83562370Y-47860857D01*
X83199513Y-47860857D01*
X83054370Y-47788286D01*
X82328656Y-47425429D02*
X82328656Y-48441429D01*
X82328656Y-47570571D02*
X82256084Y-47498000D01*
X82110942Y-47425429D01*
X81893227Y-47425429D01*
X81748084Y-47498000D01*
X81675513Y-47643143D01*
X81675513Y-48441429D01*
X80296656Y-48441429D02*
X80296656Y-46917429D01*
X80296656Y-48368857D02*
X80441799Y-48441429D01*
X80732085Y-48441429D01*
X80877227Y-48368857D01*
X80949799Y-48296286D01*
X81022370Y-48151143D01*
X81022370Y-47715714D01*
X80949799Y-47570571D01*
X80877227Y-47498000D01*
X80732085Y-47425429D01*
X80441799Y-47425429D01*
X80296656Y-47498000D01*
X77974370Y-46917429D02*
X77974370Y-48006000D01*
X78046942Y-48223714D01*
X78192085Y-48368857D01*
X78409799Y-48441429D01*
X78554942Y-48441429D01*
X76668084Y-48368857D02*
X76813227Y-48441429D01*
X77103513Y-48441429D01*
X77248656Y-48368857D01*
X77321227Y-48223714D01*
X77321227Y-47643143D01*
X77248656Y-47498000D01*
X77103513Y-47425429D01*
X76813227Y-47425429D01*
X76668084Y-47498000D01*
X76595513Y-47643143D01*
X76595513Y-47788286D01*
X77321227Y-47933429D01*
X75942370Y-47425429D02*
X75942370Y-48441429D01*
X75942370Y-47570571D02*
X75869798Y-47498000D01*
X75724656Y-47425429D01*
X75506941Y-47425429D01*
X75361798Y-47498000D01*
X75289227Y-47643143D01*
X75289227Y-48441429D01*
X74563513Y-47425429D02*
X74563513Y-48441429D01*
X74563513Y-47570571D02*
X74490941Y-47498000D01*
X74345799Y-47425429D01*
X74128084Y-47425429D01*
X73982941Y-47498000D01*
X73910370Y-47643143D01*
X73910370Y-48441429D01*
X72604084Y-48368857D02*
X72749227Y-48441429D01*
X73039513Y-48441429D01*
X73184656Y-48368857D01*
X73257227Y-48223714D01*
X73257227Y-47643143D01*
X73184656Y-47498000D01*
X73039513Y-47425429D01*
X72749227Y-47425429D01*
X72604084Y-47498000D01*
X72531513Y-47643143D01*
X72531513Y-47788286D01*
X73257227Y-47933429D01*
X71878370Y-48441429D02*
X71878370Y-47425429D01*
X71878370Y-47715714D02*
X71805798Y-47570571D01*
X71733227Y-47498000D01*
X71588084Y-47425429D01*
X71442941Y-47425429D01*
X69773798Y-48441429D02*
X69773798Y-46917429D01*
X69773798Y-47643143D02*
X68902941Y-47643143D01*
X68902941Y-48441429D02*
X68902941Y-46917429D01*
X67524084Y-48441429D02*
X67524084Y-47643143D01*
X67596655Y-47498000D01*
X67741798Y-47425429D01*
X68032084Y-47425429D01*
X68177227Y-47498000D01*
X67524084Y-48368857D02*
X67669227Y-48441429D01*
X68032084Y-48441429D01*
X68177227Y-48368857D01*
X68249798Y-48223714D01*
X68249798Y-48078571D01*
X68177227Y-47933429D01*
X68032084Y-47860857D01*
X67669227Y-47860857D01*
X67524084Y-47788286D01*
X66798370Y-47425429D02*
X66798370Y-48441429D01*
X66798370Y-47570571D02*
X66725798Y-47498000D01*
X66580656Y-47425429D01*
X66362941Y-47425429D01*
X66217798Y-47498000D01*
X66145227Y-47643143D01*
X66145227Y-48441429D01*
X65419513Y-47425429D02*
X65419513Y-48441429D01*
X65419513Y-47570571D02*
X65346941Y-47498000D01*
X65201799Y-47425429D01*
X64984084Y-47425429D01*
X64838941Y-47498000D01*
X64766370Y-47643143D01*
X64766370Y-48441429D01*
X64040656Y-48441429D02*
X64040656Y-47425429D01*
X64040656Y-46917429D02*
X64113227Y-46990000D01*
X64040656Y-47062571D01*
X63968084Y-46990000D01*
X64040656Y-46917429D01*
X64040656Y-47062571D01*
X100398943Y-49965429D02*
X100398943Y-51271714D01*
X100471514Y-51416857D01*
X100616657Y-51489429D01*
X100689229Y-51489429D01*
X100398943Y-49457429D02*
X100471514Y-49530000D01*
X100398943Y-49602571D01*
X100326371Y-49530000D01*
X100398943Y-49457429D01*
X100398943Y-49602571D01*
X99092657Y-50908857D02*
X99237800Y-50981429D01*
X99528086Y-50981429D01*
X99673229Y-50908857D01*
X99745800Y-50763714D01*
X99745800Y-50183143D01*
X99673229Y-50038000D01*
X99528086Y-49965429D01*
X99237800Y-49965429D01*
X99092657Y-50038000D01*
X99020086Y-50183143D01*
X99020086Y-50328286D01*
X99745800Y-50473429D01*
X98366943Y-49965429D02*
X98366943Y-50981429D01*
X98366943Y-50110571D02*
X98294371Y-50038000D01*
X98149229Y-49965429D01*
X97931514Y-49965429D01*
X97786371Y-50038000D01*
X97713800Y-50183143D01*
X97713800Y-50981429D01*
X96988086Y-49965429D02*
X96988086Y-50981429D01*
X96988086Y-50110571D02*
X96915514Y-50038000D01*
X96770372Y-49965429D01*
X96552657Y-49965429D01*
X96407514Y-50038000D01*
X96334943Y-50183143D01*
X96334943Y-50981429D01*
X95028657Y-50908857D02*
X95173800Y-50981429D01*
X95464086Y-50981429D01*
X95609229Y-50908857D01*
X95681800Y-50763714D01*
X95681800Y-50183143D01*
X95609229Y-50038000D01*
X95464086Y-49965429D01*
X95173800Y-49965429D01*
X95028657Y-50038000D01*
X94956086Y-50183143D01*
X94956086Y-50328286D01*
X95681800Y-50473429D01*
X94302943Y-50981429D02*
X94302943Y-49965429D01*
X94302943Y-50255714D02*
X94230371Y-50110571D01*
X94157800Y-50038000D01*
X94012657Y-49965429D01*
X93867514Y-49965429D01*
X92416085Y-50255714D02*
X92488657Y-50183143D01*
X92633800Y-50110571D01*
X92778942Y-50110571D01*
X92924085Y-50183143D01*
X92996657Y-50255714D01*
X93069228Y-50400857D01*
X93069228Y-50546000D01*
X92996657Y-50691143D01*
X92924085Y-50763714D01*
X92778942Y-50836286D01*
X92633800Y-50836286D01*
X92488657Y-50763714D01*
X92416085Y-50691143D01*
X92416085Y-50110571D02*
X92416085Y-50691143D01*
X92343514Y-50763714D01*
X92270942Y-50763714D01*
X92125800Y-50691143D01*
X92053228Y-50546000D01*
X92053228Y-50183143D01*
X92198371Y-49965429D01*
X92416085Y-49820286D01*
X92706371Y-49747714D01*
X92996657Y-49820286D01*
X93214371Y-49965429D01*
X93359514Y-50183143D01*
X93432085Y-50473429D01*
X93359514Y-50763714D01*
X93214371Y-50981429D01*
X92996657Y-51126571D01*
X92706371Y-51199143D01*
X92416085Y-51126571D01*
X92198371Y-50981429D01*
X91545228Y-49965429D02*
X91254942Y-50981429D01*
X90964656Y-50255714D01*
X90674371Y-50981429D01*
X90384085Y-49965429D01*
X89803514Y-50981429D02*
X89803514Y-49965429D01*
X89803514Y-49457429D02*
X89876085Y-49530000D01*
X89803514Y-49602571D01*
X89730942Y-49530000D01*
X89803514Y-49457429D01*
X89803514Y-49602571D01*
X88424657Y-50908857D02*
X88569800Y-50981429D01*
X88860086Y-50981429D01*
X89005228Y-50908857D01*
X89077800Y-50836286D01*
X89150371Y-50691143D01*
X89150371Y-50255714D01*
X89077800Y-50110571D01*
X89005228Y-50038000D01*
X88860086Y-49965429D01*
X88569800Y-49965429D01*
X88424657Y-50038000D01*
X87771514Y-50981429D02*
X87771514Y-49457429D01*
X87626371Y-50400857D02*
X87190942Y-50981429D01*
X87190942Y-49965429D02*
X87771514Y-50546000D01*
X85957228Y-50908857D02*
X86102371Y-50981429D01*
X86392657Y-50981429D01*
X86537800Y-50908857D01*
X86610371Y-50763714D01*
X86610371Y-50183143D01*
X86537800Y-50038000D01*
X86392657Y-49965429D01*
X86102371Y-49965429D01*
X85957228Y-50038000D01*
X85884657Y-50183143D01*
X85884657Y-50328286D01*
X86610371Y-50473429D01*
X85231514Y-50981429D02*
X85231514Y-49965429D01*
X85231514Y-50255714D02*
X85158942Y-50110571D01*
X85086371Y-50038000D01*
X84941228Y-49965429D01*
X84796085Y-49965429D01*
X84288085Y-50981429D02*
X84288085Y-49457429D01*
X84288085Y-50038000D02*
X84142942Y-49965429D01*
X83852656Y-49965429D01*
X83707513Y-50038000D01*
X83634942Y-50110571D01*
X83562371Y-50255714D01*
X83562371Y-50691143D01*
X83634942Y-50836286D01*
X83707513Y-50908857D01*
X83852656Y-50981429D01*
X84142942Y-50981429D01*
X84288085Y-50908857D01*
X82691514Y-50981429D02*
X82836656Y-50908857D01*
X82909228Y-50836286D01*
X82981799Y-50691143D01*
X82981799Y-50255714D01*
X82909228Y-50110571D01*
X82836656Y-50038000D01*
X82691514Y-49965429D01*
X82473799Y-49965429D01*
X82328656Y-50038000D01*
X82256085Y-50110571D01*
X82183514Y-50255714D01*
X82183514Y-50691143D01*
X82256085Y-50836286D01*
X82328656Y-50908857D01*
X82473799Y-50981429D01*
X82691514Y-50981429D01*
X81675514Y-50981429D02*
X80877228Y-49965429D01*
X81675514Y-49965429D02*
X80877228Y-50981429D01*
X80296657Y-50836286D02*
X80224085Y-50908857D01*
X80296657Y-50981429D01*
X80369228Y-50908857D01*
X80296657Y-50836286D01*
X80296657Y-50981429D01*
X79570943Y-49965429D02*
X79570943Y-50981429D01*
X79570943Y-50110571D02*
X79498371Y-50038000D01*
X79353229Y-49965429D01*
X79135514Y-49965429D01*
X78990371Y-50038000D01*
X78917800Y-50183143D01*
X78917800Y-50981429D01*
X77611514Y-50908857D02*
X77756657Y-50981429D01*
X78046943Y-50981429D01*
X78192086Y-50908857D01*
X78264657Y-50763714D01*
X78264657Y-50183143D01*
X78192086Y-50038000D01*
X78046943Y-49965429D01*
X77756657Y-49965429D01*
X77611514Y-50038000D01*
X77538943Y-50183143D01*
X77538943Y-50328286D01*
X78264657Y-50473429D01*
X77103514Y-49965429D02*
X76522943Y-49965429D01*
X76885800Y-49457429D02*
X76885800Y-50763714D01*
X76813228Y-50908857D01*
X76668086Y-50981429D01*
X76522943Y-50981429D01*
D12*
X73911000Y-92257000D02*
X73911000Y-90757000D01*
X77161000Y-92257000D02*
X73911000Y-92257000D01*
X89661000Y-92257000D02*
X89661000Y-90757000D01*
X89411000Y-92257000D02*
X89661000Y-92257000D01*
X86161000Y-92257000D02*
X89411000Y-92257000D01*
X86125494Y-92290387D02*
G75*
G02X77161000Y-92257000I-4464494J4783387D01*
G01*
X77446506Y-83223613D02*
G75*
G02X86411000Y-83257000I4464494J-4783387D01*
G01*
X77411000Y-83257000D02*
X74161000Y-83257000D01*
X74161000Y-83257000D02*
X73911000Y-83257000D01*
X73911000Y-83257000D02*
X73911000Y-84757000D01*
X86411000Y-83257000D02*
X89661000Y-83257000D01*
X89661000Y-83257000D02*
X89661000Y-84757000D01*
D13*
X76625285Y-93435571D02*
X76482428Y-93483190D01*
X76434809Y-93530810D01*
X76387190Y-93626048D01*
X76387190Y-93768905D01*
X76434809Y-93864143D01*
X76482428Y-93911762D01*
X76577666Y-93959381D01*
X76958619Y-93959381D01*
X76958619Y-92959381D01*
X76625285Y-92959381D01*
X76530047Y-93007000D01*
X76482428Y-93054619D01*
X76434809Y-93149857D01*
X76434809Y-93245095D01*
X76482428Y-93340333D01*
X76530047Y-93387952D01*
X76625285Y-93435571D01*
X76958619Y-93435571D01*
X76006238Y-93673667D02*
X75530047Y-93673667D01*
X76101476Y-93959381D02*
X75768143Y-92959381D01*
X75434809Y-93959381D01*
X75244333Y-92959381D02*
X74672904Y-92959381D01*
X74958619Y-93959381D02*
X74958619Y-92959381D01*
X73815761Y-93959381D02*
X74387190Y-93959381D01*
X74101476Y-93959381D02*
X74101476Y-92959381D01*
X74196714Y-93102238D01*
X74291952Y-93197476D01*
X74387190Y-93245095D01*
%LPC*%
D14*
X100126800Y-53111400D03*
X100126800Y-55651400D03*
X100126800Y-58191400D03*
X100126800Y-60731400D03*
X100126800Y-63271400D03*
X100126800Y-65811400D03*
X100126800Y-68351400D03*
X100126800Y-70891400D03*
X100126800Y-73431400D03*
X100126800Y-75971400D03*
X100126800Y-78511400D03*
X100126800Y-81051400D03*
X100126800Y-83591400D03*
X100126800Y-86131400D03*
X100126800Y-88671400D03*
X100126800Y-91211400D03*
D15*
X52730400Y-93865700D03*
D16*
X52730400Y-91325700D03*
X52730400Y-88785700D03*
X52730400Y-86245700D03*
X52730400Y-83705700D03*
X52730400Y-81165700D03*
D17*
X92481400Y-86182200D03*
X92481400Y-83682200D03*
D18*
X50038000Y-51993800D03*
D19*
X89311000Y-87757000D03*
X74011000Y-87757000D03*
D20*
X81661000Y-87757000D03*
D21*
X62179200Y-95669100D03*
D22*
X59639200Y-95669100D03*
D21*
X91294800Y-93662900D03*
D22*
X93834800Y-93662900D03*
D23*
X25298798Y-53266118D03*
X25298798Y-60366118D03*
D24*
X37896940Y-46788400D03*
X31897460Y-46788400D03*
X34897200Y-51487400D03*
D17*
X90957400Y-76711200D03*
X90957400Y-71831200D03*
D25*
X65176400Y-57988200D03*
D26*
X65176400Y-60528200D03*
X62636400Y-57988200D03*
X62636400Y-60528200D03*
X60096400Y-57988200D03*
X60096400Y-60528200D03*
M02*
