M48
;DRILL file {KiCad 4.0.5-e0-6337~49~ubuntu16.04.1} date Wed Aug  9 07:16:44 2017
;FORMAT={-:-/ absolute / metric / decimal}
FMAT,2
METRIC,TZ
T1C0.330
T2C0.762
T3C0.800
T4C1.016
T5C1.200
T6C3.000
%
G90
G05
M71
T1
X170.129Y-74.066
X173.515Y-87.208
X173.642Y-91.043
X174.346Y-74.066
X174.879Y-52.451
X175.979Y-92.301
X176.106Y-87.538
X176.466Y-58.928
X176.632Y-66.446
X176.662Y-69.025
X177.902Y-92.304
X178.105Y-87.782
X179.387Y-62.408
X180.315Y-66.269
X180.492Y-80.061
X180.492Y-81.128
X180.576Y-87.691
X180.784Y-77.127
X181.432Y-69.672
X182.054Y-64.567
X183.642Y-77.724
X183.726Y-87.741
X185.758Y-87.741
X190.368Y-88.859
X190.612Y-73.901
X192.888Y-68.123
X194.31Y-67.208
X195.377Y-75.489
X197.155Y-52.273
X197.783Y-49.784
X198.831Y-73.355
X198.882Y-68.834
X199.034Y-49.763
X199.326Y-87.741
X200.457Y-48.531
X200.508Y-47.142
X200.66Y-79.947
X201.107Y-51.156
X201.623Y-73.278
X201.828Y-50.763
X202.895Y-45.771
X203.073Y-92.519
X203.136Y-91.504
X203.204Y-80.916
X203.454Y-79.934
X204.216Y-64.922
X204.226Y-73.304
X204.47Y-66.04
X204.978Y-52.527
X205.172Y-91.967
X205.367Y-88.237
X205.486Y-74.105
X206.096Y-78.638
X206.484Y-91.234
X206.687Y-88.338
X206.891Y-76.937
X206.934Y-75.971
X207.518Y-71.42
X207.835Y-80.912
X207.899Y-84.455
X208.001Y-78.08
X208.051Y-69.291
X208.051Y-73.203
X208.299Y-66.517
X208.851Y-82.677
X209.144Y-79.438
X209.245Y-72.568
X209.55Y-51.156
X209.74Y-81.978
X209.956Y-76.2
X210.058Y-78.93
X210.718Y-53.645
X211.785Y-66.827
X211.785Y-76.048
X211.963Y-86.792
X212.039Y-91.059
X212.09Y-97.079
X213.665Y-70.434
X213.766Y-92.558
X213.856Y-75.946
X213.868Y-67.081
X214.122Y-59.917
X214.183Y-73.787
X214.224Y-71.069
X214.249Y-69.164
X215.036Y-64.872
X215.138Y-66.04
X215.138Y-66.929
X215.494Y-70.307
X215.679Y-71.425
X216.154Y-66.04
X216.154Y-90.361
X216.56Y-59.893
X216.586Y-62.586
X216.687Y-65.024
X216.967Y-71.476
X217.272Y-68.478
X219.761Y-51.816
X220.218Y-63.271
X220.243Y-69.926
X221.323Y-71.429
X221.742Y-91.567
X222.047Y-64.313
X222.199Y-65.888
X222.25Y-63.195
X222.317Y-69.918
X223.308Y-70.198
X223.368Y-51.017
X223.418Y-62.814
X223.418Y-65.862
X223.596Y-61.798
X223.825Y-80.061
X224.028Y-59.131
X224.18Y-56.871
X224.384Y-64.948
X224.841Y-75.235
X224.993Y-81.432
X225.044Y-51.017
X225.984Y-72.085
X226.009Y-81.839
X226.06Y-68.91
X226.365Y-70.917
X227.101Y-66.142
X227.228Y-67.412
X227.33Y-75.032
X227.914Y-57.404
X227.916Y-69.776
X228.549Y-51.816
X229.26Y-67.31
X229.362Y-75.032
X229.413Y-82.448
X229.483Y-69.177
X230.022Y-67.729
X230.022Y-80.236
X230.023Y-69.64
X230.175Y-45.517
X230.276Y-91.77
X231.14Y-75.184
X231.14Y-81.991
X232.613Y-79.096
X232.816Y-64.872
X233.934Y-45.568
X234.036Y-69.012
X234.975Y-64.872
X236.169Y-57.099
X238.354Y-53.442
X238.781Y-74.371
X242.214Y-92.812
X242.875Y-81.559
T2
X244.5Y-52.781
X244.5Y-55.321
X244.5Y-57.861
X244.5Y-60.401
X244.5Y-62.941
X244.5Y-65.481
X244.5Y-68.021
X244.5Y-70.561
X244.5Y-73.101
X244.5Y-75.641
X244.5Y-78.181
X244.5Y-80.721
X244.5Y-83.261
X244.5Y-85.801
X244.5Y-88.341
X244.5Y-90.881
T3
X234.87Y-71.478
X234.87Y-76.358
X236.855Y-83.352
X236.855Y-85.852
T4
X194.412Y-51.664
X197.104Y-80.835
X197.104Y-83.376
X197.104Y-85.915
X197.104Y-88.456
X197.104Y-90.995
X197.104Y-93.535
X204.013Y-95.339
X204.47Y-57.658
X204.47Y-60.198
X206.553Y-95.339
X207.01Y-57.658
X207.01Y-60.198
X209.55Y-57.658
X209.55Y-60.198
X235.668Y-93.333
X238.208Y-93.333
T5
X169.672Y-52.936
X169.672Y-60.036
T6
X176.271Y-46.458
X179.271Y-51.157
X182.271Y-46.458
T0
M30
