G04 This is an RS-274x file exported by *
G04 gerbv version 2.6.0 *
G04 More information is available about gerbv at *
G04 http://gerbv.gpleda.org/ *
G04 --End of header info--*
%MOIN*%
%FSLAX34Y34*%
%IPPOS*%
G04 --Define apertures--*
%ADD10C,0.0050*%
%ADD11C,0.0060*%
%ADD12C,0.0079*%
%ADD13C,0.0118*%
%ADD14C,0.0138*%
%ADD15C,0.0059*%
G04 --Start main section--*
G54D11*
G01X0060000Y-027000D02*
G01X0059000Y-027000D01*
G01X0060000Y-058000D02*
G01X0060000Y-027000D01*
G01X0029000Y-058000D02*
G01X0060000Y-058000D01*
G01X0029000Y-027000D02*
G01X0029000Y-058000D01*
G01X0059000Y-027000D02*
G01X0029000Y-027000D01*
G54D12*
G01X0030105Y-029130D02*
G01X0030405Y-029430D01*
G01X0030405Y-029130D02*
G01X0030105Y-029430D01*
G01X0031105Y-029130D02*
G01X0031405Y-029430D01*
G01X0031405Y-029130D02*
G01X0031105Y-029430D01*
G01X0032105Y-029130D02*
G01X0032405Y-029430D01*
G01X0032405Y-029130D02*
G01X0032105Y-029430D01*
G01X0033105Y-029130D02*
G01X0033405Y-029430D01*
G01X0033405Y-029130D02*
G01X0033105Y-029430D01*
G01X0034105Y-029130D02*
G01X0034405Y-029430D01*
G01X0034405Y-029130D02*
G01X0034105Y-029430D01*
G01X0035105Y-029130D02*
G01X0035405Y-029430D01*
G01X0035405Y-029130D02*
G01X0035105Y-029430D01*
G01X0036105Y-029130D02*
G01X0036405Y-029430D01*
G01X0036405Y-029130D02*
G01X0036105Y-029430D01*
G01X0037105Y-029130D02*
G01X0037405Y-029430D01*
G01X0037405Y-029130D02*
G01X0037105Y-029430D01*
G01X0038105Y-029130D02*
G01X0038405Y-029430D01*
G01X0038405Y-029130D02*
G01X0038105Y-029430D01*
G01X0039105Y-029130D02*
G01X0039405Y-029430D01*
G01X0039405Y-029130D02*
G01X0039105Y-029430D01*
G01X0040105Y-029130D02*
G01X0040405Y-029430D01*
G01X0040405Y-029130D02*
G01X0040105Y-029430D01*
G01X0041105Y-029130D02*
G01X0041405Y-029430D01*
G01X0041405Y-029130D02*
G01X0041105Y-029430D01*
G01X0042105Y-029130D02*
G01X0042405Y-029430D01*
G01X0042405Y-029130D02*
G01X0042105Y-029430D01*
G01X0043105Y-029130D02*
G01X0043405Y-029430D01*
G01X0043405Y-029130D02*
G01X0043105Y-029430D01*
G01X0044105Y-029130D02*
G01X0044405Y-029430D01*
G01X0044405Y-029130D02*
G01X0044105Y-029430D01*
G01X0045105Y-029130D02*
G01X0045405Y-029430D01*
G01X0045405Y-029130D02*
G01X0045105Y-029430D01*
G01X0035363Y-039858D02*
G75*
G03X0035363Y-039858I-000157J0000000D01*
G01X0037285Y-039858D02*
G75*
G03X0037285Y-039858I-000157J0000000D01*
G01X0030566Y-044647D02*
G01X0030566Y-045047D01*
G01X0030366Y-044847D02*
G01X0030766Y-044847D01*
G01X0030566Y-045647D02*
G01X0030566Y-046047D01*
G01X0030366Y-045847D02*
G01X0030766Y-045847D01*
G01X0030566Y-046647D02*
G01X0030566Y-047047D01*
G01X0030366Y-046847D02*
G01X0030766Y-046847D01*
G01X0030566Y-047647D02*
G01X0030566Y-048047D01*
G01X0030366Y-047847D02*
G01X0030766Y-047847D01*
G01X0030566Y-048647D02*
G01X0030566Y-049047D01*
G01X0030366Y-048847D02*
G01X0030766Y-048847D01*
G01X0030566Y-049647D02*
G01X0030566Y-050047D01*
G01X0030366Y-049847D02*
G01X0030766Y-049847D01*
G01X0031943Y-052068D02*
G01X0031943Y-052468D01*
G01X0031743Y-052268D02*
G01X0032143Y-052268D01*
G01X0031943Y-053068D02*
G01X0031943Y-053468D01*
G01X0031743Y-053268D02*
G01X0032143Y-053268D01*
G01X0042446Y-045470D02*
G01X0042446Y-045870D01*
G01X0042246Y-045670D02*
G01X0042646Y-045670D01*
G01X0042446Y-046470D02*
G01X0042446Y-046870D01*
G01X0042246Y-046670D02*
G01X0042646Y-046670D01*
G01X0044415Y-031156D02*
G01X0044415Y-031556D01*
G01X0044215Y-031356D02*
G01X0044615Y-031356D01*
G01X0044415Y-032156D02*
G01X0044415Y-032556D01*
G01X0044215Y-032356D02*
G01X0044615Y-032356D01*
G01X0044415Y-033156D02*
G01X0044415Y-033556D01*
G01X0044215Y-033356D02*
G01X0044615Y-033356D01*
G01X0045415Y-031156D02*
G01X0045415Y-031556D01*
G01X0045215Y-031356D02*
G01X0045615Y-031356D01*
G01X0045415Y-032156D02*
G01X0045415Y-032556D01*
G01X0045215Y-032356D02*
G01X0045615Y-032356D01*
G01X0045415Y-033156D02*
G01X0045415Y-033556D01*
G01X0045215Y-033356D02*
G01X0045615Y-033356D01*
G01X0052798Y-054758D02*
G01X0052798Y-055158D01*
G01X0052598Y-054958D02*
G01X0052998Y-054958D01*
G01X0039351Y-039591D02*
G01X0039351Y-039257D01*
G01X0039351Y-039257D02*
G01X0039017Y-039257D01*
G01X0039017Y-039257D02*
G01X0039017Y-039591D01*
G01X0039017Y-039591D02*
G01X0039351Y-039591D01*
G01X0042146Y-039591D02*
G01X0042146Y-039257D01*
G01X0042146Y-039257D02*
G01X0041812Y-039257D01*
G01X0041812Y-039257D02*
G01X0041812Y-039591D01*
G01X0041812Y-039591D02*
G01X0042146Y-039591D01*
G01X0057000Y-029228D02*
G01X0057591Y-028638D01*
G01X0057591Y-028638D02*
G01X0057000Y-028047D01*
G01X0057000Y-028047D02*
G01X0056410Y-028638D01*
G01X0056410Y-028638D02*
G01X0057000Y-029228D01*
G01X0057000Y-031590D02*
G01X0057591Y-031000D01*
G01X0057591Y-031000D02*
G01X0057000Y-030409D01*
G01X0057000Y-030409D02*
G01X0056410Y-031000D01*
G01X0056410Y-031000D02*
G01X0057000Y-031590D01*
G01X0058850Y-030409D02*
G01X0059441Y-029819D01*
G01X0059441Y-029819D02*
G01X0058850Y-029228D01*
G01X0058850Y-029228D02*
G01X0058260Y-029819D01*
G01X0058260Y-029819D02*
G01X0058850Y-030409D01*
G54D13*
G01X0030039Y-059864D02*
G01X0030039Y-058682D01*
G01X0030039Y-058682D02*
G01X0030320Y-058682D01*
G01X0030320Y-058682D02*
G01X0030489Y-058739D01*
G01X0030489Y-058739D02*
G01X0030601Y-058851D01*
G01X0030601Y-058851D02*
G01X0030657Y-058964D01*
G01X0030657Y-058964D02*
G01X0030714Y-059189D01*
G01X0030714Y-059189D02*
G01X0030714Y-059357D01*
G01X0030714Y-059357D02*
G01X0030657Y-059582D01*
G01X0030657Y-059582D02*
G01X0030601Y-059695D01*
G01X0030601Y-059695D02*
G01X0030489Y-059807D01*
G01X0030489Y-059807D02*
G01X0030320Y-059864D01*
G01X0030320Y-059864D02*
G01X0030039Y-059864D01*
G01X0031220Y-059864D02*
G01X0031220Y-059076D01*
G01X0031220Y-059301D02*
G01X0031276Y-059189D01*
G01X0031276Y-059189D02*
G01X0031332Y-059132D01*
G01X0031332Y-059132D02*
G01X0031445Y-059076D01*
G01X0031445Y-059076D02*
G01X0031557Y-059076D01*
G01X0031951Y-059864D02*
G01X0031951Y-059076D01*
G01X0031951Y-058682D02*
G01X0031895Y-058739D01*
G01X0031895Y-058739D02*
G01X0031951Y-058795D01*
G01X0031951Y-058795D02*
G01X0032007Y-058739D01*
G01X0032007Y-058739D02*
G01X0031951Y-058682D01*
G01X0031951Y-058682D02*
G01X0031951Y-058795D01*
G01X0032682Y-059864D02*
G01X0032570Y-059807D01*
G01X0032570Y-059807D02*
G01X0032513Y-059695D01*
G01X0032513Y-059695D02*
G01X0032513Y-058682D01*
G01X0033301Y-059864D02*
G01X0033188Y-059807D01*
G01X0033188Y-059807D02*
G01X0033132Y-059695D01*
G01X0033132Y-059695D02*
G01X0033132Y-058682D01*
G01X0034651Y-059864D02*
G01X0034651Y-058682D01*
G01X0034651Y-058682D02*
G01X0035044Y-059526D01*
G01X0035044Y-059526D02*
G01X0035438Y-058682D01*
G01X0035438Y-058682D02*
G01X0035438Y-059864D01*
G01X0036507Y-059864D02*
G01X0036507Y-059245D01*
G01X0036507Y-059245D02*
G01X0036450Y-059132D01*
G01X0036450Y-059132D02*
G01X0036338Y-059076D01*
G01X0036338Y-059076D02*
G01X0036113Y-059076D01*
G01X0036113Y-059076D02*
G01X0036000Y-059132D01*
G01X0036507Y-059807D02*
G01X0036394Y-059864D01*
G01X0036394Y-059864D02*
G01X0036113Y-059864D01*
G01X0036113Y-059864D02*
G01X0036000Y-059807D01*
G01X0036000Y-059807D02*
G01X0035944Y-059695D01*
G01X0035944Y-059695D02*
G01X0035944Y-059582D01*
G01X0035944Y-059582D02*
G01X0036000Y-059470D01*
G01X0036000Y-059470D02*
G01X0036113Y-059414D01*
G01X0036113Y-059414D02*
G01X0036394Y-059414D01*
G01X0036394Y-059414D02*
G01X0036507Y-059357D01*
G01X0037069Y-059076D02*
G01X0037069Y-060257D01*
G01X0037069Y-059132D02*
G01X0037181Y-059076D01*
G01X0037181Y-059076D02*
G01X0037406Y-059076D01*
G01X0037406Y-059076D02*
G01X0037519Y-059132D01*
G01X0037519Y-059132D02*
G01X0037575Y-059189D01*
G01X0037575Y-059189D02*
G01X0037631Y-059301D01*
G01X0037631Y-059301D02*
G01X0037631Y-059639D01*
G01X0037631Y-059639D02*
G01X0037575Y-059751D01*
G01X0037575Y-059751D02*
G01X0037519Y-059807D01*
G01X0037519Y-059807D02*
G01X0037406Y-059864D01*
G01X0037406Y-059864D02*
G01X0037181Y-059864D01*
G01X0037181Y-059864D02*
G01X0037069Y-059807D01*
G01X0038138Y-059751D02*
G01X0038194Y-059807D01*
G01X0038194Y-059807D02*
G01X0038138Y-059864D01*
G01X0038138Y-059864D02*
G01X0038081Y-059807D01*
G01X0038081Y-059807D02*
G01X0038138Y-059751D01*
G01X0038138Y-059751D02*
G01X0038138Y-059864D01*
G01X0038138Y-059132D02*
G01X0038194Y-059189D01*
G01X0038194Y-059189D02*
G01X0038138Y-059245D01*
G01X0038138Y-059245D02*
G01X0038081Y-059189D01*
G01X0038081Y-059189D02*
G01X0038138Y-059132D01*
G01X0038138Y-059132D02*
G01X0038138Y-059245D01*
G01X0028670Y-061660D02*
G01X0028970Y-061960D01*
G01X0028970Y-061660D02*
G01X0028670Y-061960D01*
G01X0030264Y-061163D02*
G01X0030376Y-061163D01*
G01X0030376Y-061163D02*
G01X0030489Y-061219D01*
G01X0030489Y-061219D02*
G01X0030545Y-061275D01*
G01X0030545Y-061275D02*
G01X0030601Y-061388D01*
G01X0030601Y-061388D02*
G01X0030657Y-061613D01*
G01X0030657Y-061613D02*
G01X0030657Y-061894D01*
G01X0030657Y-061894D02*
G01X0030601Y-062119D01*
G01X0030601Y-062119D02*
G01X0030545Y-062231D01*
G01X0030545Y-062231D02*
G01X0030489Y-062288D01*
G01X0030489Y-062288D02*
G01X0030376Y-062344D01*
G01X0030376Y-062344D02*
G01X0030264Y-062344D01*
G01X0030264Y-062344D02*
G01X0030151Y-062288D01*
G01X0030151Y-062288D02*
G01X0030095Y-062231D01*
G01X0030095Y-062231D02*
G01X0030039Y-062119D01*
G01X0030039Y-062119D02*
G01X0029982Y-061894D01*
G01X0029982Y-061894D02*
G01X0029982Y-061613D01*
G01X0029982Y-061613D02*
G01X0030039Y-061388D01*
G01X0030039Y-061388D02*
G01X0030095Y-061275D01*
G01X0030095Y-061275D02*
G01X0030151Y-061219D01*
G01X0030151Y-061219D02*
G01X0030264Y-061163D01*
G01X0031163Y-062231D02*
G01X0031220Y-062288D01*
G01X0031220Y-062288D02*
G01X0031163Y-062344D01*
G01X0031163Y-062344D02*
G01X0031107Y-062288D01*
G01X0031107Y-062288D02*
G01X0031163Y-062231D01*
G01X0031163Y-062231D02*
G01X0031163Y-062344D01*
G01X0031613Y-061163D02*
G01X0032401Y-061163D01*
G01X0032401Y-061163D02*
G01X0031895Y-062344D01*
G01X0033357Y-061163D02*
G01X0033132Y-061163D01*
G01X0033132Y-061163D02*
G01X0033019Y-061219D01*
G01X0033019Y-061219D02*
G01X0032963Y-061275D01*
G01X0032963Y-061275D02*
G01X0032851Y-061444D01*
G01X0032851Y-061444D02*
G01X0032795Y-061669D01*
G01X0032795Y-061669D02*
G01X0032795Y-062119D01*
G01X0032795Y-062119D02*
G01X0032851Y-062231D01*
G01X0032851Y-062231D02*
G01X0032907Y-062288D01*
G01X0032907Y-062288D02*
G01X0033019Y-062344D01*
G01X0033019Y-062344D02*
G01X0033244Y-062344D01*
G01X0033244Y-062344D02*
G01X0033357Y-062288D01*
G01X0033357Y-062288D02*
G01X0033413Y-062231D01*
G01X0033413Y-062231D02*
G01X0033469Y-062119D01*
G01X0033469Y-062119D02*
G01X0033469Y-061838D01*
G01X0033469Y-061838D02*
G01X0033413Y-061725D01*
G01X0033413Y-061725D02*
G01X0033357Y-061669D01*
G01X0033357Y-061669D02*
G01X0033244Y-061613D01*
G01X0033244Y-061613D02*
G01X0033019Y-061613D01*
G01X0033019Y-061613D02*
G01X0032907Y-061669D01*
G01X0032907Y-061669D02*
G01X0032851Y-061725D01*
G01X0032851Y-061725D02*
G01X0032795Y-061838D01*
G01X0033976Y-062344D02*
G01X0033976Y-061556D01*
G01X0033976Y-061669D02*
G01X0034032Y-061613D01*
G01X0034032Y-061613D02*
G01X0034144Y-061556D01*
G01X0034144Y-061556D02*
G01X0034313Y-061556D01*
G01X0034313Y-061556D02*
G01X0034426Y-061613D01*
G01X0034426Y-061613D02*
G01X0034482Y-061725D01*
G01X0034482Y-061725D02*
G01X0034482Y-062344D01*
G01X0034482Y-061725D02*
G01X0034538Y-061613D01*
G01X0034538Y-061613D02*
G01X0034651Y-061556D01*
G01X0034651Y-061556D02*
G01X0034819Y-061556D01*
G01X0034819Y-061556D02*
G01X0034932Y-061613D01*
G01X0034932Y-061613D02*
G01X0034988Y-061725D01*
G01X0034988Y-061725D02*
G01X0034988Y-062344D01*
G01X0035550Y-062344D02*
G01X0035550Y-061556D01*
G01X0035550Y-061669D02*
G01X0035607Y-061613D01*
G01X0035607Y-061613D02*
G01X0035719Y-061556D01*
G01X0035719Y-061556D02*
G01X0035888Y-061556D01*
G01X0035888Y-061556D02*
G01X0036000Y-061613D01*
G01X0036000Y-061613D02*
G01X0036057Y-061725D01*
G01X0036057Y-061725D02*
G01X0036057Y-062344D01*
G01X0036057Y-061725D02*
G01X0036113Y-061613D01*
G01X0036113Y-061613D02*
G01X0036225Y-061556D01*
G01X0036225Y-061556D02*
G01X0036394Y-061556D01*
G01X0036394Y-061556D02*
G01X0036507Y-061613D01*
G01X0036507Y-061613D02*
G01X0036563Y-061725D01*
G01X0036563Y-061725D02*
G01X0036563Y-062344D01*
G01X0038869Y-061106D02*
G01X0037856Y-062625D01*
G01X0040387Y-061163D02*
G01X0040500Y-061163D01*
G01X0040500Y-061163D02*
G01X0040612Y-061219D01*
G01X0040612Y-061219D02*
G01X0040669Y-061275D01*
G01X0040669Y-061275D02*
G01X0040725Y-061388D01*
G01X0040725Y-061388D02*
G01X0040781Y-061613D01*
G01X0040781Y-061613D02*
G01X0040781Y-061894D01*
G01X0040781Y-061894D02*
G01X0040725Y-062119D01*
G01X0040725Y-062119D02*
G01X0040669Y-062231D01*
G01X0040669Y-062231D02*
G01X0040612Y-062288D01*
G01X0040612Y-062288D02*
G01X0040500Y-062344D01*
G01X0040500Y-062344D02*
G01X0040387Y-062344D01*
G01X0040387Y-062344D02*
G01X0040275Y-062288D01*
G01X0040275Y-062288D02*
G01X0040219Y-062231D01*
G01X0040219Y-062231D02*
G01X0040162Y-062119D01*
G01X0040162Y-062119D02*
G01X0040106Y-061894D01*
G01X0040106Y-061894D02*
G01X0040106Y-061613D01*
G01X0040106Y-061613D02*
G01X0040162Y-061388D01*
G01X0040162Y-061388D02*
G01X0040219Y-061275D01*
G01X0040219Y-061275D02*
G01X0040275Y-061219D01*
G01X0040275Y-061219D02*
G01X0040387Y-061163D01*
G01X0041287Y-062231D02*
G01X0041343Y-062288D01*
G01X0041343Y-062288D02*
G01X0041287Y-062344D01*
G01X0041287Y-062344D02*
G01X0041231Y-062288D01*
G01X0041231Y-062288D02*
G01X0041287Y-062231D01*
G01X0041287Y-062231D02*
G01X0041287Y-062344D01*
G01X0042075Y-061163D02*
G01X0042187Y-061163D01*
G01X0042187Y-061163D02*
G01X0042300Y-061219D01*
G01X0042300Y-061219D02*
G01X0042356Y-061275D01*
G01X0042356Y-061275D02*
G01X0042412Y-061388D01*
G01X0042412Y-061388D02*
G01X0042468Y-061613D01*
G01X0042468Y-061613D02*
G01X0042468Y-061894D01*
G01X0042468Y-061894D02*
G01X0042412Y-062119D01*
G01X0042412Y-062119D02*
G01X0042356Y-062231D01*
G01X0042356Y-062231D02*
G01X0042300Y-062288D01*
G01X0042300Y-062288D02*
G01X0042187Y-062344D01*
G01X0042187Y-062344D02*
G01X0042075Y-062344D01*
G01X0042075Y-062344D02*
G01X0041962Y-062288D01*
G01X0041962Y-062288D02*
G01X0041906Y-062231D01*
G01X0041906Y-062231D02*
G01X0041850Y-062119D01*
G01X0041850Y-062119D02*
G01X0041793Y-061894D01*
G01X0041793Y-061894D02*
G01X0041793Y-061613D01*
G01X0041793Y-061613D02*
G01X0041850Y-061388D01*
G01X0041850Y-061388D02*
G01X0041906Y-061275D01*
G01X0041906Y-061275D02*
G01X0041962Y-061219D01*
G01X0041962Y-061219D02*
G01X0042075Y-061163D01*
G01X0042862Y-061163D02*
G01X0043593Y-061163D01*
G01X0043593Y-061163D02*
G01X0043199Y-061613D01*
G01X0043199Y-061613D02*
G01X0043368Y-061613D01*
G01X0043368Y-061613D02*
G01X0043481Y-061669D01*
G01X0043481Y-061669D02*
G01X0043537Y-061725D01*
G01X0043537Y-061725D02*
G01X0043593Y-061838D01*
G01X0043593Y-061838D02*
G01X0043593Y-062119D01*
G01X0043593Y-062119D02*
G01X0043537Y-062231D01*
G01X0043537Y-062231D02*
G01X0043481Y-062288D01*
G01X0043481Y-062288D02*
G01X0043368Y-062344D01*
G01X0043368Y-062344D02*
G01X0043031Y-062344D01*
G01X0043031Y-062344D02*
G01X0042918Y-062288D01*
G01X0042918Y-062288D02*
G01X0042862Y-062231D01*
G01X0044324Y-061163D02*
G01X0044437Y-061163D01*
G01X0044437Y-061163D02*
G01X0044549Y-061219D01*
G01X0044549Y-061219D02*
G01X0044606Y-061275D01*
G01X0044606Y-061275D02*
G01X0044662Y-061388D01*
G01X0044662Y-061388D02*
G01X0044718Y-061613D01*
G01X0044718Y-061613D02*
G01X0044718Y-061894D01*
G01X0044718Y-061894D02*
G01X0044662Y-062119D01*
G01X0044662Y-062119D02*
G01X0044606Y-062231D01*
G01X0044606Y-062231D02*
G01X0044549Y-062288D01*
G01X0044549Y-062288D02*
G01X0044437Y-062344D01*
G01X0044437Y-062344D02*
G01X0044324Y-062344D01*
G01X0044324Y-062344D02*
G01X0044212Y-062288D01*
G01X0044212Y-062288D02*
G01X0044156Y-062231D01*
G01X0044156Y-062231D02*
G01X0044099Y-062119D01*
G01X0044099Y-062119D02*
G01X0044043Y-061894D01*
G01X0044043Y-061894D02*
G01X0044043Y-061613D01*
G01X0044043Y-061613D02*
G01X0044099Y-061388D01*
G01X0044099Y-061388D02*
G01X0044156Y-061275D01*
G01X0044156Y-061275D02*
G01X0044212Y-061219D01*
G01X0044212Y-061219D02*
G01X0044324Y-061163D01*
G01X0045168Y-061163D02*
G01X0045168Y-061388D01*
G01X0045618Y-061163D02*
G01X0045618Y-061388D01*
G01X0047361Y-062794D02*
G01X0047305Y-062738D01*
G01X0047305Y-062738D02*
G01X0047193Y-062569D01*
G01X0047193Y-062569D02*
G01X0047136Y-062456D01*
G01X0047136Y-062456D02*
G01X0047080Y-062288D01*
G01X0047080Y-062288D02*
G01X0047024Y-062006D01*
G01X0047024Y-062006D02*
G01X0047024Y-061781D01*
G01X0047024Y-061781D02*
G01X0047080Y-061500D01*
G01X0047080Y-061500D02*
G01X0047136Y-061331D01*
G01X0047136Y-061331D02*
G01X0047193Y-061219D01*
G01X0047193Y-061219D02*
G01X0047305Y-061050D01*
G01X0047305Y-061050D02*
G01X0047361Y-060994D01*
G01X0048430Y-062344D02*
G01X0047755Y-062344D01*
G01X0048093Y-062344D02*
G01X0048093Y-061163D01*
G01X0048093Y-061163D02*
G01X0047980Y-061331D01*
G01X0047980Y-061331D02*
G01X0047868Y-061444D01*
G01X0047868Y-061444D02*
G01X0047755Y-061500D01*
G01X0049442Y-061163D02*
G01X0049217Y-061163D01*
G01X0049217Y-061163D02*
G01X0049105Y-061219D01*
G01X0049105Y-061219D02*
G01X0049049Y-061275D01*
G01X0049049Y-061275D02*
G01X0048936Y-061444D01*
G01X0048936Y-061444D02*
G01X0048880Y-061669D01*
G01X0048880Y-061669D02*
G01X0048880Y-062119D01*
G01X0048880Y-062119D02*
G01X0048936Y-062231D01*
G01X0048936Y-062231D02*
G01X0048992Y-062288D01*
G01X0048992Y-062288D02*
G01X0049105Y-062344D01*
G01X0049105Y-062344D02*
G01X0049330Y-062344D01*
G01X0049330Y-062344D02*
G01X0049442Y-062288D01*
G01X0049442Y-062288D02*
G01X0049499Y-062231D01*
G01X0049499Y-062231D02*
G01X0049555Y-062119D01*
G01X0049555Y-062119D02*
G01X0049555Y-061838D01*
G01X0049555Y-061838D02*
G01X0049499Y-061725D01*
G01X0049499Y-061725D02*
G01X0049442Y-061669D01*
G01X0049442Y-061669D02*
G01X0049330Y-061613D01*
G01X0049330Y-061613D02*
G01X0049105Y-061613D01*
G01X0049105Y-061613D02*
G01X0048992Y-061669D01*
G01X0048992Y-061669D02*
G01X0048936Y-061725D01*
G01X0048936Y-061725D02*
G01X0048880Y-061838D01*
G01X0050961Y-062344D02*
G01X0050961Y-061163D01*
G01X0051467Y-062344D02*
G01X0051467Y-061725D01*
G01X0051467Y-061725D02*
G01X0051411Y-061613D01*
G01X0051411Y-061613D02*
G01X0051298Y-061556D01*
G01X0051298Y-061556D02*
G01X0051130Y-061556D01*
G01X0051130Y-061556D02*
G01X0051017Y-061613D01*
G01X0051017Y-061613D02*
G01X0050961Y-061669D01*
G01X0052198Y-062344D02*
G01X0052086Y-062288D01*
G01X0052086Y-062288D02*
G01X0052030Y-062231D01*
G01X0052030Y-062231D02*
G01X0051973Y-062119D01*
G01X0051973Y-062119D02*
G01X0051973Y-061781D01*
G01X0051973Y-061781D02*
G01X0052030Y-061669D01*
G01X0052030Y-061669D02*
G01X0052086Y-061613D01*
G01X0052086Y-061613D02*
G01X0052198Y-061556D01*
G01X0052198Y-061556D02*
G01X0052367Y-061556D01*
G01X0052367Y-061556D02*
G01X0052480Y-061613D01*
G01X0052480Y-061613D02*
G01X0052536Y-061669D01*
G01X0052536Y-061669D02*
G01X0052592Y-061781D01*
G01X0052592Y-061781D02*
G01X0052592Y-062119D01*
G01X0052592Y-062119D02*
G01X0052536Y-062231D01*
G01X0052536Y-062231D02*
G01X0052480Y-062288D01*
G01X0052480Y-062288D02*
G01X0052367Y-062344D01*
G01X0052367Y-062344D02*
G01X0052198Y-062344D01*
G01X0053267Y-062344D02*
G01X0053154Y-062288D01*
G01X0053154Y-062288D02*
G01X0053098Y-062175D01*
G01X0053098Y-062175D02*
G01X0053098Y-061163D01*
G01X0054167Y-062288D02*
G01X0054054Y-062344D01*
G01X0054054Y-062344D02*
G01X0053829Y-062344D01*
G01X0053829Y-062344D02*
G01X0053717Y-062288D01*
G01X0053717Y-062288D02*
G01X0053661Y-062175D01*
G01X0053661Y-062175D02*
G01X0053661Y-061725D01*
G01X0053661Y-061725D02*
G01X0053717Y-061613D01*
G01X0053717Y-061613D02*
G01X0053829Y-061556D01*
G01X0053829Y-061556D02*
G01X0054054Y-061556D01*
G01X0054054Y-061556D02*
G01X0054167Y-061613D01*
G01X0054167Y-061613D02*
G01X0054223Y-061725D01*
G01X0054223Y-061725D02*
G01X0054223Y-061838D01*
G01X0054223Y-061838D02*
G01X0053661Y-061950D01*
G01X0054673Y-062288D02*
G01X0054786Y-062344D01*
G01X0054786Y-062344D02*
G01X0055010Y-062344D01*
G01X0055010Y-062344D02*
G01X0055123Y-062288D01*
G01X0055123Y-062288D02*
G01X0055179Y-062175D01*
G01X0055179Y-062175D02*
G01X0055179Y-062119D01*
G01X0055179Y-062119D02*
G01X0055123Y-062006D01*
G01X0055123Y-062006D02*
G01X0055010Y-061950D01*
G01X0055010Y-061950D02*
G01X0054842Y-061950D01*
G01X0054842Y-061950D02*
G01X0054729Y-061894D01*
G01X0054729Y-061894D02*
G01X0054673Y-061781D01*
G01X0054673Y-061781D02*
G01X0054673Y-061725D01*
G01X0054673Y-061725D02*
G01X0054729Y-061613D01*
G01X0054729Y-061613D02*
G01X0054842Y-061556D01*
G01X0054842Y-061556D02*
G01X0055010Y-061556D01*
G01X0055010Y-061556D02*
G01X0055123Y-061613D01*
G01X0055573Y-062794D02*
G01X0055629Y-062738D01*
G01X0055629Y-062738D02*
G01X0055742Y-062569D01*
G01X0055742Y-062569D02*
G01X0055798Y-062456D01*
G01X0055798Y-062456D02*
G01X0055854Y-062288D01*
G01X0055854Y-062288D02*
G01X0055910Y-062006D01*
G01X0055910Y-062006D02*
G01X0055910Y-061781D01*
G01X0055910Y-061781D02*
G01X0055854Y-061500D01*
G01X0055854Y-061500D02*
G01X0055798Y-061331D01*
G01X0055798Y-061331D02*
G01X0055742Y-061219D01*
G01X0055742Y-061219D02*
G01X0055629Y-061050D01*
G01X0055629Y-061050D02*
G01X0055573Y-060994D01*
G01X0028970Y-063369D02*
G75*
G03X0028970Y-063369I-000157J0000000D01*
G01X0030264Y-062722D02*
G01X0030376Y-062722D01*
G01X0030376Y-062722D02*
G01X0030489Y-062778D01*
G01X0030489Y-062778D02*
G01X0030545Y-062834D01*
G01X0030545Y-062834D02*
G01X0030601Y-062947D01*
G01X0030601Y-062947D02*
G01X0030657Y-063172D01*
G01X0030657Y-063172D02*
G01X0030657Y-063453D01*
G01X0030657Y-063453D02*
G01X0030601Y-063678D01*
G01X0030601Y-063678D02*
G01X0030545Y-063790D01*
G01X0030545Y-063790D02*
G01X0030489Y-063847D01*
G01X0030489Y-063847D02*
G01X0030376Y-063903D01*
G01X0030376Y-063903D02*
G01X0030264Y-063903D01*
G01X0030264Y-063903D02*
G01X0030151Y-063847D01*
G01X0030151Y-063847D02*
G01X0030095Y-063790D01*
G01X0030095Y-063790D02*
G01X0030039Y-063678D01*
G01X0030039Y-063678D02*
G01X0029982Y-063453D01*
G01X0029982Y-063453D02*
G01X0029982Y-063172D01*
G01X0029982Y-063172D02*
G01X0030039Y-062947D01*
G01X0030039Y-062947D02*
G01X0030095Y-062834D01*
G01X0030095Y-062834D02*
G01X0030151Y-062778D01*
G01X0030151Y-062778D02*
G01X0030264Y-062722D01*
G01X0031163Y-063790D02*
G01X0031220Y-063847D01*
G01X0031220Y-063847D02*
G01X0031163Y-063903D01*
G01X0031163Y-063903D02*
G01X0031107Y-063847D01*
G01X0031107Y-063847D02*
G01X0031163Y-063790D01*
G01X0031163Y-063790D02*
G01X0031163Y-063903D01*
G01X0031895Y-063228D02*
G01X0031782Y-063172D01*
G01X0031782Y-063172D02*
G01X0031726Y-063115D01*
G01X0031726Y-063115D02*
G01X0031670Y-063003D01*
G01X0031670Y-063003D02*
G01X0031670Y-062947D01*
G01X0031670Y-062947D02*
G01X0031726Y-062834D01*
G01X0031726Y-062834D02*
G01X0031782Y-062778D01*
G01X0031782Y-062778D02*
G01X0031895Y-062722D01*
G01X0031895Y-062722D02*
G01X0032120Y-062722D01*
G01X0032120Y-062722D02*
G01X0032232Y-062778D01*
G01X0032232Y-062778D02*
G01X0032288Y-062834D01*
G01X0032288Y-062834D02*
G01X0032345Y-062947D01*
G01X0032345Y-062947D02*
G01X0032345Y-063003D01*
G01X0032345Y-063003D02*
G01X0032288Y-063115D01*
G01X0032288Y-063115D02*
G01X0032232Y-063172D01*
G01X0032232Y-063172D02*
G01X0032120Y-063228D01*
G01X0032120Y-063228D02*
G01X0031895Y-063228D01*
G01X0031895Y-063228D02*
G01X0031782Y-063284D01*
G01X0031782Y-063284D02*
G01X0031726Y-063340D01*
G01X0031726Y-063340D02*
G01X0031670Y-063453D01*
G01X0031670Y-063453D02*
G01X0031670Y-063678D01*
G01X0031670Y-063678D02*
G01X0031726Y-063790D01*
G01X0031726Y-063790D02*
G01X0031782Y-063847D01*
G01X0031782Y-063847D02*
G01X0031895Y-063903D01*
G01X0031895Y-063903D02*
G01X0032120Y-063903D01*
G01X0032120Y-063903D02*
G01X0032232Y-063847D01*
G01X0032232Y-063847D02*
G01X0032288Y-063790D01*
G01X0032288Y-063790D02*
G01X0032345Y-063678D01*
G01X0032345Y-063678D02*
G01X0032345Y-063453D01*
G01X0032345Y-063453D02*
G01X0032288Y-063340D01*
G01X0032288Y-063340D02*
G01X0032232Y-063284D01*
G01X0032232Y-063284D02*
G01X0032120Y-063228D01*
G01X0033076Y-062722D02*
G01X0033188Y-062722D01*
G01X0033188Y-062722D02*
G01X0033301Y-062778D01*
G01X0033301Y-062778D02*
G01X0033357Y-062834D01*
G01X0033357Y-062834D02*
G01X0033413Y-062947D01*
G01X0033413Y-062947D02*
G01X0033469Y-063172D01*
G01X0033469Y-063172D02*
G01X0033469Y-063453D01*
G01X0033469Y-063453D02*
G01X0033413Y-063678D01*
G01X0033413Y-063678D02*
G01X0033357Y-063790D01*
G01X0033357Y-063790D02*
G01X0033301Y-063847D01*
G01X0033301Y-063847D02*
G01X0033188Y-063903D01*
G01X0033188Y-063903D02*
G01X0033076Y-063903D01*
G01X0033076Y-063903D02*
G01X0032963Y-063847D01*
G01X0032963Y-063847D02*
G01X0032907Y-063790D01*
G01X0032907Y-063790D02*
G01X0032851Y-063678D01*
G01X0032851Y-063678D02*
G01X0032795Y-063453D01*
G01X0032795Y-063453D02*
G01X0032795Y-063172D01*
G01X0032795Y-063172D02*
G01X0032851Y-062947D01*
G01X0032851Y-062947D02*
G01X0032907Y-062834D01*
G01X0032907Y-062834D02*
G01X0032963Y-062778D01*
G01X0032963Y-062778D02*
G01X0033076Y-062722D01*
G01X0033976Y-063903D02*
G01X0033976Y-063115D01*
G01X0033976Y-063228D02*
G01X0034032Y-063172D01*
G01X0034032Y-063172D02*
G01X0034144Y-063115D01*
G01X0034144Y-063115D02*
G01X0034313Y-063115D01*
G01X0034313Y-063115D02*
G01X0034426Y-063172D01*
G01X0034426Y-063172D02*
G01X0034482Y-063284D01*
G01X0034482Y-063284D02*
G01X0034482Y-063903D01*
G01X0034482Y-063284D02*
G01X0034538Y-063172D01*
G01X0034538Y-063172D02*
G01X0034651Y-063115D01*
G01X0034651Y-063115D02*
G01X0034819Y-063115D01*
G01X0034819Y-063115D02*
G01X0034932Y-063172D01*
G01X0034932Y-063172D02*
G01X0034988Y-063284D01*
G01X0034988Y-063284D02*
G01X0034988Y-063903D01*
G01X0035550Y-063903D02*
G01X0035550Y-063115D01*
G01X0035550Y-063228D02*
G01X0035607Y-063172D01*
G01X0035607Y-063172D02*
G01X0035719Y-063115D01*
G01X0035719Y-063115D02*
G01X0035888Y-063115D01*
G01X0035888Y-063115D02*
G01X0036000Y-063172D01*
G01X0036000Y-063172D02*
G01X0036057Y-063284D01*
G01X0036057Y-063284D02*
G01X0036057Y-063903D01*
G01X0036057Y-063284D02*
G01X0036113Y-063172D01*
G01X0036113Y-063172D02*
G01X0036225Y-063115D01*
G01X0036225Y-063115D02*
G01X0036394Y-063115D01*
G01X0036394Y-063115D02*
G01X0036507Y-063172D01*
G01X0036507Y-063172D02*
G01X0036563Y-063284D01*
G01X0036563Y-063284D02*
G01X0036563Y-063903D01*
G01X0038869Y-062666D02*
G01X0037856Y-064184D01*
G01X0040387Y-062722D02*
G01X0040500Y-062722D01*
G01X0040500Y-062722D02*
G01X0040612Y-062778D01*
G01X0040612Y-062778D02*
G01X0040669Y-062834D01*
G01X0040669Y-062834D02*
G01X0040725Y-062947D01*
G01X0040725Y-062947D02*
G01X0040781Y-063172D01*
G01X0040781Y-063172D02*
G01X0040781Y-063453D01*
G01X0040781Y-063453D02*
G01X0040725Y-063678D01*
G01X0040725Y-063678D02*
G01X0040669Y-063790D01*
G01X0040669Y-063790D02*
G01X0040612Y-063847D01*
G01X0040612Y-063847D02*
G01X0040500Y-063903D01*
G01X0040500Y-063903D02*
G01X0040387Y-063903D01*
G01X0040387Y-063903D02*
G01X0040275Y-063847D01*
G01X0040275Y-063847D02*
G01X0040219Y-063790D01*
G01X0040219Y-063790D02*
G01X0040162Y-063678D01*
G01X0040162Y-063678D02*
G01X0040106Y-063453D01*
G01X0040106Y-063453D02*
G01X0040106Y-063172D01*
G01X0040106Y-063172D02*
G01X0040162Y-062947D01*
G01X0040162Y-062947D02*
G01X0040219Y-062834D01*
G01X0040219Y-062834D02*
G01X0040275Y-062778D01*
G01X0040275Y-062778D02*
G01X0040387Y-062722D01*
G01X0041287Y-063790D02*
G01X0041343Y-063847D01*
G01X0041343Y-063847D02*
G01X0041287Y-063903D01*
G01X0041287Y-063903D02*
G01X0041231Y-063847D01*
G01X0041231Y-063847D02*
G01X0041287Y-063790D01*
G01X0041287Y-063790D02*
G01X0041287Y-063903D01*
G01X0042075Y-062722D02*
G01X0042187Y-062722D01*
G01X0042187Y-062722D02*
G01X0042300Y-062778D01*
G01X0042300Y-062778D02*
G01X0042356Y-062834D01*
G01X0042356Y-062834D02*
G01X0042412Y-062947D01*
G01X0042412Y-062947D02*
G01X0042468Y-063172D01*
G01X0042468Y-063172D02*
G01X0042468Y-063453D01*
G01X0042468Y-063453D02*
G01X0042412Y-063678D01*
G01X0042412Y-063678D02*
G01X0042356Y-063790D01*
G01X0042356Y-063790D02*
G01X0042300Y-063847D01*
G01X0042300Y-063847D02*
G01X0042187Y-063903D01*
G01X0042187Y-063903D02*
G01X0042075Y-063903D01*
G01X0042075Y-063903D02*
G01X0041962Y-063847D01*
G01X0041962Y-063847D02*
G01X0041906Y-063790D01*
G01X0041906Y-063790D02*
G01X0041850Y-063678D01*
G01X0041850Y-063678D02*
G01X0041793Y-063453D01*
G01X0041793Y-063453D02*
G01X0041793Y-063172D01*
G01X0041793Y-063172D02*
G01X0041850Y-062947D01*
G01X0041850Y-062947D02*
G01X0041906Y-062834D01*
G01X0041906Y-062834D02*
G01X0041962Y-062778D01*
G01X0041962Y-062778D02*
G01X0042075Y-062722D01*
G01X0042862Y-062722D02*
G01X0043593Y-062722D01*
G01X0043593Y-062722D02*
G01X0043199Y-063172D01*
G01X0043199Y-063172D02*
G01X0043368Y-063172D01*
G01X0043368Y-063172D02*
G01X0043481Y-063228D01*
G01X0043481Y-063228D02*
G01X0043537Y-063284D01*
G01X0043537Y-063284D02*
G01X0043593Y-063397D01*
G01X0043593Y-063397D02*
G01X0043593Y-063678D01*
G01X0043593Y-063678D02*
G01X0043537Y-063790D01*
G01X0043537Y-063790D02*
G01X0043481Y-063847D01*
G01X0043481Y-063847D02*
G01X0043368Y-063903D01*
G01X0043368Y-063903D02*
G01X0043031Y-063903D01*
G01X0043031Y-063903D02*
G01X0042918Y-063847D01*
G01X0042918Y-063847D02*
G01X0042862Y-063790D01*
G01X0044718Y-063903D02*
G01X0044043Y-063903D01*
G01X0044381Y-063903D02*
G01X0044381Y-062722D01*
G01X0044381Y-062722D02*
G01X0044268Y-062891D01*
G01X0044268Y-062891D02*
G01X0044156Y-063003D01*
G01X0044156Y-063003D02*
G01X0044043Y-063059D01*
G01X0045168Y-062722D02*
G01X0045168Y-062947D01*
G01X0045618Y-062722D02*
G01X0045618Y-062947D01*
G01X0047361Y-064353D02*
G01X0047305Y-064297D01*
G01X0047305Y-064297D02*
G01X0047193Y-064128D01*
G01X0047193Y-064128D02*
G01X0047136Y-064015D01*
G01X0047136Y-064015D02*
G01X0047080Y-063847D01*
G01X0047080Y-063847D02*
G01X0047024Y-063565D01*
G01X0047024Y-063565D02*
G01X0047024Y-063340D01*
G01X0047024Y-063340D02*
G01X0047080Y-063059D01*
G01X0047080Y-063059D02*
G01X0047136Y-062891D01*
G01X0047136Y-062891D02*
G01X0047193Y-062778D01*
G01X0047193Y-062778D02*
G01X0047305Y-062609D01*
G01X0047305Y-062609D02*
G01X0047361Y-062553D01*
G01X0047755Y-062834D02*
G01X0047811Y-062778D01*
G01X0047811Y-062778D02*
G01X0047924Y-062722D01*
G01X0047924Y-062722D02*
G01X0048205Y-062722D01*
G01X0048205Y-062722D02*
G01X0048318Y-062778D01*
G01X0048318Y-062778D02*
G01X0048374Y-062834D01*
G01X0048374Y-062834D02*
G01X0048430Y-062947D01*
G01X0048430Y-062947D02*
G01X0048430Y-063059D01*
G01X0048430Y-063059D02*
G01X0048374Y-063228D01*
G01X0048374Y-063228D02*
G01X0047699Y-063903D01*
G01X0047699Y-063903D02*
G01X0048430Y-063903D01*
G01X0049836Y-063903D02*
G01X0049836Y-062722D01*
G01X0050342Y-063903D02*
G01X0050342Y-063284D01*
G01X0050342Y-063284D02*
G01X0050286Y-063172D01*
G01X0050286Y-063172D02*
G01X0050174Y-063115D01*
G01X0050174Y-063115D02*
G01X0050005Y-063115D01*
G01X0050005Y-063115D02*
G01X0049892Y-063172D01*
G01X0049892Y-063172D02*
G01X0049836Y-063228D01*
G01X0051073Y-063903D02*
G01X0050961Y-063847D01*
G01X0050961Y-063847D02*
G01X0050905Y-063790D01*
G01X0050905Y-063790D02*
G01X0050849Y-063678D01*
G01X0050849Y-063678D02*
G01X0050849Y-063340D01*
G01X0050849Y-063340D02*
G01X0050905Y-063228D01*
G01X0050905Y-063228D02*
G01X0050961Y-063172D01*
G01X0050961Y-063172D02*
G01X0051073Y-063115D01*
G01X0051073Y-063115D02*
G01X0051242Y-063115D01*
G01X0051242Y-063115D02*
G01X0051355Y-063172D01*
G01X0051355Y-063172D02*
G01X0051411Y-063228D01*
G01X0051411Y-063228D02*
G01X0051467Y-063340D01*
G01X0051467Y-063340D02*
G01X0051467Y-063678D01*
G01X0051467Y-063678D02*
G01X0051411Y-063790D01*
G01X0051411Y-063790D02*
G01X0051355Y-063847D01*
G01X0051355Y-063847D02*
G01X0051242Y-063903D01*
G01X0051242Y-063903D02*
G01X0051073Y-063903D01*
G01X0052142Y-063903D02*
G01X0052030Y-063847D01*
G01X0052030Y-063847D02*
G01X0051973Y-063734D01*
G01X0051973Y-063734D02*
G01X0051973Y-062722D01*
G01X0053042Y-063847D02*
G01X0052930Y-063903D01*
G01X0052930Y-063903D02*
G01X0052705Y-063903D01*
G01X0052705Y-063903D02*
G01X0052592Y-063847D01*
G01X0052592Y-063847D02*
G01X0052536Y-063734D01*
G01X0052536Y-063734D02*
G01X0052536Y-063284D01*
G01X0052536Y-063284D02*
G01X0052592Y-063172D01*
G01X0052592Y-063172D02*
G01X0052705Y-063115D01*
G01X0052705Y-063115D02*
G01X0052930Y-063115D01*
G01X0052930Y-063115D02*
G01X0053042Y-063172D01*
G01X0053042Y-063172D02*
G01X0053098Y-063284D01*
G01X0053098Y-063284D02*
G01X0053098Y-063397D01*
G01X0053098Y-063397D02*
G01X0052536Y-063509D01*
G01X0053548Y-063847D02*
G01X0053661Y-063903D01*
G01X0053661Y-063903D02*
G01X0053886Y-063903D01*
G01X0053886Y-063903D02*
G01X0053998Y-063847D01*
G01X0053998Y-063847D02*
G01X0054054Y-063734D01*
G01X0054054Y-063734D02*
G01X0054054Y-063678D01*
G01X0054054Y-063678D02*
G01X0053998Y-063565D01*
G01X0053998Y-063565D02*
G01X0053886Y-063509D01*
G01X0053886Y-063509D02*
G01X0053717Y-063509D01*
G01X0053717Y-063509D02*
G01X0053604Y-063453D01*
G01X0053604Y-063453D02*
G01X0053548Y-063340D01*
G01X0053548Y-063340D02*
G01X0053548Y-063284D01*
G01X0053548Y-063284D02*
G01X0053604Y-063172D01*
G01X0053604Y-063172D02*
G01X0053717Y-063115D01*
G01X0053717Y-063115D02*
G01X0053886Y-063115D01*
G01X0053886Y-063115D02*
G01X0053998Y-063172D01*
G01X0054448Y-064353D02*
G01X0054504Y-064297D01*
G01X0054504Y-064297D02*
G01X0054617Y-064128D01*
G01X0054617Y-064128D02*
G01X0054673Y-064015D01*
G01X0054673Y-064015D02*
G01X0054729Y-063847D01*
G01X0054729Y-063847D02*
G01X0054786Y-063565D01*
G01X0054786Y-063565D02*
G01X0054786Y-063340D01*
G01X0054786Y-063340D02*
G01X0054729Y-063059D01*
G01X0054729Y-063059D02*
G01X0054673Y-062891D01*
G01X0054673Y-062891D02*
G01X0054617Y-062778D01*
G01X0054617Y-062778D02*
G01X0054504Y-062609D01*
G01X0054504Y-062609D02*
G01X0054448Y-062553D01*
G01X0028770Y-064728D02*
G01X0028770Y-065128D01*
G01X0028570Y-064928D02*
G01X0028970Y-064928D01*
G01X0030657Y-065462D02*
G01X0029982Y-065462D01*
G01X0030320Y-065462D02*
G01X0030320Y-064281D01*
G01X0030320Y-064281D02*
G01X0030207Y-064450D01*
G01X0030207Y-064450D02*
G01X0030095Y-064562D01*
G01X0030095Y-064562D02*
G01X0029982Y-064618D01*
G01X0031163Y-065349D02*
G01X0031220Y-065406D01*
G01X0031220Y-065406D02*
G01X0031163Y-065462D01*
G01X0031163Y-065462D02*
G01X0031107Y-065406D01*
G01X0031107Y-065406D02*
G01X0031163Y-065349D01*
G01X0031163Y-065349D02*
G01X0031163Y-065462D01*
G01X0031951Y-064281D02*
G01X0032063Y-064281D01*
G01X0032063Y-064281D02*
G01X0032176Y-064337D01*
G01X0032176Y-064337D02*
G01X0032232Y-064393D01*
G01X0032232Y-064393D02*
G01X0032288Y-064506D01*
G01X0032288Y-064506D02*
G01X0032345Y-064731D01*
G01X0032345Y-064731D02*
G01X0032345Y-065012D01*
G01X0032345Y-065012D02*
G01X0032288Y-065237D01*
G01X0032288Y-065237D02*
G01X0032232Y-065349D01*
G01X0032232Y-065349D02*
G01X0032176Y-065406D01*
G01X0032176Y-065406D02*
G01X0032063Y-065462D01*
G01X0032063Y-065462D02*
G01X0031951Y-065462D01*
G01X0031951Y-065462D02*
G01X0031838Y-065406D01*
G01X0031838Y-065406D02*
G01X0031782Y-065349D01*
G01X0031782Y-065349D02*
G01X0031726Y-065237D01*
G01X0031726Y-065237D02*
G01X0031670Y-065012D01*
G01X0031670Y-065012D02*
G01X0031670Y-064731D01*
G01X0031670Y-064731D02*
G01X0031726Y-064506D01*
G01X0031726Y-064506D02*
G01X0031782Y-064393D01*
G01X0031782Y-064393D02*
G01X0031838Y-064337D01*
G01X0031838Y-064337D02*
G01X0031951Y-064281D01*
G01X0032795Y-064393D02*
G01X0032851Y-064337D01*
G01X0032851Y-064337D02*
G01X0032963Y-064281D01*
G01X0032963Y-064281D02*
G01X0033244Y-064281D01*
G01X0033244Y-064281D02*
G01X0033357Y-064337D01*
G01X0033357Y-064337D02*
G01X0033413Y-064393D01*
G01X0033413Y-064393D02*
G01X0033469Y-064506D01*
G01X0033469Y-064506D02*
G01X0033469Y-064618D01*
G01X0033469Y-064618D02*
G01X0033413Y-064787D01*
G01X0033413Y-064787D02*
G01X0032738Y-065462D01*
G01X0032738Y-065462D02*
G01X0033469Y-065462D01*
G01X0033976Y-065462D02*
G01X0033976Y-064675D01*
G01X0033976Y-064787D02*
G01X0034032Y-064731D01*
G01X0034032Y-064731D02*
G01X0034144Y-064675D01*
G01X0034144Y-064675D02*
G01X0034313Y-064675D01*
G01X0034313Y-064675D02*
G01X0034426Y-064731D01*
G01X0034426Y-064731D02*
G01X0034482Y-064843D01*
G01X0034482Y-064843D02*
G01X0034482Y-065462D01*
G01X0034482Y-064843D02*
G01X0034538Y-064731D01*
G01X0034538Y-064731D02*
G01X0034651Y-064675D01*
G01X0034651Y-064675D02*
G01X0034819Y-064675D01*
G01X0034819Y-064675D02*
G01X0034932Y-064731D01*
G01X0034932Y-064731D02*
G01X0034988Y-064843D01*
G01X0034988Y-064843D02*
G01X0034988Y-065462D01*
G01X0035550Y-065462D02*
G01X0035550Y-064675D01*
G01X0035550Y-064787D02*
G01X0035607Y-064731D01*
G01X0035607Y-064731D02*
G01X0035719Y-064675D01*
G01X0035719Y-064675D02*
G01X0035888Y-064675D01*
G01X0035888Y-064675D02*
G01X0036000Y-064731D01*
G01X0036000Y-064731D02*
G01X0036057Y-064843D01*
G01X0036057Y-064843D02*
G01X0036057Y-065462D01*
G01X0036057Y-064843D02*
G01X0036113Y-064731D01*
G01X0036113Y-064731D02*
G01X0036225Y-064675D01*
G01X0036225Y-064675D02*
G01X0036394Y-064675D01*
G01X0036394Y-064675D02*
G01X0036507Y-064731D01*
G01X0036507Y-064731D02*
G01X0036563Y-064843D01*
G01X0036563Y-064843D02*
G01X0036563Y-065462D01*
G01X0038869Y-064225D02*
G01X0037856Y-065743D01*
G01X0040387Y-064281D02*
G01X0040500Y-064281D01*
G01X0040500Y-064281D02*
G01X0040612Y-064337D01*
G01X0040612Y-064337D02*
G01X0040669Y-064393D01*
G01X0040669Y-064393D02*
G01X0040725Y-064506D01*
G01X0040725Y-064506D02*
G01X0040781Y-064731D01*
G01X0040781Y-064731D02*
G01X0040781Y-065012D01*
G01X0040781Y-065012D02*
G01X0040725Y-065237D01*
G01X0040725Y-065237D02*
G01X0040669Y-065349D01*
G01X0040669Y-065349D02*
G01X0040612Y-065406D01*
G01X0040612Y-065406D02*
G01X0040500Y-065462D01*
G01X0040500Y-065462D02*
G01X0040387Y-065462D01*
G01X0040387Y-065462D02*
G01X0040275Y-065406D01*
G01X0040275Y-065406D02*
G01X0040219Y-065349D01*
G01X0040219Y-065349D02*
G01X0040162Y-065237D01*
G01X0040162Y-065237D02*
G01X0040106Y-065012D01*
G01X0040106Y-065012D02*
G01X0040106Y-064731D01*
G01X0040106Y-064731D02*
G01X0040162Y-064506D01*
G01X0040162Y-064506D02*
G01X0040219Y-064393D01*
G01X0040219Y-064393D02*
G01X0040275Y-064337D01*
G01X0040275Y-064337D02*
G01X0040387Y-064281D01*
G01X0041287Y-065349D02*
G01X0041343Y-065406D01*
G01X0041343Y-065406D02*
G01X0041287Y-065462D01*
G01X0041287Y-065462D02*
G01X0041231Y-065406D01*
G01X0041231Y-065406D02*
G01X0041287Y-065349D01*
G01X0041287Y-065349D02*
G01X0041287Y-065462D01*
G01X0042075Y-064281D02*
G01X0042187Y-064281D01*
G01X0042187Y-064281D02*
G01X0042300Y-064337D01*
G01X0042300Y-064337D02*
G01X0042356Y-064393D01*
G01X0042356Y-064393D02*
G01X0042412Y-064506D01*
G01X0042412Y-064506D02*
G01X0042468Y-064731D01*
G01X0042468Y-064731D02*
G01X0042468Y-065012D01*
G01X0042468Y-065012D02*
G01X0042412Y-065237D01*
G01X0042412Y-065237D02*
G01X0042356Y-065349D01*
G01X0042356Y-065349D02*
G01X0042300Y-065406D01*
G01X0042300Y-065406D02*
G01X0042187Y-065462D01*
G01X0042187Y-065462D02*
G01X0042075Y-065462D01*
G01X0042075Y-065462D02*
G01X0041962Y-065406D01*
G01X0041962Y-065406D02*
G01X0041906Y-065349D01*
G01X0041906Y-065349D02*
G01X0041850Y-065237D01*
G01X0041850Y-065237D02*
G01X0041793Y-065012D01*
G01X0041793Y-065012D02*
G01X0041793Y-064731D01*
G01X0041793Y-064731D02*
G01X0041850Y-064506D01*
G01X0041850Y-064506D02*
G01X0041906Y-064393D01*
G01X0041906Y-064393D02*
G01X0041962Y-064337D01*
G01X0041962Y-064337D02*
G01X0042075Y-064281D01*
G01X0043481Y-064675D02*
G01X0043481Y-065462D01*
G01X0043199Y-064225D02*
G01X0042918Y-065068D01*
G01X0042918Y-065068D02*
G01X0043649Y-065068D01*
G01X0044324Y-064281D02*
G01X0044437Y-064281D01*
G01X0044437Y-064281D02*
G01X0044549Y-064337D01*
G01X0044549Y-064337D02*
G01X0044606Y-064393D01*
G01X0044606Y-064393D02*
G01X0044662Y-064506D01*
G01X0044662Y-064506D02*
G01X0044718Y-064731D01*
G01X0044718Y-064731D02*
G01X0044718Y-065012D01*
G01X0044718Y-065012D02*
G01X0044662Y-065237D01*
G01X0044662Y-065237D02*
G01X0044606Y-065349D01*
G01X0044606Y-065349D02*
G01X0044549Y-065406D01*
G01X0044549Y-065406D02*
G01X0044437Y-065462D01*
G01X0044437Y-065462D02*
G01X0044324Y-065462D01*
G01X0044324Y-065462D02*
G01X0044212Y-065406D01*
G01X0044212Y-065406D02*
G01X0044156Y-065349D01*
G01X0044156Y-065349D02*
G01X0044099Y-065237D01*
G01X0044099Y-065237D02*
G01X0044043Y-065012D01*
G01X0044043Y-065012D02*
G01X0044043Y-064731D01*
G01X0044043Y-064731D02*
G01X0044099Y-064506D01*
G01X0044099Y-064506D02*
G01X0044156Y-064393D01*
G01X0044156Y-064393D02*
G01X0044212Y-064337D01*
G01X0044212Y-064337D02*
G01X0044324Y-064281D01*
G01X0045168Y-064281D02*
G01X0045168Y-064506D01*
G01X0045618Y-064281D02*
G01X0045618Y-064506D01*
G01X0047361Y-065912D02*
G01X0047305Y-065856D01*
G01X0047305Y-065856D02*
G01X0047193Y-065687D01*
G01X0047193Y-065687D02*
G01X0047136Y-065574D01*
G01X0047136Y-065574D02*
G01X0047080Y-065406D01*
G01X0047080Y-065406D02*
G01X0047024Y-065124D01*
G01X0047024Y-065124D02*
G01X0047024Y-064900D01*
G01X0047024Y-064900D02*
G01X0047080Y-064618D01*
G01X0047080Y-064618D02*
G01X0047136Y-064450D01*
G01X0047136Y-064450D02*
G01X0047193Y-064337D01*
G01X0047193Y-064337D02*
G01X0047305Y-064168D01*
G01X0047305Y-064168D02*
G01X0047361Y-064112D01*
G01X0048430Y-065462D02*
G01X0047755Y-065462D01*
G01X0048093Y-065462D02*
G01X0048093Y-064281D01*
G01X0048093Y-064281D02*
G01X0047980Y-064450D01*
G01X0047980Y-064450D02*
G01X0047868Y-064562D01*
G01X0047868Y-064562D02*
G01X0047755Y-064618D01*
G01X0048824Y-064281D02*
G01X0049611Y-064281D01*
G01X0049611Y-064281D02*
G01X0049105Y-065462D01*
G01X0050961Y-065462D02*
G01X0050961Y-064281D01*
G01X0051467Y-065462D02*
G01X0051467Y-064843D01*
G01X0051467Y-064843D02*
G01X0051411Y-064731D01*
G01X0051411Y-064731D02*
G01X0051298Y-064675D01*
G01X0051298Y-064675D02*
G01X0051130Y-064675D01*
G01X0051130Y-064675D02*
G01X0051017Y-064731D01*
G01X0051017Y-064731D02*
G01X0050961Y-064787D01*
G01X0052198Y-065462D02*
G01X0052086Y-065406D01*
G01X0052086Y-065406D02*
G01X0052030Y-065349D01*
G01X0052030Y-065349D02*
G01X0051973Y-065237D01*
G01X0051973Y-065237D02*
G01X0051973Y-064900D01*
G01X0051973Y-064900D02*
G01X0052030Y-064787D01*
G01X0052030Y-064787D02*
G01X0052086Y-064731D01*
G01X0052086Y-064731D02*
G01X0052198Y-064675D01*
G01X0052198Y-064675D02*
G01X0052367Y-064675D01*
G01X0052367Y-064675D02*
G01X0052480Y-064731D01*
G01X0052480Y-064731D02*
G01X0052536Y-064787D01*
G01X0052536Y-064787D02*
G01X0052592Y-064900D01*
G01X0052592Y-064900D02*
G01X0052592Y-065237D01*
G01X0052592Y-065237D02*
G01X0052536Y-065349D01*
G01X0052536Y-065349D02*
G01X0052480Y-065406D01*
G01X0052480Y-065406D02*
G01X0052367Y-065462D01*
G01X0052367Y-065462D02*
G01X0052198Y-065462D01*
G01X0053267Y-065462D02*
G01X0053154Y-065406D01*
G01X0053154Y-065406D02*
G01X0053098Y-065293D01*
G01X0053098Y-065293D02*
G01X0053098Y-064281D01*
G01X0054167Y-065406D02*
G01X0054054Y-065462D01*
G01X0054054Y-065462D02*
G01X0053829Y-065462D01*
G01X0053829Y-065462D02*
G01X0053717Y-065406D01*
G01X0053717Y-065406D02*
G01X0053661Y-065293D01*
G01X0053661Y-065293D02*
G01X0053661Y-064843D01*
G01X0053661Y-064843D02*
G01X0053717Y-064731D01*
G01X0053717Y-064731D02*
G01X0053829Y-064675D01*
G01X0053829Y-064675D02*
G01X0054054Y-064675D01*
G01X0054054Y-064675D02*
G01X0054167Y-064731D01*
G01X0054167Y-064731D02*
G01X0054223Y-064843D01*
G01X0054223Y-064843D02*
G01X0054223Y-064956D01*
G01X0054223Y-064956D02*
G01X0053661Y-065068D01*
G01X0054673Y-065406D02*
G01X0054786Y-065462D01*
G01X0054786Y-065462D02*
G01X0055010Y-065462D01*
G01X0055010Y-065462D02*
G01X0055123Y-065406D01*
G01X0055123Y-065406D02*
G01X0055179Y-065293D01*
G01X0055179Y-065293D02*
G01X0055179Y-065237D01*
G01X0055179Y-065237D02*
G01X0055123Y-065124D01*
G01X0055123Y-065124D02*
G01X0055010Y-065068D01*
G01X0055010Y-065068D02*
G01X0054842Y-065068D01*
G01X0054842Y-065068D02*
G01X0054729Y-065012D01*
G01X0054729Y-065012D02*
G01X0054673Y-064900D01*
G01X0054673Y-064900D02*
G01X0054673Y-064843D01*
G01X0054673Y-064843D02*
G01X0054729Y-064731D01*
G01X0054729Y-064731D02*
G01X0054842Y-064675D01*
G01X0054842Y-064675D02*
G01X0055010Y-064675D01*
G01X0055010Y-064675D02*
G01X0055123Y-064731D01*
G01X0055573Y-065912D02*
G01X0055629Y-065856D01*
G01X0055629Y-065856D02*
G01X0055742Y-065687D01*
G01X0055742Y-065687D02*
G01X0055798Y-065574D01*
G01X0055798Y-065574D02*
G01X0055854Y-065406D01*
G01X0055854Y-065406D02*
G01X0055910Y-065124D01*
G01X0055910Y-065124D02*
G01X0055910Y-064900D01*
G01X0055910Y-064900D02*
G01X0055854Y-064618D01*
G01X0055854Y-064618D02*
G01X0055798Y-064450D01*
G01X0055798Y-064450D02*
G01X0055742Y-064337D01*
G01X0055742Y-064337D02*
G01X0055629Y-064168D01*
G01X0055629Y-064168D02*
G01X0055573Y-064112D01*
G01X0028901Y-066654D02*
G01X0028901Y-066320D01*
G01X0028901Y-066320D02*
G01X0028567Y-066320D01*
G01X0028567Y-066320D02*
G01X0028567Y-066654D01*
G01X0028567Y-066654D02*
G01X0028901Y-066654D01*
G01X0030657Y-067021D02*
G01X0029982Y-067021D01*
G01X0030320Y-067021D02*
G01X0030320Y-065840D01*
G01X0030320Y-065840D02*
G01X0030207Y-066009D01*
G01X0030207Y-066009D02*
G01X0030095Y-066121D01*
G01X0030095Y-066121D02*
G01X0029982Y-066177D01*
G01X0031163Y-066909D02*
G01X0031220Y-066965D01*
G01X0031220Y-066965D02*
G01X0031163Y-067021D01*
G01X0031163Y-067021D02*
G01X0031107Y-066965D01*
G01X0031107Y-066965D02*
G01X0031163Y-066909D01*
G01X0031163Y-066909D02*
G01X0031163Y-067021D01*
G01X0031670Y-065952D02*
G01X0031726Y-065896D01*
G01X0031726Y-065896D02*
G01X0031838Y-065840D01*
G01X0031838Y-065840D02*
G01X0032120Y-065840D01*
G01X0032120Y-065840D02*
G01X0032232Y-065896D01*
G01X0032232Y-065896D02*
G01X0032288Y-065952D01*
G01X0032288Y-065952D02*
G01X0032345Y-066065D01*
G01X0032345Y-066065D02*
G01X0032345Y-066177D01*
G01X0032345Y-066177D02*
G01X0032288Y-066346D01*
G01X0032288Y-066346D02*
G01X0031613Y-067021D01*
G01X0031613Y-067021D02*
G01X0032345Y-067021D01*
G01X0033076Y-065840D02*
G01X0033188Y-065840D01*
G01X0033188Y-065840D02*
G01X0033301Y-065896D01*
G01X0033301Y-065896D02*
G01X0033357Y-065952D01*
G01X0033357Y-065952D02*
G01X0033413Y-066065D01*
G01X0033413Y-066065D02*
G01X0033469Y-066290D01*
G01X0033469Y-066290D02*
G01X0033469Y-066571D01*
G01X0033469Y-066571D02*
G01X0033413Y-066796D01*
G01X0033413Y-066796D02*
G01X0033357Y-066909D01*
G01X0033357Y-066909D02*
G01X0033301Y-066965D01*
G01X0033301Y-066965D02*
G01X0033188Y-067021D01*
G01X0033188Y-067021D02*
G01X0033076Y-067021D01*
G01X0033076Y-067021D02*
G01X0032963Y-066965D01*
G01X0032963Y-066965D02*
G01X0032907Y-066909D01*
G01X0032907Y-066909D02*
G01X0032851Y-066796D01*
G01X0032851Y-066796D02*
G01X0032795Y-066571D01*
G01X0032795Y-066571D02*
G01X0032795Y-066290D01*
G01X0032795Y-066290D02*
G01X0032851Y-066065D01*
G01X0032851Y-066065D02*
G01X0032907Y-065952D01*
G01X0032907Y-065952D02*
G01X0032963Y-065896D01*
G01X0032963Y-065896D02*
G01X0033076Y-065840D01*
G01X0033976Y-067021D02*
G01X0033976Y-066234D01*
G01X0033976Y-066346D02*
G01X0034032Y-066290D01*
G01X0034032Y-066290D02*
G01X0034144Y-066234D01*
G01X0034144Y-066234D02*
G01X0034313Y-066234D01*
G01X0034313Y-066234D02*
G01X0034426Y-066290D01*
G01X0034426Y-066290D02*
G01X0034482Y-066402D01*
G01X0034482Y-066402D02*
G01X0034482Y-067021D01*
G01X0034482Y-066402D02*
G01X0034538Y-066290D01*
G01X0034538Y-066290D02*
G01X0034651Y-066234D01*
G01X0034651Y-066234D02*
G01X0034819Y-066234D01*
G01X0034819Y-066234D02*
G01X0034932Y-066290D01*
G01X0034932Y-066290D02*
G01X0034988Y-066402D01*
G01X0034988Y-066402D02*
G01X0034988Y-067021D01*
G01X0035550Y-067021D02*
G01X0035550Y-066234D01*
G01X0035550Y-066346D02*
G01X0035607Y-066290D01*
G01X0035607Y-066290D02*
G01X0035719Y-066234D01*
G01X0035719Y-066234D02*
G01X0035888Y-066234D01*
G01X0035888Y-066234D02*
G01X0036000Y-066290D01*
G01X0036000Y-066290D02*
G01X0036057Y-066402D01*
G01X0036057Y-066402D02*
G01X0036057Y-067021D01*
G01X0036057Y-066402D02*
G01X0036113Y-066290D01*
G01X0036113Y-066290D02*
G01X0036225Y-066234D01*
G01X0036225Y-066234D02*
G01X0036394Y-066234D01*
G01X0036394Y-066234D02*
G01X0036507Y-066290D01*
G01X0036507Y-066290D02*
G01X0036563Y-066402D01*
G01X0036563Y-066402D02*
G01X0036563Y-067021D01*
G01X0038869Y-065784D02*
G01X0037856Y-067302D01*
G01X0040387Y-065840D02*
G01X0040500Y-065840D01*
G01X0040500Y-065840D02*
G01X0040612Y-065896D01*
G01X0040612Y-065896D02*
G01X0040669Y-065952D01*
G01X0040669Y-065952D02*
G01X0040725Y-066065D01*
G01X0040725Y-066065D02*
G01X0040781Y-066290D01*
G01X0040781Y-066290D02*
G01X0040781Y-066571D01*
G01X0040781Y-066571D02*
G01X0040725Y-066796D01*
G01X0040725Y-066796D02*
G01X0040669Y-066909D01*
G01X0040669Y-066909D02*
G01X0040612Y-066965D01*
G01X0040612Y-066965D02*
G01X0040500Y-067021D01*
G01X0040500Y-067021D02*
G01X0040387Y-067021D01*
G01X0040387Y-067021D02*
G01X0040275Y-066965D01*
G01X0040275Y-066965D02*
G01X0040219Y-066909D01*
G01X0040219Y-066909D02*
G01X0040162Y-066796D01*
G01X0040162Y-066796D02*
G01X0040106Y-066571D01*
G01X0040106Y-066571D02*
G01X0040106Y-066290D01*
G01X0040106Y-066290D02*
G01X0040162Y-066065D01*
G01X0040162Y-066065D02*
G01X0040219Y-065952D01*
G01X0040219Y-065952D02*
G01X0040275Y-065896D01*
G01X0040275Y-065896D02*
G01X0040387Y-065840D01*
G01X0041287Y-066909D02*
G01X0041343Y-066965D01*
G01X0041343Y-066965D02*
G01X0041287Y-067021D01*
G01X0041287Y-067021D02*
G01X0041231Y-066965D01*
G01X0041231Y-066965D02*
G01X0041287Y-066909D01*
G01X0041287Y-066909D02*
G01X0041287Y-067021D01*
G01X0042075Y-065840D02*
G01X0042187Y-065840D01*
G01X0042187Y-065840D02*
G01X0042300Y-065896D01*
G01X0042300Y-065896D02*
G01X0042356Y-065952D01*
G01X0042356Y-065952D02*
G01X0042412Y-066065D01*
G01X0042412Y-066065D02*
G01X0042468Y-066290D01*
G01X0042468Y-066290D02*
G01X0042468Y-066571D01*
G01X0042468Y-066571D02*
G01X0042412Y-066796D01*
G01X0042412Y-066796D02*
G01X0042356Y-066909D01*
G01X0042356Y-066909D02*
G01X0042300Y-066965D01*
G01X0042300Y-066965D02*
G01X0042187Y-067021D01*
G01X0042187Y-067021D02*
G01X0042075Y-067021D01*
G01X0042075Y-067021D02*
G01X0041962Y-066965D01*
G01X0041962Y-066965D02*
G01X0041906Y-066909D01*
G01X0041906Y-066909D02*
G01X0041850Y-066796D01*
G01X0041850Y-066796D02*
G01X0041793Y-066571D01*
G01X0041793Y-066571D02*
G01X0041793Y-066290D01*
G01X0041793Y-066290D02*
G01X0041850Y-066065D01*
G01X0041850Y-066065D02*
G01X0041906Y-065952D01*
G01X0041906Y-065952D02*
G01X0041962Y-065896D01*
G01X0041962Y-065896D02*
G01X0042075Y-065840D01*
G01X0043481Y-066234D02*
G01X0043481Y-067021D01*
G01X0043199Y-065784D02*
G01X0042918Y-066627D01*
G01X0042918Y-066627D02*
G01X0043649Y-066627D01*
G01X0043987Y-065840D02*
G01X0044774Y-065840D01*
G01X0044774Y-065840D02*
G01X0044268Y-067021D01*
G01X0045168Y-065840D02*
G01X0045168Y-066065D01*
G01X0045618Y-065840D02*
G01X0045618Y-066065D01*
G01X0047361Y-067471D02*
G01X0047305Y-067415D01*
G01X0047305Y-067415D02*
G01X0047193Y-067246D01*
G01X0047193Y-067246D02*
G01X0047136Y-067133D01*
G01X0047136Y-067133D02*
G01X0047080Y-066965D01*
G01X0047080Y-066965D02*
G01X0047024Y-066684D01*
G01X0047024Y-066684D02*
G01X0047024Y-066459D01*
G01X0047024Y-066459D02*
G01X0047080Y-066177D01*
G01X0047080Y-066177D02*
G01X0047136Y-066009D01*
G01X0047136Y-066009D02*
G01X0047193Y-065896D01*
G01X0047193Y-065896D02*
G01X0047305Y-065727D01*
G01X0047305Y-065727D02*
G01X0047361Y-065671D01*
G01X0047755Y-065952D02*
G01X0047811Y-065896D01*
G01X0047811Y-065896D02*
G01X0047924Y-065840D01*
G01X0047924Y-065840D02*
G01X0048205Y-065840D01*
G01X0048205Y-065840D02*
G01X0048318Y-065896D01*
G01X0048318Y-065896D02*
G01X0048374Y-065952D01*
G01X0048374Y-065952D02*
G01X0048430Y-066065D01*
G01X0048430Y-066065D02*
G01X0048430Y-066177D01*
G01X0048430Y-066177D02*
G01X0048374Y-066346D01*
G01X0048374Y-066346D02*
G01X0047699Y-067021D01*
G01X0047699Y-067021D02*
G01X0048430Y-067021D01*
G01X0049836Y-067021D02*
G01X0049836Y-065840D01*
G01X0050342Y-067021D02*
G01X0050342Y-066402D01*
G01X0050342Y-066402D02*
G01X0050286Y-066290D01*
G01X0050286Y-066290D02*
G01X0050174Y-066234D01*
G01X0050174Y-066234D02*
G01X0050005Y-066234D01*
G01X0050005Y-066234D02*
G01X0049892Y-066290D01*
G01X0049892Y-066290D02*
G01X0049836Y-066346D01*
G01X0051073Y-067021D02*
G01X0050961Y-066965D01*
G01X0050961Y-066965D02*
G01X0050905Y-066909D01*
G01X0050905Y-066909D02*
G01X0050849Y-066796D01*
G01X0050849Y-066796D02*
G01X0050849Y-066459D01*
G01X0050849Y-066459D02*
G01X0050905Y-066346D01*
G01X0050905Y-066346D02*
G01X0050961Y-066290D01*
G01X0050961Y-066290D02*
G01X0051073Y-066234D01*
G01X0051073Y-066234D02*
G01X0051242Y-066234D01*
G01X0051242Y-066234D02*
G01X0051355Y-066290D01*
G01X0051355Y-066290D02*
G01X0051411Y-066346D01*
G01X0051411Y-066346D02*
G01X0051467Y-066459D01*
G01X0051467Y-066459D02*
G01X0051467Y-066796D01*
G01X0051467Y-066796D02*
G01X0051411Y-066909D01*
G01X0051411Y-066909D02*
G01X0051355Y-066965D01*
G01X0051355Y-066965D02*
G01X0051242Y-067021D01*
G01X0051242Y-067021D02*
G01X0051073Y-067021D01*
G01X0052142Y-067021D02*
G01X0052030Y-066965D01*
G01X0052030Y-066965D02*
G01X0051973Y-066852D01*
G01X0051973Y-066852D02*
G01X0051973Y-065840D01*
G01X0053042Y-066965D02*
G01X0052930Y-067021D01*
G01X0052930Y-067021D02*
G01X0052705Y-067021D01*
G01X0052705Y-067021D02*
G01X0052592Y-066965D01*
G01X0052592Y-066965D02*
G01X0052536Y-066852D01*
G01X0052536Y-066852D02*
G01X0052536Y-066402D01*
G01X0052536Y-066402D02*
G01X0052592Y-066290D01*
G01X0052592Y-066290D02*
G01X0052705Y-066234D01*
G01X0052705Y-066234D02*
G01X0052930Y-066234D01*
G01X0052930Y-066234D02*
G01X0053042Y-066290D01*
G01X0053042Y-066290D02*
G01X0053098Y-066402D01*
G01X0053098Y-066402D02*
G01X0053098Y-066515D01*
G01X0053098Y-066515D02*
G01X0052536Y-066627D01*
G01X0053548Y-066965D02*
G01X0053661Y-067021D01*
G01X0053661Y-067021D02*
G01X0053886Y-067021D01*
G01X0053886Y-067021D02*
G01X0053998Y-066965D01*
G01X0053998Y-066965D02*
G01X0054054Y-066852D01*
G01X0054054Y-066852D02*
G01X0054054Y-066796D01*
G01X0054054Y-066796D02*
G01X0053998Y-066684D01*
G01X0053998Y-066684D02*
G01X0053886Y-066627D01*
G01X0053886Y-066627D02*
G01X0053717Y-066627D01*
G01X0053717Y-066627D02*
G01X0053604Y-066571D01*
G01X0053604Y-066571D02*
G01X0053548Y-066459D01*
G01X0053548Y-066459D02*
G01X0053548Y-066402D01*
G01X0053548Y-066402D02*
G01X0053604Y-066290D01*
G01X0053604Y-066290D02*
G01X0053717Y-066234D01*
G01X0053717Y-066234D02*
G01X0053886Y-066234D01*
G01X0053886Y-066234D02*
G01X0053998Y-066290D01*
G01X0054448Y-067471D02*
G01X0054504Y-067415D01*
G01X0054504Y-067415D02*
G01X0054617Y-067246D01*
G01X0054617Y-067246D02*
G01X0054673Y-067133D01*
G01X0054673Y-067133D02*
G01X0054729Y-066965D01*
G01X0054729Y-066965D02*
G01X0054786Y-066684D01*
G01X0054786Y-066684D02*
G01X0054786Y-066459D01*
G01X0054786Y-066459D02*
G01X0054729Y-066177D01*
G01X0054729Y-066177D02*
G01X0054673Y-066009D01*
G01X0054673Y-066009D02*
G01X0054617Y-065896D01*
G01X0054617Y-065896D02*
G01X0054504Y-065727D01*
G01X0054504Y-065727D02*
G01X0054448Y-065671D01*
G01X0028380Y-068636D02*
G01X0028970Y-068046D01*
G01X0028970Y-068046D02*
G01X0028380Y-067455D01*
G01X0028380Y-067455D02*
G01X0027789Y-068046D01*
G01X0027789Y-068046D02*
G01X0028380Y-068636D01*
G01X0029926Y-067399D02*
G01X0030657Y-067399D01*
G01X0030657Y-067399D02*
G01X0030264Y-067849D01*
G01X0030264Y-067849D02*
G01X0030432Y-067849D01*
G01X0030432Y-067849D02*
G01X0030545Y-067905D01*
G01X0030545Y-067905D02*
G01X0030601Y-067961D01*
G01X0030601Y-067961D02*
G01X0030657Y-068074D01*
G01X0030657Y-068074D02*
G01X0030657Y-068355D01*
G01X0030657Y-068355D02*
G01X0030601Y-068468D01*
G01X0030601Y-068468D02*
G01X0030545Y-068524D01*
G01X0030545Y-068524D02*
G01X0030432Y-068580D01*
G01X0030432Y-068580D02*
G01X0030095Y-068580D01*
G01X0030095Y-068580D02*
G01X0029982Y-068524D01*
G01X0029982Y-068524D02*
G01X0029926Y-068468D01*
G01X0031163Y-068468D02*
G01X0031220Y-068524D01*
G01X0031220Y-068524D02*
G01X0031163Y-068580D01*
G01X0031163Y-068580D02*
G01X0031107Y-068524D01*
G01X0031107Y-068524D02*
G01X0031163Y-068468D01*
G01X0031163Y-068468D02*
G01X0031163Y-068580D01*
G01X0031951Y-067399D02*
G01X0032063Y-067399D01*
G01X0032063Y-067399D02*
G01X0032176Y-067455D01*
G01X0032176Y-067455D02*
G01X0032232Y-067511D01*
G01X0032232Y-067511D02*
G01X0032288Y-067624D01*
G01X0032288Y-067624D02*
G01X0032345Y-067849D01*
G01X0032345Y-067849D02*
G01X0032345Y-068130D01*
G01X0032345Y-068130D02*
G01X0032288Y-068355D01*
G01X0032288Y-068355D02*
G01X0032232Y-068468D01*
G01X0032232Y-068468D02*
G01X0032176Y-068524D01*
G01X0032176Y-068524D02*
G01X0032063Y-068580D01*
G01X0032063Y-068580D02*
G01X0031951Y-068580D01*
G01X0031951Y-068580D02*
G01X0031838Y-068524D01*
G01X0031838Y-068524D02*
G01X0031782Y-068468D01*
G01X0031782Y-068468D02*
G01X0031726Y-068355D01*
G01X0031726Y-068355D02*
G01X0031670Y-068130D01*
G01X0031670Y-068130D02*
G01X0031670Y-067849D01*
G01X0031670Y-067849D02*
G01X0031726Y-067624D01*
G01X0031726Y-067624D02*
G01X0031782Y-067511D01*
G01X0031782Y-067511D02*
G01X0031838Y-067455D01*
G01X0031838Y-067455D02*
G01X0031951Y-067399D01*
G01X0033076Y-067399D02*
G01X0033188Y-067399D01*
G01X0033188Y-067399D02*
G01X0033301Y-067455D01*
G01X0033301Y-067455D02*
G01X0033357Y-067511D01*
G01X0033357Y-067511D02*
G01X0033413Y-067624D01*
G01X0033413Y-067624D02*
G01X0033469Y-067849D01*
G01X0033469Y-067849D02*
G01X0033469Y-068130D01*
G01X0033469Y-068130D02*
G01X0033413Y-068355D01*
G01X0033413Y-068355D02*
G01X0033357Y-068468D01*
G01X0033357Y-068468D02*
G01X0033301Y-068524D01*
G01X0033301Y-068524D02*
G01X0033188Y-068580D01*
G01X0033188Y-068580D02*
G01X0033076Y-068580D01*
G01X0033076Y-068580D02*
G01X0032963Y-068524D01*
G01X0032963Y-068524D02*
G01X0032907Y-068468D01*
G01X0032907Y-068468D02*
G01X0032851Y-068355D01*
G01X0032851Y-068355D02*
G01X0032795Y-068130D01*
G01X0032795Y-068130D02*
G01X0032795Y-067849D01*
G01X0032795Y-067849D02*
G01X0032851Y-067624D01*
G01X0032851Y-067624D02*
G01X0032907Y-067511D01*
G01X0032907Y-067511D02*
G01X0032963Y-067455D01*
G01X0032963Y-067455D02*
G01X0033076Y-067399D01*
G01X0033976Y-068580D02*
G01X0033976Y-067793D01*
G01X0033976Y-067905D02*
G01X0034032Y-067849D01*
G01X0034032Y-067849D02*
G01X0034144Y-067793D01*
G01X0034144Y-067793D02*
G01X0034313Y-067793D01*
G01X0034313Y-067793D02*
G01X0034426Y-067849D01*
G01X0034426Y-067849D02*
G01X0034482Y-067961D01*
G01X0034482Y-067961D02*
G01X0034482Y-068580D01*
G01X0034482Y-067961D02*
G01X0034538Y-067849D01*
G01X0034538Y-067849D02*
G01X0034651Y-067793D01*
G01X0034651Y-067793D02*
G01X0034819Y-067793D01*
G01X0034819Y-067793D02*
G01X0034932Y-067849D01*
G01X0034932Y-067849D02*
G01X0034988Y-067961D01*
G01X0034988Y-067961D02*
G01X0034988Y-068580D01*
G01X0035550Y-068580D02*
G01X0035550Y-067793D01*
G01X0035550Y-067905D02*
G01X0035607Y-067849D01*
G01X0035607Y-067849D02*
G01X0035719Y-067793D01*
G01X0035719Y-067793D02*
G01X0035888Y-067793D01*
G01X0035888Y-067793D02*
G01X0036000Y-067849D01*
G01X0036000Y-067849D02*
G01X0036057Y-067961D01*
G01X0036057Y-067961D02*
G01X0036057Y-068580D01*
G01X0036057Y-067961D02*
G01X0036113Y-067849D01*
G01X0036113Y-067849D02*
G01X0036225Y-067793D01*
G01X0036225Y-067793D02*
G01X0036394Y-067793D01*
G01X0036394Y-067793D02*
G01X0036507Y-067849D01*
G01X0036507Y-067849D02*
G01X0036563Y-067961D01*
G01X0036563Y-067961D02*
G01X0036563Y-068580D01*
G01X0038869Y-067343D02*
G01X0037856Y-068861D01*
G01X0040387Y-067399D02*
G01X0040500Y-067399D01*
G01X0040500Y-067399D02*
G01X0040612Y-067455D01*
G01X0040612Y-067455D02*
G01X0040669Y-067511D01*
G01X0040669Y-067511D02*
G01X0040725Y-067624D01*
G01X0040725Y-067624D02*
G01X0040781Y-067849D01*
G01X0040781Y-067849D02*
G01X0040781Y-068130D01*
G01X0040781Y-068130D02*
G01X0040725Y-068355D01*
G01X0040725Y-068355D02*
G01X0040669Y-068468D01*
G01X0040669Y-068468D02*
G01X0040612Y-068524D01*
G01X0040612Y-068524D02*
G01X0040500Y-068580D01*
G01X0040500Y-068580D02*
G01X0040387Y-068580D01*
G01X0040387Y-068580D02*
G01X0040275Y-068524D01*
G01X0040275Y-068524D02*
G01X0040219Y-068468D01*
G01X0040219Y-068468D02*
G01X0040162Y-068355D01*
G01X0040162Y-068355D02*
G01X0040106Y-068130D01*
G01X0040106Y-068130D02*
G01X0040106Y-067849D01*
G01X0040106Y-067849D02*
G01X0040162Y-067624D01*
G01X0040162Y-067624D02*
G01X0040219Y-067511D01*
G01X0040219Y-067511D02*
G01X0040275Y-067455D01*
G01X0040275Y-067455D02*
G01X0040387Y-067399D01*
G01X0041287Y-068468D02*
G01X0041343Y-068524D01*
G01X0041343Y-068524D02*
G01X0041287Y-068580D01*
G01X0041287Y-068580D02*
G01X0041231Y-068524D01*
G01X0041231Y-068524D02*
G01X0041287Y-068468D01*
G01X0041287Y-068468D02*
G01X0041287Y-068580D01*
G01X0042468Y-068580D02*
G01X0041793Y-068580D01*
G01X0042131Y-068580D02*
G01X0042131Y-067399D01*
G01X0042131Y-067399D02*
G01X0042018Y-067568D01*
G01X0042018Y-067568D02*
G01X0041906Y-067680D01*
G01X0041906Y-067680D02*
G01X0041793Y-067736D01*
G01X0043593Y-068580D02*
G01X0042918Y-068580D01*
G01X0043256Y-068580D02*
G01X0043256Y-067399D01*
G01X0043256Y-067399D02*
G01X0043143Y-067568D01*
G01X0043143Y-067568D02*
G01X0043031Y-067680D01*
G01X0043031Y-067680D02*
G01X0042918Y-067736D01*
G01X0044268Y-067905D02*
G01X0044156Y-067849D01*
G01X0044156Y-067849D02*
G01X0044099Y-067793D01*
G01X0044099Y-067793D02*
G01X0044043Y-067680D01*
G01X0044043Y-067680D02*
G01X0044043Y-067624D01*
G01X0044043Y-067624D02*
G01X0044099Y-067511D01*
G01X0044099Y-067511D02*
G01X0044156Y-067455D01*
G01X0044156Y-067455D02*
G01X0044268Y-067399D01*
G01X0044268Y-067399D02*
G01X0044493Y-067399D01*
G01X0044493Y-067399D02*
G01X0044606Y-067455D01*
G01X0044606Y-067455D02*
G01X0044662Y-067511D01*
G01X0044662Y-067511D02*
G01X0044718Y-067624D01*
G01X0044718Y-067624D02*
G01X0044718Y-067680D01*
G01X0044718Y-067680D02*
G01X0044662Y-067793D01*
G01X0044662Y-067793D02*
G01X0044606Y-067849D01*
G01X0044606Y-067849D02*
G01X0044493Y-067905D01*
G01X0044493Y-067905D02*
G01X0044268Y-067905D01*
G01X0044268Y-067905D02*
G01X0044156Y-067961D01*
G01X0044156Y-067961D02*
G01X0044099Y-068018D01*
G01X0044099Y-068018D02*
G01X0044043Y-068130D01*
G01X0044043Y-068130D02*
G01X0044043Y-068355D01*
G01X0044043Y-068355D02*
G01X0044099Y-068468D01*
G01X0044099Y-068468D02*
G01X0044156Y-068524D01*
G01X0044156Y-068524D02*
G01X0044268Y-068580D01*
G01X0044268Y-068580D02*
G01X0044493Y-068580D01*
G01X0044493Y-068580D02*
G01X0044606Y-068524D01*
G01X0044606Y-068524D02*
G01X0044662Y-068468D01*
G01X0044662Y-068468D02*
G01X0044718Y-068355D01*
G01X0044718Y-068355D02*
G01X0044718Y-068130D01*
G01X0044718Y-068130D02*
G01X0044662Y-068018D01*
G01X0044662Y-068018D02*
G01X0044606Y-067961D01*
G01X0044606Y-067961D02*
G01X0044493Y-067905D01*
G01X0045168Y-067399D02*
G01X0045168Y-067624D01*
G01X0045618Y-067399D02*
G01X0045618Y-067624D01*
G01X0047361Y-069030D02*
G01X0047305Y-068974D01*
G01X0047305Y-068974D02*
G01X0047193Y-068805D01*
G01X0047193Y-068805D02*
G01X0047136Y-068693D01*
G01X0047136Y-068693D02*
G01X0047080Y-068524D01*
G01X0047080Y-068524D02*
G01X0047024Y-068243D01*
G01X0047024Y-068243D02*
G01X0047024Y-068018D01*
G01X0047024Y-068018D02*
G01X0047080Y-067736D01*
G01X0047080Y-067736D02*
G01X0047136Y-067568D01*
G01X0047136Y-067568D02*
G01X0047193Y-067455D01*
G01X0047193Y-067455D02*
G01X0047305Y-067286D01*
G01X0047305Y-067286D02*
G01X0047361Y-067230D01*
G01X0047699Y-067399D02*
G01X0048430Y-067399D01*
G01X0048430Y-067399D02*
G01X0048036Y-067849D01*
G01X0048036Y-067849D02*
G01X0048205Y-067849D01*
G01X0048205Y-067849D02*
G01X0048318Y-067905D01*
G01X0048318Y-067905D02*
G01X0048374Y-067961D01*
G01X0048374Y-067961D02*
G01X0048430Y-068074D01*
G01X0048430Y-068074D02*
G01X0048430Y-068355D01*
G01X0048430Y-068355D02*
G01X0048374Y-068468D01*
G01X0048374Y-068468D02*
G01X0048318Y-068524D01*
G01X0048318Y-068524D02*
G01X0048205Y-068580D01*
G01X0048205Y-068580D02*
G01X0047868Y-068580D01*
G01X0047868Y-068580D02*
G01X0047755Y-068524D01*
G01X0047755Y-068524D02*
G01X0047699Y-068468D01*
G01X0049836Y-068580D02*
G01X0049836Y-067399D01*
G01X0050342Y-068580D02*
G01X0050342Y-067961D01*
G01X0050342Y-067961D02*
G01X0050286Y-067849D01*
G01X0050286Y-067849D02*
G01X0050174Y-067793D01*
G01X0050174Y-067793D02*
G01X0050005Y-067793D01*
G01X0050005Y-067793D02*
G01X0049892Y-067849D01*
G01X0049892Y-067849D02*
G01X0049836Y-067905D01*
G01X0051073Y-068580D02*
G01X0050961Y-068524D01*
G01X0050961Y-068524D02*
G01X0050905Y-068468D01*
G01X0050905Y-068468D02*
G01X0050849Y-068355D01*
G01X0050849Y-068355D02*
G01X0050849Y-068018D01*
G01X0050849Y-068018D02*
G01X0050905Y-067905D01*
G01X0050905Y-067905D02*
G01X0050961Y-067849D01*
G01X0050961Y-067849D02*
G01X0051073Y-067793D01*
G01X0051073Y-067793D02*
G01X0051242Y-067793D01*
G01X0051242Y-067793D02*
G01X0051355Y-067849D01*
G01X0051355Y-067849D02*
G01X0051411Y-067905D01*
G01X0051411Y-067905D02*
G01X0051467Y-068018D01*
G01X0051467Y-068018D02*
G01X0051467Y-068355D01*
G01X0051467Y-068355D02*
G01X0051411Y-068468D01*
G01X0051411Y-068468D02*
G01X0051355Y-068524D01*
G01X0051355Y-068524D02*
G01X0051242Y-068580D01*
G01X0051242Y-068580D02*
G01X0051073Y-068580D01*
G01X0052142Y-068580D02*
G01X0052030Y-068524D01*
G01X0052030Y-068524D02*
G01X0051973Y-068411D01*
G01X0051973Y-068411D02*
G01X0051973Y-067399D01*
G01X0053042Y-068524D02*
G01X0052930Y-068580D01*
G01X0052930Y-068580D02*
G01X0052705Y-068580D01*
G01X0052705Y-068580D02*
G01X0052592Y-068524D01*
G01X0052592Y-068524D02*
G01X0052536Y-068411D01*
G01X0052536Y-068411D02*
G01X0052536Y-067961D01*
G01X0052536Y-067961D02*
G01X0052592Y-067849D01*
G01X0052592Y-067849D02*
G01X0052705Y-067793D01*
G01X0052705Y-067793D02*
G01X0052930Y-067793D01*
G01X0052930Y-067793D02*
G01X0053042Y-067849D01*
G01X0053042Y-067849D02*
G01X0053098Y-067961D01*
G01X0053098Y-067961D02*
G01X0053098Y-068074D01*
G01X0053098Y-068074D02*
G01X0052536Y-068186D01*
G01X0053548Y-068524D02*
G01X0053661Y-068580D01*
G01X0053661Y-068580D02*
G01X0053886Y-068580D01*
G01X0053886Y-068580D02*
G01X0053998Y-068524D01*
G01X0053998Y-068524D02*
G01X0054054Y-068411D01*
G01X0054054Y-068411D02*
G01X0054054Y-068355D01*
G01X0054054Y-068355D02*
G01X0053998Y-068243D01*
G01X0053998Y-068243D02*
G01X0053886Y-068186D01*
G01X0053886Y-068186D02*
G01X0053717Y-068186D01*
G01X0053717Y-068186D02*
G01X0053604Y-068130D01*
G01X0053604Y-068130D02*
G01X0053548Y-068018D01*
G01X0053548Y-068018D02*
G01X0053548Y-067961D01*
G01X0053548Y-067961D02*
G01X0053604Y-067849D01*
G01X0053604Y-067849D02*
G01X0053717Y-067793D01*
G01X0053717Y-067793D02*
G01X0053886Y-067793D01*
G01X0053886Y-067793D02*
G01X0053998Y-067849D01*
G01X0054448Y-069030D02*
G01X0054504Y-068974D01*
G01X0054504Y-068974D02*
G01X0054617Y-068805D01*
G01X0054617Y-068805D02*
G01X0054673Y-068693D01*
G01X0054673Y-068693D02*
G01X0054729Y-068524D01*
G01X0054729Y-068524D02*
G01X0054786Y-068243D01*
G01X0054786Y-068243D02*
G01X0054786Y-068018D01*
G01X0054786Y-068018D02*
G01X0054729Y-067736D01*
G01X0054729Y-067736D02*
G01X0054673Y-067568D01*
G01X0054673Y-067568D02*
G01X0054617Y-067455D01*
G01X0054617Y-067455D02*
G01X0054504Y-067286D01*
G01X0054504Y-067286D02*
G01X0054448Y-067230D01*
G01X0000000Y0000000D02*
G54D11*
G01X0060000Y-027000D02*
G01X0059000Y-027000D01*
G01X0060000Y-058000D02*
G01X0060000Y-027000D01*
G01X0029000Y-058000D02*
G01X0060000Y-058000D01*
G01X0029000Y-027000D02*
G01X0029000Y-058000D01*
G01X0059000Y-027000D02*
G01X0029000Y-027000D01*
G01X0000000Y0000000D02*
G54D15*
G01X0046700Y-030300D02*
G75*
G03X0046700Y-030300I-000500J0000000D01*
G01X0045050Y-031100D02*
G01X0045050Y-029500D01*
G01X0047350Y-031100D02*
G01X0045050Y-031100D01*
G01X0047350Y-029500D02*
G01X0047350Y-031100D01*
G01X0045050Y-029500D02*
G01X0047350Y-029500D01*
G01X0047450Y-037000D02*
G01X0041200Y-037000D01*
G01X0068250Y-040250D02*
G01X0068250Y-037250D01*
G01X0070250Y-040250D02*
G01X0068250Y-040250D01*
G01X0070250Y-037250D02*
G01X0070250Y-040250D01*
G01X0068250Y-037250D02*
G01X0070250Y-037250D01*
G01X0042950Y-048500D02*
G01X0042950Y-045000D01*
G01X0048200Y-048500D02*
G01X0042950Y-048500D01*
G01X0048200Y-045000D02*
G01X0048200Y-048500D01*
G01X0042950Y-045000D02*
G01X0048200Y-045000D01*
G01X0041200Y-037000D02*
G01X0041200Y-032500D01*
G01X0047450Y-032500D02*
G01X0047450Y-037000D01*
G01X0041200Y-032500D02*
G01X0047450Y-032500D01*
M02*
