G04 This is an RS-274x file exported by *
G04 gerbv version 2.6.0 *
G04 More information is available about gerbv at *
G04 http://gerbv.gpleda.org/ *
G04 --End of header info--*
%MOIN*%
%FSLAX34Y34*%
%IPPOS*%
G04 --Define apertures--*
%ADD10C,0.0138*%
%ADD11C,0.0016*%
%ADD12C,0.0100*%
%ADD13C,0.0060*%
G04 --Start main section--*
G54D11*
G01X0089511Y-020251D02*
G75*
G02X0093449Y-020251I0001969J-001969D01*
G01X0095319Y-020251D02*
G01X0093449Y-020251D01*
G01X0095319Y-024189D02*
G01X0095319Y-020251D01*
G01X0095319Y-024189D02*
G01X0093449Y-024189D01*
G01X0087641Y-020251D02*
G01X0089511Y-020251D01*
G01X0087641Y-020251D02*
G01X0087641Y-024189D01*
G01X0087641Y-024189D02*
G01X0089511Y-024189D01*
G01X0093449Y-024189D02*
G75*
G02X0089511Y-024189I-001969J0001969D01*
G54D12*
G01X0092436Y-022164D02*
G01X0092324Y-022201D01*
G01X0092324Y-022201D02*
G01X0092286Y-022239D01*
G01X0092286Y-022239D02*
G01X0092249Y-022314D01*
G01X0092249Y-022314D02*
G01X0092249Y-022426D01*
G01X0092249Y-022426D02*
G01X0092286Y-022501D01*
G01X0092286Y-022501D02*
G01X0092324Y-022539D01*
G01X0092324Y-022539D02*
G01X0092399Y-022576D01*
G01X0092399Y-022576D02*
G01X0092699Y-022576D01*
G01X0092699Y-022576D02*
G01X0092699Y-021789D01*
G01X0092699Y-021789D02*
G01X0092436Y-021789D01*
G01X0092436Y-021789D02*
G01X0092361Y-021826D01*
G01X0092361Y-021826D02*
G01X0092324Y-021864D01*
G01X0092324Y-021864D02*
G01X0092286Y-021939D01*
G01X0092286Y-021939D02*
G01X0092286Y-022014D01*
G01X0092286Y-022014D02*
G01X0092324Y-022089D01*
G01X0092324Y-022089D02*
G01X0092361Y-022126D01*
G01X0092361Y-022126D02*
G01X0092436Y-022164D01*
G01X0092436Y-022164D02*
G01X0092699Y-022164D01*
G01X0091949Y-022351D02*
G01X0091574Y-022351D01*
G01X0092024Y-022576D02*
G01X0091761Y-021789D01*
G01X0091761Y-021789D02*
G01X0091499Y-022576D01*
G01X0091349Y-021789D02*
G01X0090899Y-021789D01*
G01X0091124Y-022576D02*
G01X0091124Y-021789D01*
G01X0090224Y-022576D02*
G01X0090674Y-022576D01*
G01X0090449Y-022576D02*
G01X0090449Y-021789D01*
G01X0090449Y-021789D02*
G01X0090524Y-021901D01*
G01X0090524Y-021901D02*
G01X0090599Y-021976D01*
G01X0090599Y-021976D02*
G01X0090674Y-022014D01*
G01X0000000Y0000000D02*
G54D13*
G01X0067008Y-016456D02*
G75*
G03X0066004Y-017524I0000000J-001006D01*
G01X0097750Y-017500D02*
G01X0097750Y-037750D01*
G01X0096750Y-038752D02*
G75*
G03X0097750Y-037695I0000000J0001002D01*
G01X0067057Y-038750D02*
G01X0096807Y-038750D01*
G01X0066000Y-037750D02*
G75*
G03X0067057Y-038750I0001002J0000000D01*
G01X0097745Y-017500D02*
G75*
G03X0096805Y-016461I-000940J0000094D01*
G01X0066000Y-037750D02*
G01X0066000Y-017350D01*
G01X0067008Y-016461D02*
G01X0096850Y-016461D01*
M02*
