G04 This is an RS-274x file exported by *
G04 gerbv version 2.6.0 *
G04 More information is available about gerbv at *
G04 http://gerbv.gpleda.org/ *
G04 --End of header info--*
%MOIN*%
%FSLAX34Y34*%
%IPPOS*%
G04 --Define apertures--*
%ADD10C,0.0138*%
%ADD11C,0.0016*%
%ADD12C,0.0100*%
%ADD13C,0.0060*%
G04 --Start main section--*
G54D11*
G01X0030181Y-032581D02*
G75*
G02X0034119Y-032581I0001969J-001969D01*
G01X0035989Y-032581D02*
G01X0034119Y-032581D01*
G01X0035989Y-036519D02*
G01X0035989Y-032581D01*
G01X0035989Y-036519D02*
G01X0034119Y-036519D01*
G01X0028311Y-032581D02*
G01X0030181Y-032581D01*
G01X0028311Y-032581D02*
G01X0028311Y-036519D01*
G01X0028311Y-036519D02*
G01X0030181Y-036519D01*
G01X0034119Y-036519D02*
G75*
G02X0030181Y-036519I-001969J0001969D01*
G54D12*
G01X0033106Y-034494D02*
G01X0032994Y-034531D01*
G01X0032994Y-034531D02*
G01X0032956Y-034569D01*
G01X0032956Y-034569D02*
G01X0032919Y-034644D01*
G01X0032919Y-034644D02*
G01X0032919Y-034756D01*
G01X0032919Y-034756D02*
G01X0032956Y-034831D01*
G01X0032956Y-034831D02*
G01X0032994Y-034869D01*
G01X0032994Y-034869D02*
G01X0033069Y-034906D01*
G01X0033069Y-034906D02*
G01X0033369Y-034906D01*
G01X0033369Y-034906D02*
G01X0033369Y-034119D01*
G01X0033369Y-034119D02*
G01X0033106Y-034119D01*
G01X0033106Y-034119D02*
G01X0033031Y-034156D01*
G01X0033031Y-034156D02*
G01X0032994Y-034194D01*
G01X0032994Y-034194D02*
G01X0032956Y-034269D01*
G01X0032956Y-034269D02*
G01X0032956Y-034344D01*
G01X0032956Y-034344D02*
G01X0032994Y-034419D01*
G01X0032994Y-034419D02*
G01X0033031Y-034456D01*
G01X0033031Y-034456D02*
G01X0033106Y-034494D01*
G01X0033106Y-034494D02*
G01X0033369Y-034494D01*
G01X0032619Y-034681D02*
G01X0032244Y-034681D01*
G01X0032694Y-034906D02*
G01X0032431Y-034119D01*
G01X0032431Y-034119D02*
G01X0032169Y-034906D01*
G01X0032019Y-034119D02*
G01X0031569Y-034119D01*
G01X0031794Y-034906D02*
G01X0031794Y-034119D01*
G01X0030894Y-034906D02*
G01X0031344Y-034906D01*
G01X0031119Y-034906D02*
G01X0031119Y-034119D01*
G01X0031119Y-034119D02*
G01X0031194Y-034231D01*
G01X0031194Y-034231D02*
G01X0031269Y-034306D01*
G01X0031269Y-034306D02*
G01X0031344Y-034344D01*
G01X0000000Y0000000D02*
G54D13*
G01X0010168Y-016586D02*
G75*
G03X0009164Y-017654I0000000J-001006D01*
G01X0040910Y-017630D02*
G01X0040910Y-037880D01*
G01X0039910Y-038882D02*
G75*
G03X0040910Y-037825I0000000J0001002D01*
G01X0010217Y-038880D02*
G01X0039967Y-038880D01*
G01X0009160Y-037880D02*
G75*
G03X0010217Y-038880I0001002J0000000D01*
G01X0040905Y-017630D02*
G75*
G03X0039965Y-016591I-000940J0000094D01*
G01X0009160Y-037880D02*
G01X0009160Y-017480D01*
G01X0010168Y-016591D02*
G01X0040010Y-016591D01*
M02*
