M48
;DRILL file {KiCad 4.0.5-e0-6337~49~ubuntu16.04.1} date Thu Aug  3 12:45:45 2017
;FORMAT={-:-/ absolute / metric / decimal}
FMAT,2
METRIC,TZ
T1C0.330
T2C0.762
T3C0.800
T4C1.016
T5C1.200
T6C3.000
%
G90
G05
M71
T1
X171.638Y-87.287
X173.645Y-90.462
X176.367Y-56.843
X176.467Y-63.443
X177.367Y-63.943
X178.397Y-92.191
X179.172Y-89.865
X180.823Y-84.62
X183.562Y-84.418
X184.655Y-89.839
X187.259Y-89.865
X189.846Y-48.9
X190.Y-46.31
X190.Y-47.06
X190.906Y-65.227
X190.95Y-47.06
X190.966Y-46.31
X191.584Y-48.905
X191.734Y-59.049
X191.795Y-90.208
X192.728Y-44.214
X192.76Y-45.095
X192.76Y-45.893
X192.766Y-47.861
X192.797Y-49.953
X193.396Y-67.716
X193.584Y-59.049
X193.814Y-48.892
X193.954Y-87.541
X194.683Y-51.681
X194.706Y-50.65
X195.148Y-92.812
X195.656Y-89.281
X196.831Y-67.688
X196.966Y-70.678
X197.771Y-67.688
X198.412Y-92.934
X199.06Y-88.163
X199.628Y-71.478
X200.938Y-70.014
X201.93Y-86.957
X202.42Y-48.994
X202.42Y-50.289
X202.463Y-51.625
X202.698Y-69.742
X204.241Y-65.418
X204.241Y-66.137
X205.613Y-69.576
X206.515Y-88.811
X207.264Y-85.852
X208.269Y-71.059
X209.575Y-73.827
X210.045Y-88.303
X210.147Y-92.138
X211.023Y-73.674
X211.226Y-57.037
X211.567Y-71.78
X211.597Y-62.737
X211.775Y-68.937
X212.275Y-60.237
X212.509Y-93.396
X212.636Y-88.633
X212.675Y-71.937
X212.775Y-68.937
X213.157Y-64.198
X213.157Y-65.138
X213.675Y-71.937
X213.875Y-68.937
X215.616Y-88.608
X216.366Y-47.155
X216.366Y-48.019
X216.899Y-46.317
X217.106Y-88.786
X217.175Y-63.617
X217.28Y-47.18
X217.28Y-48.044
X219.195Y-45.453
X219.275Y-63.641
X219.278Y-62.168
X219.875Y-57.937
X220.256Y-88.837
X221.477Y-66.233
X222.288Y-88.837
X222.792Y-45.425
X223.063Y-88.049
X226.704Y-45.425
X226.898Y-89.954
X230.412Y-45.453
X235.505Y-92.465
X235.712Y-88.392
X236.817Y-91.732
X237.02Y-88.837
T2
X244.602Y-52.832
X244.602Y-55.372
X244.602Y-57.912
X244.602Y-60.452
X244.602Y-62.992
X244.602Y-65.532
X244.602Y-68.072
X244.602Y-70.612
X244.602Y-73.152
X244.602Y-75.692
X244.602Y-78.232
X244.602Y-80.772
X244.602Y-83.312
X244.602Y-85.852
X244.602Y-88.392
X244.602Y-90.932
T3
X182.31Y-69.4
X184.81Y-69.4
X227.891Y-67.339
X232.771Y-67.339
T4
X172.11Y-68.13
X172.11Y-70.67
X174.14Y-81.445
X176.68Y-81.445
X179.22Y-81.445
X181.76Y-81.445
X184.3Y-81.445
X186.84Y-81.445
X187.358Y-54.516
X199.796Y-55.575
X199.796Y-58.115
X202.336Y-55.575
X202.336Y-58.115
X204.876Y-55.575
X204.876Y-58.115
X235.19Y-81.955
X237.73Y-81.955
T5
X169.571Y-57.406
X169.571Y-64.506
T6
X175.753Y-47.688
X178.752Y-52.387
X181.752Y-47.688
T0
M30
