%TF.GenerationSoftware,KiCad,Pcbnew,4.0.5-e0-6337~49~ubuntu16.04.1*%
%TF.CreationDate,2017-08-14T14:24:33-07:00*%
%TF.ProjectId,mcphail-main-board,6D63706861696C2D6D61696E2D626F61,1.0*%
%TF.FileFunction,Copper,L2,Bot,Signal*%
%FSLAX46Y46*%
G04 Gerber Fmt 4.6, Leading zero omitted, Abs format (unit mm)*
G04 Created by KiCad (PCBNEW 4.0.5-e0-6337~49~ubuntu16.04.1) date Mon Aug 14 14:24:33 2017*
%MOMM*%
%LPD*%
G01*
G04 APERTURE LIST*
%ADD10C,0.350000*%
%ADD11C,1.524000*%
%ADD12R,2.032000X1.727200*%
%ADD13O,2.032000X1.727200*%
%ADD14C,1.600000*%
%ADD15C,1.727200*%
%ADD16R,2.500000X5.100000*%
%ADD17C,10.200000*%
%ADD18R,2.032000X2.032000*%
%ADD19O,2.032000X2.032000*%
%ADD20C,1.200000*%
%ADD21C,4.000000*%
%ADD22R,1.727200X1.727200*%
%ADD23O,1.727200X1.727200*%
%ADD24C,0.685800*%
%ADD25C,0.254000*%
%ADD26C,0.330200*%
%ADD27C,0.330200*%
%ADD28C,0.350000*%
G04 APERTURE END LIST*
D10*
D11*
X100126800Y-53111400D03*
X100126800Y-55651400D03*
X100126800Y-58191400D03*
X100126800Y-60731400D03*
X100126800Y-63271400D03*
X100126800Y-65811400D03*
X100126800Y-68351400D03*
X100126800Y-70891400D03*
X100126800Y-73431400D03*
X100126800Y-75971400D03*
X100126800Y-78511400D03*
X100126800Y-81051400D03*
X100126800Y-83591400D03*
X100126800Y-86131400D03*
X100126800Y-88671400D03*
X100126800Y-91211400D03*
D12*
X52730400Y-93865700D03*
D13*
X52730400Y-91325700D03*
X52730400Y-88785700D03*
X52730400Y-86245700D03*
X52730400Y-83705700D03*
X52730400Y-81165700D03*
D14*
X92481400Y-86182200D03*
X92481400Y-83682200D03*
D15*
X50038000Y-51993800D03*
D16*
X89311000Y-87757000D03*
X74011000Y-87757000D03*
D17*
X81661000Y-87757000D03*
D18*
X62179200Y-95669100D03*
D19*
X59639200Y-95669100D03*
D18*
X91294800Y-93662900D03*
D19*
X93834800Y-93662900D03*
D20*
X25298798Y-53266118D03*
X25298798Y-60366118D03*
D21*
X37896940Y-46788400D03*
X31897460Y-46788400D03*
X34897200Y-51487400D03*
D14*
X90957400Y-76711200D03*
X90957400Y-71831200D03*
D22*
X65176400Y-57988200D03*
D23*
X65176400Y-60528200D03*
X62636400Y-57988200D03*
X62636400Y-60528200D03*
X60096400Y-57988200D03*
X60096400Y-60528200D03*
D24*
X69392800Y-92887800D03*
X85648800Y-80566200D03*
X77165200Y-92176600D03*
X74269600Y-83261200D03*
X71043800Y-81534000D03*
X77241400Y-81508600D03*
X67335400Y-79425800D03*
X81254600Y-54051200D03*
X79832200Y-47040800D03*
X79832200Y-47980600D03*
X35102800Y-59232800D03*
X45008800Y-47244000D03*
X93446600Y-45847000D03*
X93878400Y-50749200D03*
X84785200Y-53924200D03*
X72999600Y-52171600D03*
X95681800Y-76657200D03*
X95681800Y-72669400D03*
X67411600Y-67157600D03*
X69875400Y-69494400D03*
X69809898Y-74117200D03*
X90601800Y-65201800D03*
X79044800Y-66192400D03*
X83540600Y-57734200D03*
X79806800Y-57200800D03*
X67589400Y-87122000D03*
X67716400Y-97409000D03*
X67665600Y-91389200D03*
X85902800Y-92100400D03*
X85039200Y-82778600D03*
X88239600Y-79425800D03*
X88442800Y-65201800D03*
X82854800Y-67741800D03*
X81991200Y-71247000D03*
X67411600Y-76377800D03*
X79654400Y-59461400D03*
X77978000Y-66217800D03*
X72186800Y-60223400D03*
X69748400Y-60247400D03*
X60604400Y-52857400D03*
X66344800Y-53975000D03*
X65176400Y-51485800D03*
X89560400Y-45897800D03*
X91795600Y-57429400D03*
X93980000Y-53771800D03*
X84175600Y-52146200D03*
X75387200Y-52146200D03*
X78994000Y-51347340D03*
X80670400Y-51347340D03*
X85801200Y-45847000D03*
X58521600Y-46101000D03*
X52781200Y-52603400D03*
X56083200Y-48861322D03*
X57454800Y-51093020D03*
X56733140Y-51485800D03*
X54660800Y-50093020D03*
X69482400Y-76276200D03*
X32092900Y-59258200D03*
X30505400Y-52781200D03*
X97840800Y-93141800D03*
X54952900Y-88071661D03*
X29972000Y-74396600D03*
X25755600Y-74396600D03*
X36410890Y-77457300D03*
X31732029Y-87868461D03*
X62313629Y-88668561D03*
X62110429Y-91564161D03*
X39352029Y-88071661D03*
X41384029Y-88071661D03*
X45974000Y-72745600D03*
X49784000Y-67589400D03*
X65684400Y-97536000D03*
X65608200Y-91516200D03*
X65684400Y-94742000D03*
X38531800Y-79375000D03*
X63627000Y-78409800D03*
X33528000Y-92633800D03*
X33731200Y-88112600D03*
X60992919Y-88566971D03*
X65582800Y-76530200D03*
X60096400Y-66370200D03*
X63925758Y-66846758D03*
X64477900Y-83007200D03*
X65366900Y-82308700D03*
X58699400Y-92849700D03*
X58762900Y-91833700D03*
X58829917Y-81246590D03*
X39268400Y-78054200D03*
X51003200Y-75819000D03*
X48514000Y-68453000D03*
X29268239Y-91373661D03*
X46238156Y-74230914D03*
X59852556Y-73634014D03*
X57249056Y-73608614D03*
X37680900Y-64897000D03*
X37058600Y-70002400D03*
X45994129Y-89189261D03*
X36202429Y-88020861D03*
X31605029Y-92631661D03*
X29141229Y-87538261D03*
X60798229Y-92297161D03*
X32258000Y-66776600D03*
X32288198Y-69354700D03*
X36118800Y-81457800D03*
X36118800Y-80391000D03*
X35013900Y-62738000D03*
X35941000Y-66598800D03*
X76022200Y-65368056D03*
X75590400Y-56692800D03*
X77997400Y-56718200D03*
X69291200Y-70764400D03*
X86766400Y-82321411D03*
X72898000Y-68808600D03*
X86766400Y-75514200D03*
X59842400Y-65252600D03*
X61722000Y-78968600D03*
X63461900Y-81241900D03*
X72644000Y-61391800D03*
X70789800Y-62890400D03*
X70662800Y-65201800D03*
X53409838Y-50114200D03*
X56134000Y-47472600D03*
X63677800Y-69621400D03*
X63677800Y-73533000D03*
X61112400Y-74434700D03*
X63144400Y-71750400D03*
X64770000Y-79768700D03*
X64871600Y-72898000D03*
X62560200Y-76301600D03*
X63525400Y-84785200D03*
X56286400Y-80276700D03*
X59080400Y-80264000D03*
X62517256Y-77266800D03*
X65684400Y-79260700D03*
X69850000Y-71399400D03*
X89662000Y-69342000D03*
X81686400Y-69240400D03*
X76022200Y-71297800D03*
X85109554Y-69507110D03*
X84886800Y-67640200D03*
X72593200Y-71805800D03*
X84988400Y-75361800D03*
X79324768Y-71491858D03*
X85649233Y-69970326D03*
X83542176Y-70105905D03*
X85648800Y-68059290D03*
X71305208Y-71755000D03*
X82956400Y-75361800D03*
X80467200Y-75565000D03*
X71120000Y-70637400D03*
X69494400Y-67411600D03*
X70764400Y-66370200D03*
X70764400Y-67259200D03*
X71780400Y-66370200D03*
X79451200Y-80391000D03*
X81610200Y-72415400D03*
X79222600Y-62128400D03*
X72212200Y-62915800D03*
X80010000Y-65278000D03*
X77876400Y-63525400D03*
X82727800Y-66471800D03*
X75844400Y-63601600D03*
X72313800Y-65354200D03*
X79044800Y-63144400D03*
X54508400Y-69164200D03*
X54457600Y-73685400D03*
X98501200Y-81889600D03*
X81635600Y-82169000D03*
X75869800Y-70256400D03*
X77942970Y-70248468D03*
X80619600Y-81762600D03*
D25*
X74011000Y-87757000D02*
X74011000Y-92451400D01*
X74011000Y-92451400D02*
X75692000Y-94132400D01*
X75692000Y-94132400D02*
X85979000Y-94132400D01*
X85979000Y-94132400D02*
X89311000Y-90800400D01*
X89311000Y-90800400D02*
X89311000Y-87757000D01*
X85648800Y-80566200D02*
X85648800Y-82794800D01*
X89311000Y-86457000D02*
X89311000Y-87757000D01*
X85648800Y-82794800D02*
X89311000Y-86457000D01*
X81661000Y-87757000D02*
X76561001Y-82657001D01*
X76561001Y-82657001D02*
X76561001Y-82188999D01*
X76561001Y-82188999D02*
X76898501Y-81851499D01*
X76898501Y-81851499D02*
X77241400Y-81508600D01*
X81661000Y-87757000D02*
X81584800Y-87757000D01*
X81584800Y-87757000D02*
X77165200Y-92176600D01*
X67360800Y-66621867D02*
X67360800Y-66294000D01*
X67411600Y-67157600D02*
X67411600Y-66672667D01*
X67411600Y-66672667D02*
X67360800Y-66621867D01*
X70485000Y-70231000D02*
X70485000Y-70104000D01*
X70485000Y-70104000D02*
X69875400Y-69494400D01*
X70485000Y-71780400D02*
X70485000Y-70231000D01*
X69809898Y-72455502D02*
X70485000Y-71780400D01*
X69809898Y-74117200D02*
X69809898Y-72455502D01*
X77825600Y-66217800D02*
X79019400Y-66217800D01*
X79019400Y-66217800D02*
X79044800Y-66192400D01*
X81661000Y-87858600D02*
X85902800Y-92100400D01*
X81508600Y-87757000D02*
X77368400Y-91897200D01*
X81661000Y-86156800D02*
X85039200Y-82778600D01*
D26*
X67411600Y-76377800D02*
X69380800Y-76377800D01*
X69380800Y-76377800D02*
X69482400Y-76276200D01*
X70307200Y-96443800D02*
X94538800Y-96443800D01*
X94538800Y-96443800D02*
X97840800Y-93141800D01*
X67106800Y-93243400D02*
X70307200Y-96443800D01*
X64770000Y-93243400D02*
X67106800Y-93243400D01*
X63090761Y-91564161D02*
X64770000Y-93243400D01*
X62110429Y-91564161D02*
X63090761Y-91564161D01*
D25*
X54952900Y-88071661D02*
X54333439Y-87452200D01*
X54333439Y-87452200D02*
X42003490Y-87452200D01*
X42003490Y-87452200D02*
X41384029Y-88071661D01*
X32468629Y-88605061D02*
X31732029Y-87868461D01*
X62313629Y-88315800D02*
X62069490Y-88071661D01*
X54952900Y-88071661D02*
X62069490Y-88071661D01*
X62313629Y-88315800D02*
X62313629Y-88668561D01*
X35001200Y-74396600D02*
X29972000Y-74396600D01*
X36410890Y-75806290D02*
X35001200Y-74396600D01*
X36410890Y-77457300D02*
X36410890Y-75806290D01*
X33294140Y-89430572D02*
X32468629Y-88605061D01*
X37993118Y-89430572D02*
X33294140Y-89430572D01*
X39352029Y-88071661D02*
X37993118Y-89430572D01*
X60798229Y-92297161D02*
X59353361Y-92297161D01*
X32258000Y-66776600D02*
X32258000Y-69324502D01*
X32258000Y-69324502D02*
X32288198Y-69354700D01*
X32410400Y-69354700D02*
X32288198Y-69354700D01*
X36118800Y-80391000D02*
X36118800Y-81457800D01*
X35941000Y-66598800D02*
X35941000Y-63665100D01*
X35941000Y-63665100D02*
X35013900Y-62738000D01*
X76022200Y-65368056D02*
X76022200Y-67716400D01*
X76022200Y-67716400D02*
X74930000Y-68808600D01*
X77997400Y-56718200D02*
X75615800Y-56718200D01*
X75615800Y-56718200D02*
X75590400Y-56692800D01*
X69291200Y-70764400D02*
X69291200Y-68808600D01*
X86766400Y-75514200D02*
X86766400Y-82321411D01*
X73558400Y-68808600D02*
X74930000Y-68808600D01*
X72898000Y-68808600D02*
X73558400Y-68808600D01*
X68122800Y-68808600D02*
X69291200Y-68808600D01*
X69291200Y-68808600D02*
X72898000Y-68808600D01*
X64566800Y-65252600D02*
X68122800Y-68808600D01*
X59842400Y-65252600D02*
X64566800Y-65252600D01*
X63461900Y-81241900D02*
X61722000Y-79502000D01*
X61722000Y-79502000D02*
X61722000Y-78968600D01*
X72110600Y-61569600D02*
X72466200Y-61569600D01*
X72466200Y-61569600D02*
X72644000Y-61391800D01*
X70789800Y-62890400D02*
X72110600Y-61569600D01*
X65328800Y-62204600D02*
X61772800Y-62204600D01*
X61772800Y-62204600D02*
X60096400Y-60528200D01*
X68326000Y-65201800D02*
X65328800Y-62204600D01*
X70662800Y-65201800D02*
X68326000Y-65201800D01*
D26*
X56134000Y-47472600D02*
X53492400Y-50114200D01*
X53492400Y-50114200D02*
X53409838Y-50114200D01*
D25*
X63677800Y-73533000D02*
X63677800Y-69621400D01*
X60985400Y-73909400D02*
X60985400Y-74307700D01*
X60985400Y-74307700D02*
X61112400Y-74434700D01*
X63144400Y-71750400D02*
X60985400Y-73909400D01*
X64871600Y-72898000D02*
X64871600Y-79667100D01*
X64871600Y-79667100D02*
X64770000Y-79768700D01*
X59207400Y-79654400D02*
X56908700Y-79654400D01*
X56908700Y-79654400D02*
X56286400Y-80276700D01*
X62560200Y-76301600D02*
X59207400Y-79654400D01*
X56286400Y-83007200D02*
X58064400Y-84785200D01*
X58064400Y-84785200D02*
X63525400Y-84785200D01*
X56286400Y-80276700D02*
X56286400Y-83007200D01*
X62064901Y-77609699D02*
X59410600Y-80264000D01*
X59410600Y-80264000D02*
X59080400Y-80264000D01*
X62517256Y-77266800D02*
X62174357Y-77609699D01*
X62174357Y-77609699D02*
X62064901Y-77609699D01*
X66751200Y-74498200D02*
X66751200Y-78193900D01*
X66751200Y-78193900D02*
X65684400Y-79260700D01*
X69850000Y-71399400D02*
X66751200Y-74498200D01*
X87096600Y-68478400D02*
X87960200Y-69342000D01*
X87960200Y-69342000D02*
X89662000Y-69342000D01*
X87096600Y-67462400D02*
X87096600Y-68478400D01*
X86309200Y-66675000D02*
X87096600Y-67462400D01*
X84455000Y-66675000D02*
X86309200Y-66675000D01*
X84074000Y-67056000D02*
X84455000Y-66675000D01*
X84074000Y-67614800D02*
X84074000Y-67056000D01*
X82791299Y-68897501D02*
X84074000Y-67614800D01*
X81686400Y-69240400D02*
X82029299Y-68897501D01*
X82029299Y-68897501D02*
X82791299Y-68897501D01*
X75514200Y-71805800D02*
X76022200Y-71297800D01*
X72593200Y-71805800D02*
X75514200Y-71805800D01*
X84886800Y-69284356D02*
X85109554Y-69507110D01*
X84988400Y-69628264D02*
X85109554Y-69507110D01*
X84988400Y-75361800D02*
X84988400Y-69628264D01*
X84886800Y-67640200D02*
X84886800Y-69284356D01*
X79324768Y-71491858D02*
X79324768Y-70918644D01*
X79324768Y-70918644D02*
X77836633Y-69430509D01*
X77836633Y-69430509D02*
X77500444Y-69430509D01*
X77500444Y-69430509D02*
X77169854Y-69761099D01*
X77169854Y-69761099D02*
X73299109Y-69761099D01*
X73299109Y-69761099D02*
X71305208Y-71755000D01*
X82956400Y-75361800D02*
X82956400Y-70691681D01*
X82956400Y-70691681D02*
X83199277Y-70448804D01*
X85648800Y-68059290D02*
X85648800Y-69969893D01*
X83199277Y-70448804D02*
X83542176Y-70105905D01*
X85648800Y-69969893D02*
X85649233Y-69970326D01*
X72938446Y-69303887D02*
X76936600Y-69303887D01*
X78054200Y-69011800D02*
X77228687Y-69011800D01*
X77228687Y-69011800D02*
X76936600Y-69303887D01*
X78191165Y-69148765D02*
X78054200Y-69011800D01*
X78191165Y-69151098D02*
X78191165Y-69148765D01*
X78191165Y-69151098D02*
X78740000Y-69699933D01*
X71604933Y-70637400D02*
X72938446Y-69303887D01*
X71120000Y-70637400D02*
X71604933Y-70637400D01*
X79123333Y-69699933D02*
X80162400Y-70739000D01*
X80162400Y-70739000D02*
X80162400Y-71399400D01*
X78740000Y-69699933D02*
X79123333Y-69699933D01*
X80162400Y-71399400D02*
X80162400Y-71653400D01*
X80162400Y-75260200D02*
X80467200Y-75565000D01*
X80162400Y-71399400D02*
X80162400Y-75260200D01*
X78740000Y-69699933D02*
X78869333Y-69699933D01*
X69494400Y-67411600D02*
X69723000Y-67411600D01*
X69723000Y-67411600D02*
X69875400Y-67259200D01*
X70764400Y-66370200D02*
X69875400Y-67259200D01*
X71780400Y-66370200D02*
X71653400Y-66370200D01*
X71653400Y-66370200D02*
X70764400Y-67259200D01*
X81610200Y-78486000D02*
X79705200Y-80391000D01*
X79705200Y-80391000D02*
X79451200Y-80391000D01*
X81610200Y-72415400D02*
X81610200Y-78486000D01*
X72999600Y-62128400D02*
X72491600Y-62636400D01*
X72491600Y-62636400D02*
X72409772Y-62718228D01*
X72212200Y-62915800D02*
X72491600Y-62636400D01*
X79222600Y-62128400D02*
X72999600Y-62128400D01*
X80010000Y-65278000D02*
X81203800Y-66471800D01*
X81203800Y-66471800D02*
X82727800Y-66471800D01*
X77876400Y-63525400D02*
X75920600Y-63525400D01*
X75920600Y-63525400D02*
X75844400Y-63601600D01*
X72313800Y-65354200D02*
X72313800Y-64135002D01*
X72313800Y-64135002D02*
X73647301Y-62801501D01*
X78701901Y-62801501D02*
X73647301Y-62801501D01*
X79044800Y-63144400D02*
X78701901Y-62801501D01*
X54457600Y-73685400D02*
X54457600Y-69215000D01*
X54457600Y-69215000D02*
X54508400Y-69164200D01*
X98501200Y-81889600D02*
X98501200Y-80137000D01*
X98501200Y-80137000D02*
X100126800Y-78511400D01*
X79705200Y-82321400D02*
X81483200Y-82321400D01*
X81483200Y-82321400D02*
X81635600Y-82169000D01*
X77444600Y-80060800D02*
X79705200Y-82321400D01*
X77444600Y-71346267D02*
X77444600Y-80060800D01*
X76354733Y-70256400D02*
X77444600Y-71346267D01*
X75869800Y-70256400D02*
X76354733Y-70256400D01*
X80619600Y-81762600D02*
X79883000Y-81762600D01*
X79883000Y-81762600D02*
X77942970Y-79822570D01*
X77942970Y-70733401D02*
X77942970Y-70248468D01*
X77942970Y-79822570D02*
X77942970Y-70733401D01*
G36*
X34185360Y-62183341D02*
X34036170Y-62542630D01*
X34035831Y-62931663D01*
X34184393Y-63291212D01*
X34459241Y-63566540D01*
X34818530Y-63715730D01*
X34914083Y-63715813D01*
X35179000Y-63980731D01*
X35179000Y-65977717D01*
X35112460Y-66044141D01*
X34963270Y-66403430D01*
X34962931Y-66792463D01*
X35111493Y-67152012D01*
X35386341Y-67427340D01*
X35745630Y-67576530D01*
X36134663Y-67576869D01*
X36494212Y-67428307D01*
X36769540Y-67153459D01*
X36918730Y-66794170D01*
X36919069Y-66405137D01*
X36770507Y-66045588D01*
X36703000Y-65977963D01*
X36703000Y-63665100D01*
X36644996Y-63373495D01*
X36590016Y-63291212D01*
X36479815Y-63126284D01*
X35991887Y-62638357D01*
X35991969Y-62544337D01*
X35843407Y-62184788D01*
X35711050Y-62052200D01*
X45999400Y-62052200D01*
X45999400Y-65735200D01*
X46009406Y-65784610D01*
X46037847Y-65826235D01*
X46080241Y-65853515D01*
X46126400Y-65862200D01*
X59069183Y-65862200D01*
X59287741Y-66081140D01*
X59647030Y-66230330D01*
X60036063Y-66230669D01*
X60395612Y-66082107D01*
X60463237Y-66014600D01*
X64251170Y-66014600D01*
X66319400Y-68082831D01*
X66319400Y-73852370D01*
X66212385Y-73959385D01*
X66047204Y-74206595D01*
X65989200Y-74498200D01*
X65989200Y-77878270D01*
X65633600Y-78233870D01*
X65633600Y-73519083D01*
X65700140Y-73452659D01*
X65849330Y-73093370D01*
X65849669Y-72704337D01*
X65701107Y-72344788D01*
X65426259Y-72069460D01*
X65066970Y-71920270D01*
X64677937Y-71919931D01*
X64439800Y-72018327D01*
X64439800Y-70242483D01*
X64506340Y-70176059D01*
X64655530Y-69816770D01*
X64655869Y-69427737D01*
X64507307Y-69068188D01*
X64232459Y-68792860D01*
X63873170Y-68643670D01*
X63484137Y-68643331D01*
X63124588Y-68791893D01*
X62849260Y-69066741D01*
X62700070Y-69426030D01*
X62699731Y-69815063D01*
X62848293Y-70174612D01*
X62915800Y-70242237D01*
X62915800Y-70786767D01*
X62591188Y-70920893D01*
X62315860Y-71195741D01*
X62166670Y-71555030D01*
X62166587Y-71650583D01*
X60446585Y-73370585D01*
X60281404Y-73617795D01*
X60223400Y-73909400D01*
X60223400Y-74025645D01*
X60134670Y-74239330D01*
X60134331Y-74628363D01*
X60282893Y-74987912D01*
X60557741Y-75263240D01*
X60917030Y-75412430D01*
X61306063Y-75412769D01*
X61665612Y-75264207D01*
X61940940Y-74989359D01*
X62090130Y-74630070D01*
X62090469Y-74241037D01*
X61985482Y-73986948D01*
X62746418Y-73226012D01*
X62700070Y-73337630D01*
X62699731Y-73726663D01*
X62848293Y-74086212D01*
X63123141Y-74361540D01*
X63482430Y-74510730D01*
X63871463Y-74511069D01*
X64109600Y-74412673D01*
X64109600Y-79046194D01*
X63941460Y-79214041D01*
X63792270Y-79573330D01*
X63791931Y-79962363D01*
X63940493Y-80321912D01*
X64215341Y-80597240D01*
X64574630Y-80746430D01*
X64963663Y-80746769D01*
X65323212Y-80598207D01*
X65598540Y-80323359D01*
X65633753Y-80238556D01*
X65878063Y-80238769D01*
X66237612Y-80090207D01*
X66319400Y-80008561D01*
X66319400Y-92443300D01*
X65101412Y-92443300D01*
X63656517Y-90998405D01*
X63396946Y-90824965D01*
X63090761Y-90764061D01*
X62693478Y-90764061D01*
X62665088Y-90735621D01*
X62305799Y-90586431D01*
X61916766Y-90586092D01*
X61557217Y-90734654D01*
X61281889Y-91009502D01*
X61132699Y-91368791D01*
X61132360Y-91757824D01*
X61280922Y-92117373D01*
X61555770Y-92392701D01*
X61915059Y-92541891D01*
X62304092Y-92542230D01*
X62663641Y-92393668D01*
X62693099Y-92364261D01*
X62759349Y-92364261D01*
X64204244Y-93809156D01*
X64463815Y-93982596D01*
X64770000Y-94043500D01*
X66319400Y-94043500D01*
X66319400Y-97993200D01*
X25643422Y-97993200D01*
X25207789Y-97931238D01*
X24596951Y-97570058D01*
X24170825Y-97002612D01*
X24151211Y-96926248D01*
X24148144Y-96052046D01*
X58033217Y-96052046D01*
X58302012Y-96637479D01*
X58774382Y-97075485D01*
X59256256Y-97275075D01*
X59512200Y-97155936D01*
X59512200Y-95796100D01*
X58151833Y-95796100D01*
X58033217Y-96052046D01*
X24148144Y-96052046D01*
X24120110Y-88062124D01*
X30753960Y-88062124D01*
X30902522Y-88421673D01*
X31177370Y-88697001D01*
X31536659Y-88846191D01*
X31632212Y-88846274D01*
X31929814Y-89143877D01*
X31929817Y-89143879D01*
X32755325Y-89969387D01*
X33002535Y-90134568D01*
X33294140Y-90192572D01*
X37993118Y-90192572D01*
X38284723Y-90134568D01*
X38531933Y-89969387D01*
X39451673Y-89049648D01*
X39545692Y-89049730D01*
X39905241Y-88901168D01*
X40180569Y-88626320D01*
X40329759Y-88267031D01*
X40329760Y-88265324D01*
X40405960Y-88265324D01*
X40554522Y-88624873D01*
X40829370Y-88900201D01*
X41188659Y-89049391D01*
X41577692Y-89049730D01*
X41937241Y-88901168D01*
X42212569Y-88626320D01*
X42361759Y-88267031D01*
X42361805Y-88214200D01*
X51160733Y-88214200D01*
X51047055Y-88785700D01*
X51161129Y-89359189D01*
X51485985Y-89845370D01*
X51800766Y-90055700D01*
X51485985Y-90266030D01*
X51161129Y-90752211D01*
X51047055Y-91325700D01*
X51161129Y-91899189D01*
X51485985Y-92385370D01*
X51500313Y-92394943D01*
X51479083Y-92398938D01*
X51262959Y-92538010D01*
X51117969Y-92750210D01*
X51066960Y-93002100D01*
X51066960Y-94729300D01*
X51111238Y-94964617D01*
X51250310Y-95180741D01*
X51462510Y-95325731D01*
X51714400Y-95376740D01*
X53746400Y-95376740D01*
X53981717Y-95332462D01*
X54053681Y-95286154D01*
X58033217Y-95286154D01*
X58151833Y-95542100D01*
X59512200Y-95542100D01*
X59512200Y-94182264D01*
X59766200Y-94182264D01*
X59766200Y-95542100D01*
X59786200Y-95542100D01*
X59786200Y-95796100D01*
X59766200Y-95796100D01*
X59766200Y-97155936D01*
X60022144Y-97275075D01*
X60504018Y-97075485D01*
X60601598Y-96985003D01*
X60699110Y-97136541D01*
X60911310Y-97281531D01*
X61163200Y-97332540D01*
X63195200Y-97332540D01*
X63430517Y-97288262D01*
X63646641Y-97149190D01*
X63791631Y-96936990D01*
X63842640Y-96685100D01*
X63842640Y-94653100D01*
X63798362Y-94417783D01*
X63659290Y-94201659D01*
X63447090Y-94056669D01*
X63195200Y-94005660D01*
X61163200Y-94005660D01*
X60927883Y-94049938D01*
X60711759Y-94189010D01*
X60600360Y-94352048D01*
X60504018Y-94262715D01*
X60022144Y-94063125D01*
X59766200Y-94182264D01*
X59512200Y-94182264D01*
X59256256Y-94063125D01*
X58774382Y-94262715D01*
X58302012Y-94700721D01*
X58033217Y-95286154D01*
X54053681Y-95286154D01*
X54197841Y-95193390D01*
X54342831Y-94981190D01*
X54393840Y-94729300D01*
X54393840Y-93002100D01*
X54349562Y-92766783D01*
X54210490Y-92550659D01*
X53998290Y-92405669D01*
X53956961Y-92397300D01*
X53974815Y-92385370D01*
X54299671Y-91899189D01*
X54413745Y-91325700D01*
X54299671Y-90752211D01*
X53974815Y-90266030D01*
X53660034Y-90055700D01*
X53974815Y-89845370D01*
X54299671Y-89359189D01*
X54392178Y-88894127D01*
X54398241Y-88900201D01*
X54757530Y-89049391D01*
X55146563Y-89049730D01*
X55506112Y-88901168D01*
X55573737Y-88833661D01*
X61335585Y-88833661D01*
X61335560Y-88862224D01*
X61484122Y-89221773D01*
X61758970Y-89497101D01*
X62118259Y-89646291D01*
X62507292Y-89646630D01*
X62866841Y-89498068D01*
X63142169Y-89223220D01*
X63291359Y-88863931D01*
X63291698Y-88474898D01*
X63143136Y-88115349D01*
X62947754Y-87919625D01*
X62919939Y-87877998D01*
X62852445Y-87776985D01*
X62608305Y-87532846D01*
X62487610Y-87452200D01*
X62361095Y-87367665D01*
X62069490Y-87309661D01*
X55573983Y-87309661D01*
X55507559Y-87243121D01*
X55148270Y-87093931D01*
X55052717Y-87093848D01*
X54872254Y-86913385D01*
X54731280Y-86819189D01*
X54625044Y-86748204D01*
X54333439Y-86690200D01*
X54325328Y-86690200D01*
X54413745Y-86245700D01*
X54299671Y-85672211D01*
X53974815Y-85186030D01*
X53660034Y-84975700D01*
X53974815Y-84765370D01*
X54299671Y-84279189D01*
X54413745Y-83705700D01*
X54299671Y-83132211D01*
X53974815Y-82646030D01*
X53665331Y-82439239D01*
X54081132Y-82067736D01*
X54335109Y-81540491D01*
X54337758Y-81524726D01*
X54216617Y-81292700D01*
X52857400Y-81292700D01*
X52857400Y-81312700D01*
X52603400Y-81312700D01*
X52603400Y-81292700D01*
X51244183Y-81292700D01*
X51123042Y-81524726D01*
X51125691Y-81540491D01*
X51379668Y-82067736D01*
X51795469Y-82439239D01*
X51485985Y-82646030D01*
X51161129Y-83132211D01*
X51047055Y-83705700D01*
X51161129Y-84279189D01*
X51485985Y-84765370D01*
X51800766Y-84975700D01*
X51485985Y-85186030D01*
X51161129Y-85672211D01*
X51047055Y-86245700D01*
X51135472Y-86690200D01*
X42003490Y-86690200D01*
X41711885Y-86748204D01*
X41464675Y-86913385D01*
X41284386Y-87093674D01*
X41190366Y-87093592D01*
X40830817Y-87242154D01*
X40555489Y-87517002D01*
X40406299Y-87876291D01*
X40405960Y-88265324D01*
X40329760Y-88265324D01*
X40330098Y-87877998D01*
X40181536Y-87518449D01*
X39906688Y-87243121D01*
X39547399Y-87093931D01*
X39158366Y-87093592D01*
X38798817Y-87242154D01*
X38523489Y-87517002D01*
X38374299Y-87876291D01*
X38374216Y-87971844D01*
X37677488Y-88668572D01*
X33609770Y-88668572D01*
X33007447Y-88066249D01*
X33007445Y-88066246D01*
X32710016Y-87768817D01*
X32710098Y-87674798D01*
X32561536Y-87315249D01*
X32286688Y-87039921D01*
X31927399Y-86890731D01*
X31538366Y-86890392D01*
X31178817Y-87038954D01*
X30903489Y-87313802D01*
X30754299Y-87673091D01*
X30753960Y-88062124D01*
X24120110Y-88062124D01*
X24093874Y-80584663D01*
X35140731Y-80584663D01*
X35281269Y-80924793D01*
X35141070Y-81262430D01*
X35140731Y-81651463D01*
X35289293Y-82011012D01*
X35564141Y-82286340D01*
X35923430Y-82435530D01*
X36312463Y-82435869D01*
X36672012Y-82287307D01*
X36947340Y-82012459D01*
X37096530Y-81653170D01*
X37096869Y-81264137D01*
X36956331Y-80924007D01*
X37005051Y-80806674D01*
X51123042Y-80806674D01*
X51244183Y-81038700D01*
X52603400Y-81038700D01*
X52603400Y-79824776D01*
X52857400Y-79824776D01*
X52857400Y-81038700D01*
X54216617Y-81038700D01*
X54337758Y-80806674D01*
X54335109Y-80790909D01*
X54180701Y-80470363D01*
X55308331Y-80470363D01*
X55456893Y-80829912D01*
X55524400Y-80897537D01*
X55524400Y-83007200D01*
X55582404Y-83298805D01*
X55747585Y-83546015D01*
X57525585Y-85324016D01*
X57673777Y-85423034D01*
X57772795Y-85489196D01*
X58064400Y-85547200D01*
X62904317Y-85547200D01*
X62970741Y-85613740D01*
X63330030Y-85762930D01*
X63719063Y-85763269D01*
X64078612Y-85614707D01*
X64353940Y-85339859D01*
X64503130Y-84980570D01*
X64503469Y-84591537D01*
X64354907Y-84231988D01*
X64080059Y-83956660D01*
X63720770Y-83807470D01*
X63331737Y-83807131D01*
X62972188Y-83955693D01*
X62904563Y-84023200D01*
X58380031Y-84023200D01*
X57048400Y-82691570D01*
X57048400Y-80897783D01*
X57114940Y-80831359D01*
X57264130Y-80472070D01*
X57264179Y-80416400D01*
X58102367Y-80416400D01*
X58102331Y-80457663D01*
X58250893Y-80817212D01*
X58525741Y-81092540D01*
X58885030Y-81241730D01*
X59274063Y-81242069D01*
X59633612Y-81093507D01*
X59875007Y-80852533D01*
X59949415Y-80802815D01*
X61008152Y-79744078D01*
X61018004Y-79793605D01*
X61142856Y-79980459D01*
X61183185Y-80040815D01*
X62483913Y-81341543D01*
X62483831Y-81435563D01*
X62632393Y-81795112D01*
X62907241Y-82070440D01*
X63266530Y-82219630D01*
X63655563Y-82219969D01*
X64015112Y-82071407D01*
X64290440Y-81796559D01*
X64439630Y-81437270D01*
X64439969Y-81048237D01*
X64291407Y-80688688D01*
X64016559Y-80413360D01*
X63657270Y-80264170D01*
X63561717Y-80264087D01*
X62629862Y-79332232D01*
X62699730Y-79163970D01*
X62700069Y-78774937D01*
X62551507Y-78415388D01*
X62452637Y-78316345D01*
X62465962Y-78313695D01*
X62569152Y-78244745D01*
X62710919Y-78244869D01*
X63070468Y-78096307D01*
X63345796Y-77821459D01*
X63494986Y-77462170D01*
X63495325Y-77073137D01*
X63397248Y-76835771D01*
X63537930Y-76496970D01*
X63538269Y-76107937D01*
X63389707Y-75748388D01*
X63114859Y-75473060D01*
X62755570Y-75323870D01*
X62366537Y-75323531D01*
X62006988Y-75472093D01*
X61731660Y-75746941D01*
X61582470Y-76106230D01*
X61582387Y-76201782D01*
X58891770Y-78892400D01*
X56908700Y-78892400D01*
X56617095Y-78950404D01*
X56369885Y-79115585D01*
X56186757Y-79298713D01*
X56092737Y-79298631D01*
X55733188Y-79447193D01*
X55457860Y-79722041D01*
X55308670Y-80081330D01*
X55308331Y-80470363D01*
X54180701Y-80470363D01*
X54081132Y-80263664D01*
X53644720Y-79873746D01*
X53092313Y-79680516D01*
X52857400Y-79824776D01*
X52603400Y-79824776D01*
X52368487Y-79680516D01*
X51816080Y-79873746D01*
X51379668Y-80263664D01*
X51125691Y-80790909D01*
X51123042Y-80806674D01*
X37005051Y-80806674D01*
X37096530Y-80586370D01*
X37096869Y-80197337D01*
X36948307Y-79837788D01*
X36673459Y-79562460D01*
X36314170Y-79413270D01*
X35925137Y-79412931D01*
X35565588Y-79561493D01*
X35290260Y-79836341D01*
X35141070Y-80195630D01*
X35140731Y-80584663D01*
X24093874Y-80584663D01*
X24072840Y-74590263D01*
X24777531Y-74590263D01*
X24926093Y-74949812D01*
X25200941Y-75225140D01*
X25560230Y-75374330D01*
X25949263Y-75374669D01*
X26308812Y-75226107D01*
X26584140Y-74951259D01*
X26733330Y-74591970D01*
X26733331Y-74590263D01*
X28993931Y-74590263D01*
X29142493Y-74949812D01*
X29417341Y-75225140D01*
X29776630Y-75374330D01*
X30165663Y-75374669D01*
X30525212Y-75226107D01*
X30592837Y-75158600D01*
X34685570Y-75158600D01*
X35648890Y-76121921D01*
X35648890Y-76836217D01*
X35582350Y-76902641D01*
X35433160Y-77261930D01*
X35432821Y-77650963D01*
X35581383Y-78010512D01*
X35856231Y-78285840D01*
X36215520Y-78435030D01*
X36604553Y-78435369D01*
X36964102Y-78286807D01*
X37239430Y-78011959D01*
X37388620Y-77652670D01*
X37388959Y-77263637D01*
X37240397Y-76904088D01*
X37172890Y-76836463D01*
X37172890Y-75806290D01*
X37114886Y-75514685D01*
X37046561Y-75412430D01*
X36949706Y-75267475D01*
X35561294Y-73879063D01*
X53479531Y-73879063D01*
X53628093Y-74238612D01*
X53902941Y-74513940D01*
X54262230Y-74663130D01*
X54651263Y-74663469D01*
X55010812Y-74514907D01*
X55286140Y-74240059D01*
X55435330Y-73880770D01*
X55435669Y-73491737D01*
X55287107Y-73132188D01*
X55219600Y-73064563D01*
X55219600Y-69835994D01*
X55336940Y-69718859D01*
X55486130Y-69359570D01*
X55486469Y-68970537D01*
X55337907Y-68610988D01*
X55063059Y-68335660D01*
X54703770Y-68186470D01*
X54314737Y-68186131D01*
X53955188Y-68334693D01*
X53679860Y-68609541D01*
X53530670Y-68968830D01*
X53530331Y-69357863D01*
X53678893Y-69717412D01*
X53695600Y-69734148D01*
X53695600Y-73064317D01*
X53629060Y-73130741D01*
X53479870Y-73490030D01*
X53479531Y-73879063D01*
X35561294Y-73879063D01*
X35540015Y-73857785D01*
X35490358Y-73824605D01*
X35292805Y-73692604D01*
X35001200Y-73634600D01*
X30593083Y-73634600D01*
X30526659Y-73568060D01*
X30167370Y-73418870D01*
X29778337Y-73418531D01*
X29418788Y-73567093D01*
X29143460Y-73841941D01*
X28994270Y-74201230D01*
X28993931Y-74590263D01*
X26733331Y-74590263D01*
X26733669Y-74202937D01*
X26585107Y-73843388D01*
X26310259Y-73568060D01*
X25950970Y-73418870D01*
X25561937Y-73418531D01*
X25202388Y-73567093D01*
X24927060Y-73841941D01*
X24777870Y-74201230D01*
X24777531Y-74590263D01*
X24072840Y-74590263D01*
X24046103Y-66970263D01*
X31279931Y-66970263D01*
X31428493Y-67329812D01*
X31496000Y-67397437D01*
X31496000Y-68763762D01*
X31459658Y-68800041D01*
X31310468Y-69159330D01*
X31310129Y-69548363D01*
X31458691Y-69907912D01*
X31733539Y-70183240D01*
X32092828Y-70332430D01*
X32481861Y-70332769D01*
X32841410Y-70184207D01*
X33116738Y-69909359D01*
X33265928Y-69550070D01*
X33266267Y-69161037D01*
X33117705Y-68801488D01*
X33020000Y-68703612D01*
X33020000Y-67397683D01*
X33086540Y-67331259D01*
X33235730Y-66971970D01*
X33236069Y-66582937D01*
X33087507Y-66223388D01*
X32812659Y-65948060D01*
X32453370Y-65798870D01*
X32064337Y-65798531D01*
X31704788Y-65947093D01*
X31429460Y-66221941D01*
X31280270Y-66581230D01*
X31279931Y-66970263D01*
X24046103Y-66970263D01*
X24028846Y-62052200D01*
X34316730Y-62052200D01*
X34185360Y-62183341D01*
X34185360Y-62183341D01*
G37*
X34185360Y-62183341D02*
X34036170Y-62542630D01*
X34035831Y-62931663D01*
X34184393Y-63291212D01*
X34459241Y-63566540D01*
X34818530Y-63715730D01*
X34914083Y-63715813D01*
X35179000Y-63980731D01*
X35179000Y-65977717D01*
X35112460Y-66044141D01*
X34963270Y-66403430D01*
X34962931Y-66792463D01*
X35111493Y-67152012D01*
X35386341Y-67427340D01*
X35745630Y-67576530D01*
X36134663Y-67576869D01*
X36494212Y-67428307D01*
X36769540Y-67153459D01*
X36918730Y-66794170D01*
X36919069Y-66405137D01*
X36770507Y-66045588D01*
X36703000Y-65977963D01*
X36703000Y-63665100D01*
X36644996Y-63373495D01*
X36590016Y-63291212D01*
X36479815Y-63126284D01*
X35991887Y-62638357D01*
X35991969Y-62544337D01*
X35843407Y-62184788D01*
X35711050Y-62052200D01*
X45999400Y-62052200D01*
X45999400Y-65735200D01*
X46009406Y-65784610D01*
X46037847Y-65826235D01*
X46080241Y-65853515D01*
X46126400Y-65862200D01*
X59069183Y-65862200D01*
X59287741Y-66081140D01*
X59647030Y-66230330D01*
X60036063Y-66230669D01*
X60395612Y-66082107D01*
X60463237Y-66014600D01*
X64251170Y-66014600D01*
X66319400Y-68082831D01*
X66319400Y-73852370D01*
X66212385Y-73959385D01*
X66047204Y-74206595D01*
X65989200Y-74498200D01*
X65989200Y-77878270D01*
X65633600Y-78233870D01*
X65633600Y-73519083D01*
X65700140Y-73452659D01*
X65849330Y-73093370D01*
X65849669Y-72704337D01*
X65701107Y-72344788D01*
X65426259Y-72069460D01*
X65066970Y-71920270D01*
X64677937Y-71919931D01*
X64439800Y-72018327D01*
X64439800Y-70242483D01*
X64506340Y-70176059D01*
X64655530Y-69816770D01*
X64655869Y-69427737D01*
X64507307Y-69068188D01*
X64232459Y-68792860D01*
X63873170Y-68643670D01*
X63484137Y-68643331D01*
X63124588Y-68791893D01*
X62849260Y-69066741D01*
X62700070Y-69426030D01*
X62699731Y-69815063D01*
X62848293Y-70174612D01*
X62915800Y-70242237D01*
X62915800Y-70786767D01*
X62591188Y-70920893D01*
X62315860Y-71195741D01*
X62166670Y-71555030D01*
X62166587Y-71650583D01*
X60446585Y-73370585D01*
X60281404Y-73617795D01*
X60223400Y-73909400D01*
X60223400Y-74025645D01*
X60134670Y-74239330D01*
X60134331Y-74628363D01*
X60282893Y-74987912D01*
X60557741Y-75263240D01*
X60917030Y-75412430D01*
X61306063Y-75412769D01*
X61665612Y-75264207D01*
X61940940Y-74989359D01*
X62090130Y-74630070D01*
X62090469Y-74241037D01*
X61985482Y-73986948D01*
X62746418Y-73226012D01*
X62700070Y-73337630D01*
X62699731Y-73726663D01*
X62848293Y-74086212D01*
X63123141Y-74361540D01*
X63482430Y-74510730D01*
X63871463Y-74511069D01*
X64109600Y-74412673D01*
X64109600Y-79046194D01*
X63941460Y-79214041D01*
X63792270Y-79573330D01*
X63791931Y-79962363D01*
X63940493Y-80321912D01*
X64215341Y-80597240D01*
X64574630Y-80746430D01*
X64963663Y-80746769D01*
X65323212Y-80598207D01*
X65598540Y-80323359D01*
X65633753Y-80238556D01*
X65878063Y-80238769D01*
X66237612Y-80090207D01*
X66319400Y-80008561D01*
X66319400Y-92443300D01*
X65101412Y-92443300D01*
X63656517Y-90998405D01*
X63396946Y-90824965D01*
X63090761Y-90764061D01*
X62693478Y-90764061D01*
X62665088Y-90735621D01*
X62305799Y-90586431D01*
X61916766Y-90586092D01*
X61557217Y-90734654D01*
X61281889Y-91009502D01*
X61132699Y-91368791D01*
X61132360Y-91757824D01*
X61280922Y-92117373D01*
X61555770Y-92392701D01*
X61915059Y-92541891D01*
X62304092Y-92542230D01*
X62663641Y-92393668D01*
X62693099Y-92364261D01*
X62759349Y-92364261D01*
X64204244Y-93809156D01*
X64463815Y-93982596D01*
X64770000Y-94043500D01*
X66319400Y-94043500D01*
X66319400Y-97993200D01*
X25643422Y-97993200D01*
X25207789Y-97931238D01*
X24596951Y-97570058D01*
X24170825Y-97002612D01*
X24151211Y-96926248D01*
X24148144Y-96052046D01*
X58033217Y-96052046D01*
X58302012Y-96637479D01*
X58774382Y-97075485D01*
X59256256Y-97275075D01*
X59512200Y-97155936D01*
X59512200Y-95796100D01*
X58151833Y-95796100D01*
X58033217Y-96052046D01*
X24148144Y-96052046D01*
X24120110Y-88062124D01*
X30753960Y-88062124D01*
X30902522Y-88421673D01*
X31177370Y-88697001D01*
X31536659Y-88846191D01*
X31632212Y-88846274D01*
X31929814Y-89143877D01*
X31929817Y-89143879D01*
X32755325Y-89969387D01*
X33002535Y-90134568D01*
X33294140Y-90192572D01*
X37993118Y-90192572D01*
X38284723Y-90134568D01*
X38531933Y-89969387D01*
X39451673Y-89049648D01*
X39545692Y-89049730D01*
X39905241Y-88901168D01*
X40180569Y-88626320D01*
X40329759Y-88267031D01*
X40329760Y-88265324D01*
X40405960Y-88265324D01*
X40554522Y-88624873D01*
X40829370Y-88900201D01*
X41188659Y-89049391D01*
X41577692Y-89049730D01*
X41937241Y-88901168D01*
X42212569Y-88626320D01*
X42361759Y-88267031D01*
X42361805Y-88214200D01*
X51160733Y-88214200D01*
X51047055Y-88785700D01*
X51161129Y-89359189D01*
X51485985Y-89845370D01*
X51800766Y-90055700D01*
X51485985Y-90266030D01*
X51161129Y-90752211D01*
X51047055Y-91325700D01*
X51161129Y-91899189D01*
X51485985Y-92385370D01*
X51500313Y-92394943D01*
X51479083Y-92398938D01*
X51262959Y-92538010D01*
X51117969Y-92750210D01*
X51066960Y-93002100D01*
X51066960Y-94729300D01*
X51111238Y-94964617D01*
X51250310Y-95180741D01*
X51462510Y-95325731D01*
X51714400Y-95376740D01*
X53746400Y-95376740D01*
X53981717Y-95332462D01*
X54053681Y-95286154D01*
X58033217Y-95286154D01*
X58151833Y-95542100D01*
X59512200Y-95542100D01*
X59512200Y-94182264D01*
X59766200Y-94182264D01*
X59766200Y-95542100D01*
X59786200Y-95542100D01*
X59786200Y-95796100D01*
X59766200Y-95796100D01*
X59766200Y-97155936D01*
X60022144Y-97275075D01*
X60504018Y-97075485D01*
X60601598Y-96985003D01*
X60699110Y-97136541D01*
X60911310Y-97281531D01*
X61163200Y-97332540D01*
X63195200Y-97332540D01*
X63430517Y-97288262D01*
X63646641Y-97149190D01*
X63791631Y-96936990D01*
X63842640Y-96685100D01*
X63842640Y-94653100D01*
X63798362Y-94417783D01*
X63659290Y-94201659D01*
X63447090Y-94056669D01*
X63195200Y-94005660D01*
X61163200Y-94005660D01*
X60927883Y-94049938D01*
X60711759Y-94189010D01*
X60600360Y-94352048D01*
X60504018Y-94262715D01*
X60022144Y-94063125D01*
X59766200Y-94182264D01*
X59512200Y-94182264D01*
X59256256Y-94063125D01*
X58774382Y-94262715D01*
X58302012Y-94700721D01*
X58033217Y-95286154D01*
X54053681Y-95286154D01*
X54197841Y-95193390D01*
X54342831Y-94981190D01*
X54393840Y-94729300D01*
X54393840Y-93002100D01*
X54349562Y-92766783D01*
X54210490Y-92550659D01*
X53998290Y-92405669D01*
X53956961Y-92397300D01*
X53974815Y-92385370D01*
X54299671Y-91899189D01*
X54413745Y-91325700D01*
X54299671Y-90752211D01*
X53974815Y-90266030D01*
X53660034Y-90055700D01*
X53974815Y-89845370D01*
X54299671Y-89359189D01*
X54392178Y-88894127D01*
X54398241Y-88900201D01*
X54757530Y-89049391D01*
X55146563Y-89049730D01*
X55506112Y-88901168D01*
X55573737Y-88833661D01*
X61335585Y-88833661D01*
X61335560Y-88862224D01*
X61484122Y-89221773D01*
X61758970Y-89497101D01*
X62118259Y-89646291D01*
X62507292Y-89646630D01*
X62866841Y-89498068D01*
X63142169Y-89223220D01*
X63291359Y-88863931D01*
X63291698Y-88474898D01*
X63143136Y-88115349D01*
X62947754Y-87919625D01*
X62919939Y-87877998D01*
X62852445Y-87776985D01*
X62608305Y-87532846D01*
X62487610Y-87452200D01*
X62361095Y-87367665D01*
X62069490Y-87309661D01*
X55573983Y-87309661D01*
X55507559Y-87243121D01*
X55148270Y-87093931D01*
X55052717Y-87093848D01*
X54872254Y-86913385D01*
X54731280Y-86819189D01*
X54625044Y-86748204D01*
X54333439Y-86690200D01*
X54325328Y-86690200D01*
X54413745Y-86245700D01*
X54299671Y-85672211D01*
X53974815Y-85186030D01*
X53660034Y-84975700D01*
X53974815Y-84765370D01*
X54299671Y-84279189D01*
X54413745Y-83705700D01*
X54299671Y-83132211D01*
X53974815Y-82646030D01*
X53665331Y-82439239D01*
X54081132Y-82067736D01*
X54335109Y-81540491D01*
X54337758Y-81524726D01*
X54216617Y-81292700D01*
X52857400Y-81292700D01*
X52857400Y-81312700D01*
X52603400Y-81312700D01*
X52603400Y-81292700D01*
X51244183Y-81292700D01*
X51123042Y-81524726D01*
X51125691Y-81540491D01*
X51379668Y-82067736D01*
X51795469Y-82439239D01*
X51485985Y-82646030D01*
X51161129Y-83132211D01*
X51047055Y-83705700D01*
X51161129Y-84279189D01*
X51485985Y-84765370D01*
X51800766Y-84975700D01*
X51485985Y-85186030D01*
X51161129Y-85672211D01*
X51047055Y-86245700D01*
X51135472Y-86690200D01*
X42003490Y-86690200D01*
X41711885Y-86748204D01*
X41464675Y-86913385D01*
X41284386Y-87093674D01*
X41190366Y-87093592D01*
X40830817Y-87242154D01*
X40555489Y-87517002D01*
X40406299Y-87876291D01*
X40405960Y-88265324D01*
X40329760Y-88265324D01*
X40330098Y-87877998D01*
X40181536Y-87518449D01*
X39906688Y-87243121D01*
X39547399Y-87093931D01*
X39158366Y-87093592D01*
X38798817Y-87242154D01*
X38523489Y-87517002D01*
X38374299Y-87876291D01*
X38374216Y-87971844D01*
X37677488Y-88668572D01*
X33609770Y-88668572D01*
X33007447Y-88066249D01*
X33007445Y-88066246D01*
X32710016Y-87768817D01*
X32710098Y-87674798D01*
X32561536Y-87315249D01*
X32286688Y-87039921D01*
X31927399Y-86890731D01*
X31538366Y-86890392D01*
X31178817Y-87038954D01*
X30903489Y-87313802D01*
X30754299Y-87673091D01*
X30753960Y-88062124D01*
X24120110Y-88062124D01*
X24093874Y-80584663D01*
X35140731Y-80584663D01*
X35281269Y-80924793D01*
X35141070Y-81262430D01*
X35140731Y-81651463D01*
X35289293Y-82011012D01*
X35564141Y-82286340D01*
X35923430Y-82435530D01*
X36312463Y-82435869D01*
X36672012Y-82287307D01*
X36947340Y-82012459D01*
X37096530Y-81653170D01*
X37096869Y-81264137D01*
X36956331Y-80924007D01*
X37005051Y-80806674D01*
X51123042Y-80806674D01*
X51244183Y-81038700D01*
X52603400Y-81038700D01*
X52603400Y-79824776D01*
X52857400Y-79824776D01*
X52857400Y-81038700D01*
X54216617Y-81038700D01*
X54337758Y-80806674D01*
X54335109Y-80790909D01*
X54180701Y-80470363D01*
X55308331Y-80470363D01*
X55456893Y-80829912D01*
X55524400Y-80897537D01*
X55524400Y-83007200D01*
X55582404Y-83298805D01*
X55747585Y-83546015D01*
X57525585Y-85324016D01*
X57673777Y-85423034D01*
X57772795Y-85489196D01*
X58064400Y-85547200D01*
X62904317Y-85547200D01*
X62970741Y-85613740D01*
X63330030Y-85762930D01*
X63719063Y-85763269D01*
X64078612Y-85614707D01*
X64353940Y-85339859D01*
X64503130Y-84980570D01*
X64503469Y-84591537D01*
X64354907Y-84231988D01*
X64080059Y-83956660D01*
X63720770Y-83807470D01*
X63331737Y-83807131D01*
X62972188Y-83955693D01*
X62904563Y-84023200D01*
X58380031Y-84023200D01*
X57048400Y-82691570D01*
X57048400Y-80897783D01*
X57114940Y-80831359D01*
X57264130Y-80472070D01*
X57264179Y-80416400D01*
X58102367Y-80416400D01*
X58102331Y-80457663D01*
X58250893Y-80817212D01*
X58525741Y-81092540D01*
X58885030Y-81241730D01*
X59274063Y-81242069D01*
X59633612Y-81093507D01*
X59875007Y-80852533D01*
X59949415Y-80802815D01*
X61008152Y-79744078D01*
X61018004Y-79793605D01*
X61142856Y-79980459D01*
X61183185Y-80040815D01*
X62483913Y-81341543D01*
X62483831Y-81435563D01*
X62632393Y-81795112D01*
X62907241Y-82070440D01*
X63266530Y-82219630D01*
X63655563Y-82219969D01*
X64015112Y-82071407D01*
X64290440Y-81796559D01*
X64439630Y-81437270D01*
X64439969Y-81048237D01*
X64291407Y-80688688D01*
X64016559Y-80413360D01*
X63657270Y-80264170D01*
X63561717Y-80264087D01*
X62629862Y-79332232D01*
X62699730Y-79163970D01*
X62700069Y-78774937D01*
X62551507Y-78415388D01*
X62452637Y-78316345D01*
X62465962Y-78313695D01*
X62569152Y-78244745D01*
X62710919Y-78244869D01*
X63070468Y-78096307D01*
X63345796Y-77821459D01*
X63494986Y-77462170D01*
X63495325Y-77073137D01*
X63397248Y-76835771D01*
X63537930Y-76496970D01*
X63538269Y-76107937D01*
X63389707Y-75748388D01*
X63114859Y-75473060D01*
X62755570Y-75323870D01*
X62366537Y-75323531D01*
X62006988Y-75472093D01*
X61731660Y-75746941D01*
X61582470Y-76106230D01*
X61582387Y-76201782D01*
X58891770Y-78892400D01*
X56908700Y-78892400D01*
X56617095Y-78950404D01*
X56369885Y-79115585D01*
X56186757Y-79298713D01*
X56092737Y-79298631D01*
X55733188Y-79447193D01*
X55457860Y-79722041D01*
X55308670Y-80081330D01*
X55308331Y-80470363D01*
X54180701Y-80470363D01*
X54081132Y-80263664D01*
X53644720Y-79873746D01*
X53092313Y-79680516D01*
X52857400Y-79824776D01*
X52603400Y-79824776D01*
X52368487Y-79680516D01*
X51816080Y-79873746D01*
X51379668Y-80263664D01*
X51125691Y-80790909D01*
X51123042Y-80806674D01*
X37005051Y-80806674D01*
X37096530Y-80586370D01*
X37096869Y-80197337D01*
X36948307Y-79837788D01*
X36673459Y-79562460D01*
X36314170Y-79413270D01*
X35925137Y-79412931D01*
X35565588Y-79561493D01*
X35290260Y-79836341D01*
X35141070Y-80195630D01*
X35140731Y-80584663D01*
X24093874Y-80584663D01*
X24072840Y-74590263D01*
X24777531Y-74590263D01*
X24926093Y-74949812D01*
X25200941Y-75225140D01*
X25560230Y-75374330D01*
X25949263Y-75374669D01*
X26308812Y-75226107D01*
X26584140Y-74951259D01*
X26733330Y-74591970D01*
X26733331Y-74590263D01*
X28993931Y-74590263D01*
X29142493Y-74949812D01*
X29417341Y-75225140D01*
X29776630Y-75374330D01*
X30165663Y-75374669D01*
X30525212Y-75226107D01*
X30592837Y-75158600D01*
X34685570Y-75158600D01*
X35648890Y-76121921D01*
X35648890Y-76836217D01*
X35582350Y-76902641D01*
X35433160Y-77261930D01*
X35432821Y-77650963D01*
X35581383Y-78010512D01*
X35856231Y-78285840D01*
X36215520Y-78435030D01*
X36604553Y-78435369D01*
X36964102Y-78286807D01*
X37239430Y-78011959D01*
X37388620Y-77652670D01*
X37388959Y-77263637D01*
X37240397Y-76904088D01*
X37172890Y-76836463D01*
X37172890Y-75806290D01*
X37114886Y-75514685D01*
X37046561Y-75412430D01*
X36949706Y-75267475D01*
X35561294Y-73879063D01*
X53479531Y-73879063D01*
X53628093Y-74238612D01*
X53902941Y-74513940D01*
X54262230Y-74663130D01*
X54651263Y-74663469D01*
X55010812Y-74514907D01*
X55286140Y-74240059D01*
X55435330Y-73880770D01*
X55435669Y-73491737D01*
X55287107Y-73132188D01*
X55219600Y-73064563D01*
X55219600Y-69835994D01*
X55336940Y-69718859D01*
X55486130Y-69359570D01*
X55486469Y-68970537D01*
X55337907Y-68610988D01*
X55063059Y-68335660D01*
X54703770Y-68186470D01*
X54314737Y-68186131D01*
X53955188Y-68334693D01*
X53679860Y-68609541D01*
X53530670Y-68968830D01*
X53530331Y-69357863D01*
X53678893Y-69717412D01*
X53695600Y-69734148D01*
X53695600Y-73064317D01*
X53629060Y-73130741D01*
X53479870Y-73490030D01*
X53479531Y-73879063D01*
X35561294Y-73879063D01*
X35540015Y-73857785D01*
X35490358Y-73824605D01*
X35292805Y-73692604D01*
X35001200Y-73634600D01*
X30593083Y-73634600D01*
X30526659Y-73568060D01*
X30167370Y-73418870D01*
X29778337Y-73418531D01*
X29418788Y-73567093D01*
X29143460Y-73841941D01*
X28994270Y-74201230D01*
X28993931Y-74590263D01*
X26733331Y-74590263D01*
X26733669Y-74202937D01*
X26585107Y-73843388D01*
X26310259Y-73568060D01*
X25950970Y-73418870D01*
X25561937Y-73418531D01*
X25202388Y-73567093D01*
X24927060Y-73841941D01*
X24777870Y-74201230D01*
X24777531Y-74590263D01*
X24072840Y-74590263D01*
X24046103Y-66970263D01*
X31279931Y-66970263D01*
X31428493Y-67329812D01*
X31496000Y-67397437D01*
X31496000Y-68763762D01*
X31459658Y-68800041D01*
X31310468Y-69159330D01*
X31310129Y-69548363D01*
X31458691Y-69907912D01*
X31733539Y-70183240D01*
X32092828Y-70332430D01*
X32481861Y-70332769D01*
X32841410Y-70184207D01*
X33116738Y-69909359D01*
X33265928Y-69550070D01*
X33266267Y-69161037D01*
X33117705Y-68801488D01*
X33020000Y-68703612D01*
X33020000Y-67397683D01*
X33086540Y-67331259D01*
X33235730Y-66971970D01*
X33236069Y-66582937D01*
X33087507Y-66223388D01*
X32812659Y-65948060D01*
X32453370Y-65798870D01*
X32064337Y-65798531D01*
X31704788Y-65947093D01*
X31429460Y-66221941D01*
X31280270Y-66581230D01*
X31279931Y-66970263D01*
X24046103Y-66970263D01*
X24028846Y-62052200D01*
X34316730Y-62052200D01*
X34185360Y-62183341D01*
G36*
X25826400Y-42851400D02*
X101441351Y-42851400D01*
X102152342Y-42992824D01*
X102695709Y-43355891D01*
X103058775Y-43899256D01*
X103149400Y-44354859D01*
X103149400Y-96382033D01*
X103087438Y-96817666D01*
X102726258Y-97428504D01*
X102158812Y-97854630D01*
X101619308Y-97993200D01*
X67081400Y-97993200D01*
X67081400Y-94349512D01*
X69741444Y-97009556D01*
X70001015Y-97182996D01*
X70307200Y-97243900D01*
X94538800Y-97243900D01*
X94844985Y-97182996D01*
X95104556Y-97009556D01*
X97994278Y-94119834D01*
X98034463Y-94119869D01*
X98394012Y-93971307D01*
X98669340Y-93696459D01*
X98818530Y-93337170D01*
X98818869Y-92948137D01*
X98670307Y-92588588D01*
X98395459Y-92313260D01*
X98036170Y-92164070D01*
X97647137Y-92163731D01*
X97287588Y-92312293D01*
X97012260Y-92587141D01*
X96863070Y-92946430D01*
X96863034Y-92988054D01*
X94207388Y-95643700D01*
X70638612Y-95643700D01*
X68076375Y-93081463D01*
X68414731Y-93081463D01*
X68563293Y-93441012D01*
X68838141Y-93716340D01*
X69197430Y-93865530D01*
X69586463Y-93865869D01*
X69946012Y-93717307D01*
X70221340Y-93442459D01*
X70370530Y-93083170D01*
X70370869Y-92694137D01*
X70222307Y-92334588D01*
X69947459Y-92059260D01*
X69588170Y-91910070D01*
X69199137Y-91909731D01*
X68839588Y-92058293D01*
X68564260Y-92333141D01*
X68415070Y-92692430D01*
X68414731Y-93081463D01*
X68076375Y-93081463D01*
X67672556Y-92677644D01*
X67412985Y-92504204D01*
X67106800Y-92443300D01*
X67081400Y-92443300D01*
X67081400Y-78941330D01*
X67290015Y-78732715D01*
X67375238Y-78605170D01*
X67455196Y-78485505D01*
X67511634Y-78201772D01*
X67486112Y-79640906D01*
X67495426Y-79690947D01*
X67523289Y-79732961D01*
X68793289Y-81002961D01*
X68833682Y-81030152D01*
X68883092Y-81040158D01*
X77138092Y-81040158D01*
X77185881Y-81030824D01*
X77227895Y-81002961D01*
X77268513Y-80962343D01*
X78962265Y-82656095D01*
X78498200Y-82838843D01*
X78327567Y-82952857D01*
X77729354Y-83645749D01*
X81661000Y-87577395D01*
X81675143Y-87563253D01*
X81854748Y-87742858D01*
X81840605Y-87757000D01*
X85772251Y-91688646D01*
X86465143Y-91090433D01*
X87375099Y-88998224D01*
X87413560Y-86806791D01*
X87413560Y-90307000D01*
X87457838Y-90542317D01*
X87596910Y-90758441D01*
X87809110Y-90903431D01*
X88061000Y-90954440D01*
X88079329Y-90954440D01*
X85663370Y-93370400D01*
X83058326Y-93370400D01*
X84823800Y-92675157D01*
X84994433Y-92561143D01*
X85592646Y-91868251D01*
X81661000Y-87936605D01*
X77729354Y-91868251D01*
X78327567Y-92561143D01*
X80188245Y-93370400D01*
X76007630Y-93370400D01*
X74773000Y-92135770D01*
X74773000Y-90954440D01*
X75261000Y-90954440D01*
X75496317Y-90910162D01*
X75712441Y-90771090D01*
X75857431Y-90558890D01*
X75908440Y-90307000D01*
X75908440Y-88800948D01*
X76742843Y-90919800D01*
X76856857Y-91090433D01*
X77549749Y-91688646D01*
X81481395Y-87757000D01*
X77549749Y-83825354D01*
X76856857Y-84423567D01*
X75946901Y-86515776D01*
X75908440Y-88707209D01*
X75908440Y-85207000D01*
X75864162Y-84971683D01*
X75725090Y-84755559D01*
X75512890Y-84610569D01*
X75261000Y-84559560D01*
X72761000Y-84559560D01*
X72525683Y-84603838D01*
X72309559Y-84742910D01*
X72164569Y-84955110D01*
X72113560Y-85207000D01*
X72113560Y-90307000D01*
X72157838Y-90542317D01*
X72296910Y-90758441D01*
X72509110Y-90903431D01*
X72761000Y-90954440D01*
X73249000Y-90954440D01*
X73249000Y-92451400D01*
X73307004Y-92743005D01*
X73442929Y-92946430D01*
X73472185Y-92990215D01*
X75153185Y-94671215D01*
X75400395Y-94836396D01*
X75692000Y-94894400D01*
X85979000Y-94894400D01*
X86270605Y-94836396D01*
X86517815Y-94671215D01*
X88542130Y-92646900D01*
X89631360Y-92646900D01*
X89631360Y-94678900D01*
X89675638Y-94914217D01*
X89814710Y-95130341D01*
X90026910Y-95275331D01*
X90278800Y-95326340D01*
X92310800Y-95326340D01*
X92546117Y-95282062D01*
X92762241Y-95142990D01*
X92873640Y-94979952D01*
X92969982Y-95069285D01*
X93451856Y-95268875D01*
X93707800Y-95149736D01*
X93707800Y-93789900D01*
X93961800Y-93789900D01*
X93961800Y-95149736D01*
X94217744Y-95268875D01*
X94699618Y-95069285D01*
X95171988Y-94631279D01*
X95440783Y-94045846D01*
X95322167Y-93789900D01*
X93961800Y-93789900D01*
X93707800Y-93789900D01*
X93687800Y-93789900D01*
X93687800Y-93535900D01*
X93707800Y-93535900D01*
X93707800Y-92176064D01*
X93961800Y-92176064D01*
X93961800Y-93535900D01*
X95322167Y-93535900D01*
X95440783Y-93279954D01*
X95171988Y-92694521D01*
X94699618Y-92256515D01*
X94217744Y-92056925D01*
X93961800Y-92176064D01*
X93707800Y-92176064D01*
X93451856Y-92056925D01*
X92969982Y-92256515D01*
X92872402Y-92346997D01*
X92774890Y-92195459D01*
X92562690Y-92050469D01*
X92310800Y-91999460D01*
X90278800Y-91999460D01*
X90043483Y-92043738D01*
X89827359Y-92182810D01*
X89682369Y-92395010D01*
X89631360Y-92646900D01*
X88542130Y-92646900D01*
X89849816Y-91339215D01*
X90014997Y-91092004D01*
X90042360Y-90954440D01*
X90561000Y-90954440D01*
X90796317Y-90910162D01*
X91012441Y-90771090D01*
X91157431Y-90558890D01*
X91208440Y-90307000D01*
X91208440Y-86859154D01*
X91264157Y-86994000D01*
X91667477Y-87398024D01*
X92194709Y-87616950D01*
X92765587Y-87617448D01*
X93293200Y-87399443D01*
X93697224Y-86996123D01*
X93916150Y-86468891D01*
X93916648Y-85898013D01*
X93698643Y-85370400D01*
X93295323Y-84966376D01*
X93228856Y-84938777D01*
X93235405Y-84936064D01*
X93309539Y-84689945D01*
X92481400Y-83861805D01*
X91653261Y-84689945D01*
X91727395Y-84936064D01*
X91733883Y-84938396D01*
X91669600Y-84964957D01*
X91265576Y-85368277D01*
X91208440Y-85505876D01*
X91208440Y-85207000D01*
X91164162Y-84971683D01*
X91025090Y-84755559D01*
X90812890Y-84610569D01*
X90561000Y-84559560D01*
X88491190Y-84559560D01*
X87397053Y-83465423D01*
X91034435Y-83465423D01*
X91061622Y-84035654D01*
X91227536Y-84436205D01*
X91473655Y-84510339D01*
X92301795Y-83682200D01*
X92661005Y-83682200D01*
X93489145Y-84510339D01*
X93735264Y-84436205D01*
X93928365Y-83898977D01*
X93901178Y-83328746D01*
X93735264Y-82928195D01*
X93489145Y-82854061D01*
X92661005Y-83682200D01*
X92301795Y-83682200D01*
X91473655Y-82854061D01*
X91227536Y-82928195D01*
X91034435Y-83465423D01*
X87397053Y-83465423D01*
X87151861Y-83220231D01*
X87319612Y-83150918D01*
X87594940Y-82876070D01*
X87678657Y-82674455D01*
X91653261Y-82674455D01*
X92481400Y-83502595D01*
X93309539Y-82674455D01*
X93235405Y-82428336D01*
X92698177Y-82235235D01*
X92127946Y-82262422D01*
X91727395Y-82428336D01*
X91653261Y-82674455D01*
X87678657Y-82674455D01*
X87744130Y-82516781D01*
X87744469Y-82127748D01*
X87726089Y-82083263D01*
X97523131Y-82083263D01*
X97671693Y-82442812D01*
X97946541Y-82718140D01*
X98305830Y-82867330D01*
X98694863Y-82867669D01*
X99001215Y-82741088D01*
X98943171Y-82799030D01*
X98730043Y-83312300D01*
X98729558Y-83868061D01*
X98941790Y-84381703D01*
X99334430Y-84775029D01*
X99542312Y-84861349D01*
X99336497Y-84946390D01*
X98943171Y-85339030D01*
X98730043Y-85852300D01*
X98729558Y-86408061D01*
X98941790Y-86921703D01*
X99334430Y-87315029D01*
X99542312Y-87401349D01*
X99336497Y-87486390D01*
X98943171Y-87879030D01*
X98730043Y-88392300D01*
X98729558Y-88948061D01*
X98941790Y-89461703D01*
X99334430Y-89855029D01*
X99542312Y-89941349D01*
X99336497Y-90026390D01*
X98943171Y-90419030D01*
X98730043Y-90932300D01*
X98729558Y-91488061D01*
X98941790Y-92001703D01*
X99334430Y-92395029D01*
X99847700Y-92608157D01*
X100403461Y-92608642D01*
X100917103Y-92396410D01*
X101310429Y-92003770D01*
X101523557Y-91490500D01*
X101524042Y-90934739D01*
X101311810Y-90421097D01*
X100919170Y-90027771D01*
X100711288Y-89941451D01*
X100917103Y-89856410D01*
X101310429Y-89463770D01*
X101523557Y-88950500D01*
X101524042Y-88394739D01*
X101311810Y-87881097D01*
X100919170Y-87487771D01*
X100711288Y-87401451D01*
X100917103Y-87316410D01*
X101310429Y-86923770D01*
X101523557Y-86410500D01*
X101524042Y-85854739D01*
X101311810Y-85341097D01*
X100919170Y-84947771D01*
X100711288Y-84861451D01*
X100917103Y-84776410D01*
X101310429Y-84383770D01*
X101523557Y-83870500D01*
X101524042Y-83314739D01*
X101311810Y-82801097D01*
X100919170Y-82407771D01*
X100711288Y-82321451D01*
X100917103Y-82236410D01*
X101310429Y-81843770D01*
X101523557Y-81330500D01*
X101524042Y-80774739D01*
X101311810Y-80261097D01*
X100919170Y-79867771D01*
X100711288Y-79781451D01*
X100917103Y-79696410D01*
X101310429Y-79303770D01*
X101523557Y-78790500D01*
X101524042Y-78234739D01*
X101311810Y-77721097D01*
X100919170Y-77327771D01*
X100711288Y-77241451D01*
X100917103Y-77156410D01*
X101310429Y-76763770D01*
X101523557Y-76250500D01*
X101524042Y-75694739D01*
X101311810Y-75181097D01*
X100919170Y-74787771D01*
X100727073Y-74708005D01*
X100857943Y-74653797D01*
X100927408Y-74411613D01*
X100126800Y-73611005D01*
X99326192Y-74411613D01*
X99395657Y-74653797D01*
X99536118Y-74703909D01*
X99336497Y-74786390D01*
X98943171Y-75179030D01*
X98730043Y-75692300D01*
X98729558Y-76248061D01*
X98941790Y-76761703D01*
X99334430Y-77155029D01*
X99542312Y-77241349D01*
X99336497Y-77326390D01*
X98943171Y-77719030D01*
X98730043Y-78232300D01*
X98729558Y-78788061D01*
X98742116Y-78818454D01*
X97962385Y-79598185D01*
X97797204Y-79845395D01*
X97739200Y-80137000D01*
X97739200Y-81268517D01*
X97672660Y-81334941D01*
X97523470Y-81694230D01*
X97523131Y-82083263D01*
X87726089Y-82083263D01*
X87595907Y-81768199D01*
X87528400Y-81700574D01*
X87528400Y-76995387D01*
X89522152Y-76995387D01*
X89740157Y-77523000D01*
X90143477Y-77927024D01*
X90670709Y-78145950D01*
X91241587Y-78146448D01*
X91769200Y-77928443D01*
X92173224Y-77525123D01*
X92392150Y-76997891D01*
X92392648Y-76427013D01*
X92174643Y-75899400D01*
X91771323Y-75495376D01*
X91244091Y-75276450D01*
X90673213Y-75275952D01*
X90145600Y-75493957D01*
X89741576Y-75897277D01*
X89522650Y-76424509D01*
X89522152Y-76995387D01*
X87528400Y-76995387D01*
X87528400Y-76135283D01*
X87594940Y-76068859D01*
X87744130Y-75709570D01*
X87744469Y-75320537D01*
X87595907Y-74960988D01*
X87321059Y-74685660D01*
X86961770Y-74536470D01*
X86572737Y-74536131D01*
X86213188Y-74684693D01*
X85937860Y-74959541D01*
X85908998Y-75029047D01*
X85817907Y-74808588D01*
X85750400Y-74740963D01*
X85750400Y-72115387D01*
X89522152Y-72115387D01*
X89740157Y-72643000D01*
X90143477Y-73047024D01*
X90670709Y-73265950D01*
X91241587Y-73266448D01*
X91345040Y-73223702D01*
X98717656Y-73223702D01*
X98745438Y-73778768D01*
X98904403Y-74162543D01*
X99146587Y-74232008D01*
X99947195Y-73431400D01*
X100306405Y-73431400D01*
X101107013Y-74232008D01*
X101349197Y-74162543D01*
X101535944Y-73639098D01*
X101508162Y-73084032D01*
X101349197Y-72700257D01*
X101107013Y-72630792D01*
X100306405Y-73431400D01*
X99947195Y-73431400D01*
X99146587Y-72630792D01*
X98904403Y-72700257D01*
X98717656Y-73223702D01*
X91345040Y-73223702D01*
X91769200Y-73048443D01*
X92173224Y-72645123D01*
X92392150Y-72117891D01*
X92392648Y-71547013D01*
X92174643Y-71019400D01*
X91771323Y-70615376D01*
X91244091Y-70396450D01*
X90673213Y-70395952D01*
X90145600Y-70613957D01*
X89741576Y-71017277D01*
X89522650Y-71544509D01*
X89522152Y-72115387D01*
X85750400Y-72115387D01*
X85750400Y-70948314D01*
X85842896Y-70948395D01*
X86202445Y-70799833D01*
X86477773Y-70524985D01*
X86626963Y-70165696D01*
X86627302Y-69776663D01*
X86478740Y-69417114D01*
X86410800Y-69349055D01*
X86410800Y-68797237D01*
X86545680Y-68999099D01*
X86557785Y-69017215D01*
X87421385Y-69880815D01*
X87668595Y-70045996D01*
X87960200Y-70104000D01*
X89040917Y-70104000D01*
X89107341Y-70170540D01*
X89466630Y-70319730D01*
X89855663Y-70320069D01*
X90215212Y-70171507D01*
X90490540Y-69896659D01*
X90639730Y-69537370D01*
X90640069Y-69148337D01*
X90491507Y-68788788D01*
X90216659Y-68513460D01*
X89857370Y-68364270D01*
X89468337Y-68363931D01*
X89108788Y-68512493D01*
X89041163Y-68580000D01*
X88275830Y-68580000D01*
X87858600Y-68162770D01*
X87858600Y-67462400D01*
X87800596Y-67170795D01*
X87710654Y-67036188D01*
X87635416Y-66923585D01*
X86848015Y-66136185D01*
X86779643Y-66090500D01*
X86600805Y-65971004D01*
X86309200Y-65913000D01*
X84455000Y-65913000D01*
X84199612Y-65963800D01*
X84163395Y-65971004D01*
X83916184Y-66136185D01*
X83705809Y-66346560D01*
X83705869Y-66278137D01*
X83557307Y-65918588D01*
X83282459Y-65643260D01*
X82923170Y-65494070D01*
X82534137Y-65493731D01*
X82174588Y-65642293D01*
X82106963Y-65709800D01*
X81519430Y-65709800D01*
X80987987Y-65178357D01*
X80988069Y-65084337D01*
X80839507Y-64724788D01*
X80564659Y-64449460D01*
X80205370Y-64300270D01*
X79816337Y-64299931D01*
X79456788Y-64448493D01*
X79181460Y-64723341D01*
X79032270Y-65082630D01*
X79031931Y-65471663D01*
X79180493Y-65831212D01*
X79455341Y-66106540D01*
X79814630Y-66255730D01*
X79910183Y-66255813D01*
X80664985Y-67010615D01*
X80912195Y-67175796D01*
X81203800Y-67233800D01*
X82106717Y-67233800D01*
X82173141Y-67300340D01*
X82532430Y-67449530D01*
X82921463Y-67449869D01*
X83281012Y-67301307D01*
X83312000Y-67270373D01*
X83312000Y-67299170D01*
X82475669Y-68135501D01*
X82029299Y-68135501D01*
X81738162Y-68193412D01*
X81737694Y-68193505D01*
X81634504Y-68262455D01*
X81492737Y-68262331D01*
X81133188Y-68410893D01*
X80857860Y-68685741D01*
X80708670Y-69045030D01*
X80708331Y-69434063D01*
X80856893Y-69793612D01*
X81131741Y-70068940D01*
X81491030Y-70218130D01*
X81880063Y-70218469D01*
X82239612Y-70069907D01*
X82514940Y-69795059D01*
X82571229Y-69659501D01*
X82668685Y-69659501D01*
X82564446Y-69910535D01*
X82564363Y-70006088D01*
X82417585Y-70152866D01*
X82252404Y-70400076D01*
X82194400Y-70691681D01*
X82194400Y-71616453D01*
X82164859Y-71586860D01*
X81805570Y-71437670D01*
X81416537Y-71437331D01*
X81056988Y-71585893D01*
X80924400Y-71718250D01*
X80924400Y-70739000D01*
X80866396Y-70447395D01*
X80800234Y-70348377D01*
X80701216Y-70200185D01*
X79662148Y-69161118D01*
X79633091Y-69141703D01*
X79414938Y-68995937D01*
X79123333Y-68937933D01*
X79055630Y-68937933D01*
X78734681Y-68616984D01*
X78729981Y-68609950D01*
X78593015Y-68472985D01*
X78512082Y-68418907D01*
X78345805Y-68307804D01*
X78054200Y-68249800D01*
X77228687Y-68249800D01*
X76937082Y-68307804D01*
X76689871Y-68472985D01*
X76620969Y-68541887D01*
X76274343Y-68541887D01*
X76561015Y-68255215D01*
X76726196Y-68008005D01*
X76734500Y-67966259D01*
X76784200Y-67716400D01*
X76784200Y-65989139D01*
X76850740Y-65922715D01*
X76999930Y-65563426D01*
X77000269Y-65174393D01*
X76851707Y-64814844D01*
X76576859Y-64539516D01*
X76356596Y-64448055D01*
X76397612Y-64431107D01*
X76541570Y-64287400D01*
X77255317Y-64287400D01*
X77321741Y-64353940D01*
X77681030Y-64503130D01*
X78070063Y-64503469D01*
X78429612Y-64354907D01*
X78704940Y-64080059D01*
X78711289Y-64064769D01*
X78849430Y-64122130D01*
X79238463Y-64122469D01*
X79598012Y-63973907D01*
X79873340Y-63699059D01*
X80022530Y-63339770D01*
X80022869Y-62950737D01*
X79952821Y-62781207D01*
X80051140Y-62683059D01*
X80200330Y-62323770D01*
X80200669Y-61934737D01*
X80052107Y-61575188D01*
X79777259Y-61299860D01*
X79417970Y-61150670D01*
X79028937Y-61150331D01*
X78669388Y-61298893D01*
X78601763Y-61366400D01*
X73621922Y-61366400D01*
X73622069Y-61198137D01*
X73543532Y-61008061D01*
X98729558Y-61008061D01*
X98941790Y-61521703D01*
X99334430Y-61915029D01*
X99542312Y-62001349D01*
X99336497Y-62086390D01*
X98943171Y-62479030D01*
X98730043Y-62992300D01*
X98729558Y-63548061D01*
X98941790Y-64061703D01*
X99334430Y-64455029D01*
X99542312Y-64541349D01*
X99336497Y-64626390D01*
X98943171Y-65019030D01*
X98730043Y-65532300D01*
X98729558Y-66088061D01*
X98941790Y-66601703D01*
X99334430Y-66995029D01*
X99542312Y-67081349D01*
X99336497Y-67166390D01*
X98943171Y-67559030D01*
X98730043Y-68072300D01*
X98729558Y-68628061D01*
X98941790Y-69141703D01*
X99334430Y-69535029D01*
X99542312Y-69621349D01*
X99336497Y-69706390D01*
X98943171Y-70099030D01*
X98730043Y-70612300D01*
X98729558Y-71168061D01*
X98941790Y-71681703D01*
X99334430Y-72075029D01*
X99526527Y-72154795D01*
X99395657Y-72209003D01*
X99326192Y-72451187D01*
X100126800Y-73251795D01*
X100927408Y-72451187D01*
X100857943Y-72209003D01*
X100717482Y-72158891D01*
X100917103Y-72076410D01*
X101310429Y-71683770D01*
X101523557Y-71170500D01*
X101524042Y-70614739D01*
X101311810Y-70101097D01*
X100919170Y-69707771D01*
X100711288Y-69621451D01*
X100917103Y-69536410D01*
X101310429Y-69143770D01*
X101523557Y-68630500D01*
X101524042Y-68074739D01*
X101311810Y-67561097D01*
X100919170Y-67167771D01*
X100711288Y-67081451D01*
X100917103Y-66996410D01*
X101310429Y-66603770D01*
X101523557Y-66090500D01*
X101524042Y-65534739D01*
X101311810Y-65021097D01*
X100919170Y-64627771D01*
X100711288Y-64541451D01*
X100917103Y-64456410D01*
X101310429Y-64063770D01*
X101523557Y-63550500D01*
X101524042Y-62994739D01*
X101311810Y-62481097D01*
X100919170Y-62087771D01*
X100711288Y-62001451D01*
X100917103Y-61916410D01*
X101310429Y-61523770D01*
X101523557Y-61010500D01*
X101524042Y-60454739D01*
X101311810Y-59941097D01*
X100919170Y-59547771D01*
X100727073Y-59468005D01*
X100857943Y-59413797D01*
X100927408Y-59171613D01*
X100126800Y-58371005D01*
X99326192Y-59171613D01*
X99395657Y-59413797D01*
X99536118Y-59463909D01*
X99336497Y-59546390D01*
X98943171Y-59939030D01*
X98730043Y-60452300D01*
X98729558Y-61008061D01*
X73543532Y-61008061D01*
X73473507Y-60838588D01*
X73198659Y-60563260D01*
X72839370Y-60414070D01*
X72450337Y-60413731D01*
X72090788Y-60562293D01*
X71815460Y-60837141D01*
X71797745Y-60879803D01*
X71571784Y-61030785D01*
X70690157Y-61912413D01*
X70596137Y-61912331D01*
X70236588Y-62060893D01*
X69961260Y-62335741D01*
X69812070Y-62695030D01*
X69811731Y-63084063D01*
X69960293Y-63443612D01*
X70235141Y-63718940D01*
X70594430Y-63868130D01*
X70983463Y-63868469D01*
X71343012Y-63719907D01*
X71488334Y-63574838D01*
X71657541Y-63744340D01*
X71671985Y-63750338D01*
X71609804Y-63843397D01*
X71551800Y-64135002D01*
X71551800Y-64733117D01*
X71534407Y-64750479D01*
X71492307Y-64648588D01*
X71217459Y-64373260D01*
X70858170Y-64224070D01*
X70469137Y-64223731D01*
X70109588Y-64372293D01*
X70041963Y-64439800D01*
X68641630Y-64439800D01*
X65986090Y-61784260D01*
X66236070Y-61617229D01*
X66560926Y-61131048D01*
X66675000Y-60557559D01*
X66675000Y-60498841D01*
X66560926Y-59925352D01*
X66249826Y-59459758D01*
X66275317Y-59454962D01*
X66491441Y-59315890D01*
X66636431Y-59103690D01*
X66687440Y-58851800D01*
X66687440Y-57983702D01*
X98717656Y-57983702D01*
X98745438Y-58538768D01*
X98904403Y-58922543D01*
X99146587Y-58992008D01*
X99947195Y-58191400D01*
X100306405Y-58191400D01*
X101107013Y-58992008D01*
X101349197Y-58922543D01*
X101535944Y-58399098D01*
X101508162Y-57844032D01*
X101349197Y-57460257D01*
X101107013Y-57390792D01*
X100306405Y-58191400D01*
X99947195Y-58191400D01*
X99146587Y-57390792D01*
X98904403Y-57460257D01*
X98717656Y-57983702D01*
X66687440Y-57983702D01*
X66687440Y-57124600D01*
X66643162Y-56889283D01*
X66641348Y-56886463D01*
X74612331Y-56886463D01*
X74760893Y-57246012D01*
X75035741Y-57521340D01*
X75395030Y-57670530D01*
X75784063Y-57670869D01*
X76143612Y-57522307D01*
X76185793Y-57480200D01*
X77376317Y-57480200D01*
X77442741Y-57546740D01*
X77802030Y-57695930D01*
X78191063Y-57696269D01*
X78550612Y-57547707D01*
X78825940Y-57272859D01*
X78975130Y-56913570D01*
X78975469Y-56524537D01*
X78826907Y-56164988D01*
X78552059Y-55889660D01*
X78192770Y-55740470D01*
X77803737Y-55740131D01*
X77444188Y-55888693D01*
X77376563Y-55956200D01*
X76236839Y-55956200D01*
X76145059Y-55864260D01*
X75785770Y-55715070D01*
X75396737Y-55714731D01*
X75037188Y-55863293D01*
X74761860Y-56138141D01*
X74612670Y-56497430D01*
X74612331Y-56886463D01*
X66641348Y-56886463D01*
X66504090Y-56673159D01*
X66291890Y-56528169D01*
X66040000Y-56477160D01*
X64312800Y-56477160D01*
X64077483Y-56521438D01*
X63861359Y-56660510D01*
X63716369Y-56872710D01*
X63707536Y-56916331D01*
X63696070Y-56899171D01*
X63209889Y-56574315D01*
X62636400Y-56460241D01*
X62062911Y-56574315D01*
X61576730Y-56899171D01*
X61360736Y-57222428D01*
X61303221Y-57099710D01*
X60871347Y-56705512D01*
X60455426Y-56533242D01*
X60223400Y-56654383D01*
X60223400Y-57861200D01*
X60243400Y-57861200D01*
X60243400Y-58115200D01*
X60223400Y-58115200D01*
X60223400Y-58135200D01*
X59969400Y-58135200D01*
X59969400Y-58115200D01*
X58761931Y-58115200D01*
X58641432Y-58347227D01*
X58889579Y-58876690D01*
X59307561Y-59258208D01*
X59036730Y-59439171D01*
X58711874Y-59925352D01*
X58597800Y-60498841D01*
X58597800Y-60557559D01*
X58711874Y-61131048D01*
X59036730Y-61617229D01*
X59522911Y-61942085D01*
X60096400Y-62056159D01*
X60472014Y-61981445D01*
X61233985Y-62743416D01*
X61350703Y-62821404D01*
X61481195Y-62908596D01*
X61772800Y-62966600D01*
X65013170Y-62966600D01*
X67787185Y-65740615D01*
X68034395Y-65905796D01*
X68326000Y-65963800D01*
X69874297Y-65963800D01*
X69786670Y-66174830D01*
X69786587Y-66270383D01*
X69623158Y-66433812D01*
X69300737Y-66433531D01*
X68941188Y-66582093D01*
X68665860Y-66856941D01*
X68516670Y-67216230D01*
X68516331Y-67605263D01*
X68664893Y-67964812D01*
X68746538Y-68046600D01*
X68438431Y-68046600D01*
X67081400Y-66689569D01*
X67081400Y-65735200D01*
X67037973Y-65504405D01*
X66901573Y-65292433D01*
X66693451Y-65150229D01*
X66446400Y-65100200D01*
X65492030Y-65100200D01*
X65105615Y-64713785D01*
X64858405Y-64548604D01*
X64566800Y-64490600D01*
X60463483Y-64490600D01*
X60397059Y-64424060D01*
X60037770Y-64274870D01*
X59648737Y-64274531D01*
X59289188Y-64423093D01*
X59013860Y-64697941D01*
X58864670Y-65057230D01*
X58864633Y-65100200D01*
X46761400Y-65100200D01*
X46761400Y-61925200D01*
X46717973Y-61694405D01*
X46581573Y-61482433D01*
X46373451Y-61340229D01*
X46126400Y-61290200D01*
X26121181Y-61290200D01*
X26345169Y-61066603D01*
X26533583Y-60612852D01*
X26534012Y-60121539D01*
X26346390Y-59667461D01*
X25999283Y-59319747D01*
X25545532Y-59131333D01*
X25054219Y-59130904D01*
X24600141Y-59318526D01*
X24252427Y-59665633D01*
X24064013Y-60119384D01*
X24063584Y-60610697D01*
X24251206Y-61064775D01*
X24476237Y-61290200D01*
X23977600Y-61290200D01*
X23977600Y-57629173D01*
X58641432Y-57629173D01*
X58761931Y-57861200D01*
X59969400Y-57861200D01*
X59969400Y-56654383D01*
X59737374Y-56533242D01*
X59321453Y-56705512D01*
X58889579Y-57099710D01*
X58641432Y-57629173D01*
X23977600Y-57629173D01*
X23977600Y-53510697D01*
X24063584Y-53510697D01*
X24251206Y-53964775D01*
X24598313Y-54312489D01*
X25052064Y-54500903D01*
X25543377Y-54501332D01*
X25997455Y-54313710D01*
X26345169Y-53966603D01*
X26533583Y-53512852D01*
X26533714Y-53362422D01*
X33201784Y-53362422D01*
X33422553Y-53733143D01*
X34394212Y-54126519D01*
X35442447Y-54118113D01*
X36371847Y-53733143D01*
X36592616Y-53362422D01*
X34897200Y-51667005D01*
X33201784Y-53362422D01*
X26533714Y-53362422D01*
X26534012Y-53021539D01*
X26346390Y-52567461D01*
X25999283Y-52219747D01*
X25545532Y-52031333D01*
X25054219Y-52030904D01*
X24600141Y-52218526D01*
X24252427Y-52565633D01*
X24064013Y-53019384D01*
X24063584Y-53510697D01*
X23977600Y-53510697D01*
X23977600Y-50984412D01*
X32258081Y-50984412D01*
X32266487Y-52032647D01*
X32651457Y-52962047D01*
X33022178Y-53182816D01*
X34717595Y-51487400D01*
X35076805Y-51487400D01*
X36772222Y-53182816D01*
X37142943Y-52962047D01*
X37414785Y-52290582D01*
X48539141Y-52290582D01*
X48766808Y-52841580D01*
X49188003Y-53263510D01*
X49738602Y-53492139D01*
X50334782Y-53492659D01*
X50587929Y-53388061D01*
X98729558Y-53388061D01*
X98941790Y-53901703D01*
X99334430Y-54295029D01*
X99542312Y-54381349D01*
X99336497Y-54466390D01*
X98943171Y-54859030D01*
X98730043Y-55372300D01*
X98729558Y-55928061D01*
X98941790Y-56441703D01*
X99334430Y-56835029D01*
X99526527Y-56914795D01*
X99395657Y-56969003D01*
X99326192Y-57211187D01*
X100126800Y-58011795D01*
X100927408Y-57211187D01*
X100857943Y-56969003D01*
X100717482Y-56918891D01*
X100917103Y-56836410D01*
X101310429Y-56443770D01*
X101523557Y-55930500D01*
X101524042Y-55374739D01*
X101311810Y-54861097D01*
X100919170Y-54467771D01*
X100711288Y-54381451D01*
X100917103Y-54296410D01*
X101310429Y-53903770D01*
X101523557Y-53390500D01*
X101524042Y-52834739D01*
X101311810Y-52321097D01*
X100919170Y-51927771D01*
X100405900Y-51714643D01*
X99850139Y-51714158D01*
X99336497Y-51926390D01*
X98943171Y-52319030D01*
X98730043Y-52832300D01*
X98729558Y-53388061D01*
X50587929Y-53388061D01*
X50885780Y-53264992D01*
X51307710Y-52843797D01*
X51536339Y-52293198D01*
X51536859Y-51697018D01*
X51309192Y-51146020D01*
X50887997Y-50724090D01*
X50337398Y-50495461D01*
X49741218Y-50494941D01*
X49190220Y-50722608D01*
X48768290Y-51143803D01*
X48539661Y-51694402D01*
X48539141Y-52290582D01*
X37414785Y-52290582D01*
X37536319Y-51990388D01*
X37527913Y-50942153D01*
X37265182Y-50307863D01*
X52431769Y-50307863D01*
X52580331Y-50667412D01*
X52855179Y-50942740D01*
X53214468Y-51091930D01*
X53603501Y-51092269D01*
X53963050Y-50943707D01*
X54238378Y-50668859D01*
X54358473Y-50379639D01*
X56287478Y-48450634D01*
X56327663Y-48450669D01*
X56687212Y-48302107D01*
X56962540Y-48027259D01*
X57111730Y-47667970D01*
X57112069Y-47278937D01*
X56963507Y-46919388D01*
X56688659Y-46644060D01*
X56329370Y-46494870D01*
X55940337Y-46494531D01*
X55580788Y-46643093D01*
X55305460Y-46917941D01*
X55156270Y-47277230D01*
X55156234Y-47318854D01*
X53338850Y-49136238D01*
X53216175Y-49136131D01*
X52856626Y-49284693D01*
X52581298Y-49559541D01*
X52432108Y-49918830D01*
X52431769Y-50307863D01*
X37265182Y-50307863D01*
X37142943Y-50012753D01*
X36772222Y-49791984D01*
X35076805Y-51487400D01*
X34717595Y-51487400D01*
X33022178Y-49791984D01*
X32651457Y-50012753D01*
X32258081Y-50984412D01*
X23977600Y-50984412D01*
X23977600Y-49612378D01*
X33201784Y-49612378D01*
X34897200Y-51307795D01*
X36592616Y-49612378D01*
X36371847Y-49241657D01*
X35400188Y-48848281D01*
X34351953Y-48856687D01*
X33422553Y-49241657D01*
X33201784Y-49612378D01*
X23977600Y-49612378D01*
X23977600Y-48663422D01*
X30202044Y-48663422D01*
X30422813Y-49034143D01*
X31394472Y-49427519D01*
X32442707Y-49419113D01*
X33372107Y-49034143D01*
X33592876Y-48663422D01*
X31897460Y-46968005D01*
X30202044Y-48663422D01*
X23977600Y-48663422D01*
X23977600Y-46285412D01*
X29258341Y-46285412D01*
X29266747Y-47333647D01*
X29651717Y-48263047D01*
X30022438Y-48483816D01*
X31717855Y-46788400D01*
X32077065Y-46788400D01*
X33772482Y-48483816D01*
X34143203Y-48263047D01*
X34528949Y-47310234D01*
X35261483Y-47310234D01*
X35661793Y-48279058D01*
X36402383Y-49020942D01*
X37370507Y-49422942D01*
X38418774Y-49423857D01*
X39387598Y-49023547D01*
X40129482Y-48282957D01*
X40531482Y-47314833D01*
X40532397Y-46266566D01*
X40132087Y-45297742D01*
X39391497Y-44555858D01*
X38423373Y-44153858D01*
X37375106Y-44152943D01*
X36406282Y-44553253D01*
X35664398Y-45293843D01*
X35262398Y-46261967D01*
X35261483Y-47310234D01*
X34528949Y-47310234D01*
X34536579Y-47291388D01*
X34528173Y-46243153D01*
X34143203Y-45313753D01*
X33772482Y-45092984D01*
X32077065Y-46788400D01*
X31717855Y-46788400D01*
X30022438Y-45092984D01*
X29651717Y-45313753D01*
X29258341Y-46285412D01*
X23977600Y-46285412D01*
X23977600Y-44946255D01*
X23981111Y-44936056D01*
X23984195Y-44913378D01*
X30202044Y-44913378D01*
X31897460Y-46608795D01*
X33592876Y-44913378D01*
X33372107Y-44542657D01*
X32400448Y-44149281D01*
X31352213Y-44157687D01*
X30422813Y-44542657D01*
X30202044Y-44913378D01*
X23984195Y-44913378D01*
X24096397Y-44088503D01*
X24455994Y-43471793D01*
X25024222Y-43039639D01*
X25773001Y-42842445D01*
X25780265Y-42842223D01*
X25826400Y-42851400D01*
X25826400Y-42851400D01*
G37*
X25826400Y-42851400D02*
X101441351Y-42851400D01*
X102152342Y-42992824D01*
X102695709Y-43355891D01*
X103058775Y-43899256D01*
X103149400Y-44354859D01*
X103149400Y-96382033D01*
X103087438Y-96817666D01*
X102726258Y-97428504D01*
X102158812Y-97854630D01*
X101619308Y-97993200D01*
X67081400Y-97993200D01*
X67081400Y-94349512D01*
X69741444Y-97009556D01*
X70001015Y-97182996D01*
X70307200Y-97243900D01*
X94538800Y-97243900D01*
X94844985Y-97182996D01*
X95104556Y-97009556D01*
X97994278Y-94119834D01*
X98034463Y-94119869D01*
X98394012Y-93971307D01*
X98669340Y-93696459D01*
X98818530Y-93337170D01*
X98818869Y-92948137D01*
X98670307Y-92588588D01*
X98395459Y-92313260D01*
X98036170Y-92164070D01*
X97647137Y-92163731D01*
X97287588Y-92312293D01*
X97012260Y-92587141D01*
X96863070Y-92946430D01*
X96863034Y-92988054D01*
X94207388Y-95643700D01*
X70638612Y-95643700D01*
X68076375Y-93081463D01*
X68414731Y-93081463D01*
X68563293Y-93441012D01*
X68838141Y-93716340D01*
X69197430Y-93865530D01*
X69586463Y-93865869D01*
X69946012Y-93717307D01*
X70221340Y-93442459D01*
X70370530Y-93083170D01*
X70370869Y-92694137D01*
X70222307Y-92334588D01*
X69947459Y-92059260D01*
X69588170Y-91910070D01*
X69199137Y-91909731D01*
X68839588Y-92058293D01*
X68564260Y-92333141D01*
X68415070Y-92692430D01*
X68414731Y-93081463D01*
X68076375Y-93081463D01*
X67672556Y-92677644D01*
X67412985Y-92504204D01*
X67106800Y-92443300D01*
X67081400Y-92443300D01*
X67081400Y-78941330D01*
X67290015Y-78732715D01*
X67375238Y-78605170D01*
X67455196Y-78485505D01*
X67511634Y-78201772D01*
X67486112Y-79640906D01*
X67495426Y-79690947D01*
X67523289Y-79732961D01*
X68793289Y-81002961D01*
X68833682Y-81030152D01*
X68883092Y-81040158D01*
X77138092Y-81040158D01*
X77185881Y-81030824D01*
X77227895Y-81002961D01*
X77268513Y-80962343D01*
X78962265Y-82656095D01*
X78498200Y-82838843D01*
X78327567Y-82952857D01*
X77729354Y-83645749D01*
X81661000Y-87577395D01*
X81675143Y-87563253D01*
X81854748Y-87742858D01*
X81840605Y-87757000D01*
X85772251Y-91688646D01*
X86465143Y-91090433D01*
X87375099Y-88998224D01*
X87413560Y-86806791D01*
X87413560Y-90307000D01*
X87457838Y-90542317D01*
X87596910Y-90758441D01*
X87809110Y-90903431D01*
X88061000Y-90954440D01*
X88079329Y-90954440D01*
X85663370Y-93370400D01*
X83058326Y-93370400D01*
X84823800Y-92675157D01*
X84994433Y-92561143D01*
X85592646Y-91868251D01*
X81661000Y-87936605D01*
X77729354Y-91868251D01*
X78327567Y-92561143D01*
X80188245Y-93370400D01*
X76007630Y-93370400D01*
X74773000Y-92135770D01*
X74773000Y-90954440D01*
X75261000Y-90954440D01*
X75496317Y-90910162D01*
X75712441Y-90771090D01*
X75857431Y-90558890D01*
X75908440Y-90307000D01*
X75908440Y-88800948D01*
X76742843Y-90919800D01*
X76856857Y-91090433D01*
X77549749Y-91688646D01*
X81481395Y-87757000D01*
X77549749Y-83825354D01*
X76856857Y-84423567D01*
X75946901Y-86515776D01*
X75908440Y-88707209D01*
X75908440Y-85207000D01*
X75864162Y-84971683D01*
X75725090Y-84755559D01*
X75512890Y-84610569D01*
X75261000Y-84559560D01*
X72761000Y-84559560D01*
X72525683Y-84603838D01*
X72309559Y-84742910D01*
X72164569Y-84955110D01*
X72113560Y-85207000D01*
X72113560Y-90307000D01*
X72157838Y-90542317D01*
X72296910Y-90758441D01*
X72509110Y-90903431D01*
X72761000Y-90954440D01*
X73249000Y-90954440D01*
X73249000Y-92451400D01*
X73307004Y-92743005D01*
X73442929Y-92946430D01*
X73472185Y-92990215D01*
X75153185Y-94671215D01*
X75400395Y-94836396D01*
X75692000Y-94894400D01*
X85979000Y-94894400D01*
X86270605Y-94836396D01*
X86517815Y-94671215D01*
X88542130Y-92646900D01*
X89631360Y-92646900D01*
X89631360Y-94678900D01*
X89675638Y-94914217D01*
X89814710Y-95130341D01*
X90026910Y-95275331D01*
X90278800Y-95326340D01*
X92310800Y-95326340D01*
X92546117Y-95282062D01*
X92762241Y-95142990D01*
X92873640Y-94979952D01*
X92969982Y-95069285D01*
X93451856Y-95268875D01*
X93707800Y-95149736D01*
X93707800Y-93789900D01*
X93961800Y-93789900D01*
X93961800Y-95149736D01*
X94217744Y-95268875D01*
X94699618Y-95069285D01*
X95171988Y-94631279D01*
X95440783Y-94045846D01*
X95322167Y-93789900D01*
X93961800Y-93789900D01*
X93707800Y-93789900D01*
X93687800Y-93789900D01*
X93687800Y-93535900D01*
X93707800Y-93535900D01*
X93707800Y-92176064D01*
X93961800Y-92176064D01*
X93961800Y-93535900D01*
X95322167Y-93535900D01*
X95440783Y-93279954D01*
X95171988Y-92694521D01*
X94699618Y-92256515D01*
X94217744Y-92056925D01*
X93961800Y-92176064D01*
X93707800Y-92176064D01*
X93451856Y-92056925D01*
X92969982Y-92256515D01*
X92872402Y-92346997D01*
X92774890Y-92195459D01*
X92562690Y-92050469D01*
X92310800Y-91999460D01*
X90278800Y-91999460D01*
X90043483Y-92043738D01*
X89827359Y-92182810D01*
X89682369Y-92395010D01*
X89631360Y-92646900D01*
X88542130Y-92646900D01*
X89849816Y-91339215D01*
X90014997Y-91092004D01*
X90042360Y-90954440D01*
X90561000Y-90954440D01*
X90796317Y-90910162D01*
X91012441Y-90771090D01*
X91157431Y-90558890D01*
X91208440Y-90307000D01*
X91208440Y-86859154D01*
X91264157Y-86994000D01*
X91667477Y-87398024D01*
X92194709Y-87616950D01*
X92765587Y-87617448D01*
X93293200Y-87399443D01*
X93697224Y-86996123D01*
X93916150Y-86468891D01*
X93916648Y-85898013D01*
X93698643Y-85370400D01*
X93295323Y-84966376D01*
X93228856Y-84938777D01*
X93235405Y-84936064D01*
X93309539Y-84689945D01*
X92481400Y-83861805D01*
X91653261Y-84689945D01*
X91727395Y-84936064D01*
X91733883Y-84938396D01*
X91669600Y-84964957D01*
X91265576Y-85368277D01*
X91208440Y-85505876D01*
X91208440Y-85207000D01*
X91164162Y-84971683D01*
X91025090Y-84755559D01*
X90812890Y-84610569D01*
X90561000Y-84559560D01*
X88491190Y-84559560D01*
X87397053Y-83465423D01*
X91034435Y-83465423D01*
X91061622Y-84035654D01*
X91227536Y-84436205D01*
X91473655Y-84510339D01*
X92301795Y-83682200D01*
X92661005Y-83682200D01*
X93489145Y-84510339D01*
X93735264Y-84436205D01*
X93928365Y-83898977D01*
X93901178Y-83328746D01*
X93735264Y-82928195D01*
X93489145Y-82854061D01*
X92661005Y-83682200D01*
X92301795Y-83682200D01*
X91473655Y-82854061D01*
X91227536Y-82928195D01*
X91034435Y-83465423D01*
X87397053Y-83465423D01*
X87151861Y-83220231D01*
X87319612Y-83150918D01*
X87594940Y-82876070D01*
X87678657Y-82674455D01*
X91653261Y-82674455D01*
X92481400Y-83502595D01*
X93309539Y-82674455D01*
X93235405Y-82428336D01*
X92698177Y-82235235D01*
X92127946Y-82262422D01*
X91727395Y-82428336D01*
X91653261Y-82674455D01*
X87678657Y-82674455D01*
X87744130Y-82516781D01*
X87744469Y-82127748D01*
X87726089Y-82083263D01*
X97523131Y-82083263D01*
X97671693Y-82442812D01*
X97946541Y-82718140D01*
X98305830Y-82867330D01*
X98694863Y-82867669D01*
X99001215Y-82741088D01*
X98943171Y-82799030D01*
X98730043Y-83312300D01*
X98729558Y-83868061D01*
X98941790Y-84381703D01*
X99334430Y-84775029D01*
X99542312Y-84861349D01*
X99336497Y-84946390D01*
X98943171Y-85339030D01*
X98730043Y-85852300D01*
X98729558Y-86408061D01*
X98941790Y-86921703D01*
X99334430Y-87315029D01*
X99542312Y-87401349D01*
X99336497Y-87486390D01*
X98943171Y-87879030D01*
X98730043Y-88392300D01*
X98729558Y-88948061D01*
X98941790Y-89461703D01*
X99334430Y-89855029D01*
X99542312Y-89941349D01*
X99336497Y-90026390D01*
X98943171Y-90419030D01*
X98730043Y-90932300D01*
X98729558Y-91488061D01*
X98941790Y-92001703D01*
X99334430Y-92395029D01*
X99847700Y-92608157D01*
X100403461Y-92608642D01*
X100917103Y-92396410D01*
X101310429Y-92003770D01*
X101523557Y-91490500D01*
X101524042Y-90934739D01*
X101311810Y-90421097D01*
X100919170Y-90027771D01*
X100711288Y-89941451D01*
X100917103Y-89856410D01*
X101310429Y-89463770D01*
X101523557Y-88950500D01*
X101524042Y-88394739D01*
X101311810Y-87881097D01*
X100919170Y-87487771D01*
X100711288Y-87401451D01*
X100917103Y-87316410D01*
X101310429Y-86923770D01*
X101523557Y-86410500D01*
X101524042Y-85854739D01*
X101311810Y-85341097D01*
X100919170Y-84947771D01*
X100711288Y-84861451D01*
X100917103Y-84776410D01*
X101310429Y-84383770D01*
X101523557Y-83870500D01*
X101524042Y-83314739D01*
X101311810Y-82801097D01*
X100919170Y-82407771D01*
X100711288Y-82321451D01*
X100917103Y-82236410D01*
X101310429Y-81843770D01*
X101523557Y-81330500D01*
X101524042Y-80774739D01*
X101311810Y-80261097D01*
X100919170Y-79867771D01*
X100711288Y-79781451D01*
X100917103Y-79696410D01*
X101310429Y-79303770D01*
X101523557Y-78790500D01*
X101524042Y-78234739D01*
X101311810Y-77721097D01*
X100919170Y-77327771D01*
X100711288Y-77241451D01*
X100917103Y-77156410D01*
X101310429Y-76763770D01*
X101523557Y-76250500D01*
X101524042Y-75694739D01*
X101311810Y-75181097D01*
X100919170Y-74787771D01*
X100727073Y-74708005D01*
X100857943Y-74653797D01*
X100927408Y-74411613D01*
X100126800Y-73611005D01*
X99326192Y-74411613D01*
X99395657Y-74653797D01*
X99536118Y-74703909D01*
X99336497Y-74786390D01*
X98943171Y-75179030D01*
X98730043Y-75692300D01*
X98729558Y-76248061D01*
X98941790Y-76761703D01*
X99334430Y-77155029D01*
X99542312Y-77241349D01*
X99336497Y-77326390D01*
X98943171Y-77719030D01*
X98730043Y-78232300D01*
X98729558Y-78788061D01*
X98742116Y-78818454D01*
X97962385Y-79598185D01*
X97797204Y-79845395D01*
X97739200Y-80137000D01*
X97739200Y-81268517D01*
X97672660Y-81334941D01*
X97523470Y-81694230D01*
X97523131Y-82083263D01*
X87726089Y-82083263D01*
X87595907Y-81768199D01*
X87528400Y-81700574D01*
X87528400Y-76995387D01*
X89522152Y-76995387D01*
X89740157Y-77523000D01*
X90143477Y-77927024D01*
X90670709Y-78145950D01*
X91241587Y-78146448D01*
X91769200Y-77928443D01*
X92173224Y-77525123D01*
X92392150Y-76997891D01*
X92392648Y-76427013D01*
X92174643Y-75899400D01*
X91771323Y-75495376D01*
X91244091Y-75276450D01*
X90673213Y-75275952D01*
X90145600Y-75493957D01*
X89741576Y-75897277D01*
X89522650Y-76424509D01*
X89522152Y-76995387D01*
X87528400Y-76995387D01*
X87528400Y-76135283D01*
X87594940Y-76068859D01*
X87744130Y-75709570D01*
X87744469Y-75320537D01*
X87595907Y-74960988D01*
X87321059Y-74685660D01*
X86961770Y-74536470D01*
X86572737Y-74536131D01*
X86213188Y-74684693D01*
X85937860Y-74959541D01*
X85908998Y-75029047D01*
X85817907Y-74808588D01*
X85750400Y-74740963D01*
X85750400Y-72115387D01*
X89522152Y-72115387D01*
X89740157Y-72643000D01*
X90143477Y-73047024D01*
X90670709Y-73265950D01*
X91241587Y-73266448D01*
X91345040Y-73223702D01*
X98717656Y-73223702D01*
X98745438Y-73778768D01*
X98904403Y-74162543D01*
X99146587Y-74232008D01*
X99947195Y-73431400D01*
X100306405Y-73431400D01*
X101107013Y-74232008D01*
X101349197Y-74162543D01*
X101535944Y-73639098D01*
X101508162Y-73084032D01*
X101349197Y-72700257D01*
X101107013Y-72630792D01*
X100306405Y-73431400D01*
X99947195Y-73431400D01*
X99146587Y-72630792D01*
X98904403Y-72700257D01*
X98717656Y-73223702D01*
X91345040Y-73223702D01*
X91769200Y-73048443D01*
X92173224Y-72645123D01*
X92392150Y-72117891D01*
X92392648Y-71547013D01*
X92174643Y-71019400D01*
X91771323Y-70615376D01*
X91244091Y-70396450D01*
X90673213Y-70395952D01*
X90145600Y-70613957D01*
X89741576Y-71017277D01*
X89522650Y-71544509D01*
X89522152Y-72115387D01*
X85750400Y-72115387D01*
X85750400Y-70948314D01*
X85842896Y-70948395D01*
X86202445Y-70799833D01*
X86477773Y-70524985D01*
X86626963Y-70165696D01*
X86627302Y-69776663D01*
X86478740Y-69417114D01*
X86410800Y-69349055D01*
X86410800Y-68797237D01*
X86545680Y-68999099D01*
X86557785Y-69017215D01*
X87421385Y-69880815D01*
X87668595Y-70045996D01*
X87960200Y-70104000D01*
X89040917Y-70104000D01*
X89107341Y-70170540D01*
X89466630Y-70319730D01*
X89855663Y-70320069D01*
X90215212Y-70171507D01*
X90490540Y-69896659D01*
X90639730Y-69537370D01*
X90640069Y-69148337D01*
X90491507Y-68788788D01*
X90216659Y-68513460D01*
X89857370Y-68364270D01*
X89468337Y-68363931D01*
X89108788Y-68512493D01*
X89041163Y-68580000D01*
X88275830Y-68580000D01*
X87858600Y-68162770D01*
X87858600Y-67462400D01*
X87800596Y-67170795D01*
X87710654Y-67036188D01*
X87635416Y-66923585D01*
X86848015Y-66136185D01*
X86779643Y-66090500D01*
X86600805Y-65971004D01*
X86309200Y-65913000D01*
X84455000Y-65913000D01*
X84199612Y-65963800D01*
X84163395Y-65971004D01*
X83916184Y-66136185D01*
X83705809Y-66346560D01*
X83705869Y-66278137D01*
X83557307Y-65918588D01*
X83282459Y-65643260D01*
X82923170Y-65494070D01*
X82534137Y-65493731D01*
X82174588Y-65642293D01*
X82106963Y-65709800D01*
X81519430Y-65709800D01*
X80987987Y-65178357D01*
X80988069Y-65084337D01*
X80839507Y-64724788D01*
X80564659Y-64449460D01*
X80205370Y-64300270D01*
X79816337Y-64299931D01*
X79456788Y-64448493D01*
X79181460Y-64723341D01*
X79032270Y-65082630D01*
X79031931Y-65471663D01*
X79180493Y-65831212D01*
X79455341Y-66106540D01*
X79814630Y-66255730D01*
X79910183Y-66255813D01*
X80664985Y-67010615D01*
X80912195Y-67175796D01*
X81203800Y-67233800D01*
X82106717Y-67233800D01*
X82173141Y-67300340D01*
X82532430Y-67449530D01*
X82921463Y-67449869D01*
X83281012Y-67301307D01*
X83312000Y-67270373D01*
X83312000Y-67299170D01*
X82475669Y-68135501D01*
X82029299Y-68135501D01*
X81738162Y-68193412D01*
X81737694Y-68193505D01*
X81634504Y-68262455D01*
X81492737Y-68262331D01*
X81133188Y-68410893D01*
X80857860Y-68685741D01*
X80708670Y-69045030D01*
X80708331Y-69434063D01*
X80856893Y-69793612D01*
X81131741Y-70068940D01*
X81491030Y-70218130D01*
X81880063Y-70218469D01*
X82239612Y-70069907D01*
X82514940Y-69795059D01*
X82571229Y-69659501D01*
X82668685Y-69659501D01*
X82564446Y-69910535D01*
X82564363Y-70006088D01*
X82417585Y-70152866D01*
X82252404Y-70400076D01*
X82194400Y-70691681D01*
X82194400Y-71616453D01*
X82164859Y-71586860D01*
X81805570Y-71437670D01*
X81416537Y-71437331D01*
X81056988Y-71585893D01*
X80924400Y-71718250D01*
X80924400Y-70739000D01*
X80866396Y-70447395D01*
X80800234Y-70348377D01*
X80701216Y-70200185D01*
X79662148Y-69161118D01*
X79633091Y-69141703D01*
X79414938Y-68995937D01*
X79123333Y-68937933D01*
X79055630Y-68937933D01*
X78734681Y-68616984D01*
X78729981Y-68609950D01*
X78593015Y-68472985D01*
X78512082Y-68418907D01*
X78345805Y-68307804D01*
X78054200Y-68249800D01*
X77228687Y-68249800D01*
X76937082Y-68307804D01*
X76689871Y-68472985D01*
X76620969Y-68541887D01*
X76274343Y-68541887D01*
X76561015Y-68255215D01*
X76726196Y-68008005D01*
X76734500Y-67966259D01*
X76784200Y-67716400D01*
X76784200Y-65989139D01*
X76850740Y-65922715D01*
X76999930Y-65563426D01*
X77000269Y-65174393D01*
X76851707Y-64814844D01*
X76576859Y-64539516D01*
X76356596Y-64448055D01*
X76397612Y-64431107D01*
X76541570Y-64287400D01*
X77255317Y-64287400D01*
X77321741Y-64353940D01*
X77681030Y-64503130D01*
X78070063Y-64503469D01*
X78429612Y-64354907D01*
X78704940Y-64080059D01*
X78711289Y-64064769D01*
X78849430Y-64122130D01*
X79238463Y-64122469D01*
X79598012Y-63973907D01*
X79873340Y-63699059D01*
X80022530Y-63339770D01*
X80022869Y-62950737D01*
X79952821Y-62781207D01*
X80051140Y-62683059D01*
X80200330Y-62323770D01*
X80200669Y-61934737D01*
X80052107Y-61575188D01*
X79777259Y-61299860D01*
X79417970Y-61150670D01*
X79028937Y-61150331D01*
X78669388Y-61298893D01*
X78601763Y-61366400D01*
X73621922Y-61366400D01*
X73622069Y-61198137D01*
X73543532Y-61008061D01*
X98729558Y-61008061D01*
X98941790Y-61521703D01*
X99334430Y-61915029D01*
X99542312Y-62001349D01*
X99336497Y-62086390D01*
X98943171Y-62479030D01*
X98730043Y-62992300D01*
X98729558Y-63548061D01*
X98941790Y-64061703D01*
X99334430Y-64455029D01*
X99542312Y-64541349D01*
X99336497Y-64626390D01*
X98943171Y-65019030D01*
X98730043Y-65532300D01*
X98729558Y-66088061D01*
X98941790Y-66601703D01*
X99334430Y-66995029D01*
X99542312Y-67081349D01*
X99336497Y-67166390D01*
X98943171Y-67559030D01*
X98730043Y-68072300D01*
X98729558Y-68628061D01*
X98941790Y-69141703D01*
X99334430Y-69535029D01*
X99542312Y-69621349D01*
X99336497Y-69706390D01*
X98943171Y-70099030D01*
X98730043Y-70612300D01*
X98729558Y-71168061D01*
X98941790Y-71681703D01*
X99334430Y-72075029D01*
X99526527Y-72154795D01*
X99395657Y-72209003D01*
X99326192Y-72451187D01*
X100126800Y-73251795D01*
X100927408Y-72451187D01*
X100857943Y-72209003D01*
X100717482Y-72158891D01*
X100917103Y-72076410D01*
X101310429Y-71683770D01*
X101523557Y-71170500D01*
X101524042Y-70614739D01*
X101311810Y-70101097D01*
X100919170Y-69707771D01*
X100711288Y-69621451D01*
X100917103Y-69536410D01*
X101310429Y-69143770D01*
X101523557Y-68630500D01*
X101524042Y-68074739D01*
X101311810Y-67561097D01*
X100919170Y-67167771D01*
X100711288Y-67081451D01*
X100917103Y-66996410D01*
X101310429Y-66603770D01*
X101523557Y-66090500D01*
X101524042Y-65534739D01*
X101311810Y-65021097D01*
X100919170Y-64627771D01*
X100711288Y-64541451D01*
X100917103Y-64456410D01*
X101310429Y-64063770D01*
X101523557Y-63550500D01*
X101524042Y-62994739D01*
X101311810Y-62481097D01*
X100919170Y-62087771D01*
X100711288Y-62001451D01*
X100917103Y-61916410D01*
X101310429Y-61523770D01*
X101523557Y-61010500D01*
X101524042Y-60454739D01*
X101311810Y-59941097D01*
X100919170Y-59547771D01*
X100727073Y-59468005D01*
X100857943Y-59413797D01*
X100927408Y-59171613D01*
X100126800Y-58371005D01*
X99326192Y-59171613D01*
X99395657Y-59413797D01*
X99536118Y-59463909D01*
X99336497Y-59546390D01*
X98943171Y-59939030D01*
X98730043Y-60452300D01*
X98729558Y-61008061D01*
X73543532Y-61008061D01*
X73473507Y-60838588D01*
X73198659Y-60563260D01*
X72839370Y-60414070D01*
X72450337Y-60413731D01*
X72090788Y-60562293D01*
X71815460Y-60837141D01*
X71797745Y-60879803D01*
X71571784Y-61030785D01*
X70690157Y-61912413D01*
X70596137Y-61912331D01*
X70236588Y-62060893D01*
X69961260Y-62335741D01*
X69812070Y-62695030D01*
X69811731Y-63084063D01*
X69960293Y-63443612D01*
X70235141Y-63718940D01*
X70594430Y-63868130D01*
X70983463Y-63868469D01*
X71343012Y-63719907D01*
X71488334Y-63574838D01*
X71657541Y-63744340D01*
X71671985Y-63750338D01*
X71609804Y-63843397D01*
X71551800Y-64135002D01*
X71551800Y-64733117D01*
X71534407Y-64750479D01*
X71492307Y-64648588D01*
X71217459Y-64373260D01*
X70858170Y-64224070D01*
X70469137Y-64223731D01*
X70109588Y-64372293D01*
X70041963Y-64439800D01*
X68641630Y-64439800D01*
X65986090Y-61784260D01*
X66236070Y-61617229D01*
X66560926Y-61131048D01*
X66675000Y-60557559D01*
X66675000Y-60498841D01*
X66560926Y-59925352D01*
X66249826Y-59459758D01*
X66275317Y-59454962D01*
X66491441Y-59315890D01*
X66636431Y-59103690D01*
X66687440Y-58851800D01*
X66687440Y-57983702D01*
X98717656Y-57983702D01*
X98745438Y-58538768D01*
X98904403Y-58922543D01*
X99146587Y-58992008D01*
X99947195Y-58191400D01*
X100306405Y-58191400D01*
X101107013Y-58992008D01*
X101349197Y-58922543D01*
X101535944Y-58399098D01*
X101508162Y-57844032D01*
X101349197Y-57460257D01*
X101107013Y-57390792D01*
X100306405Y-58191400D01*
X99947195Y-58191400D01*
X99146587Y-57390792D01*
X98904403Y-57460257D01*
X98717656Y-57983702D01*
X66687440Y-57983702D01*
X66687440Y-57124600D01*
X66643162Y-56889283D01*
X66641348Y-56886463D01*
X74612331Y-56886463D01*
X74760893Y-57246012D01*
X75035741Y-57521340D01*
X75395030Y-57670530D01*
X75784063Y-57670869D01*
X76143612Y-57522307D01*
X76185793Y-57480200D01*
X77376317Y-57480200D01*
X77442741Y-57546740D01*
X77802030Y-57695930D01*
X78191063Y-57696269D01*
X78550612Y-57547707D01*
X78825940Y-57272859D01*
X78975130Y-56913570D01*
X78975469Y-56524537D01*
X78826907Y-56164988D01*
X78552059Y-55889660D01*
X78192770Y-55740470D01*
X77803737Y-55740131D01*
X77444188Y-55888693D01*
X77376563Y-55956200D01*
X76236839Y-55956200D01*
X76145059Y-55864260D01*
X75785770Y-55715070D01*
X75396737Y-55714731D01*
X75037188Y-55863293D01*
X74761860Y-56138141D01*
X74612670Y-56497430D01*
X74612331Y-56886463D01*
X66641348Y-56886463D01*
X66504090Y-56673159D01*
X66291890Y-56528169D01*
X66040000Y-56477160D01*
X64312800Y-56477160D01*
X64077483Y-56521438D01*
X63861359Y-56660510D01*
X63716369Y-56872710D01*
X63707536Y-56916331D01*
X63696070Y-56899171D01*
X63209889Y-56574315D01*
X62636400Y-56460241D01*
X62062911Y-56574315D01*
X61576730Y-56899171D01*
X61360736Y-57222428D01*
X61303221Y-57099710D01*
X60871347Y-56705512D01*
X60455426Y-56533242D01*
X60223400Y-56654383D01*
X60223400Y-57861200D01*
X60243400Y-57861200D01*
X60243400Y-58115200D01*
X60223400Y-58115200D01*
X60223400Y-58135200D01*
X59969400Y-58135200D01*
X59969400Y-58115200D01*
X58761931Y-58115200D01*
X58641432Y-58347227D01*
X58889579Y-58876690D01*
X59307561Y-59258208D01*
X59036730Y-59439171D01*
X58711874Y-59925352D01*
X58597800Y-60498841D01*
X58597800Y-60557559D01*
X58711874Y-61131048D01*
X59036730Y-61617229D01*
X59522911Y-61942085D01*
X60096400Y-62056159D01*
X60472014Y-61981445D01*
X61233985Y-62743416D01*
X61350703Y-62821404D01*
X61481195Y-62908596D01*
X61772800Y-62966600D01*
X65013170Y-62966600D01*
X67787185Y-65740615D01*
X68034395Y-65905796D01*
X68326000Y-65963800D01*
X69874297Y-65963800D01*
X69786670Y-66174830D01*
X69786587Y-66270383D01*
X69623158Y-66433812D01*
X69300737Y-66433531D01*
X68941188Y-66582093D01*
X68665860Y-66856941D01*
X68516670Y-67216230D01*
X68516331Y-67605263D01*
X68664893Y-67964812D01*
X68746538Y-68046600D01*
X68438431Y-68046600D01*
X67081400Y-66689569D01*
X67081400Y-65735200D01*
X67037973Y-65504405D01*
X66901573Y-65292433D01*
X66693451Y-65150229D01*
X66446400Y-65100200D01*
X65492030Y-65100200D01*
X65105615Y-64713785D01*
X64858405Y-64548604D01*
X64566800Y-64490600D01*
X60463483Y-64490600D01*
X60397059Y-64424060D01*
X60037770Y-64274870D01*
X59648737Y-64274531D01*
X59289188Y-64423093D01*
X59013860Y-64697941D01*
X58864670Y-65057230D01*
X58864633Y-65100200D01*
X46761400Y-65100200D01*
X46761400Y-61925200D01*
X46717973Y-61694405D01*
X46581573Y-61482433D01*
X46373451Y-61340229D01*
X46126400Y-61290200D01*
X26121181Y-61290200D01*
X26345169Y-61066603D01*
X26533583Y-60612852D01*
X26534012Y-60121539D01*
X26346390Y-59667461D01*
X25999283Y-59319747D01*
X25545532Y-59131333D01*
X25054219Y-59130904D01*
X24600141Y-59318526D01*
X24252427Y-59665633D01*
X24064013Y-60119384D01*
X24063584Y-60610697D01*
X24251206Y-61064775D01*
X24476237Y-61290200D01*
X23977600Y-61290200D01*
X23977600Y-57629173D01*
X58641432Y-57629173D01*
X58761931Y-57861200D01*
X59969400Y-57861200D01*
X59969400Y-56654383D01*
X59737374Y-56533242D01*
X59321453Y-56705512D01*
X58889579Y-57099710D01*
X58641432Y-57629173D01*
X23977600Y-57629173D01*
X23977600Y-53510697D01*
X24063584Y-53510697D01*
X24251206Y-53964775D01*
X24598313Y-54312489D01*
X25052064Y-54500903D01*
X25543377Y-54501332D01*
X25997455Y-54313710D01*
X26345169Y-53966603D01*
X26533583Y-53512852D01*
X26533714Y-53362422D01*
X33201784Y-53362422D01*
X33422553Y-53733143D01*
X34394212Y-54126519D01*
X35442447Y-54118113D01*
X36371847Y-53733143D01*
X36592616Y-53362422D01*
X34897200Y-51667005D01*
X33201784Y-53362422D01*
X26533714Y-53362422D01*
X26534012Y-53021539D01*
X26346390Y-52567461D01*
X25999283Y-52219747D01*
X25545532Y-52031333D01*
X25054219Y-52030904D01*
X24600141Y-52218526D01*
X24252427Y-52565633D01*
X24064013Y-53019384D01*
X24063584Y-53510697D01*
X23977600Y-53510697D01*
X23977600Y-50984412D01*
X32258081Y-50984412D01*
X32266487Y-52032647D01*
X32651457Y-52962047D01*
X33022178Y-53182816D01*
X34717595Y-51487400D01*
X35076805Y-51487400D01*
X36772222Y-53182816D01*
X37142943Y-52962047D01*
X37414785Y-52290582D01*
X48539141Y-52290582D01*
X48766808Y-52841580D01*
X49188003Y-53263510D01*
X49738602Y-53492139D01*
X50334782Y-53492659D01*
X50587929Y-53388061D01*
X98729558Y-53388061D01*
X98941790Y-53901703D01*
X99334430Y-54295029D01*
X99542312Y-54381349D01*
X99336497Y-54466390D01*
X98943171Y-54859030D01*
X98730043Y-55372300D01*
X98729558Y-55928061D01*
X98941790Y-56441703D01*
X99334430Y-56835029D01*
X99526527Y-56914795D01*
X99395657Y-56969003D01*
X99326192Y-57211187D01*
X100126800Y-58011795D01*
X100927408Y-57211187D01*
X100857943Y-56969003D01*
X100717482Y-56918891D01*
X100917103Y-56836410D01*
X101310429Y-56443770D01*
X101523557Y-55930500D01*
X101524042Y-55374739D01*
X101311810Y-54861097D01*
X100919170Y-54467771D01*
X100711288Y-54381451D01*
X100917103Y-54296410D01*
X101310429Y-53903770D01*
X101523557Y-53390500D01*
X101524042Y-52834739D01*
X101311810Y-52321097D01*
X100919170Y-51927771D01*
X100405900Y-51714643D01*
X99850139Y-51714158D01*
X99336497Y-51926390D01*
X98943171Y-52319030D01*
X98730043Y-52832300D01*
X98729558Y-53388061D01*
X50587929Y-53388061D01*
X50885780Y-53264992D01*
X51307710Y-52843797D01*
X51536339Y-52293198D01*
X51536859Y-51697018D01*
X51309192Y-51146020D01*
X50887997Y-50724090D01*
X50337398Y-50495461D01*
X49741218Y-50494941D01*
X49190220Y-50722608D01*
X48768290Y-51143803D01*
X48539661Y-51694402D01*
X48539141Y-52290582D01*
X37414785Y-52290582D01*
X37536319Y-51990388D01*
X37527913Y-50942153D01*
X37265182Y-50307863D01*
X52431769Y-50307863D01*
X52580331Y-50667412D01*
X52855179Y-50942740D01*
X53214468Y-51091930D01*
X53603501Y-51092269D01*
X53963050Y-50943707D01*
X54238378Y-50668859D01*
X54358473Y-50379639D01*
X56287478Y-48450634D01*
X56327663Y-48450669D01*
X56687212Y-48302107D01*
X56962540Y-48027259D01*
X57111730Y-47667970D01*
X57112069Y-47278937D01*
X56963507Y-46919388D01*
X56688659Y-46644060D01*
X56329370Y-46494870D01*
X55940337Y-46494531D01*
X55580788Y-46643093D01*
X55305460Y-46917941D01*
X55156270Y-47277230D01*
X55156234Y-47318854D01*
X53338850Y-49136238D01*
X53216175Y-49136131D01*
X52856626Y-49284693D01*
X52581298Y-49559541D01*
X52432108Y-49918830D01*
X52431769Y-50307863D01*
X37265182Y-50307863D01*
X37142943Y-50012753D01*
X36772222Y-49791984D01*
X35076805Y-51487400D01*
X34717595Y-51487400D01*
X33022178Y-49791984D01*
X32651457Y-50012753D01*
X32258081Y-50984412D01*
X23977600Y-50984412D01*
X23977600Y-49612378D01*
X33201784Y-49612378D01*
X34897200Y-51307795D01*
X36592616Y-49612378D01*
X36371847Y-49241657D01*
X35400188Y-48848281D01*
X34351953Y-48856687D01*
X33422553Y-49241657D01*
X33201784Y-49612378D01*
X23977600Y-49612378D01*
X23977600Y-48663422D01*
X30202044Y-48663422D01*
X30422813Y-49034143D01*
X31394472Y-49427519D01*
X32442707Y-49419113D01*
X33372107Y-49034143D01*
X33592876Y-48663422D01*
X31897460Y-46968005D01*
X30202044Y-48663422D01*
X23977600Y-48663422D01*
X23977600Y-46285412D01*
X29258341Y-46285412D01*
X29266747Y-47333647D01*
X29651717Y-48263047D01*
X30022438Y-48483816D01*
X31717855Y-46788400D01*
X32077065Y-46788400D01*
X33772482Y-48483816D01*
X34143203Y-48263047D01*
X34528949Y-47310234D01*
X35261483Y-47310234D01*
X35661793Y-48279058D01*
X36402383Y-49020942D01*
X37370507Y-49422942D01*
X38418774Y-49423857D01*
X39387598Y-49023547D01*
X40129482Y-48282957D01*
X40531482Y-47314833D01*
X40532397Y-46266566D01*
X40132087Y-45297742D01*
X39391497Y-44555858D01*
X38423373Y-44153858D01*
X37375106Y-44152943D01*
X36406282Y-44553253D01*
X35664398Y-45293843D01*
X35262398Y-46261967D01*
X35261483Y-47310234D01*
X34528949Y-47310234D01*
X34536579Y-47291388D01*
X34528173Y-46243153D01*
X34143203Y-45313753D01*
X33772482Y-45092984D01*
X32077065Y-46788400D01*
X31717855Y-46788400D01*
X30022438Y-45092984D01*
X29651717Y-45313753D01*
X29258341Y-46285412D01*
X23977600Y-46285412D01*
X23977600Y-44946255D01*
X23981111Y-44936056D01*
X23984195Y-44913378D01*
X30202044Y-44913378D01*
X31897460Y-46608795D01*
X33592876Y-44913378D01*
X33372107Y-44542657D01*
X32400448Y-44149281D01*
X31352213Y-44157687D01*
X30422813Y-44542657D01*
X30202044Y-44913378D01*
X23984195Y-44913378D01*
X24096397Y-44088503D01*
X24455994Y-43471793D01*
X25024222Y-43039639D01*
X25773001Y-42842445D01*
X25780265Y-42842223D01*
X25826400Y-42851400D01*
D27*
X69392800Y-92887800D03*
X85648800Y-80566200D03*
X77165200Y-92176600D03*
X74269600Y-83261200D03*
X71043800Y-81534000D03*
X77241400Y-81508600D03*
X67335400Y-79425800D03*
X81254600Y-54051200D03*
X79832200Y-47040800D03*
X79832200Y-47980600D03*
X35102800Y-59232800D03*
X45008800Y-47244000D03*
X93446600Y-45847000D03*
X93878400Y-50749200D03*
X84785200Y-53924200D03*
X72999600Y-52171600D03*
X95681800Y-76657200D03*
X95681800Y-72669400D03*
X67411600Y-67157600D03*
X69875400Y-69494400D03*
X69809898Y-74117200D03*
X90601800Y-65201800D03*
X79044800Y-66192400D03*
X83540600Y-57734200D03*
X79806800Y-57200800D03*
X67589400Y-87122000D03*
X67716400Y-97409000D03*
X67665600Y-91389200D03*
X85902800Y-92100400D03*
X85039200Y-82778600D03*
X88239600Y-79425800D03*
X88442800Y-65201800D03*
X82854800Y-67741800D03*
X81991200Y-71247000D03*
X67411600Y-76377800D03*
X79654400Y-59461400D03*
X77978000Y-66217800D03*
X72186800Y-60223400D03*
X69748400Y-60247400D03*
X60604400Y-52857400D03*
X66344800Y-53975000D03*
X65176400Y-51485800D03*
X89560400Y-45897800D03*
X91795600Y-57429400D03*
X93980000Y-53771800D03*
X84175600Y-52146200D03*
X75387200Y-52146200D03*
X78994000Y-51347340D03*
X80670400Y-51347340D03*
X85801200Y-45847000D03*
X58521600Y-46101000D03*
X52781200Y-52603400D03*
X56083200Y-48861322D03*
X57454800Y-51093020D03*
X56733140Y-51485800D03*
X54660800Y-50093020D03*
X69482400Y-76276200D03*
X32092900Y-59258200D03*
X30505400Y-52781200D03*
X97840800Y-93141800D03*
X54952900Y-88071661D03*
X29972000Y-74396600D03*
X25755600Y-74396600D03*
X36410890Y-77457300D03*
X31732029Y-87868461D03*
X62313629Y-88668561D03*
X62110429Y-91564161D03*
X39352029Y-88071661D03*
X41384029Y-88071661D03*
X45974000Y-72745600D03*
X49784000Y-67589400D03*
X65684400Y-97536000D03*
X65608200Y-91516200D03*
X65684400Y-94742000D03*
X38531800Y-79375000D03*
X63627000Y-78409800D03*
X33528000Y-92633800D03*
X33731200Y-88112600D03*
X60992919Y-88566971D03*
X65582800Y-76530200D03*
X60096400Y-66370200D03*
X63925758Y-66846758D03*
X64477900Y-83007200D03*
X65366900Y-82308700D03*
X58699400Y-92849700D03*
X58762900Y-91833700D03*
X58829917Y-81246590D03*
X39268400Y-78054200D03*
X51003200Y-75819000D03*
X48514000Y-68453000D03*
X29268239Y-91373661D03*
X46238156Y-74230914D03*
X59852556Y-73634014D03*
X57249056Y-73608614D03*
X37680900Y-64897000D03*
X37058600Y-70002400D03*
X45994129Y-89189261D03*
X36202429Y-88020861D03*
X31605029Y-92631661D03*
X29141229Y-87538261D03*
X60798229Y-92297161D03*
X32258000Y-66776600D03*
X32288198Y-69354700D03*
X36118800Y-81457800D03*
X36118800Y-80391000D03*
X35013900Y-62738000D03*
X35941000Y-66598800D03*
X76022200Y-65368056D03*
X75590400Y-56692800D03*
X77997400Y-56718200D03*
X69291200Y-70764400D03*
X86766400Y-82321411D03*
X72898000Y-68808600D03*
X86766400Y-75514200D03*
X59842400Y-65252600D03*
X61722000Y-78968600D03*
X63461900Y-81241900D03*
X72644000Y-61391800D03*
X70789800Y-62890400D03*
X70662800Y-65201800D03*
X53409838Y-50114200D03*
X56134000Y-47472600D03*
X63677800Y-69621400D03*
X63677800Y-73533000D03*
X61112400Y-74434700D03*
X63144400Y-71750400D03*
X64770000Y-79768700D03*
X64871600Y-72898000D03*
X62560200Y-76301600D03*
X63525400Y-84785200D03*
X56286400Y-80276700D03*
X59080400Y-80264000D03*
X62517256Y-77266800D03*
X65684400Y-79260700D03*
X69850000Y-71399400D03*
X89662000Y-69342000D03*
X81686400Y-69240400D03*
X76022200Y-71297800D03*
X85109554Y-69507110D03*
X84886800Y-67640200D03*
X72593200Y-71805800D03*
X84988400Y-75361800D03*
X79324768Y-71491858D03*
X85649233Y-69970326D03*
X83542176Y-70105905D03*
X85648800Y-68059290D03*
X71305208Y-71755000D03*
X82956400Y-75361800D03*
X80467200Y-75565000D03*
X71120000Y-70637400D03*
X69494400Y-67411600D03*
X70764400Y-66370200D03*
X70764400Y-67259200D03*
X71780400Y-66370200D03*
X79451200Y-80391000D03*
X81610200Y-72415400D03*
X79222600Y-62128400D03*
X72212200Y-62915800D03*
X80010000Y-65278000D03*
X77876400Y-63525400D03*
X82727800Y-66471800D03*
X75844400Y-63601600D03*
X72313800Y-65354200D03*
X79044800Y-63144400D03*
X54508400Y-69164200D03*
X54457600Y-73685400D03*
X98501200Y-81889600D03*
X81635600Y-82169000D03*
X75869800Y-70256400D03*
X77942970Y-70248468D03*
X80619600Y-81762600D03*
D28*
X100126800Y-53111400D03*
X100126800Y-55651400D03*
X100126800Y-58191400D03*
X100126800Y-60731400D03*
X100126800Y-63271400D03*
X100126800Y-65811400D03*
X100126800Y-68351400D03*
X100126800Y-70891400D03*
X100126800Y-73431400D03*
X100126800Y-75971400D03*
X100126800Y-78511400D03*
X100126800Y-81051400D03*
X100126800Y-83591400D03*
X100126800Y-86131400D03*
X100126800Y-88671400D03*
X100126800Y-91211400D03*
X52730400Y-93865700D03*
X52730400Y-91325700D03*
X52730400Y-88785700D03*
X52730400Y-86245700D03*
X52730400Y-83705700D03*
X52730400Y-81165700D03*
X92481400Y-86182200D03*
X92481400Y-83682200D03*
X50038000Y-51993800D03*
X62179200Y-95669100D03*
X59639200Y-95669100D03*
X91294800Y-93662900D03*
X93834800Y-93662900D03*
X25298798Y-53266118D03*
X25298798Y-60366118D03*
X37896940Y-46788400D03*
X31897460Y-46788400D03*
X34897200Y-51487400D03*
X90957400Y-76711200D03*
X90957400Y-71831200D03*
X65176400Y-57988200D03*
X65176400Y-60528200D03*
X62636400Y-57988200D03*
X62636400Y-60528200D03*
X60096400Y-57988200D03*
X60096400Y-60528200D03*
M02*
