%TF.GenerationSoftware,KiCad,Pcbnew,4.0.5-e0-6337~49~ubuntu16.04.1*%
%TF.CreationDate,2017-08-06T11:23:39-07:00*%
%TF.ProjectId,mcphail-main-board,6D63706861696C2D6D61696E2D626F61,1.0*%
%TF.FileFunction,Soldermask,Top*%
%FSLAX46Y46*%
G04 Gerber Fmt 4.6, Leading zero omitted, Abs format (unit mm)*
G04 Created by KiCad (PCBNEW 4.0.5-e0-6337~49~ubuntu16.04.1) date Sun Aug  6 11:23:39 2017*
%MOMM*%
%LPD*%
G01*
G04 APERTURE LIST*
%ADD10C,0.350000*%
G04 APERTURE END LIST*
D10*
G36*
X177738656Y-97093614D02*
X176586256Y-97093614D01*
X176586256Y-95691214D01*
X177738656Y-95691214D01*
X177738656Y-97093614D01*
X177738656Y-97093614D01*
G37*
G36*
X175738656Y-97093614D02*
X174586256Y-97093614D01*
X174586256Y-95691214D01*
X175738656Y-95691214D01*
X175738656Y-97093614D01*
X175738656Y-97093614D01*
G37*
G36*
X243953042Y-94428515D02*
X244159777Y-94470952D01*
X244354347Y-94552741D01*
X244529318Y-94670761D01*
X244678033Y-94820518D01*
X244794827Y-94996308D01*
X244875253Y-95191436D01*
X244916178Y-95398124D01*
X244916178Y-95398129D01*
X244916246Y-95398473D01*
X244912880Y-95639536D01*
X244912803Y-95639874D01*
X244912803Y-95639883D01*
X244866122Y-95845349D01*
X244780281Y-96038152D01*
X244658621Y-96210615D01*
X244505782Y-96356162D01*
X244327584Y-96469250D01*
X244130810Y-96545573D01*
X243922967Y-96582222D01*
X243711957Y-96577802D01*
X243505825Y-96532481D01*
X243312422Y-96447985D01*
X243139119Y-96327536D01*
X242992508Y-96175717D01*
X242878178Y-95998310D01*
X242800481Y-95802072D01*
X242762384Y-95594492D01*
X242765330Y-95383458D01*
X242809211Y-95177013D01*
X242892353Y-94983028D01*
X243011593Y-94808883D01*
X243162384Y-94661217D01*
X243338988Y-94545651D01*
X243534675Y-94466588D01*
X243741987Y-94427042D01*
X243953042Y-94428515D01*
X243953042Y-94428515D01*
G37*
G36*
X171309042Y-94428515D02*
X171515777Y-94470952D01*
X171710347Y-94552741D01*
X171885318Y-94670761D01*
X172034033Y-94820518D01*
X172150827Y-94996308D01*
X172231253Y-95191436D01*
X172272178Y-95398124D01*
X172272178Y-95398129D01*
X172272246Y-95398473D01*
X172268880Y-95639536D01*
X172268803Y-95639874D01*
X172268803Y-95639883D01*
X172222122Y-95845349D01*
X172136281Y-96038152D01*
X172014621Y-96210615D01*
X171861782Y-96356162D01*
X171683584Y-96469250D01*
X171486810Y-96545573D01*
X171278967Y-96582222D01*
X171067957Y-96577802D01*
X170861825Y-96532481D01*
X170668422Y-96447985D01*
X170495119Y-96327536D01*
X170348508Y-96175717D01*
X170234178Y-95998310D01*
X170156481Y-95802072D01*
X170118384Y-95594492D01*
X170121330Y-95383458D01*
X170165211Y-95177013D01*
X170248353Y-94983028D01*
X170367593Y-94808883D01*
X170518384Y-94661217D01*
X170694988Y-94545651D01*
X170890675Y-94466588D01*
X171097987Y-94427042D01*
X171309042Y-94428515D01*
X171309042Y-94428515D01*
G37*
G36*
X230206300Y-96062700D02*
X229053900Y-96062700D01*
X229053900Y-94310300D01*
X230206300Y-94310300D01*
X230206300Y-96062700D01*
X230206300Y-96062700D01*
G37*
G36*
X227206300Y-96062700D02*
X226053900Y-96062700D01*
X226053900Y-94310300D01*
X227206300Y-94310300D01*
X227206300Y-96062700D01*
X227206300Y-96062700D01*
G37*
G36*
X225192300Y-95472000D02*
X223439900Y-95472000D01*
X223439900Y-94319600D01*
X225192300Y-94319600D01*
X225192300Y-95472000D01*
X225192300Y-95472000D01*
G37*
G36*
X216898300Y-95129700D02*
X215945900Y-95129700D01*
X215945900Y-94227300D01*
X216898300Y-94227300D01*
X216898300Y-95129700D01*
X216898300Y-95129700D01*
G37*
G36*
X215398300Y-95129700D02*
X214445900Y-95129700D01*
X214445900Y-94227300D01*
X215398300Y-94227300D01*
X215398300Y-95129700D01*
X215398300Y-95129700D01*
G37*
G36*
X218627408Y-95129700D02*
X217675008Y-95129700D01*
X217675008Y-94227300D01*
X218627408Y-94227300D01*
X218627408Y-95129700D01*
X218627408Y-95129700D01*
G37*
G36*
X220127408Y-95129700D02*
X219175008Y-95129700D01*
X219175008Y-94227300D01*
X220127408Y-94227300D01*
X220127408Y-95129700D01*
X220127408Y-95129700D01*
G37*
G36*
X178259356Y-94804814D02*
X177106956Y-94804814D01*
X177106956Y-93052414D01*
X178259356Y-93052414D01*
X178259356Y-94804814D01*
X178259356Y-94804814D01*
G37*
G36*
X175259356Y-94804814D02*
X174106956Y-94804814D01*
X174106956Y-93052414D01*
X175259356Y-93052414D01*
X175259356Y-94804814D01*
X175259356Y-94804814D01*
G37*
G36*
X193401900Y-94507400D02*
X192449500Y-94507400D01*
X192449500Y-93605000D01*
X193401900Y-93605000D01*
X193401900Y-94507400D01*
X193401900Y-94507400D01*
G37*
G36*
X194901900Y-94507400D02*
X193949500Y-94507400D01*
X193949500Y-93605000D01*
X194901900Y-93605000D01*
X194901900Y-94507400D01*
X194901900Y-94507400D01*
G37*
G36*
X196850562Y-94507362D02*
X195898162Y-94507362D01*
X195898162Y-93604962D01*
X196850562Y-93604962D01*
X196850562Y-94507362D01*
X196850562Y-94507362D01*
G37*
G36*
X198350562Y-94507362D02*
X197398162Y-94507362D01*
X197398162Y-93604962D01*
X198350562Y-93604962D01*
X198350562Y-94507362D01*
X198350562Y-94507362D01*
G37*
G36*
X200042600Y-94494700D02*
X199090200Y-94494700D01*
X199090200Y-93592300D01*
X200042600Y-93592300D01*
X200042600Y-94494700D01*
X200042600Y-94494700D01*
G37*
G36*
X203230300Y-94494700D02*
X202277900Y-94494700D01*
X202277900Y-93592300D01*
X203230300Y-93592300D01*
X203230300Y-94494700D01*
X203230300Y-94494700D01*
G37*
G36*
X204730300Y-94494700D02*
X203777900Y-94494700D01*
X203777900Y-93592300D01*
X204730300Y-93592300D01*
X204730300Y-94494700D01*
X204730300Y-94494700D01*
G37*
G36*
X201542600Y-94494700D02*
X200590200Y-94494700D01*
X200590200Y-93592300D01*
X201542600Y-93592300D01*
X201542600Y-94494700D01*
X201542600Y-94494700D01*
G37*
G36*
X181303356Y-94050814D02*
X179650956Y-94050814D01*
X179650956Y-93298414D01*
X181303356Y-93298414D01*
X181303356Y-94050814D01*
X181303356Y-94050814D01*
G37*
G36*
X186703356Y-94050814D02*
X185050956Y-94050814D01*
X185050956Y-93298414D01*
X186703356Y-93298414D01*
X186703356Y-94050814D01*
X186703356Y-94050814D01*
G37*
G36*
X213849300Y-93872700D02*
X212946900Y-93872700D01*
X212946900Y-92920300D01*
X213849300Y-92920300D01*
X213849300Y-93872700D01*
X213849300Y-93872700D01*
G37*
G36*
X230472300Y-93706700D02*
X227819900Y-93706700D01*
X227819900Y-92554300D01*
X230472300Y-92554300D01*
X230472300Y-93706700D01*
X230472300Y-93706700D01*
G37*
G36*
X227017300Y-93516700D02*
X226114900Y-93516700D01*
X226114900Y-92564300D01*
X227017300Y-92564300D01*
X227017300Y-93516700D01*
X227017300Y-93516700D01*
G37*
G36*
X233110900Y-93421300D02*
X231358500Y-93421300D01*
X231358500Y-92268900D01*
X233110900Y-92268900D01*
X233110900Y-93421300D01*
X233110900Y-93421300D01*
G37*
G36*
X237396008Y-93396074D02*
X236183608Y-93396074D01*
X236183608Y-92593674D01*
X237396008Y-92593674D01*
X237396008Y-93396074D01*
X237396008Y-93396074D01*
G37*
G36*
X235196008Y-93396074D02*
X233983608Y-93396074D01*
X233983608Y-92593674D01*
X235196008Y-92593674D01*
X235196008Y-93396074D01*
X235196008Y-93396074D01*
G37*
G36*
X216667408Y-93026474D02*
X215015008Y-93026474D01*
X215015008Y-92274074D01*
X216667408Y-92274074D01*
X216667408Y-93026474D01*
X216667408Y-93026474D01*
G37*
G36*
X222067408Y-93026474D02*
X220415008Y-93026474D01*
X220415008Y-92274074D01*
X222067408Y-92274074D01*
X222067408Y-93026474D01*
X222067408Y-93026474D01*
G37*
G36*
X208795700Y-92792900D02*
X207843300Y-92792900D01*
X207843300Y-91890500D01*
X208795700Y-91890500D01*
X208795700Y-92792900D01*
X208795700Y-92792900D01*
G37*
G36*
X207295700Y-92792900D02*
X206343300Y-92792900D01*
X206343300Y-91890500D01*
X207295700Y-91890500D01*
X207295700Y-92792900D01*
X207295700Y-92792900D01*
G37*
G36*
X181303356Y-92780814D02*
X179650956Y-92780814D01*
X179650956Y-92028414D01*
X181303356Y-92028414D01*
X181303356Y-92780814D01*
X181303356Y-92780814D01*
G37*
G36*
X186703356Y-92780814D02*
X185050956Y-92780814D01*
X185050956Y-92028414D01*
X186703356Y-92028414D01*
X186703356Y-92780814D01*
X186703356Y-92780814D01*
G37*
G36*
X212067300Y-92698700D02*
X210664900Y-92698700D01*
X210664900Y-91546300D01*
X212067300Y-91546300D01*
X212067300Y-92698700D01*
X212067300Y-92698700D01*
G37*
G36*
X205645100Y-92563900D02*
X204742700Y-92563900D01*
X204742700Y-91611500D01*
X205645100Y-91611500D01*
X205645100Y-92563900D01*
X205645100Y-92563900D01*
G37*
G36*
X225192300Y-92472000D02*
X223439900Y-92472000D01*
X223439900Y-91319600D01*
X225192300Y-91319600D01*
X225192300Y-92472000D01*
X225192300Y-92472000D01*
G37*
G36*
X235196008Y-92446074D02*
X233983608Y-92446074D01*
X233983608Y-91643674D01*
X235196008Y-91643674D01*
X235196008Y-92446074D01*
X235196008Y-92446074D01*
G37*
G36*
X203911900Y-92413100D02*
X202259500Y-92413100D01*
X202259500Y-91660700D01*
X203911900Y-91660700D01*
X203911900Y-92413100D01*
X203911900Y-92413100D01*
G37*
G36*
X198511900Y-92413100D02*
X196859500Y-92413100D01*
X196859500Y-91660700D01*
X198511900Y-91660700D01*
X198511900Y-92413100D01*
X198511900Y-92413100D01*
G37*
G36*
X213849300Y-92372700D02*
X212946900Y-92372700D01*
X212946900Y-91420300D01*
X213849300Y-91420300D01*
X213849300Y-92372700D01*
X213849300Y-92372700D01*
G37*
G36*
X175278156Y-92318414D02*
X174125756Y-92318414D01*
X174125756Y-90916014D01*
X175278156Y-90916014D01*
X175278156Y-92318414D01*
X175278156Y-92318414D01*
G37*
G36*
X177278156Y-92318414D02*
X176125756Y-92318414D01*
X176125756Y-90916014D01*
X177278156Y-90916014D01*
X177278156Y-92318414D01*
X177278156Y-92318414D01*
G37*
G36*
X196108400Y-92234100D02*
X195156000Y-92234100D01*
X195156000Y-91331700D01*
X196108400Y-91331700D01*
X196108400Y-92234100D01*
X196108400Y-92234100D01*
G37*
G36*
X194608400Y-92234100D02*
X193656000Y-92234100D01*
X193656000Y-91331700D01*
X194608400Y-91331700D01*
X194608400Y-92234100D01*
X194608400Y-92234100D01*
G37*
G36*
X192995900Y-92183600D02*
X192093500Y-92183600D01*
X192093500Y-91231200D01*
X192995900Y-91231200D01*
X192995900Y-92183600D01*
X192995900Y-92183600D01*
G37*
G36*
X227017300Y-92016700D02*
X226114900Y-92016700D01*
X226114900Y-91064300D01*
X227017300Y-91064300D01*
X227017300Y-92016700D01*
X227017300Y-92016700D01*
G37*
G36*
X178858256Y-91788614D02*
X177955856Y-91788614D01*
X177955856Y-90836214D01*
X178858256Y-90836214D01*
X178858256Y-91788614D01*
X178858256Y-91788614D01*
G37*
G36*
X244690043Y-90094357D02*
X244851058Y-90127409D01*
X245002601Y-90191111D01*
X245138873Y-90283029D01*
X245254706Y-90399672D01*
X245345668Y-90536582D01*
X245408310Y-90688563D01*
X245440168Y-90849456D01*
X245440168Y-90849466D01*
X245440236Y-90849810D01*
X245437615Y-91037563D01*
X245437537Y-91037906D01*
X245437537Y-91037909D01*
X245401197Y-91197861D01*
X245334340Y-91348025D01*
X245239584Y-91482347D01*
X245120545Y-91595708D01*
X244981753Y-91683788D01*
X244828499Y-91743231D01*
X244666619Y-91771775D01*
X244502273Y-91768332D01*
X244341728Y-91733035D01*
X244191094Y-91667224D01*
X244056118Y-91573413D01*
X243941930Y-91455168D01*
X243852883Y-91316994D01*
X243792369Y-91164153D01*
X243762697Y-91002481D01*
X243764991Y-90838116D01*
X243799169Y-90677326D01*
X243863923Y-90526240D01*
X243956794Y-90390607D01*
X244074237Y-90275598D01*
X244211786Y-90185588D01*
X244364197Y-90124010D01*
X244525662Y-90093209D01*
X244690043Y-90094357D01*
X244690043Y-90094357D01*
G37*
G36*
X222067408Y-91756474D02*
X220415008Y-91756474D01*
X220415008Y-91004074D01*
X222067408Y-91004074D01*
X222067408Y-91756474D01*
X222067408Y-91756474D01*
G37*
G36*
X216667408Y-91756474D02*
X215015008Y-91756474D01*
X215015008Y-91004074D01*
X216667408Y-91004074D01*
X216667408Y-91756474D01*
X216667408Y-91756474D01*
G37*
G36*
X181303356Y-91510814D02*
X179650956Y-91510814D01*
X179650956Y-90758414D01*
X181303356Y-90758414D01*
X181303356Y-91510814D01*
X181303356Y-91510814D01*
G37*
G36*
X186703356Y-91510814D02*
X185050956Y-91510814D01*
X185050956Y-90758414D01*
X186703356Y-90758414D01*
X186703356Y-91510814D01*
X186703356Y-91510814D01*
G37*
G36*
X235196008Y-91496074D02*
X233983608Y-91496074D01*
X233983608Y-90693674D01*
X235196008Y-90693674D01*
X235196008Y-91496074D01*
X235196008Y-91496074D01*
G37*
G36*
X237396008Y-91496074D02*
X236183608Y-91496074D01*
X236183608Y-90693674D01*
X237396008Y-90693674D01*
X237396008Y-91496074D01*
X237396008Y-91496074D01*
G37*
G36*
X203911900Y-91143100D02*
X202259500Y-91143100D01*
X202259500Y-90390700D01*
X203911900Y-90390700D01*
X203911900Y-91143100D01*
X203911900Y-91143100D01*
G37*
G36*
X198511900Y-91143100D02*
X196859500Y-91143100D01*
X196859500Y-90390700D01*
X198511900Y-90390700D01*
X198511900Y-91143100D01*
X198511900Y-91143100D01*
G37*
G36*
X205645100Y-91063900D02*
X204742700Y-91063900D01*
X204742700Y-90111500D01*
X205645100Y-90111500D01*
X205645100Y-91063900D01*
X205645100Y-91063900D01*
G37*
G36*
X208858500Y-91040300D02*
X207906100Y-91040300D01*
X207906100Y-90137900D01*
X208858500Y-90137900D01*
X208858500Y-91040300D01*
X208858500Y-91040300D01*
G37*
G36*
X207358500Y-91040300D02*
X206406100Y-91040300D01*
X206406100Y-90137900D01*
X207358500Y-90137900D01*
X207358500Y-91040300D01*
X207358500Y-91040300D01*
G37*
G36*
X230472300Y-90706700D02*
X227819900Y-90706700D01*
X227819900Y-89554300D01*
X230472300Y-89554300D01*
X230472300Y-90706700D01*
X230472300Y-90706700D01*
G37*
G36*
X212067300Y-90698700D02*
X210664900Y-90698700D01*
X210664900Y-89546300D01*
X212067300Y-89546300D01*
X212067300Y-90698700D01*
X212067300Y-90698700D01*
G37*
G36*
X192995900Y-90683600D02*
X192093500Y-90683600D01*
X192093500Y-89731200D01*
X192995900Y-89731200D01*
X192995900Y-90683600D01*
X192995900Y-90683600D01*
G37*
G36*
X225931100Y-90642600D02*
X224778700Y-90642600D01*
X224778700Y-89240200D01*
X225931100Y-89240200D01*
X225931100Y-90642600D01*
X225931100Y-90642600D01*
G37*
G36*
X223931100Y-90642600D02*
X222778700Y-90642600D01*
X222778700Y-89240200D01*
X223931100Y-89240200D01*
X223931100Y-90642600D01*
X223931100Y-90642600D01*
G37*
G36*
X213849300Y-90582700D02*
X212946900Y-90582700D01*
X212946900Y-89630300D01*
X213849300Y-89630300D01*
X213849300Y-90582700D01*
X213849300Y-90582700D01*
G37*
G36*
X194632400Y-90545000D02*
X193680000Y-90545000D01*
X193680000Y-89642600D01*
X194632400Y-89642600D01*
X194632400Y-90545000D01*
X194632400Y-90545000D01*
G37*
G36*
X196132400Y-90545000D02*
X195180000Y-90545000D01*
X195180000Y-89642600D01*
X196132400Y-89642600D01*
X196132400Y-90545000D01*
X196132400Y-90545000D01*
G37*
G36*
X216667408Y-90486474D02*
X215015008Y-90486474D01*
X215015008Y-89734074D01*
X216667408Y-89734074D01*
X216667408Y-90486474D01*
X216667408Y-90486474D01*
G37*
G36*
X222067408Y-90486474D02*
X220415008Y-90486474D01*
X220415008Y-89734074D01*
X222067408Y-89734074D01*
X222067408Y-90486474D01*
X222067408Y-90486474D01*
G37*
G36*
X233110900Y-90421300D02*
X231358500Y-90421300D01*
X231358500Y-89268900D01*
X233110900Y-89268900D01*
X233110900Y-90421300D01*
X233110900Y-90421300D01*
G37*
G36*
X178858256Y-90288614D02*
X177955856Y-90288614D01*
X177955856Y-89336214D01*
X178858256Y-89336214D01*
X178858256Y-90288614D01*
X178858256Y-90288614D01*
G37*
G36*
X181303356Y-90240814D02*
X179650956Y-90240814D01*
X179650956Y-89488414D01*
X181303356Y-89488414D01*
X181303356Y-90240814D01*
X181303356Y-90240814D01*
G37*
G36*
X186703356Y-90240814D02*
X185050956Y-90240814D01*
X185050956Y-89488414D01*
X186703356Y-89488414D01*
X186703356Y-90240814D01*
X186703356Y-90240814D01*
G37*
G36*
X177205256Y-90159414D02*
X176052856Y-90159414D01*
X176052856Y-88757014D01*
X177205256Y-88757014D01*
X177205256Y-90159414D01*
X177205256Y-90159414D01*
G37*
G36*
X175205256Y-90159414D02*
X174052856Y-90159414D01*
X174052856Y-88757014D01*
X175205256Y-88757014D01*
X175205256Y-90159414D01*
X175205256Y-90159414D01*
G37*
G36*
X237480900Y-89946300D02*
X236528500Y-89946300D01*
X236528500Y-89043900D01*
X237480900Y-89043900D01*
X237480900Y-89946300D01*
X237480900Y-89946300D01*
G37*
G36*
X235980900Y-89946300D02*
X235028500Y-89946300D01*
X235028500Y-89043900D01*
X235980900Y-89043900D01*
X235980900Y-89946300D01*
X235980900Y-89946300D01*
G37*
G36*
X198511900Y-89873100D02*
X196859500Y-89873100D01*
X196859500Y-89120700D01*
X198511900Y-89120700D01*
X198511900Y-89873100D01*
X198511900Y-89873100D01*
G37*
G36*
X203911900Y-89873100D02*
X202259500Y-89873100D01*
X202259500Y-89120700D01*
X203911900Y-89120700D01*
X203911900Y-89873100D01*
X203911900Y-89873100D01*
G37*
G36*
X206149100Y-89304500D02*
X204746700Y-89304500D01*
X204746700Y-88152100D01*
X206149100Y-88152100D01*
X206149100Y-89304500D01*
X206149100Y-89304500D01*
G37*
G36*
X244690043Y-87554357D02*
X244851058Y-87587409D01*
X245002601Y-87651111D01*
X245138873Y-87743029D01*
X245254706Y-87859672D01*
X245345668Y-87996582D01*
X245408310Y-88148563D01*
X245440168Y-88309456D01*
X245440168Y-88309466D01*
X245440236Y-88309810D01*
X245437615Y-88497563D01*
X245437537Y-88497906D01*
X245437537Y-88497909D01*
X245401197Y-88657861D01*
X245334340Y-88808025D01*
X245239584Y-88942347D01*
X245120545Y-89055708D01*
X244981753Y-89143788D01*
X244828499Y-89203231D01*
X244666619Y-89231775D01*
X244502273Y-89228332D01*
X244341728Y-89193035D01*
X244191094Y-89127224D01*
X244056118Y-89033413D01*
X243941930Y-88915168D01*
X243852883Y-88776994D01*
X243792369Y-88624153D01*
X243762697Y-88462481D01*
X243764991Y-88298116D01*
X243799169Y-88137326D01*
X243863923Y-87986240D01*
X243956794Y-87850607D01*
X244074237Y-87735598D01*
X244211786Y-87645588D01*
X244364197Y-87584010D01*
X244525662Y-87553209D01*
X244690043Y-87554357D01*
X244690043Y-87554357D01*
G37*
G36*
X222067408Y-89216474D02*
X220415008Y-89216474D01*
X220415008Y-88464074D01*
X222067408Y-88464074D01*
X222067408Y-89216474D01*
X222067408Y-89216474D01*
G37*
G36*
X216667408Y-89216474D02*
X215015008Y-89216474D01*
X215015008Y-88464074D01*
X216667408Y-88464074D01*
X216667408Y-89216474D01*
X216667408Y-89216474D01*
G37*
G36*
X213849300Y-89082700D02*
X212946900Y-89082700D01*
X212946900Y-88130300D01*
X213849300Y-88130300D01*
X213849300Y-89082700D01*
X213849300Y-89082700D01*
G37*
G36*
X181303356Y-88970814D02*
X179650956Y-88970814D01*
X179650956Y-88218414D01*
X181303356Y-88218414D01*
X181303356Y-88970814D01*
X181303356Y-88970814D01*
G37*
G36*
X186703356Y-88970814D02*
X185050956Y-88970814D01*
X185050956Y-88218414D01*
X186703356Y-88218414D01*
X186703356Y-88970814D01*
X186703356Y-88970814D01*
G37*
G36*
X193080000Y-88943500D02*
X191927600Y-88943500D01*
X191927600Y-86291100D01*
X193080000Y-86291100D01*
X193080000Y-88943500D01*
X193080000Y-88943500D01*
G37*
G36*
X196080000Y-88943500D02*
X194927600Y-88943500D01*
X194927600Y-86291100D01*
X196080000Y-86291100D01*
X196080000Y-88943500D01*
X196080000Y-88943500D01*
G37*
G36*
X230472300Y-88880700D02*
X227819900Y-88880700D01*
X227819900Y-87728300D01*
X230472300Y-87728300D01*
X230472300Y-88880700D01*
X230472300Y-88880700D01*
G37*
G36*
X212067300Y-88872700D02*
X210664900Y-88872700D01*
X210664900Y-87720300D01*
X212067300Y-87720300D01*
X212067300Y-88872700D01*
X212067300Y-88872700D01*
G37*
G36*
X198511900Y-88603100D02*
X196859500Y-88603100D01*
X196859500Y-87850700D01*
X198511900Y-87850700D01*
X198511900Y-88603100D01*
X198511900Y-88603100D01*
G37*
G36*
X203911900Y-88603100D02*
X202259500Y-88603100D01*
X202259500Y-87850700D01*
X203911900Y-87850700D01*
X203911900Y-88603100D01*
X203911900Y-88603100D01*
G37*
G36*
X226067700Y-88462200D02*
X225115300Y-88462200D01*
X225115300Y-87559800D01*
X226067700Y-87559800D01*
X226067700Y-88462200D01*
X226067700Y-88462200D01*
G37*
G36*
X224567700Y-88462200D02*
X223615300Y-88462200D01*
X223615300Y-87559800D01*
X224567700Y-87559800D01*
X224567700Y-88462200D01*
X224567700Y-88462200D01*
G37*
G36*
X176330556Y-87966314D02*
X175378156Y-87966314D01*
X175378156Y-87063914D01*
X176330556Y-87063914D01*
X176330556Y-87966314D01*
X176330556Y-87966314D01*
G37*
G36*
X174830556Y-87966314D02*
X173878156Y-87966314D01*
X173878156Y-87063914D01*
X174830556Y-87063914D01*
X174830556Y-87966314D01*
X174830556Y-87966314D01*
G37*
G36*
X222067408Y-87946474D02*
X220415008Y-87946474D01*
X220415008Y-87194074D01*
X222067408Y-87194074D01*
X222067408Y-87946474D01*
X222067408Y-87946474D01*
G37*
G36*
X216667408Y-87946474D02*
X215015008Y-87946474D01*
X215015008Y-87194074D01*
X216667408Y-87194074D01*
X216667408Y-87946474D01*
X216667408Y-87946474D01*
G37*
G36*
X209708700Y-87941500D02*
X208756300Y-87941500D01*
X208756300Y-87039100D01*
X209708700Y-87039100D01*
X209708700Y-87941500D01*
X209708700Y-87941500D01*
G37*
G36*
X208208700Y-87941500D02*
X207256300Y-87941500D01*
X207256300Y-87039100D01*
X208208700Y-87039100D01*
X208208700Y-87941500D01*
X208208700Y-87941500D01*
G37*
G36*
X236080900Y-87906300D02*
X235128500Y-87906300D01*
X235128500Y-87003900D01*
X236080900Y-87003900D01*
X236080900Y-87906300D01*
X236080900Y-87906300D01*
G37*
G36*
X234580900Y-87906300D02*
X233628500Y-87906300D01*
X233628500Y-87003900D01*
X234580900Y-87003900D01*
X234580900Y-87906300D01*
X234580900Y-87906300D01*
G37*
G36*
X188446756Y-87776114D02*
X187544356Y-87776114D01*
X187544356Y-86823714D01*
X188446756Y-86823714D01*
X188446756Y-87776114D01*
X188446756Y-87776114D01*
G37*
G36*
X178845556Y-87775414D02*
X177943156Y-87775414D01*
X177943156Y-86823014D01*
X178845556Y-86823014D01*
X178845556Y-87775414D01*
X178845556Y-87775414D01*
G37*
G36*
X173130556Y-87737314D02*
X172228156Y-87737314D01*
X172228156Y-86784914D01*
X173130556Y-86784914D01*
X173130556Y-87737314D01*
X173130556Y-87737314D01*
G37*
G36*
X190364456Y-87711914D02*
X189462056Y-87711914D01*
X189462056Y-86759514D01*
X190364456Y-86759514D01*
X190364456Y-87711914D01*
X190364456Y-87711914D01*
G37*
G36*
X186703356Y-87700814D02*
X185050956Y-87700814D01*
X185050956Y-86948414D01*
X186703356Y-86948414D01*
X186703356Y-87700814D01*
X186703356Y-87700814D01*
G37*
G36*
X181303356Y-87700814D02*
X179650956Y-87700814D01*
X179650956Y-86948414D01*
X181303356Y-86948414D01*
X181303356Y-87700814D01*
X181303356Y-87700814D01*
G37*
G36*
X203911900Y-87333100D02*
X202259500Y-87333100D01*
X202259500Y-86580700D01*
X203911900Y-86580700D01*
X203911900Y-87333100D01*
X203911900Y-87333100D01*
G37*
G36*
X198511900Y-87333100D02*
X196859500Y-87333100D01*
X196859500Y-86580700D01*
X198511900Y-86580700D01*
X198511900Y-87333100D01*
X198511900Y-87333100D01*
G37*
G36*
X206149100Y-87304500D02*
X204746700Y-87304500D01*
X204746700Y-86152100D01*
X206149100Y-86152100D01*
X206149100Y-87304500D01*
X206149100Y-87304500D01*
G37*
G36*
X227183000Y-86885400D02*
X224530600Y-86885400D01*
X224530600Y-85733000D01*
X227183000Y-85733000D01*
X227183000Y-86885400D01*
X227183000Y-86885400D01*
G37*
G36*
X212067300Y-86872700D02*
X210664900Y-86872700D01*
X210664900Y-85720300D01*
X212067300Y-85720300D01*
X212067300Y-86872700D01*
X212067300Y-86872700D01*
G37*
G36*
X223755300Y-86772700D02*
X222852900Y-86772700D01*
X222852900Y-85820300D01*
X223755300Y-85820300D01*
X223755300Y-86772700D01*
X223755300Y-86772700D01*
G37*
G36*
X244690043Y-85014357D02*
X244851058Y-85047409D01*
X245002601Y-85111111D01*
X245138873Y-85203029D01*
X245254706Y-85319672D01*
X245345668Y-85456582D01*
X245408310Y-85608563D01*
X245440168Y-85769456D01*
X245440168Y-85769466D01*
X245440236Y-85769810D01*
X245437615Y-85957563D01*
X245437537Y-85957906D01*
X245437537Y-85957909D01*
X245401197Y-86117861D01*
X245334340Y-86268025D01*
X245239584Y-86402347D01*
X245120545Y-86515708D01*
X244981753Y-86603788D01*
X244828499Y-86663231D01*
X244666619Y-86691775D01*
X244502273Y-86688332D01*
X244341728Y-86653035D01*
X244191094Y-86587224D01*
X244056118Y-86493413D01*
X243941930Y-86375168D01*
X243852883Y-86236994D01*
X243792369Y-86084153D01*
X243762697Y-85922481D01*
X243764991Y-85758116D01*
X243799169Y-85597326D01*
X243863923Y-85446240D01*
X243956794Y-85310607D01*
X244074237Y-85195598D01*
X244211786Y-85105588D01*
X244364197Y-85044010D01*
X244525662Y-85013209D01*
X244690043Y-85014357D01*
X244690043Y-85014357D01*
G37*
G36*
X222067408Y-86676474D02*
X220415008Y-86676474D01*
X220415008Y-85924074D01*
X222067408Y-85924074D01*
X222067408Y-86676474D01*
X222067408Y-86676474D01*
G37*
G36*
X216667408Y-86676474D02*
X215015008Y-86676474D01*
X215015008Y-85924074D01*
X216667408Y-85924074D01*
X216667408Y-86676474D01*
X216667408Y-86676474D01*
G37*
G36*
X214274300Y-86618700D02*
X212521900Y-86618700D01*
X212521900Y-85466300D01*
X214274300Y-85466300D01*
X214274300Y-86618700D01*
X214274300Y-86618700D01*
G37*
G36*
X186703356Y-86430814D02*
X185050956Y-86430814D01*
X185050956Y-85678414D01*
X186703356Y-85678414D01*
X186703356Y-86430814D01*
X186703356Y-86430814D01*
G37*
G36*
X181303356Y-86430814D02*
X179650956Y-86430814D01*
X179650956Y-85678414D01*
X181303356Y-85678414D01*
X181303356Y-86430814D01*
X181303356Y-86430814D01*
G37*
G36*
X188446756Y-86276114D02*
X187544356Y-86276114D01*
X187544356Y-85323714D01*
X188446756Y-85323714D01*
X188446756Y-86276114D01*
X188446756Y-86276114D01*
G37*
G36*
X178845556Y-86275414D02*
X177943156Y-86275414D01*
X177943156Y-85323014D01*
X178845556Y-85323014D01*
X178845556Y-86275414D01*
X178845556Y-86275414D01*
G37*
G36*
X173130556Y-86237314D02*
X172228156Y-86237314D01*
X172228156Y-85284914D01*
X173130556Y-85284914D01*
X173130556Y-86237314D01*
X173130556Y-86237314D01*
G37*
G36*
X176406756Y-86226414D02*
X175454356Y-86226414D01*
X175454356Y-85324014D01*
X176406756Y-85324014D01*
X176406756Y-86226414D01*
X176406756Y-86226414D01*
G37*
G36*
X174906756Y-86226414D02*
X173954356Y-86226414D01*
X173954356Y-85324014D01*
X174906756Y-85324014D01*
X174906756Y-86226414D01*
X174906756Y-86226414D01*
G37*
G36*
X190364456Y-86211914D02*
X189462056Y-86211914D01*
X189462056Y-85259514D01*
X190364456Y-85259514D01*
X190364456Y-86211914D01*
X190364456Y-86211914D01*
G37*
G36*
X237790900Y-86076300D02*
X236638500Y-86076300D01*
X236638500Y-84323900D01*
X237790900Y-84323900D01*
X237790900Y-86076300D01*
X237790900Y-86076300D01*
G37*
G36*
X234790900Y-86076300D02*
X233638500Y-86076300D01*
X233638500Y-84323900D01*
X234790900Y-84323900D01*
X234790900Y-86076300D01*
X234790900Y-86076300D01*
G37*
G36*
X203911900Y-86063100D02*
X202259500Y-86063100D01*
X202259500Y-85310700D01*
X203911900Y-85310700D01*
X203911900Y-86063100D01*
X203911900Y-86063100D01*
G37*
G36*
X198511900Y-86063100D02*
X196859500Y-86063100D01*
X196859500Y-85310700D01*
X198511900Y-85310700D01*
X198511900Y-86063100D01*
X198511900Y-86063100D01*
G37*
G36*
X230472300Y-85880700D02*
X227819900Y-85880700D01*
X227819900Y-84728300D01*
X230472300Y-84728300D01*
X230472300Y-85880700D01*
X230472300Y-85880700D01*
G37*
G36*
X194087700Y-85592000D02*
X193135300Y-85592000D01*
X193135300Y-84689600D01*
X194087700Y-84689600D01*
X194087700Y-85592000D01*
X194087700Y-85592000D01*
G37*
G36*
X192587700Y-85592000D02*
X191635300Y-85592000D01*
X191635300Y-84689600D01*
X192587700Y-84689600D01*
X192587700Y-85592000D01*
X192587700Y-85592000D01*
G37*
G36*
X196018500Y-85504100D02*
X195116100Y-85504100D01*
X195116100Y-84551700D01*
X196018500Y-84551700D01*
X196018500Y-85504100D01*
X196018500Y-85504100D01*
G37*
G36*
X222067408Y-85406474D02*
X220415008Y-85406474D01*
X220415008Y-84654074D01*
X222067408Y-84654074D01*
X222067408Y-85406474D01*
X222067408Y-85406474D01*
G37*
G36*
X216667408Y-85406474D02*
X215015008Y-85406474D01*
X215015008Y-84654074D01*
X216667408Y-84654074D01*
X216667408Y-85406474D01*
X216667408Y-85406474D01*
G37*
G36*
X205695900Y-85299500D02*
X204793500Y-85299500D01*
X204793500Y-84347100D01*
X205695900Y-84347100D01*
X205695900Y-85299500D01*
X205695900Y-85299500D01*
G37*
G36*
X223755300Y-85272700D02*
X222852900Y-85272700D01*
X222852900Y-84320300D01*
X223755300Y-84320300D01*
X223755300Y-85272700D01*
X223755300Y-85272700D01*
G37*
G36*
X207461200Y-85249400D02*
X206558800Y-85249400D01*
X206558800Y-84297000D01*
X207461200Y-84297000D01*
X207461200Y-85249400D01*
X207461200Y-85249400D01*
G37*
G36*
X210318300Y-84969700D02*
X209365900Y-84969700D01*
X209365900Y-84067300D01*
X210318300Y-84067300D01*
X210318300Y-84969700D01*
X210318300Y-84969700D01*
G37*
G36*
X211818300Y-84969700D02*
X210865900Y-84969700D01*
X210865900Y-84067300D01*
X211818300Y-84067300D01*
X211818300Y-84969700D01*
X211818300Y-84969700D01*
G37*
G36*
X198511900Y-84793100D02*
X196859500Y-84793100D01*
X196859500Y-84040700D01*
X198511900Y-84040700D01*
X198511900Y-84793100D01*
X198511900Y-84793100D01*
G37*
G36*
X203911900Y-84793100D02*
X202259500Y-84793100D01*
X202259500Y-84040700D01*
X203911900Y-84040700D01*
X203911900Y-84793100D01*
X203911900Y-84793100D01*
G37*
G36*
X244690043Y-82474357D02*
X244851058Y-82507409D01*
X245002601Y-82571111D01*
X245138873Y-82663029D01*
X245254706Y-82779672D01*
X245345668Y-82916582D01*
X245408310Y-83068563D01*
X245440168Y-83229456D01*
X245440168Y-83229466D01*
X245440236Y-83229810D01*
X245437615Y-83417563D01*
X245437537Y-83417906D01*
X245437537Y-83417909D01*
X245401197Y-83577861D01*
X245334340Y-83728025D01*
X245239584Y-83862347D01*
X245120545Y-83975708D01*
X244981753Y-84063788D01*
X244828499Y-84123231D01*
X244666619Y-84151775D01*
X244502273Y-84148332D01*
X244341728Y-84113035D01*
X244191094Y-84047224D01*
X244056118Y-83953413D01*
X243941930Y-83835168D01*
X243852883Y-83696994D01*
X243792369Y-83544153D01*
X243762697Y-83382481D01*
X243764991Y-83218116D01*
X243799169Y-83057326D01*
X243863923Y-82906240D01*
X243956794Y-82770607D01*
X244074237Y-82655598D01*
X244211786Y-82565588D01*
X244364197Y-82504010D01*
X244525662Y-82473209D01*
X244690043Y-82474357D01*
X244690043Y-82474357D01*
G37*
G36*
X196018500Y-84004100D02*
X195116100Y-84004100D01*
X195116100Y-83051700D01*
X196018500Y-83051700D01*
X196018500Y-84004100D01*
X196018500Y-84004100D01*
G37*
G36*
X192575700Y-83902900D02*
X191623300Y-83902900D01*
X191623300Y-83000500D01*
X192575700Y-83000500D01*
X192575700Y-83902900D01*
X192575700Y-83902900D01*
G37*
G36*
X194075700Y-83902900D02*
X193123300Y-83902900D01*
X193123300Y-83000500D01*
X194075700Y-83000500D01*
X194075700Y-83902900D01*
X194075700Y-83902900D01*
G37*
G36*
X227183000Y-83885400D02*
X224530600Y-83885400D01*
X224530600Y-82733000D01*
X227183000Y-82733000D01*
X227183000Y-83885400D01*
X227183000Y-83885400D01*
G37*
G36*
X205695900Y-83799500D02*
X204793500Y-83799500D01*
X204793500Y-82847100D01*
X205695900Y-82847100D01*
X205695900Y-83799500D01*
X205695900Y-83799500D01*
G37*
G36*
X207461200Y-83749400D02*
X206558800Y-83749400D01*
X206558800Y-82797000D01*
X207461200Y-82797000D01*
X207461200Y-83749400D01*
X207461200Y-83749400D01*
G37*
G36*
X214274300Y-83618700D02*
X212521900Y-83618700D01*
X212521900Y-82466300D01*
X214274300Y-82466300D01*
X214274300Y-83618700D01*
X214274300Y-83618700D01*
G37*
G36*
X223880300Y-83616700D02*
X222727900Y-83616700D01*
X222727900Y-81864300D01*
X223880300Y-81864300D01*
X223880300Y-83616700D01*
X223880300Y-83616700D01*
G37*
G36*
X220880300Y-83616700D02*
X219727900Y-83616700D01*
X219727900Y-81864300D01*
X220880300Y-81864300D01*
X220880300Y-83616700D01*
X220880300Y-83616700D01*
G37*
G36*
X218930300Y-83445700D02*
X217977900Y-83445700D01*
X217977900Y-82543300D01*
X218930300Y-82543300D01*
X218930300Y-83445700D01*
X218930300Y-83445700D01*
G37*
G36*
X217430300Y-83445700D02*
X216477900Y-83445700D01*
X216477900Y-82543300D01*
X217430300Y-82543300D01*
X217430300Y-83445700D01*
X217430300Y-83445700D01*
G37*
G36*
X211818300Y-83191700D02*
X210865900Y-83191700D01*
X210865900Y-82289300D01*
X211818300Y-82289300D01*
X211818300Y-83191700D01*
X211818300Y-83191700D01*
G37*
G36*
X210318300Y-83191700D02*
X209365900Y-83191700D01*
X209365900Y-82289300D01*
X210318300Y-82289300D01*
X210318300Y-83191700D01*
X210318300Y-83191700D01*
G37*
G36*
X235409270Y-80879917D02*
X235409275Y-80879919D01*
X235409317Y-80879923D01*
X235612945Y-80942956D01*
X235800450Y-81044340D01*
X235964693Y-81180214D01*
X236099417Y-81345401D01*
X236199489Y-81533610D01*
X236261099Y-81737672D01*
X236281900Y-81949815D01*
X236281900Y-81960385D01*
X236281794Y-81975634D01*
X236258033Y-82187466D01*
X236193580Y-82390648D01*
X236090889Y-82577442D01*
X235953872Y-82740732D01*
X235787749Y-82874299D01*
X235598845Y-82973055D01*
X235394358Y-83033239D01*
X235394317Y-83033243D01*
X235394313Y-83033244D01*
X235182077Y-83052559D01*
X234970130Y-83030283D01*
X234970125Y-83030281D01*
X234970083Y-83030277D01*
X234766455Y-82967244D01*
X234578950Y-82865860D01*
X234414707Y-82729986D01*
X234279983Y-82564799D01*
X234179911Y-82376590D01*
X234118301Y-82172528D01*
X234097500Y-81960385D01*
X234097500Y-81949815D01*
X234097606Y-81934566D01*
X234121367Y-81722734D01*
X234185820Y-81519552D01*
X234288511Y-81332758D01*
X234425528Y-81169468D01*
X234591651Y-81035901D01*
X234780555Y-80937145D01*
X234985042Y-80876961D01*
X234985083Y-80876957D01*
X234985087Y-80876956D01*
X235197323Y-80857641D01*
X235409270Y-80879917D01*
X235409270Y-80879917D01*
G37*
G36*
X238821900Y-83047300D02*
X236637500Y-83047300D01*
X236637500Y-80862900D01*
X238821900Y-80862900D01*
X238821900Y-83047300D01*
X238821900Y-83047300D01*
G37*
G36*
X201835400Y-82975800D02*
X200883000Y-82975800D01*
X200883000Y-82073400D01*
X201835400Y-82073400D01*
X201835400Y-82975800D01*
X201835400Y-82975800D01*
G37*
G36*
X200335400Y-82975800D02*
X199383000Y-82975800D01*
X199383000Y-82073400D01*
X200335400Y-82073400D01*
X200335400Y-82975800D01*
X200335400Y-82975800D01*
G37*
G36*
X198584700Y-82187100D02*
X197432300Y-82187100D01*
X197432300Y-79534700D01*
X198584700Y-79534700D01*
X198584700Y-82187100D01*
X198584700Y-82187100D01*
G37*
G36*
X195584700Y-82187100D02*
X194432300Y-82187100D01*
X194432300Y-79534700D01*
X195584700Y-79534700D01*
X195584700Y-82187100D01*
X195584700Y-82187100D01*
G37*
G36*
X244690043Y-79934357D02*
X244851058Y-79967409D01*
X245002601Y-80031111D01*
X245138873Y-80123029D01*
X245254706Y-80239672D01*
X245345668Y-80376582D01*
X245408310Y-80528563D01*
X245440168Y-80689456D01*
X245440168Y-80689466D01*
X245440236Y-80689810D01*
X245437615Y-80877563D01*
X245437537Y-80877906D01*
X245437537Y-80877909D01*
X245401197Y-81037861D01*
X245334340Y-81188025D01*
X245239584Y-81322347D01*
X245120545Y-81435708D01*
X244981753Y-81523788D01*
X244828499Y-81583231D01*
X244666619Y-81611775D01*
X244502273Y-81608332D01*
X244341728Y-81573035D01*
X244191094Y-81507224D01*
X244056118Y-81413413D01*
X243941930Y-81295168D01*
X243852883Y-81156994D01*
X243792369Y-81004153D01*
X243762697Y-80842481D01*
X243764991Y-80678116D01*
X243799169Y-80517326D01*
X243863923Y-80366240D01*
X243956794Y-80230607D01*
X244074237Y-80115598D01*
X244211786Y-80025588D01*
X244364197Y-79964010D01*
X244525662Y-79933209D01*
X244690043Y-79934357D01*
X244690043Y-79934357D01*
G37*
G36*
X210950300Y-81584700D02*
X209797900Y-81584700D01*
X209797900Y-79832300D01*
X210950300Y-79832300D01*
X210950300Y-81584700D01*
X210950300Y-81584700D01*
G37*
G36*
X213950300Y-81584700D02*
X212797900Y-81584700D01*
X212797900Y-79832300D01*
X213950300Y-79832300D01*
X213950300Y-81584700D01*
X213950300Y-81584700D01*
G37*
G36*
X204272200Y-80435200D02*
X201619800Y-80435200D01*
X201619800Y-79282800D01*
X204272200Y-79282800D01*
X204272200Y-80435200D01*
X204272200Y-80435200D01*
G37*
G36*
X244690043Y-77394357D02*
X244851058Y-77427409D01*
X245002601Y-77491111D01*
X245138873Y-77583029D01*
X245254706Y-77699672D01*
X245345668Y-77836582D01*
X245408310Y-77988563D01*
X245440168Y-78149456D01*
X245440168Y-78149466D01*
X245440236Y-78149810D01*
X245437615Y-78337563D01*
X245437537Y-78337906D01*
X245437537Y-78337909D01*
X245401197Y-78497861D01*
X245334340Y-78648025D01*
X245239584Y-78782347D01*
X245120545Y-78895708D01*
X244981753Y-78983788D01*
X244828499Y-79043231D01*
X244666619Y-79071775D01*
X244502273Y-79068332D01*
X244341728Y-79033035D01*
X244191094Y-78967224D01*
X244056118Y-78873413D01*
X243941930Y-78755168D01*
X243852883Y-78616994D01*
X243792369Y-78464153D01*
X243762697Y-78302481D01*
X243764991Y-78138116D01*
X243799169Y-77977326D01*
X243863923Y-77826240D01*
X243956794Y-77690607D01*
X244074237Y-77575598D01*
X244211786Y-77485588D01*
X244364197Y-77424010D01*
X244525662Y-77393209D01*
X244690043Y-77394357D01*
X244690043Y-77394357D01*
G37*
G36*
X176868782Y-75921219D02*
X176868829Y-75921224D01*
X177044043Y-75975462D01*
X177205385Y-76062699D01*
X177346711Y-76179614D01*
X177462635Y-76321752D01*
X177548744Y-76483699D01*
X177601758Y-76659288D01*
X177619656Y-76841829D01*
X177619656Y-77157231D01*
X177619579Y-77168263D01*
X177619578Y-77168268D01*
X177619564Y-77170321D01*
X177599119Y-77352594D01*
X177543659Y-77527426D01*
X177455298Y-77688155D01*
X177337400Y-77828660D01*
X177194456Y-77943590D01*
X177031911Y-78028566D01*
X176855957Y-78080353D01*
X176855916Y-78080357D01*
X176855912Y-78080358D01*
X176673298Y-78096977D01*
X176490930Y-78077809D01*
X176490883Y-78077804D01*
X176315669Y-78023566D01*
X176154327Y-77936329D01*
X176013001Y-77819414D01*
X175897077Y-77677276D01*
X175810968Y-77515329D01*
X175757954Y-77339740D01*
X175740056Y-77157199D01*
X175740056Y-76841797D01*
X175740133Y-76830765D01*
X175740134Y-76830760D01*
X175740148Y-76828707D01*
X175760593Y-76646434D01*
X175816053Y-76471602D01*
X175904414Y-76310873D01*
X176022312Y-76170368D01*
X176165256Y-76055438D01*
X176327801Y-75970462D01*
X176503755Y-75918675D01*
X176503796Y-75918671D01*
X176503800Y-75918670D01*
X176686414Y-75902051D01*
X176868782Y-75921219D01*
X176868782Y-75921219D01*
G37*
G36*
X184488782Y-75921219D02*
X184488829Y-75921224D01*
X184664043Y-75975462D01*
X184825385Y-76062699D01*
X184966711Y-76179614D01*
X185082635Y-76321752D01*
X185168744Y-76483699D01*
X185221758Y-76659288D01*
X185239656Y-76841829D01*
X185239656Y-77157231D01*
X185239579Y-77168263D01*
X185239578Y-77168268D01*
X185239564Y-77170321D01*
X185219119Y-77352594D01*
X185163659Y-77527426D01*
X185075298Y-77688155D01*
X184957400Y-77828660D01*
X184814456Y-77943590D01*
X184651911Y-78028566D01*
X184475957Y-78080353D01*
X184475916Y-78080357D01*
X184475912Y-78080358D01*
X184293298Y-78096977D01*
X184110930Y-78077809D01*
X184110883Y-78077804D01*
X183935669Y-78023566D01*
X183774327Y-77936329D01*
X183633001Y-77819414D01*
X183517077Y-77677276D01*
X183430968Y-77515329D01*
X183377954Y-77339740D01*
X183360056Y-77157199D01*
X183360056Y-76841797D01*
X183360133Y-76830765D01*
X183360134Y-76830760D01*
X183360148Y-76828707D01*
X183380593Y-76646434D01*
X183436053Y-76471602D01*
X183524414Y-76310873D01*
X183642312Y-76170368D01*
X183785256Y-76055438D01*
X183947801Y-75970462D01*
X184123755Y-75918675D01*
X184123796Y-75918671D01*
X184123800Y-75918670D01*
X184306414Y-75902051D01*
X184488782Y-75921219D01*
X184488782Y-75921219D01*
G37*
G36*
X181948782Y-75921219D02*
X181948829Y-75921224D01*
X182124043Y-75975462D01*
X182285385Y-76062699D01*
X182426711Y-76179614D01*
X182542635Y-76321752D01*
X182628744Y-76483699D01*
X182681758Y-76659288D01*
X182699656Y-76841829D01*
X182699656Y-77157231D01*
X182699579Y-77168263D01*
X182699578Y-77168268D01*
X182699564Y-77170321D01*
X182679119Y-77352594D01*
X182623659Y-77527426D01*
X182535298Y-77688155D01*
X182417400Y-77828660D01*
X182274456Y-77943590D01*
X182111911Y-78028566D01*
X181935957Y-78080353D01*
X181935916Y-78080357D01*
X181935912Y-78080358D01*
X181753298Y-78096977D01*
X181570930Y-78077809D01*
X181570883Y-78077804D01*
X181395669Y-78023566D01*
X181234327Y-77936329D01*
X181093001Y-77819414D01*
X180977077Y-77677276D01*
X180890968Y-77515329D01*
X180837954Y-77339740D01*
X180820056Y-77157199D01*
X180820056Y-76841797D01*
X180820133Y-76830765D01*
X180820134Y-76830760D01*
X180820148Y-76828707D01*
X180840593Y-76646434D01*
X180896053Y-76471602D01*
X180984414Y-76310873D01*
X181102312Y-76170368D01*
X181245256Y-76055438D01*
X181407801Y-75970462D01*
X181583755Y-75918675D01*
X181583796Y-75918671D01*
X181583800Y-75918670D01*
X181766414Y-75902051D01*
X181948782Y-75921219D01*
X181948782Y-75921219D01*
G37*
G36*
X174328782Y-75921219D02*
X174328829Y-75921224D01*
X174504043Y-75975462D01*
X174665385Y-76062699D01*
X174806711Y-76179614D01*
X174922635Y-76321752D01*
X175008744Y-76483699D01*
X175061758Y-76659288D01*
X175079656Y-76841829D01*
X175079656Y-77157231D01*
X175079579Y-77168263D01*
X175079578Y-77168268D01*
X175079564Y-77170321D01*
X175059119Y-77352594D01*
X175003659Y-77527426D01*
X174915298Y-77688155D01*
X174797400Y-77828660D01*
X174654456Y-77943590D01*
X174491911Y-78028566D01*
X174315957Y-78080353D01*
X174315916Y-78080357D01*
X174315912Y-78080358D01*
X174133298Y-78096977D01*
X173950930Y-78077809D01*
X173950883Y-78077804D01*
X173775669Y-78023566D01*
X173614327Y-77936329D01*
X173473001Y-77819414D01*
X173357077Y-77677276D01*
X173270968Y-77515329D01*
X173217954Y-77339740D01*
X173200056Y-77157199D01*
X173200056Y-76841797D01*
X173200133Y-76830765D01*
X173200134Y-76830760D01*
X173200148Y-76828707D01*
X173220593Y-76646434D01*
X173276053Y-76471602D01*
X173364414Y-76310873D01*
X173482312Y-76170368D01*
X173625256Y-76055438D01*
X173787801Y-75970462D01*
X173963755Y-75918675D01*
X173963796Y-75918671D01*
X173963800Y-75918670D01*
X174146414Y-75902051D01*
X174328782Y-75921219D01*
X174328782Y-75921219D01*
G37*
G36*
X179408782Y-75921219D02*
X179408829Y-75921224D01*
X179584043Y-75975462D01*
X179745385Y-76062699D01*
X179886711Y-76179614D01*
X180002635Y-76321752D01*
X180088744Y-76483699D01*
X180141758Y-76659288D01*
X180159656Y-76841829D01*
X180159656Y-77157231D01*
X180159579Y-77168263D01*
X180159578Y-77168268D01*
X180159564Y-77170321D01*
X180139119Y-77352594D01*
X180083659Y-77527426D01*
X179995298Y-77688155D01*
X179877400Y-77828660D01*
X179734456Y-77943590D01*
X179571911Y-78028566D01*
X179395957Y-78080353D01*
X179395916Y-78080357D01*
X179395912Y-78080358D01*
X179213298Y-78096977D01*
X179030930Y-78077809D01*
X179030883Y-78077804D01*
X178855669Y-78023566D01*
X178694327Y-77936329D01*
X178553001Y-77819414D01*
X178437077Y-77677276D01*
X178350968Y-77515329D01*
X178297954Y-77339740D01*
X178280056Y-77157199D01*
X178280056Y-76841797D01*
X178280133Y-76830765D01*
X178280134Y-76830760D01*
X178280148Y-76828707D01*
X178300593Y-76646434D01*
X178356053Y-76471602D01*
X178444414Y-76310873D01*
X178562312Y-76170368D01*
X178705256Y-76055438D01*
X178867801Y-75970462D01*
X179043755Y-75918675D01*
X179043796Y-75918671D01*
X179043800Y-75918670D01*
X179226414Y-75902051D01*
X179408782Y-75921219D01*
X179408782Y-75921219D01*
G37*
G36*
X187779656Y-78091714D02*
X185900056Y-78091714D01*
X185900056Y-75907314D01*
X187779656Y-75907314D01*
X187779656Y-78091714D01*
X187779656Y-78091714D01*
G37*
G36*
X204272200Y-77435200D02*
X201619800Y-77435200D01*
X201619800Y-76282800D01*
X204272200Y-76282800D01*
X204272200Y-77435200D01*
X204272200Y-77435200D01*
G37*
G36*
X218771398Y-76567058D02*
X216713998Y-76567058D01*
X216713998Y-75017658D01*
X218771398Y-75017658D01*
X218771398Y-76567058D01*
X218771398Y-76567058D01*
G37*
G36*
X214300998Y-76567058D02*
X212243598Y-76567058D01*
X212243598Y-75017658D01*
X214300998Y-75017658D01*
X214300998Y-76567058D01*
X214300998Y-76567058D01*
G37*
G36*
X244690043Y-74854357D02*
X244851058Y-74887409D01*
X245002601Y-74951111D01*
X245138873Y-75043029D01*
X245254706Y-75159672D01*
X245345668Y-75296582D01*
X245408310Y-75448563D01*
X245440168Y-75609456D01*
X245440168Y-75609466D01*
X245440236Y-75609810D01*
X245437615Y-75797563D01*
X245437537Y-75797906D01*
X245437537Y-75797909D01*
X245401197Y-75957861D01*
X245334340Y-76108025D01*
X245239584Y-76242347D01*
X245120545Y-76355708D01*
X244981753Y-76443788D01*
X244828499Y-76503231D01*
X244666619Y-76531775D01*
X244502273Y-76528332D01*
X244341728Y-76493035D01*
X244191094Y-76427224D01*
X244056118Y-76333413D01*
X243941930Y-76215168D01*
X243852883Y-76076994D01*
X243792369Y-75924153D01*
X243762697Y-75762481D01*
X243764991Y-75598116D01*
X243799169Y-75437326D01*
X243863923Y-75286240D01*
X243956794Y-75150607D01*
X244074237Y-75035598D01*
X244211786Y-74945588D01*
X244364197Y-74884010D01*
X244525662Y-74853209D01*
X244690043Y-74854357D01*
X244690043Y-74854357D01*
G37*
G36*
X211525298Y-76500558D02*
X210622898Y-76500558D01*
X210622898Y-75548158D01*
X211525298Y-75548158D01*
X211525298Y-76500558D01*
X211525298Y-76500558D01*
G37*
G36*
X196916200Y-75601200D02*
X195513800Y-75601200D01*
X195513800Y-74448800D01*
X196916200Y-74448800D01*
X196916200Y-75601200D01*
X196916200Y-75601200D01*
G37*
G36*
X211525298Y-75000558D02*
X210622898Y-75000558D01*
X210622898Y-74048158D01*
X211525298Y-74048158D01*
X211525298Y-75000558D01*
X211525298Y-75000558D01*
G37*
G36*
X220466098Y-74925758D02*
X219563698Y-74925758D01*
X219563698Y-73973358D01*
X220466098Y-73973358D01*
X220466098Y-74925758D01*
X220466098Y-74925758D01*
G37*
G36*
X214300998Y-74077858D02*
X212243598Y-74077858D01*
X212243598Y-72528458D01*
X214300998Y-72528458D01*
X214300998Y-74077858D01*
X214300998Y-74077858D01*
G37*
G36*
X218771398Y-74077858D02*
X216713998Y-74077858D01*
X216713998Y-72528458D01*
X218771398Y-72528458D01*
X218771398Y-74077858D01*
X218771398Y-74077858D01*
G37*
G36*
X244690043Y-72314357D02*
X244851058Y-72347409D01*
X245002601Y-72411111D01*
X245138873Y-72503029D01*
X245254706Y-72619672D01*
X245345668Y-72756582D01*
X245408310Y-72908563D01*
X245440168Y-73069456D01*
X245440168Y-73069466D01*
X245440236Y-73069810D01*
X245437615Y-73257563D01*
X245437537Y-73257906D01*
X245437537Y-73257909D01*
X245401197Y-73417861D01*
X245334340Y-73568025D01*
X245239584Y-73702347D01*
X245120545Y-73815708D01*
X244981753Y-73903788D01*
X244828499Y-73963231D01*
X244666619Y-73991775D01*
X244502273Y-73988332D01*
X244341728Y-73953035D01*
X244191094Y-73887224D01*
X244056118Y-73793413D01*
X243941930Y-73675168D01*
X243852883Y-73536994D01*
X243792369Y-73384153D01*
X243762697Y-73222481D01*
X243764991Y-73058116D01*
X243799169Y-72897326D01*
X243863923Y-72746240D01*
X243956794Y-72610607D01*
X244074237Y-72495598D01*
X244211786Y-72405588D01*
X244364197Y-72344010D01*
X244525662Y-72313209D01*
X244690043Y-72314357D01*
X244690043Y-72314357D01*
G37*
G36*
X196916200Y-73601200D02*
X195513800Y-73601200D01*
X195513800Y-72448800D01*
X196916200Y-72448800D01*
X196916200Y-73601200D01*
X196916200Y-73601200D01*
G37*
G36*
X220466098Y-73425758D02*
X219563698Y-73425758D01*
X219563698Y-72473358D01*
X220466098Y-72473358D01*
X220466098Y-73425758D01*
X220466098Y-73425758D01*
G37*
G36*
X205038498Y-73415158D02*
X204086098Y-73415158D01*
X204086098Y-72512758D01*
X205038498Y-72512758D01*
X205038498Y-73415158D01*
X205038498Y-73415158D01*
G37*
G36*
X203538498Y-73415158D02*
X202586098Y-73415158D01*
X202586098Y-72512758D01*
X203538498Y-72512758D01*
X203538498Y-73415158D01*
X203538498Y-73415158D01*
G37*
G36*
X211551698Y-73261758D02*
X210599298Y-73261758D01*
X210599298Y-72359358D01*
X211551698Y-72359358D01*
X211551698Y-73261758D01*
X211551698Y-73261758D01*
G37*
G36*
X210051698Y-73261758D02*
X209099298Y-73261758D01*
X209099298Y-72359358D01*
X210051698Y-72359358D01*
X210051698Y-73261758D01*
X210051698Y-73261758D01*
G37*
G36*
X237613600Y-72516000D02*
X236711200Y-72516000D01*
X236711200Y-71563600D01*
X237613600Y-71563600D01*
X237613600Y-72516000D01*
X237613600Y-72516000D01*
G37*
G36*
X233371400Y-71803800D02*
X232419000Y-71803800D01*
X232419000Y-70901400D01*
X233371400Y-70901400D01*
X233371400Y-71803800D01*
X233371400Y-71803800D01*
G37*
G36*
X231871400Y-71803800D02*
X230919000Y-71803800D01*
X230919000Y-70901400D01*
X231871400Y-70901400D01*
X231871400Y-71803800D01*
X231871400Y-71803800D01*
G37*
G36*
X227985200Y-71803800D02*
X227032800Y-71803800D01*
X227032800Y-70901400D01*
X227985200Y-70901400D01*
X227985200Y-71803800D01*
X227985200Y-71803800D01*
G37*
G36*
X229485200Y-71803800D02*
X228532800Y-71803800D01*
X228532800Y-70901400D01*
X229485200Y-70901400D01*
X229485200Y-71803800D01*
X229485200Y-71803800D01*
G37*
G36*
X172121395Y-69577842D02*
X172130534Y-69577906D01*
X172342366Y-69601667D01*
X172545548Y-69666120D01*
X172732342Y-69768811D01*
X172895632Y-69905828D01*
X173029199Y-70071951D01*
X173127955Y-70260855D01*
X173188139Y-70465342D01*
X173188143Y-70465383D01*
X173188144Y-70465387D01*
X173207459Y-70677623D01*
X173185183Y-70889570D01*
X173185181Y-70889575D01*
X173185177Y-70889617D01*
X173122144Y-71093245D01*
X173020760Y-71280750D01*
X172884886Y-71444993D01*
X172719699Y-71579717D01*
X172531490Y-71679789D01*
X172327428Y-71741399D01*
X172115285Y-71762200D01*
X172104679Y-71762200D01*
X172098605Y-71762158D01*
X172089466Y-71762094D01*
X171877634Y-71738333D01*
X171674452Y-71673880D01*
X171487658Y-71571189D01*
X171324368Y-71434172D01*
X171190801Y-71268049D01*
X171092045Y-71079145D01*
X171031861Y-70874658D01*
X171031857Y-70874617D01*
X171031856Y-70874613D01*
X171012541Y-70662377D01*
X171034817Y-70450430D01*
X171034819Y-70450425D01*
X171034823Y-70450383D01*
X171097856Y-70246755D01*
X171199240Y-70059250D01*
X171335114Y-69895007D01*
X171500301Y-69760283D01*
X171688510Y-69660211D01*
X171892572Y-69598601D01*
X172104715Y-69577800D01*
X172115321Y-69577800D01*
X172121395Y-69577842D01*
X172121395Y-69577842D01*
G37*
G36*
X195373758Y-71494702D02*
X194421358Y-71494702D01*
X194421358Y-70592302D01*
X195373758Y-70592302D01*
X195373758Y-71494702D01*
X195373758Y-71494702D01*
G37*
G36*
X193873758Y-71494702D02*
X192921358Y-71494702D01*
X192921358Y-70592302D01*
X193873758Y-70592302D01*
X193873758Y-71494702D01*
X193873758Y-71494702D01*
G37*
G36*
X244690043Y-69774357D02*
X244851058Y-69807409D01*
X245002601Y-69871111D01*
X245138873Y-69963029D01*
X245254706Y-70079672D01*
X245345668Y-70216582D01*
X245408310Y-70368563D01*
X245440168Y-70529456D01*
X245440168Y-70529466D01*
X245440236Y-70529810D01*
X245437615Y-70717563D01*
X245437537Y-70717906D01*
X245437537Y-70717909D01*
X245401197Y-70877861D01*
X245334340Y-71028025D01*
X245239584Y-71162347D01*
X245120545Y-71275708D01*
X244981753Y-71363788D01*
X244828499Y-71423231D01*
X244666619Y-71451775D01*
X244502273Y-71448332D01*
X244341728Y-71413035D01*
X244191094Y-71347224D01*
X244056118Y-71253413D01*
X243941930Y-71135168D01*
X243852883Y-70996994D01*
X243792369Y-70844153D01*
X243762697Y-70682481D01*
X243764991Y-70518116D01*
X243799169Y-70357326D01*
X243863923Y-70206240D01*
X243956794Y-70070607D01*
X244074237Y-69955598D01*
X244211786Y-69865588D01*
X244364197Y-69804010D01*
X244525662Y-69773209D01*
X244690043Y-69774357D01*
X244690043Y-69774357D01*
G37*
G36*
X176371200Y-71146200D02*
X175468800Y-71146200D01*
X175468800Y-70193800D01*
X176371200Y-70193800D01*
X176371200Y-71146200D01*
X176371200Y-71146200D01*
G37*
G36*
X198179498Y-71130158D02*
X197277098Y-71130158D01*
X197277098Y-70177758D01*
X198179498Y-70177758D01*
X198179498Y-71130158D01*
X198179498Y-71130158D01*
G37*
G36*
X237613600Y-71016000D02*
X236711200Y-71016000D01*
X236711200Y-70063600D01*
X237613600Y-70063600D01*
X237613600Y-71016000D01*
X237613600Y-71016000D01*
G37*
G36*
X204880498Y-70975158D02*
X203328098Y-70975158D01*
X203328098Y-68522758D01*
X204880498Y-68522758D01*
X204880498Y-70975158D01*
X204880498Y-70975158D01*
G37*
G36*
X200480498Y-70975158D02*
X198928098Y-70975158D01*
X198928098Y-68522758D01*
X200480498Y-68522758D01*
X200480498Y-70975158D01*
X200480498Y-70975158D01*
G37*
G36*
X214641498Y-70963158D02*
X208739098Y-70963158D01*
X208739098Y-69510758D01*
X214641498Y-69510758D01*
X214641498Y-70963158D01*
X214641498Y-70963158D01*
G37*
G36*
X182402035Y-68524382D02*
X182570350Y-68558933D01*
X182728762Y-68625523D01*
X182871216Y-68721609D01*
X182992294Y-68843535D01*
X183087381Y-68986654D01*
X183152863Y-69145524D01*
X183186169Y-69313735D01*
X183186238Y-69314084D01*
X183183497Y-69510348D01*
X183183420Y-69510686D01*
X183183420Y-69510695D01*
X183145429Y-69677913D01*
X183075540Y-69834885D01*
X182976490Y-69975298D01*
X182852053Y-70093797D01*
X182706970Y-70185870D01*
X182546769Y-70248008D01*
X182377548Y-70277847D01*
X182205751Y-70274247D01*
X182037928Y-70237350D01*
X181880466Y-70168556D01*
X181739370Y-70070492D01*
X181620005Y-69946886D01*
X181526922Y-69802449D01*
X181463664Y-69642678D01*
X181432647Y-69473676D01*
X181435045Y-69301859D01*
X181470772Y-69133780D01*
X181538462Y-68975845D01*
X181635543Y-68834063D01*
X181758311Y-68713839D01*
X181902096Y-68619750D01*
X182061416Y-68555379D01*
X182230201Y-68523183D01*
X182402035Y-68524382D01*
X182402035Y-68524382D01*
G37*
G36*
X184902035Y-68524382D02*
X185070350Y-68558933D01*
X185228762Y-68625523D01*
X185371216Y-68721609D01*
X185492294Y-68843535D01*
X185587381Y-68986654D01*
X185652863Y-69145524D01*
X185686169Y-69313735D01*
X185686238Y-69314084D01*
X185683497Y-69510348D01*
X185683420Y-69510686D01*
X185683420Y-69510695D01*
X185645429Y-69677913D01*
X185575540Y-69834885D01*
X185476490Y-69975298D01*
X185352053Y-70093797D01*
X185206970Y-70185870D01*
X185046769Y-70248008D01*
X184877548Y-70277847D01*
X184705751Y-70274247D01*
X184537928Y-70237350D01*
X184380466Y-70168556D01*
X184239370Y-70070492D01*
X184120005Y-69946886D01*
X184026922Y-69802449D01*
X183963664Y-69642678D01*
X183932647Y-69473676D01*
X183935045Y-69301859D01*
X183970772Y-69133780D01*
X184038462Y-68975845D01*
X184135543Y-68834063D01*
X184258311Y-68713839D01*
X184402096Y-68619750D01*
X184561416Y-68555379D01*
X184730201Y-68523183D01*
X184902035Y-68524382D01*
X184902035Y-68524382D01*
G37*
G36*
X192612158Y-69928902D02*
X191809758Y-69928902D01*
X191809758Y-68026502D01*
X192612158Y-68026502D01*
X192612158Y-69928902D01*
X192612158Y-69928902D01*
G37*
G36*
X191342158Y-69928902D02*
X190539758Y-69928902D01*
X190539758Y-68026502D01*
X191342158Y-68026502D01*
X191342158Y-69928902D01*
X191342158Y-69928902D01*
G37*
G36*
X193882158Y-69928902D02*
X193079758Y-69928902D01*
X193079758Y-68026502D01*
X193882158Y-68026502D01*
X193882158Y-69928902D01*
X193882158Y-69928902D01*
G37*
G36*
X195152158Y-69928902D02*
X194349758Y-69928902D01*
X194349758Y-68026502D01*
X195152158Y-68026502D01*
X195152158Y-69928902D01*
X195152158Y-69928902D01*
G37*
G36*
X176371200Y-69646200D02*
X175468800Y-69646200D01*
X175468800Y-68693800D01*
X176371200Y-68693800D01*
X176371200Y-69646200D01*
X176371200Y-69646200D01*
G37*
G36*
X198179498Y-69630158D02*
X197277098Y-69630158D01*
X197277098Y-68677758D01*
X198179498Y-68677758D01*
X198179498Y-69630158D01*
X198179498Y-69630158D01*
G37*
G36*
X173202200Y-69222200D02*
X171017800Y-69222200D01*
X171017800Y-67037800D01*
X173202200Y-67037800D01*
X173202200Y-69222200D01*
X173202200Y-69222200D01*
G37*
G36*
X222055498Y-69122158D02*
X221153098Y-69122158D01*
X221153098Y-68169758D01*
X222055498Y-68169758D01*
X222055498Y-69122158D01*
X222055498Y-69122158D01*
G37*
G36*
X220277498Y-69122158D02*
X219375098Y-69122158D01*
X219375098Y-68169758D01*
X220277498Y-68169758D01*
X220277498Y-69122158D01*
X220277498Y-69122158D01*
G37*
G36*
X244690043Y-67234357D02*
X244851058Y-67267409D01*
X245002601Y-67331111D01*
X245138873Y-67423029D01*
X245254706Y-67539672D01*
X245345668Y-67676582D01*
X245408310Y-67828563D01*
X245440168Y-67989456D01*
X245440168Y-67989466D01*
X245440236Y-67989810D01*
X245437615Y-68177563D01*
X245437537Y-68177906D01*
X245437537Y-68177909D01*
X245401197Y-68337861D01*
X245334340Y-68488025D01*
X245239584Y-68622347D01*
X245120545Y-68735708D01*
X244981753Y-68823788D01*
X244828499Y-68883231D01*
X244666619Y-68911775D01*
X244502273Y-68908332D01*
X244341728Y-68873035D01*
X244191094Y-68807224D01*
X244056118Y-68713413D01*
X243941930Y-68595168D01*
X243852883Y-68456994D01*
X243792369Y-68304153D01*
X243762697Y-68142481D01*
X243764991Y-67978116D01*
X243799169Y-67817326D01*
X243863923Y-67666240D01*
X243956794Y-67530607D01*
X244074237Y-67415598D01*
X244211786Y-67325588D01*
X244364197Y-67264010D01*
X244525662Y-67233209D01*
X244690043Y-67234357D01*
X244690043Y-67234357D01*
G37*
G36*
X208066498Y-68838158D02*
X206614098Y-68838158D01*
X206614098Y-62935758D01*
X208066498Y-62935758D01*
X208066498Y-68838158D01*
X208066498Y-68838158D01*
G37*
G36*
X216766498Y-68838158D02*
X215314098Y-68838158D01*
X215314098Y-62935758D01*
X216766498Y-62935758D01*
X216766498Y-68838158D01*
X216766498Y-68838158D01*
G37*
G36*
X227983435Y-66463782D02*
X228151750Y-66498333D01*
X228310162Y-66564923D01*
X228452616Y-66661009D01*
X228573694Y-66782935D01*
X228668781Y-66926054D01*
X228734263Y-67084924D01*
X228767569Y-67253135D01*
X228767638Y-67253484D01*
X228764897Y-67449748D01*
X228764820Y-67450086D01*
X228764820Y-67450095D01*
X228726829Y-67617313D01*
X228656940Y-67774285D01*
X228557890Y-67914698D01*
X228433453Y-68033197D01*
X228288370Y-68125270D01*
X228128169Y-68187408D01*
X227958948Y-68217247D01*
X227787151Y-68213647D01*
X227619328Y-68176750D01*
X227461866Y-68107956D01*
X227320770Y-68009892D01*
X227201405Y-67886286D01*
X227108322Y-67741849D01*
X227045064Y-67582078D01*
X227014047Y-67413076D01*
X227016445Y-67241259D01*
X227052172Y-67073180D01*
X227119862Y-66915245D01*
X227216943Y-66773463D01*
X227339711Y-66653239D01*
X227483496Y-66559150D01*
X227642816Y-66494779D01*
X227811601Y-66462583D01*
X227983435Y-66463782D01*
X227983435Y-66463782D01*
G37*
G36*
X232863435Y-66463782D02*
X233031750Y-66498333D01*
X233190162Y-66564923D01*
X233332616Y-66661009D01*
X233453694Y-66782935D01*
X233548781Y-66926054D01*
X233614263Y-67084924D01*
X233647569Y-67253135D01*
X233647638Y-67253484D01*
X233644897Y-67449748D01*
X233644820Y-67450086D01*
X233644820Y-67450095D01*
X233606829Y-67617313D01*
X233536940Y-67774285D01*
X233437890Y-67914698D01*
X233313453Y-68033197D01*
X233168370Y-68125270D01*
X233008169Y-68187408D01*
X232838948Y-68217247D01*
X232667151Y-68213647D01*
X232499328Y-68176750D01*
X232341866Y-68107956D01*
X232200770Y-68009892D01*
X232081405Y-67886286D01*
X231988322Y-67741849D01*
X231925064Y-67582078D01*
X231894047Y-67413076D01*
X231896445Y-67241259D01*
X231932172Y-67073180D01*
X231999862Y-66915245D01*
X232096943Y-66773463D01*
X232219711Y-66653239D01*
X232363496Y-66559150D01*
X232522816Y-66494779D01*
X232691601Y-66462583D01*
X232863435Y-66463782D01*
X232863435Y-66463782D01*
G37*
G36*
X220277498Y-67622158D02*
X219375098Y-67622158D01*
X219375098Y-66669758D01*
X220277498Y-66669758D01*
X220277498Y-67622158D01*
X220277498Y-67622158D01*
G37*
G36*
X222055498Y-67622158D02*
X221153098Y-67622158D01*
X221153098Y-66669758D01*
X222055498Y-66669758D01*
X222055498Y-67622158D01*
X222055498Y-67622158D01*
G37*
G36*
X199082498Y-66934158D02*
X197930098Y-66934158D01*
X197930098Y-65531758D01*
X199082498Y-65531758D01*
X199082498Y-66934158D01*
X199082498Y-66934158D01*
G37*
G36*
X201082498Y-66934158D02*
X199930098Y-66934158D01*
X199930098Y-65531758D01*
X201082498Y-65531758D01*
X201082498Y-66934158D01*
X201082498Y-66934158D01*
G37*
G36*
X203850498Y-66903158D02*
X202448098Y-66903158D01*
X202448098Y-65750758D01*
X203850498Y-65750758D01*
X203850498Y-66903158D01*
X203850498Y-66903158D01*
G37*
G36*
X205526498Y-66613158D02*
X204624098Y-66613158D01*
X204624098Y-65660758D01*
X205526498Y-65660758D01*
X205526498Y-66613158D01*
X205526498Y-66613158D01*
G37*
G36*
X244690043Y-64694357D02*
X244851058Y-64727409D01*
X245002601Y-64791111D01*
X245138873Y-64883029D01*
X245254706Y-64999672D01*
X245345668Y-65136582D01*
X245408310Y-65288563D01*
X245440168Y-65449456D01*
X245440168Y-65449466D01*
X245440236Y-65449810D01*
X245437615Y-65637563D01*
X245437537Y-65637906D01*
X245437537Y-65637909D01*
X245401197Y-65797861D01*
X245334340Y-65948025D01*
X245239584Y-66082347D01*
X245120545Y-66195708D01*
X244981753Y-66283788D01*
X244828499Y-66343231D01*
X244666619Y-66371775D01*
X244502273Y-66368332D01*
X244341728Y-66333035D01*
X244191094Y-66267224D01*
X244056118Y-66173413D01*
X243941930Y-66055168D01*
X243852883Y-65916994D01*
X243792369Y-65764153D01*
X243762697Y-65602481D01*
X243764991Y-65438116D01*
X243799169Y-65277326D01*
X243863923Y-65126240D01*
X243956794Y-64990607D01*
X244074237Y-64875598D01*
X244211786Y-64785588D01*
X244364197Y-64724010D01*
X244525662Y-64693209D01*
X244690043Y-64694357D01*
X244690043Y-64694357D01*
G37*
G36*
X237613600Y-66166000D02*
X236711200Y-66166000D01*
X236711200Y-65213600D01*
X237613600Y-65213600D01*
X237613600Y-66166000D01*
X237613600Y-66166000D01*
G37*
G36*
X177943480Y-66044220D02*
X176791080Y-66044220D01*
X176791080Y-64641820D01*
X177943480Y-64641820D01*
X177943480Y-66044220D01*
X177943480Y-66044220D01*
G37*
G36*
X175943480Y-66044220D02*
X174791080Y-66044220D01*
X174791080Y-64641820D01*
X175943480Y-64641820D01*
X175943480Y-66044220D01*
X175943480Y-66044220D01*
G37*
G36*
X169641826Y-63830566D02*
X169771720Y-63857230D01*
X169893975Y-63908621D01*
X170003913Y-63982775D01*
X170097350Y-64076867D01*
X170170739Y-64187326D01*
X170221273Y-64309930D01*
X170246960Y-64439659D01*
X170246960Y-64439674D01*
X170247027Y-64440013D01*
X170244912Y-64591478D01*
X170244836Y-64591812D01*
X170244836Y-64591825D01*
X170215534Y-64720796D01*
X170161599Y-64841937D01*
X170085157Y-64950300D01*
X169989124Y-65041751D01*
X169877158Y-65112807D01*
X169753520Y-65160763D01*
X169622929Y-65183790D01*
X169490345Y-65181012D01*
X169360829Y-65152537D01*
X169239308Y-65099445D01*
X169130419Y-65023765D01*
X169038300Y-64928374D01*
X168966463Y-64816904D01*
X168917644Y-64693602D01*
X168893707Y-64563177D01*
X168895558Y-64430579D01*
X168923130Y-64300864D01*
X168975369Y-64178979D01*
X169050291Y-64069560D01*
X169145039Y-63976776D01*
X169255997Y-63904166D01*
X169378955Y-63854488D01*
X169509213Y-63829641D01*
X169641826Y-63830566D01*
X169641826Y-63830566D01*
G37*
G36*
X205526498Y-65113158D02*
X204624098Y-65113158D01*
X204624098Y-64160758D01*
X205526498Y-64160758D01*
X205526498Y-65113158D01*
X205526498Y-65113158D01*
G37*
G36*
X172796998Y-65032518D02*
X171244598Y-65032518D01*
X171244598Y-63280118D01*
X172796998Y-63280118D01*
X172796998Y-65032518D01*
X172796998Y-65032518D01*
G37*
G36*
X203850498Y-64903158D02*
X202448098Y-64903158D01*
X202448098Y-63750758D01*
X203850498Y-63750758D01*
X203850498Y-64903158D01*
X203850498Y-64903158D01*
G37*
G36*
X237613600Y-64666000D02*
X236711200Y-64666000D01*
X236711200Y-63713600D01*
X237613600Y-63713600D01*
X237613600Y-64666000D01*
X237613600Y-64666000D01*
G37*
G36*
X192612158Y-64328902D02*
X191809758Y-64328902D01*
X191809758Y-62426502D01*
X192612158Y-62426502D01*
X192612158Y-64328902D01*
X192612158Y-64328902D01*
G37*
G36*
X191342158Y-64328902D02*
X190539758Y-64328902D01*
X190539758Y-62426502D01*
X191342158Y-62426502D01*
X191342158Y-64328902D01*
X191342158Y-64328902D01*
G37*
G36*
X193882158Y-64328902D02*
X193079758Y-64328902D01*
X193079758Y-62426502D01*
X193882158Y-62426502D01*
X193882158Y-64328902D01*
X193882158Y-64328902D01*
G37*
G36*
X195152158Y-64328902D02*
X194349758Y-64328902D01*
X194349758Y-62426502D01*
X195152158Y-62426502D01*
X195152158Y-64328902D01*
X195152158Y-64328902D01*
G37*
G36*
X218713498Y-64093358D02*
X217811098Y-64093358D01*
X217811098Y-63140958D01*
X218713498Y-63140958D01*
X218713498Y-64093358D01*
X218713498Y-64093358D01*
G37*
G36*
X175798480Y-63859220D02*
X174896080Y-63859220D01*
X174896080Y-62906820D01*
X175798480Y-62906820D01*
X175798480Y-63859220D01*
X175798480Y-63859220D01*
G37*
G36*
X244690043Y-62154357D02*
X244851058Y-62187409D01*
X245002601Y-62251111D01*
X245138873Y-62343029D01*
X245254706Y-62459672D01*
X245345668Y-62596582D01*
X245408310Y-62748563D01*
X245440168Y-62909456D01*
X245440168Y-62909466D01*
X245440236Y-62909810D01*
X245437615Y-63097563D01*
X245437537Y-63097906D01*
X245437537Y-63097909D01*
X245401197Y-63257861D01*
X245334340Y-63408025D01*
X245239584Y-63542347D01*
X245120545Y-63655708D01*
X244981753Y-63743788D01*
X244828499Y-63803231D01*
X244666619Y-63831775D01*
X244502273Y-63828332D01*
X244341728Y-63793035D01*
X244191094Y-63727224D01*
X244056118Y-63633413D01*
X243941930Y-63515168D01*
X243852883Y-63376994D01*
X243792369Y-63224153D01*
X243762697Y-63062481D01*
X243764991Y-62898116D01*
X243799169Y-62737326D01*
X243863923Y-62586240D01*
X243956794Y-62450607D01*
X244074237Y-62335598D01*
X244211786Y-62245588D01*
X244364197Y-62184010D01*
X244525662Y-62153209D01*
X244690043Y-62154357D01*
X244690043Y-62154357D01*
G37*
G36*
X170596998Y-63182518D02*
X168544598Y-63182518D01*
X168544598Y-61130118D01*
X170596998Y-61130118D01*
X170596998Y-63182518D01*
X170596998Y-63182518D01*
G37*
G36*
X188126200Y-62886200D02*
X186373800Y-62886200D01*
X186373800Y-61733800D01*
X188126200Y-61733800D01*
X188126200Y-62886200D01*
X188126200Y-62886200D01*
G37*
G36*
X229943600Y-62861000D02*
X229141200Y-62861000D01*
X229141200Y-60958600D01*
X229943600Y-60958600D01*
X229943600Y-62861000D01*
X229943600Y-62861000D01*
G37*
G36*
X231213600Y-62861000D02*
X230411200Y-62861000D01*
X230411200Y-60958600D01*
X231213600Y-60958600D01*
X231213600Y-62861000D01*
X231213600Y-62861000D01*
G37*
G36*
X233753600Y-62861000D02*
X232951200Y-62861000D01*
X232951200Y-60958600D01*
X233753600Y-60958600D01*
X233753600Y-62861000D01*
X233753600Y-62861000D01*
G37*
G36*
X232483600Y-62861000D02*
X231681200Y-62861000D01*
X231681200Y-60958600D01*
X232483600Y-60958600D01*
X232483600Y-62861000D01*
X232483600Y-62861000D01*
G37*
G36*
X218713498Y-62593358D02*
X217811098Y-62593358D01*
X217811098Y-61640958D01*
X218713498Y-61640958D01*
X218713498Y-62593358D01*
X218713498Y-62593358D01*
G37*
G36*
X172996998Y-62532518D02*
X171494598Y-62532518D01*
X171494598Y-59380118D01*
X172996998Y-59380118D01*
X172996998Y-62532518D01*
X172996998Y-62532518D01*
G37*
G36*
X175798480Y-62359220D02*
X174896080Y-62359220D01*
X174896080Y-61406820D01*
X175798480Y-61406820D01*
X175798480Y-62359220D01*
X175798480Y-62359220D01*
G37*
G36*
X214641498Y-62263158D02*
X208739098Y-62263158D01*
X208739098Y-60810758D01*
X214641498Y-60810758D01*
X214641498Y-62263158D01*
X214641498Y-62263158D01*
G37*
G36*
X181576900Y-62111890D02*
X178925140Y-62111890D01*
X178925140Y-60158630D01*
X181576900Y-60158630D01*
X181576900Y-62111890D01*
X181576900Y-62111890D01*
G37*
G36*
X185574860Y-62111890D02*
X182923100Y-62111890D01*
X182923100Y-60158630D01*
X185574860Y-60158630D01*
X185574860Y-62111890D01*
X185574860Y-62111890D01*
G37*
G36*
X244690043Y-59614357D02*
X244851058Y-59647409D01*
X245002601Y-59711111D01*
X245138873Y-59803029D01*
X245254706Y-59919672D01*
X245345668Y-60056582D01*
X245408310Y-60208563D01*
X245440168Y-60369456D01*
X245440168Y-60369466D01*
X245440236Y-60369810D01*
X245437615Y-60557563D01*
X245437537Y-60557906D01*
X245437537Y-60557909D01*
X245401197Y-60717861D01*
X245334340Y-60868025D01*
X245239584Y-61002347D01*
X245120545Y-61115708D01*
X244981753Y-61203788D01*
X244828499Y-61263231D01*
X244666619Y-61291775D01*
X244502273Y-61288332D01*
X244341728Y-61253035D01*
X244191094Y-61187224D01*
X244056118Y-61093413D01*
X243941930Y-60975168D01*
X243852883Y-60836994D01*
X243792369Y-60684153D01*
X243762697Y-60522481D01*
X243764991Y-60358116D01*
X243799169Y-60197326D01*
X243863923Y-60046240D01*
X243956794Y-59910607D01*
X244074237Y-59795598D01*
X244211786Y-59705588D01*
X244364197Y-59644010D01*
X244525662Y-59613209D01*
X244690043Y-59614357D01*
X244690043Y-59614357D01*
G37*
G36*
X170596998Y-60782518D02*
X168544598Y-60782518D01*
X168544598Y-58730118D01*
X170596998Y-58730118D01*
X170596998Y-60782518D01*
X170596998Y-60782518D01*
G37*
G36*
X222601498Y-60313158D02*
X220749098Y-60313158D01*
X220749098Y-59360758D01*
X222601498Y-59360758D01*
X222601498Y-60313158D01*
X222601498Y-60313158D01*
G37*
G36*
X219426498Y-60068158D02*
X218474098Y-60068158D01*
X218474098Y-59165758D01*
X219426498Y-59165758D01*
X219426498Y-60068158D01*
X219426498Y-60068158D01*
G37*
G36*
X217926498Y-60068158D02*
X216974098Y-60068158D01*
X216974098Y-59165758D01*
X217926498Y-59165758D01*
X217926498Y-60068158D01*
X217926498Y-60068158D01*
G37*
G36*
X188126200Y-59886200D02*
X186373800Y-59886200D01*
X186373800Y-58733800D01*
X188126200Y-58733800D01*
X188126200Y-59886200D01*
X188126200Y-59886200D01*
G37*
G36*
X213276498Y-59613158D02*
X211874098Y-59613158D01*
X211874098Y-58460758D01*
X213276498Y-58460758D01*
X213276498Y-59613158D01*
X213276498Y-59613158D01*
G37*
G36*
X210864800Y-59607400D02*
X209962400Y-59607400D01*
X209962400Y-58655000D01*
X210864800Y-58655000D01*
X210864800Y-59607400D01*
X210864800Y-59607400D01*
G37*
G36*
X191309340Y-59524980D02*
X190406940Y-59524980D01*
X190406940Y-58572580D01*
X191309340Y-58572580D01*
X191309340Y-59524980D01*
X191309340Y-59524980D01*
G37*
G36*
X193133060Y-59524980D02*
X192230660Y-59524980D01*
X192230660Y-58572580D01*
X193133060Y-58572580D01*
X193133060Y-59524980D01*
X193133060Y-59524980D01*
G37*
G36*
X194900900Y-59524980D02*
X193998500Y-59524980D01*
X193998500Y-58572580D01*
X194900900Y-58572580D01*
X194900900Y-59524980D01*
X194900900Y-59524980D01*
G37*
G36*
X205065326Y-57190042D02*
X205065331Y-57190044D01*
X205065373Y-57190048D01*
X205240587Y-57244286D01*
X205401929Y-57331523D01*
X205543255Y-57448438D01*
X205659179Y-57590576D01*
X205745288Y-57752523D01*
X205798302Y-57928112D01*
X205816200Y-58110653D01*
X205816200Y-58119780D01*
X205816123Y-58130812D01*
X205816122Y-58130817D01*
X205816108Y-58132869D01*
X205795663Y-58315142D01*
X205740203Y-58489974D01*
X205651842Y-58650703D01*
X205533944Y-58791208D01*
X205391000Y-58906138D01*
X205228455Y-58991114D01*
X205052501Y-59042901D01*
X205052465Y-59042904D01*
X205052456Y-59042907D01*
X204869842Y-59059526D01*
X204687474Y-59040358D01*
X204687469Y-59040356D01*
X204687427Y-59040352D01*
X204512213Y-58986114D01*
X204350871Y-58898877D01*
X204209545Y-58781962D01*
X204093621Y-58639824D01*
X204007512Y-58477877D01*
X203954498Y-58302288D01*
X203936600Y-58119747D01*
X203936600Y-58110620D01*
X203936677Y-58099588D01*
X203936678Y-58099583D01*
X203936692Y-58097531D01*
X203957137Y-57915258D01*
X204012597Y-57740426D01*
X204100958Y-57579697D01*
X204218856Y-57439192D01*
X204361800Y-57324262D01*
X204524345Y-57239286D01*
X204700299Y-57187499D01*
X204700335Y-57187496D01*
X204700344Y-57187493D01*
X204882958Y-57170874D01*
X205065326Y-57190042D01*
X205065326Y-57190042D01*
G37*
G36*
X199985326Y-57190042D02*
X199985331Y-57190044D01*
X199985373Y-57190048D01*
X200160587Y-57244286D01*
X200321929Y-57331523D01*
X200463255Y-57448438D01*
X200579179Y-57590576D01*
X200665288Y-57752523D01*
X200718302Y-57928112D01*
X200736200Y-58110653D01*
X200736200Y-58119780D01*
X200736123Y-58130812D01*
X200736122Y-58130817D01*
X200736108Y-58132869D01*
X200715663Y-58315142D01*
X200660203Y-58489974D01*
X200571842Y-58650703D01*
X200453944Y-58791208D01*
X200311000Y-58906138D01*
X200148455Y-58991114D01*
X199972501Y-59042901D01*
X199972465Y-59042904D01*
X199972456Y-59042907D01*
X199789842Y-59059526D01*
X199607474Y-59040358D01*
X199607469Y-59040356D01*
X199607427Y-59040352D01*
X199432213Y-58986114D01*
X199270871Y-58898877D01*
X199129545Y-58781962D01*
X199013621Y-58639824D01*
X198927512Y-58477877D01*
X198874498Y-58302288D01*
X198856600Y-58119747D01*
X198856600Y-58110620D01*
X198856677Y-58099588D01*
X198856678Y-58099583D01*
X198856692Y-58097531D01*
X198877137Y-57915258D01*
X198932597Y-57740426D01*
X199020958Y-57579697D01*
X199138856Y-57439192D01*
X199281800Y-57324262D01*
X199444345Y-57239286D01*
X199620299Y-57187499D01*
X199620335Y-57187496D01*
X199620344Y-57187493D01*
X199802958Y-57170874D01*
X199985326Y-57190042D01*
X199985326Y-57190042D01*
G37*
G36*
X202525326Y-57190042D02*
X202525331Y-57190044D01*
X202525373Y-57190048D01*
X202700587Y-57244286D01*
X202861929Y-57331523D01*
X203003255Y-57448438D01*
X203119179Y-57590576D01*
X203205288Y-57752523D01*
X203258302Y-57928112D01*
X203276200Y-58110653D01*
X203276200Y-58119780D01*
X203276123Y-58130812D01*
X203276122Y-58130817D01*
X203276108Y-58132869D01*
X203255663Y-58315142D01*
X203200203Y-58489974D01*
X203111842Y-58650703D01*
X202993944Y-58791208D01*
X202851000Y-58906138D01*
X202688455Y-58991114D01*
X202512501Y-59042901D01*
X202512465Y-59042904D01*
X202512456Y-59042907D01*
X202329842Y-59059526D01*
X202147474Y-59040358D01*
X202147469Y-59040356D01*
X202147427Y-59040352D01*
X201972213Y-58986114D01*
X201810871Y-58898877D01*
X201669545Y-58781962D01*
X201553621Y-58639824D01*
X201467512Y-58477877D01*
X201414498Y-58302288D01*
X201396600Y-58119747D01*
X201396600Y-58110620D01*
X201396677Y-58099588D01*
X201396678Y-58099583D01*
X201396692Y-58097531D01*
X201417137Y-57915258D01*
X201472597Y-57740426D01*
X201560958Y-57579697D01*
X201678856Y-57439192D01*
X201821800Y-57324262D01*
X201984345Y-57239286D01*
X202160299Y-57187499D01*
X202160335Y-57187496D01*
X202160344Y-57187493D01*
X202342958Y-57170874D01*
X202525326Y-57190042D01*
X202525326Y-57190042D01*
G37*
G36*
X175818480Y-58819220D02*
X174916080Y-58819220D01*
X174916080Y-57866820D01*
X175818480Y-57866820D01*
X175818480Y-58819220D01*
X175818480Y-58819220D01*
G37*
G36*
X244690043Y-57074357D02*
X244851058Y-57107409D01*
X245002601Y-57171111D01*
X245138873Y-57263029D01*
X245254706Y-57379672D01*
X245345668Y-57516582D01*
X245408310Y-57668563D01*
X245440168Y-57829456D01*
X245440168Y-57829466D01*
X245440236Y-57829810D01*
X245437615Y-58017563D01*
X245437537Y-58017906D01*
X245437537Y-58017909D01*
X245401197Y-58177861D01*
X245334340Y-58328025D01*
X245239584Y-58462347D01*
X245120545Y-58575708D01*
X244981753Y-58663788D01*
X244828499Y-58723231D01*
X244666619Y-58751775D01*
X244502273Y-58748332D01*
X244341728Y-58713035D01*
X244191094Y-58647224D01*
X244056118Y-58553413D01*
X243941930Y-58435168D01*
X243852883Y-58296994D01*
X243792369Y-58144153D01*
X243762697Y-57982481D01*
X243764991Y-57818116D01*
X243799169Y-57657326D01*
X243863923Y-57506240D01*
X243956794Y-57370607D01*
X244074237Y-57255598D01*
X244211786Y-57165588D01*
X244364197Y-57104010D01*
X244525662Y-57073209D01*
X244690043Y-57074357D01*
X244690043Y-57074357D01*
G37*
G36*
X172796998Y-58632518D02*
X171244598Y-58632518D01*
X171244598Y-56880118D01*
X172796998Y-56880118D01*
X172796998Y-58632518D01*
X172796998Y-58632518D01*
G37*
G36*
X219426498Y-58388158D02*
X218474098Y-58388158D01*
X218474098Y-57485758D01*
X219426498Y-57485758D01*
X219426498Y-58388158D01*
X219426498Y-58388158D01*
G37*
G36*
X217926498Y-58388158D02*
X216974098Y-58388158D01*
X216974098Y-57485758D01*
X217926498Y-57485758D01*
X217926498Y-58388158D01*
X217926498Y-58388158D01*
G37*
G36*
X183150160Y-58357900D02*
X181997760Y-58357900D01*
X181997760Y-55205500D01*
X183150160Y-55205500D01*
X183150160Y-58357900D01*
X183150160Y-58357900D01*
G37*
G36*
X178550160Y-58357900D02*
X177397760Y-58357900D01*
X177397760Y-55205500D01*
X178550160Y-55205500D01*
X178550160Y-58357900D01*
X178550160Y-58357900D01*
G37*
G36*
X210864800Y-58107400D02*
X209962400Y-58107400D01*
X209962400Y-57155000D01*
X210864800Y-57155000D01*
X210864800Y-58107400D01*
X210864800Y-58107400D01*
G37*
G36*
X184951200Y-58104420D02*
X184048800Y-58104420D01*
X184048800Y-57152020D01*
X184951200Y-57152020D01*
X184951200Y-58104420D01*
X184951200Y-58104420D01*
G37*
G36*
X169641826Y-56730566D02*
X169771720Y-56757230D01*
X169893975Y-56808621D01*
X170003913Y-56882775D01*
X170097350Y-56976867D01*
X170170739Y-57087326D01*
X170221273Y-57209930D01*
X170246960Y-57339659D01*
X170246960Y-57339674D01*
X170247027Y-57340013D01*
X170244912Y-57491478D01*
X170244836Y-57491812D01*
X170244836Y-57491825D01*
X170215534Y-57620796D01*
X170161599Y-57741937D01*
X170085157Y-57850300D01*
X169989124Y-57941751D01*
X169877158Y-58012807D01*
X169753520Y-58060763D01*
X169622929Y-58083790D01*
X169490345Y-58081012D01*
X169360829Y-58052537D01*
X169239308Y-57999445D01*
X169130419Y-57923765D01*
X169038300Y-57828374D01*
X168966463Y-57716904D01*
X168917644Y-57593602D01*
X168893707Y-57463177D01*
X168895558Y-57330579D01*
X168923130Y-57200864D01*
X168975369Y-57078979D01*
X169050291Y-56969560D01*
X169145039Y-56876776D01*
X169255997Y-56804166D01*
X169378955Y-56754488D01*
X169509213Y-56729641D01*
X169641826Y-56730566D01*
X169641826Y-56730566D01*
G37*
G36*
X193133060Y-58024980D02*
X192230660Y-58024980D01*
X192230660Y-57072580D01*
X193133060Y-57072580D01*
X193133060Y-58024980D01*
X193133060Y-58024980D01*
G37*
G36*
X191309340Y-58024980D02*
X190406940Y-58024980D01*
X190406940Y-57072580D01*
X191309340Y-57072580D01*
X191309340Y-58024980D01*
X191309340Y-58024980D01*
G37*
G36*
X194900900Y-58024980D02*
X193998500Y-58024980D01*
X193998500Y-57072580D01*
X194900900Y-57072580D01*
X194900900Y-58024980D01*
X194900900Y-58024980D01*
G37*
G36*
X213276498Y-57613158D02*
X211874098Y-57613158D01*
X211874098Y-56460758D01*
X213276498Y-56460758D01*
X213276498Y-57613158D01*
X213276498Y-57613158D01*
G37*
G36*
X175818480Y-57319220D02*
X174916080Y-57319220D01*
X174916080Y-56366820D01*
X175818480Y-56366820D01*
X175818480Y-57319220D01*
X175818480Y-57319220D01*
G37*
G36*
X229943600Y-57261000D02*
X229141200Y-57261000D01*
X229141200Y-55358600D01*
X229943600Y-55358600D01*
X229943600Y-57261000D01*
X229943600Y-57261000D01*
G37*
G36*
X231213600Y-57261000D02*
X230411200Y-57261000D01*
X230411200Y-55358600D01*
X231213600Y-55358600D01*
X231213600Y-57261000D01*
X231213600Y-57261000D01*
G37*
G36*
X233753600Y-57261000D02*
X232951200Y-57261000D01*
X232951200Y-55358600D01*
X233753600Y-55358600D01*
X233753600Y-57261000D01*
X233753600Y-57261000D01*
G37*
G36*
X232483600Y-57261000D02*
X231681200Y-57261000D01*
X231681200Y-55358600D01*
X232483600Y-55358600D01*
X232483600Y-57261000D01*
X232483600Y-57261000D01*
G37*
G36*
X222601498Y-56913158D02*
X220749098Y-56913158D01*
X220749098Y-55960758D01*
X222601498Y-55960758D01*
X222601498Y-56913158D01*
X222601498Y-56913158D01*
G37*
G36*
X219451498Y-56688158D02*
X218499098Y-56688158D01*
X218499098Y-55785758D01*
X219451498Y-55785758D01*
X219451498Y-56688158D01*
X219451498Y-56688158D01*
G37*
G36*
X217951498Y-56688158D02*
X216999098Y-56688158D01*
X216999098Y-55785758D01*
X217951498Y-55785758D01*
X217951498Y-56688158D01*
X217951498Y-56688158D01*
G37*
G36*
X184951200Y-56604420D02*
X184048800Y-56604420D01*
X184048800Y-55652020D01*
X184951200Y-55652020D01*
X184951200Y-56604420D01*
X184951200Y-56604420D01*
G37*
G36*
X199985326Y-54650042D02*
X199985331Y-54650044D01*
X199985373Y-54650048D01*
X200160587Y-54704286D01*
X200321929Y-54791523D01*
X200463255Y-54908438D01*
X200579179Y-55050576D01*
X200665288Y-55212523D01*
X200718302Y-55388112D01*
X200736200Y-55570653D01*
X200736200Y-55579780D01*
X200736123Y-55590812D01*
X200736122Y-55590817D01*
X200736108Y-55592869D01*
X200715663Y-55775142D01*
X200660203Y-55949974D01*
X200571842Y-56110703D01*
X200453944Y-56251208D01*
X200311000Y-56366138D01*
X200148455Y-56451114D01*
X199972501Y-56502901D01*
X199972465Y-56502904D01*
X199972456Y-56502907D01*
X199789842Y-56519526D01*
X199607474Y-56500358D01*
X199607469Y-56500356D01*
X199607427Y-56500352D01*
X199432213Y-56446114D01*
X199270871Y-56358877D01*
X199129545Y-56241962D01*
X199013621Y-56099824D01*
X198927512Y-55937877D01*
X198874498Y-55762288D01*
X198856600Y-55579747D01*
X198856600Y-55570620D01*
X198856677Y-55559588D01*
X198856678Y-55559583D01*
X198856692Y-55557531D01*
X198877137Y-55375258D01*
X198932597Y-55200426D01*
X199020958Y-55039697D01*
X199138856Y-54899192D01*
X199281800Y-54784262D01*
X199444345Y-54699286D01*
X199620299Y-54647499D01*
X199620335Y-54647496D01*
X199620344Y-54647493D01*
X199802958Y-54630874D01*
X199985326Y-54650042D01*
X199985326Y-54650042D01*
G37*
G36*
X202525326Y-54650042D02*
X202525331Y-54650044D01*
X202525373Y-54650048D01*
X202700587Y-54704286D01*
X202861929Y-54791523D01*
X203003255Y-54908438D01*
X203119179Y-55050576D01*
X203205288Y-55212523D01*
X203258302Y-55388112D01*
X203276200Y-55570653D01*
X203276200Y-55579780D01*
X203276123Y-55590812D01*
X203276122Y-55590817D01*
X203276108Y-55592869D01*
X203255663Y-55775142D01*
X203200203Y-55949974D01*
X203111842Y-56110703D01*
X202993944Y-56251208D01*
X202851000Y-56366138D01*
X202688455Y-56451114D01*
X202512501Y-56502901D01*
X202512465Y-56502904D01*
X202512456Y-56502907D01*
X202329842Y-56519526D01*
X202147474Y-56500358D01*
X202147469Y-56500356D01*
X202147427Y-56500352D01*
X201972213Y-56446114D01*
X201810871Y-56358877D01*
X201669545Y-56241962D01*
X201553621Y-56099824D01*
X201467512Y-55937877D01*
X201414498Y-55762288D01*
X201396600Y-55579747D01*
X201396600Y-55570620D01*
X201396677Y-55559588D01*
X201396678Y-55559583D01*
X201396692Y-55557531D01*
X201417137Y-55375258D01*
X201472597Y-55200426D01*
X201560958Y-55039697D01*
X201678856Y-54899192D01*
X201821800Y-54784262D01*
X201984345Y-54699286D01*
X202160299Y-54647499D01*
X202160335Y-54647496D01*
X202160344Y-54647493D01*
X202342958Y-54630874D01*
X202525326Y-54650042D01*
X202525326Y-54650042D01*
G37*
G36*
X205816200Y-56515000D02*
X203936600Y-56515000D01*
X203936600Y-54635400D01*
X205816200Y-54635400D01*
X205816200Y-56515000D01*
X205816200Y-56515000D01*
G37*
G36*
X208172400Y-56457800D02*
X207270000Y-56457800D01*
X207270000Y-55505400D01*
X208172400Y-55505400D01*
X208172400Y-56457800D01*
X208172400Y-56457800D01*
G37*
G36*
X244690043Y-54534357D02*
X244851058Y-54567409D01*
X245002601Y-54631111D01*
X245138873Y-54723029D01*
X245254706Y-54839672D01*
X245345668Y-54976582D01*
X245408310Y-55128563D01*
X245440168Y-55289456D01*
X245440168Y-55289466D01*
X245440236Y-55289810D01*
X245437615Y-55477563D01*
X245437537Y-55477906D01*
X245437537Y-55477909D01*
X245401197Y-55637861D01*
X245334340Y-55788025D01*
X245239584Y-55922347D01*
X245120545Y-56035708D01*
X244981753Y-56123788D01*
X244828499Y-56183231D01*
X244666619Y-56211775D01*
X244502273Y-56208332D01*
X244341728Y-56173035D01*
X244191094Y-56107224D01*
X244056118Y-56013413D01*
X243941930Y-55895168D01*
X243852883Y-55756994D01*
X243792369Y-55604153D01*
X243762697Y-55442481D01*
X243764991Y-55278116D01*
X243799169Y-55117326D01*
X243863923Y-54966240D01*
X243956794Y-54830607D01*
X244074237Y-54715598D01*
X244211786Y-54625588D01*
X244364197Y-54564010D01*
X244525662Y-54533209D01*
X244690043Y-54534357D01*
X244690043Y-54534357D01*
G37*
G36*
X191309340Y-55524480D02*
X190406940Y-55524480D01*
X190406940Y-54572080D01*
X191309340Y-54572080D01*
X191309340Y-55524480D01*
X191309340Y-55524480D01*
G37*
G36*
X194870420Y-55508540D02*
X193968020Y-55508540D01*
X193968020Y-54556140D01*
X194870420Y-54556140D01*
X194870420Y-55508540D01*
X194870420Y-55508540D01*
G37*
G36*
X193125440Y-55502760D02*
X192223040Y-55502760D01*
X192223040Y-54550360D01*
X193125440Y-54550360D01*
X193125440Y-55502760D01*
X193125440Y-55502760D01*
G37*
G36*
X187456735Y-53576844D02*
X187637268Y-53613903D01*
X187807178Y-53685326D01*
X187959969Y-53788386D01*
X188089841Y-53919166D01*
X188191830Y-54072673D01*
X188262063Y-54243071D01*
X188297792Y-54423519D01*
X188297792Y-54423524D01*
X188297860Y-54423868D01*
X188294921Y-54634378D01*
X188294844Y-54634716D01*
X188294844Y-54634726D01*
X188254090Y-54814106D01*
X188179128Y-54982472D01*
X188072888Y-55133076D01*
X187939419Y-55260177D01*
X187783804Y-55358934D01*
X187611974Y-55425582D01*
X187430472Y-55457586D01*
X187246206Y-55453726D01*
X187066199Y-55414149D01*
X186897308Y-55340363D01*
X186745970Y-55235180D01*
X186617941Y-55102602D01*
X186518101Y-54947681D01*
X186450252Y-54776313D01*
X186416983Y-54595043D01*
X186419555Y-54410756D01*
X186457876Y-54230476D01*
X186530479Y-54061077D01*
X186634607Y-53909004D01*
X186766286Y-53780053D01*
X186920507Y-53679134D01*
X187091392Y-53610092D01*
X187272429Y-53575558D01*
X187456735Y-53576844D01*
X187456735Y-53576844D01*
G37*
G36*
X208172400Y-54957800D02*
X207270000Y-54957800D01*
X207270000Y-54005400D01*
X208172400Y-54005400D01*
X208172400Y-54957800D01*
X208172400Y-54957800D01*
G37*
G36*
X178970576Y-50312680D02*
X179369416Y-50394551D01*
X179744773Y-50552336D01*
X180082326Y-50780019D01*
X180369228Y-51068930D01*
X180594547Y-51408064D01*
X180749705Y-51784506D01*
X180828722Y-52183569D01*
X180828722Y-52183579D01*
X180828789Y-52183918D01*
X180822295Y-52648976D01*
X180822219Y-52649310D01*
X180822219Y-52649323D01*
X180732090Y-53046025D01*
X180566484Y-53417984D01*
X180331779Y-53750697D01*
X180036922Y-54031486D01*
X179693143Y-54249656D01*
X179313531Y-54396897D01*
X178912557Y-54467600D01*
X178505480Y-54459072D01*
X178107812Y-54371639D01*
X177734701Y-54208631D01*
X177400363Y-53976260D01*
X177117522Y-53683370D01*
X176896958Y-53341120D01*
X176747068Y-52962544D01*
X176673569Y-52562075D01*
X176679253Y-52154949D01*
X176763908Y-51756680D01*
X176924306Y-51382443D01*
X177154341Y-51046485D01*
X177445248Y-50761608D01*
X177785950Y-50538659D01*
X178163467Y-50386132D01*
X178563416Y-50309838D01*
X178970576Y-50312680D01*
X178970576Y-50312680D01*
G37*
G36*
X191309340Y-54024480D02*
X190406940Y-54024480D01*
X190406940Y-53072080D01*
X191309340Y-53072080D01*
X191309340Y-54024480D01*
X191309340Y-54024480D01*
G37*
G36*
X194870420Y-54008540D02*
X193968020Y-54008540D01*
X193968020Y-53056140D01*
X194870420Y-53056140D01*
X194870420Y-54008540D01*
X194870420Y-54008540D01*
G37*
G36*
X193125440Y-54002760D02*
X192223040Y-54002760D01*
X192223040Y-53050360D01*
X193125440Y-53050360D01*
X193125440Y-54002760D01*
X193125440Y-54002760D01*
G37*
G36*
X226519880Y-53968440D02*
X225617480Y-53968440D01*
X225617480Y-53016040D01*
X226519880Y-53016040D01*
X226519880Y-53968440D01*
X226519880Y-53968440D01*
G37*
G36*
X223433380Y-53930740D02*
X222480980Y-53930740D01*
X222480980Y-53028340D01*
X223433380Y-53028340D01*
X223433380Y-53930740D01*
X223433380Y-53930740D01*
G37*
G36*
X224933380Y-53930740D02*
X223980980Y-53930740D01*
X223980980Y-53028340D01*
X224933380Y-53028340D01*
X224933380Y-53930740D01*
X224933380Y-53930740D01*
G37*
G36*
X244690043Y-51994357D02*
X244851058Y-52027409D01*
X245002601Y-52091111D01*
X245138873Y-52183029D01*
X245254706Y-52299672D01*
X245345668Y-52436582D01*
X245408310Y-52588563D01*
X245440168Y-52749456D01*
X245440168Y-52749466D01*
X245440236Y-52749810D01*
X245437615Y-52937563D01*
X245437537Y-52937906D01*
X245437537Y-52937909D01*
X245401197Y-53097861D01*
X245334340Y-53248025D01*
X245239584Y-53382347D01*
X245120545Y-53495708D01*
X244981753Y-53583788D01*
X244828499Y-53643231D01*
X244666619Y-53671775D01*
X244502273Y-53668332D01*
X244341728Y-53633035D01*
X244191094Y-53567224D01*
X244056118Y-53473413D01*
X243941930Y-53355168D01*
X243852883Y-53216994D01*
X243792369Y-53064153D01*
X243762697Y-52902481D01*
X243764991Y-52738116D01*
X243799169Y-52577326D01*
X243863923Y-52426240D01*
X243956794Y-52290607D01*
X244074237Y-52175598D01*
X244211786Y-52085588D01*
X244364197Y-52024010D01*
X244525662Y-51993209D01*
X244690043Y-51994357D01*
X244690043Y-51994357D01*
G37*
G36*
X220194880Y-52940140D02*
X219242480Y-52940140D01*
X219242480Y-52037740D01*
X220194880Y-52037740D01*
X220194880Y-52940140D01*
X220194880Y-52940140D01*
G37*
G36*
X221694880Y-52940140D02*
X220742480Y-52940140D01*
X220742480Y-52037740D01*
X221694880Y-52037740D01*
X221694880Y-52940140D01*
X221694880Y-52940140D01*
G37*
G36*
X226519880Y-52468440D02*
X225617480Y-52468440D01*
X225617480Y-51516040D01*
X226519880Y-51516040D01*
X226519880Y-52468440D01*
X226519880Y-52468440D01*
G37*
G36*
X189749240Y-52405740D02*
X189096840Y-52405740D01*
X189096840Y-51653340D01*
X189749240Y-51653340D01*
X189749240Y-52405740D01*
X189749240Y-52405740D01*
G37*
G36*
X232176200Y-52311200D02*
X231023800Y-52311200D01*
X231023800Y-50908800D01*
X232176200Y-50908800D01*
X232176200Y-52311200D01*
X232176200Y-52311200D01*
G37*
G36*
X234176200Y-52311200D02*
X233023800Y-52311200D01*
X233023800Y-50908800D01*
X234176200Y-50908800D01*
X234176200Y-52311200D01*
X234176200Y-52311200D01*
G37*
G36*
X223497280Y-52304740D02*
X222594880Y-52304740D01*
X222594880Y-51352340D01*
X223497280Y-51352340D01*
X223497280Y-52304740D01*
X223497280Y-52304740D01*
G37*
G36*
X204126160Y-52166720D02*
X202973760Y-52166720D01*
X202973760Y-48514320D01*
X204126160Y-48514320D01*
X204126160Y-52166720D01*
X204126160Y-52166720D01*
G37*
G36*
X206126160Y-52166720D02*
X204973760Y-52166720D01*
X204973760Y-48514320D01*
X206126160Y-48514320D01*
X206126160Y-52166720D01*
X206126160Y-52166720D01*
G37*
G36*
X197002920Y-52147820D02*
X196050520Y-52147820D01*
X196050520Y-51245420D01*
X197002920Y-51245420D01*
X197002920Y-52147820D01*
X197002920Y-52147820D01*
G37*
G36*
X198502920Y-52147820D02*
X197550520Y-52147820D01*
X197550520Y-51245420D01*
X198502920Y-51245420D01*
X198502920Y-52147820D01*
X198502920Y-52147820D01*
G37*
G36*
X171863042Y-49984515D02*
X172069777Y-50026952D01*
X172264347Y-50108741D01*
X172439318Y-50226761D01*
X172588033Y-50376518D01*
X172704827Y-50552308D01*
X172785253Y-50747436D01*
X172826178Y-50954124D01*
X172826178Y-50954129D01*
X172826246Y-50954473D01*
X172822880Y-51195536D01*
X172822803Y-51195874D01*
X172822803Y-51195883D01*
X172776122Y-51401349D01*
X172690281Y-51594152D01*
X172568621Y-51766615D01*
X172415782Y-51912162D01*
X172237584Y-52025250D01*
X172040810Y-52101573D01*
X171832967Y-52138222D01*
X171621957Y-52133802D01*
X171415825Y-52088481D01*
X171222422Y-52003985D01*
X171049119Y-51883536D01*
X170902508Y-51731717D01*
X170788178Y-51554310D01*
X170710481Y-51358072D01*
X170672384Y-51150492D01*
X170675330Y-50939458D01*
X170719211Y-50733013D01*
X170802353Y-50539028D01*
X170921593Y-50364883D01*
X171072384Y-50217217D01*
X171248988Y-50101651D01*
X171444675Y-50022588D01*
X171651987Y-49983042D01*
X171863042Y-49984515D01*
X171863042Y-49984515D01*
G37*
G36*
X217474080Y-52114340D02*
X216126480Y-52114340D01*
X216126480Y-48716740D01*
X217474080Y-48716740D01*
X217474080Y-52114340D01*
X217474080Y-52114340D01*
G37*
G36*
X215797280Y-51562540D02*
X214953280Y-51562540D01*
X214953280Y-51268540D01*
X215797280Y-51268540D01*
X215797280Y-51562540D01*
X215797280Y-51562540D01*
G37*
G36*
X218647280Y-51562540D02*
X217803280Y-51562540D01*
X217803280Y-51268540D01*
X218647280Y-51268540D01*
X218647280Y-51562540D01*
X218647280Y-51562540D01*
G37*
G36*
X189749240Y-51305740D02*
X189096840Y-51305740D01*
X189096840Y-50553340D01*
X189749240Y-50553340D01*
X189749240Y-51305740D01*
X189749240Y-51305740D01*
G37*
G36*
X193986340Y-51305420D02*
X191533940Y-51305420D01*
X191533940Y-50423020D01*
X193986340Y-50423020D01*
X193986340Y-51305420D01*
X193986340Y-51305420D01*
G37*
G36*
X218647280Y-51062540D02*
X217803280Y-51062540D01*
X217803280Y-50768540D01*
X218647280Y-50768540D01*
X218647280Y-51062540D01*
X218647280Y-51062540D01*
G37*
G36*
X215797280Y-51062540D02*
X214953280Y-51062540D01*
X214953280Y-50768540D01*
X215797280Y-50768540D01*
X215797280Y-51062540D01*
X215797280Y-51062540D01*
G37*
G36*
X225147880Y-50806540D02*
X224195480Y-50806540D01*
X224195480Y-49904140D01*
X225147880Y-49904140D01*
X225147880Y-50806540D01*
X225147880Y-50806540D01*
G37*
G36*
X226647880Y-50806540D02*
X225695480Y-50806540D01*
X225695480Y-49904140D01*
X226647880Y-49904140D01*
X226647880Y-50806540D01*
X226647880Y-50806540D01*
G37*
G36*
X223497280Y-50804740D02*
X222594880Y-50804740D01*
X222594880Y-49852340D01*
X223497280Y-49852340D01*
X223497280Y-50804740D01*
X223497280Y-50804740D01*
G37*
G36*
X218647280Y-50562540D02*
X217803280Y-50562540D01*
X217803280Y-50268540D01*
X218647280Y-50268540D01*
X218647280Y-50562540D01*
X218647280Y-50562540D01*
G37*
G36*
X215797280Y-50562540D02*
X214953280Y-50562540D01*
X214953280Y-50268540D01*
X215797280Y-50268540D01*
X215797280Y-50562540D01*
X215797280Y-50562540D01*
G37*
G36*
X211910880Y-50391540D02*
X210508480Y-50391540D01*
X210508480Y-49239140D01*
X211910880Y-49239140D01*
X211910880Y-50391540D01*
X211910880Y-50391540D01*
G37*
G36*
X214146080Y-50356740D02*
X212743680Y-50356740D01*
X212743680Y-49204340D01*
X214146080Y-49204340D01*
X214146080Y-50356740D01*
X214146080Y-50356740D01*
G37*
G36*
X198498540Y-50324100D02*
X197546140Y-50324100D01*
X197546140Y-49421700D01*
X198498540Y-49421700D01*
X198498540Y-50324100D01*
X198498540Y-50324100D01*
G37*
G36*
X196998540Y-50324100D02*
X196046140Y-50324100D01*
X196046140Y-49421700D01*
X196998540Y-49421700D01*
X196998540Y-50324100D01*
X196998540Y-50324100D01*
G37*
G36*
X194086340Y-50225420D02*
X191433940Y-50225420D01*
X191433940Y-47573020D01*
X194086340Y-47573020D01*
X194086340Y-50225420D01*
X194086340Y-50225420D01*
G37*
G36*
X195166340Y-50125420D02*
X194283940Y-50125420D01*
X194283940Y-47673020D01*
X195166340Y-47673020D01*
X195166340Y-50125420D01*
X195166340Y-50125420D01*
G37*
G36*
X191236340Y-50125420D02*
X190353940Y-50125420D01*
X190353940Y-47673020D01*
X191236340Y-47673020D01*
X191236340Y-50125420D01*
X191236340Y-50125420D01*
G37*
G36*
X234026250Y-50085230D02*
X233073750Y-50085230D01*
X233073750Y-49132730D01*
X234026250Y-49132730D01*
X234026250Y-50085230D01*
X234026250Y-50085230D01*
G37*
G36*
X232126250Y-50085230D02*
X231173750Y-50085230D01*
X231173750Y-49132730D01*
X232126250Y-49132730D01*
X232126250Y-50085230D01*
X232126250Y-50085230D01*
G37*
G36*
X218647280Y-50062540D02*
X217803280Y-50062540D01*
X217803280Y-49768540D01*
X218647280Y-49768540D01*
X218647280Y-50062540D01*
X218647280Y-50062540D01*
G37*
G36*
X215797280Y-50062540D02*
X214953280Y-50062540D01*
X214953280Y-49768540D01*
X215797280Y-49768540D01*
X215797280Y-50062540D01*
X215797280Y-50062540D01*
G37*
G36*
X187641230Y-49822100D02*
X185687970Y-49822100D01*
X185687970Y-47170340D01*
X187641230Y-47170340D01*
X187641230Y-49822100D01*
X187641230Y-49822100D01*
G37*
G36*
X175970836Y-45613680D02*
X176369676Y-45695551D01*
X176745033Y-45853336D01*
X177082586Y-46081019D01*
X177369488Y-46369930D01*
X177594807Y-46709064D01*
X177749965Y-47085506D01*
X177828982Y-47484569D01*
X177828982Y-47484579D01*
X177829049Y-47484918D01*
X177822555Y-47949976D01*
X177822479Y-47950310D01*
X177822479Y-47950323D01*
X177732350Y-48347025D01*
X177566744Y-48718984D01*
X177332039Y-49051697D01*
X177037182Y-49332486D01*
X176693403Y-49550656D01*
X176313791Y-49697897D01*
X175912817Y-49768600D01*
X175505740Y-49760072D01*
X175108072Y-49672639D01*
X174734961Y-49509631D01*
X174400623Y-49277260D01*
X174117782Y-48984370D01*
X173897218Y-48642120D01*
X173747328Y-48263544D01*
X173673829Y-47863075D01*
X173679513Y-47455949D01*
X173764168Y-47057680D01*
X173924566Y-46683443D01*
X174154601Y-46347485D01*
X174445508Y-46062608D01*
X174786210Y-45839659D01*
X175163727Y-45687132D01*
X175563676Y-45610838D01*
X175970836Y-45613680D01*
X175970836Y-45613680D01*
G37*
G36*
X181970316Y-45613680D02*
X182369156Y-45695551D01*
X182744513Y-45853336D01*
X183082066Y-46081019D01*
X183368968Y-46369930D01*
X183594287Y-46709064D01*
X183749445Y-47085506D01*
X183828462Y-47484569D01*
X183828462Y-47484579D01*
X183828529Y-47484918D01*
X183822035Y-47949976D01*
X183821959Y-47950310D01*
X183821959Y-47950323D01*
X183731830Y-48347025D01*
X183566224Y-48718984D01*
X183331519Y-49051697D01*
X183036662Y-49332486D01*
X182692883Y-49550656D01*
X182313271Y-49697897D01*
X181912297Y-49768600D01*
X181505220Y-49760072D01*
X181107552Y-49672639D01*
X180734441Y-49509631D01*
X180400103Y-49277260D01*
X180117262Y-48984370D01*
X179896698Y-48642120D01*
X179746808Y-48263544D01*
X179673309Y-47863075D01*
X179678993Y-47455949D01*
X179763648Y-47057680D01*
X179924046Y-46683443D01*
X180154081Y-46347485D01*
X180444988Y-46062608D01*
X180785690Y-45839659D01*
X181163207Y-45687132D01*
X181563156Y-45610838D01*
X181970316Y-45613680D01*
X181970316Y-45613680D01*
G37*
G36*
X215797280Y-49562540D02*
X214953280Y-49562540D01*
X214953280Y-49268540D01*
X215797280Y-49268540D01*
X215797280Y-49562540D01*
X215797280Y-49562540D01*
G37*
G36*
X218647280Y-49562540D02*
X217803280Y-49562540D01*
X217803280Y-49268540D01*
X218647280Y-49268540D01*
X218647280Y-49562540D01*
X218647280Y-49562540D01*
G37*
G36*
X238960200Y-49428200D02*
X238107800Y-49428200D01*
X238107800Y-48275800D01*
X238960200Y-48275800D01*
X238960200Y-49428200D01*
X238960200Y-49428200D01*
G37*
G36*
X240060200Y-49428200D02*
X239207800Y-49428200D01*
X239207800Y-48275800D01*
X240060200Y-48275800D01*
X240060200Y-49428200D01*
X240060200Y-49428200D01*
G37*
G36*
X242260200Y-49428200D02*
X241407800Y-49428200D01*
X241407800Y-48275800D01*
X242260200Y-48275800D01*
X242260200Y-49428200D01*
X242260200Y-49428200D01*
G37*
G36*
X243360200Y-49428200D02*
X242507800Y-49428200D01*
X242507800Y-48275800D01*
X243360200Y-48275800D01*
X243360200Y-49428200D01*
X243360200Y-49428200D01*
G37*
G36*
X245560200Y-49428200D02*
X244707800Y-49428200D01*
X244707800Y-48275800D01*
X245560200Y-48275800D01*
X245560200Y-49428200D01*
X245560200Y-49428200D01*
G37*
G36*
X244460200Y-49428200D02*
X243607800Y-49428200D01*
X243607800Y-48275800D01*
X244460200Y-48275800D01*
X244460200Y-49428200D01*
X244460200Y-49428200D01*
G37*
G36*
X241160200Y-49428200D02*
X240307800Y-49428200D01*
X240307800Y-48275800D01*
X241160200Y-48275800D01*
X241160200Y-49428200D01*
X241160200Y-49428200D01*
G37*
G36*
X237860200Y-49428200D02*
X237007800Y-49428200D01*
X237007800Y-48275800D01*
X237860200Y-48275800D01*
X237860200Y-49428200D01*
X237860200Y-49428200D01*
G37*
G36*
X229858680Y-49001140D02*
X227206280Y-49001140D01*
X227206280Y-47848740D01*
X229858680Y-47848740D01*
X229858680Y-49001140D01*
X229858680Y-49001140D01*
G37*
G36*
X226048680Y-49001140D02*
X223396280Y-49001140D01*
X223396280Y-47848740D01*
X226048680Y-47848740D01*
X226048680Y-49001140D01*
X226048680Y-49001140D01*
G37*
G36*
X222238680Y-49001140D02*
X219586280Y-49001140D01*
X219586280Y-47848740D01*
X222238680Y-47848740D01*
X222238680Y-49001140D01*
X222238680Y-49001140D01*
G37*
G36*
X247310200Y-48463200D02*
X245957800Y-48463200D01*
X245957800Y-47160800D01*
X247310200Y-47160800D01*
X247310200Y-48463200D01*
X247310200Y-48463200D01*
G37*
G36*
X211910880Y-48391540D02*
X210508480Y-48391540D01*
X210508480Y-47239140D01*
X211910880Y-47239140D01*
X211910880Y-48391540D01*
X211910880Y-48391540D01*
G37*
G36*
X214146080Y-48356740D02*
X212743680Y-48356740D01*
X212743680Y-47204340D01*
X214146080Y-47204340D01*
X214146080Y-48356740D01*
X214146080Y-48356740D01*
G37*
G36*
X197632220Y-48356400D02*
X195879820Y-48356400D01*
X195879820Y-47204000D01*
X197632220Y-47204000D01*
X197632220Y-48356400D01*
X197632220Y-48356400D01*
G37*
G36*
X233076250Y-48086250D02*
X232123750Y-48086250D01*
X232123750Y-47133750D01*
X233076250Y-47133750D01*
X233076250Y-48086250D01*
X233076250Y-48086250D01*
G37*
G36*
X236745300Y-46648500D02*
X236747311Y-46662653D01*
X236753186Y-46675684D01*
X236762458Y-46686564D01*
X236774394Y-46694429D01*
X236788049Y-46698658D01*
X236796100Y-46699300D01*
X237195300Y-46699300D01*
X237195300Y-48051700D01*
X235592900Y-48051700D01*
X235592900Y-45799300D01*
X236745300Y-45799300D01*
X236745300Y-46648500D01*
X236745300Y-46648500D01*
G37*
G36*
X193986340Y-47375420D02*
X191533940Y-47375420D01*
X191533940Y-46493020D01*
X193986340Y-46493020D01*
X193986340Y-47375420D01*
X193986340Y-47375420D01*
G37*
G36*
X208826160Y-46566720D02*
X207073760Y-46566720D01*
X207073760Y-43014320D01*
X208826160Y-43014320D01*
X208826160Y-46566720D01*
X208826160Y-46566720D01*
G37*
G36*
X202026160Y-46566720D02*
X200273760Y-46566720D01*
X200273760Y-43014320D01*
X202026160Y-43014320D01*
X202026160Y-46566720D01*
X202026160Y-46566720D01*
G37*
G36*
X218724680Y-46535740D02*
X217672280Y-46535740D01*
X217672280Y-45183340D01*
X218724680Y-45183340D01*
X218724680Y-46535740D01*
X218724680Y-46535740D01*
G37*
G36*
X216024680Y-46535740D02*
X214972280Y-46535740D01*
X214972280Y-45183340D01*
X216024680Y-45183340D01*
X216024680Y-46535740D01*
X216024680Y-46535740D01*
G37*
G36*
X232376200Y-46311200D02*
X231223800Y-46311200D01*
X231223800Y-44908800D01*
X232376200Y-44908800D01*
X232376200Y-46311200D01*
X232376200Y-46311200D01*
G37*
G36*
X234376200Y-46311200D02*
X233223800Y-46311200D01*
X233223800Y-44908800D01*
X234376200Y-44908800D01*
X234376200Y-46311200D01*
X234376200Y-46311200D01*
G37*
G36*
X222238680Y-46001140D02*
X219586280Y-46001140D01*
X219586280Y-44848740D01*
X222238680Y-44848740D01*
X222238680Y-46001140D01*
X222238680Y-46001140D01*
G37*
G36*
X226048680Y-46001140D02*
X223396280Y-46001140D01*
X223396280Y-44848740D01*
X226048680Y-44848740D01*
X226048680Y-46001140D01*
X226048680Y-46001140D01*
G37*
G36*
X229858680Y-46001140D02*
X227206280Y-46001140D01*
X227206280Y-44848740D01*
X229858680Y-44848740D01*
X229858680Y-46001140D01*
X229858680Y-46001140D01*
G37*
G36*
X247310200Y-45863200D02*
X245957800Y-45863200D01*
X245957800Y-44560800D01*
X247310200Y-44560800D01*
X247310200Y-45863200D01*
X247310200Y-45863200D01*
G37*
G36*
X194542160Y-45834200D02*
X193389760Y-45834200D01*
X193389760Y-44081800D01*
X194542160Y-44081800D01*
X194542160Y-45834200D01*
X194542160Y-45834200D01*
G37*
G36*
X191542160Y-45834200D02*
X190389760Y-45834200D01*
X190389760Y-44081800D01*
X191542160Y-44081800D01*
X191542160Y-45834200D01*
X191542160Y-45834200D01*
G37*
G36*
X187641230Y-45824140D02*
X185687970Y-45824140D01*
X185687970Y-43172380D01*
X187641230Y-43172380D01*
X187641230Y-45824140D01*
X187641230Y-45824140D01*
G37*
G36*
X237145300Y-45601700D02*
X235592900Y-45601700D01*
X235592900Y-44549300D01*
X237145300Y-44549300D01*
X237145300Y-45601700D01*
X237145300Y-45601700D01*
G37*
G36*
X197632220Y-45356400D02*
X195879820Y-45356400D01*
X195879820Y-44204000D01*
X197632220Y-44204000D01*
X197632220Y-45356400D01*
X197632220Y-45356400D01*
G37*
M02*
