%TF.GenerationSoftware,KiCad,Pcbnew,4.0.5-e0-6337~49~ubuntu16.04.1*%
%TF.CreationDate,2017-08-03T12:45:45-07:00*%
%TF.ProjectId,mcphail-main-board,6D63706861696C2D6D61696E2D626F61,1.0*%
%TF.FileFunction,Copper,L2,Bot,Signal*%
%FSLAX46Y46*%
G04 Gerber Fmt 4.6, Leading zero omitted, Abs format (unit mm)*
G04 Created by KiCad (PCBNEW 4.0.5-e0-6337~49~ubuntu16.04.1) date Thu Aug  3 12:45:45 2017*
%MOMM*%
%LPD*%
G01*
G04 APERTURE LIST*
%ADD10C,0.350000*%
%ADD11C,1.727200*%
%ADD12R,2.500000X5.100000*%
%ADD13C,10.200000*%
%ADD14C,1.600000*%
%ADD15R,2.032000X2.032000*%
%ADD16O,2.032000X2.032000*%
%ADD17R,1.727200X2.032000*%
%ADD18O,1.727200X2.032000*%
%ADD19C,1.200000*%
%ADD20C,1.524000*%
%ADD21C,4.000000*%
%ADD22R,1.727200X1.727200*%
%ADD23O,1.727200X1.727200*%
%ADD24C,0.685800*%
%ADD25C,0.254000*%
%ADD26C,0.762000*%
%ADD27C,0.330200*%
%ADD28C,0.350000*%
G04 APERTURE END LIST*
D10*
D11*
X187358020Y-54516020D03*
D12*
X240009200Y-56438800D03*
X224709200Y-56438800D03*
D13*
X232359200Y-56438800D03*
D14*
X182310000Y-69400000D03*
X184810000Y-69400000D03*
D15*
X237729700Y-81955100D03*
D16*
X235189700Y-81955100D03*
D15*
X172110000Y-68130000D03*
D16*
X172110000Y-70670000D03*
D17*
X186839856Y-81444514D03*
D18*
X184299856Y-81444514D03*
X181759856Y-81444514D03*
X179219856Y-81444514D03*
X176679856Y-81444514D03*
X174139856Y-81444514D03*
D19*
X169570798Y-57406318D03*
X169570798Y-64506318D03*
D20*
X244602000Y-52832000D03*
X244602000Y-55372000D03*
X244602000Y-57912000D03*
X244602000Y-60452000D03*
X244602000Y-62992000D03*
X244602000Y-65532000D03*
X244602000Y-68072000D03*
X244602000Y-70612000D03*
X244602000Y-73152000D03*
X244602000Y-75692000D03*
X244602000Y-78232000D03*
X244602000Y-80772000D03*
X244602000Y-83312000D03*
X244602000Y-85852000D03*
X244602000Y-88392000D03*
X244602000Y-90932000D03*
D21*
X181752240Y-47688500D03*
X175752760Y-47688500D03*
X178752500Y-52387500D03*
D14*
X232771400Y-67339400D03*
X227891400Y-67339400D03*
D22*
X204876400Y-55575200D03*
D23*
X204876400Y-58115200D03*
X202336400Y-55575200D03*
X202336400Y-58115200D03*
X199796400Y-55575200D03*
X199796400Y-58115200D03*
D24*
X221477298Y-66232958D03*
X211226400Y-57036958D03*
X193395600Y-67716400D03*
X190906400Y-65227200D03*
X202697736Y-69742474D03*
X205613279Y-69575848D03*
X196966298Y-70677958D03*
X211597272Y-62736958D03*
X211566692Y-71780275D03*
X211775298Y-68936958D03*
X217175298Y-63617158D03*
X212275298Y-60236958D03*
X211023298Y-73674158D03*
X219275298Y-63641158D03*
X202463400Y-51625500D03*
X202420220Y-48994060D03*
X202420220Y-50289460D03*
X192766144Y-47861311D03*
X194683380Y-51681380D03*
X194706240Y-50650140D03*
X193814038Y-48892118D03*
X191583924Y-48904787D03*
X192796911Y-49953118D03*
X230412080Y-45453140D03*
X219194582Y-45453140D03*
X226703680Y-45424940D03*
X222792080Y-45424940D03*
X216365880Y-48018540D03*
X216365880Y-47154940D03*
X216899280Y-46316740D03*
X217280280Y-47180340D03*
X217280280Y-48043940D03*
X176367280Y-56843020D03*
X177367280Y-63943020D03*
X176467280Y-63443020D03*
X206514700Y-88811110D03*
X212636100Y-88633300D03*
X237020100Y-88836500D03*
X236816900Y-91732100D03*
X220256100Y-88836500D03*
X222288100Y-88836500D03*
X204241498Y-65417709D03*
X235712000Y-88392000D03*
X207264000Y-85852000D03*
X178396824Y-92191182D03*
X173644556Y-90461514D03*
X171637956Y-87286514D03*
X187258956Y-89864614D03*
X184655456Y-89839214D03*
X193954400Y-87541100D03*
X215616198Y-88607890D03*
X199059800Y-88163400D03*
X226898200Y-89954100D03*
X217106500Y-88785700D03*
X212509100Y-93396500D03*
X210146900Y-92138500D03*
X210045300Y-88303100D03*
X235504700Y-92465100D03*
X198412100Y-92933802D03*
X195148200Y-92811600D03*
X191795400Y-90208100D03*
X195656200Y-89281000D03*
X223062800Y-88049100D03*
X201930000Y-86956900D03*
X179171600Y-89864614D03*
X219875298Y-57936958D03*
X209575498Y-73826558D03*
X219278298Y-62167958D03*
X204241498Y-66136958D03*
X190000000Y-46310000D03*
X190000000Y-47060000D03*
X190949580Y-47060000D03*
X190965960Y-46310000D03*
X193583560Y-59048780D03*
X191734440Y-59048780D03*
X189845939Y-48900080D03*
X192727580Y-44213780D03*
X192760140Y-45892720D03*
X192760140Y-45094700D03*
X200938193Y-70013776D03*
X213675298Y-71936958D03*
X208269298Y-71058958D03*
X212775298Y-68936958D03*
X199628192Y-71478068D03*
X212675298Y-71936958D03*
X213875298Y-68936958D03*
X180822610Y-84619514D03*
X183561886Y-84417921D03*
X213156800Y-65138300D03*
X197770720Y-67688448D03*
X213156800Y-64198500D03*
X196830920Y-67688448D03*
D25*
X202354837Y-70085373D02*
X202697736Y-69742474D01*
X200615104Y-70686877D02*
X201753333Y-70686877D01*
X200606185Y-70677958D02*
X200615104Y-70686877D01*
X196966298Y-70677958D02*
X200606185Y-70677958D01*
X201753333Y-70686877D02*
X202354837Y-70085373D01*
D26*
X202463400Y-51625500D02*
X202463400Y-50332640D01*
X202463400Y-50332640D02*
X202420220Y-50289460D01*
X202420220Y-50289460D02*
X202420220Y-48994060D01*
D25*
X192796911Y-49953118D02*
X192796911Y-47892078D01*
X192796911Y-47892078D02*
X192766144Y-47861311D01*
X191583924Y-48904787D02*
X193801369Y-48904787D01*
X193801369Y-48904787D02*
X193814038Y-48892118D01*
X216899280Y-46316740D02*
X216899280Y-46621540D01*
X216899280Y-46621540D02*
X216365880Y-47154940D01*
X217280280Y-48043940D02*
X217280280Y-47180340D01*
X236677201Y-89179399D02*
X237020100Y-88836500D01*
X234696000Y-88836500D02*
X235038899Y-89179399D01*
X235038899Y-89179399D02*
X236677201Y-89179399D01*
X234696000Y-88836500D02*
X222773033Y-88836500D01*
X234965033Y-88836500D02*
X234696000Y-88836500D01*
X207975200Y-89369900D02*
X212585300Y-89369900D01*
X212585300Y-89369900D02*
X213372700Y-89369900D01*
X212636100Y-88633300D02*
X212636100Y-89118233D01*
X212636100Y-89118233D02*
X212585300Y-89169033D01*
X212585300Y-89169033D02*
X212585300Y-89369900D01*
X214198211Y-90195411D02*
X213372700Y-89369900D01*
X206514700Y-88811110D02*
X207416410Y-88811110D01*
X207416410Y-88811110D02*
X207975200Y-89369900D01*
X218897189Y-90195411D02*
X214198211Y-90195411D01*
X220256100Y-88836500D02*
X218897189Y-90195411D01*
X237020100Y-88836500D02*
X237020100Y-88351567D01*
X237020100Y-88351567D02*
X234965033Y-86296500D01*
X222773033Y-88836500D02*
X222288100Y-88836500D01*
X195148200Y-92811600D02*
X198412100Y-92933802D01*
X198412100Y-92811600D02*
X198412100Y-92933802D01*
X195656200Y-89281000D02*
X192722500Y-89281000D01*
X192722500Y-89281000D02*
X191795400Y-90208100D01*
X205892399Y-86766400D02*
X212166200Y-86766400D01*
X212166200Y-86766400D02*
X212483700Y-86766400D01*
X217474800Y-88049100D02*
X216192100Y-86766400D01*
X216192100Y-86766400D02*
X212166200Y-86766400D01*
X220065600Y-88049100D02*
X223062800Y-88049100D01*
X219925900Y-88049100D02*
X220065600Y-88049100D01*
X220065600Y-88049100D02*
X217474800Y-88049100D01*
X206082900Y-86766400D02*
X205892399Y-86766400D01*
X202605433Y-86766400D02*
X205892399Y-86766400D01*
X201930000Y-86956900D02*
X202414933Y-86956900D01*
X202414933Y-86956900D02*
X202605433Y-86766400D01*
X180098700Y-84023200D02*
X180098700Y-88937514D01*
X180098700Y-88937514D02*
X179171600Y-89864614D01*
X180517800Y-83604100D02*
X180098700Y-84023200D01*
X183410270Y-83604100D02*
X180517800Y-83604100D01*
X184299856Y-81444514D02*
X184299856Y-82714514D01*
X184299856Y-82714514D02*
X183410270Y-83604100D01*
X219875298Y-57936958D02*
X219875298Y-61570958D01*
X219875298Y-61570958D02*
X219278298Y-62167958D01*
X191734440Y-59048780D02*
X191734440Y-50788581D01*
X191734440Y-50788581D02*
X189845939Y-48900080D01*
X208269298Y-71058958D02*
X208612197Y-70716059D01*
X212432399Y-69279857D02*
X212775298Y-68936958D01*
X208612197Y-70716059D02*
X210996197Y-70716059D01*
X210996197Y-70716059D02*
X212432399Y-69279857D01*
X181024203Y-84417921D02*
X180822610Y-84619514D01*
X183561886Y-84417921D02*
X181024203Y-84417921D01*
X200315389Y-64922399D02*
X212940899Y-64922399D01*
X197770720Y-67467068D02*
X200315389Y-64922399D01*
X197770720Y-67688448D02*
X197770720Y-67467068D01*
X212940899Y-64922399D02*
X213156800Y-65138300D01*
X200104967Y-64414401D02*
X212940899Y-64414401D01*
X196830920Y-67688448D02*
X200104967Y-64414401D01*
X212940899Y-64414401D02*
X213156800Y-64198500D01*
G36*
X170200000Y-42521200D02*
X245814951Y-42521200D01*
X246525942Y-42662624D01*
X247069309Y-43025691D01*
X247432375Y-43569056D01*
X247570300Y-44262452D01*
X247562772Y-44413380D01*
X247573800Y-44488109D01*
X247573800Y-95694677D01*
X247461038Y-96487466D01*
X247099858Y-97098304D01*
X246532412Y-97524430D01*
X245795125Y-97713800D01*
X241935000Y-97713800D01*
X241935000Y-78740000D01*
X241891573Y-78509205D01*
X241755173Y-78297233D01*
X241547051Y-78155029D01*
X241300000Y-78105000D01*
X208915000Y-78105000D01*
X208915000Y-75968661D01*
X243204758Y-75968661D01*
X243416990Y-76482303D01*
X243809630Y-76875629D01*
X244017512Y-76961949D01*
X243811697Y-77046990D01*
X243418371Y-77439630D01*
X243205243Y-77952900D01*
X243204758Y-78508661D01*
X243416990Y-79022303D01*
X243809630Y-79415629D01*
X244017512Y-79501949D01*
X243811697Y-79586990D01*
X243418371Y-79979630D01*
X243205243Y-80492900D01*
X243204758Y-81048661D01*
X243416990Y-81562303D01*
X243809630Y-81955629D01*
X244017512Y-82041949D01*
X243811697Y-82126990D01*
X243418371Y-82519630D01*
X243205243Y-83032900D01*
X243204758Y-83588661D01*
X243416990Y-84102303D01*
X243809630Y-84495629D01*
X244017512Y-84581949D01*
X243811697Y-84666990D01*
X243418371Y-85059630D01*
X243205243Y-85572900D01*
X243204758Y-86128661D01*
X243416990Y-86642303D01*
X243809630Y-87035629D01*
X244017512Y-87121949D01*
X243811697Y-87206990D01*
X243418371Y-87599630D01*
X243205243Y-88112900D01*
X243204758Y-88668661D01*
X243416990Y-89182303D01*
X243809630Y-89575629D01*
X244017512Y-89661949D01*
X243811697Y-89746990D01*
X243418371Y-90139630D01*
X243205243Y-90652900D01*
X243204758Y-91208661D01*
X243416990Y-91722303D01*
X243809630Y-92115629D01*
X244322900Y-92328757D01*
X244878661Y-92329242D01*
X245392303Y-92117010D01*
X245785629Y-91724370D01*
X245998757Y-91211100D01*
X245999242Y-90655339D01*
X245787010Y-90141697D01*
X245394370Y-89748371D01*
X245186488Y-89662051D01*
X245392303Y-89577010D01*
X245785629Y-89184370D01*
X245998757Y-88671100D01*
X245999242Y-88115339D01*
X245787010Y-87601697D01*
X245394370Y-87208371D01*
X245186488Y-87122051D01*
X245392303Y-87037010D01*
X245785629Y-86644370D01*
X245998757Y-86131100D01*
X245999242Y-85575339D01*
X245787010Y-85061697D01*
X245394370Y-84668371D01*
X245186488Y-84582051D01*
X245392303Y-84497010D01*
X245785629Y-84104370D01*
X245998757Y-83591100D01*
X245999242Y-83035339D01*
X245787010Y-82521697D01*
X245394370Y-82128371D01*
X245186488Y-82042051D01*
X245392303Y-81957010D01*
X245785629Y-81564370D01*
X245998757Y-81051100D01*
X245999242Y-80495339D01*
X245787010Y-79981697D01*
X245394370Y-79588371D01*
X245186488Y-79502051D01*
X245392303Y-79417010D01*
X245785629Y-79024370D01*
X245998757Y-78511100D01*
X245999242Y-77955339D01*
X245787010Y-77441697D01*
X245394370Y-77048371D01*
X245186488Y-76962051D01*
X245392303Y-76877010D01*
X245785629Y-76484370D01*
X245998757Y-75971100D01*
X245999242Y-75415339D01*
X245787010Y-74901697D01*
X245394370Y-74508371D01*
X245202273Y-74428605D01*
X245333143Y-74374397D01*
X245402608Y-74132213D01*
X244602000Y-73331605D01*
X243801392Y-74132213D01*
X243870857Y-74374397D01*
X244011318Y-74424509D01*
X243811697Y-74506990D01*
X243418371Y-74899630D01*
X243205243Y-75412900D01*
X243204758Y-75968661D01*
X208915000Y-75968661D01*
X208915000Y-74549074D01*
X209020839Y-74655098D01*
X209380128Y-74804288D01*
X209769161Y-74804627D01*
X210128710Y-74656065D01*
X210404038Y-74381217D01*
X210553228Y-74021928D01*
X210553567Y-73632895D01*
X210405005Y-73273346D01*
X210130157Y-72998018D01*
X209770868Y-72848828D01*
X209381835Y-72848489D01*
X209022286Y-72997051D01*
X208915000Y-73104150D01*
X208915000Y-72130621D01*
X211697229Y-72130621D01*
X211845791Y-72490170D01*
X212120639Y-72765498D01*
X212479928Y-72914688D01*
X212868961Y-72915027D01*
X213175609Y-72788323D01*
X213479928Y-72914688D01*
X213868961Y-72915027D01*
X214228510Y-72766465D01*
X214503838Y-72491617D01*
X214653028Y-72132328D01*
X214653367Y-71743295D01*
X214504805Y-71383746D01*
X214229957Y-71108418D01*
X213870668Y-70959228D01*
X213481635Y-70958889D01*
X213174987Y-71085593D01*
X212870668Y-70959228D01*
X212481635Y-70958889D01*
X212122086Y-71107451D01*
X211846758Y-71382299D01*
X211697568Y-71741588D01*
X211697229Y-72130621D01*
X208915000Y-72130621D01*
X208915000Y-71796136D01*
X209097838Y-71613617D01*
X209154127Y-71478059D01*
X210996197Y-71478059D01*
X211287802Y-71420055D01*
X211535012Y-71254874D01*
X212874942Y-69914945D01*
X212968961Y-69915027D01*
X213325732Y-69767613D01*
X213679928Y-69914688D01*
X214068961Y-69915027D01*
X214428510Y-69766465D01*
X214703838Y-69491617D01*
X214853028Y-69132328D01*
X214853367Y-68743295D01*
X214704805Y-68383746D01*
X214429957Y-68108418D01*
X214070668Y-67959228D01*
X213681635Y-67958889D01*
X213324864Y-68106303D01*
X212970668Y-67959228D01*
X212581635Y-67958889D01*
X212222086Y-68107451D01*
X211946758Y-68382299D01*
X211797568Y-68741588D01*
X211797485Y-68837140D01*
X210680567Y-69954059D01*
X208915000Y-69954059D01*
X208915000Y-66426621D01*
X220499229Y-66426621D01*
X220647791Y-66786170D01*
X220922639Y-67061498D01*
X221281928Y-67210688D01*
X221670961Y-67211027D01*
X222030510Y-67062465D01*
X222305838Y-66787617D01*
X222455028Y-66428328D01*
X222455252Y-66171000D01*
X225072000Y-66171000D01*
X225072000Y-69981000D01*
X225081334Y-70028789D01*
X225109197Y-70070803D01*
X226342000Y-71303606D01*
X226342000Y-72521000D01*
X226351334Y-72568789D01*
X226379197Y-72610803D01*
X227649197Y-73880803D01*
X227689590Y-73907994D01*
X227739000Y-73918000D01*
X234089000Y-73918000D01*
X234136789Y-73908666D01*
X234178803Y-73880803D01*
X235115304Y-72944302D01*
X243192856Y-72944302D01*
X243220638Y-73499368D01*
X243379603Y-73883143D01*
X243621787Y-73952608D01*
X244422395Y-73152000D01*
X244781605Y-73152000D01*
X245582213Y-73952608D01*
X245824397Y-73883143D01*
X246011144Y-73359698D01*
X245983362Y-72804632D01*
X245824397Y-72420857D01*
X245582213Y-72351392D01*
X244781605Y-73152000D01*
X244422395Y-73152000D01*
X243621787Y-72351392D01*
X243379603Y-72420857D01*
X243192856Y-72944302D01*
X235115304Y-72944302D01*
X235448803Y-72610803D01*
X235475994Y-72570410D01*
X235486000Y-72521000D01*
X235486000Y-63631000D01*
X235476666Y-63583211D01*
X235448803Y-63541197D01*
X234178803Y-62271197D01*
X234138410Y-62244006D01*
X234089000Y-62234000D01*
X230279000Y-62234000D01*
X230231211Y-62243334D01*
X230189197Y-62271197D01*
X228919197Y-63541197D01*
X228892006Y-63581590D01*
X228882000Y-63631000D01*
X228882000Y-64774000D01*
X226469000Y-64774000D01*
X226421211Y-64783334D01*
X226379197Y-64811197D01*
X225109197Y-66081197D01*
X225082006Y-66121590D01*
X225072000Y-66171000D01*
X222455252Y-66171000D01*
X222455367Y-66039295D01*
X222306805Y-65679746D01*
X222031957Y-65404418D01*
X221672668Y-65255228D01*
X221283635Y-65254889D01*
X220924086Y-65403451D01*
X220648758Y-65678299D01*
X220499568Y-66037588D01*
X220499229Y-66426621D01*
X208915000Y-66426621D01*
X208915000Y-65684399D01*
X212324354Y-65684399D01*
X212327293Y-65691512D01*
X212602141Y-65966840D01*
X212961430Y-66116030D01*
X213350463Y-66116369D01*
X213710012Y-65967807D01*
X213985340Y-65692959D01*
X214134530Y-65333670D01*
X214134869Y-64944637D01*
X214020633Y-64668164D01*
X214134530Y-64393870D01*
X214134869Y-64004837D01*
X213986307Y-63645288D01*
X213711459Y-63369960D01*
X213352170Y-63220770D01*
X212963137Y-63220431D01*
X212603588Y-63368993D01*
X212328260Y-63643841D01*
X212324706Y-63652401D01*
X208915000Y-63652401D01*
X208915000Y-63500000D01*
X208871573Y-63269205D01*
X208735173Y-63057233D01*
X208527051Y-62915029D01*
X208280000Y-62865000D01*
X200660000Y-62865000D01*
X200429205Y-62908427D01*
X200217233Y-63044827D01*
X200075029Y-63252949D01*
X200025000Y-63500000D01*
X200025000Y-63668307D01*
X199813362Y-63710405D01*
X199714344Y-63776567D01*
X199566152Y-63875585D01*
X196731277Y-66710461D01*
X196637257Y-66710379D01*
X196277708Y-66858941D01*
X196002380Y-67133789D01*
X195853190Y-67493078D01*
X195852851Y-67882111D01*
X196001413Y-68241660D01*
X196276261Y-68516988D01*
X196635550Y-68666178D01*
X197024583Y-68666517D01*
X197301056Y-68552281D01*
X197575350Y-68666178D01*
X197964383Y-68666517D01*
X198323932Y-68517955D01*
X198599260Y-68243107D01*
X198748450Y-67883818D01*
X198748726Y-67566692D01*
X200025000Y-66290419D01*
X200025000Y-69662984D01*
X199960463Y-69818406D01*
X199960124Y-70207439D01*
X200025000Y-70364452D01*
X200025000Y-70583982D01*
X199823562Y-70500338D01*
X199434529Y-70499999D01*
X199074980Y-70648561D01*
X198799652Y-70923409D01*
X198650462Y-71282698D01*
X198650123Y-71671731D01*
X198798685Y-72031280D01*
X199073533Y-72306608D01*
X199432822Y-72455798D01*
X199821855Y-72456137D01*
X200025000Y-72372200D01*
X200025000Y-78105000D01*
X168351200Y-78105000D01*
X168351200Y-71052944D01*
X170504025Y-71052944D01*
X170703615Y-71534818D01*
X171141621Y-72007188D01*
X171727054Y-72275983D01*
X171983000Y-72157367D01*
X171983000Y-70797000D01*
X172237000Y-70797000D01*
X172237000Y-72157367D01*
X172492946Y-72275983D01*
X173078379Y-72007188D01*
X173516385Y-71534818D01*
X173715975Y-71052944D01*
X173596836Y-70797000D01*
X172237000Y-70797000D01*
X171983000Y-70797000D01*
X170623164Y-70797000D01*
X170504025Y-71052944D01*
X168351200Y-71052944D01*
X168351200Y-67114000D01*
X170446560Y-67114000D01*
X170446560Y-69146000D01*
X170490838Y-69381317D01*
X170629910Y-69597441D01*
X170792948Y-69708840D01*
X170703615Y-69805182D01*
X170504025Y-70287056D01*
X170623164Y-70543000D01*
X171983000Y-70543000D01*
X171983000Y-70523000D01*
X172237000Y-70523000D01*
X172237000Y-70543000D01*
X173596836Y-70543000D01*
X173715975Y-70287056D01*
X173516385Y-69805182D01*
X173425903Y-69707602D01*
X173462290Y-69684187D01*
X180874752Y-69684187D01*
X181092757Y-70211800D01*
X181496077Y-70615824D01*
X182023309Y-70834750D01*
X182594187Y-70835248D01*
X183121800Y-70617243D01*
X183331663Y-70407745D01*
X183981861Y-70407745D01*
X184055995Y-70653864D01*
X184593223Y-70846965D01*
X185163454Y-70819778D01*
X185564005Y-70653864D01*
X185638139Y-70407745D01*
X184810000Y-69579605D01*
X183981861Y-70407745D01*
X183331663Y-70407745D01*
X183525824Y-70213923D01*
X183553423Y-70147456D01*
X183556136Y-70154005D01*
X183802255Y-70228139D01*
X184630395Y-69400000D01*
X184989605Y-69400000D01*
X185817745Y-70228139D01*
X186063864Y-70154005D01*
X186256965Y-69616777D01*
X186229778Y-69046546D01*
X186063864Y-68645995D01*
X185817745Y-68571861D01*
X184989605Y-69400000D01*
X184630395Y-69400000D01*
X183802255Y-68571861D01*
X183556136Y-68645995D01*
X183553804Y-68652483D01*
X183527243Y-68588200D01*
X183331640Y-68392255D01*
X183981861Y-68392255D01*
X184810000Y-69220395D01*
X185638139Y-68392255D01*
X185564005Y-68146136D01*
X185026777Y-67953035D01*
X184456546Y-67980222D01*
X184055995Y-68146136D01*
X183981861Y-68392255D01*
X183331640Y-68392255D01*
X183123923Y-68184176D01*
X182596691Y-67965250D01*
X182025813Y-67964752D01*
X181498200Y-68182757D01*
X181094176Y-68586077D01*
X180875250Y-69113309D01*
X180874752Y-69684187D01*
X173462290Y-69684187D01*
X173577441Y-69610090D01*
X173722431Y-69397890D01*
X173773440Y-69146000D01*
X173773440Y-67114000D01*
X173729162Y-66878683D01*
X173590090Y-66662559D01*
X173377890Y-66517569D01*
X173126000Y-66466560D01*
X171094000Y-66466560D01*
X170858683Y-66510838D01*
X170642559Y-66649910D01*
X170497569Y-66862110D01*
X170446560Y-67114000D01*
X168351200Y-67114000D01*
X168351200Y-64788690D01*
X168523206Y-65204975D01*
X168870313Y-65552689D01*
X169324064Y-65741103D01*
X169815377Y-65741532D01*
X170269455Y-65553910D01*
X170617169Y-65206803D01*
X170805583Y-64753052D01*
X170806012Y-64261739D01*
X170618390Y-63807661D01*
X170271283Y-63459947D01*
X169817532Y-63271533D01*
X169326219Y-63271104D01*
X168872141Y-63458726D01*
X168524427Y-63805833D01*
X168351200Y-64223010D01*
X168351200Y-62361621D01*
X218300229Y-62361621D01*
X218448791Y-62721170D01*
X218723639Y-62996498D01*
X219082928Y-63145688D01*
X219471961Y-63146027D01*
X219831510Y-62997465D01*
X220106838Y-62722617D01*
X220256028Y-62363328D01*
X220256111Y-62267775D01*
X220414113Y-62109774D01*
X220579294Y-61862563D01*
X220624159Y-61637010D01*
X220637298Y-61570958D01*
X220637298Y-60550051D01*
X228427554Y-60550051D01*
X229025767Y-61242943D01*
X231117976Y-62152899D01*
X233399149Y-62192935D01*
X235522000Y-61356957D01*
X235692633Y-61242943D01*
X236136641Y-60728661D01*
X243204758Y-60728661D01*
X243416990Y-61242303D01*
X243809630Y-61635629D01*
X244017512Y-61721949D01*
X243811697Y-61806990D01*
X243418371Y-62199630D01*
X243205243Y-62712900D01*
X243204758Y-63268661D01*
X243416990Y-63782303D01*
X243809630Y-64175629D01*
X244017512Y-64261949D01*
X243811697Y-64346990D01*
X243418371Y-64739630D01*
X243205243Y-65252900D01*
X243204758Y-65808661D01*
X243416990Y-66322303D01*
X243809630Y-66715629D01*
X244017512Y-66801949D01*
X243811697Y-66886990D01*
X243418371Y-67279630D01*
X243205243Y-67792900D01*
X243204758Y-68348661D01*
X243416990Y-68862303D01*
X243809630Y-69255629D01*
X244017512Y-69341949D01*
X243811697Y-69426990D01*
X243418371Y-69819630D01*
X243205243Y-70332900D01*
X243204758Y-70888661D01*
X243416990Y-71402303D01*
X243809630Y-71795629D01*
X244001727Y-71875395D01*
X243870857Y-71929603D01*
X243801392Y-72171787D01*
X244602000Y-72972395D01*
X245402608Y-72171787D01*
X245333143Y-71929603D01*
X245192682Y-71879491D01*
X245392303Y-71797010D01*
X245785629Y-71404370D01*
X245998757Y-70891100D01*
X245999242Y-70335339D01*
X245787010Y-69821697D01*
X245394370Y-69428371D01*
X245186488Y-69342051D01*
X245392303Y-69257010D01*
X245785629Y-68864370D01*
X245998757Y-68351100D01*
X245999242Y-67795339D01*
X245787010Y-67281697D01*
X245394370Y-66888371D01*
X245186488Y-66802051D01*
X245392303Y-66717010D01*
X245785629Y-66324370D01*
X245998757Y-65811100D01*
X245999242Y-65255339D01*
X245787010Y-64741697D01*
X245394370Y-64348371D01*
X245186488Y-64262051D01*
X245392303Y-64177010D01*
X245785629Y-63784370D01*
X245998757Y-63271100D01*
X245999242Y-62715339D01*
X245787010Y-62201697D01*
X245394370Y-61808371D01*
X245186488Y-61722051D01*
X245392303Y-61637010D01*
X245785629Y-61244370D01*
X245998757Y-60731100D01*
X245999242Y-60175339D01*
X245787010Y-59661697D01*
X245394370Y-59268371D01*
X245202273Y-59188605D01*
X245333143Y-59134397D01*
X245402608Y-58892213D01*
X244602000Y-58091605D01*
X243801392Y-58892213D01*
X243870857Y-59134397D01*
X244011318Y-59184509D01*
X243811697Y-59266990D01*
X243418371Y-59659630D01*
X243205243Y-60172900D01*
X243204758Y-60728661D01*
X236136641Y-60728661D01*
X236290846Y-60550051D01*
X232359200Y-56618405D01*
X228427554Y-60550051D01*
X220637298Y-60550051D01*
X220637298Y-58558041D01*
X220703838Y-58491617D01*
X220853028Y-58132328D01*
X220853367Y-57743295D01*
X220704805Y-57383746D01*
X220429957Y-57108418D01*
X220070668Y-56959228D01*
X219681635Y-56958889D01*
X219322086Y-57107451D01*
X219046758Y-57382299D01*
X218897568Y-57741588D01*
X218897229Y-58130621D01*
X219045791Y-58490170D01*
X219113298Y-58557795D01*
X219113298Y-61189914D01*
X219084635Y-61189889D01*
X218725086Y-61338451D01*
X218449758Y-61613299D01*
X218300568Y-61972588D01*
X218300229Y-62361621D01*
X168351200Y-62361621D01*
X168351200Y-57688690D01*
X168523206Y-58104975D01*
X168870313Y-58452689D01*
X169324064Y-58641103D01*
X169815377Y-58641532D01*
X170269455Y-58453910D01*
X170617169Y-58106803D01*
X170805583Y-57653052D01*
X170806012Y-57161739D01*
X170618390Y-56707661D01*
X170271283Y-56359947D01*
X169817532Y-56171533D01*
X169326219Y-56171104D01*
X168872141Y-56358726D01*
X168524427Y-56705833D01*
X168351200Y-57123010D01*
X168351200Y-54262522D01*
X177057084Y-54262522D01*
X177277853Y-54633243D01*
X178249512Y-55026619D01*
X179297747Y-55018213D01*
X179793653Y-54812802D01*
X185859161Y-54812802D01*
X186086828Y-55363800D01*
X186508023Y-55785730D01*
X187058622Y-56014359D01*
X187654802Y-56014879D01*
X188205800Y-55787212D01*
X188627730Y-55366017D01*
X188856359Y-54815418D01*
X188856879Y-54219238D01*
X188629212Y-53668240D01*
X188208017Y-53246310D01*
X187657418Y-53017681D01*
X187061238Y-53017161D01*
X186510240Y-53244828D01*
X186088310Y-53666023D01*
X185859681Y-54216622D01*
X185859161Y-54812802D01*
X179793653Y-54812802D01*
X180227147Y-54633243D01*
X180447916Y-54262522D01*
X178752500Y-52567105D01*
X177057084Y-54262522D01*
X168351200Y-54262522D01*
X168351200Y-51884512D01*
X176113381Y-51884512D01*
X176121787Y-52932747D01*
X176506757Y-53862147D01*
X176877478Y-54082916D01*
X178572895Y-52387500D01*
X178932105Y-52387500D01*
X180627522Y-54082916D01*
X180998243Y-53862147D01*
X181391619Y-52890488D01*
X181383213Y-51842253D01*
X180998243Y-50912853D01*
X180627522Y-50692084D01*
X178932105Y-52387500D01*
X178572895Y-52387500D01*
X176877478Y-50692084D01*
X176506757Y-50912853D01*
X176113381Y-51884512D01*
X168351200Y-51884512D01*
X168351200Y-50512478D01*
X177057084Y-50512478D01*
X178752500Y-52207895D01*
X180447916Y-50512478D01*
X180227147Y-50141757D01*
X179255488Y-49748381D01*
X178207253Y-49756787D01*
X177277853Y-50141757D01*
X177057084Y-50512478D01*
X168351200Y-50512478D01*
X168351200Y-49563522D01*
X174057344Y-49563522D01*
X174278113Y-49934243D01*
X175249772Y-50327619D01*
X176298007Y-50319213D01*
X177227407Y-49934243D01*
X177448176Y-49563522D01*
X175752760Y-47868105D01*
X174057344Y-49563522D01*
X168351200Y-49563522D01*
X168351200Y-47185512D01*
X173113641Y-47185512D01*
X173122047Y-48233747D01*
X173507017Y-49163147D01*
X173877738Y-49383916D01*
X175573155Y-47688500D01*
X175932365Y-47688500D01*
X177627782Y-49383916D01*
X177998503Y-49163147D01*
X178384249Y-48210334D01*
X179116783Y-48210334D01*
X179517093Y-49179158D01*
X180257683Y-49921042D01*
X181225807Y-50323042D01*
X182274074Y-50323957D01*
X183242898Y-49923647D01*
X183984782Y-49183057D01*
X184021868Y-49093743D01*
X188867870Y-49093743D01*
X189016432Y-49453292D01*
X189291280Y-49728620D01*
X189650569Y-49877810D01*
X189746122Y-49877893D01*
X190972440Y-51104212D01*
X190972440Y-58427697D01*
X190905900Y-58494121D01*
X190756710Y-58853410D01*
X190756371Y-59242443D01*
X190904933Y-59601992D01*
X191179781Y-59877320D01*
X191539070Y-60026510D01*
X191928103Y-60026849D01*
X192287652Y-59878287D01*
X192562980Y-59603439D01*
X192659052Y-59372072D01*
X192754053Y-59601992D01*
X193028901Y-59877320D01*
X193388190Y-60026510D01*
X193777223Y-60026849D01*
X194136772Y-59878287D01*
X194412100Y-59603439D01*
X194561290Y-59244150D01*
X194561629Y-58855117D01*
X194413067Y-58495568D01*
X194138219Y-58220240D01*
X193814551Y-58085841D01*
X198297800Y-58085841D01*
X198297800Y-58144559D01*
X198411874Y-58718048D01*
X198736730Y-59204229D01*
X199222911Y-59529085D01*
X199796400Y-59643159D01*
X200369889Y-59529085D01*
X200856070Y-59204229D01*
X201066400Y-58889448D01*
X201276730Y-59204229D01*
X201762911Y-59529085D01*
X202336400Y-59643159D01*
X202909889Y-59529085D01*
X203396070Y-59204229D01*
X203606400Y-58889448D01*
X203816730Y-59204229D01*
X204302911Y-59529085D01*
X204876400Y-59643159D01*
X205449889Y-59529085D01*
X205936070Y-59204229D01*
X206260926Y-58718048D01*
X206375000Y-58144559D01*
X206375000Y-58085841D01*
X206260926Y-57512352D01*
X205949826Y-57046758D01*
X205975317Y-57041962D01*
X206191441Y-56902890D01*
X206336431Y-56690690D01*
X206387440Y-56438800D01*
X206387440Y-54711600D01*
X206343162Y-54476283D01*
X206204090Y-54260159D01*
X205991890Y-54115169D01*
X205740000Y-54064160D01*
X204012800Y-54064160D01*
X203777483Y-54108438D01*
X203561359Y-54247510D01*
X203416369Y-54459710D01*
X203407536Y-54503331D01*
X203396070Y-54486171D01*
X202909889Y-54161315D01*
X202336400Y-54047241D01*
X201762911Y-54161315D01*
X201276730Y-54486171D01*
X201060736Y-54809428D01*
X201003221Y-54686710D01*
X200571347Y-54292512D01*
X200155426Y-54120242D01*
X199923400Y-54241383D01*
X199923400Y-55448200D01*
X199943400Y-55448200D01*
X199943400Y-55702200D01*
X199923400Y-55702200D01*
X199923400Y-55722200D01*
X199669400Y-55722200D01*
X199669400Y-55702200D01*
X198461931Y-55702200D01*
X198341432Y-55934227D01*
X198589579Y-56463690D01*
X199007561Y-56845208D01*
X198736730Y-57026171D01*
X198411874Y-57512352D01*
X198297800Y-58085841D01*
X193814551Y-58085841D01*
X193778930Y-58071050D01*
X193389897Y-58070711D01*
X193030348Y-58219273D01*
X192755020Y-58494121D01*
X192658948Y-58725488D01*
X192563947Y-58495568D01*
X192496440Y-58427943D01*
X192496440Y-55216173D01*
X198341432Y-55216173D01*
X198461931Y-55448200D01*
X199669400Y-55448200D01*
X199669400Y-54241383D01*
X199437374Y-54120242D01*
X199021453Y-54292512D01*
X198589579Y-54686710D01*
X198341432Y-55216173D01*
X192496440Y-55216173D01*
X192496440Y-53888800D01*
X222811760Y-53888800D01*
X222811760Y-58988800D01*
X222856038Y-59224117D01*
X222995110Y-59440241D01*
X223207310Y-59585231D01*
X223459200Y-59636240D01*
X225959200Y-59636240D01*
X226194517Y-59591962D01*
X226410641Y-59452890D01*
X226555631Y-59240690D01*
X226606640Y-58988800D01*
X226606640Y-57482748D01*
X227441043Y-59601600D01*
X227555057Y-59772233D01*
X228247949Y-60370446D01*
X232179595Y-56438800D01*
X232538805Y-56438800D01*
X236470451Y-60370446D01*
X237163343Y-59772233D01*
X238073299Y-57680024D01*
X238111760Y-55488591D01*
X238111760Y-58988800D01*
X238156038Y-59224117D01*
X238295110Y-59440241D01*
X238507310Y-59585231D01*
X238759200Y-59636240D01*
X241259200Y-59636240D01*
X241494517Y-59591962D01*
X241710641Y-59452890D01*
X241855631Y-59240690D01*
X241906640Y-58988800D01*
X241906640Y-57704302D01*
X243192856Y-57704302D01*
X243220638Y-58259368D01*
X243379603Y-58643143D01*
X243621787Y-58712608D01*
X244422395Y-57912000D01*
X244781605Y-57912000D01*
X245582213Y-58712608D01*
X245824397Y-58643143D01*
X246011144Y-58119698D01*
X245983362Y-57564632D01*
X245824397Y-57180857D01*
X245582213Y-57111392D01*
X244781605Y-57912000D01*
X244422395Y-57912000D01*
X243621787Y-57111392D01*
X243379603Y-57180857D01*
X243192856Y-57704302D01*
X241906640Y-57704302D01*
X241906640Y-53888800D01*
X241862362Y-53653483D01*
X241723290Y-53437359D01*
X241511090Y-53292369D01*
X241259200Y-53241360D01*
X238759200Y-53241360D01*
X238523883Y-53285638D01*
X238307759Y-53424710D01*
X238162769Y-53636910D01*
X238111760Y-53888800D01*
X238111760Y-55394852D01*
X237277357Y-53276000D01*
X237165544Y-53108661D01*
X243204758Y-53108661D01*
X243416990Y-53622303D01*
X243809630Y-54015629D01*
X244017512Y-54101949D01*
X243811697Y-54186990D01*
X243418371Y-54579630D01*
X243205243Y-55092900D01*
X243204758Y-55648661D01*
X243416990Y-56162303D01*
X243809630Y-56555629D01*
X244001727Y-56635395D01*
X243870857Y-56689603D01*
X243801392Y-56931787D01*
X244602000Y-57732395D01*
X245402608Y-56931787D01*
X245333143Y-56689603D01*
X245192682Y-56639491D01*
X245392303Y-56557010D01*
X245785629Y-56164370D01*
X245998757Y-55651100D01*
X245999242Y-55095339D01*
X245787010Y-54581697D01*
X245394370Y-54188371D01*
X245186488Y-54102051D01*
X245392303Y-54017010D01*
X245785629Y-53624370D01*
X245998757Y-53111100D01*
X245999242Y-52555339D01*
X245787010Y-52041697D01*
X245394370Y-51648371D01*
X244881100Y-51435243D01*
X244325339Y-51434758D01*
X243811697Y-51646990D01*
X243418371Y-52039630D01*
X243205243Y-52552900D01*
X243204758Y-53108661D01*
X237165544Y-53108661D01*
X237163343Y-53105367D01*
X236470451Y-52507154D01*
X232538805Y-56438800D01*
X232179595Y-56438800D01*
X228247949Y-52507154D01*
X227555057Y-53105367D01*
X226645101Y-55197576D01*
X226606640Y-57389009D01*
X226606640Y-53888800D01*
X226562362Y-53653483D01*
X226423290Y-53437359D01*
X226211090Y-53292369D01*
X225959200Y-53241360D01*
X223459200Y-53241360D01*
X223223883Y-53285638D01*
X223007759Y-53424710D01*
X222862769Y-53636910D01*
X222811760Y-53888800D01*
X192496440Y-53888800D01*
X192496440Y-52327549D01*
X228427554Y-52327549D01*
X232359200Y-56259195D01*
X236290846Y-52327549D01*
X235692633Y-51634657D01*
X233600424Y-50724701D01*
X231319251Y-50684665D01*
X229196400Y-51520643D01*
X229025767Y-51634657D01*
X228427554Y-52327549D01*
X192496440Y-52327549D01*
X192496440Y-50788581D01*
X192438436Y-50496976D01*
X192325275Y-50327619D01*
X192273256Y-50249766D01*
X190823926Y-48800437D01*
X190824008Y-48706417D01*
X190675446Y-48346868D01*
X190400598Y-48071540D01*
X190256983Y-48011906D01*
X190475038Y-47921808D01*
X190754210Y-48037730D01*
X191143243Y-48038069D01*
X191502792Y-47889507D01*
X191778120Y-47614659D01*
X191927310Y-47255370D01*
X191927649Y-46866337D01*
X191860891Y-46704771D01*
X191943690Y-46505370D01*
X191943730Y-46459052D01*
X192205481Y-46721260D01*
X192564770Y-46870450D01*
X192953803Y-46870789D01*
X193313352Y-46722227D01*
X193588680Y-46447379D01*
X193737870Y-46088090D01*
X193738209Y-45699057D01*
X193653337Y-45493649D01*
X193737870Y-45290070D01*
X193738209Y-44901037D01*
X193619928Y-44614773D01*
X193705310Y-44409150D01*
X193705649Y-44020117D01*
X193557087Y-43660568D01*
X193282239Y-43385240D01*
X192922950Y-43236050D01*
X192533917Y-43235711D01*
X192174368Y-43384273D01*
X191899040Y-43659121D01*
X191749850Y-44018410D01*
X191749511Y-44407443D01*
X191867792Y-44693707D01*
X191782410Y-44899330D01*
X191782071Y-45288363D01*
X191866943Y-45493771D01*
X191782410Y-45697350D01*
X191782370Y-45743668D01*
X191520619Y-45481460D01*
X191161330Y-45332270D01*
X190772297Y-45331931D01*
X190482712Y-45451585D01*
X190195370Y-45332270D01*
X189806337Y-45331931D01*
X189446788Y-45480493D01*
X189171460Y-45755341D01*
X189022270Y-46114630D01*
X189021931Y-46503663D01*
X189096858Y-46685002D01*
X189022270Y-46864630D01*
X189021931Y-47253663D01*
X189170493Y-47613212D01*
X189445341Y-47888540D01*
X189588956Y-47948174D01*
X189292727Y-48070573D01*
X189017399Y-48345421D01*
X188868209Y-48704710D01*
X188867870Y-49093743D01*
X184021868Y-49093743D01*
X184386782Y-48214933D01*
X184387697Y-47166666D01*
X183987387Y-46197842D01*
X183246797Y-45455958D01*
X182278673Y-45053958D01*
X181230406Y-45053043D01*
X180261582Y-45453353D01*
X179519698Y-46193943D01*
X179117698Y-47162067D01*
X179116783Y-48210334D01*
X178384249Y-48210334D01*
X178391879Y-48191488D01*
X178383473Y-47143253D01*
X177998503Y-46213853D01*
X177627782Y-45993084D01*
X175932365Y-47688500D01*
X175573155Y-47688500D01*
X173877738Y-45993084D01*
X173507017Y-46213853D01*
X173113641Y-47185512D01*
X168351200Y-47185512D01*
X168351200Y-45813478D01*
X174057344Y-45813478D01*
X175752760Y-47508895D01*
X177448176Y-45813478D01*
X177227407Y-45442757D01*
X176255748Y-45049381D01*
X175207513Y-45057787D01*
X174278113Y-45442757D01*
X174057344Y-45813478D01*
X168351200Y-45813478D01*
X168351200Y-44616055D01*
X168354711Y-44605856D01*
X168469997Y-43758303D01*
X168829594Y-43141593D01*
X169397822Y-42709439D01*
X170146601Y-42512245D01*
X170153865Y-42512023D01*
X170200000Y-42521200D01*
X170200000Y-42521200D01*
G37*
X170200000Y-42521200D02*
X245814951Y-42521200D01*
X246525942Y-42662624D01*
X247069309Y-43025691D01*
X247432375Y-43569056D01*
X247570300Y-44262452D01*
X247562772Y-44413380D01*
X247573800Y-44488109D01*
X247573800Y-95694677D01*
X247461038Y-96487466D01*
X247099858Y-97098304D01*
X246532412Y-97524430D01*
X245795125Y-97713800D01*
X241935000Y-97713800D01*
X241935000Y-78740000D01*
X241891573Y-78509205D01*
X241755173Y-78297233D01*
X241547051Y-78155029D01*
X241300000Y-78105000D01*
X208915000Y-78105000D01*
X208915000Y-75968661D01*
X243204758Y-75968661D01*
X243416990Y-76482303D01*
X243809630Y-76875629D01*
X244017512Y-76961949D01*
X243811697Y-77046990D01*
X243418371Y-77439630D01*
X243205243Y-77952900D01*
X243204758Y-78508661D01*
X243416990Y-79022303D01*
X243809630Y-79415629D01*
X244017512Y-79501949D01*
X243811697Y-79586990D01*
X243418371Y-79979630D01*
X243205243Y-80492900D01*
X243204758Y-81048661D01*
X243416990Y-81562303D01*
X243809630Y-81955629D01*
X244017512Y-82041949D01*
X243811697Y-82126990D01*
X243418371Y-82519630D01*
X243205243Y-83032900D01*
X243204758Y-83588661D01*
X243416990Y-84102303D01*
X243809630Y-84495629D01*
X244017512Y-84581949D01*
X243811697Y-84666990D01*
X243418371Y-85059630D01*
X243205243Y-85572900D01*
X243204758Y-86128661D01*
X243416990Y-86642303D01*
X243809630Y-87035629D01*
X244017512Y-87121949D01*
X243811697Y-87206990D01*
X243418371Y-87599630D01*
X243205243Y-88112900D01*
X243204758Y-88668661D01*
X243416990Y-89182303D01*
X243809630Y-89575629D01*
X244017512Y-89661949D01*
X243811697Y-89746990D01*
X243418371Y-90139630D01*
X243205243Y-90652900D01*
X243204758Y-91208661D01*
X243416990Y-91722303D01*
X243809630Y-92115629D01*
X244322900Y-92328757D01*
X244878661Y-92329242D01*
X245392303Y-92117010D01*
X245785629Y-91724370D01*
X245998757Y-91211100D01*
X245999242Y-90655339D01*
X245787010Y-90141697D01*
X245394370Y-89748371D01*
X245186488Y-89662051D01*
X245392303Y-89577010D01*
X245785629Y-89184370D01*
X245998757Y-88671100D01*
X245999242Y-88115339D01*
X245787010Y-87601697D01*
X245394370Y-87208371D01*
X245186488Y-87122051D01*
X245392303Y-87037010D01*
X245785629Y-86644370D01*
X245998757Y-86131100D01*
X245999242Y-85575339D01*
X245787010Y-85061697D01*
X245394370Y-84668371D01*
X245186488Y-84582051D01*
X245392303Y-84497010D01*
X245785629Y-84104370D01*
X245998757Y-83591100D01*
X245999242Y-83035339D01*
X245787010Y-82521697D01*
X245394370Y-82128371D01*
X245186488Y-82042051D01*
X245392303Y-81957010D01*
X245785629Y-81564370D01*
X245998757Y-81051100D01*
X245999242Y-80495339D01*
X245787010Y-79981697D01*
X245394370Y-79588371D01*
X245186488Y-79502051D01*
X245392303Y-79417010D01*
X245785629Y-79024370D01*
X245998757Y-78511100D01*
X245999242Y-77955339D01*
X245787010Y-77441697D01*
X245394370Y-77048371D01*
X245186488Y-76962051D01*
X245392303Y-76877010D01*
X245785629Y-76484370D01*
X245998757Y-75971100D01*
X245999242Y-75415339D01*
X245787010Y-74901697D01*
X245394370Y-74508371D01*
X245202273Y-74428605D01*
X245333143Y-74374397D01*
X245402608Y-74132213D01*
X244602000Y-73331605D01*
X243801392Y-74132213D01*
X243870857Y-74374397D01*
X244011318Y-74424509D01*
X243811697Y-74506990D01*
X243418371Y-74899630D01*
X243205243Y-75412900D01*
X243204758Y-75968661D01*
X208915000Y-75968661D01*
X208915000Y-74549074D01*
X209020839Y-74655098D01*
X209380128Y-74804288D01*
X209769161Y-74804627D01*
X210128710Y-74656065D01*
X210404038Y-74381217D01*
X210553228Y-74021928D01*
X210553567Y-73632895D01*
X210405005Y-73273346D01*
X210130157Y-72998018D01*
X209770868Y-72848828D01*
X209381835Y-72848489D01*
X209022286Y-72997051D01*
X208915000Y-73104150D01*
X208915000Y-72130621D01*
X211697229Y-72130621D01*
X211845791Y-72490170D01*
X212120639Y-72765498D01*
X212479928Y-72914688D01*
X212868961Y-72915027D01*
X213175609Y-72788323D01*
X213479928Y-72914688D01*
X213868961Y-72915027D01*
X214228510Y-72766465D01*
X214503838Y-72491617D01*
X214653028Y-72132328D01*
X214653367Y-71743295D01*
X214504805Y-71383746D01*
X214229957Y-71108418D01*
X213870668Y-70959228D01*
X213481635Y-70958889D01*
X213174987Y-71085593D01*
X212870668Y-70959228D01*
X212481635Y-70958889D01*
X212122086Y-71107451D01*
X211846758Y-71382299D01*
X211697568Y-71741588D01*
X211697229Y-72130621D01*
X208915000Y-72130621D01*
X208915000Y-71796136D01*
X209097838Y-71613617D01*
X209154127Y-71478059D01*
X210996197Y-71478059D01*
X211287802Y-71420055D01*
X211535012Y-71254874D01*
X212874942Y-69914945D01*
X212968961Y-69915027D01*
X213325732Y-69767613D01*
X213679928Y-69914688D01*
X214068961Y-69915027D01*
X214428510Y-69766465D01*
X214703838Y-69491617D01*
X214853028Y-69132328D01*
X214853367Y-68743295D01*
X214704805Y-68383746D01*
X214429957Y-68108418D01*
X214070668Y-67959228D01*
X213681635Y-67958889D01*
X213324864Y-68106303D01*
X212970668Y-67959228D01*
X212581635Y-67958889D01*
X212222086Y-68107451D01*
X211946758Y-68382299D01*
X211797568Y-68741588D01*
X211797485Y-68837140D01*
X210680567Y-69954059D01*
X208915000Y-69954059D01*
X208915000Y-66426621D01*
X220499229Y-66426621D01*
X220647791Y-66786170D01*
X220922639Y-67061498D01*
X221281928Y-67210688D01*
X221670961Y-67211027D01*
X222030510Y-67062465D01*
X222305838Y-66787617D01*
X222455028Y-66428328D01*
X222455252Y-66171000D01*
X225072000Y-66171000D01*
X225072000Y-69981000D01*
X225081334Y-70028789D01*
X225109197Y-70070803D01*
X226342000Y-71303606D01*
X226342000Y-72521000D01*
X226351334Y-72568789D01*
X226379197Y-72610803D01*
X227649197Y-73880803D01*
X227689590Y-73907994D01*
X227739000Y-73918000D01*
X234089000Y-73918000D01*
X234136789Y-73908666D01*
X234178803Y-73880803D01*
X235115304Y-72944302D01*
X243192856Y-72944302D01*
X243220638Y-73499368D01*
X243379603Y-73883143D01*
X243621787Y-73952608D01*
X244422395Y-73152000D01*
X244781605Y-73152000D01*
X245582213Y-73952608D01*
X245824397Y-73883143D01*
X246011144Y-73359698D01*
X245983362Y-72804632D01*
X245824397Y-72420857D01*
X245582213Y-72351392D01*
X244781605Y-73152000D01*
X244422395Y-73152000D01*
X243621787Y-72351392D01*
X243379603Y-72420857D01*
X243192856Y-72944302D01*
X235115304Y-72944302D01*
X235448803Y-72610803D01*
X235475994Y-72570410D01*
X235486000Y-72521000D01*
X235486000Y-63631000D01*
X235476666Y-63583211D01*
X235448803Y-63541197D01*
X234178803Y-62271197D01*
X234138410Y-62244006D01*
X234089000Y-62234000D01*
X230279000Y-62234000D01*
X230231211Y-62243334D01*
X230189197Y-62271197D01*
X228919197Y-63541197D01*
X228892006Y-63581590D01*
X228882000Y-63631000D01*
X228882000Y-64774000D01*
X226469000Y-64774000D01*
X226421211Y-64783334D01*
X226379197Y-64811197D01*
X225109197Y-66081197D01*
X225082006Y-66121590D01*
X225072000Y-66171000D01*
X222455252Y-66171000D01*
X222455367Y-66039295D01*
X222306805Y-65679746D01*
X222031957Y-65404418D01*
X221672668Y-65255228D01*
X221283635Y-65254889D01*
X220924086Y-65403451D01*
X220648758Y-65678299D01*
X220499568Y-66037588D01*
X220499229Y-66426621D01*
X208915000Y-66426621D01*
X208915000Y-65684399D01*
X212324354Y-65684399D01*
X212327293Y-65691512D01*
X212602141Y-65966840D01*
X212961430Y-66116030D01*
X213350463Y-66116369D01*
X213710012Y-65967807D01*
X213985340Y-65692959D01*
X214134530Y-65333670D01*
X214134869Y-64944637D01*
X214020633Y-64668164D01*
X214134530Y-64393870D01*
X214134869Y-64004837D01*
X213986307Y-63645288D01*
X213711459Y-63369960D01*
X213352170Y-63220770D01*
X212963137Y-63220431D01*
X212603588Y-63368993D01*
X212328260Y-63643841D01*
X212324706Y-63652401D01*
X208915000Y-63652401D01*
X208915000Y-63500000D01*
X208871573Y-63269205D01*
X208735173Y-63057233D01*
X208527051Y-62915029D01*
X208280000Y-62865000D01*
X200660000Y-62865000D01*
X200429205Y-62908427D01*
X200217233Y-63044827D01*
X200075029Y-63252949D01*
X200025000Y-63500000D01*
X200025000Y-63668307D01*
X199813362Y-63710405D01*
X199714344Y-63776567D01*
X199566152Y-63875585D01*
X196731277Y-66710461D01*
X196637257Y-66710379D01*
X196277708Y-66858941D01*
X196002380Y-67133789D01*
X195853190Y-67493078D01*
X195852851Y-67882111D01*
X196001413Y-68241660D01*
X196276261Y-68516988D01*
X196635550Y-68666178D01*
X197024583Y-68666517D01*
X197301056Y-68552281D01*
X197575350Y-68666178D01*
X197964383Y-68666517D01*
X198323932Y-68517955D01*
X198599260Y-68243107D01*
X198748450Y-67883818D01*
X198748726Y-67566692D01*
X200025000Y-66290419D01*
X200025000Y-69662984D01*
X199960463Y-69818406D01*
X199960124Y-70207439D01*
X200025000Y-70364452D01*
X200025000Y-70583982D01*
X199823562Y-70500338D01*
X199434529Y-70499999D01*
X199074980Y-70648561D01*
X198799652Y-70923409D01*
X198650462Y-71282698D01*
X198650123Y-71671731D01*
X198798685Y-72031280D01*
X199073533Y-72306608D01*
X199432822Y-72455798D01*
X199821855Y-72456137D01*
X200025000Y-72372200D01*
X200025000Y-78105000D01*
X168351200Y-78105000D01*
X168351200Y-71052944D01*
X170504025Y-71052944D01*
X170703615Y-71534818D01*
X171141621Y-72007188D01*
X171727054Y-72275983D01*
X171983000Y-72157367D01*
X171983000Y-70797000D01*
X172237000Y-70797000D01*
X172237000Y-72157367D01*
X172492946Y-72275983D01*
X173078379Y-72007188D01*
X173516385Y-71534818D01*
X173715975Y-71052944D01*
X173596836Y-70797000D01*
X172237000Y-70797000D01*
X171983000Y-70797000D01*
X170623164Y-70797000D01*
X170504025Y-71052944D01*
X168351200Y-71052944D01*
X168351200Y-67114000D01*
X170446560Y-67114000D01*
X170446560Y-69146000D01*
X170490838Y-69381317D01*
X170629910Y-69597441D01*
X170792948Y-69708840D01*
X170703615Y-69805182D01*
X170504025Y-70287056D01*
X170623164Y-70543000D01*
X171983000Y-70543000D01*
X171983000Y-70523000D01*
X172237000Y-70523000D01*
X172237000Y-70543000D01*
X173596836Y-70543000D01*
X173715975Y-70287056D01*
X173516385Y-69805182D01*
X173425903Y-69707602D01*
X173462290Y-69684187D01*
X180874752Y-69684187D01*
X181092757Y-70211800D01*
X181496077Y-70615824D01*
X182023309Y-70834750D01*
X182594187Y-70835248D01*
X183121800Y-70617243D01*
X183331663Y-70407745D01*
X183981861Y-70407745D01*
X184055995Y-70653864D01*
X184593223Y-70846965D01*
X185163454Y-70819778D01*
X185564005Y-70653864D01*
X185638139Y-70407745D01*
X184810000Y-69579605D01*
X183981861Y-70407745D01*
X183331663Y-70407745D01*
X183525824Y-70213923D01*
X183553423Y-70147456D01*
X183556136Y-70154005D01*
X183802255Y-70228139D01*
X184630395Y-69400000D01*
X184989605Y-69400000D01*
X185817745Y-70228139D01*
X186063864Y-70154005D01*
X186256965Y-69616777D01*
X186229778Y-69046546D01*
X186063864Y-68645995D01*
X185817745Y-68571861D01*
X184989605Y-69400000D01*
X184630395Y-69400000D01*
X183802255Y-68571861D01*
X183556136Y-68645995D01*
X183553804Y-68652483D01*
X183527243Y-68588200D01*
X183331640Y-68392255D01*
X183981861Y-68392255D01*
X184810000Y-69220395D01*
X185638139Y-68392255D01*
X185564005Y-68146136D01*
X185026777Y-67953035D01*
X184456546Y-67980222D01*
X184055995Y-68146136D01*
X183981861Y-68392255D01*
X183331640Y-68392255D01*
X183123923Y-68184176D01*
X182596691Y-67965250D01*
X182025813Y-67964752D01*
X181498200Y-68182757D01*
X181094176Y-68586077D01*
X180875250Y-69113309D01*
X180874752Y-69684187D01*
X173462290Y-69684187D01*
X173577441Y-69610090D01*
X173722431Y-69397890D01*
X173773440Y-69146000D01*
X173773440Y-67114000D01*
X173729162Y-66878683D01*
X173590090Y-66662559D01*
X173377890Y-66517569D01*
X173126000Y-66466560D01*
X171094000Y-66466560D01*
X170858683Y-66510838D01*
X170642559Y-66649910D01*
X170497569Y-66862110D01*
X170446560Y-67114000D01*
X168351200Y-67114000D01*
X168351200Y-64788690D01*
X168523206Y-65204975D01*
X168870313Y-65552689D01*
X169324064Y-65741103D01*
X169815377Y-65741532D01*
X170269455Y-65553910D01*
X170617169Y-65206803D01*
X170805583Y-64753052D01*
X170806012Y-64261739D01*
X170618390Y-63807661D01*
X170271283Y-63459947D01*
X169817532Y-63271533D01*
X169326219Y-63271104D01*
X168872141Y-63458726D01*
X168524427Y-63805833D01*
X168351200Y-64223010D01*
X168351200Y-62361621D01*
X218300229Y-62361621D01*
X218448791Y-62721170D01*
X218723639Y-62996498D01*
X219082928Y-63145688D01*
X219471961Y-63146027D01*
X219831510Y-62997465D01*
X220106838Y-62722617D01*
X220256028Y-62363328D01*
X220256111Y-62267775D01*
X220414113Y-62109774D01*
X220579294Y-61862563D01*
X220624159Y-61637010D01*
X220637298Y-61570958D01*
X220637298Y-60550051D01*
X228427554Y-60550051D01*
X229025767Y-61242943D01*
X231117976Y-62152899D01*
X233399149Y-62192935D01*
X235522000Y-61356957D01*
X235692633Y-61242943D01*
X236136641Y-60728661D01*
X243204758Y-60728661D01*
X243416990Y-61242303D01*
X243809630Y-61635629D01*
X244017512Y-61721949D01*
X243811697Y-61806990D01*
X243418371Y-62199630D01*
X243205243Y-62712900D01*
X243204758Y-63268661D01*
X243416990Y-63782303D01*
X243809630Y-64175629D01*
X244017512Y-64261949D01*
X243811697Y-64346990D01*
X243418371Y-64739630D01*
X243205243Y-65252900D01*
X243204758Y-65808661D01*
X243416990Y-66322303D01*
X243809630Y-66715629D01*
X244017512Y-66801949D01*
X243811697Y-66886990D01*
X243418371Y-67279630D01*
X243205243Y-67792900D01*
X243204758Y-68348661D01*
X243416990Y-68862303D01*
X243809630Y-69255629D01*
X244017512Y-69341949D01*
X243811697Y-69426990D01*
X243418371Y-69819630D01*
X243205243Y-70332900D01*
X243204758Y-70888661D01*
X243416990Y-71402303D01*
X243809630Y-71795629D01*
X244001727Y-71875395D01*
X243870857Y-71929603D01*
X243801392Y-72171787D01*
X244602000Y-72972395D01*
X245402608Y-72171787D01*
X245333143Y-71929603D01*
X245192682Y-71879491D01*
X245392303Y-71797010D01*
X245785629Y-71404370D01*
X245998757Y-70891100D01*
X245999242Y-70335339D01*
X245787010Y-69821697D01*
X245394370Y-69428371D01*
X245186488Y-69342051D01*
X245392303Y-69257010D01*
X245785629Y-68864370D01*
X245998757Y-68351100D01*
X245999242Y-67795339D01*
X245787010Y-67281697D01*
X245394370Y-66888371D01*
X245186488Y-66802051D01*
X245392303Y-66717010D01*
X245785629Y-66324370D01*
X245998757Y-65811100D01*
X245999242Y-65255339D01*
X245787010Y-64741697D01*
X245394370Y-64348371D01*
X245186488Y-64262051D01*
X245392303Y-64177010D01*
X245785629Y-63784370D01*
X245998757Y-63271100D01*
X245999242Y-62715339D01*
X245787010Y-62201697D01*
X245394370Y-61808371D01*
X245186488Y-61722051D01*
X245392303Y-61637010D01*
X245785629Y-61244370D01*
X245998757Y-60731100D01*
X245999242Y-60175339D01*
X245787010Y-59661697D01*
X245394370Y-59268371D01*
X245202273Y-59188605D01*
X245333143Y-59134397D01*
X245402608Y-58892213D01*
X244602000Y-58091605D01*
X243801392Y-58892213D01*
X243870857Y-59134397D01*
X244011318Y-59184509D01*
X243811697Y-59266990D01*
X243418371Y-59659630D01*
X243205243Y-60172900D01*
X243204758Y-60728661D01*
X236136641Y-60728661D01*
X236290846Y-60550051D01*
X232359200Y-56618405D01*
X228427554Y-60550051D01*
X220637298Y-60550051D01*
X220637298Y-58558041D01*
X220703838Y-58491617D01*
X220853028Y-58132328D01*
X220853367Y-57743295D01*
X220704805Y-57383746D01*
X220429957Y-57108418D01*
X220070668Y-56959228D01*
X219681635Y-56958889D01*
X219322086Y-57107451D01*
X219046758Y-57382299D01*
X218897568Y-57741588D01*
X218897229Y-58130621D01*
X219045791Y-58490170D01*
X219113298Y-58557795D01*
X219113298Y-61189914D01*
X219084635Y-61189889D01*
X218725086Y-61338451D01*
X218449758Y-61613299D01*
X218300568Y-61972588D01*
X218300229Y-62361621D01*
X168351200Y-62361621D01*
X168351200Y-57688690D01*
X168523206Y-58104975D01*
X168870313Y-58452689D01*
X169324064Y-58641103D01*
X169815377Y-58641532D01*
X170269455Y-58453910D01*
X170617169Y-58106803D01*
X170805583Y-57653052D01*
X170806012Y-57161739D01*
X170618390Y-56707661D01*
X170271283Y-56359947D01*
X169817532Y-56171533D01*
X169326219Y-56171104D01*
X168872141Y-56358726D01*
X168524427Y-56705833D01*
X168351200Y-57123010D01*
X168351200Y-54262522D01*
X177057084Y-54262522D01*
X177277853Y-54633243D01*
X178249512Y-55026619D01*
X179297747Y-55018213D01*
X179793653Y-54812802D01*
X185859161Y-54812802D01*
X186086828Y-55363800D01*
X186508023Y-55785730D01*
X187058622Y-56014359D01*
X187654802Y-56014879D01*
X188205800Y-55787212D01*
X188627730Y-55366017D01*
X188856359Y-54815418D01*
X188856879Y-54219238D01*
X188629212Y-53668240D01*
X188208017Y-53246310D01*
X187657418Y-53017681D01*
X187061238Y-53017161D01*
X186510240Y-53244828D01*
X186088310Y-53666023D01*
X185859681Y-54216622D01*
X185859161Y-54812802D01*
X179793653Y-54812802D01*
X180227147Y-54633243D01*
X180447916Y-54262522D01*
X178752500Y-52567105D01*
X177057084Y-54262522D01*
X168351200Y-54262522D01*
X168351200Y-51884512D01*
X176113381Y-51884512D01*
X176121787Y-52932747D01*
X176506757Y-53862147D01*
X176877478Y-54082916D01*
X178572895Y-52387500D01*
X178932105Y-52387500D01*
X180627522Y-54082916D01*
X180998243Y-53862147D01*
X181391619Y-52890488D01*
X181383213Y-51842253D01*
X180998243Y-50912853D01*
X180627522Y-50692084D01*
X178932105Y-52387500D01*
X178572895Y-52387500D01*
X176877478Y-50692084D01*
X176506757Y-50912853D01*
X176113381Y-51884512D01*
X168351200Y-51884512D01*
X168351200Y-50512478D01*
X177057084Y-50512478D01*
X178752500Y-52207895D01*
X180447916Y-50512478D01*
X180227147Y-50141757D01*
X179255488Y-49748381D01*
X178207253Y-49756787D01*
X177277853Y-50141757D01*
X177057084Y-50512478D01*
X168351200Y-50512478D01*
X168351200Y-49563522D01*
X174057344Y-49563522D01*
X174278113Y-49934243D01*
X175249772Y-50327619D01*
X176298007Y-50319213D01*
X177227407Y-49934243D01*
X177448176Y-49563522D01*
X175752760Y-47868105D01*
X174057344Y-49563522D01*
X168351200Y-49563522D01*
X168351200Y-47185512D01*
X173113641Y-47185512D01*
X173122047Y-48233747D01*
X173507017Y-49163147D01*
X173877738Y-49383916D01*
X175573155Y-47688500D01*
X175932365Y-47688500D01*
X177627782Y-49383916D01*
X177998503Y-49163147D01*
X178384249Y-48210334D01*
X179116783Y-48210334D01*
X179517093Y-49179158D01*
X180257683Y-49921042D01*
X181225807Y-50323042D01*
X182274074Y-50323957D01*
X183242898Y-49923647D01*
X183984782Y-49183057D01*
X184021868Y-49093743D01*
X188867870Y-49093743D01*
X189016432Y-49453292D01*
X189291280Y-49728620D01*
X189650569Y-49877810D01*
X189746122Y-49877893D01*
X190972440Y-51104212D01*
X190972440Y-58427697D01*
X190905900Y-58494121D01*
X190756710Y-58853410D01*
X190756371Y-59242443D01*
X190904933Y-59601992D01*
X191179781Y-59877320D01*
X191539070Y-60026510D01*
X191928103Y-60026849D01*
X192287652Y-59878287D01*
X192562980Y-59603439D01*
X192659052Y-59372072D01*
X192754053Y-59601992D01*
X193028901Y-59877320D01*
X193388190Y-60026510D01*
X193777223Y-60026849D01*
X194136772Y-59878287D01*
X194412100Y-59603439D01*
X194561290Y-59244150D01*
X194561629Y-58855117D01*
X194413067Y-58495568D01*
X194138219Y-58220240D01*
X193814551Y-58085841D01*
X198297800Y-58085841D01*
X198297800Y-58144559D01*
X198411874Y-58718048D01*
X198736730Y-59204229D01*
X199222911Y-59529085D01*
X199796400Y-59643159D01*
X200369889Y-59529085D01*
X200856070Y-59204229D01*
X201066400Y-58889448D01*
X201276730Y-59204229D01*
X201762911Y-59529085D01*
X202336400Y-59643159D01*
X202909889Y-59529085D01*
X203396070Y-59204229D01*
X203606400Y-58889448D01*
X203816730Y-59204229D01*
X204302911Y-59529085D01*
X204876400Y-59643159D01*
X205449889Y-59529085D01*
X205936070Y-59204229D01*
X206260926Y-58718048D01*
X206375000Y-58144559D01*
X206375000Y-58085841D01*
X206260926Y-57512352D01*
X205949826Y-57046758D01*
X205975317Y-57041962D01*
X206191441Y-56902890D01*
X206336431Y-56690690D01*
X206387440Y-56438800D01*
X206387440Y-54711600D01*
X206343162Y-54476283D01*
X206204090Y-54260159D01*
X205991890Y-54115169D01*
X205740000Y-54064160D01*
X204012800Y-54064160D01*
X203777483Y-54108438D01*
X203561359Y-54247510D01*
X203416369Y-54459710D01*
X203407536Y-54503331D01*
X203396070Y-54486171D01*
X202909889Y-54161315D01*
X202336400Y-54047241D01*
X201762911Y-54161315D01*
X201276730Y-54486171D01*
X201060736Y-54809428D01*
X201003221Y-54686710D01*
X200571347Y-54292512D01*
X200155426Y-54120242D01*
X199923400Y-54241383D01*
X199923400Y-55448200D01*
X199943400Y-55448200D01*
X199943400Y-55702200D01*
X199923400Y-55702200D01*
X199923400Y-55722200D01*
X199669400Y-55722200D01*
X199669400Y-55702200D01*
X198461931Y-55702200D01*
X198341432Y-55934227D01*
X198589579Y-56463690D01*
X199007561Y-56845208D01*
X198736730Y-57026171D01*
X198411874Y-57512352D01*
X198297800Y-58085841D01*
X193814551Y-58085841D01*
X193778930Y-58071050D01*
X193389897Y-58070711D01*
X193030348Y-58219273D01*
X192755020Y-58494121D01*
X192658948Y-58725488D01*
X192563947Y-58495568D01*
X192496440Y-58427943D01*
X192496440Y-55216173D01*
X198341432Y-55216173D01*
X198461931Y-55448200D01*
X199669400Y-55448200D01*
X199669400Y-54241383D01*
X199437374Y-54120242D01*
X199021453Y-54292512D01*
X198589579Y-54686710D01*
X198341432Y-55216173D01*
X192496440Y-55216173D01*
X192496440Y-53888800D01*
X222811760Y-53888800D01*
X222811760Y-58988800D01*
X222856038Y-59224117D01*
X222995110Y-59440241D01*
X223207310Y-59585231D01*
X223459200Y-59636240D01*
X225959200Y-59636240D01*
X226194517Y-59591962D01*
X226410641Y-59452890D01*
X226555631Y-59240690D01*
X226606640Y-58988800D01*
X226606640Y-57482748D01*
X227441043Y-59601600D01*
X227555057Y-59772233D01*
X228247949Y-60370446D01*
X232179595Y-56438800D01*
X232538805Y-56438800D01*
X236470451Y-60370446D01*
X237163343Y-59772233D01*
X238073299Y-57680024D01*
X238111760Y-55488591D01*
X238111760Y-58988800D01*
X238156038Y-59224117D01*
X238295110Y-59440241D01*
X238507310Y-59585231D01*
X238759200Y-59636240D01*
X241259200Y-59636240D01*
X241494517Y-59591962D01*
X241710641Y-59452890D01*
X241855631Y-59240690D01*
X241906640Y-58988800D01*
X241906640Y-57704302D01*
X243192856Y-57704302D01*
X243220638Y-58259368D01*
X243379603Y-58643143D01*
X243621787Y-58712608D01*
X244422395Y-57912000D01*
X244781605Y-57912000D01*
X245582213Y-58712608D01*
X245824397Y-58643143D01*
X246011144Y-58119698D01*
X245983362Y-57564632D01*
X245824397Y-57180857D01*
X245582213Y-57111392D01*
X244781605Y-57912000D01*
X244422395Y-57912000D01*
X243621787Y-57111392D01*
X243379603Y-57180857D01*
X243192856Y-57704302D01*
X241906640Y-57704302D01*
X241906640Y-53888800D01*
X241862362Y-53653483D01*
X241723290Y-53437359D01*
X241511090Y-53292369D01*
X241259200Y-53241360D01*
X238759200Y-53241360D01*
X238523883Y-53285638D01*
X238307759Y-53424710D01*
X238162769Y-53636910D01*
X238111760Y-53888800D01*
X238111760Y-55394852D01*
X237277357Y-53276000D01*
X237165544Y-53108661D01*
X243204758Y-53108661D01*
X243416990Y-53622303D01*
X243809630Y-54015629D01*
X244017512Y-54101949D01*
X243811697Y-54186990D01*
X243418371Y-54579630D01*
X243205243Y-55092900D01*
X243204758Y-55648661D01*
X243416990Y-56162303D01*
X243809630Y-56555629D01*
X244001727Y-56635395D01*
X243870857Y-56689603D01*
X243801392Y-56931787D01*
X244602000Y-57732395D01*
X245402608Y-56931787D01*
X245333143Y-56689603D01*
X245192682Y-56639491D01*
X245392303Y-56557010D01*
X245785629Y-56164370D01*
X245998757Y-55651100D01*
X245999242Y-55095339D01*
X245787010Y-54581697D01*
X245394370Y-54188371D01*
X245186488Y-54102051D01*
X245392303Y-54017010D01*
X245785629Y-53624370D01*
X245998757Y-53111100D01*
X245999242Y-52555339D01*
X245787010Y-52041697D01*
X245394370Y-51648371D01*
X244881100Y-51435243D01*
X244325339Y-51434758D01*
X243811697Y-51646990D01*
X243418371Y-52039630D01*
X243205243Y-52552900D01*
X243204758Y-53108661D01*
X237165544Y-53108661D01*
X237163343Y-53105367D01*
X236470451Y-52507154D01*
X232538805Y-56438800D01*
X232179595Y-56438800D01*
X228247949Y-52507154D01*
X227555057Y-53105367D01*
X226645101Y-55197576D01*
X226606640Y-57389009D01*
X226606640Y-53888800D01*
X226562362Y-53653483D01*
X226423290Y-53437359D01*
X226211090Y-53292369D01*
X225959200Y-53241360D01*
X223459200Y-53241360D01*
X223223883Y-53285638D01*
X223007759Y-53424710D01*
X222862769Y-53636910D01*
X222811760Y-53888800D01*
X192496440Y-53888800D01*
X192496440Y-52327549D01*
X228427554Y-52327549D01*
X232359200Y-56259195D01*
X236290846Y-52327549D01*
X235692633Y-51634657D01*
X233600424Y-50724701D01*
X231319251Y-50684665D01*
X229196400Y-51520643D01*
X229025767Y-51634657D01*
X228427554Y-52327549D01*
X192496440Y-52327549D01*
X192496440Y-50788581D01*
X192438436Y-50496976D01*
X192325275Y-50327619D01*
X192273256Y-50249766D01*
X190823926Y-48800437D01*
X190824008Y-48706417D01*
X190675446Y-48346868D01*
X190400598Y-48071540D01*
X190256983Y-48011906D01*
X190475038Y-47921808D01*
X190754210Y-48037730D01*
X191143243Y-48038069D01*
X191502792Y-47889507D01*
X191778120Y-47614659D01*
X191927310Y-47255370D01*
X191927649Y-46866337D01*
X191860891Y-46704771D01*
X191943690Y-46505370D01*
X191943730Y-46459052D01*
X192205481Y-46721260D01*
X192564770Y-46870450D01*
X192953803Y-46870789D01*
X193313352Y-46722227D01*
X193588680Y-46447379D01*
X193737870Y-46088090D01*
X193738209Y-45699057D01*
X193653337Y-45493649D01*
X193737870Y-45290070D01*
X193738209Y-44901037D01*
X193619928Y-44614773D01*
X193705310Y-44409150D01*
X193705649Y-44020117D01*
X193557087Y-43660568D01*
X193282239Y-43385240D01*
X192922950Y-43236050D01*
X192533917Y-43235711D01*
X192174368Y-43384273D01*
X191899040Y-43659121D01*
X191749850Y-44018410D01*
X191749511Y-44407443D01*
X191867792Y-44693707D01*
X191782410Y-44899330D01*
X191782071Y-45288363D01*
X191866943Y-45493771D01*
X191782410Y-45697350D01*
X191782370Y-45743668D01*
X191520619Y-45481460D01*
X191161330Y-45332270D01*
X190772297Y-45331931D01*
X190482712Y-45451585D01*
X190195370Y-45332270D01*
X189806337Y-45331931D01*
X189446788Y-45480493D01*
X189171460Y-45755341D01*
X189022270Y-46114630D01*
X189021931Y-46503663D01*
X189096858Y-46685002D01*
X189022270Y-46864630D01*
X189021931Y-47253663D01*
X189170493Y-47613212D01*
X189445341Y-47888540D01*
X189588956Y-47948174D01*
X189292727Y-48070573D01*
X189017399Y-48345421D01*
X188868209Y-48704710D01*
X188867870Y-49093743D01*
X184021868Y-49093743D01*
X184386782Y-48214933D01*
X184387697Y-47166666D01*
X183987387Y-46197842D01*
X183246797Y-45455958D01*
X182278673Y-45053958D01*
X181230406Y-45053043D01*
X180261582Y-45453353D01*
X179519698Y-46193943D01*
X179117698Y-47162067D01*
X179116783Y-48210334D01*
X178384249Y-48210334D01*
X178391879Y-48191488D01*
X178383473Y-47143253D01*
X177998503Y-46213853D01*
X177627782Y-45993084D01*
X175932365Y-47688500D01*
X175573155Y-47688500D01*
X173877738Y-45993084D01*
X173507017Y-46213853D01*
X173113641Y-47185512D01*
X168351200Y-47185512D01*
X168351200Y-45813478D01*
X174057344Y-45813478D01*
X175752760Y-47508895D01*
X177448176Y-45813478D01*
X177227407Y-45442757D01*
X176255748Y-45049381D01*
X175207513Y-45057787D01*
X174278113Y-45442757D01*
X174057344Y-45813478D01*
X168351200Y-45813478D01*
X168351200Y-44616055D01*
X168354711Y-44605856D01*
X168469997Y-43758303D01*
X168829594Y-43141593D01*
X169397822Y-42709439D01*
X170146601Y-42512245D01*
X170153865Y-42512023D01*
X170200000Y-42521200D01*
G36*
X203263768Y-65941588D02*
X203263429Y-66330621D01*
X203411991Y-66690170D01*
X203686839Y-66965498D01*
X204046128Y-67114688D01*
X204435161Y-67115027D01*
X204794710Y-66966465D01*
X205070038Y-66691617D01*
X205219228Y-66332328D01*
X205219567Y-65943295D01*
X205112594Y-65684399D01*
X208153000Y-65684399D01*
X208153000Y-70080957D01*
X208075635Y-70080889D01*
X207716086Y-70229451D01*
X207440758Y-70504299D01*
X207291568Y-70863588D01*
X207291229Y-71252621D01*
X207439791Y-71612170D01*
X207714639Y-71887498D01*
X208073928Y-72036688D01*
X208153000Y-72036757D01*
X208153000Y-78740000D01*
X208163006Y-78789410D01*
X208191447Y-78831035D01*
X208233841Y-78858315D01*
X208280000Y-78867000D01*
X241173000Y-78867000D01*
X241173000Y-97713800D01*
X170374178Y-97713800D01*
X169581389Y-97601038D01*
X168970551Y-97239858D01*
X168544425Y-96672412D01*
X168352586Y-95925510D01*
X168351200Y-95875193D01*
X168351200Y-93005263D01*
X194170131Y-93005263D01*
X194318693Y-93364812D01*
X194593541Y-93640140D01*
X194952830Y-93789330D01*
X195341863Y-93789669D01*
X195701412Y-93641107D01*
X195746079Y-93596518D01*
X197767456Y-93672200D01*
X197857441Y-93762342D01*
X198216730Y-93911532D01*
X198605763Y-93911871D01*
X198965312Y-93763309D01*
X199240640Y-93488461D01*
X199389830Y-93129172D01*
X199390169Y-92740139D01*
X199241607Y-92380590D01*
X198966759Y-92105262D01*
X198607470Y-91956072D01*
X198218437Y-91955733D01*
X197858888Y-92104295D01*
X197814221Y-92148884D01*
X195792844Y-92073202D01*
X195702859Y-91983060D01*
X195564873Y-91925763D01*
X235838831Y-91925763D01*
X235987393Y-92285312D01*
X236262241Y-92560640D01*
X236621530Y-92709830D01*
X237010563Y-92710169D01*
X237370112Y-92561607D01*
X237645440Y-92286759D01*
X237794630Y-91927470D01*
X237794969Y-91538437D01*
X237646407Y-91178888D01*
X237371559Y-90903560D01*
X237012270Y-90754370D01*
X236623237Y-90754031D01*
X236263688Y-90902593D01*
X235988360Y-91177441D01*
X235839170Y-91536730D01*
X235838831Y-91925763D01*
X195564873Y-91925763D01*
X195343570Y-91833870D01*
X194954537Y-91833531D01*
X194594988Y-91982093D01*
X194319660Y-92256941D01*
X194170470Y-92616230D01*
X194170131Y-93005263D01*
X168351200Y-93005263D01*
X168351200Y-81806427D01*
X172654672Y-81806427D01*
X172847902Y-82358834D01*
X173237820Y-82795246D01*
X173765065Y-83049223D01*
X173780830Y-83051872D01*
X174012856Y-82930731D01*
X174012856Y-81571514D01*
X172798932Y-81571514D01*
X172654672Y-81806427D01*
X168351200Y-81806427D01*
X168351200Y-81082601D01*
X172654672Y-81082601D01*
X172798932Y-81317514D01*
X174012856Y-81317514D01*
X174012856Y-79958297D01*
X174266856Y-79958297D01*
X174266856Y-81317514D01*
X174286856Y-81317514D01*
X174286856Y-81571514D01*
X174266856Y-81571514D01*
X174266856Y-82930731D01*
X174498882Y-83051872D01*
X174514647Y-83049223D01*
X175041892Y-82795246D01*
X175413395Y-82379445D01*
X175620186Y-82688929D01*
X176106367Y-83013785D01*
X176679856Y-83127859D01*
X177253345Y-83013785D01*
X177739526Y-82688929D01*
X177949856Y-82374148D01*
X178160186Y-82688929D01*
X178646367Y-83013785D01*
X179219856Y-83127859D01*
X179793345Y-83013785D01*
X180279526Y-82688929D01*
X180489856Y-82374148D01*
X180700186Y-82688929D01*
X180929422Y-82842100D01*
X180517800Y-82842100D01*
X180226195Y-82900104D01*
X180067533Y-83006119D01*
X179978985Y-83065285D01*
X179559885Y-83484385D01*
X179394704Y-83731595D01*
X179336700Y-84023200D01*
X179336700Y-88621883D01*
X179071957Y-88886627D01*
X178977937Y-88886545D01*
X178618388Y-89035107D01*
X178343060Y-89309955D01*
X178193870Y-89669244D01*
X178193531Y-90058277D01*
X178342093Y-90417826D01*
X178616941Y-90693154D01*
X178976230Y-90842344D01*
X179365263Y-90842683D01*
X179724812Y-90694121D01*
X180000140Y-90419273D01*
X180007410Y-90401763D01*
X190817331Y-90401763D01*
X190965893Y-90761312D01*
X191240741Y-91036640D01*
X191600030Y-91185830D01*
X191989063Y-91186169D01*
X192348612Y-91037607D01*
X192623940Y-90762759D01*
X192773130Y-90403470D01*
X192773213Y-90307917D01*
X193038131Y-90043000D01*
X195035117Y-90043000D01*
X195101541Y-90109540D01*
X195460830Y-90258730D01*
X195849863Y-90259069D01*
X196209412Y-90110507D01*
X196484740Y-89835659D01*
X196633930Y-89476370D01*
X196634269Y-89087337D01*
X196485707Y-88727788D01*
X196210859Y-88452460D01*
X195851570Y-88303270D01*
X195462537Y-88302931D01*
X195102988Y-88451493D01*
X195035363Y-88519000D01*
X192722500Y-88519000D01*
X192430895Y-88577004D01*
X192183684Y-88742185D01*
X191695757Y-89230113D01*
X191601737Y-89230031D01*
X191242188Y-89378593D01*
X190966860Y-89653441D01*
X190817670Y-90012730D01*
X190817331Y-90401763D01*
X180007410Y-90401763D01*
X180149330Y-90059984D01*
X180149413Y-89964431D01*
X180637515Y-89476330D01*
X180802696Y-89229119D01*
X180822789Y-89128104D01*
X180860700Y-88937514D01*
X180860700Y-87150563D01*
X200951931Y-87150563D01*
X201100493Y-87510112D01*
X201375341Y-87785440D01*
X201734630Y-87934630D01*
X202123663Y-87934969D01*
X202483212Y-87786407D01*
X202584656Y-87685140D01*
X202706538Y-87660896D01*
X202904832Y-87528400D01*
X215876470Y-87528400D01*
X216935985Y-88587916D01*
X217022780Y-88645910D01*
X217183195Y-88753096D01*
X217474800Y-88811100D01*
X219203869Y-88811100D01*
X218581559Y-89433411D01*
X214513841Y-89433411D01*
X213911515Y-88831085D01*
X213881605Y-88811100D01*
X213664305Y-88665904D01*
X213613981Y-88655894D01*
X213614169Y-88439637D01*
X213465607Y-88080088D01*
X213190759Y-87804760D01*
X212831470Y-87655570D01*
X212442437Y-87655231D01*
X212082888Y-87803793D01*
X211807560Y-88078641D01*
X211658370Y-88437930D01*
X211658222Y-88607900D01*
X208290831Y-88607900D01*
X207955225Y-88272295D01*
X207897191Y-88233518D01*
X207708015Y-88107114D01*
X207416410Y-88049110D01*
X207135783Y-88049110D01*
X207069359Y-87982570D01*
X206710070Y-87833380D01*
X206321037Y-87833041D01*
X205961488Y-87981603D01*
X205686160Y-88256451D01*
X205536970Y-88615740D01*
X205536631Y-89004773D01*
X205685193Y-89364322D01*
X205960041Y-89639650D01*
X206319330Y-89788840D01*
X206708363Y-89789179D01*
X207067912Y-89640617D01*
X207118143Y-89590474D01*
X207436384Y-89908715D01*
X207662774Y-90059984D01*
X207683595Y-90073896D01*
X207975200Y-90131900D01*
X213057070Y-90131900D01*
X213659396Y-90734226D01*
X213906606Y-90899407D01*
X214198211Y-90957411D01*
X218897189Y-90957411D01*
X219188794Y-90899407D01*
X219436004Y-90734226D01*
X220355744Y-89814487D01*
X220449763Y-89814569D01*
X220809312Y-89666007D01*
X221084640Y-89391159D01*
X221233830Y-89031870D01*
X221234022Y-88811100D01*
X221310222Y-88811100D01*
X221310031Y-89030163D01*
X221458593Y-89389712D01*
X221733441Y-89665040D01*
X222092730Y-89814230D01*
X222481763Y-89814569D01*
X222841312Y-89666007D01*
X222908937Y-89598500D01*
X234380369Y-89598500D01*
X234500083Y-89718214D01*
X234675852Y-89835659D01*
X234747294Y-89883395D01*
X235038899Y-89941399D01*
X236677201Y-89941399D01*
X236968806Y-89883395D01*
X237071996Y-89814445D01*
X237213763Y-89814569D01*
X237573312Y-89666007D01*
X237848640Y-89391159D01*
X237997830Y-89031870D01*
X237998169Y-88642837D01*
X237849607Y-88283288D01*
X237748340Y-88181844D01*
X237724096Y-88059962D01*
X237598036Y-87871300D01*
X237558916Y-87812752D01*
X235503848Y-85757685D01*
X235256637Y-85592504D01*
X234965033Y-85534501D01*
X234673429Y-85592504D01*
X234426218Y-85757685D01*
X234261037Y-86004896D01*
X234203034Y-86296500D01*
X234261037Y-86588104D01*
X234426218Y-86835315D01*
X236008301Y-88417399D01*
X235583839Y-88417399D01*
X235503848Y-88297685D01*
X235256638Y-88132504D01*
X234965033Y-88074500D01*
X224040678Y-88074500D01*
X224040869Y-87855437D01*
X223892307Y-87495888D01*
X223617459Y-87220560D01*
X223258170Y-87071370D01*
X222869137Y-87071031D01*
X222509588Y-87219593D01*
X222441963Y-87287100D01*
X217790431Y-87287100D01*
X216730915Y-86227585D01*
X216730914Y-86227584D01*
X216483705Y-86062404D01*
X216192100Y-86004400D01*
X202605433Y-86004400D01*
X202321936Y-86060791D01*
X202125370Y-85979170D01*
X201736337Y-85978831D01*
X201376788Y-86127393D01*
X201101460Y-86402241D01*
X200952270Y-86761530D01*
X200951931Y-87150563D01*
X180860700Y-87150563D01*
X180860700Y-85597447D01*
X181016273Y-85597583D01*
X181375822Y-85449021D01*
X181645392Y-85179921D01*
X182940803Y-85179921D01*
X183007227Y-85246461D01*
X183366516Y-85395651D01*
X183755549Y-85395990D01*
X184115098Y-85247428D01*
X184390426Y-84972580D01*
X184539616Y-84613291D01*
X184539955Y-84224258D01*
X184391393Y-83864709D01*
X184309414Y-83782587D01*
X184838672Y-83253329D01*
X185003853Y-83006118D01*
X185022098Y-82914391D01*
X185359526Y-82688929D01*
X185369099Y-82674601D01*
X185373094Y-82695831D01*
X185512166Y-82911955D01*
X185724366Y-83056945D01*
X185976256Y-83107954D01*
X187703456Y-83107954D01*
X187938773Y-83063676D01*
X188154897Y-82924604D01*
X188299887Y-82712404D01*
X188350896Y-82460514D01*
X188350896Y-82338046D01*
X233583717Y-82338046D01*
X233852512Y-82923479D01*
X234324882Y-83361485D01*
X234806756Y-83561075D01*
X235062700Y-83441936D01*
X235062700Y-82082100D01*
X233702333Y-82082100D01*
X233583717Y-82338046D01*
X188350896Y-82338046D01*
X188350896Y-81572154D01*
X233583717Y-81572154D01*
X233702333Y-81828100D01*
X235062700Y-81828100D01*
X235062700Y-80468264D01*
X235316700Y-80468264D01*
X235316700Y-81828100D01*
X235336700Y-81828100D01*
X235336700Y-82082100D01*
X235316700Y-82082100D01*
X235316700Y-83441936D01*
X235572644Y-83561075D01*
X236054518Y-83361485D01*
X236152098Y-83271003D01*
X236249610Y-83422541D01*
X236461810Y-83567531D01*
X236713700Y-83618540D01*
X238745700Y-83618540D01*
X238981017Y-83574262D01*
X239197141Y-83435190D01*
X239342131Y-83222990D01*
X239393140Y-82971100D01*
X239393140Y-80939100D01*
X239348862Y-80703783D01*
X239209790Y-80487659D01*
X238997590Y-80342669D01*
X238745700Y-80291660D01*
X236713700Y-80291660D01*
X236478383Y-80335938D01*
X236262259Y-80475010D01*
X236150860Y-80638048D01*
X236054518Y-80548715D01*
X235572644Y-80349125D01*
X235316700Y-80468264D01*
X235062700Y-80468264D01*
X234806756Y-80349125D01*
X234324882Y-80548715D01*
X233852512Y-80986721D01*
X233583717Y-81572154D01*
X188350896Y-81572154D01*
X188350896Y-80428514D01*
X188306618Y-80193197D01*
X188167546Y-79977073D01*
X187955346Y-79832083D01*
X187703456Y-79781074D01*
X185976256Y-79781074D01*
X185740939Y-79825352D01*
X185524815Y-79964424D01*
X185379825Y-80176624D01*
X185371456Y-80217953D01*
X185359526Y-80200099D01*
X184873345Y-79875243D01*
X184299856Y-79761169D01*
X183726367Y-79875243D01*
X183240186Y-80200099D01*
X183029856Y-80514880D01*
X182819526Y-80200099D01*
X182333345Y-79875243D01*
X181759856Y-79761169D01*
X181186367Y-79875243D01*
X180700186Y-80200099D01*
X180489856Y-80514880D01*
X180279526Y-80200099D01*
X179793345Y-79875243D01*
X179219856Y-79761169D01*
X178646367Y-79875243D01*
X178160186Y-80200099D01*
X177949856Y-80514880D01*
X177739526Y-80200099D01*
X177253345Y-79875243D01*
X176679856Y-79761169D01*
X176106367Y-79875243D01*
X175620186Y-80200099D01*
X175413395Y-80509583D01*
X175041892Y-80093782D01*
X174514647Y-79839805D01*
X174498882Y-79837156D01*
X174266856Y-79958297D01*
X174012856Y-79958297D01*
X173780830Y-79837156D01*
X173765065Y-79839805D01*
X173237820Y-80093782D01*
X172847902Y-80530194D01*
X172654672Y-81082601D01*
X168351200Y-81082601D01*
X168351200Y-78867000D01*
X200660000Y-78867000D01*
X200709410Y-78856994D01*
X200751035Y-78828553D01*
X200778315Y-78786159D01*
X200787000Y-78740000D01*
X200787000Y-71448877D01*
X201753333Y-71448877D01*
X202044938Y-71390873D01*
X202292148Y-71225692D01*
X202797379Y-70720461D01*
X202891399Y-70720543D01*
X203250948Y-70571981D01*
X203526276Y-70297133D01*
X203675466Y-69937844D01*
X203675612Y-69769511D01*
X204635210Y-69769511D01*
X204783772Y-70129060D01*
X205058620Y-70404388D01*
X205417909Y-70553578D01*
X205806942Y-70553917D01*
X206166491Y-70405355D01*
X206441819Y-70130507D01*
X206591009Y-69771218D01*
X206591348Y-69382185D01*
X206442786Y-69022636D01*
X206167938Y-68747308D01*
X205808649Y-68598118D01*
X205419616Y-68597779D01*
X205060067Y-68746341D01*
X204784739Y-69021189D01*
X204635549Y-69380478D01*
X204635210Y-69769511D01*
X203675612Y-69769511D01*
X203675805Y-69548811D01*
X203527243Y-69189262D01*
X203252395Y-68913934D01*
X202893106Y-68764744D01*
X202504073Y-68764405D01*
X202144524Y-68912967D01*
X201869196Y-69187815D01*
X201759395Y-69452245D01*
X201492852Y-69185236D01*
X201133563Y-69036046D01*
X200787000Y-69035744D01*
X200787000Y-65684399D01*
X203370562Y-65684399D01*
X203263768Y-65941588D01*
X203263768Y-65941588D01*
G37*
X203263768Y-65941588D02*
X203263429Y-66330621D01*
X203411991Y-66690170D01*
X203686839Y-66965498D01*
X204046128Y-67114688D01*
X204435161Y-67115027D01*
X204794710Y-66966465D01*
X205070038Y-66691617D01*
X205219228Y-66332328D01*
X205219567Y-65943295D01*
X205112594Y-65684399D01*
X208153000Y-65684399D01*
X208153000Y-70080957D01*
X208075635Y-70080889D01*
X207716086Y-70229451D01*
X207440758Y-70504299D01*
X207291568Y-70863588D01*
X207291229Y-71252621D01*
X207439791Y-71612170D01*
X207714639Y-71887498D01*
X208073928Y-72036688D01*
X208153000Y-72036757D01*
X208153000Y-78740000D01*
X208163006Y-78789410D01*
X208191447Y-78831035D01*
X208233841Y-78858315D01*
X208280000Y-78867000D01*
X241173000Y-78867000D01*
X241173000Y-97713800D01*
X170374178Y-97713800D01*
X169581389Y-97601038D01*
X168970551Y-97239858D01*
X168544425Y-96672412D01*
X168352586Y-95925510D01*
X168351200Y-95875193D01*
X168351200Y-93005263D01*
X194170131Y-93005263D01*
X194318693Y-93364812D01*
X194593541Y-93640140D01*
X194952830Y-93789330D01*
X195341863Y-93789669D01*
X195701412Y-93641107D01*
X195746079Y-93596518D01*
X197767456Y-93672200D01*
X197857441Y-93762342D01*
X198216730Y-93911532D01*
X198605763Y-93911871D01*
X198965312Y-93763309D01*
X199240640Y-93488461D01*
X199389830Y-93129172D01*
X199390169Y-92740139D01*
X199241607Y-92380590D01*
X198966759Y-92105262D01*
X198607470Y-91956072D01*
X198218437Y-91955733D01*
X197858888Y-92104295D01*
X197814221Y-92148884D01*
X195792844Y-92073202D01*
X195702859Y-91983060D01*
X195564873Y-91925763D01*
X235838831Y-91925763D01*
X235987393Y-92285312D01*
X236262241Y-92560640D01*
X236621530Y-92709830D01*
X237010563Y-92710169D01*
X237370112Y-92561607D01*
X237645440Y-92286759D01*
X237794630Y-91927470D01*
X237794969Y-91538437D01*
X237646407Y-91178888D01*
X237371559Y-90903560D01*
X237012270Y-90754370D01*
X236623237Y-90754031D01*
X236263688Y-90902593D01*
X235988360Y-91177441D01*
X235839170Y-91536730D01*
X235838831Y-91925763D01*
X195564873Y-91925763D01*
X195343570Y-91833870D01*
X194954537Y-91833531D01*
X194594988Y-91982093D01*
X194319660Y-92256941D01*
X194170470Y-92616230D01*
X194170131Y-93005263D01*
X168351200Y-93005263D01*
X168351200Y-81806427D01*
X172654672Y-81806427D01*
X172847902Y-82358834D01*
X173237820Y-82795246D01*
X173765065Y-83049223D01*
X173780830Y-83051872D01*
X174012856Y-82930731D01*
X174012856Y-81571514D01*
X172798932Y-81571514D01*
X172654672Y-81806427D01*
X168351200Y-81806427D01*
X168351200Y-81082601D01*
X172654672Y-81082601D01*
X172798932Y-81317514D01*
X174012856Y-81317514D01*
X174012856Y-79958297D01*
X174266856Y-79958297D01*
X174266856Y-81317514D01*
X174286856Y-81317514D01*
X174286856Y-81571514D01*
X174266856Y-81571514D01*
X174266856Y-82930731D01*
X174498882Y-83051872D01*
X174514647Y-83049223D01*
X175041892Y-82795246D01*
X175413395Y-82379445D01*
X175620186Y-82688929D01*
X176106367Y-83013785D01*
X176679856Y-83127859D01*
X177253345Y-83013785D01*
X177739526Y-82688929D01*
X177949856Y-82374148D01*
X178160186Y-82688929D01*
X178646367Y-83013785D01*
X179219856Y-83127859D01*
X179793345Y-83013785D01*
X180279526Y-82688929D01*
X180489856Y-82374148D01*
X180700186Y-82688929D01*
X180929422Y-82842100D01*
X180517800Y-82842100D01*
X180226195Y-82900104D01*
X180067533Y-83006119D01*
X179978985Y-83065285D01*
X179559885Y-83484385D01*
X179394704Y-83731595D01*
X179336700Y-84023200D01*
X179336700Y-88621883D01*
X179071957Y-88886627D01*
X178977937Y-88886545D01*
X178618388Y-89035107D01*
X178343060Y-89309955D01*
X178193870Y-89669244D01*
X178193531Y-90058277D01*
X178342093Y-90417826D01*
X178616941Y-90693154D01*
X178976230Y-90842344D01*
X179365263Y-90842683D01*
X179724812Y-90694121D01*
X180000140Y-90419273D01*
X180007410Y-90401763D01*
X190817331Y-90401763D01*
X190965893Y-90761312D01*
X191240741Y-91036640D01*
X191600030Y-91185830D01*
X191989063Y-91186169D01*
X192348612Y-91037607D01*
X192623940Y-90762759D01*
X192773130Y-90403470D01*
X192773213Y-90307917D01*
X193038131Y-90043000D01*
X195035117Y-90043000D01*
X195101541Y-90109540D01*
X195460830Y-90258730D01*
X195849863Y-90259069D01*
X196209412Y-90110507D01*
X196484740Y-89835659D01*
X196633930Y-89476370D01*
X196634269Y-89087337D01*
X196485707Y-88727788D01*
X196210859Y-88452460D01*
X195851570Y-88303270D01*
X195462537Y-88302931D01*
X195102988Y-88451493D01*
X195035363Y-88519000D01*
X192722500Y-88519000D01*
X192430895Y-88577004D01*
X192183684Y-88742185D01*
X191695757Y-89230113D01*
X191601737Y-89230031D01*
X191242188Y-89378593D01*
X190966860Y-89653441D01*
X190817670Y-90012730D01*
X190817331Y-90401763D01*
X180007410Y-90401763D01*
X180149330Y-90059984D01*
X180149413Y-89964431D01*
X180637515Y-89476330D01*
X180802696Y-89229119D01*
X180822789Y-89128104D01*
X180860700Y-88937514D01*
X180860700Y-87150563D01*
X200951931Y-87150563D01*
X201100493Y-87510112D01*
X201375341Y-87785440D01*
X201734630Y-87934630D01*
X202123663Y-87934969D01*
X202483212Y-87786407D01*
X202584656Y-87685140D01*
X202706538Y-87660896D01*
X202904832Y-87528400D01*
X215876470Y-87528400D01*
X216935985Y-88587916D01*
X217022780Y-88645910D01*
X217183195Y-88753096D01*
X217474800Y-88811100D01*
X219203869Y-88811100D01*
X218581559Y-89433411D01*
X214513841Y-89433411D01*
X213911515Y-88831085D01*
X213881605Y-88811100D01*
X213664305Y-88665904D01*
X213613981Y-88655894D01*
X213614169Y-88439637D01*
X213465607Y-88080088D01*
X213190759Y-87804760D01*
X212831470Y-87655570D01*
X212442437Y-87655231D01*
X212082888Y-87803793D01*
X211807560Y-88078641D01*
X211658370Y-88437930D01*
X211658222Y-88607900D01*
X208290831Y-88607900D01*
X207955225Y-88272295D01*
X207897191Y-88233518D01*
X207708015Y-88107114D01*
X207416410Y-88049110D01*
X207135783Y-88049110D01*
X207069359Y-87982570D01*
X206710070Y-87833380D01*
X206321037Y-87833041D01*
X205961488Y-87981603D01*
X205686160Y-88256451D01*
X205536970Y-88615740D01*
X205536631Y-89004773D01*
X205685193Y-89364322D01*
X205960041Y-89639650D01*
X206319330Y-89788840D01*
X206708363Y-89789179D01*
X207067912Y-89640617D01*
X207118143Y-89590474D01*
X207436384Y-89908715D01*
X207662774Y-90059984D01*
X207683595Y-90073896D01*
X207975200Y-90131900D01*
X213057070Y-90131900D01*
X213659396Y-90734226D01*
X213906606Y-90899407D01*
X214198211Y-90957411D01*
X218897189Y-90957411D01*
X219188794Y-90899407D01*
X219436004Y-90734226D01*
X220355744Y-89814487D01*
X220449763Y-89814569D01*
X220809312Y-89666007D01*
X221084640Y-89391159D01*
X221233830Y-89031870D01*
X221234022Y-88811100D01*
X221310222Y-88811100D01*
X221310031Y-89030163D01*
X221458593Y-89389712D01*
X221733441Y-89665040D01*
X222092730Y-89814230D01*
X222481763Y-89814569D01*
X222841312Y-89666007D01*
X222908937Y-89598500D01*
X234380369Y-89598500D01*
X234500083Y-89718214D01*
X234675852Y-89835659D01*
X234747294Y-89883395D01*
X235038899Y-89941399D01*
X236677201Y-89941399D01*
X236968806Y-89883395D01*
X237071996Y-89814445D01*
X237213763Y-89814569D01*
X237573312Y-89666007D01*
X237848640Y-89391159D01*
X237997830Y-89031870D01*
X237998169Y-88642837D01*
X237849607Y-88283288D01*
X237748340Y-88181844D01*
X237724096Y-88059962D01*
X237598036Y-87871300D01*
X237558916Y-87812752D01*
X235503848Y-85757685D01*
X235256637Y-85592504D01*
X234965033Y-85534501D01*
X234673429Y-85592504D01*
X234426218Y-85757685D01*
X234261037Y-86004896D01*
X234203034Y-86296500D01*
X234261037Y-86588104D01*
X234426218Y-86835315D01*
X236008301Y-88417399D01*
X235583839Y-88417399D01*
X235503848Y-88297685D01*
X235256638Y-88132504D01*
X234965033Y-88074500D01*
X224040678Y-88074500D01*
X224040869Y-87855437D01*
X223892307Y-87495888D01*
X223617459Y-87220560D01*
X223258170Y-87071370D01*
X222869137Y-87071031D01*
X222509588Y-87219593D01*
X222441963Y-87287100D01*
X217790431Y-87287100D01*
X216730915Y-86227585D01*
X216730914Y-86227584D01*
X216483705Y-86062404D01*
X216192100Y-86004400D01*
X202605433Y-86004400D01*
X202321936Y-86060791D01*
X202125370Y-85979170D01*
X201736337Y-85978831D01*
X201376788Y-86127393D01*
X201101460Y-86402241D01*
X200952270Y-86761530D01*
X200951931Y-87150563D01*
X180860700Y-87150563D01*
X180860700Y-85597447D01*
X181016273Y-85597583D01*
X181375822Y-85449021D01*
X181645392Y-85179921D01*
X182940803Y-85179921D01*
X183007227Y-85246461D01*
X183366516Y-85395651D01*
X183755549Y-85395990D01*
X184115098Y-85247428D01*
X184390426Y-84972580D01*
X184539616Y-84613291D01*
X184539955Y-84224258D01*
X184391393Y-83864709D01*
X184309414Y-83782587D01*
X184838672Y-83253329D01*
X185003853Y-83006118D01*
X185022098Y-82914391D01*
X185359526Y-82688929D01*
X185369099Y-82674601D01*
X185373094Y-82695831D01*
X185512166Y-82911955D01*
X185724366Y-83056945D01*
X185976256Y-83107954D01*
X187703456Y-83107954D01*
X187938773Y-83063676D01*
X188154897Y-82924604D01*
X188299887Y-82712404D01*
X188350896Y-82460514D01*
X188350896Y-82338046D01*
X233583717Y-82338046D01*
X233852512Y-82923479D01*
X234324882Y-83361485D01*
X234806756Y-83561075D01*
X235062700Y-83441936D01*
X235062700Y-82082100D01*
X233702333Y-82082100D01*
X233583717Y-82338046D01*
X188350896Y-82338046D01*
X188350896Y-81572154D01*
X233583717Y-81572154D01*
X233702333Y-81828100D01*
X235062700Y-81828100D01*
X235062700Y-80468264D01*
X235316700Y-80468264D01*
X235316700Y-81828100D01*
X235336700Y-81828100D01*
X235336700Y-82082100D01*
X235316700Y-82082100D01*
X235316700Y-83441936D01*
X235572644Y-83561075D01*
X236054518Y-83361485D01*
X236152098Y-83271003D01*
X236249610Y-83422541D01*
X236461810Y-83567531D01*
X236713700Y-83618540D01*
X238745700Y-83618540D01*
X238981017Y-83574262D01*
X239197141Y-83435190D01*
X239342131Y-83222990D01*
X239393140Y-82971100D01*
X239393140Y-80939100D01*
X239348862Y-80703783D01*
X239209790Y-80487659D01*
X238997590Y-80342669D01*
X238745700Y-80291660D01*
X236713700Y-80291660D01*
X236478383Y-80335938D01*
X236262259Y-80475010D01*
X236150860Y-80638048D01*
X236054518Y-80548715D01*
X235572644Y-80349125D01*
X235316700Y-80468264D01*
X235062700Y-80468264D01*
X234806756Y-80349125D01*
X234324882Y-80548715D01*
X233852512Y-80986721D01*
X233583717Y-81572154D01*
X188350896Y-81572154D01*
X188350896Y-80428514D01*
X188306618Y-80193197D01*
X188167546Y-79977073D01*
X187955346Y-79832083D01*
X187703456Y-79781074D01*
X185976256Y-79781074D01*
X185740939Y-79825352D01*
X185524815Y-79964424D01*
X185379825Y-80176624D01*
X185371456Y-80217953D01*
X185359526Y-80200099D01*
X184873345Y-79875243D01*
X184299856Y-79761169D01*
X183726367Y-79875243D01*
X183240186Y-80200099D01*
X183029856Y-80514880D01*
X182819526Y-80200099D01*
X182333345Y-79875243D01*
X181759856Y-79761169D01*
X181186367Y-79875243D01*
X180700186Y-80200099D01*
X180489856Y-80514880D01*
X180279526Y-80200099D01*
X179793345Y-79875243D01*
X179219856Y-79761169D01*
X178646367Y-79875243D01*
X178160186Y-80200099D01*
X177949856Y-80514880D01*
X177739526Y-80200099D01*
X177253345Y-79875243D01*
X176679856Y-79761169D01*
X176106367Y-79875243D01*
X175620186Y-80200099D01*
X175413395Y-80509583D01*
X175041892Y-80093782D01*
X174514647Y-79839805D01*
X174498882Y-79837156D01*
X174266856Y-79958297D01*
X174012856Y-79958297D01*
X173780830Y-79837156D01*
X173765065Y-79839805D01*
X173237820Y-80093782D01*
X172847902Y-80530194D01*
X172654672Y-81082601D01*
X168351200Y-81082601D01*
X168351200Y-78867000D01*
X200660000Y-78867000D01*
X200709410Y-78856994D01*
X200751035Y-78828553D01*
X200778315Y-78786159D01*
X200787000Y-78740000D01*
X200787000Y-71448877D01*
X201753333Y-71448877D01*
X202044938Y-71390873D01*
X202292148Y-71225692D01*
X202797379Y-70720461D01*
X202891399Y-70720543D01*
X203250948Y-70571981D01*
X203526276Y-70297133D01*
X203675466Y-69937844D01*
X203675612Y-69769511D01*
X204635210Y-69769511D01*
X204783772Y-70129060D01*
X205058620Y-70404388D01*
X205417909Y-70553578D01*
X205806942Y-70553917D01*
X206166491Y-70405355D01*
X206441819Y-70130507D01*
X206591009Y-69771218D01*
X206591348Y-69382185D01*
X206442786Y-69022636D01*
X206167938Y-68747308D01*
X205808649Y-68598118D01*
X205419616Y-68597779D01*
X205060067Y-68746341D01*
X204784739Y-69021189D01*
X204635549Y-69380478D01*
X204635210Y-69769511D01*
X203675612Y-69769511D01*
X203675805Y-69548811D01*
X203527243Y-69189262D01*
X203252395Y-68913934D01*
X202893106Y-68764744D01*
X202504073Y-68764405D01*
X202144524Y-68912967D01*
X201869196Y-69187815D01*
X201759395Y-69452245D01*
X201492852Y-69185236D01*
X201133563Y-69036046D01*
X200787000Y-69035744D01*
X200787000Y-65684399D01*
X203370562Y-65684399D01*
X203263768Y-65941588D01*
D27*
X221477298Y-66232958D03*
X211226400Y-57036958D03*
X193395600Y-67716400D03*
X190906400Y-65227200D03*
X202697736Y-69742474D03*
X205613279Y-69575848D03*
X196966298Y-70677958D03*
X211597272Y-62736958D03*
X211566692Y-71780275D03*
X211775298Y-68936958D03*
X217175298Y-63617158D03*
X212275298Y-60236958D03*
X211023298Y-73674158D03*
X219275298Y-63641158D03*
X202463400Y-51625500D03*
X202420220Y-48994060D03*
X202420220Y-50289460D03*
X192766144Y-47861311D03*
X194683380Y-51681380D03*
X194706240Y-50650140D03*
X193814038Y-48892118D03*
X191583924Y-48904787D03*
X192796911Y-49953118D03*
X230412080Y-45453140D03*
X219194582Y-45453140D03*
X226703680Y-45424940D03*
X222792080Y-45424940D03*
X216365880Y-48018540D03*
X216365880Y-47154940D03*
X216899280Y-46316740D03*
X217280280Y-47180340D03*
X217280280Y-48043940D03*
X176367280Y-56843020D03*
X177367280Y-63943020D03*
X176467280Y-63443020D03*
X206514700Y-88811110D03*
X212636100Y-88633300D03*
X237020100Y-88836500D03*
X236816900Y-91732100D03*
X220256100Y-88836500D03*
X222288100Y-88836500D03*
X204241498Y-65417709D03*
X235712000Y-88392000D03*
X207264000Y-85852000D03*
X178396824Y-92191182D03*
X173644556Y-90461514D03*
X171637956Y-87286514D03*
X187258956Y-89864614D03*
X184655456Y-89839214D03*
X193954400Y-87541100D03*
X215616198Y-88607890D03*
X199059800Y-88163400D03*
X226898200Y-89954100D03*
X217106500Y-88785700D03*
X212509100Y-93396500D03*
X210146900Y-92138500D03*
X210045300Y-88303100D03*
X235504700Y-92465100D03*
X198412100Y-92933802D03*
X195148200Y-92811600D03*
X191795400Y-90208100D03*
X195656200Y-89281000D03*
X223062800Y-88049100D03*
X201930000Y-86956900D03*
X179171600Y-89864614D03*
X219875298Y-57936958D03*
X209575498Y-73826558D03*
X219278298Y-62167958D03*
X204241498Y-66136958D03*
X190000000Y-46310000D03*
X190000000Y-47060000D03*
X190949580Y-47060000D03*
X190965960Y-46310000D03*
X193583560Y-59048780D03*
X191734440Y-59048780D03*
X189845939Y-48900080D03*
X192727580Y-44213780D03*
X192760140Y-45892720D03*
X192760140Y-45094700D03*
X200938193Y-70013776D03*
X213675298Y-71936958D03*
X208269298Y-71058958D03*
X212775298Y-68936958D03*
X199628192Y-71478068D03*
X212675298Y-71936958D03*
X213875298Y-68936958D03*
X180822610Y-84619514D03*
X183561886Y-84417921D03*
X213156800Y-65138300D03*
X197770720Y-67688448D03*
X213156800Y-64198500D03*
X196830920Y-67688448D03*
D28*
X187358020Y-54516020D03*
X182310000Y-69400000D03*
X184810000Y-69400000D03*
X237729700Y-81955100D03*
X235189700Y-81955100D03*
X172110000Y-68130000D03*
X172110000Y-70670000D03*
X186839856Y-81444514D03*
X184299856Y-81444514D03*
X181759856Y-81444514D03*
X179219856Y-81444514D03*
X176679856Y-81444514D03*
X174139856Y-81444514D03*
X169570798Y-57406318D03*
X169570798Y-64506318D03*
X244602000Y-52832000D03*
X244602000Y-55372000D03*
X244602000Y-57912000D03*
X244602000Y-60452000D03*
X244602000Y-62992000D03*
X244602000Y-65532000D03*
X244602000Y-68072000D03*
X244602000Y-70612000D03*
X244602000Y-73152000D03*
X244602000Y-75692000D03*
X244602000Y-78232000D03*
X244602000Y-80772000D03*
X244602000Y-83312000D03*
X244602000Y-85852000D03*
X244602000Y-88392000D03*
X244602000Y-90932000D03*
X181752240Y-47688500D03*
X175752760Y-47688500D03*
X178752500Y-52387500D03*
X232771400Y-67339400D03*
X227891400Y-67339400D03*
X204876400Y-55575200D03*
X204876400Y-58115200D03*
X202336400Y-55575200D03*
X202336400Y-58115200D03*
X199796400Y-55575200D03*
X199796400Y-58115200D03*
M02*
