%TF.GenerationSoftware,KiCad,Pcbnew,4.0.5-e0-6337~49~ubuntu16.04.1*%
%TF.CreationDate,2017-08-14T10:43:51-07:00*%
%TF.ProjectId,mcphail-main-board,6D63706861696C2D6D61696E2D626F61,1.0*%
%TF.FileFunction,Soldermask,Top*%
%FSLAX46Y46*%
G04 Gerber Fmt 4.6, Leading zero omitted, Abs format (unit mm)*
G04 Created by KiCad (PCBNEW 4.0.5-e0-6337~49~ubuntu16.04.1) date Mon Aug 14 10:43:51 2017*
%MOMM*%
%LPD*%
G01*
G04 APERTURE LIST*
%ADD10C,0.350000*%
G04 APERTURE END LIST*
D10*
G36*
X99579442Y-94758715D02*
X99786177Y-94801152D01*
X99980747Y-94882941D01*
X100155718Y-95000961D01*
X100304433Y-95150718D01*
X100421227Y-95326508D01*
X100501653Y-95521636D01*
X100542578Y-95728324D01*
X100542578Y-95728329D01*
X100542646Y-95728673D01*
X100539280Y-95969736D01*
X100539203Y-95970074D01*
X100539203Y-95970083D01*
X100492522Y-96175549D01*
X100406681Y-96368352D01*
X100285021Y-96540815D01*
X100132182Y-96686362D01*
X99953984Y-96799450D01*
X99757210Y-96875773D01*
X99549367Y-96912422D01*
X99338357Y-96908002D01*
X99132225Y-96862681D01*
X98938822Y-96778185D01*
X98765519Y-96657736D01*
X98618908Y-96505917D01*
X98504578Y-96328510D01*
X98426881Y-96132272D01*
X98388784Y-95924692D01*
X98391730Y-95713658D01*
X98435611Y-95507213D01*
X98518753Y-95313228D01*
X98637993Y-95139083D01*
X98788784Y-94991417D01*
X98965388Y-94875851D01*
X99161075Y-94796788D01*
X99368387Y-94757242D01*
X99579442Y-94758715D01*
X99579442Y-94758715D01*
G37*
G36*
X59858770Y-94593917D02*
X59858775Y-94593919D01*
X59858817Y-94593923D01*
X60062445Y-94656956D01*
X60249950Y-94758340D01*
X60414193Y-94894214D01*
X60548917Y-95059401D01*
X60648989Y-95247610D01*
X60710599Y-95451672D01*
X60731400Y-95663815D01*
X60731400Y-95674385D01*
X60731294Y-95689634D01*
X60707533Y-95901466D01*
X60643080Y-96104648D01*
X60540389Y-96291442D01*
X60403372Y-96454732D01*
X60237249Y-96588299D01*
X60048345Y-96687055D01*
X59843858Y-96747239D01*
X59843817Y-96747243D01*
X59843813Y-96747244D01*
X59631577Y-96766559D01*
X59419630Y-96744283D01*
X59419625Y-96744281D01*
X59419583Y-96744277D01*
X59215955Y-96681244D01*
X59028450Y-96579860D01*
X58864207Y-96443986D01*
X58729483Y-96278799D01*
X58629411Y-96090590D01*
X58567801Y-95886528D01*
X58547000Y-95674385D01*
X58547000Y-95663815D01*
X58547106Y-95648566D01*
X58570867Y-95436734D01*
X58635320Y-95233552D01*
X58738011Y-95046758D01*
X58875028Y-94883468D01*
X59041151Y-94749901D01*
X59230055Y-94651145D01*
X59434542Y-94590961D01*
X59434583Y-94590957D01*
X59434587Y-94590956D01*
X59646823Y-94571641D01*
X59858770Y-94593917D01*
X59858770Y-94593917D01*
G37*
G36*
X63271400Y-96761300D02*
X61087000Y-96761300D01*
X61087000Y-94576900D01*
X63271400Y-94576900D01*
X63271400Y-96761300D01*
X63271400Y-96761300D01*
G37*
G36*
X27240242Y-93488715D02*
X27446977Y-93531152D01*
X27641547Y-93612941D01*
X27816518Y-93730961D01*
X27965233Y-93880718D01*
X28082027Y-94056508D01*
X28162453Y-94251636D01*
X28203378Y-94458324D01*
X28203378Y-94458329D01*
X28203446Y-94458673D01*
X28200080Y-94699736D01*
X28200003Y-94700074D01*
X28200003Y-94700083D01*
X28153322Y-94905549D01*
X28067481Y-95098352D01*
X27945821Y-95270815D01*
X27792982Y-95416362D01*
X27614784Y-95529450D01*
X27418010Y-95605773D01*
X27210167Y-95642422D01*
X26999157Y-95638002D01*
X26793025Y-95592681D01*
X26599622Y-95508185D01*
X26426319Y-95387736D01*
X26279708Y-95235917D01*
X26165378Y-95058510D01*
X26087681Y-94862272D01*
X26049584Y-94654692D01*
X26052530Y-94443658D01*
X26096411Y-94237213D01*
X26179553Y-94043228D01*
X26298793Y-93869083D01*
X26449584Y-93721417D01*
X26626188Y-93605851D01*
X26821875Y-93526788D01*
X27029187Y-93487242D01*
X27240242Y-93488715D01*
X27240242Y-93488715D01*
G37*
G36*
X46302229Y-95297861D02*
X45149829Y-95297861D01*
X45149829Y-93545461D01*
X46302229Y-93545461D01*
X46302229Y-95297861D01*
X46302229Y-95297861D01*
G37*
G36*
X49302229Y-95297861D02*
X48149829Y-95297861D01*
X48149829Y-93545461D01*
X49302229Y-93545461D01*
X49302229Y-95297861D01*
X49302229Y-95297861D01*
G37*
G36*
X53822600Y-94805500D02*
X51638200Y-94805500D01*
X51638200Y-92925900D01*
X53822600Y-92925900D01*
X53822600Y-94805500D01*
X53822600Y-94805500D01*
G37*
G36*
X94054370Y-92587717D02*
X94054375Y-92587719D01*
X94054417Y-92587723D01*
X94258045Y-92650756D01*
X94445550Y-92752140D01*
X94609793Y-92888014D01*
X94744517Y-93053201D01*
X94844589Y-93241410D01*
X94906199Y-93445472D01*
X94927000Y-93657615D01*
X94927000Y-93668185D01*
X94926894Y-93683434D01*
X94903133Y-93895266D01*
X94838680Y-94098448D01*
X94735989Y-94285242D01*
X94598972Y-94448532D01*
X94432849Y-94582099D01*
X94243945Y-94680855D01*
X94039458Y-94741039D01*
X94039417Y-94741043D01*
X94039413Y-94741044D01*
X93827177Y-94760359D01*
X93615230Y-94738083D01*
X93615225Y-94738081D01*
X93615183Y-94738077D01*
X93411555Y-94675044D01*
X93224050Y-94573660D01*
X93059807Y-94437786D01*
X92925083Y-94272599D01*
X92825011Y-94084390D01*
X92763401Y-93880328D01*
X92742600Y-93668185D01*
X92742600Y-93657615D01*
X92742706Y-93642366D01*
X92766467Y-93430534D01*
X92830920Y-93227352D01*
X92933611Y-93040558D01*
X93070628Y-92877268D01*
X93236751Y-92743701D01*
X93425655Y-92644945D01*
X93630142Y-92584761D01*
X93630183Y-92584757D01*
X93630187Y-92584756D01*
X93842423Y-92565441D01*
X94054370Y-92587717D01*
X94054370Y-92587717D01*
G37*
G36*
X92387000Y-94755100D02*
X90202600Y-94755100D01*
X90202600Y-92570700D01*
X92387000Y-92570700D01*
X92387000Y-94755100D01*
X92387000Y-94755100D01*
G37*
G36*
X44288229Y-94707161D02*
X42535829Y-94707161D01*
X42535829Y-93554761D01*
X44288229Y-93554761D01*
X44288229Y-94707161D01*
X44288229Y-94707161D01*
G37*
G36*
X39223337Y-94364861D02*
X38270937Y-94364861D01*
X38270937Y-93462461D01*
X39223337Y-93462461D01*
X39223337Y-94364861D01*
X39223337Y-94364861D01*
G37*
G36*
X37723337Y-94364861D02*
X36770937Y-94364861D01*
X36770937Y-93462461D01*
X37723337Y-93462461D01*
X37723337Y-94364861D01*
X37723337Y-94364861D01*
G37*
G36*
X34494229Y-94364861D02*
X33541829Y-94364861D01*
X33541829Y-93462461D01*
X34494229Y-93462461D01*
X34494229Y-94364861D01*
X34494229Y-94364861D01*
G37*
G36*
X35994229Y-94364861D02*
X35041829Y-94364861D01*
X35041829Y-93462461D01*
X35994229Y-93462461D01*
X35994229Y-94364861D01*
X35994229Y-94364861D01*
G37*
G36*
X66260600Y-93944600D02*
X65108200Y-93944600D01*
X65108200Y-92542200D01*
X66260600Y-92542200D01*
X66260600Y-93944600D01*
X66260600Y-93944600D01*
G37*
G36*
X68260600Y-93944600D02*
X67108200Y-93944600D01*
X67108200Y-92542200D01*
X68260600Y-92542200D01*
X68260600Y-93944600D01*
X68260600Y-93944600D01*
G37*
G36*
X62689537Y-93228135D02*
X61477137Y-93228135D01*
X61477137Y-92425735D01*
X62689537Y-92425735D01*
X62689537Y-93228135D01*
X62689537Y-93228135D01*
G37*
G36*
X60489537Y-93228135D02*
X59277137Y-93228135D01*
X59277137Y-92425735D01*
X60489537Y-92425735D01*
X60489537Y-93228135D01*
X60489537Y-93228135D01*
G37*
G36*
X32945229Y-93107861D02*
X32042829Y-93107861D01*
X32042829Y-92155461D01*
X32945229Y-92155461D01*
X32945229Y-93107861D01*
X32945229Y-93107861D01*
G37*
G36*
X49568229Y-92941861D02*
X46915829Y-92941861D01*
X46915829Y-91789461D01*
X49568229Y-91789461D01*
X49568229Y-92941861D01*
X49568229Y-92941861D01*
G37*
G36*
X46113229Y-92751861D02*
X45210829Y-92751861D01*
X45210829Y-91799461D01*
X46113229Y-91799461D01*
X46113229Y-92751861D01*
X46113229Y-92751861D01*
G37*
G36*
X57540829Y-92592961D02*
X55788429Y-92592961D01*
X55788429Y-91440561D01*
X57540829Y-91440561D01*
X57540829Y-92592961D01*
X57540829Y-92592961D01*
G37*
G36*
X60489537Y-92278135D02*
X59277137Y-92278135D01*
X59277137Y-91475735D01*
X60489537Y-91475735D01*
X60489537Y-92278135D01*
X60489537Y-92278135D01*
G37*
G36*
X52899149Y-90385977D02*
X52899154Y-90385978D01*
X52901207Y-90385992D01*
X53083480Y-90406437D01*
X53258312Y-90461897D01*
X53419041Y-90550258D01*
X53559546Y-90668156D01*
X53674476Y-90811100D01*
X53759452Y-90973645D01*
X53811239Y-91149599D01*
X53811243Y-91149640D01*
X53811244Y-91149644D01*
X53827863Y-91332258D01*
X53812623Y-91477257D01*
X53808690Y-91514673D01*
X53754452Y-91689887D01*
X53667215Y-91851229D01*
X53550300Y-91992555D01*
X53408162Y-92108479D01*
X53246215Y-92194588D01*
X53070626Y-92247602D01*
X52888085Y-92265500D01*
X52572683Y-92265500D01*
X52561651Y-92265423D01*
X52561646Y-92265422D01*
X52559593Y-92265408D01*
X52377320Y-92244963D01*
X52202488Y-92189503D01*
X52041759Y-92101142D01*
X51901254Y-91983244D01*
X51786324Y-91840300D01*
X51701348Y-91677755D01*
X51649561Y-91501801D01*
X51649557Y-91501760D01*
X51649556Y-91501756D01*
X51632937Y-91319142D01*
X51652105Y-91136774D01*
X51652110Y-91136727D01*
X51706348Y-90961513D01*
X51793585Y-90800171D01*
X51910500Y-90658845D01*
X52052638Y-90542921D01*
X52214585Y-90456812D01*
X52390174Y-90403798D01*
X52572715Y-90385900D01*
X52888117Y-90385900D01*
X52899149Y-90385977D01*
X52899149Y-90385977D01*
G37*
G36*
X35763337Y-92261635D02*
X34110937Y-92261635D01*
X34110937Y-91509235D01*
X35763337Y-91509235D01*
X35763337Y-92261635D01*
X35763337Y-92261635D01*
G37*
G36*
X41163337Y-92261635D02*
X39510937Y-92261635D01*
X39510937Y-91509235D01*
X41163337Y-91509235D01*
X41163337Y-92261635D01*
X41163337Y-92261635D01*
G37*
G36*
X100214843Y-90373757D02*
X100375858Y-90406809D01*
X100527401Y-90470511D01*
X100663673Y-90562429D01*
X100779506Y-90679072D01*
X100870468Y-90815982D01*
X100933110Y-90967963D01*
X100964968Y-91128856D01*
X100964968Y-91128866D01*
X100965036Y-91129210D01*
X100962415Y-91316963D01*
X100962337Y-91317306D01*
X100962337Y-91317309D01*
X100925997Y-91477261D01*
X100859140Y-91627425D01*
X100764384Y-91761747D01*
X100645345Y-91875108D01*
X100506553Y-91963188D01*
X100353299Y-92022631D01*
X100191419Y-92051175D01*
X100027073Y-92047732D01*
X99866528Y-92012435D01*
X99715894Y-91946624D01*
X99580918Y-91852813D01*
X99466730Y-91734568D01*
X99377683Y-91596394D01*
X99317169Y-91443553D01*
X99287497Y-91281881D01*
X99289791Y-91117516D01*
X99323969Y-90956726D01*
X99388723Y-90805640D01*
X99481594Y-90670007D01*
X99599037Y-90554998D01*
X99736586Y-90464988D01*
X99888997Y-90403410D01*
X100050462Y-90372609D01*
X100214843Y-90373757D01*
X100214843Y-90373757D01*
G37*
G36*
X31163229Y-91933861D02*
X29760829Y-91933861D01*
X29760829Y-90781461D01*
X31163229Y-90781461D01*
X31163229Y-91933861D01*
X31163229Y-91933861D01*
G37*
G36*
X44288229Y-91707161D02*
X42535829Y-91707161D01*
X42535829Y-90554761D01*
X44288229Y-90554761D01*
X44288229Y-91707161D01*
X44288229Y-91707161D01*
G37*
G36*
X32945229Y-91607861D02*
X32042829Y-91607861D01*
X32042829Y-90655461D01*
X32945229Y-90655461D01*
X32945229Y-91607861D01*
X32945229Y-91607861D01*
G37*
G36*
X62689537Y-91328135D02*
X61477137Y-91328135D01*
X61477137Y-90525735D01*
X62689537Y-90525735D01*
X62689537Y-91328135D01*
X62689537Y-91328135D01*
G37*
G36*
X60489537Y-91328135D02*
X59277137Y-91328135D01*
X59277137Y-90525735D01*
X60489537Y-90525735D01*
X60489537Y-91328135D01*
X60489537Y-91328135D01*
G37*
G36*
X46113229Y-91251861D02*
X45210829Y-91251861D01*
X45210829Y-90299461D01*
X46113229Y-90299461D01*
X46113229Y-91251861D01*
X46113229Y-91251861D01*
G37*
G36*
X93949600Y-91014900D02*
X92997200Y-91014900D01*
X92997200Y-90112500D01*
X93949600Y-90112500D01*
X93949600Y-91014900D01*
X93949600Y-91014900D01*
G37*
G36*
X92449600Y-91014900D02*
X91497200Y-91014900D01*
X91497200Y-90112500D01*
X92449600Y-90112500D01*
X92449600Y-91014900D01*
X92449600Y-91014900D01*
G37*
G36*
X35763337Y-90991635D02*
X34110937Y-90991635D01*
X34110937Y-90239235D01*
X35763337Y-90239235D01*
X35763337Y-90991635D01*
X35763337Y-90991635D01*
G37*
G36*
X41163337Y-90991635D02*
X39510937Y-90991635D01*
X39510937Y-90239235D01*
X41163337Y-90239235D01*
X41163337Y-90991635D01*
X41163337Y-90991635D01*
G37*
G36*
X65798600Y-90139400D02*
X64046200Y-90139400D01*
X64046200Y-88987000D01*
X65798600Y-88987000D01*
X65798600Y-90139400D01*
X65798600Y-90139400D01*
G37*
G36*
X49568229Y-89941861D02*
X46915829Y-89941861D01*
X46915829Y-88789461D01*
X49568229Y-88789461D01*
X49568229Y-89941861D01*
X49568229Y-89941861D01*
G37*
G36*
X31163229Y-89933861D02*
X29760829Y-89933861D01*
X29760829Y-88781461D01*
X31163229Y-88781461D01*
X31163229Y-89933861D01*
X31163229Y-89933861D01*
G37*
G36*
X43027029Y-89877761D02*
X41874629Y-89877761D01*
X41874629Y-88475361D01*
X43027029Y-88475361D01*
X43027029Y-89877761D01*
X43027029Y-89877761D01*
G37*
G36*
X45027029Y-89877761D02*
X43874629Y-89877761D01*
X43874629Y-88475361D01*
X45027029Y-88475361D01*
X45027029Y-89877761D01*
X45027029Y-89877761D01*
G37*
G36*
X32945229Y-89817861D02*
X32042829Y-89817861D01*
X32042829Y-88865461D01*
X32945229Y-88865461D01*
X32945229Y-89817861D01*
X32945229Y-89817861D01*
G37*
G36*
X62774429Y-89778361D02*
X61822029Y-89778361D01*
X61822029Y-88875961D01*
X62774429Y-88875961D01*
X62774429Y-89778361D01*
X62774429Y-89778361D01*
G37*
G36*
X61274429Y-89778361D02*
X60322029Y-89778361D01*
X60322029Y-88875961D01*
X61274429Y-88875961D01*
X61274429Y-89778361D01*
X61274429Y-89778361D01*
G37*
G36*
X52899149Y-87845977D02*
X52899154Y-87845978D01*
X52901207Y-87845992D01*
X53083480Y-87866437D01*
X53258312Y-87921897D01*
X53419041Y-88010258D01*
X53559546Y-88128156D01*
X53674476Y-88271100D01*
X53759452Y-88433645D01*
X53811239Y-88609599D01*
X53811243Y-88609640D01*
X53811244Y-88609644D01*
X53827863Y-88792258D01*
X53812623Y-88937257D01*
X53808690Y-88974673D01*
X53754452Y-89149887D01*
X53667215Y-89311229D01*
X53550300Y-89452555D01*
X53408162Y-89568479D01*
X53246215Y-89654588D01*
X53070626Y-89707602D01*
X52888085Y-89725500D01*
X52572683Y-89725500D01*
X52561651Y-89725423D01*
X52561646Y-89725422D01*
X52559593Y-89725408D01*
X52377320Y-89704963D01*
X52202488Y-89649503D01*
X52041759Y-89561142D01*
X51901254Y-89443244D01*
X51786324Y-89300300D01*
X51701348Y-89137755D01*
X51649561Y-88961801D01*
X51649557Y-88961760D01*
X51649556Y-88961756D01*
X51632937Y-88779142D01*
X51652105Y-88596774D01*
X51652110Y-88596727D01*
X51706348Y-88421513D01*
X51793585Y-88260171D01*
X51910500Y-88118845D01*
X52052638Y-88002921D01*
X52214585Y-87916812D01*
X52390174Y-87863798D01*
X52572715Y-87845900D01*
X52888117Y-87845900D01*
X52899149Y-87845977D01*
X52899149Y-87845977D01*
G37*
G36*
X35763337Y-89721635D02*
X34110937Y-89721635D01*
X34110937Y-88969235D01*
X35763337Y-88969235D01*
X35763337Y-89721635D01*
X35763337Y-89721635D01*
G37*
G36*
X41163337Y-89721635D02*
X39510937Y-89721635D01*
X39510937Y-88969235D01*
X41163337Y-88969235D01*
X41163337Y-89721635D01*
X41163337Y-89721635D01*
G37*
G36*
X57540829Y-89592961D02*
X55788429Y-89592961D01*
X55788429Y-88440561D01*
X57540829Y-88440561D01*
X57540829Y-89592961D01*
X57540829Y-89592961D01*
G37*
G36*
X100214843Y-87833757D02*
X100375858Y-87866809D01*
X100527401Y-87930511D01*
X100663673Y-88022429D01*
X100779506Y-88139072D01*
X100870468Y-88275982D01*
X100933110Y-88427963D01*
X100964968Y-88588856D01*
X100964968Y-88588866D01*
X100965036Y-88589210D01*
X100962415Y-88776963D01*
X100962337Y-88777306D01*
X100962337Y-88777309D01*
X100925997Y-88937261D01*
X100859140Y-89087425D01*
X100764384Y-89221747D01*
X100645345Y-89335108D01*
X100506553Y-89423188D01*
X100353299Y-89482631D01*
X100191419Y-89511175D01*
X100027073Y-89507732D01*
X99866528Y-89472435D01*
X99715894Y-89406624D01*
X99580918Y-89312813D01*
X99466730Y-89194568D01*
X99377683Y-89056394D01*
X99317169Y-88903553D01*
X99287497Y-88741881D01*
X99289791Y-88577516D01*
X99323969Y-88416726D01*
X99388723Y-88265640D01*
X99481594Y-88130007D01*
X99599037Y-88014998D01*
X99736586Y-87924988D01*
X99888997Y-87863410D01*
X100050462Y-87832609D01*
X100214843Y-87833757D01*
X100214843Y-87833757D01*
G37*
G36*
X81571700Y-88605300D02*
X80019300Y-88605300D01*
X80019300Y-87552900D01*
X81571700Y-87552900D01*
X81571700Y-88605300D01*
X81571700Y-88605300D01*
G37*
G36*
X71206800Y-88593800D02*
X69854400Y-88593800D01*
X69854400Y-87291400D01*
X71206800Y-87291400D01*
X71206800Y-88593800D01*
X71206800Y-88593800D01*
G37*
G36*
X41163337Y-88451635D02*
X39510937Y-88451635D01*
X39510937Y-87699235D01*
X41163337Y-87699235D01*
X41163337Y-88451635D01*
X41163337Y-88451635D01*
G37*
G36*
X35763337Y-88451635D02*
X34110937Y-88451635D01*
X34110937Y-87699235D01*
X35763337Y-87699235D01*
X35763337Y-88451635D01*
X35763337Y-88451635D01*
G37*
G36*
X32945229Y-88317861D02*
X32042829Y-88317861D01*
X32042829Y-87365461D01*
X32945229Y-87365461D01*
X32945229Y-88317861D01*
X32945229Y-88317861D01*
G37*
G36*
X49568229Y-88115861D02*
X46915829Y-88115861D01*
X46915829Y-86963461D01*
X49568229Y-86963461D01*
X49568229Y-88115861D01*
X49568229Y-88115861D01*
G37*
G36*
X31163229Y-88107861D02*
X29760829Y-88107861D01*
X29760829Y-86955461D01*
X31163229Y-86955461D01*
X31163229Y-88107861D01*
X31163229Y-88107861D01*
G37*
G36*
X59874429Y-87738361D02*
X58922029Y-87738361D01*
X58922029Y-86835961D01*
X59874429Y-86835961D01*
X59874429Y-87738361D01*
X59874429Y-87738361D01*
G37*
G36*
X61374429Y-87738361D02*
X60422029Y-87738361D01*
X60422029Y-86835961D01*
X61374429Y-86835961D01*
X61374429Y-87738361D01*
X61374429Y-87738361D01*
G37*
G36*
X45163629Y-87697361D02*
X44211229Y-87697361D01*
X44211229Y-86794961D01*
X45163629Y-86794961D01*
X45163629Y-87697361D01*
X45163629Y-87697361D01*
G37*
G36*
X43663629Y-87697361D02*
X42711229Y-87697361D01*
X42711229Y-86794961D01*
X43663629Y-86794961D01*
X43663629Y-87697361D01*
X43663629Y-87697361D01*
G37*
G36*
X81571700Y-87355300D02*
X80419300Y-87355300D01*
X80419300Y-86506100D01*
X80417289Y-86491947D01*
X80411414Y-86478916D01*
X80402142Y-86468036D01*
X80390206Y-86460171D01*
X80376551Y-86455942D01*
X80368500Y-86455300D01*
X79969300Y-86455300D01*
X79969300Y-85102900D01*
X81571700Y-85102900D01*
X81571700Y-87355300D01*
X81571700Y-87355300D01*
G37*
G36*
X52899149Y-85305977D02*
X52899154Y-85305978D01*
X52901207Y-85305992D01*
X53083480Y-85326437D01*
X53258312Y-85381897D01*
X53419041Y-85470258D01*
X53559546Y-85588156D01*
X53674476Y-85731100D01*
X53759452Y-85893645D01*
X53811239Y-86069599D01*
X53811243Y-86069640D01*
X53811244Y-86069644D01*
X53827863Y-86252258D01*
X53809719Y-86424882D01*
X53808690Y-86434673D01*
X53754452Y-86609887D01*
X53667215Y-86771229D01*
X53550300Y-86912555D01*
X53408162Y-87028479D01*
X53246215Y-87114588D01*
X53070626Y-87167602D01*
X52888085Y-87185500D01*
X52572683Y-87185500D01*
X52561651Y-87185423D01*
X52561646Y-87185422D01*
X52559593Y-87185408D01*
X52377320Y-87164963D01*
X52202488Y-87109503D01*
X52041759Y-87021142D01*
X51901254Y-86903244D01*
X51786324Y-86760300D01*
X51701348Y-86597755D01*
X51649561Y-86421801D01*
X51649557Y-86421760D01*
X51649556Y-86421756D01*
X51632937Y-86239142D01*
X51652105Y-86056774D01*
X51652110Y-86056727D01*
X51706348Y-85881513D01*
X51793585Y-85720171D01*
X51910500Y-85578845D01*
X52052638Y-85462921D01*
X52214585Y-85376812D01*
X52390174Y-85323798D01*
X52572715Y-85305900D01*
X52888117Y-85305900D01*
X52899149Y-85305977D01*
X52899149Y-85305977D01*
G37*
G36*
X41163337Y-87181635D02*
X39510937Y-87181635D01*
X39510937Y-86429235D01*
X41163337Y-86429235D01*
X41163337Y-87181635D01*
X41163337Y-87181635D01*
G37*
G36*
X35763337Y-87181635D02*
X34110937Y-87181635D01*
X34110937Y-86429235D01*
X35763337Y-86429235D01*
X35763337Y-87181635D01*
X35763337Y-87181635D01*
G37*
G36*
X28804629Y-87176661D02*
X27852229Y-87176661D01*
X27852229Y-86274261D01*
X28804629Y-86274261D01*
X28804629Y-87176661D01*
X28804629Y-87176661D01*
G37*
G36*
X27304629Y-87176661D02*
X26352229Y-87176661D01*
X26352229Y-86274261D01*
X27304629Y-86274261D01*
X27304629Y-87176661D01*
X27304629Y-87176661D01*
G37*
G36*
X65798600Y-87139400D02*
X64046200Y-87139400D01*
X64046200Y-85987000D01*
X65798600Y-85987000D01*
X65798600Y-87139400D01*
X65798600Y-87139400D01*
G37*
G36*
X92573435Y-85306582D02*
X92741750Y-85341133D01*
X92900162Y-85407723D01*
X93042616Y-85503809D01*
X93163694Y-85625735D01*
X93258781Y-85768854D01*
X93324263Y-85927724D01*
X93357569Y-86095935D01*
X93357638Y-86096284D01*
X93354897Y-86292548D01*
X93354820Y-86292886D01*
X93354820Y-86292895D01*
X93316829Y-86460113D01*
X93246940Y-86617085D01*
X93147890Y-86757498D01*
X93023453Y-86875997D01*
X92878370Y-86968070D01*
X92718169Y-87030208D01*
X92548948Y-87060047D01*
X92377151Y-87056447D01*
X92209328Y-87019550D01*
X92051866Y-86950756D01*
X91910770Y-86852692D01*
X91791405Y-86729086D01*
X91698322Y-86584649D01*
X91635064Y-86424878D01*
X91604047Y-86255876D01*
X91606445Y-86084059D01*
X91642172Y-85915980D01*
X91709862Y-85758045D01*
X91806943Y-85616263D01*
X91929711Y-85496039D01*
X92073496Y-85401950D01*
X92232816Y-85337579D01*
X92401601Y-85305383D01*
X92573435Y-85306582D01*
X92573435Y-85306582D01*
G37*
G36*
X100214843Y-85293757D02*
X100375858Y-85326809D01*
X100527401Y-85390511D01*
X100663673Y-85482429D01*
X100779506Y-85599072D01*
X100870468Y-85735982D01*
X100933110Y-85887963D01*
X100964968Y-86048856D01*
X100964968Y-86048866D01*
X100965036Y-86049210D01*
X100962415Y-86236963D01*
X100962337Y-86237306D01*
X100962337Y-86237309D01*
X100925997Y-86397261D01*
X100859140Y-86547425D01*
X100764384Y-86681747D01*
X100645345Y-86795108D01*
X100506553Y-86883188D01*
X100353299Y-86942631D01*
X100191419Y-86971175D01*
X100027073Y-86967732D01*
X99866528Y-86932435D01*
X99715894Y-86866624D01*
X99580918Y-86772813D01*
X99466730Y-86654568D01*
X99377683Y-86516394D01*
X99317169Y-86363553D01*
X99287497Y-86201881D01*
X99289791Y-86037516D01*
X99323969Y-85876726D01*
X99388723Y-85725640D01*
X99481594Y-85590007D01*
X99599037Y-85474998D01*
X99736586Y-85384988D01*
X99888997Y-85323410D01*
X100050462Y-85292609D01*
X100214843Y-85293757D01*
X100214843Y-85293757D01*
G37*
G36*
X46278929Y-86120561D02*
X43626529Y-86120561D01*
X43626529Y-84968161D01*
X46278929Y-84968161D01*
X46278929Y-86120561D01*
X46278929Y-86120561D01*
G37*
G36*
X31163229Y-86107861D02*
X29760829Y-86107861D01*
X29760829Y-84955461D01*
X31163229Y-84955461D01*
X31163229Y-86107861D01*
X31163229Y-86107861D01*
G37*
G36*
X42851229Y-86007861D02*
X41948829Y-86007861D01*
X41948829Y-85055461D01*
X42851229Y-85055461D01*
X42851229Y-86007861D01*
X42851229Y-86007861D01*
G37*
G36*
X71206800Y-85993800D02*
X69854400Y-85993800D01*
X69854400Y-84691400D01*
X71206800Y-84691400D01*
X71206800Y-85993800D01*
X71206800Y-85993800D01*
G37*
G36*
X35763337Y-85911635D02*
X34110937Y-85911635D01*
X34110937Y-85159235D01*
X35763337Y-85159235D01*
X35763337Y-85911635D01*
X35763337Y-85911635D01*
G37*
G36*
X41163337Y-85911635D02*
X39510937Y-85911635D01*
X39510937Y-85159235D01*
X41163337Y-85159235D01*
X41163337Y-85911635D01*
X41163337Y-85911635D01*
G37*
G36*
X33370229Y-85853861D02*
X31617829Y-85853861D01*
X31617829Y-84701461D01*
X33370229Y-84701461D01*
X33370229Y-85853861D01*
X33370229Y-85853861D01*
G37*
G36*
X49568229Y-85115861D02*
X46915829Y-85115861D01*
X46915829Y-83963461D01*
X49568229Y-83963461D01*
X49568229Y-85115861D01*
X49568229Y-85115861D01*
G37*
G36*
X79056800Y-84878800D02*
X78204400Y-84878800D01*
X78204400Y-83726400D01*
X79056800Y-83726400D01*
X79056800Y-84878800D01*
X79056800Y-84878800D01*
G37*
G36*
X76856800Y-84878800D02*
X76004400Y-84878800D01*
X76004400Y-83726400D01*
X76856800Y-83726400D01*
X76856800Y-84878800D01*
X76856800Y-84878800D01*
G37*
G36*
X75756800Y-84878800D02*
X74904400Y-84878800D01*
X74904400Y-83726400D01*
X75756800Y-83726400D01*
X75756800Y-84878800D01*
X75756800Y-84878800D01*
G37*
G36*
X77956800Y-84878800D02*
X77104400Y-84878800D01*
X77104400Y-83726400D01*
X77956800Y-83726400D01*
X77956800Y-84878800D01*
X77956800Y-84878800D01*
G37*
G36*
X74656800Y-84878800D02*
X73804400Y-84878800D01*
X73804400Y-83726400D01*
X74656800Y-83726400D01*
X74656800Y-84878800D01*
X74656800Y-84878800D01*
G37*
G36*
X80156800Y-84878800D02*
X79304400Y-84878800D01*
X79304400Y-83726400D01*
X80156800Y-83726400D01*
X80156800Y-84878800D01*
X80156800Y-84878800D01*
G37*
G36*
X72456800Y-84878800D02*
X71604400Y-84878800D01*
X71604400Y-83726400D01*
X72456800Y-83726400D01*
X72456800Y-84878800D01*
X72456800Y-84878800D01*
G37*
G36*
X73556800Y-84878800D02*
X72704400Y-84878800D01*
X72704400Y-83726400D01*
X73556800Y-83726400D01*
X73556800Y-84878800D01*
X73556800Y-84878800D01*
G37*
G36*
X52899149Y-82765977D02*
X52899154Y-82765978D01*
X52901207Y-82765992D01*
X53083480Y-82786437D01*
X53258312Y-82841897D01*
X53419041Y-82930258D01*
X53559546Y-83048156D01*
X53674476Y-83191100D01*
X53759452Y-83353645D01*
X53811239Y-83529599D01*
X53811243Y-83529640D01*
X53811244Y-83529644D01*
X53827863Y-83712258D01*
X53812623Y-83857257D01*
X53808690Y-83894673D01*
X53754452Y-84069887D01*
X53667215Y-84231229D01*
X53550300Y-84372555D01*
X53408162Y-84488479D01*
X53246215Y-84574588D01*
X53070626Y-84627602D01*
X52888085Y-84645500D01*
X52572683Y-84645500D01*
X52561651Y-84645423D01*
X52561646Y-84645422D01*
X52559593Y-84645408D01*
X52377320Y-84624963D01*
X52202488Y-84569503D01*
X52041759Y-84481142D01*
X51901254Y-84363244D01*
X51786324Y-84220300D01*
X51701348Y-84057755D01*
X51649561Y-83881801D01*
X51649557Y-83881760D01*
X51649556Y-83881756D01*
X51632937Y-83699142D01*
X51652105Y-83516774D01*
X51652110Y-83516727D01*
X51706348Y-83341513D01*
X51793585Y-83180171D01*
X51910500Y-83038845D01*
X52052638Y-82922921D01*
X52214585Y-82836812D01*
X52390174Y-82783798D01*
X52572715Y-82765900D01*
X52888117Y-82765900D01*
X52899149Y-82765977D01*
X52899149Y-82765977D01*
G37*
G36*
X35763337Y-84641635D02*
X34110937Y-84641635D01*
X34110937Y-83889235D01*
X35763337Y-83889235D01*
X35763337Y-84641635D01*
X35763337Y-84641635D01*
G37*
G36*
X41163337Y-84641635D02*
X39510937Y-84641635D01*
X39510937Y-83889235D01*
X41163337Y-83889235D01*
X41163337Y-84641635D01*
X41163337Y-84641635D01*
G37*
G36*
X92573435Y-82806582D02*
X92741750Y-82841133D01*
X92900162Y-82907723D01*
X93042616Y-83003809D01*
X93163694Y-83125735D01*
X93258781Y-83268854D01*
X93324263Y-83427724D01*
X93357569Y-83595935D01*
X93357638Y-83596284D01*
X93354897Y-83792548D01*
X93354820Y-83792886D01*
X93354820Y-83792895D01*
X93316829Y-83960113D01*
X93246940Y-84117085D01*
X93147890Y-84257498D01*
X93023453Y-84375997D01*
X92878370Y-84468070D01*
X92718169Y-84530208D01*
X92548948Y-84560047D01*
X92377151Y-84556447D01*
X92209328Y-84519550D01*
X92051866Y-84450756D01*
X91910770Y-84352692D01*
X91791405Y-84229086D01*
X91698322Y-84084649D01*
X91635064Y-83924878D01*
X91604047Y-83755876D01*
X91606445Y-83584059D01*
X91642172Y-83415980D01*
X91709862Y-83258045D01*
X91806943Y-83116263D01*
X91929711Y-82996039D01*
X92073496Y-82901950D01*
X92232816Y-82837579D01*
X92401601Y-82805383D01*
X92573435Y-82806582D01*
X92573435Y-82806582D01*
G37*
G36*
X42851229Y-84507861D02*
X41948829Y-84507861D01*
X41948829Y-83555461D01*
X42851229Y-83555461D01*
X42851229Y-84507861D01*
X42851229Y-84507861D01*
G37*
G36*
X100214843Y-82753757D02*
X100375858Y-82786809D01*
X100527401Y-82850511D01*
X100663673Y-82942429D01*
X100779506Y-83059072D01*
X100870468Y-83195982D01*
X100933110Y-83347963D01*
X100964968Y-83508856D01*
X100964968Y-83508866D01*
X100965036Y-83509210D01*
X100962415Y-83696963D01*
X100962337Y-83697306D01*
X100962337Y-83697309D01*
X100925997Y-83857261D01*
X100859140Y-84007425D01*
X100764384Y-84141747D01*
X100645345Y-84255108D01*
X100506553Y-84343188D01*
X100353299Y-84402631D01*
X100191419Y-84431175D01*
X100027073Y-84427732D01*
X99866528Y-84392435D01*
X99715894Y-84326624D01*
X99580918Y-84232813D01*
X99466730Y-84114568D01*
X99377683Y-83976394D01*
X99317169Y-83823553D01*
X99287497Y-83661881D01*
X99289791Y-83497516D01*
X99323969Y-83336726D01*
X99388723Y-83185640D01*
X99481594Y-83050007D01*
X99599037Y-82934998D01*
X99736586Y-82844988D01*
X99888997Y-82783410D01*
X100050462Y-82752609D01*
X100214843Y-82753757D01*
X100214843Y-82753757D01*
G37*
G36*
X30914229Y-84204861D02*
X29961829Y-84204861D01*
X29961829Y-83302461D01*
X30914229Y-83302461D01*
X30914229Y-84204861D01*
X30914229Y-84204861D01*
G37*
G36*
X29414229Y-84204861D02*
X28461829Y-84204861D01*
X28461829Y-83302461D01*
X29414229Y-83302461D01*
X29414229Y-84204861D01*
X29414229Y-84204861D01*
G37*
G36*
X46278929Y-83120561D02*
X43626529Y-83120561D01*
X43626529Y-81968161D01*
X46278929Y-81968161D01*
X46278929Y-83120561D01*
X46278929Y-83120561D01*
G37*
G36*
X33370229Y-82853861D02*
X31617829Y-82853861D01*
X31617829Y-81701461D01*
X33370229Y-81701461D01*
X33370229Y-82853861D01*
X33370229Y-82853861D01*
G37*
G36*
X42976229Y-82851861D02*
X41823829Y-82851861D01*
X41823829Y-81099461D01*
X42976229Y-81099461D01*
X42976229Y-82851861D01*
X42976229Y-82851861D01*
G37*
G36*
X39976229Y-82851861D02*
X38823829Y-82851861D01*
X38823829Y-81099461D01*
X39976229Y-81099461D01*
X39976229Y-82851861D01*
X39976229Y-82851861D01*
G37*
G36*
X64916400Y-82683300D02*
X64014000Y-82683300D01*
X64014000Y-81730900D01*
X64916400Y-81730900D01*
X64916400Y-82683300D01*
X64916400Y-82683300D01*
G37*
G36*
X38026229Y-82680861D02*
X37073829Y-82680861D01*
X37073829Y-81778461D01*
X38026229Y-81778461D01*
X38026229Y-82680861D01*
X38026229Y-82680861D01*
G37*
G36*
X36526229Y-82680861D02*
X35573829Y-82680861D01*
X35573829Y-81778461D01*
X36526229Y-81778461D01*
X36526229Y-82680861D01*
X36526229Y-82680861D01*
G37*
G36*
X62920200Y-82468100D02*
X61367800Y-82468100D01*
X61367800Y-80015700D01*
X62920200Y-80015700D01*
X62920200Y-82468100D01*
X62920200Y-82468100D01*
G37*
G36*
X58520200Y-82468100D02*
X56967800Y-82468100D01*
X56967800Y-80015700D01*
X58520200Y-80015700D01*
X58520200Y-82468100D01*
X58520200Y-82468100D01*
G37*
G36*
X29414229Y-82426861D02*
X28461829Y-82426861D01*
X28461829Y-81524461D01*
X29414229Y-81524461D01*
X29414229Y-82426861D01*
X29414229Y-82426861D01*
G37*
G36*
X30914229Y-82426861D02*
X29961829Y-82426861D01*
X29961829Y-81524461D01*
X30914229Y-81524461D01*
X30914229Y-82426861D01*
X30914229Y-82426861D01*
G37*
G36*
X52899149Y-80225977D02*
X52899154Y-80225978D01*
X52901207Y-80225992D01*
X53083480Y-80246437D01*
X53258312Y-80301897D01*
X53419041Y-80390258D01*
X53559546Y-80508156D01*
X53674476Y-80651100D01*
X53759452Y-80813645D01*
X53811239Y-80989599D01*
X53811243Y-80989640D01*
X53811244Y-80989644D01*
X53827863Y-81172258D01*
X53812623Y-81317257D01*
X53808690Y-81354673D01*
X53754452Y-81529887D01*
X53667215Y-81691229D01*
X53550300Y-81832555D01*
X53408162Y-81948479D01*
X53246215Y-82034588D01*
X53070626Y-82087602D01*
X52888085Y-82105500D01*
X52572683Y-82105500D01*
X52561651Y-82105423D01*
X52561646Y-82105422D01*
X52559593Y-82105408D01*
X52377320Y-82084963D01*
X52202488Y-82029503D01*
X52041759Y-81941142D01*
X51901254Y-81823244D01*
X51786324Y-81680300D01*
X51701348Y-81517755D01*
X51649561Y-81341801D01*
X51649557Y-81341760D01*
X51649556Y-81341756D01*
X51632937Y-81159142D01*
X51652105Y-80976774D01*
X51652110Y-80976727D01*
X51706348Y-80801513D01*
X51793585Y-80640171D01*
X51910500Y-80498845D01*
X52052638Y-80382921D01*
X52214585Y-80296812D01*
X52390174Y-80243798D01*
X52572715Y-80225900D01*
X52888117Y-80225900D01*
X52899149Y-80225977D01*
X52899149Y-80225977D01*
G37*
G36*
X100214843Y-80213757D02*
X100375858Y-80246809D01*
X100527401Y-80310511D01*
X100663673Y-80402429D01*
X100779506Y-80519072D01*
X100870468Y-80655982D01*
X100933110Y-80807963D01*
X100964968Y-80968856D01*
X100964968Y-80968866D01*
X100965036Y-80969210D01*
X100962415Y-81156963D01*
X100962337Y-81157306D01*
X100962337Y-81157309D01*
X100925997Y-81317261D01*
X100859140Y-81467425D01*
X100764384Y-81601747D01*
X100645345Y-81715108D01*
X100506553Y-81803188D01*
X100353299Y-81862631D01*
X100191419Y-81891175D01*
X100027073Y-81887732D01*
X99866528Y-81852435D01*
X99715894Y-81786624D01*
X99580918Y-81692813D01*
X99466730Y-81574568D01*
X99377683Y-81436394D01*
X99317169Y-81283553D01*
X99287497Y-81121881D01*
X99289791Y-80957516D01*
X99323969Y-80796726D01*
X99388723Y-80645640D01*
X99481594Y-80510007D01*
X99599037Y-80394998D01*
X99736586Y-80304988D01*
X99888997Y-80243410D01*
X100050462Y-80212609D01*
X100214843Y-80213757D01*
X100214843Y-80213757D01*
G37*
G36*
X64916400Y-81183300D02*
X64014000Y-81183300D01*
X64014000Y-80230900D01*
X64916400Y-80230900D01*
X64916400Y-81183300D01*
X64916400Y-81183300D01*
G37*
G36*
X47764014Y-81137644D02*
X46011614Y-81137644D01*
X46011614Y-79985244D01*
X47764014Y-79985244D01*
X47764014Y-81137644D01*
X47764014Y-81137644D01*
G37*
G36*
X88721200Y-81017400D02*
X87768800Y-81017400D01*
X87768800Y-80115000D01*
X88721200Y-80115000D01*
X88721200Y-81017400D01*
X88721200Y-81017400D01*
G37*
G36*
X87221200Y-81017400D02*
X86268800Y-81017400D01*
X86268800Y-80115000D01*
X87221200Y-80115000D01*
X87221200Y-81017400D01*
X87221200Y-81017400D01*
G37*
G36*
X80871200Y-81017400D02*
X79918800Y-81017400D01*
X79918800Y-80115000D01*
X80871200Y-80115000D01*
X80871200Y-81017400D01*
X80871200Y-81017400D01*
G37*
G36*
X82371200Y-81017400D02*
X81418800Y-81017400D01*
X81418800Y-80115000D01*
X82371200Y-80115000D01*
X82371200Y-81017400D01*
X82371200Y-81017400D01*
G37*
G36*
X30046229Y-80819861D02*
X28893829Y-80819861D01*
X28893829Y-79067461D01*
X30046229Y-79067461D01*
X30046229Y-80819861D01*
X30046229Y-80819861D01*
G37*
G36*
X33046229Y-80819861D02*
X31893829Y-80819861D01*
X31893829Y-79067461D01*
X33046229Y-79067461D01*
X33046229Y-80819861D01*
X33046229Y-80819861D01*
G37*
G36*
X50052814Y-80658344D02*
X48650414Y-80658344D01*
X48650414Y-79505944D01*
X50052814Y-79505944D01*
X50052814Y-80658344D01*
X50052814Y-80658344D01*
G37*
G36*
X100214843Y-77673757D02*
X100375858Y-77706809D01*
X100527401Y-77770511D01*
X100663673Y-77862429D01*
X100779506Y-77979072D01*
X100870468Y-78115982D01*
X100933110Y-78267963D01*
X100964968Y-78428856D01*
X100964968Y-78428866D01*
X100965036Y-78429210D01*
X100962415Y-78616963D01*
X100962337Y-78617306D01*
X100962337Y-78617309D01*
X100925997Y-78777261D01*
X100859140Y-78927425D01*
X100764384Y-79061747D01*
X100645345Y-79175108D01*
X100506553Y-79263188D01*
X100353299Y-79322631D01*
X100191419Y-79351175D01*
X100027073Y-79347732D01*
X99866528Y-79312435D01*
X99715894Y-79246624D01*
X99580918Y-79152813D01*
X99466730Y-79034568D01*
X99377683Y-78896394D01*
X99317169Y-78743553D01*
X99287497Y-78581881D01*
X99289791Y-78417516D01*
X99323969Y-78256726D01*
X99388723Y-78105640D01*
X99481594Y-77970007D01*
X99599037Y-77854998D01*
X99736586Y-77764988D01*
X99888997Y-77703410D01*
X100050462Y-77672609D01*
X100214843Y-77673757D01*
X100214843Y-77673757D01*
G37*
G36*
X77140998Y-79183258D02*
X75083598Y-79183258D01*
X75083598Y-77633858D01*
X77140998Y-77633858D01*
X77140998Y-79183258D01*
X77140998Y-79183258D01*
G37*
G36*
X72670598Y-79183258D02*
X70613198Y-79183258D01*
X70613198Y-77633858D01*
X72670598Y-77633858D01*
X72670598Y-79183258D01*
X72670598Y-79183258D01*
G37*
G36*
X69894898Y-79116758D02*
X68992498Y-79116758D01*
X68992498Y-78164358D01*
X69894898Y-78164358D01*
X69894898Y-79116758D01*
X69894898Y-79116758D01*
G37*
G36*
X50052814Y-78658344D02*
X48650414Y-78658344D01*
X48650414Y-77505944D01*
X50052814Y-77505944D01*
X50052814Y-78658344D01*
X50052814Y-78658344D01*
G37*
G36*
X65600200Y-78450600D02*
X64447800Y-78450600D01*
X64447800Y-77048200D01*
X65600200Y-77048200D01*
X65600200Y-78450600D01*
X65600200Y-78450600D01*
G37*
G36*
X67600200Y-78450600D02*
X66447800Y-78450600D01*
X66447800Y-77048200D01*
X67600200Y-77048200D01*
X67600200Y-78450600D01*
X67600200Y-78450600D01*
G37*
G36*
X40925000Y-78403800D02*
X39972600Y-78403800D01*
X39972600Y-77501400D01*
X40925000Y-77501400D01*
X40925000Y-78403800D01*
X40925000Y-78403800D01*
G37*
G36*
X42425000Y-78403800D02*
X41472600Y-78403800D01*
X41472600Y-77501400D01*
X42425000Y-77501400D01*
X42425000Y-78403800D01*
X42425000Y-78403800D01*
G37*
G36*
X28319171Y-78216139D02*
X27366771Y-78216139D01*
X27366771Y-77313739D01*
X28319171Y-77313739D01*
X28319171Y-78216139D01*
X28319171Y-78216139D01*
G37*
G36*
X29819171Y-78216139D02*
X28866771Y-78216139D01*
X28866771Y-77313739D01*
X29819171Y-77313739D01*
X29819171Y-78216139D01*
X29819171Y-78216139D01*
G37*
G36*
X47764014Y-78137644D02*
X46011614Y-78137644D01*
X46011614Y-76985244D01*
X47764014Y-76985244D01*
X47764014Y-78137644D01*
X47764014Y-78137644D01*
G37*
G36*
X53896956Y-77820214D02*
X52244556Y-77820214D01*
X52244556Y-77067814D01*
X53896956Y-77067814D01*
X53896956Y-77820214D01*
X53896956Y-77820214D01*
G37*
G36*
X59296956Y-77820214D02*
X57644556Y-77820214D01*
X57644556Y-77067814D01*
X59296956Y-77067814D01*
X59296956Y-77820214D01*
X59296956Y-77820214D01*
G37*
G36*
X83357600Y-77792200D02*
X82555200Y-77792200D01*
X82555200Y-75889800D01*
X83357600Y-75889800D01*
X83357600Y-77792200D01*
X83357600Y-77792200D01*
G37*
G36*
X84627600Y-77792200D02*
X83825200Y-77792200D01*
X83825200Y-75889800D01*
X84627600Y-75889800D01*
X84627600Y-77792200D01*
X84627600Y-77792200D01*
G37*
G36*
X87167600Y-77792200D02*
X86365200Y-77792200D01*
X86365200Y-75889800D01*
X87167600Y-75889800D01*
X87167600Y-77792200D01*
X87167600Y-77792200D01*
G37*
G36*
X85897600Y-77792200D02*
X85095200Y-77792200D01*
X85095200Y-75889800D01*
X85897600Y-75889800D01*
X85897600Y-77792200D01*
X85897600Y-77792200D01*
G37*
G36*
X69894898Y-77616758D02*
X68992498Y-77616758D01*
X68992498Y-76664358D01*
X69894898Y-76664358D01*
X69894898Y-77616758D01*
X69894898Y-77616758D01*
G37*
G36*
X91049435Y-75835582D02*
X91217750Y-75870133D01*
X91376162Y-75936723D01*
X91518616Y-76032809D01*
X91639694Y-76154735D01*
X91734781Y-76297854D01*
X91800263Y-76456724D01*
X91833569Y-76624935D01*
X91833638Y-76625284D01*
X91830897Y-76821548D01*
X91830820Y-76821886D01*
X91830820Y-76821895D01*
X91792829Y-76989113D01*
X91722940Y-77146085D01*
X91623890Y-77286498D01*
X91499453Y-77404997D01*
X91354370Y-77497070D01*
X91194169Y-77559208D01*
X91024948Y-77589047D01*
X90853151Y-77585447D01*
X90685328Y-77548550D01*
X90527866Y-77479756D01*
X90386770Y-77381692D01*
X90267405Y-77258086D01*
X90174322Y-77113649D01*
X90111064Y-76953878D01*
X90080047Y-76784876D01*
X90082445Y-76613059D01*
X90118172Y-76444980D01*
X90185862Y-76287045D01*
X90282943Y-76145263D01*
X90405711Y-76025039D01*
X90549496Y-75930950D01*
X90708816Y-75866579D01*
X90877601Y-75834383D01*
X91049435Y-75835582D01*
X91049435Y-75835582D01*
G37*
G36*
X78835698Y-77541958D02*
X77933298Y-77541958D01*
X77933298Y-76589558D01*
X78835698Y-76589558D01*
X78835698Y-77541958D01*
X78835698Y-77541958D01*
G37*
G36*
X94837600Y-77160200D02*
X93935200Y-77160200D01*
X93935200Y-76207800D01*
X94837600Y-76207800D01*
X94837600Y-77160200D01*
X94837600Y-77160200D01*
G37*
G36*
X39069900Y-77091700D02*
X37917500Y-77091700D01*
X37917500Y-75689300D01*
X39069900Y-75689300D01*
X39069900Y-77091700D01*
X39069900Y-77091700D01*
G37*
G36*
X37069900Y-77091700D02*
X35917500Y-77091700D01*
X35917500Y-75689300D01*
X37069900Y-75689300D01*
X37069900Y-77091700D01*
X37069900Y-77091700D01*
G37*
G36*
X100214843Y-75133757D02*
X100375858Y-75166809D01*
X100527401Y-75230511D01*
X100663673Y-75322429D01*
X100779506Y-75439072D01*
X100870468Y-75575982D01*
X100933110Y-75727963D01*
X100964968Y-75888856D01*
X100964968Y-75888866D01*
X100965036Y-75889210D01*
X100962415Y-76076963D01*
X100962337Y-76077306D01*
X100962337Y-76077309D01*
X100925997Y-76237261D01*
X100859140Y-76387425D01*
X100764384Y-76521747D01*
X100645345Y-76635108D01*
X100506553Y-76723188D01*
X100353299Y-76782631D01*
X100191419Y-76811175D01*
X100027073Y-76807732D01*
X99866528Y-76772435D01*
X99715894Y-76706624D01*
X99580918Y-76612813D01*
X99466730Y-76494568D01*
X99377683Y-76356394D01*
X99317169Y-76203553D01*
X99287497Y-76041881D01*
X99289791Y-75877516D01*
X99323969Y-75716726D01*
X99388723Y-75565640D01*
X99481594Y-75430007D01*
X99599037Y-75314998D01*
X99736586Y-75224988D01*
X99888997Y-75163410D01*
X100050462Y-75132609D01*
X100214843Y-75133757D01*
X100214843Y-75133757D01*
G37*
G36*
X72670598Y-76694058D02*
X70613198Y-76694058D01*
X70613198Y-75144658D01*
X72670598Y-75144658D01*
X72670598Y-76694058D01*
X72670598Y-76694058D01*
G37*
G36*
X77140998Y-76694058D02*
X75083598Y-76694058D01*
X75083598Y-75144658D01*
X77140998Y-75144658D01*
X77140998Y-76694058D01*
X77140998Y-76694058D01*
G37*
G36*
X40874900Y-76638500D02*
X39922500Y-76638500D01*
X39922500Y-75736100D01*
X40874900Y-75736100D01*
X40874900Y-76638500D01*
X40874900Y-76638500D01*
G37*
G36*
X42374900Y-76638500D02*
X41422500Y-76638500D01*
X41422500Y-75736100D01*
X42374900Y-75736100D01*
X42374900Y-76638500D01*
X42374900Y-76638500D01*
G37*
G36*
X33610500Y-76587700D02*
X32658100Y-76587700D01*
X32658100Y-75685300D01*
X33610500Y-75685300D01*
X33610500Y-76587700D01*
X33610500Y-76587700D01*
G37*
G36*
X35110500Y-76587700D02*
X34158100Y-76587700D01*
X34158100Y-75685300D01*
X35110500Y-75685300D01*
X35110500Y-76587700D01*
X35110500Y-76587700D01*
G37*
G36*
X59296956Y-76550214D02*
X57644556Y-76550214D01*
X57644556Y-75797814D01*
X59296956Y-75797814D01*
X59296956Y-76550214D01*
X59296956Y-76550214D01*
G37*
G36*
X53896956Y-76550214D02*
X52244556Y-76550214D01*
X52244556Y-75797814D01*
X53896956Y-75797814D01*
X53896956Y-76550214D01*
X53896956Y-76550214D01*
G37*
G36*
X28381971Y-76463539D02*
X27429571Y-76463539D01*
X27429571Y-75561139D01*
X28381971Y-75561139D01*
X28381971Y-76463539D01*
X28381971Y-76463539D01*
G37*
G36*
X29881971Y-76463539D02*
X28929571Y-76463539D01*
X28929571Y-75561139D01*
X29881971Y-75561139D01*
X29881971Y-76463539D01*
X29881971Y-76463539D01*
G37*
G36*
X47871756Y-76087814D02*
X46719356Y-76087814D01*
X46719356Y-74685414D01*
X47871756Y-74685414D01*
X47871756Y-76087814D01*
X47871756Y-76087814D01*
G37*
G36*
X49871756Y-76087814D02*
X48719356Y-76087814D01*
X48719356Y-74685414D01*
X49871756Y-74685414D01*
X49871756Y-76087814D01*
X49871756Y-76087814D01*
G37*
G36*
X78835698Y-76041958D02*
X77933298Y-76041958D01*
X77933298Y-75089558D01*
X78835698Y-75089558D01*
X78835698Y-76041958D01*
X78835698Y-76041958D01*
G37*
G36*
X69958600Y-75813000D02*
X69006200Y-75813000D01*
X69006200Y-74910600D01*
X69958600Y-74910600D01*
X69958600Y-75813000D01*
X69958600Y-75813000D01*
G37*
G36*
X68458600Y-75813000D02*
X67506200Y-75813000D01*
X67506200Y-74910600D01*
X68458600Y-74910600D01*
X68458600Y-75813000D01*
X68458600Y-75813000D01*
G37*
G36*
X31629700Y-75672900D02*
X30727300Y-75672900D01*
X30727300Y-74720500D01*
X31629700Y-74720500D01*
X31629700Y-75672900D01*
X31629700Y-75672900D01*
G37*
G36*
X94837600Y-75660200D02*
X93935200Y-75660200D01*
X93935200Y-74707800D01*
X94837600Y-74707800D01*
X94837600Y-75660200D01*
X94837600Y-75660200D01*
G37*
G36*
X51451856Y-75558014D02*
X50549456Y-75558014D01*
X50549456Y-74605614D01*
X51451856Y-74605614D01*
X51451856Y-75558014D01*
X51451856Y-75558014D01*
G37*
G36*
X59296956Y-75280214D02*
X57644556Y-75280214D01*
X57644556Y-74527814D01*
X59296956Y-74527814D01*
X59296956Y-75280214D01*
X59296956Y-75280214D01*
G37*
G36*
X53896956Y-75280214D02*
X52244556Y-75280214D01*
X52244556Y-74527814D01*
X53896956Y-74527814D01*
X53896956Y-75280214D01*
X53896956Y-75280214D01*
G37*
G36*
X80918400Y-74962400D02*
X80016000Y-74962400D01*
X80016000Y-74010000D01*
X80918400Y-74010000D01*
X80918400Y-74962400D01*
X80918400Y-74962400D01*
G37*
G36*
X39911300Y-74854500D02*
X39158900Y-74854500D01*
X39158900Y-73202100D01*
X39911300Y-73202100D01*
X39911300Y-74854500D01*
X39911300Y-74854500D01*
G37*
G36*
X41181300Y-74854500D02*
X40428900Y-74854500D01*
X40428900Y-73202100D01*
X41181300Y-73202100D01*
X41181300Y-74854500D01*
X41181300Y-74854500D01*
G37*
G36*
X38641300Y-74854500D02*
X37888900Y-74854500D01*
X37888900Y-73202100D01*
X38641300Y-73202100D01*
X38641300Y-74854500D01*
X38641300Y-74854500D01*
G37*
G36*
X37371300Y-74854500D02*
X36618900Y-74854500D01*
X36618900Y-73202100D01*
X37371300Y-73202100D01*
X37371300Y-74854500D01*
X37371300Y-74854500D01*
G37*
G36*
X36101300Y-74854500D02*
X35348900Y-74854500D01*
X35348900Y-73202100D01*
X36101300Y-73202100D01*
X36101300Y-74854500D01*
X36101300Y-74854500D01*
G37*
G36*
X34831300Y-74854500D02*
X34078900Y-74854500D01*
X34078900Y-73202100D01*
X34831300Y-73202100D01*
X34831300Y-74854500D01*
X34831300Y-74854500D01*
G37*
G36*
X33561300Y-74854500D02*
X32808900Y-74854500D01*
X32808900Y-73202100D01*
X33561300Y-73202100D01*
X33561300Y-74854500D01*
X33561300Y-74854500D01*
G37*
G36*
X45471400Y-74745600D02*
X42819000Y-74745600D01*
X42819000Y-73593200D01*
X45471400Y-73593200D01*
X45471400Y-74745600D01*
X45471400Y-74745600D01*
G37*
G36*
X100214843Y-72593757D02*
X100375858Y-72626809D01*
X100527401Y-72690511D01*
X100663673Y-72782429D01*
X100779506Y-72899072D01*
X100870468Y-73035982D01*
X100933110Y-73187963D01*
X100964968Y-73348856D01*
X100964968Y-73348866D01*
X100965036Y-73349210D01*
X100962415Y-73536963D01*
X100962337Y-73537306D01*
X100962337Y-73537309D01*
X100925997Y-73697261D01*
X100859140Y-73847425D01*
X100764384Y-73981747D01*
X100645345Y-74095108D01*
X100506553Y-74183188D01*
X100353299Y-74242631D01*
X100191419Y-74271175D01*
X100027073Y-74267732D01*
X99866528Y-74232435D01*
X99715894Y-74166624D01*
X99580918Y-74072813D01*
X99466730Y-73954568D01*
X99377683Y-73816394D01*
X99317169Y-73663553D01*
X99287497Y-73501881D01*
X99289791Y-73337516D01*
X99323969Y-73176726D01*
X99388723Y-73025640D01*
X99481594Y-72890007D01*
X99599037Y-72774998D01*
X99736586Y-72684988D01*
X99888997Y-72623410D01*
X100050462Y-72592609D01*
X100214843Y-72593757D01*
X100214843Y-72593757D01*
G37*
G36*
X31629700Y-74172900D02*
X30727300Y-74172900D01*
X30727300Y-73220500D01*
X31629700Y-73220500D01*
X31629700Y-74172900D01*
X31629700Y-74172900D01*
G37*
G36*
X51451856Y-74058014D02*
X50549456Y-74058014D01*
X50549456Y-73105614D01*
X51451856Y-73105614D01*
X51451856Y-74058014D01*
X51451856Y-74058014D01*
G37*
G36*
X59296956Y-74010214D02*
X57644556Y-74010214D01*
X57644556Y-73257814D01*
X59296956Y-73257814D01*
X59296956Y-74010214D01*
X59296956Y-74010214D01*
G37*
G36*
X53896956Y-74010214D02*
X52244556Y-74010214D01*
X52244556Y-73257814D01*
X53896956Y-73257814D01*
X53896956Y-74010214D01*
X53896956Y-74010214D01*
G37*
G36*
X94812200Y-73983800D02*
X93909800Y-73983800D01*
X93909800Y-73031400D01*
X94812200Y-73031400D01*
X94812200Y-73983800D01*
X94812200Y-73983800D01*
G37*
G36*
X49798856Y-73928814D02*
X48646456Y-73928814D01*
X48646456Y-72526414D01*
X49798856Y-72526414D01*
X49798856Y-73928814D01*
X49798856Y-73928814D01*
G37*
G36*
X47798856Y-73928814D02*
X46646456Y-73928814D01*
X46646456Y-72526414D01*
X47798856Y-72526414D01*
X47798856Y-73928814D01*
X47798856Y-73928814D01*
G37*
G36*
X73011098Y-73579358D02*
X67108698Y-73579358D01*
X67108698Y-72126958D01*
X73011098Y-72126958D01*
X73011098Y-73579358D01*
X73011098Y-73579358D01*
G37*
G36*
X79146968Y-73468058D02*
X78244568Y-73468058D01*
X78244568Y-72515658D01*
X79146968Y-72515658D01*
X79146968Y-73468058D01*
X79146968Y-73468058D01*
G37*
G36*
X77368968Y-73468058D02*
X76466568Y-73468058D01*
X76466568Y-72515658D01*
X77368968Y-72515658D01*
X77368968Y-73468058D01*
X77368968Y-73468058D01*
G37*
G36*
X80918400Y-73462400D02*
X80016000Y-73462400D01*
X80016000Y-72510000D01*
X80918400Y-72510000D01*
X80918400Y-73462400D01*
X80918400Y-73462400D01*
G37*
G36*
X59296956Y-72740214D02*
X57644556Y-72740214D01*
X57644556Y-71987814D01*
X59296956Y-71987814D01*
X59296956Y-72740214D01*
X59296956Y-72740214D01*
G37*
G36*
X53896956Y-72740214D02*
X52244556Y-72740214D01*
X52244556Y-71987814D01*
X53896956Y-71987814D01*
X53896956Y-72740214D01*
X53896956Y-72740214D01*
G37*
G36*
X91049435Y-70955582D02*
X91217750Y-70990133D01*
X91376162Y-71056723D01*
X91518616Y-71152809D01*
X91639694Y-71274735D01*
X91734781Y-71417854D01*
X91800263Y-71576724D01*
X91831743Y-71735714D01*
X91833638Y-71745284D01*
X91830897Y-71941548D01*
X91830820Y-71941886D01*
X91830820Y-71941895D01*
X91792829Y-72109113D01*
X91722940Y-72266085D01*
X91623890Y-72406498D01*
X91499453Y-72524997D01*
X91354370Y-72617070D01*
X91194169Y-72679208D01*
X91024948Y-72709047D01*
X90853151Y-72705447D01*
X90685328Y-72668550D01*
X90527866Y-72599756D01*
X90386770Y-72501692D01*
X90267405Y-72378086D01*
X90174322Y-72233649D01*
X90111064Y-72073878D01*
X90080047Y-71904876D01*
X90082445Y-71733059D01*
X90118172Y-71564980D01*
X90185862Y-71407045D01*
X90282943Y-71265263D01*
X90405711Y-71145039D01*
X90549496Y-71050950D01*
X90708816Y-70986579D01*
X90877601Y-70954383D01*
X91049435Y-70955582D01*
X91049435Y-70955582D01*
G37*
G36*
X31629700Y-72485200D02*
X30727300Y-72485200D01*
X30727300Y-71532800D01*
X31629700Y-71532800D01*
X31629700Y-72485200D01*
X31629700Y-72485200D01*
G37*
G36*
X94812200Y-72483800D02*
X93909800Y-72483800D01*
X93909800Y-71531400D01*
X94812200Y-71531400D01*
X94812200Y-72483800D01*
X94812200Y-72483800D01*
G37*
G36*
X61004800Y-72383600D02*
X60102400Y-72383600D01*
X60102400Y-71431200D01*
X61004800Y-71431200D01*
X61004800Y-72383600D01*
X61004800Y-72383600D01*
G37*
G36*
X62833600Y-72359600D02*
X61931200Y-72359600D01*
X61931200Y-71407200D01*
X62833600Y-71407200D01*
X62833600Y-72359600D01*
X62833600Y-72359600D01*
G37*
G36*
X83357600Y-72192200D02*
X82555200Y-72192200D01*
X82555200Y-70289800D01*
X83357600Y-70289800D01*
X83357600Y-72192200D01*
X83357600Y-72192200D01*
G37*
G36*
X84627600Y-72192200D02*
X83825200Y-72192200D01*
X83825200Y-70289800D01*
X84627600Y-70289800D01*
X84627600Y-72192200D01*
X84627600Y-72192200D01*
G37*
G36*
X85897600Y-72192200D02*
X85095200Y-72192200D01*
X85095200Y-70289800D01*
X85897600Y-70289800D01*
X85897600Y-72192200D01*
X85897600Y-72192200D01*
G37*
G36*
X87167600Y-72192200D02*
X86365200Y-72192200D01*
X86365200Y-70289800D01*
X87167600Y-70289800D01*
X87167600Y-72192200D01*
X87167600Y-72192200D01*
G37*
G36*
X79146968Y-71968058D02*
X78244568Y-71968058D01*
X78244568Y-71015658D01*
X79146968Y-71015658D01*
X79146968Y-71968058D01*
X79146968Y-71968058D01*
G37*
G36*
X77368968Y-71968058D02*
X76466568Y-71968058D01*
X76466568Y-71015658D01*
X77368968Y-71015658D01*
X77368968Y-71968058D01*
X77368968Y-71968058D01*
G37*
G36*
X45471400Y-71745600D02*
X42819000Y-71745600D01*
X42819000Y-70593200D01*
X45471400Y-70593200D01*
X45471400Y-71745600D01*
X45471400Y-71745600D01*
G37*
G36*
X48924156Y-71735714D02*
X47971756Y-71735714D01*
X47971756Y-70833314D01*
X48924156Y-70833314D01*
X48924156Y-71735714D01*
X48924156Y-71735714D01*
G37*
G36*
X47424156Y-71735714D02*
X46471756Y-71735714D01*
X46471756Y-70833314D01*
X47424156Y-70833314D01*
X47424156Y-71735714D01*
X47424156Y-71735714D01*
G37*
G36*
X100214843Y-70053757D02*
X100375858Y-70086809D01*
X100527401Y-70150511D01*
X100663673Y-70242429D01*
X100779506Y-70359072D01*
X100870468Y-70495982D01*
X100933110Y-70647963D01*
X100964968Y-70808856D01*
X100964968Y-70808866D01*
X100965036Y-70809210D01*
X100962415Y-70996963D01*
X100962337Y-70997306D01*
X100962337Y-70997309D01*
X100925997Y-71157261D01*
X100859140Y-71307425D01*
X100764384Y-71441747D01*
X100645345Y-71555108D01*
X100506553Y-71643188D01*
X100353299Y-71702631D01*
X100191419Y-71731175D01*
X100027073Y-71727732D01*
X99866528Y-71692435D01*
X99715894Y-71626624D01*
X99580918Y-71532813D01*
X99466730Y-71414568D01*
X99377683Y-71276394D01*
X99317169Y-71123553D01*
X99287497Y-70961881D01*
X99289791Y-70797516D01*
X99323969Y-70636726D01*
X99388723Y-70485640D01*
X99481594Y-70350007D01*
X99599037Y-70234998D01*
X99736586Y-70144988D01*
X99888997Y-70083410D01*
X100050462Y-70052609D01*
X100214843Y-70053757D01*
X100214843Y-70053757D01*
G37*
G36*
X51439156Y-71544814D02*
X50536756Y-71544814D01*
X50536756Y-70592414D01*
X51439156Y-70592414D01*
X51439156Y-71544814D01*
X51439156Y-71544814D01*
G37*
G36*
X53896956Y-71470214D02*
X52244556Y-71470214D01*
X52244556Y-70717814D01*
X53896956Y-70717814D01*
X53896956Y-71470214D01*
X53896956Y-71470214D01*
G37*
G36*
X59296956Y-71470214D02*
X57644556Y-71470214D01*
X57644556Y-70717814D01*
X59296956Y-70717814D01*
X59296956Y-71470214D01*
X59296956Y-71470214D01*
G37*
G36*
X75136098Y-71454358D02*
X73683698Y-71454358D01*
X73683698Y-65551958D01*
X75136098Y-65551958D01*
X75136098Y-71454358D01*
X75136098Y-71454358D01*
G37*
G36*
X66436098Y-71454358D02*
X64983698Y-71454358D01*
X64983698Y-65551958D01*
X66436098Y-65551958D01*
X66436098Y-71454358D01*
X66436098Y-71454358D01*
G37*
G36*
X31629700Y-70985200D02*
X30727300Y-70985200D01*
X30727300Y-70032800D01*
X31629700Y-70032800D01*
X31629700Y-70985200D01*
X31629700Y-70985200D01*
G37*
G36*
X61004800Y-70883600D02*
X60102400Y-70883600D01*
X60102400Y-69931200D01*
X61004800Y-69931200D01*
X61004800Y-70883600D01*
X61004800Y-70883600D01*
G37*
G36*
X62833600Y-70859600D02*
X61931200Y-70859600D01*
X61931200Y-69907200D01*
X62833600Y-69907200D01*
X62833600Y-70859600D01*
X62833600Y-70859600D01*
G37*
G36*
X53896956Y-70200214D02*
X52244556Y-70200214D01*
X52244556Y-69447814D01*
X53896956Y-69447814D01*
X53896956Y-70200214D01*
X53896956Y-70200214D01*
G37*
G36*
X59296956Y-70200214D02*
X57644556Y-70200214D01*
X57644556Y-69447814D01*
X59296956Y-69447814D01*
X59296956Y-70200214D01*
X59296956Y-70200214D01*
G37*
G36*
X51439156Y-70044814D02*
X50536756Y-70044814D01*
X50536756Y-69092414D01*
X51439156Y-69092414D01*
X51439156Y-70044814D01*
X51439156Y-70044814D01*
G37*
G36*
X49000356Y-69995814D02*
X48047956Y-69995814D01*
X48047956Y-69093414D01*
X49000356Y-69093414D01*
X49000356Y-69995814D01*
X49000356Y-69995814D01*
G37*
G36*
X47500356Y-69995814D02*
X46547956Y-69995814D01*
X46547956Y-69093414D01*
X47500356Y-69093414D01*
X47500356Y-69995814D01*
X47500356Y-69995814D01*
G37*
G36*
X43859400Y-69920200D02*
X42907000Y-69920200D01*
X42907000Y-69017800D01*
X43859400Y-69017800D01*
X43859400Y-69920200D01*
X43859400Y-69920200D01*
G37*
G36*
X45359400Y-69920200D02*
X44407000Y-69920200D01*
X44407000Y-69017800D01*
X45359400Y-69017800D01*
X45359400Y-69920200D01*
X45359400Y-69920200D01*
G37*
G36*
X34831300Y-69454500D02*
X34078900Y-69454500D01*
X34078900Y-67802100D01*
X34831300Y-67802100D01*
X34831300Y-69454500D01*
X34831300Y-69454500D01*
G37*
G36*
X33561300Y-69454500D02*
X32808900Y-69454500D01*
X32808900Y-67802100D01*
X33561300Y-67802100D01*
X33561300Y-69454500D01*
X33561300Y-69454500D01*
G37*
G36*
X41181300Y-69454500D02*
X40428900Y-69454500D01*
X40428900Y-67802100D01*
X41181300Y-67802100D01*
X41181300Y-69454500D01*
X41181300Y-69454500D01*
G37*
G36*
X39911300Y-69454500D02*
X39158900Y-69454500D01*
X39158900Y-67802100D01*
X39911300Y-67802100D01*
X39911300Y-69454500D01*
X39911300Y-69454500D01*
G37*
G36*
X38641300Y-69454500D02*
X37888900Y-69454500D01*
X37888900Y-67802100D01*
X38641300Y-67802100D01*
X38641300Y-69454500D01*
X38641300Y-69454500D01*
G37*
G36*
X37371300Y-69454500D02*
X36618900Y-69454500D01*
X36618900Y-67802100D01*
X37371300Y-67802100D01*
X37371300Y-69454500D01*
X37371300Y-69454500D01*
G37*
G36*
X36101300Y-69454500D02*
X35348900Y-69454500D01*
X35348900Y-67802100D01*
X36101300Y-67802100D01*
X36101300Y-69454500D01*
X36101300Y-69454500D01*
G37*
G36*
X31617038Y-69293162D02*
X30714638Y-69293162D01*
X30714638Y-68340762D01*
X31617038Y-68340762D01*
X31617038Y-69293162D01*
X31617038Y-69293162D01*
G37*
G36*
X100214843Y-67513757D02*
X100375858Y-67546809D01*
X100527401Y-67610511D01*
X100663673Y-67702429D01*
X100779506Y-67819072D01*
X100870468Y-67955982D01*
X100933110Y-68107963D01*
X100964968Y-68268856D01*
X100964968Y-68268866D01*
X100965036Y-68269210D01*
X100962415Y-68456963D01*
X100962337Y-68457306D01*
X100962337Y-68457309D01*
X100925997Y-68617261D01*
X100859140Y-68767425D01*
X100764384Y-68901747D01*
X100645345Y-69015108D01*
X100506553Y-69103188D01*
X100353299Y-69162631D01*
X100191419Y-69191175D01*
X100027073Y-69187732D01*
X99866528Y-69152435D01*
X99715894Y-69086624D01*
X99580918Y-68992813D01*
X99466730Y-68874568D01*
X99377683Y-68736394D01*
X99317169Y-68583553D01*
X99287497Y-68421881D01*
X99289791Y-68257516D01*
X99323969Y-68096726D01*
X99388723Y-67945640D01*
X99481594Y-67810007D01*
X99599037Y-67694998D01*
X99736586Y-67604988D01*
X99888997Y-67543410D01*
X100050462Y-67512609D01*
X100214843Y-67513757D01*
X100214843Y-67513757D01*
G37*
G36*
X61915298Y-69112958D02*
X60512898Y-69112958D01*
X60512898Y-67960558D01*
X61915298Y-67960558D01*
X61915298Y-69112958D01*
X61915298Y-69112958D01*
G37*
G36*
X63591298Y-68822958D02*
X62688898Y-68822958D01*
X62688898Y-67870558D01*
X63591298Y-67870558D01*
X63591298Y-68822958D01*
X63591298Y-68822958D01*
G37*
G36*
X87926800Y-68168400D02*
X86024400Y-68168400D01*
X86024400Y-67366000D01*
X87926800Y-67366000D01*
X87926800Y-68168400D01*
X87926800Y-68168400D01*
G37*
G36*
X82326800Y-68168400D02*
X80424400Y-68168400D01*
X80424400Y-67366000D01*
X82326800Y-67366000D01*
X82326800Y-68168400D01*
X82326800Y-68168400D01*
G37*
G36*
X48990200Y-68040600D02*
X48037800Y-68040600D01*
X48037800Y-67138200D01*
X48990200Y-67138200D01*
X48990200Y-68040600D01*
X48990200Y-68040600D01*
G37*
G36*
X47490200Y-68040600D02*
X46537800Y-68040600D01*
X46537800Y-67138200D01*
X47490200Y-67138200D01*
X47490200Y-68040600D01*
X47490200Y-68040600D01*
G37*
G36*
X59527600Y-67981200D02*
X58125200Y-67981200D01*
X58125200Y-66828800D01*
X59527600Y-66828800D01*
X59527600Y-67981200D01*
X59527600Y-67981200D01*
G37*
G36*
X31617038Y-67793162D02*
X30714638Y-67793162D01*
X30714638Y-66840762D01*
X31617038Y-66840762D01*
X31617038Y-67793162D01*
X31617038Y-67793162D01*
G37*
G36*
X63591298Y-67322958D02*
X62688898Y-67322958D01*
X62688898Y-66370558D01*
X63591298Y-66370558D01*
X63591298Y-67322958D01*
X63591298Y-67322958D01*
G37*
G36*
X61915298Y-67112958D02*
X60512898Y-67112958D01*
X60512898Y-65960558D01*
X61915298Y-65960558D01*
X61915298Y-67112958D01*
X61915298Y-67112958D01*
G37*
G36*
X35579400Y-67075000D02*
X34677000Y-67075000D01*
X34677000Y-66122600D01*
X35579400Y-66122600D01*
X35579400Y-67075000D01*
X35579400Y-67075000D01*
G37*
G36*
X33890300Y-67051000D02*
X32987900Y-67051000D01*
X32987900Y-66098600D01*
X33890300Y-66098600D01*
X33890300Y-67051000D01*
X33890300Y-67051000D01*
G37*
G36*
X38930900Y-67022600D02*
X36278500Y-67022600D01*
X36278500Y-65870200D01*
X38930900Y-65870200D01*
X38930900Y-67022600D01*
X38930900Y-67022600D01*
G37*
G36*
X40670300Y-66961100D02*
X39717900Y-66961100D01*
X39717900Y-66058700D01*
X40670300Y-66058700D01*
X40670300Y-66961100D01*
X40670300Y-66961100D01*
G37*
G36*
X42170300Y-66961100D02*
X41217900Y-66961100D01*
X41217900Y-66058700D01*
X42170300Y-66058700D01*
X42170300Y-66961100D01*
X42170300Y-66961100D01*
G37*
G36*
X87926800Y-66898400D02*
X86024400Y-66898400D01*
X86024400Y-66096000D01*
X87926800Y-66096000D01*
X87926800Y-66898400D01*
X87926800Y-66898400D01*
G37*
G36*
X82326800Y-66898400D02*
X80424400Y-66898400D01*
X80424400Y-66096000D01*
X82326800Y-66096000D01*
X82326800Y-66898400D01*
X82326800Y-66898400D01*
G37*
G36*
X77083098Y-66709558D02*
X76180698Y-66709558D01*
X76180698Y-65757158D01*
X77083098Y-65757158D01*
X77083098Y-66709558D01*
X77083098Y-66709558D01*
G37*
G36*
X45687300Y-66695200D02*
X43034900Y-66695200D01*
X43034900Y-65542800D01*
X45687300Y-65542800D01*
X45687300Y-66695200D01*
X45687300Y-66695200D01*
G37*
G36*
X100214843Y-64973757D02*
X100375858Y-65006809D01*
X100527401Y-65070511D01*
X100663673Y-65162429D01*
X100779506Y-65279072D01*
X100870468Y-65415982D01*
X100933110Y-65567963D01*
X100964968Y-65728856D01*
X100964968Y-65728866D01*
X100965036Y-65729210D01*
X100962415Y-65916963D01*
X100962337Y-65917306D01*
X100962337Y-65917309D01*
X100925997Y-66077261D01*
X100859140Y-66227425D01*
X100764384Y-66361747D01*
X100645345Y-66475108D01*
X100506553Y-66563188D01*
X100353299Y-66622631D01*
X100191419Y-66651175D01*
X100027073Y-66647732D01*
X99866528Y-66612435D01*
X99715894Y-66546624D01*
X99580918Y-66452813D01*
X99466730Y-66334568D01*
X99377683Y-66196394D01*
X99317169Y-66043553D01*
X99287497Y-65881881D01*
X99289791Y-65717516D01*
X99323969Y-65556726D01*
X99388723Y-65405640D01*
X99481594Y-65270007D01*
X99599037Y-65154998D01*
X99736586Y-65064988D01*
X99888997Y-65003410D01*
X100050462Y-64972609D01*
X100214843Y-64973757D01*
X100214843Y-64973757D01*
G37*
G36*
X59527600Y-65981200D02*
X58125200Y-65981200D01*
X58125200Y-64828800D01*
X59527600Y-64828800D01*
X59527600Y-65981200D01*
X59527600Y-65981200D01*
G37*
G36*
X31109000Y-65844500D02*
X30206600Y-65844500D01*
X30206600Y-64892100D01*
X31109000Y-64892100D01*
X31109000Y-65844500D01*
X31109000Y-65844500D01*
G37*
G36*
X90062400Y-65704800D02*
X89160000Y-65704800D01*
X89160000Y-64752400D01*
X90062400Y-64752400D01*
X90062400Y-65704800D01*
X90062400Y-65704800D01*
G37*
G36*
X82326800Y-65628400D02*
X80424400Y-65628400D01*
X80424400Y-64826000D01*
X82326800Y-64826000D01*
X82326800Y-65628400D01*
X82326800Y-65628400D01*
G37*
G36*
X87926800Y-65628400D02*
X86024400Y-65628400D01*
X86024400Y-64826000D01*
X87926800Y-64826000D01*
X87926800Y-65628400D01*
X87926800Y-65628400D01*
G37*
G36*
X35579400Y-65575000D02*
X34677000Y-65575000D01*
X34677000Y-64622600D01*
X35579400Y-64622600D01*
X35579400Y-65575000D01*
X35579400Y-65575000D01*
G37*
G36*
X33890300Y-65551000D02*
X32987900Y-65551000D01*
X32987900Y-64598600D01*
X33890300Y-64598600D01*
X33890300Y-65551000D01*
X33890300Y-65551000D01*
G37*
G36*
X77083098Y-65209558D02*
X76180698Y-65209558D01*
X76180698Y-64257158D01*
X77083098Y-64257158D01*
X77083098Y-65209558D01*
X77083098Y-65209558D01*
G37*
G36*
X40532400Y-65030300D02*
X39630000Y-65030300D01*
X39630000Y-64077900D01*
X40532400Y-64077900D01*
X40532400Y-65030300D01*
X40532400Y-65030300D01*
G37*
G36*
X42221500Y-65018300D02*
X41319100Y-65018300D01*
X41319100Y-64065900D01*
X42221500Y-64065900D01*
X42221500Y-65018300D01*
X42221500Y-65018300D01*
G37*
G36*
X73011098Y-64879358D02*
X67108698Y-64879358D01*
X67108698Y-63426958D01*
X73011098Y-63426958D01*
X73011098Y-64879358D01*
X73011098Y-64879358D01*
G37*
G36*
X87926800Y-64358400D02*
X86024400Y-64358400D01*
X86024400Y-63556000D01*
X87926800Y-63556000D01*
X87926800Y-64358400D01*
X87926800Y-64358400D01*
G37*
G36*
X82326800Y-64358400D02*
X80424400Y-64358400D01*
X80424400Y-63556000D01*
X82326800Y-63556000D01*
X82326800Y-64358400D01*
X82326800Y-64358400D01*
G37*
G36*
X31109000Y-64344500D02*
X30206600Y-64344500D01*
X30206600Y-63392100D01*
X31109000Y-63392100D01*
X31109000Y-64344500D01*
X31109000Y-64344500D01*
G37*
G36*
X90062400Y-64204800D02*
X89160000Y-64204800D01*
X89160000Y-63252400D01*
X90062400Y-63252400D01*
X90062400Y-64204800D01*
X90062400Y-64204800D01*
G37*
G36*
X100214843Y-62433757D02*
X100375858Y-62466809D01*
X100527401Y-62530511D01*
X100663673Y-62622429D01*
X100779506Y-62739072D01*
X100870468Y-62875982D01*
X100933110Y-63027963D01*
X100964968Y-63188856D01*
X100964968Y-63188866D01*
X100965036Y-63189210D01*
X100962415Y-63376963D01*
X100962337Y-63377306D01*
X100962337Y-63377309D01*
X100925997Y-63537261D01*
X100859140Y-63687425D01*
X100764384Y-63821747D01*
X100645345Y-63935108D01*
X100506553Y-64023188D01*
X100353299Y-64082631D01*
X100191419Y-64111175D01*
X100027073Y-64107732D01*
X99866528Y-64072435D01*
X99715894Y-64006624D01*
X99580918Y-63912813D01*
X99466730Y-63794568D01*
X99377683Y-63656394D01*
X99317169Y-63503553D01*
X99287497Y-63341881D01*
X99289791Y-63177516D01*
X99323969Y-63016726D01*
X99388723Y-62865640D01*
X99481594Y-62730007D01*
X99599037Y-62614998D01*
X99736586Y-62524988D01*
X99888997Y-62463410D01*
X100050462Y-62432609D01*
X100214843Y-62433757D01*
X100214843Y-62433757D01*
G37*
G36*
X38930900Y-64022600D02*
X36278500Y-64022600D01*
X36278500Y-62870200D01*
X38930900Y-62870200D01*
X38930900Y-64022600D01*
X38930900Y-64022600D01*
G37*
G36*
X33990800Y-63938500D02*
X33038400Y-63938500D01*
X33038400Y-63036100D01*
X33990800Y-63036100D01*
X33990800Y-63938500D01*
X33990800Y-63938500D01*
G37*
G36*
X35490800Y-63938500D02*
X34538400Y-63938500D01*
X34538400Y-63036100D01*
X35490800Y-63036100D01*
X35490800Y-63938500D01*
X35490800Y-63938500D01*
G37*
G36*
X45687300Y-63695200D02*
X43034900Y-63695200D01*
X43034900Y-62542800D01*
X45687300Y-62542800D01*
X45687300Y-63695200D01*
X45687300Y-63695200D01*
G37*
G36*
X40532400Y-63530300D02*
X39630000Y-63530300D01*
X39630000Y-62577900D01*
X40532400Y-62577900D01*
X40532400Y-63530300D01*
X40532400Y-63530300D01*
G37*
G36*
X42221500Y-63518300D02*
X41319100Y-63518300D01*
X41319100Y-62565900D01*
X42221500Y-62565900D01*
X42221500Y-63518300D01*
X42221500Y-63518300D01*
G37*
G36*
X71465600Y-62291600D02*
X70063200Y-62291600D01*
X70063200Y-61139200D01*
X71465600Y-61139200D01*
X71465600Y-62291600D01*
X71465600Y-62291600D01*
G37*
G36*
X69234400Y-62223600D02*
X68332000Y-62223600D01*
X68332000Y-61271200D01*
X69234400Y-61271200D01*
X69234400Y-62223600D01*
X69234400Y-62223600D01*
G37*
G36*
X34280000Y-61790200D02*
X32877600Y-61790200D01*
X32877600Y-60637800D01*
X34280000Y-60637800D01*
X34280000Y-61790200D01*
X34280000Y-61790200D01*
G37*
G36*
X82714200Y-61661200D02*
X80861800Y-61661200D01*
X80861800Y-60708800D01*
X82714200Y-60708800D01*
X82714200Y-61661200D01*
X82714200Y-61661200D01*
G37*
G36*
X100214843Y-59893757D02*
X100375858Y-59926809D01*
X100527401Y-59990511D01*
X100663673Y-60082429D01*
X100779506Y-60199072D01*
X100870468Y-60335982D01*
X100933110Y-60487963D01*
X100964968Y-60648856D01*
X100964968Y-60648866D01*
X100965036Y-60649210D01*
X100962415Y-60836963D01*
X100962337Y-60837306D01*
X100962337Y-60837309D01*
X100925997Y-60997261D01*
X100859140Y-61147425D01*
X100764384Y-61281747D01*
X100645345Y-61395108D01*
X100506553Y-61483188D01*
X100353299Y-61542631D01*
X100191419Y-61571175D01*
X100027073Y-61567732D01*
X99866528Y-61532435D01*
X99715894Y-61466624D01*
X99580918Y-61372813D01*
X99466730Y-61254568D01*
X99377683Y-61116394D01*
X99317169Y-60963553D01*
X99287497Y-60801881D01*
X99289791Y-60637516D01*
X99323969Y-60476726D01*
X99388723Y-60325640D01*
X99481594Y-60190007D01*
X99599037Y-60074998D01*
X99736586Y-59984988D01*
X99888997Y-59923410D01*
X100050462Y-59892609D01*
X100214843Y-59893757D01*
X100214843Y-59893757D01*
G37*
G36*
X78862898Y-61566758D02*
X77910498Y-61566758D01*
X77910498Y-60664358D01*
X78862898Y-60664358D01*
X78862898Y-61566758D01*
X78862898Y-61566758D01*
G37*
G36*
X77362898Y-61566758D02*
X76410498Y-61566758D01*
X76410498Y-60664358D01*
X77362898Y-60664358D01*
X77362898Y-61566758D01*
X77362898Y-61566758D01*
G37*
G36*
X62825326Y-59603042D02*
X62825331Y-59603044D01*
X62825373Y-59603048D01*
X63000587Y-59657286D01*
X63161929Y-59744523D01*
X63303255Y-59861438D01*
X63419179Y-60003576D01*
X63505288Y-60165523D01*
X63558302Y-60341112D01*
X63576200Y-60523653D01*
X63576200Y-60532780D01*
X63576123Y-60543812D01*
X63576122Y-60543817D01*
X63576108Y-60545869D01*
X63555663Y-60728142D01*
X63500203Y-60902974D01*
X63411842Y-61063703D01*
X63293944Y-61204208D01*
X63151000Y-61319138D01*
X62988455Y-61404114D01*
X62812501Y-61455901D01*
X62812465Y-61455904D01*
X62812456Y-61455907D01*
X62629842Y-61472526D01*
X62447474Y-61453358D01*
X62447469Y-61453356D01*
X62447427Y-61453352D01*
X62272213Y-61399114D01*
X62110871Y-61311877D01*
X61969545Y-61194962D01*
X61853621Y-61052824D01*
X61767512Y-60890877D01*
X61714498Y-60715288D01*
X61696600Y-60532747D01*
X61696600Y-60523620D01*
X61696677Y-60512588D01*
X61696678Y-60512583D01*
X61696692Y-60510531D01*
X61717137Y-60328258D01*
X61772597Y-60153426D01*
X61860958Y-59992697D01*
X61978856Y-59852192D01*
X62121800Y-59737262D01*
X62284345Y-59652286D01*
X62460299Y-59600499D01*
X62460335Y-59600496D01*
X62460344Y-59600493D01*
X62642958Y-59583874D01*
X62825326Y-59603042D01*
X62825326Y-59603042D01*
G37*
G36*
X60285326Y-59603042D02*
X60285331Y-59603044D01*
X60285373Y-59603048D01*
X60460587Y-59657286D01*
X60621929Y-59744523D01*
X60763255Y-59861438D01*
X60879179Y-60003576D01*
X60965288Y-60165523D01*
X61018302Y-60341112D01*
X61036200Y-60523653D01*
X61036200Y-60532780D01*
X61036123Y-60543812D01*
X61036122Y-60543817D01*
X61036108Y-60545869D01*
X61015663Y-60728142D01*
X60960203Y-60902974D01*
X60871842Y-61063703D01*
X60753944Y-61204208D01*
X60611000Y-61319138D01*
X60448455Y-61404114D01*
X60272501Y-61455901D01*
X60272465Y-61455904D01*
X60272456Y-61455907D01*
X60089842Y-61472526D01*
X59907474Y-61453358D01*
X59907469Y-61453356D01*
X59907427Y-61453352D01*
X59732213Y-61399114D01*
X59570871Y-61311877D01*
X59429545Y-61194962D01*
X59313621Y-61052824D01*
X59227512Y-60890877D01*
X59174498Y-60715288D01*
X59156600Y-60532747D01*
X59156600Y-60523620D01*
X59156677Y-60512588D01*
X59156678Y-60512583D01*
X59156692Y-60510531D01*
X59177137Y-60328258D01*
X59232597Y-60153426D01*
X59320958Y-59992697D01*
X59438856Y-59852192D01*
X59581800Y-59737262D01*
X59744345Y-59652286D01*
X59920299Y-59600499D01*
X59920335Y-59600496D01*
X59920344Y-59600493D01*
X60102958Y-59583874D01*
X60285326Y-59603042D01*
X60285326Y-59603042D01*
G37*
G36*
X65365326Y-59603042D02*
X65365331Y-59603044D01*
X65365373Y-59603048D01*
X65540587Y-59657286D01*
X65701929Y-59744523D01*
X65843255Y-59861438D01*
X65959179Y-60003576D01*
X66045288Y-60165523D01*
X66098302Y-60341112D01*
X66116200Y-60523653D01*
X66116200Y-60532780D01*
X66116123Y-60543812D01*
X66116122Y-60543817D01*
X66116108Y-60545869D01*
X66095663Y-60728142D01*
X66040203Y-60902974D01*
X65951842Y-61063703D01*
X65833944Y-61204208D01*
X65691000Y-61319138D01*
X65528455Y-61404114D01*
X65352501Y-61455901D01*
X65352465Y-61455904D01*
X65352456Y-61455907D01*
X65169842Y-61472526D01*
X64987474Y-61453358D01*
X64987469Y-61453356D01*
X64987427Y-61453352D01*
X64812213Y-61399114D01*
X64650871Y-61311877D01*
X64509545Y-61194962D01*
X64393621Y-61052824D01*
X64307512Y-60890877D01*
X64254498Y-60715288D01*
X64236600Y-60532747D01*
X64236600Y-60523620D01*
X64236677Y-60512588D01*
X64236678Y-60512583D01*
X64236692Y-60510531D01*
X64257137Y-60328258D01*
X64312597Y-60153426D01*
X64400958Y-59992697D01*
X64518856Y-59852192D01*
X64661800Y-59737262D01*
X64824345Y-59652286D01*
X65000299Y-59600499D01*
X65000335Y-59600496D01*
X65000344Y-59600493D01*
X65182958Y-59583874D01*
X65365326Y-59603042D01*
X65365326Y-59603042D01*
G37*
G36*
X25369826Y-59690366D02*
X25499720Y-59717030D01*
X25621975Y-59768421D01*
X25731913Y-59842575D01*
X25825350Y-59936667D01*
X25898739Y-60047126D01*
X25949273Y-60169730D01*
X25974960Y-60299459D01*
X25974960Y-60299474D01*
X25975027Y-60299813D01*
X25972912Y-60451278D01*
X25972836Y-60451612D01*
X25972836Y-60451625D01*
X25943534Y-60580596D01*
X25889599Y-60701737D01*
X25813157Y-60810100D01*
X25717124Y-60901551D01*
X25605158Y-60972607D01*
X25481520Y-61020563D01*
X25350929Y-61043590D01*
X25218345Y-61040812D01*
X25088829Y-61012337D01*
X24967308Y-60959245D01*
X24858419Y-60883565D01*
X24766300Y-60788174D01*
X24694463Y-60676704D01*
X24645644Y-60553402D01*
X24621707Y-60422977D01*
X24623558Y-60290379D01*
X24651130Y-60160664D01*
X24703369Y-60038779D01*
X24778291Y-59929360D01*
X24873039Y-59836576D01*
X24983997Y-59763966D01*
X25106955Y-59714288D01*
X25237213Y-59689441D01*
X25369826Y-59690366D01*
X25369826Y-59690366D01*
G37*
G36*
X28524998Y-60892318D02*
X26972598Y-60892318D01*
X26972598Y-59139918D01*
X28524998Y-59139918D01*
X28524998Y-60892318D01*
X28524998Y-60892318D01*
G37*
G36*
X69234400Y-60723600D02*
X68332000Y-60723600D01*
X68332000Y-59771200D01*
X69234400Y-59771200D01*
X69234400Y-60723600D01*
X69234400Y-60723600D01*
G37*
G36*
X71465600Y-60291600D02*
X70063200Y-60291600D01*
X70063200Y-59139200D01*
X71465600Y-59139200D01*
X71465600Y-60291600D01*
X71465600Y-60291600D01*
G37*
G36*
X77360600Y-59861800D02*
X76408200Y-59861800D01*
X76408200Y-58959400D01*
X77360600Y-58959400D01*
X77360600Y-59861800D01*
X77360600Y-59861800D01*
G37*
G36*
X78860600Y-59861800D02*
X77908200Y-59861800D01*
X77908200Y-58959400D01*
X78860600Y-58959400D01*
X78860600Y-59861800D01*
X78860600Y-59861800D01*
G37*
G36*
X52757020Y-59823700D02*
X51804620Y-59823700D01*
X51804620Y-58921300D01*
X52757020Y-58921300D01*
X52757020Y-59823700D01*
X52757020Y-59823700D01*
G37*
G36*
X51257020Y-59823700D02*
X50304620Y-59823700D01*
X50304620Y-58921300D01*
X51257020Y-58921300D01*
X51257020Y-59823700D01*
X51257020Y-59823700D01*
G37*
G36*
X55273460Y-59793220D02*
X54321060Y-59793220D01*
X54321060Y-58890820D01*
X55273460Y-58890820D01*
X55273460Y-59793220D01*
X55273460Y-59793220D01*
G37*
G36*
X56773460Y-59793220D02*
X55821060Y-59793220D01*
X55821060Y-58890820D01*
X56773460Y-58890820D01*
X56773460Y-59793220D01*
X56773460Y-59793220D01*
G37*
G36*
X34280000Y-59790200D02*
X32877600Y-59790200D01*
X32877600Y-58637800D01*
X34280000Y-58637800D01*
X34280000Y-59790200D01*
X34280000Y-59790200D01*
G37*
G36*
X31526480Y-59719020D02*
X30624080Y-59719020D01*
X30624080Y-58766620D01*
X31526480Y-58766620D01*
X31526480Y-59719020D01*
X31526480Y-59719020D01*
G37*
G36*
X94323800Y-59245400D02*
X93171400Y-59245400D01*
X93171400Y-57843000D01*
X94323800Y-57843000D01*
X94323800Y-59245400D01*
X94323800Y-59245400D01*
G37*
G36*
X92323800Y-59245400D02*
X91171400Y-59245400D01*
X91171400Y-57843000D01*
X92323800Y-57843000D01*
X92323800Y-59245400D01*
X92323800Y-59245400D01*
G37*
G36*
X26324998Y-59042318D02*
X24272598Y-59042318D01*
X24272598Y-56989918D01*
X26324998Y-56989918D01*
X26324998Y-59042318D01*
X26324998Y-59042318D01*
G37*
G36*
X100214843Y-57353757D02*
X100375858Y-57386809D01*
X100527401Y-57450511D01*
X100663673Y-57542429D01*
X100779506Y-57659072D01*
X100870468Y-57795982D01*
X100933110Y-57947963D01*
X100964968Y-58108856D01*
X100964968Y-58108866D01*
X100965036Y-58109210D01*
X100962415Y-58296963D01*
X100962337Y-58297306D01*
X100962337Y-58297309D01*
X100925997Y-58457261D01*
X100859140Y-58607425D01*
X100764384Y-58741747D01*
X100645345Y-58855108D01*
X100506553Y-58943188D01*
X100353299Y-59002631D01*
X100191419Y-59031175D01*
X100027073Y-59027732D01*
X99866528Y-58992435D01*
X99715894Y-58926624D01*
X99580918Y-58832813D01*
X99466730Y-58714568D01*
X99377683Y-58576394D01*
X99317169Y-58423553D01*
X99287497Y-58261881D01*
X99289791Y-58097516D01*
X99323969Y-57936726D01*
X99388723Y-57785640D01*
X99481594Y-57650007D01*
X99599037Y-57534998D01*
X99736586Y-57444988D01*
X99888997Y-57383410D01*
X100050462Y-57352609D01*
X100214843Y-57353757D01*
X100214843Y-57353757D01*
G37*
G36*
X62825326Y-57063042D02*
X62825331Y-57063044D01*
X62825373Y-57063048D01*
X63000587Y-57117286D01*
X63161929Y-57204523D01*
X63303255Y-57321438D01*
X63419179Y-57463576D01*
X63505288Y-57625523D01*
X63558302Y-57801112D01*
X63576200Y-57983653D01*
X63576200Y-57992780D01*
X63576123Y-58003812D01*
X63576122Y-58003817D01*
X63576108Y-58005869D01*
X63555663Y-58188142D01*
X63500203Y-58362974D01*
X63411842Y-58523703D01*
X63293944Y-58664208D01*
X63151000Y-58779138D01*
X62988455Y-58864114D01*
X62812501Y-58915901D01*
X62812465Y-58915904D01*
X62812456Y-58915907D01*
X62629842Y-58932526D01*
X62447474Y-58913358D01*
X62447469Y-58913356D01*
X62447427Y-58913352D01*
X62272213Y-58859114D01*
X62110871Y-58771877D01*
X61969545Y-58654962D01*
X61853621Y-58512824D01*
X61767512Y-58350877D01*
X61714498Y-58175288D01*
X61696600Y-57992747D01*
X61696600Y-57983620D01*
X61696677Y-57972588D01*
X61696678Y-57972583D01*
X61696692Y-57970531D01*
X61717137Y-57788258D01*
X61772597Y-57613426D01*
X61860958Y-57452697D01*
X61978856Y-57312192D01*
X62121800Y-57197262D01*
X62284345Y-57112286D01*
X62460299Y-57060499D01*
X62460335Y-57060496D01*
X62460344Y-57060493D01*
X62642958Y-57043874D01*
X62825326Y-57063042D01*
X62825326Y-57063042D01*
G37*
G36*
X60285326Y-57063042D02*
X60285331Y-57063044D01*
X60285373Y-57063048D01*
X60460587Y-57117286D01*
X60621929Y-57204523D01*
X60763255Y-57321438D01*
X60879179Y-57463576D01*
X60965288Y-57625523D01*
X61018302Y-57801112D01*
X61036200Y-57983653D01*
X61036200Y-57992780D01*
X61036123Y-58003812D01*
X61036122Y-58003817D01*
X61036108Y-58005869D01*
X61015663Y-58188142D01*
X60960203Y-58362974D01*
X60871842Y-58523703D01*
X60753944Y-58664208D01*
X60611000Y-58779138D01*
X60448455Y-58864114D01*
X60272501Y-58915901D01*
X60272465Y-58915904D01*
X60272456Y-58915907D01*
X60089842Y-58932526D01*
X59907474Y-58913358D01*
X59907469Y-58913356D01*
X59907427Y-58913352D01*
X59732213Y-58859114D01*
X59570871Y-58771877D01*
X59429545Y-58654962D01*
X59313621Y-58512824D01*
X59227512Y-58350877D01*
X59174498Y-58175288D01*
X59156600Y-57992747D01*
X59156600Y-57983620D01*
X59156677Y-57972588D01*
X59156678Y-57972583D01*
X59156692Y-57970531D01*
X59177137Y-57788258D01*
X59232597Y-57613426D01*
X59320958Y-57452697D01*
X59438856Y-57312192D01*
X59581800Y-57197262D01*
X59744345Y-57112286D01*
X59920299Y-57060499D01*
X59920335Y-57060496D01*
X59920344Y-57060493D01*
X60102958Y-57043874D01*
X60285326Y-57063042D01*
X60285326Y-57063042D01*
G37*
G36*
X66116200Y-58928000D02*
X64236600Y-58928000D01*
X64236600Y-57048400D01*
X66116200Y-57048400D01*
X66116200Y-58928000D01*
X66116200Y-58928000D01*
G37*
G36*
X69082000Y-58718400D02*
X68179600Y-58718400D01*
X68179600Y-57766000D01*
X69082000Y-57766000D01*
X69082000Y-58718400D01*
X69082000Y-58718400D01*
G37*
G36*
X28724998Y-58392318D02*
X27222598Y-58392318D01*
X27222598Y-55239918D01*
X28724998Y-55239918D01*
X28724998Y-58392318D01*
X28724998Y-58392318D01*
G37*
G36*
X82714200Y-58261200D02*
X80861800Y-58261200D01*
X80861800Y-57308800D01*
X82714200Y-57308800D01*
X82714200Y-58261200D01*
X82714200Y-58261200D01*
G37*
G36*
X31526480Y-58219020D02*
X30624080Y-58219020D01*
X30624080Y-57266620D01*
X31526480Y-57266620D01*
X31526480Y-58219020D01*
X31526480Y-58219020D01*
G37*
G36*
X77360600Y-58185400D02*
X76408200Y-58185400D01*
X76408200Y-57283000D01*
X77360600Y-57283000D01*
X77360600Y-58185400D01*
X77360600Y-58185400D01*
G37*
G36*
X78860600Y-58185400D02*
X77908200Y-58185400D01*
X77908200Y-57283000D01*
X78860600Y-57283000D01*
X78860600Y-58185400D01*
X78860600Y-58185400D01*
G37*
G36*
X52757020Y-58055860D02*
X51804620Y-58055860D01*
X51804620Y-57153460D01*
X52757020Y-57153460D01*
X52757020Y-58055860D01*
X52757020Y-58055860D01*
G37*
G36*
X51257020Y-58055860D02*
X50304620Y-58055860D01*
X50304620Y-57153460D01*
X51257020Y-57153460D01*
X51257020Y-58055860D01*
X51257020Y-58055860D01*
G37*
G36*
X55279240Y-58048240D02*
X54326840Y-58048240D01*
X54326840Y-57145840D01*
X55279240Y-57145840D01*
X55279240Y-58048240D01*
X55279240Y-58048240D01*
G37*
G36*
X56779240Y-58048240D02*
X55826840Y-58048240D01*
X55826840Y-57145840D01*
X56779240Y-57145840D01*
X56779240Y-58048240D01*
X56779240Y-58048240D01*
G37*
G36*
X69082000Y-57218400D02*
X68179600Y-57218400D01*
X68179600Y-56266000D01*
X69082000Y-56266000D01*
X69082000Y-57218400D01*
X69082000Y-57218400D01*
G37*
G36*
X92273850Y-57019430D02*
X91321350Y-57019430D01*
X91321350Y-56066930D01*
X92273850Y-56066930D01*
X92273850Y-57019430D01*
X92273850Y-57019430D01*
G37*
G36*
X94173850Y-57019430D02*
X93221350Y-57019430D01*
X93221350Y-56066930D01*
X94173850Y-56066930D01*
X94173850Y-57019430D01*
X94173850Y-57019430D01*
G37*
G36*
X26324998Y-56642318D02*
X24272598Y-56642318D01*
X24272598Y-54589918D01*
X26324998Y-54589918D01*
X26324998Y-56642318D01*
X26324998Y-56642318D01*
G37*
G36*
X100214843Y-54813757D02*
X100375858Y-54846809D01*
X100527401Y-54910511D01*
X100663673Y-55002429D01*
X100779506Y-55119072D01*
X100870468Y-55255982D01*
X100933110Y-55407963D01*
X100964968Y-55568856D01*
X100964968Y-55568866D01*
X100965036Y-55569210D01*
X100962415Y-55756963D01*
X100962337Y-55757306D01*
X100962337Y-55757309D01*
X100925997Y-55917261D01*
X100859140Y-56067425D01*
X100764384Y-56201747D01*
X100645345Y-56315108D01*
X100506553Y-56403188D01*
X100353299Y-56462631D01*
X100191419Y-56491175D01*
X100027073Y-56487732D01*
X99866528Y-56452435D01*
X99715894Y-56386624D01*
X99580918Y-56292813D01*
X99466730Y-56174568D01*
X99377683Y-56036394D01*
X99317169Y-55883553D01*
X99287497Y-55721881D01*
X99289791Y-55557516D01*
X99323969Y-55396726D01*
X99388723Y-55245640D01*
X99481594Y-55110007D01*
X99599037Y-54994998D01*
X99736586Y-54904988D01*
X99888997Y-54843410D01*
X100050462Y-54812609D01*
X100214843Y-54813757D01*
X100214843Y-54813757D01*
G37*
G36*
X55257520Y-56232140D02*
X54305120Y-56232140D01*
X54305120Y-55329740D01*
X55257520Y-55329740D01*
X55257520Y-56232140D01*
X55257520Y-56232140D01*
G37*
G36*
X56757520Y-56232140D02*
X55805120Y-56232140D01*
X55805120Y-55329740D01*
X56757520Y-55329740D01*
X56757520Y-56232140D01*
X56757520Y-56232140D01*
G37*
G36*
X51257020Y-56232140D02*
X50304620Y-56232140D01*
X50304620Y-55329740D01*
X51257020Y-55329740D01*
X51257020Y-56232140D01*
X51257020Y-56232140D01*
G37*
G36*
X52757020Y-56232140D02*
X51804620Y-56232140D01*
X51804620Y-55329740D01*
X52757020Y-55329740D01*
X52757020Y-56232140D01*
X52757020Y-56232140D01*
G37*
G36*
X48271430Y-55590440D02*
X46318170Y-55590440D01*
X46318170Y-52938680D01*
X48271430Y-52938680D01*
X48271430Y-55590440D01*
X48271430Y-55590440D01*
G37*
G36*
X39017800Y-55576600D02*
X37865400Y-55576600D01*
X37865400Y-52424200D01*
X39017800Y-52424200D01*
X39017800Y-55576600D01*
X39017800Y-55576600D01*
G37*
G36*
X43617800Y-55576600D02*
X42465400Y-55576600D01*
X42465400Y-52424200D01*
X43617800Y-52424200D01*
X43617800Y-55576600D01*
X43617800Y-55576600D01*
G37*
G36*
X93223850Y-55020450D02*
X92271350Y-55020450D01*
X92271350Y-54067950D01*
X93223850Y-54067950D01*
X93223850Y-55020450D01*
X93223850Y-55020450D01*
G37*
G36*
X31546480Y-54679020D02*
X30644080Y-54679020D01*
X30644080Y-53726620D01*
X31546480Y-53726620D01*
X31546480Y-54679020D01*
X31546480Y-54679020D01*
G37*
G36*
X28524998Y-54492318D02*
X26972598Y-54492318D01*
X26972598Y-52739918D01*
X28524998Y-52739918D01*
X28524998Y-54492318D01*
X28524998Y-54492318D01*
G37*
G36*
X89512280Y-54400240D02*
X88609880Y-54400240D01*
X88609880Y-53447840D01*
X89512280Y-53447840D01*
X89512280Y-54400240D01*
X89512280Y-54400240D01*
G37*
G36*
X86425780Y-54362540D02*
X85473380Y-54362540D01*
X85473380Y-53460140D01*
X86425780Y-53460140D01*
X86425780Y-54362540D01*
X86425780Y-54362540D01*
G37*
G36*
X87925780Y-54362540D02*
X86973380Y-54362540D01*
X86973380Y-53460140D01*
X87925780Y-53460140D01*
X87925780Y-54362540D01*
X87925780Y-54362540D01*
G37*
G36*
X100214843Y-52273757D02*
X100375858Y-52306809D01*
X100527401Y-52370511D01*
X100663673Y-52462429D01*
X100779506Y-52579072D01*
X100870468Y-52715982D01*
X100933110Y-52867963D01*
X100964968Y-53028856D01*
X100964968Y-53028866D01*
X100965036Y-53029210D01*
X100962415Y-53216963D01*
X100962337Y-53217306D01*
X100962337Y-53217309D01*
X100925997Y-53377261D01*
X100859140Y-53527425D01*
X100764384Y-53661747D01*
X100645345Y-53775108D01*
X100506553Y-53863188D01*
X100353299Y-53922631D01*
X100191419Y-53951175D01*
X100027073Y-53947732D01*
X99866528Y-53912435D01*
X99715894Y-53846624D01*
X99580918Y-53752813D01*
X99466730Y-53634568D01*
X99377683Y-53496394D01*
X99317169Y-53343553D01*
X99287497Y-53181881D01*
X99289791Y-53017516D01*
X99323969Y-52856726D01*
X99388723Y-52705640D01*
X99481594Y-52570007D01*
X99599037Y-52454998D01*
X99736586Y-52364988D01*
X99888997Y-52303410D01*
X100050462Y-52272609D01*
X100214843Y-52273757D01*
X100214843Y-52273757D01*
G37*
G36*
X25369826Y-52590366D02*
X25499720Y-52617030D01*
X25621975Y-52668421D01*
X25731913Y-52742575D01*
X25825350Y-52836667D01*
X25898739Y-52947126D01*
X25949273Y-53069730D01*
X25974960Y-53199459D01*
X25974960Y-53199474D01*
X25975027Y-53199813D01*
X25972912Y-53351278D01*
X25972836Y-53351612D01*
X25972836Y-53351625D01*
X25943534Y-53480596D01*
X25889599Y-53601737D01*
X25813157Y-53710100D01*
X25717124Y-53801551D01*
X25605158Y-53872607D01*
X25481520Y-53920563D01*
X25350929Y-53943590D01*
X25218345Y-53940812D01*
X25088829Y-53912337D01*
X24967308Y-53859245D01*
X24858419Y-53783565D01*
X24766300Y-53688174D01*
X24694463Y-53576704D01*
X24645644Y-53453402D01*
X24621707Y-53322977D01*
X24623558Y-53190379D01*
X24651130Y-53060664D01*
X24703369Y-52938779D01*
X24778291Y-52829360D01*
X24873039Y-52736576D01*
X24983997Y-52663966D01*
X25106955Y-52614288D01*
X25237213Y-52589441D01*
X25369826Y-52590366D01*
X25369826Y-52590366D01*
G37*
G36*
X35115276Y-49412580D02*
X35514116Y-49494451D01*
X35889473Y-49652236D01*
X36227026Y-49879919D01*
X36513928Y-50168830D01*
X36739247Y-50507964D01*
X36894405Y-50884406D01*
X36973422Y-51283469D01*
X36973422Y-51283479D01*
X36973489Y-51283818D01*
X36966995Y-51748876D01*
X36966919Y-51749210D01*
X36966919Y-51749223D01*
X36876790Y-52145925D01*
X36711184Y-52517884D01*
X36476479Y-52850597D01*
X36181622Y-53131386D01*
X35837843Y-53349556D01*
X35458231Y-53496797D01*
X35057257Y-53567500D01*
X34650180Y-53558972D01*
X34252512Y-53471539D01*
X33879401Y-53308531D01*
X33545063Y-53076160D01*
X33262222Y-52783270D01*
X33041658Y-52441020D01*
X32891768Y-52062444D01*
X32818269Y-51661975D01*
X32823953Y-51254849D01*
X32908608Y-50856580D01*
X33069006Y-50482343D01*
X33299041Y-50146385D01*
X33589948Y-49861508D01*
X33930650Y-49638559D01*
X34308167Y-49486032D01*
X34708116Y-49409738D01*
X35115276Y-49412580D01*
X35115276Y-49412580D01*
G37*
G36*
X84687280Y-53371940D02*
X83734880Y-53371940D01*
X83734880Y-52469540D01*
X84687280Y-52469540D01*
X84687280Y-53371940D01*
X84687280Y-53371940D01*
G37*
G36*
X83187280Y-53371940D02*
X82234880Y-53371940D01*
X82234880Y-52469540D01*
X83187280Y-52469540D01*
X83187280Y-53371940D01*
X83187280Y-53371940D01*
G37*
G36*
X68915360Y-53309720D02*
X67762960Y-53309720D01*
X67762960Y-49657320D01*
X68915360Y-49657320D01*
X68915360Y-53309720D01*
X68915360Y-53309720D01*
G37*
G36*
X66915360Y-53309720D02*
X65762960Y-53309720D01*
X65762960Y-49657320D01*
X66915360Y-49657320D01*
X66915360Y-53309720D01*
X66915360Y-53309720D01*
G37*
G36*
X60108180Y-53291120D02*
X59205780Y-53291120D01*
X59205780Y-52338720D01*
X60108180Y-52338720D01*
X60108180Y-53291120D01*
X60108180Y-53291120D01*
G37*
G36*
X61931900Y-53286740D02*
X61029500Y-53286740D01*
X61029500Y-52334340D01*
X61931900Y-52334340D01*
X61931900Y-53286740D01*
X61931900Y-53286740D01*
G37*
G36*
X92523800Y-53245400D02*
X91371400Y-53245400D01*
X91371400Y-51843000D01*
X92523800Y-51843000D01*
X92523800Y-53245400D01*
X92523800Y-53245400D01*
G37*
G36*
X94523800Y-53245400D02*
X93371400Y-53245400D01*
X93371400Y-51843000D01*
X94523800Y-51843000D01*
X94523800Y-53245400D01*
X94523800Y-53245400D01*
G37*
G36*
X31546480Y-53179020D02*
X30644080Y-53179020D01*
X30644080Y-52226620D01*
X31546480Y-52226620D01*
X31546480Y-53179020D01*
X31546480Y-53179020D01*
G37*
G36*
X50136715Y-51054624D02*
X50317248Y-51091683D01*
X50487158Y-51163106D01*
X50639949Y-51266166D01*
X50769821Y-51396946D01*
X50871810Y-51550453D01*
X50942043Y-51720851D01*
X50977772Y-51901299D01*
X50977772Y-51901304D01*
X50977840Y-51901648D01*
X50974901Y-52112158D01*
X50974824Y-52112496D01*
X50974824Y-52112506D01*
X50934070Y-52291886D01*
X50859108Y-52460252D01*
X50752868Y-52610856D01*
X50619399Y-52737957D01*
X50463784Y-52836714D01*
X50291954Y-52903362D01*
X50110452Y-52935366D01*
X49926186Y-52931506D01*
X49746179Y-52891929D01*
X49577288Y-52818143D01*
X49425950Y-52712960D01*
X49297921Y-52580382D01*
X49198081Y-52425461D01*
X49130232Y-52254093D01*
X49096963Y-52072823D01*
X49099535Y-51888536D01*
X49137856Y-51708256D01*
X49210459Y-51538857D01*
X49314587Y-51386784D01*
X49446266Y-51257833D01*
X49600487Y-51156914D01*
X49771372Y-51087872D01*
X49952409Y-51053338D01*
X50136715Y-51054624D01*
X50136715Y-51054624D01*
G37*
G36*
X89512280Y-52900240D02*
X88609880Y-52900240D01*
X88609880Y-51947840D01*
X89512280Y-51947840D01*
X89512280Y-52900240D01*
X89512280Y-52900240D01*
G37*
G36*
X74936720Y-52744660D02*
X73534320Y-52744660D01*
X73534320Y-51592260D01*
X74936720Y-51592260D01*
X74936720Y-52744660D01*
X74936720Y-52744660D01*
G37*
G36*
X86489680Y-52736540D02*
X85587280Y-52736540D01*
X85587280Y-51784140D01*
X86489680Y-51784140D01*
X86489680Y-52736540D01*
X86489680Y-52736540D01*
G37*
G36*
X77171920Y-52709860D02*
X75769520Y-52709860D01*
X75769520Y-51557460D01*
X77171920Y-51557460D01*
X77171920Y-52709860D01*
X77171920Y-52709860D01*
G37*
G36*
X80466480Y-52546140D02*
X79118880Y-52546140D01*
X79118880Y-49148540D01*
X80466480Y-49148540D01*
X80466480Y-52546140D01*
X80466480Y-52546140D01*
G37*
G36*
X57334340Y-52499220D02*
X54881940Y-52499220D01*
X54881940Y-51616820D01*
X57334340Y-51616820D01*
X57334340Y-52499220D01*
X57334340Y-52499220D01*
G37*
G36*
X53097240Y-52200000D02*
X52444840Y-52200000D01*
X52444840Y-51447600D01*
X53097240Y-51447600D01*
X53097240Y-52200000D01*
X53097240Y-52200000D01*
G37*
G36*
X78789680Y-51994340D02*
X77945680Y-51994340D01*
X77945680Y-51700340D01*
X78789680Y-51700340D01*
X78789680Y-51994340D01*
X78789680Y-51994340D01*
G37*
G36*
X81639680Y-51994340D02*
X80795680Y-51994340D01*
X80795680Y-51700340D01*
X81639680Y-51700340D01*
X81639680Y-51994340D01*
X81639680Y-51994340D01*
G37*
G36*
X60108180Y-51791120D02*
X59205780Y-51791120D01*
X59205780Y-50838720D01*
X60108180Y-50838720D01*
X60108180Y-51791120D01*
X60108180Y-51791120D01*
G37*
G36*
X61931900Y-51786740D02*
X61029500Y-51786740D01*
X61029500Y-50834340D01*
X61931900Y-50834340D01*
X61931900Y-51786740D01*
X61931900Y-51786740D01*
G37*
G36*
X48271430Y-51592480D02*
X46318170Y-51592480D01*
X46318170Y-48940720D01*
X48271430Y-48940720D01*
X48271430Y-51592480D01*
X48271430Y-51592480D01*
G37*
G36*
X81639680Y-51494340D02*
X80795680Y-51494340D01*
X80795680Y-51200340D01*
X81639680Y-51200340D01*
X81639680Y-51494340D01*
X81639680Y-51494340D01*
G37*
G36*
X78789680Y-51494340D02*
X77945680Y-51494340D01*
X77945680Y-51200340D01*
X78789680Y-51200340D01*
X78789680Y-51494340D01*
X78789680Y-51494340D01*
G37*
G36*
X57434340Y-51419220D02*
X54781940Y-51419220D01*
X54781940Y-48766820D01*
X57434340Y-48766820D01*
X57434340Y-51419220D01*
X57434340Y-51419220D01*
G37*
G36*
X54584340Y-51319220D02*
X53701940Y-51319220D01*
X53701940Y-48866820D01*
X54584340Y-48866820D01*
X54584340Y-51319220D01*
X54584340Y-51319220D01*
G37*
G36*
X58514340Y-51319220D02*
X57631940Y-51319220D01*
X57631940Y-48866820D01*
X58514340Y-48866820D01*
X58514340Y-51319220D01*
X58514340Y-51319220D01*
G37*
G36*
X89640280Y-51238340D02*
X88687880Y-51238340D01*
X88687880Y-50335940D01*
X89640280Y-50335940D01*
X89640280Y-51238340D01*
X89640280Y-51238340D01*
G37*
G36*
X88140280Y-51238340D02*
X87187880Y-51238340D01*
X87187880Y-50335940D01*
X88140280Y-50335940D01*
X88140280Y-51238340D01*
X88140280Y-51238340D01*
G37*
G36*
X86489680Y-51236540D02*
X85587280Y-51236540D01*
X85587280Y-50284140D01*
X86489680Y-50284140D01*
X86489680Y-51236540D01*
X86489680Y-51236540D01*
G37*
G36*
X53097240Y-51100000D02*
X52444840Y-51100000D01*
X52444840Y-50347600D01*
X53097240Y-50347600D01*
X53097240Y-51100000D01*
X53097240Y-51100000D01*
G37*
G36*
X78789680Y-50994340D02*
X77945680Y-50994340D01*
X77945680Y-50700340D01*
X78789680Y-50700340D01*
X78789680Y-50994340D01*
X78789680Y-50994340D01*
G37*
G36*
X81639680Y-50994340D02*
X80795680Y-50994340D01*
X80795680Y-50700340D01*
X81639680Y-50700340D01*
X81639680Y-50994340D01*
X81639680Y-50994340D01*
G37*
G36*
X74936720Y-50744660D02*
X73534320Y-50744660D01*
X73534320Y-49592260D01*
X74936720Y-49592260D01*
X74936720Y-50744660D01*
X74936720Y-50744660D01*
G37*
G36*
X77171920Y-50709860D02*
X75769520Y-50709860D01*
X75769520Y-49557460D01*
X77171920Y-49557460D01*
X77171920Y-50709860D01*
X77171920Y-50709860D01*
G37*
G36*
X43724830Y-50525680D02*
X41771570Y-50525680D01*
X41771570Y-47873920D01*
X43724830Y-47873920D01*
X43724830Y-50525680D01*
X43724830Y-50525680D01*
G37*
G36*
X81639680Y-50494340D02*
X80795680Y-50494340D01*
X80795680Y-50200340D01*
X81639680Y-50200340D01*
X81639680Y-50494340D01*
X81639680Y-50494340D01*
G37*
G36*
X78789680Y-50494340D02*
X77945680Y-50494340D01*
X77945680Y-50200340D01*
X78789680Y-50200340D01*
X78789680Y-50494340D01*
X78789680Y-50494340D01*
G37*
G36*
X78789680Y-49994340D02*
X77945680Y-49994340D01*
X77945680Y-49700340D01*
X78789680Y-49700340D01*
X78789680Y-49994340D01*
X78789680Y-49994340D01*
G37*
G36*
X81639680Y-49994340D02*
X80795680Y-49994340D01*
X80795680Y-49700340D01*
X81639680Y-49700340D01*
X81639680Y-49994340D01*
X81639680Y-49994340D01*
G37*
G36*
X60980220Y-49550200D02*
X59227820Y-49550200D01*
X59227820Y-48397800D01*
X60980220Y-48397800D01*
X60980220Y-49550200D01*
X60980220Y-49550200D01*
G37*
G36*
X92851080Y-49432940D02*
X90198680Y-49432940D01*
X90198680Y-48280540D01*
X92851080Y-48280540D01*
X92851080Y-49432940D01*
X92851080Y-49432940D01*
G37*
G36*
X89041080Y-49432940D02*
X86388680Y-49432940D01*
X86388680Y-48280540D01*
X89041080Y-48280540D01*
X89041080Y-49432940D01*
X89041080Y-49432940D01*
G37*
G36*
X85231080Y-49432940D02*
X82578680Y-49432940D01*
X82578680Y-48280540D01*
X85231080Y-48280540D01*
X85231080Y-49432940D01*
X85231080Y-49432940D01*
G37*
G36*
X38115016Y-44713580D02*
X38513856Y-44795451D01*
X38889213Y-44953236D01*
X39226766Y-45180919D01*
X39513668Y-45469830D01*
X39738987Y-45808964D01*
X39894145Y-46185406D01*
X39973162Y-46584469D01*
X39973162Y-46584479D01*
X39973229Y-46584818D01*
X39966735Y-47049876D01*
X39966659Y-47050210D01*
X39966659Y-47050223D01*
X39876530Y-47446925D01*
X39710924Y-47818884D01*
X39476219Y-48151597D01*
X39181362Y-48432386D01*
X38837583Y-48650556D01*
X38457971Y-48797797D01*
X38056997Y-48868500D01*
X37649920Y-48859972D01*
X37252252Y-48772539D01*
X36879141Y-48609531D01*
X36544803Y-48377160D01*
X36261962Y-48084270D01*
X36041398Y-47742020D01*
X35891508Y-47363444D01*
X35818009Y-46962975D01*
X35823693Y-46555849D01*
X35908348Y-46157580D01*
X36068746Y-45783343D01*
X36298781Y-45447385D01*
X36589688Y-45162508D01*
X36930390Y-44939559D01*
X37307907Y-44787032D01*
X37707856Y-44710738D01*
X38115016Y-44713580D01*
X38115016Y-44713580D01*
G37*
G36*
X32115536Y-44713580D02*
X32514376Y-44795451D01*
X32889733Y-44953236D01*
X33227286Y-45180919D01*
X33514188Y-45469830D01*
X33739507Y-45808964D01*
X33894665Y-46185406D01*
X33973682Y-46584469D01*
X33973682Y-46584479D01*
X33973749Y-46584818D01*
X33967255Y-47049876D01*
X33967179Y-47050210D01*
X33967179Y-47050223D01*
X33877050Y-47446925D01*
X33711444Y-47818884D01*
X33476739Y-48151597D01*
X33181882Y-48432386D01*
X32838103Y-48650556D01*
X32458491Y-48797797D01*
X32057517Y-48868500D01*
X31650440Y-48859972D01*
X31252772Y-48772539D01*
X30879661Y-48609531D01*
X30545323Y-48377160D01*
X30262482Y-48084270D01*
X30041918Y-47742020D01*
X29892028Y-47363444D01*
X29818529Y-46962975D01*
X29824213Y-46555849D01*
X29908868Y-46157580D01*
X30069266Y-45783343D01*
X30299301Y-45447385D01*
X30590208Y-45162508D01*
X30930910Y-44939559D01*
X31308427Y-44787032D01*
X31708376Y-44710738D01*
X32115536Y-44713580D01*
X32115536Y-44713580D01*
G37*
G36*
X57334340Y-48569220D02*
X54881940Y-48569220D01*
X54881940Y-47686820D01*
X57334340Y-47686820D01*
X57334340Y-48569220D01*
X57334340Y-48569220D01*
G37*
G36*
X26681442Y-46346315D02*
X26888177Y-46388752D01*
X27082747Y-46470541D01*
X27257718Y-46588561D01*
X27406433Y-46738318D01*
X27523227Y-46914108D01*
X27603653Y-47109236D01*
X27644578Y-47315924D01*
X27644578Y-47315929D01*
X27644646Y-47316273D01*
X27641280Y-47557336D01*
X27641203Y-47557674D01*
X27641203Y-47557683D01*
X27594522Y-47763149D01*
X27508681Y-47955952D01*
X27387021Y-48128415D01*
X27234182Y-48273962D01*
X27055984Y-48387050D01*
X26859210Y-48463373D01*
X26651367Y-48500022D01*
X26440357Y-48495602D01*
X26234225Y-48450281D01*
X26040822Y-48365785D01*
X25867519Y-48245336D01*
X25720908Y-48093517D01*
X25606578Y-47916110D01*
X25528881Y-47719872D01*
X25490784Y-47512292D01*
X25493730Y-47301258D01*
X25537611Y-47094813D01*
X25620753Y-46900828D01*
X25739993Y-46726683D01*
X25890784Y-46579017D01*
X26067388Y-46463451D01*
X26263075Y-46384388D01*
X26470387Y-46344842D01*
X26681442Y-46346315D01*
X26681442Y-46346315D01*
G37*
G36*
X46777400Y-48094800D02*
X45625000Y-48094800D01*
X45625000Y-46342400D01*
X46777400Y-46342400D01*
X46777400Y-48094800D01*
X46777400Y-48094800D01*
G37*
G36*
X49777400Y-48094800D02*
X48625000Y-48094800D01*
X48625000Y-46342400D01*
X49777400Y-46342400D01*
X49777400Y-48094800D01*
X49777400Y-48094800D01*
G37*
G36*
X64815360Y-47709720D02*
X63062960Y-47709720D01*
X63062960Y-44157320D01*
X64815360Y-44157320D01*
X64815360Y-47709720D01*
X64815360Y-47709720D01*
G37*
G36*
X71615360Y-47709720D02*
X69862960Y-47709720D01*
X69862960Y-44157320D01*
X71615360Y-44157320D01*
X71615360Y-47709720D01*
X71615360Y-47709720D01*
G37*
G36*
X57890160Y-47028000D02*
X56737760Y-47028000D01*
X56737760Y-45275600D01*
X57890160Y-45275600D01*
X57890160Y-47028000D01*
X57890160Y-47028000D01*
G37*
G36*
X54890160Y-47028000D02*
X53737760Y-47028000D01*
X53737760Y-45275600D01*
X54890160Y-45275600D01*
X54890160Y-47028000D01*
X54890160Y-47028000D01*
G37*
G36*
X81717080Y-46967540D02*
X80664680Y-46967540D01*
X80664680Y-45615140D01*
X81717080Y-45615140D01*
X81717080Y-46967540D01*
X81717080Y-46967540D01*
G37*
G36*
X79017080Y-46967540D02*
X77964680Y-46967540D01*
X77964680Y-45615140D01*
X79017080Y-45615140D01*
X79017080Y-46967540D01*
X79017080Y-46967540D01*
G37*
G36*
X60980220Y-46550200D02*
X59227820Y-46550200D01*
X59227820Y-45397800D01*
X60980220Y-45397800D01*
X60980220Y-46550200D01*
X60980220Y-46550200D01*
G37*
G36*
X43724830Y-46527720D02*
X41771570Y-46527720D01*
X41771570Y-43875960D01*
X43724830Y-43875960D01*
X43724830Y-46527720D01*
X43724830Y-46527720D01*
G37*
G36*
X85231080Y-46432940D02*
X82578680Y-46432940D01*
X82578680Y-45280540D01*
X85231080Y-45280540D01*
X85231080Y-46432940D01*
X85231080Y-46432940D01*
G37*
G36*
X92851080Y-46432940D02*
X90198680Y-46432940D01*
X90198680Y-45280540D01*
X92851080Y-45280540D01*
X92851080Y-46432940D01*
X92851080Y-46432940D01*
G37*
G36*
X89041080Y-46432940D02*
X86388680Y-46432940D01*
X86388680Y-45280540D01*
X89041080Y-45280540D01*
X89041080Y-46432940D01*
X89041080Y-46432940D01*
G37*
G36*
X46829800Y-45485400D02*
X45877400Y-45485400D01*
X45877400Y-44583000D01*
X46829800Y-44583000D01*
X46829800Y-45485400D01*
X46829800Y-45485400D01*
G37*
G36*
X48329800Y-45485400D02*
X47377400Y-45485400D01*
X47377400Y-44583000D01*
X48329800Y-44583000D01*
X48329800Y-45485400D01*
X48329800Y-45485400D01*
G37*
M02*
