%TF.GenerationSoftware,KiCad,Pcbnew,4.0.5-e0-6337~49~ubuntu16.04.1*%
%TF.CreationDate,2017-08-09T07:16:44-07:00*%
%TF.ProjectId,mcphail-main-board,6D63706861696C2D6D61696E2D626F61,1.0*%
%TF.FileFunction,Soldermask,Top*%
%FSLAX46Y46*%
G04 Gerber Fmt 4.6, Leading zero omitted, Abs format (unit mm)*
G04 Created by KiCad (PCBNEW 4.0.5-e0-6337~49~ubuntu16.04.1) date Wed Aug  9 07:16:44 2017*
%MOMM*%
%LPD*%
G01*
G04 APERTURE LIST*
%ADD10C,0.350000*%
G04 APERTURE END LIST*
D10*
G36*
X219462700Y-96920100D02*
X218160300Y-96920100D01*
X218160300Y-95567700D01*
X219462700Y-95567700D01*
X219462700Y-96920100D01*
X219462700Y-96920100D01*
G37*
G36*
X216862700Y-96920100D02*
X215560300Y-96920100D01*
X215560300Y-95567700D01*
X216862700Y-95567700D01*
X216862700Y-96920100D01*
X216862700Y-96920100D01*
G37*
G36*
X243953042Y-94428515D02*
X244159777Y-94470952D01*
X244354347Y-94552741D01*
X244529318Y-94670761D01*
X244678033Y-94820518D01*
X244794827Y-94996308D01*
X244875253Y-95191436D01*
X244916178Y-95398124D01*
X244916178Y-95398129D01*
X244916246Y-95398473D01*
X244912880Y-95639536D01*
X244912803Y-95639874D01*
X244912803Y-95639883D01*
X244866122Y-95845349D01*
X244780281Y-96038152D01*
X244658621Y-96210615D01*
X244505782Y-96356162D01*
X244327584Y-96469250D01*
X244130810Y-96545573D01*
X243922967Y-96582222D01*
X243711957Y-96577802D01*
X243505825Y-96532481D01*
X243312422Y-96447985D01*
X243139119Y-96327536D01*
X242992508Y-96175717D01*
X242878178Y-95998310D01*
X242800481Y-95802072D01*
X242762384Y-95594492D01*
X242765330Y-95383458D01*
X242809211Y-95177013D01*
X242892353Y-94983028D01*
X243011593Y-94808883D01*
X243162384Y-94661217D01*
X243338988Y-94545651D01*
X243534675Y-94466588D01*
X243741987Y-94427042D01*
X243953042Y-94428515D01*
X243953042Y-94428515D01*
G37*
G36*
X204232370Y-94263717D02*
X204232375Y-94263719D01*
X204232417Y-94263723D01*
X204436045Y-94326756D01*
X204623550Y-94428140D01*
X204787793Y-94564014D01*
X204922517Y-94729201D01*
X205022589Y-94917410D01*
X205084199Y-95121472D01*
X205105000Y-95333615D01*
X205105000Y-95344185D01*
X205104894Y-95359434D01*
X205081133Y-95571266D01*
X205016680Y-95774448D01*
X204913989Y-95961242D01*
X204776972Y-96124532D01*
X204610849Y-96258099D01*
X204421945Y-96356855D01*
X204217458Y-96417039D01*
X204217417Y-96417043D01*
X204217413Y-96417044D01*
X204005177Y-96436359D01*
X203793230Y-96414083D01*
X203793225Y-96414081D01*
X203793183Y-96414077D01*
X203589555Y-96351044D01*
X203402050Y-96249660D01*
X203237807Y-96113786D01*
X203103083Y-95948599D01*
X203003011Y-95760390D01*
X202941401Y-95556328D01*
X202920600Y-95344185D01*
X202920600Y-95333615D01*
X202920706Y-95318366D01*
X202944467Y-95106534D01*
X203008920Y-94903352D01*
X203111611Y-94716558D01*
X203248628Y-94553268D01*
X203414751Y-94419701D01*
X203603655Y-94320945D01*
X203808142Y-94260761D01*
X203808183Y-94260757D01*
X203808187Y-94260756D01*
X204020423Y-94241441D01*
X204232370Y-94263717D01*
X204232370Y-94263717D01*
G37*
G36*
X207645000Y-96431100D02*
X205460600Y-96431100D01*
X205460600Y-94246700D01*
X207645000Y-94246700D01*
X207645000Y-96431100D01*
X207645000Y-96431100D01*
G37*
G36*
X171613842Y-93158515D02*
X171820577Y-93200952D01*
X172015147Y-93282741D01*
X172190118Y-93400761D01*
X172338833Y-93550518D01*
X172455627Y-93726308D01*
X172536053Y-93921436D01*
X172576978Y-94128124D01*
X172576978Y-94128129D01*
X172577046Y-94128473D01*
X172573680Y-94369536D01*
X172573603Y-94369874D01*
X172573603Y-94369883D01*
X172526922Y-94575349D01*
X172441081Y-94768152D01*
X172319421Y-94940615D01*
X172166582Y-95086162D01*
X171988384Y-95199250D01*
X171791610Y-95275573D01*
X171583767Y-95312222D01*
X171372757Y-95307802D01*
X171166625Y-95262481D01*
X170973222Y-95177985D01*
X170799919Y-95057536D01*
X170653308Y-94905717D01*
X170538978Y-94728310D01*
X170461281Y-94532072D01*
X170423184Y-94324492D01*
X170426130Y-94113458D01*
X170470011Y-93907013D01*
X170553153Y-93713028D01*
X170672393Y-93538883D01*
X170823184Y-93391217D01*
X170999788Y-93275651D01*
X171195475Y-93196588D01*
X171402787Y-93157042D01*
X171613842Y-93158515D01*
X171613842Y-93158515D01*
G37*
G36*
X215747700Y-95170100D02*
X214595300Y-95170100D01*
X214595300Y-94317700D01*
X215747700Y-94317700D01*
X215747700Y-95170100D01*
X215747700Y-95170100D01*
G37*
G36*
X190675829Y-94967661D02*
X189523429Y-94967661D01*
X189523429Y-93215261D01*
X190675829Y-93215261D01*
X190675829Y-94967661D01*
X190675829Y-94967661D01*
G37*
G36*
X193675829Y-94967661D02*
X192523429Y-94967661D01*
X192523429Y-93215261D01*
X193675829Y-93215261D01*
X193675829Y-94967661D01*
X193675829Y-94967661D01*
G37*
G36*
X198196200Y-94475300D02*
X196011800Y-94475300D01*
X196011800Y-92595700D01*
X198196200Y-92595700D01*
X198196200Y-94475300D01*
X198196200Y-94475300D01*
G37*
G36*
X238427970Y-92257517D02*
X238427975Y-92257519D01*
X238428017Y-92257523D01*
X238631645Y-92320556D01*
X238819150Y-92421940D01*
X238983393Y-92557814D01*
X239118117Y-92723001D01*
X239218189Y-92911210D01*
X239279799Y-93115272D01*
X239300600Y-93327415D01*
X239300600Y-93337985D01*
X239300494Y-93353234D01*
X239276733Y-93565066D01*
X239212280Y-93768248D01*
X239109589Y-93955042D01*
X238972572Y-94118332D01*
X238806449Y-94251899D01*
X238617545Y-94350655D01*
X238413058Y-94410839D01*
X238413017Y-94410843D01*
X238413013Y-94410844D01*
X238200777Y-94430159D01*
X237988830Y-94407883D01*
X237988825Y-94407881D01*
X237988783Y-94407877D01*
X237785155Y-94344844D01*
X237597650Y-94243460D01*
X237433407Y-94107586D01*
X237298683Y-93942399D01*
X237198611Y-93754190D01*
X237137001Y-93550128D01*
X237116200Y-93337985D01*
X237116200Y-93327415D01*
X237116306Y-93312166D01*
X237140067Y-93100334D01*
X237204520Y-92897152D01*
X237307211Y-92710358D01*
X237444228Y-92547068D01*
X237610351Y-92413501D01*
X237799255Y-92314745D01*
X238003742Y-92254561D01*
X238003783Y-92254557D01*
X238003787Y-92254556D01*
X238216023Y-92235241D01*
X238427970Y-92257517D01*
X238427970Y-92257517D01*
G37*
G36*
X236760600Y-94424900D02*
X234576200Y-94424900D01*
X234576200Y-92240500D01*
X236760600Y-92240500D01*
X236760600Y-94424900D01*
X236760600Y-94424900D01*
G37*
G36*
X188661829Y-94376961D02*
X186909429Y-94376961D01*
X186909429Y-93224561D01*
X188661829Y-93224561D01*
X188661829Y-94376961D01*
X188661829Y-94376961D01*
G37*
G36*
X215747700Y-94070100D02*
X214595300Y-94070100D01*
X214595300Y-93217700D01*
X215747700Y-93217700D01*
X215747700Y-94070100D01*
X215747700Y-94070100D01*
G37*
G36*
X178867829Y-94034661D02*
X177915429Y-94034661D01*
X177915429Y-93132261D01*
X178867829Y-93132261D01*
X178867829Y-94034661D01*
X178867829Y-94034661D01*
G37*
G36*
X180367829Y-94034661D02*
X179415429Y-94034661D01*
X179415429Y-93132261D01*
X180367829Y-93132261D01*
X180367829Y-94034661D01*
X180367829Y-94034661D01*
G37*
G36*
X183596937Y-94034661D02*
X182644537Y-94034661D01*
X182644537Y-93132261D01*
X183596937Y-93132261D01*
X183596937Y-94034661D01*
X183596937Y-94034661D01*
G37*
G36*
X182096937Y-94034661D02*
X181144537Y-94034661D01*
X181144537Y-93132261D01*
X182096937Y-93132261D01*
X182096937Y-94034661D01*
X182096937Y-94034661D01*
G37*
G36*
X210634200Y-93614400D02*
X209481800Y-93614400D01*
X209481800Y-92212000D01*
X210634200Y-92212000D01*
X210634200Y-93614400D01*
X210634200Y-93614400D01*
G37*
G36*
X212634200Y-93614400D02*
X211481800Y-93614400D01*
X211481800Y-92212000D01*
X212634200Y-92212000D01*
X212634200Y-93614400D01*
X212634200Y-93614400D01*
G37*
G36*
X215747700Y-92970100D02*
X214595300Y-92970100D01*
X214595300Y-92117700D01*
X215747700Y-92117700D01*
X215747700Y-92970100D01*
X215747700Y-92970100D01*
G37*
G36*
X207063137Y-92897935D02*
X205850737Y-92897935D01*
X205850737Y-92095535D01*
X207063137Y-92095535D01*
X207063137Y-92897935D01*
X207063137Y-92897935D01*
G37*
G36*
X204863137Y-92897935D02*
X203650737Y-92897935D01*
X203650737Y-92095535D01*
X204863137Y-92095535D01*
X204863137Y-92897935D01*
X204863137Y-92897935D01*
G37*
G36*
X177318829Y-92777661D02*
X176416429Y-92777661D01*
X176416429Y-91825261D01*
X177318829Y-91825261D01*
X177318829Y-92777661D01*
X177318829Y-92777661D01*
G37*
G36*
X193941829Y-92611661D02*
X191289429Y-92611661D01*
X191289429Y-91459261D01*
X193941829Y-91459261D01*
X193941829Y-92611661D01*
X193941829Y-92611661D01*
G37*
G36*
X190486829Y-92421661D02*
X189584429Y-92421661D01*
X189584429Y-91469261D01*
X190486829Y-91469261D01*
X190486829Y-92421661D01*
X190486829Y-92421661D01*
G37*
G36*
X201914429Y-92262761D02*
X200162029Y-92262761D01*
X200162029Y-91110361D01*
X201914429Y-91110361D01*
X201914429Y-92262761D01*
X201914429Y-92262761D01*
G37*
G36*
X204863137Y-91947935D02*
X203650737Y-91947935D01*
X203650737Y-91145535D01*
X204863137Y-91145535D01*
X204863137Y-91947935D01*
X204863137Y-91947935D01*
G37*
G36*
X197272749Y-90055777D02*
X197272754Y-90055778D01*
X197274807Y-90055792D01*
X197457080Y-90076237D01*
X197631912Y-90131697D01*
X197792641Y-90220058D01*
X197933146Y-90337956D01*
X198048076Y-90480900D01*
X198133052Y-90643445D01*
X198184839Y-90819399D01*
X198184843Y-90819440D01*
X198184844Y-90819444D01*
X198201463Y-91002058D01*
X198186223Y-91147057D01*
X198182290Y-91184473D01*
X198128052Y-91359687D01*
X198040815Y-91521029D01*
X197923900Y-91662355D01*
X197781762Y-91778279D01*
X197619815Y-91864388D01*
X197444226Y-91917402D01*
X197261685Y-91935300D01*
X196946283Y-91935300D01*
X196935251Y-91935223D01*
X196935246Y-91935222D01*
X196933193Y-91935208D01*
X196750920Y-91914763D01*
X196576088Y-91859303D01*
X196415359Y-91770942D01*
X196274854Y-91653044D01*
X196159924Y-91510100D01*
X196074948Y-91347555D01*
X196023161Y-91171601D01*
X196023157Y-91171560D01*
X196023156Y-91171556D01*
X196006537Y-90988942D01*
X196025705Y-90806574D01*
X196025710Y-90806527D01*
X196079948Y-90631313D01*
X196167185Y-90469971D01*
X196284100Y-90328645D01*
X196426238Y-90212721D01*
X196588185Y-90126612D01*
X196763774Y-90073598D01*
X196946315Y-90055700D01*
X197261717Y-90055700D01*
X197272749Y-90055777D01*
X197272749Y-90055777D01*
G37*
G36*
X185536937Y-91931435D02*
X183884537Y-91931435D01*
X183884537Y-91179035D01*
X185536937Y-91179035D01*
X185536937Y-91931435D01*
X185536937Y-91931435D01*
G37*
G36*
X180136937Y-91931435D02*
X178484537Y-91931435D01*
X178484537Y-91179035D01*
X180136937Y-91179035D01*
X180136937Y-91931435D01*
X180136937Y-91931435D01*
G37*
G36*
X215747700Y-91870100D02*
X214595300Y-91870100D01*
X214595300Y-91017700D01*
X215747700Y-91017700D01*
X215747700Y-91870100D01*
X215747700Y-91870100D01*
G37*
G36*
X244588443Y-90043557D02*
X244749458Y-90076609D01*
X244901001Y-90140311D01*
X245037273Y-90232229D01*
X245153106Y-90348872D01*
X245244068Y-90485782D01*
X245306710Y-90637763D01*
X245338568Y-90798656D01*
X245338568Y-90798666D01*
X245338636Y-90799010D01*
X245336015Y-90986763D01*
X245335937Y-90987106D01*
X245335937Y-90987109D01*
X245299597Y-91147061D01*
X245232740Y-91297225D01*
X245137984Y-91431547D01*
X245018945Y-91544908D01*
X244880153Y-91632988D01*
X244726899Y-91692431D01*
X244565019Y-91720975D01*
X244400673Y-91717532D01*
X244240128Y-91682235D01*
X244089494Y-91616424D01*
X243954518Y-91522613D01*
X243840330Y-91404368D01*
X243751283Y-91266194D01*
X243690769Y-91113353D01*
X243661097Y-90951681D01*
X243663391Y-90787316D01*
X243697569Y-90626526D01*
X243762323Y-90475440D01*
X243855194Y-90339807D01*
X243972637Y-90224798D01*
X244110186Y-90134788D01*
X244262597Y-90073210D01*
X244424062Y-90042409D01*
X244588443Y-90043557D01*
X244588443Y-90043557D01*
G37*
G36*
X175536829Y-91603661D02*
X174134429Y-91603661D01*
X174134429Y-90451261D01*
X175536829Y-90451261D01*
X175536829Y-91603661D01*
X175536829Y-91603661D01*
G37*
G36*
X188661829Y-91376961D02*
X186909429Y-91376961D01*
X186909429Y-90224561D01*
X188661829Y-90224561D01*
X188661829Y-91376961D01*
X188661829Y-91376961D01*
G37*
G36*
X177318829Y-91277661D02*
X176416429Y-91277661D01*
X176416429Y-90325261D01*
X177318829Y-90325261D01*
X177318829Y-91277661D01*
X177318829Y-91277661D01*
G37*
G36*
X204863137Y-90997935D02*
X203650737Y-90997935D01*
X203650737Y-90195535D01*
X204863137Y-90195535D01*
X204863137Y-90997935D01*
X204863137Y-90997935D01*
G37*
G36*
X207063137Y-90997935D02*
X205850737Y-90997935D01*
X205850737Y-90195535D01*
X207063137Y-90195535D01*
X207063137Y-90997935D01*
X207063137Y-90997935D01*
G37*
G36*
X190486829Y-90921661D02*
X189584429Y-90921661D01*
X189584429Y-89969261D01*
X190486829Y-89969261D01*
X190486829Y-90921661D01*
X190486829Y-90921661D01*
G37*
G36*
X215747700Y-90770100D02*
X214595300Y-90770100D01*
X214595300Y-89917700D01*
X215747700Y-89917700D01*
X215747700Y-90770100D01*
X215747700Y-90770100D01*
G37*
G36*
X236823200Y-90684700D02*
X235870800Y-90684700D01*
X235870800Y-89782300D01*
X236823200Y-89782300D01*
X236823200Y-90684700D01*
X236823200Y-90684700D01*
G37*
G36*
X238323200Y-90684700D02*
X237370800Y-90684700D01*
X237370800Y-89782300D01*
X238323200Y-89782300D01*
X238323200Y-90684700D01*
X238323200Y-90684700D01*
G37*
G36*
X185536937Y-90661435D02*
X183884537Y-90661435D01*
X183884537Y-89909035D01*
X185536937Y-89909035D01*
X185536937Y-90661435D01*
X185536937Y-90661435D01*
G37*
G36*
X180136937Y-90661435D02*
X178484537Y-90661435D01*
X178484537Y-89909035D01*
X180136937Y-89909035D01*
X180136937Y-90661435D01*
X180136937Y-90661435D01*
G37*
G36*
X210172200Y-89809200D02*
X208419800Y-89809200D01*
X208419800Y-88656800D01*
X210172200Y-88656800D01*
X210172200Y-89809200D01*
X210172200Y-89809200D01*
G37*
G36*
X215747700Y-89670100D02*
X214595300Y-89670100D01*
X214595300Y-88817700D01*
X215747700Y-88817700D01*
X215747700Y-89670100D01*
X215747700Y-89670100D01*
G37*
G36*
X193941829Y-89611661D02*
X191289429Y-89611661D01*
X191289429Y-88459261D01*
X193941829Y-88459261D01*
X193941829Y-89611661D01*
X193941829Y-89611661D01*
G37*
G36*
X175536829Y-89603661D02*
X174134429Y-89603661D01*
X174134429Y-88451261D01*
X175536829Y-88451261D01*
X175536829Y-89603661D01*
X175536829Y-89603661D01*
G37*
G36*
X189400629Y-89547561D02*
X188248229Y-89547561D01*
X188248229Y-88145161D01*
X189400629Y-88145161D01*
X189400629Y-89547561D01*
X189400629Y-89547561D01*
G37*
G36*
X187400629Y-89547561D02*
X186248229Y-89547561D01*
X186248229Y-88145161D01*
X187400629Y-88145161D01*
X187400629Y-89547561D01*
X187400629Y-89547561D01*
G37*
G36*
X177318829Y-89487661D02*
X176416429Y-89487661D01*
X176416429Y-88535261D01*
X177318829Y-88535261D01*
X177318829Y-89487661D01*
X177318829Y-89487661D01*
G37*
G36*
X207148029Y-89448161D02*
X206195629Y-89448161D01*
X206195629Y-88545761D01*
X207148029Y-88545761D01*
X207148029Y-89448161D01*
X207148029Y-89448161D01*
G37*
G36*
X205648029Y-89448161D02*
X204695629Y-89448161D01*
X204695629Y-88545761D01*
X205648029Y-88545761D01*
X205648029Y-89448161D01*
X205648029Y-89448161D01*
G37*
G36*
X197272749Y-87515777D02*
X197272754Y-87515778D01*
X197274807Y-87515792D01*
X197457080Y-87536237D01*
X197631912Y-87591697D01*
X197792641Y-87680058D01*
X197933146Y-87797956D01*
X198048076Y-87940900D01*
X198133052Y-88103445D01*
X198184839Y-88279399D01*
X198184843Y-88279440D01*
X198184844Y-88279444D01*
X198201463Y-88462058D01*
X198186223Y-88607057D01*
X198182290Y-88644473D01*
X198128052Y-88819687D01*
X198040815Y-88981029D01*
X197923900Y-89122355D01*
X197781762Y-89238279D01*
X197619815Y-89324388D01*
X197444226Y-89377402D01*
X197261685Y-89395300D01*
X196946283Y-89395300D01*
X196935251Y-89395223D01*
X196935246Y-89395222D01*
X196933193Y-89395208D01*
X196750920Y-89374763D01*
X196576088Y-89319303D01*
X196415359Y-89230942D01*
X196274854Y-89113044D01*
X196159924Y-88970100D01*
X196074948Y-88807555D01*
X196023161Y-88631601D01*
X196023157Y-88631560D01*
X196023156Y-88631556D01*
X196006537Y-88448942D01*
X196025705Y-88266574D01*
X196025710Y-88266527D01*
X196079948Y-88091313D01*
X196167185Y-87929971D01*
X196284100Y-87788645D01*
X196426238Y-87672721D01*
X196588185Y-87586612D01*
X196763774Y-87533598D01*
X196946315Y-87515700D01*
X197261717Y-87515700D01*
X197272749Y-87515777D01*
X197272749Y-87515777D01*
G37*
G36*
X180136937Y-89391435D02*
X178484537Y-89391435D01*
X178484537Y-88639035D01*
X180136937Y-88639035D01*
X180136937Y-89391435D01*
X180136937Y-89391435D01*
G37*
G36*
X185536937Y-89391435D02*
X183884537Y-89391435D01*
X183884537Y-88639035D01*
X185536937Y-88639035D01*
X185536937Y-89391435D01*
X185536937Y-89391435D01*
G37*
G36*
X201914429Y-89262761D02*
X200162029Y-89262761D01*
X200162029Y-88110361D01*
X201914429Y-88110361D01*
X201914429Y-89262761D01*
X201914429Y-89262761D01*
G37*
G36*
X244588443Y-87503557D02*
X244749458Y-87536609D01*
X244901001Y-87600311D01*
X245037273Y-87692229D01*
X245153106Y-87808872D01*
X245244068Y-87945782D01*
X245306710Y-88097763D01*
X245338568Y-88258656D01*
X245338568Y-88258666D01*
X245338636Y-88259010D01*
X245336015Y-88446763D01*
X245335937Y-88447106D01*
X245335937Y-88447109D01*
X245299597Y-88607061D01*
X245232740Y-88757225D01*
X245137984Y-88891547D01*
X245018945Y-89004908D01*
X244880153Y-89092988D01*
X244726899Y-89152431D01*
X244565019Y-89180975D01*
X244400673Y-89177532D01*
X244240128Y-89142235D01*
X244089494Y-89076424D01*
X243954518Y-88982613D01*
X243840330Y-88864368D01*
X243751283Y-88726194D01*
X243690769Y-88573353D01*
X243661097Y-88411681D01*
X243663391Y-88247316D01*
X243697569Y-88086526D01*
X243762323Y-87935440D01*
X243855194Y-87799807D01*
X243972637Y-87684798D01*
X244110186Y-87594788D01*
X244262597Y-87533210D01*
X244424062Y-87502409D01*
X244588443Y-87503557D01*
X244588443Y-87503557D01*
G37*
G36*
X215747700Y-88570100D02*
X214595300Y-88570100D01*
X214595300Y-87717700D01*
X215747700Y-87717700D01*
X215747700Y-88570100D01*
X215747700Y-88570100D01*
G37*
G36*
X185536937Y-88121435D02*
X183884537Y-88121435D01*
X183884537Y-87369035D01*
X185536937Y-87369035D01*
X185536937Y-88121435D01*
X185536937Y-88121435D01*
G37*
G36*
X180136937Y-88121435D02*
X178484537Y-88121435D01*
X178484537Y-87369035D01*
X180136937Y-87369035D01*
X180136937Y-88121435D01*
X180136937Y-88121435D01*
G37*
G36*
X177318829Y-87987661D02*
X176416429Y-87987661D01*
X176416429Y-87035261D01*
X177318829Y-87035261D01*
X177318829Y-87987661D01*
X177318829Y-87987661D01*
G37*
G36*
X193941829Y-87785661D02*
X191289429Y-87785661D01*
X191289429Y-86633261D01*
X193941829Y-86633261D01*
X193941829Y-87785661D01*
X193941829Y-87785661D01*
G37*
G36*
X175536829Y-87777661D02*
X174134429Y-87777661D01*
X174134429Y-86625261D01*
X175536829Y-86625261D01*
X175536829Y-87777661D01*
X175536829Y-87777661D01*
G37*
G36*
X215747700Y-87470100D02*
X214595300Y-87470100D01*
X214595300Y-86617700D01*
X215747700Y-86617700D01*
X215747700Y-87470100D01*
X215747700Y-87470100D01*
G37*
G36*
X205748029Y-87408161D02*
X204795629Y-87408161D01*
X204795629Y-86505761D01*
X205748029Y-86505761D01*
X205748029Y-87408161D01*
X205748029Y-87408161D01*
G37*
G36*
X204248029Y-87408161D02*
X203295629Y-87408161D01*
X203295629Y-86505761D01*
X204248029Y-86505761D01*
X204248029Y-87408161D01*
X204248029Y-87408161D01*
G37*
G36*
X189537229Y-87367161D02*
X188584829Y-87367161D01*
X188584829Y-86464761D01*
X189537229Y-86464761D01*
X189537229Y-87367161D01*
X189537229Y-87367161D01*
G37*
G36*
X188037229Y-87367161D02*
X187084829Y-87367161D01*
X187084829Y-86464761D01*
X188037229Y-86464761D01*
X188037229Y-87367161D01*
X188037229Y-87367161D01*
G37*
G36*
X197272749Y-84975777D02*
X197272754Y-84975778D01*
X197274807Y-84975792D01*
X197457080Y-84996237D01*
X197631912Y-85051697D01*
X197792641Y-85140058D01*
X197933146Y-85257956D01*
X198048076Y-85400900D01*
X198133052Y-85563445D01*
X198184839Y-85739399D01*
X198184843Y-85739440D01*
X198184844Y-85739444D01*
X198201463Y-85922058D01*
X198183319Y-86094682D01*
X198182290Y-86104473D01*
X198128052Y-86279687D01*
X198040815Y-86441029D01*
X197923900Y-86582355D01*
X197781762Y-86698279D01*
X197619815Y-86784388D01*
X197444226Y-86837402D01*
X197261685Y-86855300D01*
X196946283Y-86855300D01*
X196935251Y-86855223D01*
X196935246Y-86855222D01*
X196933193Y-86855208D01*
X196750920Y-86834763D01*
X196576088Y-86779303D01*
X196415359Y-86690942D01*
X196274854Y-86573044D01*
X196159924Y-86430100D01*
X196074948Y-86267555D01*
X196023161Y-86091601D01*
X196023157Y-86091560D01*
X196023156Y-86091556D01*
X196006537Y-85908942D01*
X196025705Y-85726574D01*
X196025710Y-85726527D01*
X196079948Y-85551313D01*
X196167185Y-85389971D01*
X196284100Y-85248645D01*
X196426238Y-85132721D01*
X196588185Y-85046612D01*
X196763774Y-84993598D01*
X196946315Y-84975700D01*
X197261717Y-84975700D01*
X197272749Y-84975777D01*
X197272749Y-84975777D01*
G37*
G36*
X185536937Y-86851435D02*
X183884537Y-86851435D01*
X183884537Y-86099035D01*
X185536937Y-86099035D01*
X185536937Y-86851435D01*
X185536937Y-86851435D01*
G37*
G36*
X180136937Y-86851435D02*
X178484537Y-86851435D01*
X178484537Y-86099035D01*
X180136937Y-86099035D01*
X180136937Y-86851435D01*
X180136937Y-86851435D01*
G37*
G36*
X171678229Y-86846461D02*
X170725829Y-86846461D01*
X170725829Y-85944061D01*
X171678229Y-85944061D01*
X171678229Y-86846461D01*
X171678229Y-86846461D01*
G37*
G36*
X173178229Y-86846461D02*
X172225829Y-86846461D01*
X172225829Y-85944061D01*
X173178229Y-85944061D01*
X173178229Y-86846461D01*
X173178229Y-86846461D01*
G37*
G36*
X210172200Y-86809200D02*
X208419800Y-86809200D01*
X208419800Y-85656800D01*
X210172200Y-85656800D01*
X210172200Y-86809200D01*
X210172200Y-86809200D01*
G37*
G36*
X218224200Y-86355200D02*
X217375000Y-86355200D01*
X217360847Y-86357211D01*
X217347816Y-86363086D01*
X217336936Y-86372358D01*
X217329071Y-86384294D01*
X217324842Y-86397949D01*
X217324200Y-86406000D01*
X217324200Y-86805200D01*
X215971800Y-86805200D01*
X215971800Y-85202800D01*
X218224200Y-85202800D01*
X218224200Y-86355200D01*
X218224200Y-86355200D01*
G37*
G36*
X219474200Y-86755200D02*
X218421800Y-86755200D01*
X218421800Y-85202800D01*
X219474200Y-85202800D01*
X219474200Y-86755200D01*
X219474200Y-86755200D01*
G37*
G36*
X236947035Y-84976382D02*
X237115350Y-85010933D01*
X237273762Y-85077523D01*
X237416216Y-85173609D01*
X237537294Y-85295535D01*
X237632381Y-85438654D01*
X237697863Y-85597524D01*
X237731169Y-85765735D01*
X237731238Y-85766084D01*
X237728497Y-85962348D01*
X237728420Y-85962686D01*
X237728420Y-85962695D01*
X237690429Y-86129913D01*
X237620540Y-86286885D01*
X237521490Y-86427298D01*
X237397053Y-86545797D01*
X237251970Y-86637870D01*
X237091769Y-86700008D01*
X236922548Y-86729847D01*
X236750751Y-86726247D01*
X236582928Y-86689350D01*
X236425466Y-86620556D01*
X236284370Y-86522492D01*
X236165005Y-86398886D01*
X236071922Y-86254449D01*
X236008664Y-86094678D01*
X235977647Y-85925676D01*
X235980045Y-85753859D01*
X236015772Y-85585780D01*
X236083462Y-85427845D01*
X236180543Y-85286063D01*
X236303311Y-85165839D01*
X236447096Y-85071750D01*
X236606416Y-85007379D01*
X236775201Y-84975183D01*
X236947035Y-84976382D01*
X236947035Y-84976382D01*
G37*
G36*
X244588443Y-84963557D02*
X244749458Y-84996609D01*
X244901001Y-85060311D01*
X245037273Y-85152229D01*
X245153106Y-85268872D01*
X245244068Y-85405782D01*
X245306710Y-85557763D01*
X245338568Y-85718656D01*
X245338568Y-85718666D01*
X245338636Y-85719010D01*
X245336015Y-85906763D01*
X245335937Y-85907106D01*
X245335937Y-85907109D01*
X245299597Y-86067061D01*
X245232740Y-86217225D01*
X245137984Y-86351547D01*
X245018945Y-86464908D01*
X244880153Y-86552988D01*
X244726899Y-86612431D01*
X244565019Y-86640975D01*
X244400673Y-86637532D01*
X244240128Y-86602235D01*
X244089494Y-86536424D01*
X243954518Y-86442613D01*
X243840330Y-86324368D01*
X243751283Y-86186194D01*
X243690769Y-86033353D01*
X243661097Y-85871681D01*
X243663391Y-85707316D01*
X243697569Y-85546526D01*
X243762323Y-85395440D01*
X243855194Y-85259807D01*
X243972637Y-85144798D01*
X244110186Y-85054788D01*
X244262597Y-84993210D01*
X244424062Y-84962409D01*
X244588443Y-84963557D01*
X244588443Y-84963557D01*
G37*
G36*
X190652529Y-85790361D02*
X188000129Y-85790361D01*
X188000129Y-84637961D01*
X190652529Y-84637961D01*
X190652529Y-85790361D01*
X190652529Y-85790361D01*
G37*
G36*
X175536829Y-85777661D02*
X174134429Y-85777661D01*
X174134429Y-84625261D01*
X175536829Y-84625261D01*
X175536829Y-85777661D01*
X175536829Y-85777661D01*
G37*
G36*
X187224829Y-85677661D02*
X186322429Y-85677661D01*
X186322429Y-84725261D01*
X187224829Y-84725261D01*
X187224829Y-85677661D01*
X187224829Y-85677661D01*
G37*
G36*
X185536937Y-85581435D02*
X183884537Y-85581435D01*
X183884537Y-84829035D01*
X185536937Y-84829035D01*
X185536937Y-85581435D01*
X185536937Y-85581435D01*
G37*
G36*
X180136937Y-85581435D02*
X178484537Y-85581435D01*
X178484537Y-84829035D01*
X180136937Y-84829035D01*
X180136937Y-85581435D01*
X180136937Y-85581435D01*
G37*
G36*
X177743829Y-85523661D02*
X175991429Y-85523661D01*
X175991429Y-84371261D01*
X177743829Y-84371261D01*
X177743829Y-85523661D01*
X177743829Y-85523661D01*
G37*
G36*
X193941829Y-84785661D02*
X191289429Y-84785661D01*
X191289429Y-83633261D01*
X193941829Y-83633261D01*
X193941829Y-84785661D01*
X193941829Y-84785661D01*
G37*
G36*
X197272749Y-82435777D02*
X197272754Y-82435778D01*
X197274807Y-82435792D01*
X197457080Y-82456237D01*
X197631912Y-82511697D01*
X197792641Y-82600058D01*
X197933146Y-82717956D01*
X198048076Y-82860900D01*
X198133052Y-83023445D01*
X198184839Y-83199399D01*
X198184843Y-83199440D01*
X198184844Y-83199444D01*
X198201463Y-83382058D01*
X198186223Y-83527057D01*
X198182290Y-83564473D01*
X198128052Y-83739687D01*
X198040815Y-83901029D01*
X197923900Y-84042355D01*
X197781762Y-84158279D01*
X197619815Y-84244388D01*
X197444226Y-84297402D01*
X197261685Y-84315300D01*
X196946283Y-84315300D01*
X196935251Y-84315223D01*
X196935246Y-84315222D01*
X196933193Y-84315208D01*
X196750920Y-84294763D01*
X196576088Y-84239303D01*
X196415359Y-84150942D01*
X196274854Y-84033044D01*
X196159924Y-83890100D01*
X196074948Y-83727555D01*
X196023161Y-83551601D01*
X196023157Y-83551560D01*
X196023156Y-83551556D01*
X196006537Y-83368942D01*
X196025705Y-83186574D01*
X196025710Y-83186527D01*
X196079948Y-83011313D01*
X196167185Y-82849971D01*
X196284100Y-82708645D01*
X196426238Y-82592721D01*
X196588185Y-82506612D01*
X196763774Y-82453598D01*
X196946315Y-82435700D01*
X197261717Y-82435700D01*
X197272749Y-82435777D01*
X197272749Y-82435777D01*
G37*
G36*
X180136937Y-84311435D02*
X178484537Y-84311435D01*
X178484537Y-83559035D01*
X180136937Y-83559035D01*
X180136937Y-84311435D01*
X180136937Y-84311435D01*
G37*
G36*
X185536937Y-84311435D02*
X183884537Y-84311435D01*
X183884537Y-83559035D01*
X185536937Y-83559035D01*
X185536937Y-84311435D01*
X185536937Y-84311435D01*
G37*
G36*
X236947035Y-82476382D02*
X237115350Y-82510933D01*
X237273762Y-82577523D01*
X237416216Y-82673609D01*
X237537294Y-82795535D01*
X237632381Y-82938654D01*
X237697863Y-83097524D01*
X237731169Y-83265735D01*
X237731238Y-83266084D01*
X237728497Y-83462348D01*
X237728420Y-83462686D01*
X237728420Y-83462695D01*
X237690429Y-83629913D01*
X237620540Y-83786885D01*
X237521490Y-83927298D01*
X237397053Y-84045797D01*
X237251970Y-84137870D01*
X237091769Y-84200008D01*
X236922548Y-84229847D01*
X236750751Y-84226247D01*
X236582928Y-84189350D01*
X236425466Y-84120556D01*
X236284370Y-84022492D01*
X236165005Y-83898886D01*
X236071922Y-83754449D01*
X236008664Y-83594678D01*
X235977647Y-83425676D01*
X235980045Y-83253859D01*
X236015772Y-83085780D01*
X236083462Y-82927845D01*
X236180543Y-82786063D01*
X236303311Y-82665839D01*
X236447096Y-82571750D01*
X236606416Y-82507379D01*
X236775201Y-82475183D01*
X236947035Y-82476382D01*
X236947035Y-82476382D01*
G37*
G36*
X187224829Y-84177661D02*
X186322429Y-84177661D01*
X186322429Y-83225261D01*
X187224829Y-83225261D01*
X187224829Y-84177661D01*
X187224829Y-84177661D01*
G37*
G36*
X244588443Y-82423557D02*
X244749458Y-82456609D01*
X244901001Y-82520311D01*
X245037273Y-82612229D01*
X245153106Y-82728872D01*
X245244068Y-82865782D01*
X245306710Y-83017763D01*
X245338568Y-83178656D01*
X245338568Y-83178666D01*
X245338636Y-83179010D01*
X245336015Y-83366763D01*
X245335937Y-83367106D01*
X245335937Y-83367109D01*
X245299597Y-83527061D01*
X245232740Y-83677225D01*
X245137984Y-83811547D01*
X245018945Y-83924908D01*
X244880153Y-84012988D01*
X244726899Y-84072431D01*
X244565019Y-84100975D01*
X244400673Y-84097532D01*
X244240128Y-84062235D01*
X244089494Y-83996424D01*
X243954518Y-83902613D01*
X243840330Y-83784368D01*
X243751283Y-83646194D01*
X243690769Y-83493353D01*
X243661097Y-83331681D01*
X243663391Y-83167316D01*
X243697569Y-83006526D01*
X243762323Y-82855440D01*
X243855194Y-82719807D01*
X243972637Y-82604798D01*
X244110186Y-82514788D01*
X244262597Y-82453210D01*
X244424062Y-82422409D01*
X244588443Y-82423557D01*
X244588443Y-82423557D01*
G37*
G36*
X175287829Y-83874661D02*
X174335429Y-83874661D01*
X174335429Y-82972261D01*
X175287829Y-82972261D01*
X175287829Y-83874661D01*
X175287829Y-83874661D01*
G37*
G36*
X173787829Y-83874661D02*
X172835429Y-83874661D01*
X172835429Y-82972261D01*
X173787829Y-82972261D01*
X173787829Y-83874661D01*
X173787829Y-83874661D01*
G37*
G36*
X190652529Y-82790361D02*
X188000129Y-82790361D01*
X188000129Y-81637961D01*
X190652529Y-81637961D01*
X190652529Y-82790361D01*
X190652529Y-82790361D01*
G37*
G36*
X177743829Y-82523661D02*
X175991429Y-82523661D01*
X175991429Y-81371261D01*
X177743829Y-81371261D01*
X177743829Y-82523661D01*
X177743829Y-82523661D01*
G37*
G36*
X184349829Y-82521661D02*
X183197429Y-82521661D01*
X183197429Y-80769261D01*
X184349829Y-80769261D01*
X184349829Y-82521661D01*
X184349829Y-82521661D01*
G37*
G36*
X187349829Y-82521661D02*
X186197429Y-82521661D01*
X186197429Y-80769261D01*
X187349829Y-80769261D01*
X187349829Y-82521661D01*
X187349829Y-82521661D01*
G37*
G36*
X209290000Y-82353100D02*
X208387600Y-82353100D01*
X208387600Y-81400700D01*
X209290000Y-81400700D01*
X209290000Y-82353100D01*
X209290000Y-82353100D01*
G37*
G36*
X180899829Y-82350661D02*
X179947429Y-82350661D01*
X179947429Y-81448261D01*
X180899829Y-81448261D01*
X180899829Y-82350661D01*
X180899829Y-82350661D01*
G37*
G36*
X182399829Y-82350661D02*
X181447429Y-82350661D01*
X181447429Y-81448261D01*
X182399829Y-81448261D01*
X182399829Y-82350661D01*
X182399829Y-82350661D01*
G37*
G36*
X207293800Y-82137900D02*
X205741400Y-82137900D01*
X205741400Y-79685500D01*
X207293800Y-79685500D01*
X207293800Y-82137900D01*
X207293800Y-82137900D01*
G37*
G36*
X202893800Y-82137900D02*
X201341400Y-82137900D01*
X201341400Y-79685500D01*
X202893800Y-79685500D01*
X202893800Y-82137900D01*
X202893800Y-82137900D01*
G37*
G36*
X175287829Y-82096661D02*
X174335429Y-82096661D01*
X174335429Y-81194261D01*
X175287829Y-81194261D01*
X175287829Y-82096661D01*
X175287829Y-82096661D01*
G37*
G36*
X173787829Y-82096661D02*
X172835429Y-82096661D01*
X172835429Y-81194261D01*
X173787829Y-81194261D01*
X173787829Y-82096661D01*
X173787829Y-82096661D01*
G37*
G36*
X197272749Y-79895777D02*
X197272754Y-79895778D01*
X197274807Y-79895792D01*
X197457080Y-79916237D01*
X197631912Y-79971697D01*
X197792641Y-80060058D01*
X197933146Y-80177956D01*
X198048076Y-80320900D01*
X198133052Y-80483445D01*
X198184839Y-80659399D01*
X198184843Y-80659440D01*
X198184844Y-80659444D01*
X198201463Y-80842058D01*
X198186223Y-80987057D01*
X198182290Y-81024473D01*
X198128052Y-81199687D01*
X198040815Y-81361029D01*
X197923900Y-81502355D01*
X197781762Y-81618279D01*
X197619815Y-81704388D01*
X197444226Y-81757402D01*
X197261685Y-81775300D01*
X196946283Y-81775300D01*
X196935251Y-81775223D01*
X196935246Y-81775222D01*
X196933193Y-81775208D01*
X196750920Y-81754763D01*
X196576088Y-81699303D01*
X196415359Y-81610942D01*
X196274854Y-81493044D01*
X196159924Y-81350100D01*
X196074948Y-81187555D01*
X196023161Y-81011601D01*
X196023157Y-81011560D01*
X196023156Y-81011556D01*
X196006537Y-80828942D01*
X196025705Y-80646574D01*
X196025710Y-80646527D01*
X196079948Y-80471313D01*
X196167185Y-80309971D01*
X196284100Y-80168645D01*
X196426238Y-80052721D01*
X196588185Y-79966612D01*
X196763774Y-79913598D01*
X196946315Y-79895700D01*
X197261717Y-79895700D01*
X197272749Y-79895777D01*
X197272749Y-79895777D01*
G37*
G36*
X244588443Y-79883557D02*
X244749458Y-79916609D01*
X244901001Y-79980311D01*
X245037273Y-80072229D01*
X245153106Y-80188872D01*
X245244068Y-80325782D01*
X245306710Y-80477763D01*
X245338568Y-80638656D01*
X245338568Y-80638666D01*
X245338636Y-80639010D01*
X245336015Y-80826763D01*
X245335937Y-80827106D01*
X245335937Y-80827109D01*
X245299597Y-80987061D01*
X245232740Y-81137225D01*
X245137984Y-81271547D01*
X245018945Y-81384908D01*
X244880153Y-81472988D01*
X244726899Y-81532431D01*
X244565019Y-81560975D01*
X244400673Y-81557532D01*
X244240128Y-81522235D01*
X244089494Y-81456424D01*
X243954518Y-81362613D01*
X243840330Y-81244368D01*
X243751283Y-81106194D01*
X243690769Y-80953353D01*
X243661097Y-80791681D01*
X243663391Y-80627316D01*
X243697569Y-80466526D01*
X243762323Y-80315440D01*
X243855194Y-80179807D01*
X243972637Y-80064798D01*
X244110186Y-79974788D01*
X244262597Y-79913210D01*
X244424062Y-79882409D01*
X244588443Y-79883557D01*
X244588443Y-79883557D01*
G37*
G36*
X209290000Y-80853100D02*
X208387600Y-80853100D01*
X208387600Y-79900700D01*
X209290000Y-79900700D01*
X209290000Y-80853100D01*
X209290000Y-80853100D01*
G37*
G36*
X192137614Y-80807444D02*
X190385214Y-80807444D01*
X190385214Y-79655044D01*
X192137614Y-79655044D01*
X192137614Y-80807444D01*
X192137614Y-80807444D01*
G37*
G36*
X233094800Y-80687200D02*
X232142400Y-80687200D01*
X232142400Y-79784800D01*
X233094800Y-79784800D01*
X233094800Y-80687200D01*
X233094800Y-80687200D01*
G37*
G36*
X231594800Y-80687200D02*
X230642400Y-80687200D01*
X230642400Y-79784800D01*
X231594800Y-79784800D01*
X231594800Y-80687200D01*
X231594800Y-80687200D01*
G37*
G36*
X225244800Y-80687200D02*
X224292400Y-80687200D01*
X224292400Y-79784800D01*
X225244800Y-79784800D01*
X225244800Y-80687200D01*
X225244800Y-80687200D01*
G37*
G36*
X226744800Y-80687200D02*
X225792400Y-80687200D01*
X225792400Y-79784800D01*
X226744800Y-79784800D01*
X226744800Y-80687200D01*
X226744800Y-80687200D01*
G37*
G36*
X177419829Y-80489661D02*
X176267429Y-80489661D01*
X176267429Y-78737261D01*
X177419829Y-78737261D01*
X177419829Y-80489661D01*
X177419829Y-80489661D01*
G37*
G36*
X174419829Y-80489661D02*
X173267429Y-80489661D01*
X173267429Y-78737261D01*
X174419829Y-78737261D01*
X174419829Y-80489661D01*
X174419829Y-80489661D01*
G37*
G36*
X194426414Y-80328144D02*
X193024014Y-80328144D01*
X193024014Y-79175744D01*
X194426414Y-79175744D01*
X194426414Y-80328144D01*
X194426414Y-80328144D01*
G37*
G36*
X244588443Y-77343557D02*
X244749458Y-77376609D01*
X244901001Y-77440311D01*
X245037273Y-77532229D01*
X245153106Y-77648872D01*
X245244068Y-77785782D01*
X245306710Y-77937763D01*
X245338568Y-78098656D01*
X245338568Y-78098666D01*
X245338636Y-78099010D01*
X245336015Y-78286763D01*
X245335937Y-78287106D01*
X245335937Y-78287109D01*
X245299597Y-78447061D01*
X245232740Y-78597225D01*
X245137984Y-78731547D01*
X245018945Y-78844908D01*
X244880153Y-78932988D01*
X244726899Y-78992431D01*
X244565019Y-79020975D01*
X244400673Y-79017532D01*
X244240128Y-78982235D01*
X244089494Y-78916424D01*
X243954518Y-78822613D01*
X243840330Y-78704368D01*
X243751283Y-78566194D01*
X243690769Y-78413353D01*
X243661097Y-78251681D01*
X243663391Y-78087316D01*
X243697569Y-77926526D01*
X243762323Y-77775440D01*
X243855194Y-77639807D01*
X243972637Y-77524798D01*
X244110186Y-77434788D01*
X244262597Y-77373210D01*
X244424062Y-77342409D01*
X244588443Y-77343557D01*
X244588443Y-77343557D01*
G37*
G36*
X221514598Y-78853058D02*
X219457198Y-78853058D01*
X219457198Y-77303658D01*
X221514598Y-77303658D01*
X221514598Y-78853058D01*
X221514598Y-78853058D01*
G37*
G36*
X217044198Y-78853058D02*
X214986798Y-78853058D01*
X214986798Y-77303658D01*
X217044198Y-77303658D01*
X217044198Y-78853058D01*
X217044198Y-78853058D01*
G37*
G36*
X214268498Y-78786558D02*
X213366098Y-78786558D01*
X213366098Y-77834158D01*
X214268498Y-77834158D01*
X214268498Y-78786558D01*
X214268498Y-78786558D01*
G37*
G36*
X194426414Y-78328144D02*
X193024014Y-78328144D01*
X193024014Y-77175744D01*
X194426414Y-77175744D01*
X194426414Y-78328144D01*
X194426414Y-78328144D01*
G37*
G36*
X211973800Y-78120400D02*
X210821400Y-78120400D01*
X210821400Y-76718000D01*
X211973800Y-76718000D01*
X211973800Y-78120400D01*
X211973800Y-78120400D01*
G37*
G36*
X209973800Y-78120400D02*
X208821400Y-78120400D01*
X208821400Y-76718000D01*
X209973800Y-76718000D01*
X209973800Y-78120400D01*
X209973800Y-78120400D01*
G37*
G36*
X185298600Y-78073600D02*
X184346200Y-78073600D01*
X184346200Y-77171200D01*
X185298600Y-77171200D01*
X185298600Y-78073600D01*
X185298600Y-78073600D01*
G37*
G36*
X186798600Y-78073600D02*
X185846200Y-78073600D01*
X185846200Y-77171200D01*
X186798600Y-77171200D01*
X186798600Y-78073600D01*
X186798600Y-78073600D01*
G37*
G36*
X174192771Y-77885939D02*
X173240371Y-77885939D01*
X173240371Y-76983539D01*
X174192771Y-76983539D01*
X174192771Y-77885939D01*
X174192771Y-77885939D01*
G37*
G36*
X172692771Y-77885939D02*
X171740371Y-77885939D01*
X171740371Y-76983539D01*
X172692771Y-76983539D01*
X172692771Y-77885939D01*
X172692771Y-77885939D01*
G37*
G36*
X192137614Y-77807444D02*
X190385214Y-77807444D01*
X190385214Y-76655044D01*
X192137614Y-76655044D01*
X192137614Y-77807444D01*
X192137614Y-77807444D01*
G37*
G36*
X239232600Y-77567800D02*
X238330200Y-77567800D01*
X238330200Y-76615400D01*
X239232600Y-76615400D01*
X239232600Y-77567800D01*
X239232600Y-77567800D01*
G37*
G36*
X203670556Y-77490014D02*
X202018156Y-77490014D01*
X202018156Y-76737614D01*
X203670556Y-76737614D01*
X203670556Y-77490014D01*
X203670556Y-77490014D01*
G37*
G36*
X198270556Y-77490014D02*
X196618156Y-77490014D01*
X196618156Y-76737614D01*
X198270556Y-76737614D01*
X198270556Y-77490014D01*
X198270556Y-77490014D01*
G37*
G36*
X229001200Y-77462000D02*
X228198800Y-77462000D01*
X228198800Y-75559600D01*
X229001200Y-75559600D01*
X229001200Y-77462000D01*
X229001200Y-77462000D01*
G37*
G36*
X230271200Y-77462000D02*
X229468800Y-77462000D01*
X229468800Y-75559600D01*
X230271200Y-75559600D01*
X230271200Y-77462000D01*
X230271200Y-77462000D01*
G37*
G36*
X231541200Y-77462000D02*
X230738800Y-77462000D01*
X230738800Y-75559600D01*
X231541200Y-75559600D01*
X231541200Y-77462000D01*
X231541200Y-77462000D01*
G37*
G36*
X227731200Y-77462000D02*
X226928800Y-77462000D01*
X226928800Y-75559600D01*
X227731200Y-75559600D01*
X227731200Y-77462000D01*
X227731200Y-77462000D01*
G37*
G36*
X214268498Y-77286558D02*
X213366098Y-77286558D01*
X213366098Y-76334158D01*
X214268498Y-76334158D01*
X214268498Y-77286558D01*
X214268498Y-77286558D01*
G37*
G36*
X234961835Y-75482582D02*
X235130150Y-75517133D01*
X235288562Y-75583723D01*
X235431016Y-75679809D01*
X235552094Y-75801735D01*
X235647181Y-75944854D01*
X235712663Y-76103724D01*
X235745969Y-76271935D01*
X235746038Y-76272284D01*
X235743297Y-76468548D01*
X235743220Y-76468886D01*
X235743220Y-76468895D01*
X235705229Y-76636113D01*
X235635340Y-76793085D01*
X235536290Y-76933498D01*
X235411853Y-77051997D01*
X235266770Y-77144070D01*
X235106569Y-77206208D01*
X234937348Y-77236047D01*
X234765551Y-77232447D01*
X234597728Y-77195550D01*
X234440266Y-77126756D01*
X234299170Y-77028692D01*
X234179805Y-76905086D01*
X234086722Y-76760649D01*
X234023464Y-76600878D01*
X233992447Y-76431876D01*
X233994845Y-76260059D01*
X234030572Y-76091980D01*
X234098262Y-75934045D01*
X234195343Y-75792263D01*
X234318111Y-75672039D01*
X234461896Y-75577950D01*
X234621216Y-75513579D01*
X234790001Y-75481383D01*
X234961835Y-75482582D01*
X234961835Y-75482582D01*
G37*
G36*
X223209298Y-77211758D02*
X222306898Y-77211758D01*
X222306898Y-76259358D01*
X223209298Y-76259358D01*
X223209298Y-77211758D01*
X223209298Y-77211758D01*
G37*
G36*
X183443500Y-76761500D02*
X182291100Y-76761500D01*
X182291100Y-75359100D01*
X183443500Y-75359100D01*
X183443500Y-76761500D01*
X183443500Y-76761500D01*
G37*
G36*
X181443500Y-76761500D02*
X180291100Y-76761500D01*
X180291100Y-75359100D01*
X181443500Y-75359100D01*
X181443500Y-76761500D01*
X181443500Y-76761500D01*
G37*
G36*
X244588443Y-74803557D02*
X244749458Y-74836609D01*
X244901001Y-74900311D01*
X245037273Y-74992229D01*
X245153106Y-75108872D01*
X245244068Y-75245782D01*
X245306710Y-75397763D01*
X245338568Y-75558656D01*
X245338568Y-75558666D01*
X245338636Y-75559010D01*
X245336015Y-75746763D01*
X245335937Y-75747106D01*
X245335937Y-75747109D01*
X245299597Y-75907061D01*
X245232740Y-76057225D01*
X245137984Y-76191547D01*
X245018945Y-76304908D01*
X244880153Y-76392988D01*
X244726899Y-76452431D01*
X244565019Y-76480975D01*
X244400673Y-76477532D01*
X244240128Y-76442235D01*
X244089494Y-76376424D01*
X243954518Y-76282613D01*
X243840330Y-76164368D01*
X243751283Y-76026194D01*
X243690769Y-75873353D01*
X243661097Y-75711681D01*
X243663391Y-75547316D01*
X243697569Y-75386526D01*
X243762323Y-75235440D01*
X243855194Y-75099807D01*
X243972637Y-74984798D01*
X244110186Y-74894788D01*
X244262597Y-74833210D01*
X244424062Y-74802409D01*
X244588443Y-74803557D01*
X244588443Y-74803557D01*
G37*
G36*
X221514598Y-76363858D02*
X219457198Y-76363858D01*
X219457198Y-74814458D01*
X221514598Y-74814458D01*
X221514598Y-76363858D01*
X221514598Y-76363858D01*
G37*
G36*
X217044198Y-76363858D02*
X214986798Y-76363858D01*
X214986798Y-74814458D01*
X217044198Y-74814458D01*
X217044198Y-76363858D01*
X217044198Y-76363858D01*
G37*
G36*
X186748500Y-76308300D02*
X185796100Y-76308300D01*
X185796100Y-75405900D01*
X186748500Y-75405900D01*
X186748500Y-76308300D01*
X186748500Y-76308300D01*
G37*
G36*
X185248500Y-76308300D02*
X184296100Y-76308300D01*
X184296100Y-75405900D01*
X185248500Y-75405900D01*
X185248500Y-76308300D01*
X185248500Y-76308300D01*
G37*
G36*
X177984100Y-76257500D02*
X177031700Y-76257500D01*
X177031700Y-75355100D01*
X177984100Y-75355100D01*
X177984100Y-76257500D01*
X177984100Y-76257500D01*
G37*
G36*
X179484100Y-76257500D02*
X178531700Y-76257500D01*
X178531700Y-75355100D01*
X179484100Y-75355100D01*
X179484100Y-76257500D01*
X179484100Y-76257500D01*
G37*
G36*
X198270556Y-76220014D02*
X196618156Y-76220014D01*
X196618156Y-75467614D01*
X198270556Y-75467614D01*
X198270556Y-76220014D01*
X198270556Y-76220014D01*
G37*
G36*
X203670556Y-76220014D02*
X202018156Y-76220014D01*
X202018156Y-75467614D01*
X203670556Y-75467614D01*
X203670556Y-76220014D01*
X203670556Y-76220014D01*
G37*
G36*
X172755571Y-76133339D02*
X171803171Y-76133339D01*
X171803171Y-75230939D01*
X172755571Y-75230939D01*
X172755571Y-76133339D01*
X172755571Y-76133339D01*
G37*
G36*
X174255571Y-76133339D02*
X173303171Y-76133339D01*
X173303171Y-75230939D01*
X174255571Y-75230939D01*
X174255571Y-76133339D01*
X174255571Y-76133339D01*
G37*
G36*
X239232600Y-76067800D02*
X238330200Y-76067800D01*
X238330200Y-75115400D01*
X239232600Y-75115400D01*
X239232600Y-76067800D01*
X239232600Y-76067800D01*
G37*
G36*
X194245356Y-75757614D02*
X193092956Y-75757614D01*
X193092956Y-74355214D01*
X194245356Y-74355214D01*
X194245356Y-75757614D01*
X194245356Y-75757614D01*
G37*
G36*
X192245356Y-75757614D02*
X191092956Y-75757614D01*
X191092956Y-74355214D01*
X192245356Y-74355214D01*
X192245356Y-75757614D01*
X192245356Y-75757614D01*
G37*
G36*
X223209298Y-75711758D02*
X222306898Y-75711758D01*
X222306898Y-74759358D01*
X223209298Y-74759358D01*
X223209298Y-75711758D01*
X223209298Y-75711758D01*
G37*
G36*
X214332200Y-75482800D02*
X213379800Y-75482800D01*
X213379800Y-74580400D01*
X214332200Y-74580400D01*
X214332200Y-75482800D01*
X214332200Y-75482800D01*
G37*
G36*
X212832200Y-75482800D02*
X211879800Y-75482800D01*
X211879800Y-74580400D01*
X212832200Y-74580400D01*
X212832200Y-75482800D01*
X212832200Y-75482800D01*
G37*
G36*
X176003300Y-75342700D02*
X175100900Y-75342700D01*
X175100900Y-74390300D01*
X176003300Y-74390300D01*
X176003300Y-75342700D01*
X176003300Y-75342700D01*
G37*
G36*
X195825456Y-75227814D02*
X194923056Y-75227814D01*
X194923056Y-74275414D01*
X195825456Y-74275414D01*
X195825456Y-75227814D01*
X195825456Y-75227814D01*
G37*
G36*
X203670556Y-74950014D02*
X202018156Y-74950014D01*
X202018156Y-74197614D01*
X203670556Y-74197614D01*
X203670556Y-74950014D01*
X203670556Y-74950014D01*
G37*
G36*
X198270556Y-74950014D02*
X196618156Y-74950014D01*
X196618156Y-74197614D01*
X198270556Y-74197614D01*
X198270556Y-74950014D01*
X198270556Y-74950014D01*
G37*
G36*
X225292000Y-74632200D02*
X224389600Y-74632200D01*
X224389600Y-73679800D01*
X225292000Y-73679800D01*
X225292000Y-74632200D01*
X225292000Y-74632200D01*
G37*
G36*
X181744900Y-74524300D02*
X180992500Y-74524300D01*
X180992500Y-72871900D01*
X181744900Y-72871900D01*
X181744900Y-74524300D01*
X181744900Y-74524300D01*
G37*
G36*
X183014900Y-74524300D02*
X182262500Y-74524300D01*
X182262500Y-72871900D01*
X183014900Y-72871900D01*
X183014900Y-74524300D01*
X183014900Y-74524300D01*
G37*
G36*
X184284900Y-74524300D02*
X183532500Y-74524300D01*
X183532500Y-72871900D01*
X184284900Y-72871900D01*
X184284900Y-74524300D01*
X184284900Y-74524300D01*
G37*
G36*
X185554900Y-74524300D02*
X184802500Y-74524300D01*
X184802500Y-72871900D01*
X185554900Y-72871900D01*
X185554900Y-74524300D01*
X185554900Y-74524300D01*
G37*
G36*
X180474900Y-74524300D02*
X179722500Y-74524300D01*
X179722500Y-72871900D01*
X180474900Y-72871900D01*
X180474900Y-74524300D01*
X180474900Y-74524300D01*
G37*
G36*
X179204900Y-74524300D02*
X178452500Y-74524300D01*
X178452500Y-72871900D01*
X179204900Y-72871900D01*
X179204900Y-74524300D01*
X179204900Y-74524300D01*
G37*
G36*
X177934900Y-74524300D02*
X177182500Y-74524300D01*
X177182500Y-72871900D01*
X177934900Y-72871900D01*
X177934900Y-74524300D01*
X177934900Y-74524300D01*
G37*
G36*
X189845000Y-74415400D02*
X187192600Y-74415400D01*
X187192600Y-73263000D01*
X189845000Y-73263000D01*
X189845000Y-74415400D01*
X189845000Y-74415400D01*
G37*
G36*
X244588443Y-72263557D02*
X244749458Y-72296609D01*
X244901001Y-72360311D01*
X245037273Y-72452229D01*
X245153106Y-72568872D01*
X245244068Y-72705782D01*
X245306710Y-72857763D01*
X245338568Y-73018656D01*
X245338568Y-73018666D01*
X245338636Y-73019010D01*
X245336015Y-73206763D01*
X245335937Y-73207106D01*
X245335937Y-73207109D01*
X245299597Y-73367061D01*
X245232740Y-73517225D01*
X245137984Y-73651547D01*
X245018945Y-73764908D01*
X244880153Y-73852988D01*
X244726899Y-73912431D01*
X244565019Y-73940975D01*
X244400673Y-73937532D01*
X244240128Y-73902235D01*
X244089494Y-73836424D01*
X243954518Y-73742613D01*
X243840330Y-73624368D01*
X243751283Y-73486194D01*
X243690769Y-73333353D01*
X243661097Y-73171681D01*
X243663391Y-73007316D01*
X243697569Y-72846526D01*
X243762323Y-72695440D01*
X243855194Y-72559807D01*
X243972637Y-72444798D01*
X244110186Y-72354788D01*
X244262597Y-72293210D01*
X244424062Y-72262409D01*
X244588443Y-72263557D01*
X244588443Y-72263557D01*
G37*
G36*
X176003300Y-73842700D02*
X175100900Y-73842700D01*
X175100900Y-72890300D01*
X176003300Y-72890300D01*
X176003300Y-73842700D01*
X176003300Y-73842700D01*
G37*
G36*
X195825456Y-73727814D02*
X194923056Y-73727814D01*
X194923056Y-72775414D01*
X195825456Y-72775414D01*
X195825456Y-73727814D01*
X195825456Y-73727814D01*
G37*
G36*
X239232600Y-73681600D02*
X238330200Y-73681600D01*
X238330200Y-72729200D01*
X239232600Y-72729200D01*
X239232600Y-73681600D01*
X239232600Y-73681600D01*
G37*
G36*
X203670556Y-73680014D02*
X202018156Y-73680014D01*
X202018156Y-72927614D01*
X203670556Y-72927614D01*
X203670556Y-73680014D01*
X203670556Y-73680014D01*
G37*
G36*
X198270556Y-73680014D02*
X196618156Y-73680014D01*
X196618156Y-72927614D01*
X198270556Y-72927614D01*
X198270556Y-73680014D01*
X198270556Y-73680014D01*
G37*
G36*
X194172456Y-73598614D02*
X193020056Y-73598614D01*
X193020056Y-72196214D01*
X194172456Y-72196214D01*
X194172456Y-73598614D01*
X194172456Y-73598614D01*
G37*
G36*
X192172456Y-73598614D02*
X191020056Y-73598614D01*
X191020056Y-72196214D01*
X192172456Y-72196214D01*
X192172456Y-73598614D01*
X192172456Y-73598614D01*
G37*
G36*
X217384698Y-73249158D02*
X211482298Y-73249158D01*
X211482298Y-71796758D01*
X217384698Y-71796758D01*
X217384698Y-73249158D01*
X217384698Y-73249158D01*
G37*
G36*
X221742568Y-73137858D02*
X220840168Y-73137858D01*
X220840168Y-72185458D01*
X221742568Y-72185458D01*
X221742568Y-73137858D01*
X221742568Y-73137858D01*
G37*
G36*
X223520568Y-73137858D02*
X222618168Y-73137858D01*
X222618168Y-72185458D01*
X223520568Y-72185458D01*
X223520568Y-73137858D01*
X223520568Y-73137858D01*
G37*
G36*
X225292000Y-73132200D02*
X224389600Y-73132200D01*
X224389600Y-72179800D01*
X225292000Y-72179800D01*
X225292000Y-73132200D01*
X225292000Y-73132200D01*
G37*
G36*
X203670556Y-72410014D02*
X202018156Y-72410014D01*
X202018156Y-71657614D01*
X203670556Y-71657614D01*
X203670556Y-72410014D01*
X203670556Y-72410014D01*
G37*
G36*
X198270556Y-72410014D02*
X196618156Y-72410014D01*
X196618156Y-71657614D01*
X198270556Y-71657614D01*
X198270556Y-72410014D01*
X198270556Y-72410014D01*
G37*
G36*
X234961835Y-70602582D02*
X235130150Y-70637133D01*
X235288562Y-70703723D01*
X235431016Y-70799809D01*
X235552094Y-70921735D01*
X235647181Y-71064854D01*
X235712663Y-71223724D01*
X235745969Y-71391935D01*
X235746038Y-71392284D01*
X235743297Y-71588548D01*
X235743220Y-71588886D01*
X235743220Y-71588895D01*
X235705229Y-71756113D01*
X235635340Y-71913085D01*
X235536290Y-72053498D01*
X235411853Y-72171997D01*
X235266770Y-72264070D01*
X235106569Y-72326208D01*
X234937348Y-72356047D01*
X234765551Y-72352447D01*
X234597728Y-72315550D01*
X234440266Y-72246756D01*
X234299170Y-72148692D01*
X234179805Y-72025086D01*
X234086722Y-71880649D01*
X234023464Y-71720878D01*
X233992447Y-71551876D01*
X233994845Y-71380059D01*
X234030572Y-71211980D01*
X234098262Y-71054045D01*
X234195343Y-70912263D01*
X234318111Y-70792039D01*
X234461896Y-70697950D01*
X234621216Y-70633579D01*
X234790001Y-70601383D01*
X234961835Y-70602582D01*
X234961835Y-70602582D01*
G37*
G36*
X239232600Y-72181600D02*
X238330200Y-72181600D01*
X238330200Y-71229200D01*
X239232600Y-71229200D01*
X239232600Y-72181600D01*
X239232600Y-72181600D01*
G37*
G36*
X176003300Y-72155000D02*
X175100900Y-72155000D01*
X175100900Y-71202600D01*
X176003300Y-71202600D01*
X176003300Y-72155000D01*
X176003300Y-72155000D01*
G37*
G36*
X205378400Y-72053400D02*
X204476000Y-72053400D01*
X204476000Y-71101000D01*
X205378400Y-71101000D01*
X205378400Y-72053400D01*
X205378400Y-72053400D01*
G37*
G36*
X207207200Y-72029400D02*
X206304800Y-72029400D01*
X206304800Y-71077000D01*
X207207200Y-71077000D01*
X207207200Y-72029400D01*
X207207200Y-72029400D01*
G37*
G36*
X229001200Y-71862000D02*
X228198800Y-71862000D01*
X228198800Y-69959600D01*
X229001200Y-69959600D01*
X229001200Y-71862000D01*
X229001200Y-71862000D01*
G37*
G36*
X231541200Y-71862000D02*
X230738800Y-71862000D01*
X230738800Y-69959600D01*
X231541200Y-69959600D01*
X231541200Y-71862000D01*
X231541200Y-71862000D01*
G37*
G36*
X230271200Y-71862000D02*
X229468800Y-71862000D01*
X229468800Y-69959600D01*
X230271200Y-69959600D01*
X230271200Y-71862000D01*
X230271200Y-71862000D01*
G37*
G36*
X227731200Y-71862000D02*
X226928800Y-71862000D01*
X226928800Y-69959600D01*
X227731200Y-69959600D01*
X227731200Y-71862000D01*
X227731200Y-71862000D01*
G37*
G36*
X223520568Y-71637858D02*
X222618168Y-71637858D01*
X222618168Y-70685458D01*
X223520568Y-70685458D01*
X223520568Y-71637858D01*
X223520568Y-71637858D01*
G37*
G36*
X221742568Y-71637858D02*
X220840168Y-71637858D01*
X220840168Y-70685458D01*
X221742568Y-70685458D01*
X221742568Y-71637858D01*
X221742568Y-71637858D01*
G37*
G36*
X189845000Y-71415400D02*
X187192600Y-71415400D01*
X187192600Y-70263000D01*
X189845000Y-70263000D01*
X189845000Y-71415400D01*
X189845000Y-71415400D01*
G37*
G36*
X193297756Y-71405514D02*
X192345356Y-71405514D01*
X192345356Y-70503114D01*
X193297756Y-70503114D01*
X193297756Y-71405514D01*
X193297756Y-71405514D01*
G37*
G36*
X191797756Y-71405514D02*
X190845356Y-71405514D01*
X190845356Y-70503114D01*
X191797756Y-70503114D01*
X191797756Y-71405514D01*
X191797756Y-71405514D01*
G37*
G36*
X244588443Y-69723557D02*
X244749458Y-69756609D01*
X244901001Y-69820311D01*
X245037273Y-69912229D01*
X245153106Y-70028872D01*
X245244068Y-70165782D01*
X245306710Y-70317763D01*
X245338568Y-70478656D01*
X245338568Y-70478666D01*
X245338636Y-70479010D01*
X245336015Y-70666763D01*
X245335937Y-70667106D01*
X245335937Y-70667109D01*
X245299597Y-70827061D01*
X245232740Y-70977225D01*
X245137984Y-71111547D01*
X245018945Y-71224908D01*
X244880153Y-71312988D01*
X244726899Y-71372431D01*
X244565019Y-71400975D01*
X244400673Y-71397532D01*
X244240128Y-71362235D01*
X244089494Y-71296424D01*
X243954518Y-71202613D01*
X243840330Y-71084368D01*
X243751283Y-70946194D01*
X243690769Y-70793353D01*
X243661097Y-70631681D01*
X243663391Y-70467316D01*
X243697569Y-70306526D01*
X243762323Y-70155440D01*
X243855194Y-70019807D01*
X243972637Y-69904798D01*
X244110186Y-69814788D01*
X244262597Y-69753210D01*
X244424062Y-69722409D01*
X244588443Y-69723557D01*
X244588443Y-69723557D01*
G37*
G36*
X195812756Y-71214614D02*
X194910356Y-71214614D01*
X194910356Y-70262214D01*
X195812756Y-70262214D01*
X195812756Y-71214614D01*
X195812756Y-71214614D01*
G37*
G36*
X198270556Y-71140014D02*
X196618156Y-71140014D01*
X196618156Y-70387614D01*
X198270556Y-70387614D01*
X198270556Y-71140014D01*
X198270556Y-71140014D01*
G37*
G36*
X203670556Y-71140014D02*
X202018156Y-71140014D01*
X202018156Y-70387614D01*
X203670556Y-70387614D01*
X203670556Y-71140014D01*
X203670556Y-71140014D01*
G37*
G36*
X219509698Y-71124158D02*
X218057298Y-71124158D01*
X218057298Y-65221758D01*
X219509698Y-65221758D01*
X219509698Y-71124158D01*
X219509698Y-71124158D01*
G37*
G36*
X210809698Y-71124158D02*
X209357298Y-71124158D01*
X209357298Y-65221758D01*
X210809698Y-65221758D01*
X210809698Y-71124158D01*
X210809698Y-71124158D01*
G37*
G36*
X176003300Y-70655000D02*
X175100900Y-70655000D01*
X175100900Y-69702600D01*
X176003300Y-69702600D01*
X176003300Y-70655000D01*
X176003300Y-70655000D01*
G37*
G36*
X205378400Y-70553400D02*
X204476000Y-70553400D01*
X204476000Y-69601000D01*
X205378400Y-69601000D01*
X205378400Y-70553400D01*
X205378400Y-70553400D01*
G37*
G36*
X207207200Y-70529400D02*
X206304800Y-70529400D01*
X206304800Y-69577000D01*
X207207200Y-69577000D01*
X207207200Y-70529400D01*
X207207200Y-70529400D01*
G37*
G36*
X198270556Y-69870014D02*
X196618156Y-69870014D01*
X196618156Y-69117614D01*
X198270556Y-69117614D01*
X198270556Y-69870014D01*
X198270556Y-69870014D01*
G37*
G36*
X203670556Y-69870014D02*
X202018156Y-69870014D01*
X202018156Y-69117614D01*
X203670556Y-69117614D01*
X203670556Y-69870014D01*
X203670556Y-69870014D01*
G37*
G36*
X195812756Y-69714614D02*
X194910356Y-69714614D01*
X194910356Y-68762214D01*
X195812756Y-68762214D01*
X195812756Y-69714614D01*
X195812756Y-69714614D01*
G37*
G36*
X193373956Y-69665614D02*
X192421556Y-69665614D01*
X192421556Y-68763214D01*
X193373956Y-68763214D01*
X193373956Y-69665614D01*
X193373956Y-69665614D01*
G37*
G36*
X191873956Y-69665614D02*
X190921556Y-69665614D01*
X190921556Y-68763214D01*
X191873956Y-68763214D01*
X191873956Y-69665614D01*
X191873956Y-69665614D01*
G37*
G36*
X189733000Y-69590000D02*
X188780600Y-69590000D01*
X188780600Y-68687600D01*
X189733000Y-68687600D01*
X189733000Y-69590000D01*
X189733000Y-69590000D01*
G37*
G36*
X188233000Y-69590000D02*
X187280600Y-69590000D01*
X187280600Y-68687600D01*
X188233000Y-68687600D01*
X188233000Y-69590000D01*
X188233000Y-69590000D01*
G37*
G36*
X184284900Y-69124300D02*
X183532500Y-69124300D01*
X183532500Y-67471900D01*
X184284900Y-67471900D01*
X184284900Y-69124300D01*
X184284900Y-69124300D01*
G37*
G36*
X183014900Y-69124300D02*
X182262500Y-69124300D01*
X182262500Y-67471900D01*
X183014900Y-67471900D01*
X183014900Y-69124300D01*
X183014900Y-69124300D01*
G37*
G36*
X179204900Y-69124300D02*
X178452500Y-69124300D01*
X178452500Y-67471900D01*
X179204900Y-67471900D01*
X179204900Y-69124300D01*
X179204900Y-69124300D01*
G37*
G36*
X181744900Y-69124300D02*
X180992500Y-69124300D01*
X180992500Y-67471900D01*
X181744900Y-67471900D01*
X181744900Y-69124300D01*
X181744900Y-69124300D01*
G37*
G36*
X185554900Y-69124300D02*
X184802500Y-69124300D01*
X184802500Y-67471900D01*
X185554900Y-67471900D01*
X185554900Y-69124300D01*
X185554900Y-69124300D01*
G37*
G36*
X180474900Y-69124300D02*
X179722500Y-69124300D01*
X179722500Y-67471900D01*
X180474900Y-67471900D01*
X180474900Y-69124300D01*
X180474900Y-69124300D01*
G37*
G36*
X177934900Y-69124300D02*
X177182500Y-69124300D01*
X177182500Y-67471900D01*
X177934900Y-67471900D01*
X177934900Y-69124300D01*
X177934900Y-69124300D01*
G37*
G36*
X175990638Y-68962962D02*
X175088238Y-68962962D01*
X175088238Y-68010562D01*
X175990638Y-68010562D01*
X175990638Y-68962962D01*
X175990638Y-68962962D01*
G37*
G36*
X244588443Y-67183557D02*
X244749458Y-67216609D01*
X244901001Y-67280311D01*
X245037273Y-67372229D01*
X245153106Y-67488872D01*
X245244068Y-67625782D01*
X245306710Y-67777763D01*
X245338568Y-67938656D01*
X245338568Y-67938666D01*
X245338636Y-67939010D01*
X245336015Y-68126763D01*
X245335937Y-68127106D01*
X245335937Y-68127109D01*
X245299597Y-68287061D01*
X245232740Y-68437225D01*
X245137984Y-68571547D01*
X245018945Y-68684908D01*
X244880153Y-68772988D01*
X244726899Y-68832431D01*
X244565019Y-68860975D01*
X244400673Y-68857532D01*
X244240128Y-68822235D01*
X244089494Y-68756424D01*
X243954518Y-68662613D01*
X243840330Y-68544368D01*
X243751283Y-68406194D01*
X243690769Y-68253353D01*
X243661097Y-68091681D01*
X243663391Y-67927316D01*
X243697569Y-67766526D01*
X243762323Y-67615440D01*
X243855194Y-67479807D01*
X243972637Y-67364798D01*
X244110186Y-67274788D01*
X244262597Y-67213210D01*
X244424062Y-67182409D01*
X244588443Y-67183557D01*
X244588443Y-67183557D01*
G37*
G36*
X206288898Y-68782758D02*
X204886498Y-68782758D01*
X204886498Y-67630358D01*
X206288898Y-67630358D01*
X206288898Y-68782758D01*
X206288898Y-68782758D01*
G37*
G36*
X207964898Y-68492758D02*
X207062498Y-68492758D01*
X207062498Y-67540358D01*
X207964898Y-67540358D01*
X207964898Y-68492758D01*
X207964898Y-68492758D01*
G37*
G36*
X226700400Y-67838200D02*
X224798000Y-67838200D01*
X224798000Y-67035800D01*
X226700400Y-67035800D01*
X226700400Y-67838200D01*
X226700400Y-67838200D01*
G37*
G36*
X232300400Y-67838200D02*
X230398000Y-67838200D01*
X230398000Y-67035800D01*
X232300400Y-67035800D01*
X232300400Y-67838200D01*
X232300400Y-67838200D01*
G37*
G36*
X191863800Y-67710400D02*
X190911400Y-67710400D01*
X190911400Y-66808000D01*
X191863800Y-66808000D01*
X191863800Y-67710400D01*
X191863800Y-67710400D01*
G37*
G36*
X193363800Y-67710400D02*
X192411400Y-67710400D01*
X192411400Y-66808000D01*
X193363800Y-66808000D01*
X193363800Y-67710400D01*
X193363800Y-67710400D01*
G37*
G36*
X203901200Y-67651000D02*
X202498800Y-67651000D01*
X202498800Y-66498600D01*
X203901200Y-66498600D01*
X203901200Y-67651000D01*
X203901200Y-67651000D01*
G37*
G36*
X175990638Y-67462962D02*
X175088238Y-67462962D01*
X175088238Y-66510562D01*
X175990638Y-66510562D01*
X175990638Y-67462962D01*
X175990638Y-67462962D01*
G37*
G36*
X207964898Y-66992758D02*
X207062498Y-66992758D01*
X207062498Y-66040358D01*
X207964898Y-66040358D01*
X207964898Y-66992758D01*
X207964898Y-66992758D01*
G37*
G36*
X206288898Y-66782758D02*
X204886498Y-66782758D01*
X204886498Y-65630358D01*
X206288898Y-65630358D01*
X206288898Y-66782758D01*
X206288898Y-66782758D01*
G37*
G36*
X179953000Y-66744800D02*
X179050600Y-66744800D01*
X179050600Y-65792400D01*
X179953000Y-65792400D01*
X179953000Y-66744800D01*
X179953000Y-66744800D01*
G37*
G36*
X178263900Y-66720800D02*
X177361500Y-66720800D01*
X177361500Y-65768400D01*
X178263900Y-65768400D01*
X178263900Y-66720800D01*
X178263900Y-66720800D01*
G37*
G36*
X183304500Y-66692400D02*
X180652100Y-66692400D01*
X180652100Y-65540000D01*
X183304500Y-65540000D01*
X183304500Y-66692400D01*
X183304500Y-66692400D01*
G37*
G36*
X185043900Y-66630900D02*
X184091500Y-66630900D01*
X184091500Y-65728500D01*
X185043900Y-65728500D01*
X185043900Y-66630900D01*
X185043900Y-66630900D01*
G37*
G36*
X186543900Y-66630900D02*
X185591500Y-66630900D01*
X185591500Y-65728500D01*
X186543900Y-65728500D01*
X186543900Y-66630900D01*
X186543900Y-66630900D01*
G37*
G36*
X226700400Y-66568200D02*
X224798000Y-66568200D01*
X224798000Y-65765800D01*
X226700400Y-65765800D01*
X226700400Y-66568200D01*
X226700400Y-66568200D01*
G37*
G36*
X232300400Y-66568200D02*
X230398000Y-66568200D01*
X230398000Y-65765800D01*
X232300400Y-65765800D01*
X232300400Y-66568200D01*
X232300400Y-66568200D01*
G37*
G36*
X221456698Y-66379358D02*
X220554298Y-66379358D01*
X220554298Y-65426958D01*
X221456698Y-65426958D01*
X221456698Y-66379358D01*
X221456698Y-66379358D01*
G37*
G36*
X190060900Y-66365000D02*
X187408500Y-66365000D01*
X187408500Y-65212600D01*
X190060900Y-65212600D01*
X190060900Y-66365000D01*
X190060900Y-66365000D01*
G37*
G36*
X244588443Y-64643557D02*
X244749458Y-64676609D01*
X244901001Y-64740311D01*
X245037273Y-64832229D01*
X245153106Y-64948872D01*
X245244068Y-65085782D01*
X245306710Y-65237763D01*
X245338568Y-65398656D01*
X245338568Y-65398666D01*
X245338636Y-65399010D01*
X245336015Y-65586763D01*
X245335937Y-65587106D01*
X245335937Y-65587109D01*
X245299597Y-65747061D01*
X245232740Y-65897225D01*
X245137984Y-66031547D01*
X245018945Y-66144908D01*
X244880153Y-66232988D01*
X244726899Y-66292431D01*
X244565019Y-66320975D01*
X244400673Y-66317532D01*
X244240128Y-66282235D01*
X244089494Y-66216424D01*
X243954518Y-66122613D01*
X243840330Y-66004368D01*
X243751283Y-65866194D01*
X243690769Y-65713353D01*
X243661097Y-65551681D01*
X243663391Y-65387316D01*
X243697569Y-65226526D01*
X243762323Y-65075440D01*
X243855194Y-64939807D01*
X243972637Y-64824798D01*
X244110186Y-64734788D01*
X244262597Y-64673210D01*
X244424062Y-64642409D01*
X244588443Y-64643557D01*
X244588443Y-64643557D01*
G37*
G36*
X203901200Y-65651000D02*
X202498800Y-65651000D01*
X202498800Y-64498600D01*
X203901200Y-64498600D01*
X203901200Y-65651000D01*
X203901200Y-65651000D01*
G37*
G36*
X175482600Y-65514300D02*
X174580200Y-65514300D01*
X174580200Y-64561900D01*
X175482600Y-64561900D01*
X175482600Y-65514300D01*
X175482600Y-65514300D01*
G37*
G36*
X234436000Y-65374600D02*
X233533600Y-65374600D01*
X233533600Y-64422200D01*
X234436000Y-64422200D01*
X234436000Y-65374600D01*
X234436000Y-65374600D01*
G37*
G36*
X226700400Y-65298200D02*
X224798000Y-65298200D01*
X224798000Y-64495800D01*
X226700400Y-64495800D01*
X226700400Y-65298200D01*
X226700400Y-65298200D01*
G37*
G36*
X232300400Y-65298200D02*
X230398000Y-65298200D01*
X230398000Y-64495800D01*
X232300400Y-64495800D01*
X232300400Y-65298200D01*
X232300400Y-65298200D01*
G37*
G36*
X179953000Y-65244800D02*
X179050600Y-65244800D01*
X179050600Y-64292400D01*
X179953000Y-64292400D01*
X179953000Y-65244800D01*
X179953000Y-65244800D01*
G37*
G36*
X178263900Y-65220800D02*
X177361500Y-65220800D01*
X177361500Y-64268400D01*
X178263900Y-64268400D01*
X178263900Y-65220800D01*
X178263900Y-65220800D01*
G37*
G36*
X221456698Y-64879358D02*
X220554298Y-64879358D01*
X220554298Y-63926958D01*
X221456698Y-63926958D01*
X221456698Y-64879358D01*
X221456698Y-64879358D01*
G37*
G36*
X184906000Y-64700100D02*
X184003600Y-64700100D01*
X184003600Y-63747700D01*
X184906000Y-63747700D01*
X184906000Y-64700100D01*
X184906000Y-64700100D01*
G37*
G36*
X186595100Y-64688100D02*
X185692700Y-64688100D01*
X185692700Y-63735700D01*
X186595100Y-63735700D01*
X186595100Y-64688100D01*
X186595100Y-64688100D01*
G37*
G36*
X217384698Y-64549158D02*
X211482298Y-64549158D01*
X211482298Y-63096758D01*
X217384698Y-63096758D01*
X217384698Y-64549158D01*
X217384698Y-64549158D01*
G37*
G36*
X226700400Y-64028200D02*
X224798000Y-64028200D01*
X224798000Y-63225800D01*
X226700400Y-63225800D01*
X226700400Y-64028200D01*
X226700400Y-64028200D01*
G37*
G36*
X232300400Y-64028200D02*
X230398000Y-64028200D01*
X230398000Y-63225800D01*
X232300400Y-63225800D01*
X232300400Y-64028200D01*
X232300400Y-64028200D01*
G37*
G36*
X175482600Y-64014300D02*
X174580200Y-64014300D01*
X174580200Y-63061900D01*
X175482600Y-63061900D01*
X175482600Y-64014300D01*
X175482600Y-64014300D01*
G37*
G36*
X234436000Y-63874600D02*
X233533600Y-63874600D01*
X233533600Y-62922200D01*
X234436000Y-62922200D01*
X234436000Y-63874600D01*
X234436000Y-63874600D01*
G37*
G36*
X244588443Y-62103557D02*
X244749458Y-62136609D01*
X244901001Y-62200311D01*
X245037273Y-62292229D01*
X245153106Y-62408872D01*
X245244068Y-62545782D01*
X245306710Y-62697763D01*
X245338568Y-62858656D01*
X245338568Y-62858666D01*
X245338636Y-62859010D01*
X245336015Y-63046763D01*
X245335937Y-63047106D01*
X245335937Y-63047109D01*
X245299597Y-63207061D01*
X245232740Y-63357225D01*
X245137984Y-63491547D01*
X245018945Y-63604908D01*
X244880153Y-63692988D01*
X244726899Y-63752431D01*
X244565019Y-63780975D01*
X244400673Y-63777532D01*
X244240128Y-63742235D01*
X244089494Y-63676424D01*
X243954518Y-63582613D01*
X243840330Y-63464368D01*
X243751283Y-63326194D01*
X243690769Y-63173353D01*
X243661097Y-63011681D01*
X243663391Y-62847316D01*
X243697569Y-62686526D01*
X243762323Y-62535440D01*
X243855194Y-62399807D01*
X243972637Y-62284798D01*
X244110186Y-62194788D01*
X244262597Y-62133210D01*
X244424062Y-62102409D01*
X244588443Y-62103557D01*
X244588443Y-62103557D01*
G37*
G36*
X183304500Y-63692400D02*
X180652100Y-63692400D01*
X180652100Y-62540000D01*
X183304500Y-62540000D01*
X183304500Y-63692400D01*
X183304500Y-63692400D01*
G37*
G36*
X179864400Y-63608300D02*
X178912000Y-63608300D01*
X178912000Y-62705900D01*
X179864400Y-62705900D01*
X179864400Y-63608300D01*
X179864400Y-63608300D01*
G37*
G36*
X178364400Y-63608300D02*
X177412000Y-63608300D01*
X177412000Y-62705900D01*
X178364400Y-62705900D01*
X178364400Y-63608300D01*
X178364400Y-63608300D01*
G37*
G36*
X190060900Y-63365000D02*
X187408500Y-63365000D01*
X187408500Y-62212600D01*
X190060900Y-62212600D01*
X190060900Y-63365000D01*
X190060900Y-63365000D01*
G37*
G36*
X184906000Y-63200100D02*
X184003600Y-63200100D01*
X184003600Y-62247700D01*
X184906000Y-62247700D01*
X184906000Y-63200100D01*
X184906000Y-63200100D01*
G37*
G36*
X186595100Y-63188100D02*
X185692700Y-63188100D01*
X185692700Y-62235700D01*
X186595100Y-62235700D01*
X186595100Y-63188100D01*
X186595100Y-63188100D01*
G37*
G36*
X215839200Y-61961400D02*
X214436800Y-61961400D01*
X214436800Y-60809000D01*
X215839200Y-60809000D01*
X215839200Y-61961400D01*
X215839200Y-61961400D01*
G37*
G36*
X213608000Y-61893400D02*
X212705600Y-61893400D01*
X212705600Y-60941000D01*
X213608000Y-60941000D01*
X213608000Y-61893400D01*
X213608000Y-61893400D01*
G37*
G36*
X178653600Y-61460000D02*
X177251200Y-61460000D01*
X177251200Y-60307600D01*
X178653600Y-60307600D01*
X178653600Y-61460000D01*
X178653600Y-61460000D01*
G37*
G36*
X227087800Y-61331000D02*
X225235400Y-61331000D01*
X225235400Y-60378600D01*
X227087800Y-60378600D01*
X227087800Y-61331000D01*
X227087800Y-61331000D01*
G37*
G36*
X244588443Y-59563557D02*
X244749458Y-59596609D01*
X244901001Y-59660311D01*
X245037273Y-59752229D01*
X245153106Y-59868872D01*
X245244068Y-60005782D01*
X245306710Y-60157763D01*
X245338568Y-60318656D01*
X245338568Y-60318666D01*
X245338636Y-60319010D01*
X245336015Y-60506763D01*
X245335937Y-60507106D01*
X245335937Y-60507109D01*
X245299597Y-60667061D01*
X245232740Y-60817225D01*
X245137984Y-60951547D01*
X245018945Y-61064908D01*
X244880153Y-61152988D01*
X244726899Y-61212431D01*
X244565019Y-61240975D01*
X244400673Y-61237532D01*
X244240128Y-61202235D01*
X244089494Y-61136424D01*
X243954518Y-61042613D01*
X243840330Y-60924368D01*
X243751283Y-60786194D01*
X243690769Y-60633353D01*
X243661097Y-60471681D01*
X243663391Y-60307316D01*
X243697569Y-60146526D01*
X243762323Y-59995440D01*
X243855194Y-59859807D01*
X243972637Y-59744798D01*
X244110186Y-59654788D01*
X244262597Y-59593210D01*
X244424062Y-59562409D01*
X244588443Y-59563557D01*
X244588443Y-59563557D01*
G37*
G36*
X223236498Y-61236558D02*
X222284098Y-61236558D01*
X222284098Y-60334158D01*
X223236498Y-60334158D01*
X223236498Y-61236558D01*
X223236498Y-61236558D01*
G37*
G36*
X221736498Y-61236558D02*
X220784098Y-61236558D01*
X220784098Y-60334158D01*
X221736498Y-60334158D01*
X221736498Y-61236558D01*
X221736498Y-61236558D01*
G37*
G36*
X204658926Y-59272842D02*
X204658931Y-59272844D01*
X204658973Y-59272848D01*
X204834187Y-59327086D01*
X204995529Y-59414323D01*
X205136855Y-59531238D01*
X205252779Y-59673376D01*
X205338888Y-59835323D01*
X205391902Y-60010912D01*
X205409800Y-60193453D01*
X205409800Y-60202580D01*
X205409723Y-60213612D01*
X205409722Y-60213617D01*
X205409708Y-60215669D01*
X205389263Y-60397942D01*
X205333803Y-60572774D01*
X205245442Y-60733503D01*
X205127544Y-60874008D01*
X204984600Y-60988938D01*
X204822055Y-61073914D01*
X204646101Y-61125701D01*
X204646065Y-61125704D01*
X204646056Y-61125707D01*
X204463442Y-61142326D01*
X204281074Y-61123158D01*
X204281069Y-61123156D01*
X204281027Y-61123152D01*
X204105813Y-61068914D01*
X203944471Y-60981677D01*
X203803145Y-60864762D01*
X203687221Y-60722624D01*
X203601112Y-60560677D01*
X203548098Y-60385088D01*
X203530200Y-60202547D01*
X203530200Y-60193420D01*
X203530277Y-60182388D01*
X203530278Y-60182383D01*
X203530292Y-60180331D01*
X203550737Y-59998058D01*
X203606197Y-59823226D01*
X203694558Y-59662497D01*
X203812456Y-59521992D01*
X203955400Y-59407062D01*
X204117945Y-59322086D01*
X204293899Y-59270299D01*
X204293935Y-59270296D01*
X204293944Y-59270293D01*
X204476558Y-59253674D01*
X204658926Y-59272842D01*
X204658926Y-59272842D01*
G37*
G36*
X207198926Y-59272842D02*
X207198931Y-59272844D01*
X207198973Y-59272848D01*
X207374187Y-59327086D01*
X207535529Y-59414323D01*
X207676855Y-59531238D01*
X207792779Y-59673376D01*
X207878888Y-59835323D01*
X207931902Y-60010912D01*
X207949800Y-60193453D01*
X207949800Y-60202580D01*
X207949723Y-60213612D01*
X207949722Y-60213617D01*
X207949708Y-60215669D01*
X207929263Y-60397942D01*
X207873803Y-60572774D01*
X207785442Y-60733503D01*
X207667544Y-60874008D01*
X207524600Y-60988938D01*
X207362055Y-61073914D01*
X207186101Y-61125701D01*
X207186065Y-61125704D01*
X207186056Y-61125707D01*
X207003442Y-61142326D01*
X206821074Y-61123158D01*
X206821069Y-61123156D01*
X206821027Y-61123152D01*
X206645813Y-61068914D01*
X206484471Y-60981677D01*
X206343145Y-60864762D01*
X206227221Y-60722624D01*
X206141112Y-60560677D01*
X206088098Y-60385088D01*
X206070200Y-60202547D01*
X206070200Y-60193420D01*
X206070277Y-60182388D01*
X206070278Y-60182383D01*
X206070292Y-60180331D01*
X206090737Y-59998058D01*
X206146197Y-59823226D01*
X206234558Y-59662497D01*
X206352456Y-59521992D01*
X206495400Y-59407062D01*
X206657945Y-59322086D01*
X206833899Y-59270299D01*
X206833935Y-59270296D01*
X206833944Y-59270293D01*
X207016558Y-59253674D01*
X207198926Y-59272842D01*
X207198926Y-59272842D01*
G37*
G36*
X209738926Y-59272842D02*
X209738931Y-59272844D01*
X209738973Y-59272848D01*
X209914187Y-59327086D01*
X210075529Y-59414323D01*
X210216855Y-59531238D01*
X210332779Y-59673376D01*
X210418888Y-59835323D01*
X210471902Y-60010912D01*
X210489800Y-60193453D01*
X210489800Y-60202580D01*
X210489723Y-60213612D01*
X210489722Y-60213617D01*
X210489708Y-60215669D01*
X210469263Y-60397942D01*
X210413803Y-60572774D01*
X210325442Y-60733503D01*
X210207544Y-60874008D01*
X210064600Y-60988938D01*
X209902055Y-61073914D01*
X209726101Y-61125701D01*
X209726065Y-61125704D01*
X209726056Y-61125707D01*
X209543442Y-61142326D01*
X209361074Y-61123158D01*
X209361069Y-61123156D01*
X209361027Y-61123152D01*
X209185813Y-61068914D01*
X209024471Y-60981677D01*
X208883145Y-60864762D01*
X208767221Y-60722624D01*
X208681112Y-60560677D01*
X208628098Y-60385088D01*
X208610200Y-60202547D01*
X208610200Y-60193420D01*
X208610277Y-60182388D01*
X208610278Y-60182383D01*
X208610292Y-60180331D01*
X208630737Y-59998058D01*
X208686197Y-59823226D01*
X208774558Y-59662497D01*
X208892456Y-59521992D01*
X209035400Y-59407062D01*
X209197945Y-59322086D01*
X209373899Y-59270299D01*
X209373935Y-59270296D01*
X209373944Y-59270293D01*
X209556558Y-59253674D01*
X209738926Y-59272842D01*
X209738926Y-59272842D01*
G37*
G36*
X169743426Y-59360166D02*
X169873320Y-59386830D01*
X169995575Y-59438221D01*
X170105513Y-59512375D01*
X170198950Y-59606467D01*
X170272339Y-59716926D01*
X170322873Y-59839530D01*
X170348560Y-59969259D01*
X170348560Y-59969274D01*
X170348627Y-59969613D01*
X170346512Y-60121078D01*
X170346436Y-60121412D01*
X170346436Y-60121425D01*
X170317134Y-60250396D01*
X170263199Y-60371537D01*
X170186757Y-60479900D01*
X170090724Y-60571351D01*
X169978758Y-60642407D01*
X169855120Y-60690363D01*
X169724529Y-60713390D01*
X169591945Y-60710612D01*
X169462429Y-60682137D01*
X169340908Y-60629045D01*
X169232019Y-60553365D01*
X169139900Y-60457974D01*
X169068063Y-60346504D01*
X169019244Y-60223202D01*
X168995307Y-60092777D01*
X168997158Y-59960179D01*
X169024730Y-59830464D01*
X169076969Y-59708579D01*
X169151891Y-59599160D01*
X169246639Y-59506376D01*
X169357597Y-59433766D01*
X169480555Y-59384088D01*
X169610813Y-59359241D01*
X169743426Y-59360166D01*
X169743426Y-59360166D01*
G37*
G36*
X172898598Y-60562118D02*
X171346198Y-60562118D01*
X171346198Y-58809718D01*
X172898598Y-58809718D01*
X172898598Y-60562118D01*
X172898598Y-60562118D01*
G37*
G36*
X213608000Y-60393400D02*
X212705600Y-60393400D01*
X212705600Y-59441000D01*
X213608000Y-59441000D01*
X213608000Y-60393400D01*
X213608000Y-60393400D01*
G37*
G36*
X215839200Y-59961400D02*
X214436800Y-59961400D01*
X214436800Y-58809000D01*
X215839200Y-58809000D01*
X215839200Y-59961400D01*
X215839200Y-59961400D01*
G37*
G36*
X221734200Y-59531600D02*
X220781800Y-59531600D01*
X220781800Y-58629200D01*
X221734200Y-58629200D01*
X221734200Y-59531600D01*
X221734200Y-59531600D01*
G37*
G36*
X223234200Y-59531600D02*
X222281800Y-59531600D01*
X222281800Y-58629200D01*
X223234200Y-58629200D01*
X223234200Y-59531600D01*
X223234200Y-59531600D01*
G37*
G36*
X195630620Y-59493500D02*
X194678220Y-59493500D01*
X194678220Y-58591100D01*
X195630620Y-58591100D01*
X195630620Y-59493500D01*
X195630620Y-59493500D01*
G37*
G36*
X197130620Y-59493500D02*
X196178220Y-59493500D01*
X196178220Y-58591100D01*
X197130620Y-58591100D01*
X197130620Y-59493500D01*
X197130620Y-59493500D01*
G37*
G36*
X199647060Y-59463020D02*
X198694660Y-59463020D01*
X198694660Y-58560620D01*
X199647060Y-58560620D01*
X199647060Y-59463020D01*
X199647060Y-59463020D01*
G37*
G36*
X201147060Y-59463020D02*
X200194660Y-59463020D01*
X200194660Y-58560620D01*
X201147060Y-58560620D01*
X201147060Y-59463020D01*
X201147060Y-59463020D01*
G37*
G36*
X178653600Y-59460000D02*
X177251200Y-59460000D01*
X177251200Y-58307600D01*
X178653600Y-58307600D01*
X178653600Y-59460000D01*
X178653600Y-59460000D01*
G37*
G36*
X175900080Y-59388820D02*
X174997680Y-59388820D01*
X174997680Y-58436420D01*
X175900080Y-58436420D01*
X175900080Y-59388820D01*
X175900080Y-59388820D01*
G37*
G36*
X238697400Y-58915200D02*
X237545000Y-58915200D01*
X237545000Y-57512800D01*
X238697400Y-57512800D01*
X238697400Y-58915200D01*
X238697400Y-58915200D01*
G37*
G36*
X236697400Y-58915200D02*
X235545000Y-58915200D01*
X235545000Y-57512800D01*
X236697400Y-57512800D01*
X236697400Y-58915200D01*
X236697400Y-58915200D01*
G37*
G36*
X170698598Y-58712118D02*
X168646198Y-58712118D01*
X168646198Y-56659718D01*
X170698598Y-56659718D01*
X170698598Y-58712118D01*
X170698598Y-58712118D01*
G37*
G36*
X244588443Y-57023557D02*
X244749458Y-57056609D01*
X244901001Y-57120311D01*
X245037273Y-57212229D01*
X245153106Y-57328872D01*
X245244068Y-57465782D01*
X245306710Y-57617763D01*
X245338568Y-57778656D01*
X245338568Y-57778666D01*
X245338636Y-57779010D01*
X245336015Y-57966763D01*
X245335937Y-57967106D01*
X245335937Y-57967109D01*
X245299597Y-58127061D01*
X245232740Y-58277225D01*
X245137984Y-58411547D01*
X245018945Y-58524908D01*
X244880153Y-58612988D01*
X244726899Y-58672431D01*
X244565019Y-58700975D01*
X244400673Y-58697532D01*
X244240128Y-58662235D01*
X244089494Y-58596424D01*
X243954518Y-58502613D01*
X243840330Y-58384368D01*
X243751283Y-58246194D01*
X243690769Y-58093353D01*
X243661097Y-57931681D01*
X243663391Y-57767316D01*
X243697569Y-57606526D01*
X243762323Y-57455440D01*
X243855194Y-57319807D01*
X243972637Y-57204798D01*
X244110186Y-57114788D01*
X244262597Y-57053210D01*
X244424062Y-57022409D01*
X244588443Y-57023557D01*
X244588443Y-57023557D01*
G37*
G36*
X204658926Y-56732842D02*
X204658931Y-56732844D01*
X204658973Y-56732848D01*
X204834187Y-56787086D01*
X204995529Y-56874323D01*
X205136855Y-56991238D01*
X205252779Y-57133376D01*
X205338888Y-57295323D01*
X205391902Y-57470912D01*
X205409800Y-57653453D01*
X205409800Y-57662580D01*
X205409723Y-57673612D01*
X205409722Y-57673617D01*
X205409708Y-57675669D01*
X205389263Y-57857942D01*
X205333803Y-58032774D01*
X205245442Y-58193503D01*
X205127544Y-58334008D01*
X204984600Y-58448938D01*
X204822055Y-58533914D01*
X204646101Y-58585701D01*
X204646065Y-58585704D01*
X204646056Y-58585707D01*
X204463442Y-58602326D01*
X204281074Y-58583158D01*
X204281069Y-58583156D01*
X204281027Y-58583152D01*
X204105813Y-58528914D01*
X203944471Y-58441677D01*
X203803145Y-58324762D01*
X203687221Y-58182624D01*
X203601112Y-58020677D01*
X203548098Y-57845088D01*
X203530200Y-57662547D01*
X203530200Y-57653420D01*
X203530277Y-57642388D01*
X203530278Y-57642383D01*
X203530292Y-57640331D01*
X203550737Y-57458058D01*
X203606197Y-57283226D01*
X203694558Y-57122497D01*
X203812456Y-56981992D01*
X203955400Y-56867062D01*
X204117945Y-56782086D01*
X204293899Y-56730299D01*
X204293935Y-56730296D01*
X204293944Y-56730293D01*
X204476558Y-56713674D01*
X204658926Y-56732842D01*
X204658926Y-56732842D01*
G37*
G36*
X207198926Y-56732842D02*
X207198931Y-56732844D01*
X207198973Y-56732848D01*
X207374187Y-56787086D01*
X207535529Y-56874323D01*
X207676855Y-56991238D01*
X207792779Y-57133376D01*
X207878888Y-57295323D01*
X207931902Y-57470912D01*
X207949800Y-57653453D01*
X207949800Y-57662580D01*
X207949723Y-57673612D01*
X207949722Y-57673617D01*
X207949708Y-57675669D01*
X207929263Y-57857942D01*
X207873803Y-58032774D01*
X207785442Y-58193503D01*
X207667544Y-58334008D01*
X207524600Y-58448938D01*
X207362055Y-58533914D01*
X207186101Y-58585701D01*
X207186065Y-58585704D01*
X207186056Y-58585707D01*
X207003442Y-58602326D01*
X206821074Y-58583158D01*
X206821069Y-58583156D01*
X206821027Y-58583152D01*
X206645813Y-58528914D01*
X206484471Y-58441677D01*
X206343145Y-58324762D01*
X206227221Y-58182624D01*
X206141112Y-58020677D01*
X206088098Y-57845088D01*
X206070200Y-57662547D01*
X206070200Y-57653420D01*
X206070277Y-57642388D01*
X206070278Y-57642383D01*
X206070292Y-57640331D01*
X206090737Y-57458058D01*
X206146197Y-57283226D01*
X206234558Y-57122497D01*
X206352456Y-56981992D01*
X206495400Y-56867062D01*
X206657945Y-56782086D01*
X206833899Y-56730299D01*
X206833935Y-56730296D01*
X206833944Y-56730293D01*
X207016558Y-56713674D01*
X207198926Y-56732842D01*
X207198926Y-56732842D01*
G37*
G36*
X210489800Y-58597800D02*
X208610200Y-58597800D01*
X208610200Y-56718200D01*
X210489800Y-56718200D01*
X210489800Y-58597800D01*
X210489800Y-58597800D01*
G37*
G36*
X213455600Y-58388200D02*
X212553200Y-58388200D01*
X212553200Y-57435800D01*
X213455600Y-57435800D01*
X213455600Y-58388200D01*
X213455600Y-58388200D01*
G37*
G36*
X173098598Y-58062118D02*
X171596198Y-58062118D01*
X171596198Y-54909718D01*
X173098598Y-54909718D01*
X173098598Y-58062118D01*
X173098598Y-58062118D01*
G37*
G36*
X227087800Y-57931000D02*
X225235400Y-57931000D01*
X225235400Y-56978600D01*
X227087800Y-56978600D01*
X227087800Y-57931000D01*
X227087800Y-57931000D01*
G37*
G36*
X175900080Y-57888820D02*
X174997680Y-57888820D01*
X174997680Y-56936420D01*
X175900080Y-56936420D01*
X175900080Y-57888820D01*
X175900080Y-57888820D01*
G37*
G36*
X223234200Y-57855200D02*
X222281800Y-57855200D01*
X222281800Y-56952800D01*
X223234200Y-56952800D01*
X223234200Y-57855200D01*
X223234200Y-57855200D01*
G37*
G36*
X221734200Y-57855200D02*
X220781800Y-57855200D01*
X220781800Y-56952800D01*
X221734200Y-56952800D01*
X221734200Y-57855200D01*
X221734200Y-57855200D01*
G37*
G36*
X197130620Y-57725660D02*
X196178220Y-57725660D01*
X196178220Y-56823260D01*
X197130620Y-56823260D01*
X197130620Y-57725660D01*
X197130620Y-57725660D01*
G37*
G36*
X195630620Y-57725660D02*
X194678220Y-57725660D01*
X194678220Y-56823260D01*
X195630620Y-56823260D01*
X195630620Y-57725660D01*
X195630620Y-57725660D01*
G37*
G36*
X201152840Y-57718040D02*
X200200440Y-57718040D01*
X200200440Y-56815640D01*
X201152840Y-56815640D01*
X201152840Y-57718040D01*
X201152840Y-57718040D01*
G37*
G36*
X199652840Y-57718040D02*
X198700440Y-57718040D01*
X198700440Y-56815640D01*
X199652840Y-56815640D01*
X199652840Y-57718040D01*
X199652840Y-57718040D01*
G37*
G36*
X213455600Y-56888200D02*
X212553200Y-56888200D01*
X212553200Y-55935800D01*
X213455600Y-55935800D01*
X213455600Y-56888200D01*
X213455600Y-56888200D01*
G37*
G36*
X236647450Y-56689230D02*
X235694950Y-56689230D01*
X235694950Y-55736730D01*
X236647450Y-55736730D01*
X236647450Y-56689230D01*
X236647450Y-56689230D01*
G37*
G36*
X238547450Y-56689230D02*
X237594950Y-56689230D01*
X237594950Y-55736730D01*
X238547450Y-55736730D01*
X238547450Y-56689230D01*
X238547450Y-56689230D01*
G37*
G36*
X170698598Y-56312118D02*
X168646198Y-56312118D01*
X168646198Y-54259718D01*
X170698598Y-54259718D01*
X170698598Y-56312118D01*
X170698598Y-56312118D01*
G37*
G36*
X244588443Y-54483557D02*
X244749458Y-54516609D01*
X244901001Y-54580311D01*
X245037273Y-54672229D01*
X245153106Y-54788872D01*
X245244068Y-54925782D01*
X245306710Y-55077763D01*
X245338568Y-55238656D01*
X245338568Y-55238666D01*
X245338636Y-55239010D01*
X245336015Y-55426763D01*
X245335937Y-55427106D01*
X245335937Y-55427109D01*
X245299597Y-55587061D01*
X245232740Y-55737225D01*
X245137984Y-55871547D01*
X245018945Y-55984908D01*
X244880153Y-56072988D01*
X244726899Y-56132431D01*
X244565019Y-56160975D01*
X244400673Y-56157532D01*
X244240128Y-56122235D01*
X244089494Y-56056424D01*
X243954518Y-55962613D01*
X243840330Y-55844368D01*
X243751283Y-55706194D01*
X243690769Y-55553353D01*
X243661097Y-55391681D01*
X243663391Y-55227316D01*
X243697569Y-55066526D01*
X243762323Y-54915440D01*
X243855194Y-54779807D01*
X243972637Y-54664798D01*
X244110186Y-54574788D01*
X244262597Y-54513210D01*
X244424062Y-54482409D01*
X244588443Y-54483557D01*
X244588443Y-54483557D01*
G37*
G36*
X199631120Y-55901940D02*
X198678720Y-55901940D01*
X198678720Y-54999540D01*
X199631120Y-54999540D01*
X199631120Y-55901940D01*
X199631120Y-55901940D01*
G37*
G36*
X201131120Y-55901940D02*
X200178720Y-55901940D01*
X200178720Y-54999540D01*
X201131120Y-54999540D01*
X201131120Y-55901940D01*
X201131120Y-55901940D01*
G37*
G36*
X195630620Y-55901940D02*
X194678220Y-55901940D01*
X194678220Y-54999540D01*
X195630620Y-54999540D01*
X195630620Y-55901940D01*
X195630620Y-55901940D01*
G37*
G36*
X197130620Y-55901940D02*
X196178220Y-55901940D01*
X196178220Y-54999540D01*
X197130620Y-54999540D01*
X197130620Y-55901940D01*
X197130620Y-55901940D01*
G37*
G36*
X192645030Y-55260240D02*
X190691770Y-55260240D01*
X190691770Y-52608480D01*
X192645030Y-52608480D01*
X192645030Y-55260240D01*
X192645030Y-55260240D01*
G37*
G36*
X187991400Y-55246400D02*
X186839000Y-55246400D01*
X186839000Y-52094000D01*
X187991400Y-52094000D01*
X187991400Y-55246400D01*
X187991400Y-55246400D01*
G37*
G36*
X183391400Y-55246400D02*
X182239000Y-55246400D01*
X182239000Y-52094000D01*
X183391400Y-52094000D01*
X183391400Y-55246400D01*
X183391400Y-55246400D01*
G37*
G36*
X237597450Y-54690250D02*
X236644950Y-54690250D01*
X236644950Y-53737750D01*
X237597450Y-53737750D01*
X237597450Y-54690250D01*
X237597450Y-54690250D01*
G37*
G36*
X175920080Y-54348820D02*
X175017680Y-54348820D01*
X175017680Y-53396420D01*
X175920080Y-53396420D01*
X175920080Y-54348820D01*
X175920080Y-54348820D01*
G37*
G36*
X172898598Y-54162118D02*
X171346198Y-54162118D01*
X171346198Y-52409718D01*
X172898598Y-52409718D01*
X172898598Y-54162118D01*
X172898598Y-54162118D01*
G37*
G36*
X233885880Y-54070040D02*
X232983480Y-54070040D01*
X232983480Y-53117640D01*
X233885880Y-53117640D01*
X233885880Y-54070040D01*
X233885880Y-54070040D01*
G37*
G36*
X230799380Y-54032340D02*
X229846980Y-54032340D01*
X229846980Y-53129940D01*
X230799380Y-53129940D01*
X230799380Y-54032340D01*
X230799380Y-54032340D01*
G37*
G36*
X232299380Y-54032340D02*
X231346980Y-54032340D01*
X231346980Y-53129940D01*
X232299380Y-53129940D01*
X232299380Y-54032340D01*
X232299380Y-54032340D01*
G37*
G36*
X244588443Y-51943557D02*
X244749458Y-51976609D01*
X244901001Y-52040311D01*
X245037273Y-52132229D01*
X245153106Y-52248872D01*
X245244068Y-52385782D01*
X245306710Y-52537763D01*
X245338568Y-52698656D01*
X245338568Y-52698666D01*
X245338636Y-52699010D01*
X245336015Y-52886763D01*
X245335937Y-52887106D01*
X245335937Y-52887109D01*
X245299597Y-53047061D01*
X245232740Y-53197225D01*
X245137984Y-53331547D01*
X245018945Y-53444908D01*
X244880153Y-53532988D01*
X244726899Y-53592431D01*
X244565019Y-53620975D01*
X244400673Y-53617532D01*
X244240128Y-53582235D01*
X244089494Y-53516424D01*
X243954518Y-53422613D01*
X243840330Y-53304368D01*
X243751283Y-53166194D01*
X243690769Y-53013353D01*
X243661097Y-52851681D01*
X243663391Y-52687316D01*
X243697569Y-52526526D01*
X243762323Y-52375440D01*
X243855194Y-52239807D01*
X243972637Y-52124798D01*
X244110186Y-52034788D01*
X244262597Y-51973210D01*
X244424062Y-51942409D01*
X244588443Y-51943557D01*
X244588443Y-51943557D01*
G37*
G36*
X169743426Y-52260166D02*
X169873320Y-52286830D01*
X169995575Y-52338221D01*
X170105513Y-52412375D01*
X170198950Y-52506467D01*
X170272339Y-52616926D01*
X170322873Y-52739530D01*
X170348560Y-52869259D01*
X170348560Y-52869274D01*
X170348627Y-52869613D01*
X170346512Y-53021078D01*
X170346436Y-53021412D01*
X170346436Y-53021425D01*
X170317134Y-53150396D01*
X170263199Y-53271537D01*
X170186757Y-53379900D01*
X170090724Y-53471351D01*
X169978758Y-53542407D01*
X169855120Y-53590363D01*
X169724529Y-53613390D01*
X169591945Y-53610612D01*
X169462429Y-53582137D01*
X169340908Y-53529045D01*
X169232019Y-53453365D01*
X169139900Y-53357974D01*
X169068063Y-53246504D01*
X169019244Y-53123202D01*
X168995307Y-52992777D01*
X168997158Y-52860179D01*
X169024730Y-52730464D01*
X169076969Y-52608579D01*
X169151891Y-52499160D01*
X169246639Y-52406376D01*
X169357597Y-52333766D01*
X169480555Y-52284088D01*
X169610813Y-52259241D01*
X169743426Y-52260166D01*
X169743426Y-52260166D01*
G37*
G36*
X179488876Y-49082380D02*
X179887716Y-49164251D01*
X180263073Y-49322036D01*
X180600626Y-49549719D01*
X180887528Y-49838630D01*
X181112847Y-50177764D01*
X181268005Y-50554206D01*
X181347022Y-50953269D01*
X181347022Y-50953279D01*
X181347089Y-50953618D01*
X181340595Y-51418676D01*
X181340519Y-51419010D01*
X181340519Y-51419023D01*
X181250390Y-51815725D01*
X181084784Y-52187684D01*
X180850079Y-52520397D01*
X180555222Y-52801186D01*
X180211443Y-53019356D01*
X179831831Y-53166597D01*
X179430857Y-53237300D01*
X179023780Y-53228772D01*
X178626112Y-53141339D01*
X178253001Y-52978331D01*
X177918663Y-52745960D01*
X177635822Y-52453070D01*
X177415258Y-52110820D01*
X177265368Y-51732244D01*
X177191869Y-51331775D01*
X177197553Y-50924649D01*
X177282208Y-50526380D01*
X177442606Y-50152143D01*
X177672641Y-49816185D01*
X177963548Y-49531308D01*
X178304250Y-49308359D01*
X178681767Y-49155832D01*
X179081716Y-49079538D01*
X179488876Y-49082380D01*
X179488876Y-49082380D01*
G37*
G36*
X227560880Y-53041740D02*
X226608480Y-53041740D01*
X226608480Y-52139340D01*
X227560880Y-52139340D01*
X227560880Y-53041740D01*
X227560880Y-53041740D01*
G37*
G36*
X229060880Y-53041740D02*
X228108480Y-53041740D01*
X228108480Y-52139340D01*
X229060880Y-52139340D01*
X229060880Y-53041740D01*
X229060880Y-53041740D01*
G37*
G36*
X211288960Y-52979520D02*
X210136560Y-52979520D01*
X210136560Y-49327120D01*
X211288960Y-49327120D01*
X211288960Y-52979520D01*
X211288960Y-52979520D01*
G37*
G36*
X213288960Y-52979520D02*
X212136560Y-52979520D01*
X212136560Y-49327120D01*
X213288960Y-49327120D01*
X213288960Y-52979520D01*
X213288960Y-52979520D01*
G37*
G36*
X204481780Y-52960920D02*
X203579380Y-52960920D01*
X203579380Y-52008520D01*
X204481780Y-52008520D01*
X204481780Y-52960920D01*
X204481780Y-52960920D01*
G37*
G36*
X206305500Y-52956540D02*
X205403100Y-52956540D01*
X205403100Y-52004140D01*
X206305500Y-52004140D01*
X206305500Y-52956540D01*
X206305500Y-52956540D01*
G37*
G36*
X236897400Y-52915200D02*
X235745000Y-52915200D01*
X235745000Y-51512800D01*
X236897400Y-51512800D01*
X236897400Y-52915200D01*
X236897400Y-52915200D01*
G37*
G36*
X238897400Y-52915200D02*
X237745000Y-52915200D01*
X237745000Y-51512800D01*
X238897400Y-51512800D01*
X238897400Y-52915200D01*
X238897400Y-52915200D01*
G37*
G36*
X175920080Y-52848820D02*
X175017680Y-52848820D01*
X175017680Y-51896420D01*
X175920080Y-51896420D01*
X175920080Y-52848820D01*
X175920080Y-52848820D01*
G37*
G36*
X194510315Y-50724424D02*
X194690848Y-50761483D01*
X194860758Y-50832906D01*
X195013549Y-50935966D01*
X195143421Y-51066746D01*
X195245410Y-51220253D01*
X195315643Y-51390651D01*
X195351372Y-51571099D01*
X195351372Y-51571104D01*
X195351440Y-51571448D01*
X195348501Y-51781958D01*
X195348424Y-51782296D01*
X195348424Y-51782306D01*
X195307670Y-51961686D01*
X195232708Y-52130052D01*
X195126468Y-52280656D01*
X194992999Y-52407757D01*
X194837384Y-52506514D01*
X194665554Y-52573162D01*
X194484052Y-52605166D01*
X194299786Y-52601306D01*
X194119779Y-52561729D01*
X193950888Y-52487943D01*
X193799550Y-52382760D01*
X193671521Y-52250182D01*
X193571681Y-52095261D01*
X193503832Y-51923893D01*
X193470563Y-51742623D01*
X193473135Y-51558336D01*
X193511456Y-51378056D01*
X193584059Y-51208657D01*
X193688187Y-51056584D01*
X193819866Y-50927633D01*
X193974087Y-50826714D01*
X194144972Y-50757672D01*
X194326009Y-50723138D01*
X194510315Y-50724424D01*
X194510315Y-50724424D01*
G37*
G36*
X233885880Y-52570040D02*
X232983480Y-52570040D01*
X232983480Y-51617640D01*
X233885880Y-51617640D01*
X233885880Y-52570040D01*
X233885880Y-52570040D01*
G37*
G36*
X219310320Y-52414460D02*
X217907920Y-52414460D01*
X217907920Y-51262060D01*
X219310320Y-51262060D01*
X219310320Y-52414460D01*
X219310320Y-52414460D01*
G37*
G36*
X230863280Y-52406340D02*
X229960880Y-52406340D01*
X229960880Y-51453940D01*
X230863280Y-51453940D01*
X230863280Y-52406340D01*
X230863280Y-52406340D01*
G37*
G36*
X221545520Y-52379660D02*
X220143120Y-52379660D01*
X220143120Y-51227260D01*
X221545520Y-51227260D01*
X221545520Y-52379660D01*
X221545520Y-52379660D01*
G37*
G36*
X224840080Y-52215940D02*
X223492480Y-52215940D01*
X223492480Y-48818340D01*
X224840080Y-48818340D01*
X224840080Y-52215940D01*
X224840080Y-52215940D01*
G37*
G36*
X201707940Y-52169020D02*
X199255540Y-52169020D01*
X199255540Y-51286620D01*
X201707940Y-51286620D01*
X201707940Y-52169020D01*
X201707940Y-52169020D01*
G37*
G36*
X197470840Y-51869800D02*
X196818440Y-51869800D01*
X196818440Y-51117400D01*
X197470840Y-51117400D01*
X197470840Y-51869800D01*
X197470840Y-51869800D01*
G37*
G36*
X223163280Y-51664140D02*
X222319280Y-51664140D01*
X222319280Y-51370140D01*
X223163280Y-51370140D01*
X223163280Y-51664140D01*
X223163280Y-51664140D01*
G37*
G36*
X226013280Y-51664140D02*
X225169280Y-51664140D01*
X225169280Y-51370140D01*
X226013280Y-51370140D01*
X226013280Y-51664140D01*
X226013280Y-51664140D01*
G37*
G36*
X204481780Y-51460920D02*
X203579380Y-51460920D01*
X203579380Y-50508520D01*
X204481780Y-50508520D01*
X204481780Y-51460920D01*
X204481780Y-51460920D01*
G37*
G36*
X206305500Y-51456540D02*
X205403100Y-51456540D01*
X205403100Y-50504140D01*
X206305500Y-50504140D01*
X206305500Y-51456540D01*
X206305500Y-51456540D01*
G37*
G36*
X192645030Y-51262280D02*
X190691770Y-51262280D01*
X190691770Y-48610520D01*
X192645030Y-48610520D01*
X192645030Y-51262280D01*
X192645030Y-51262280D01*
G37*
G36*
X223163280Y-51164140D02*
X222319280Y-51164140D01*
X222319280Y-50870140D01*
X223163280Y-50870140D01*
X223163280Y-51164140D01*
X223163280Y-51164140D01*
G37*
G36*
X226013280Y-51164140D02*
X225169280Y-51164140D01*
X225169280Y-50870140D01*
X226013280Y-50870140D01*
X226013280Y-51164140D01*
X226013280Y-51164140D01*
G37*
G36*
X201807940Y-51089020D02*
X199155540Y-51089020D01*
X199155540Y-48436620D01*
X201807940Y-48436620D01*
X201807940Y-51089020D01*
X201807940Y-51089020D01*
G37*
G36*
X202887940Y-50989020D02*
X202005540Y-50989020D01*
X202005540Y-48536620D01*
X202887940Y-48536620D01*
X202887940Y-50989020D01*
X202887940Y-50989020D01*
G37*
G36*
X198957940Y-50989020D02*
X198075540Y-50989020D01*
X198075540Y-48536620D01*
X198957940Y-48536620D01*
X198957940Y-50989020D01*
X198957940Y-50989020D01*
G37*
G36*
X232513880Y-50908140D02*
X231561480Y-50908140D01*
X231561480Y-50005740D01*
X232513880Y-50005740D01*
X232513880Y-50908140D01*
X232513880Y-50908140D01*
G37*
G36*
X234013880Y-50908140D02*
X233061480Y-50908140D01*
X233061480Y-50005740D01*
X234013880Y-50005740D01*
X234013880Y-50908140D01*
X234013880Y-50908140D01*
G37*
G36*
X230863280Y-50906340D02*
X229960880Y-50906340D01*
X229960880Y-49953940D01*
X230863280Y-49953940D01*
X230863280Y-50906340D01*
X230863280Y-50906340D01*
G37*
G36*
X197470840Y-50769800D02*
X196818440Y-50769800D01*
X196818440Y-50017400D01*
X197470840Y-50017400D01*
X197470840Y-50769800D01*
X197470840Y-50769800D01*
G37*
G36*
X223163280Y-50664140D02*
X222319280Y-50664140D01*
X222319280Y-50370140D01*
X223163280Y-50370140D01*
X223163280Y-50664140D01*
X223163280Y-50664140D01*
G37*
G36*
X226013280Y-50664140D02*
X225169280Y-50664140D01*
X225169280Y-50370140D01*
X226013280Y-50370140D01*
X226013280Y-50664140D01*
X226013280Y-50664140D01*
G37*
G36*
X219310320Y-50414460D02*
X217907920Y-50414460D01*
X217907920Y-49262060D01*
X219310320Y-49262060D01*
X219310320Y-50414460D01*
X219310320Y-50414460D01*
G37*
G36*
X221545520Y-50379660D02*
X220143120Y-50379660D01*
X220143120Y-49227260D01*
X221545520Y-49227260D01*
X221545520Y-50379660D01*
X221545520Y-50379660D01*
G37*
G36*
X188098430Y-50195480D02*
X186145170Y-50195480D01*
X186145170Y-47543720D01*
X188098430Y-47543720D01*
X188098430Y-50195480D01*
X188098430Y-50195480D01*
G37*
G36*
X223163280Y-50164140D02*
X222319280Y-50164140D01*
X222319280Y-49870140D01*
X223163280Y-49870140D01*
X223163280Y-50164140D01*
X223163280Y-50164140D01*
G37*
G36*
X226013280Y-50164140D02*
X225169280Y-50164140D01*
X225169280Y-49870140D01*
X226013280Y-49870140D01*
X226013280Y-50164140D01*
X226013280Y-50164140D01*
G37*
G36*
X223163280Y-49664140D02*
X222319280Y-49664140D01*
X222319280Y-49370140D01*
X223163280Y-49370140D01*
X223163280Y-49664140D01*
X223163280Y-49664140D01*
G37*
G36*
X226013280Y-49664140D02*
X225169280Y-49664140D01*
X225169280Y-49370140D01*
X226013280Y-49370140D01*
X226013280Y-49664140D01*
X226013280Y-49664140D01*
G37*
G36*
X205353820Y-49220000D02*
X203601420Y-49220000D01*
X203601420Y-48067600D01*
X205353820Y-48067600D01*
X205353820Y-49220000D01*
X205353820Y-49220000D01*
G37*
G36*
X237224680Y-49102740D02*
X234572280Y-49102740D01*
X234572280Y-47950340D01*
X237224680Y-47950340D01*
X237224680Y-49102740D01*
X237224680Y-49102740D01*
G37*
G36*
X233414680Y-49102740D02*
X230762280Y-49102740D01*
X230762280Y-47950340D01*
X233414680Y-47950340D01*
X233414680Y-49102740D01*
X233414680Y-49102740D01*
G37*
G36*
X229604680Y-49102740D02*
X226952280Y-49102740D01*
X226952280Y-47950340D01*
X229604680Y-47950340D01*
X229604680Y-49102740D01*
X229604680Y-49102740D01*
G37*
G36*
X176489136Y-44383380D02*
X176887976Y-44465251D01*
X177263333Y-44623036D01*
X177600886Y-44850719D01*
X177887788Y-45139630D01*
X178113107Y-45478764D01*
X178268265Y-45855206D01*
X178347282Y-46254269D01*
X178347282Y-46254279D01*
X178347349Y-46254618D01*
X178340855Y-46719676D01*
X178340779Y-46720010D01*
X178340779Y-46720023D01*
X178250650Y-47116725D01*
X178085044Y-47488684D01*
X177850339Y-47821397D01*
X177555482Y-48102186D01*
X177211703Y-48320356D01*
X176832091Y-48467597D01*
X176431117Y-48538300D01*
X176024040Y-48529772D01*
X175626372Y-48442339D01*
X175253261Y-48279331D01*
X174918923Y-48046960D01*
X174636082Y-47754070D01*
X174415518Y-47411820D01*
X174265628Y-47033244D01*
X174192129Y-46632775D01*
X174197813Y-46225649D01*
X174282468Y-45827380D01*
X174442866Y-45453143D01*
X174672901Y-45117185D01*
X174963808Y-44832308D01*
X175304510Y-44609359D01*
X175682027Y-44456832D01*
X176081976Y-44380538D01*
X176489136Y-44383380D01*
X176489136Y-44383380D01*
G37*
G36*
X182488616Y-44383380D02*
X182887456Y-44465251D01*
X183262813Y-44623036D01*
X183600366Y-44850719D01*
X183887268Y-45139630D01*
X184112587Y-45478764D01*
X184267745Y-45855206D01*
X184346762Y-46254269D01*
X184346762Y-46254279D01*
X184346829Y-46254618D01*
X184340335Y-46719676D01*
X184340259Y-46720010D01*
X184340259Y-46720023D01*
X184250130Y-47116725D01*
X184084524Y-47488684D01*
X183849819Y-47821397D01*
X183554962Y-48102186D01*
X183211183Y-48320356D01*
X182831571Y-48467597D01*
X182430597Y-48538300D01*
X182023520Y-48529772D01*
X181625852Y-48442339D01*
X181252741Y-48279331D01*
X180918403Y-48046960D01*
X180635562Y-47754070D01*
X180414998Y-47411820D01*
X180265108Y-47033244D01*
X180191609Y-46632775D01*
X180197293Y-46225649D01*
X180281948Y-45827380D01*
X180442346Y-45453143D01*
X180672381Y-45117185D01*
X180963288Y-44832308D01*
X181303990Y-44609359D01*
X181681507Y-44456832D01*
X182081456Y-44380538D01*
X182488616Y-44383380D01*
X182488616Y-44383380D01*
G37*
G36*
X201707940Y-48239020D02*
X199255540Y-48239020D01*
X199255540Y-47356620D01*
X201707940Y-47356620D01*
X201707940Y-48239020D01*
X201707940Y-48239020D01*
G37*
G36*
X171055042Y-46016115D02*
X171261777Y-46058552D01*
X171456347Y-46140341D01*
X171631318Y-46258361D01*
X171780033Y-46408118D01*
X171896827Y-46583908D01*
X171977253Y-46779036D01*
X172018178Y-46985724D01*
X172018178Y-46985729D01*
X172018246Y-46986073D01*
X172014880Y-47227136D01*
X172014803Y-47227474D01*
X172014803Y-47227483D01*
X171968122Y-47432949D01*
X171882281Y-47625752D01*
X171760621Y-47798215D01*
X171607782Y-47943762D01*
X171429584Y-48056850D01*
X171232810Y-48133173D01*
X171024967Y-48169822D01*
X170813957Y-48165402D01*
X170607825Y-48120081D01*
X170414422Y-48035585D01*
X170241119Y-47915136D01*
X170094508Y-47763317D01*
X169980178Y-47585910D01*
X169902481Y-47389672D01*
X169864384Y-47182092D01*
X169867330Y-46971058D01*
X169911211Y-46764613D01*
X169994353Y-46570628D01*
X170113593Y-46396483D01*
X170264384Y-46248817D01*
X170440988Y-46133251D01*
X170636675Y-46054188D01*
X170843987Y-46014642D01*
X171055042Y-46016115D01*
X171055042Y-46016115D01*
G37*
G36*
X194151000Y-47764600D02*
X192998600Y-47764600D01*
X192998600Y-46012200D01*
X194151000Y-46012200D01*
X194151000Y-47764600D01*
X194151000Y-47764600D01*
G37*
G36*
X191151000Y-47764600D02*
X189998600Y-47764600D01*
X189998600Y-46012200D01*
X191151000Y-46012200D01*
X191151000Y-47764600D01*
X191151000Y-47764600D01*
G37*
G36*
X209188960Y-47379520D02*
X207436560Y-47379520D01*
X207436560Y-43827120D01*
X209188960Y-43827120D01*
X209188960Y-47379520D01*
X209188960Y-47379520D01*
G37*
G36*
X215988960Y-47379520D02*
X214236560Y-47379520D01*
X214236560Y-43827120D01*
X215988960Y-43827120D01*
X215988960Y-47379520D01*
X215988960Y-47379520D01*
G37*
G36*
X199263760Y-46697800D02*
X198111360Y-46697800D01*
X198111360Y-44945400D01*
X199263760Y-44945400D01*
X199263760Y-46697800D01*
X199263760Y-46697800D01*
G37*
G36*
X202263760Y-46697800D02*
X201111360Y-46697800D01*
X201111360Y-44945400D01*
X202263760Y-44945400D01*
X202263760Y-46697800D01*
X202263760Y-46697800D01*
G37*
G36*
X223390680Y-46637340D02*
X222338280Y-46637340D01*
X222338280Y-45284940D01*
X223390680Y-45284940D01*
X223390680Y-46637340D01*
X223390680Y-46637340D01*
G37*
G36*
X226090680Y-46637340D02*
X225038280Y-46637340D01*
X225038280Y-45284940D01*
X226090680Y-45284940D01*
X226090680Y-46637340D01*
X226090680Y-46637340D01*
G37*
G36*
X205353820Y-46220000D02*
X203601420Y-46220000D01*
X203601420Y-45067600D01*
X205353820Y-45067600D01*
X205353820Y-46220000D01*
X205353820Y-46220000D01*
G37*
G36*
X188098430Y-46197520D02*
X186145170Y-46197520D01*
X186145170Y-43545760D01*
X188098430Y-43545760D01*
X188098430Y-46197520D01*
X188098430Y-46197520D01*
G37*
G36*
X237224680Y-46102740D02*
X234572280Y-46102740D01*
X234572280Y-44950340D01*
X237224680Y-44950340D01*
X237224680Y-46102740D01*
X237224680Y-46102740D01*
G37*
G36*
X233414680Y-46102740D02*
X230762280Y-46102740D01*
X230762280Y-44950340D01*
X233414680Y-44950340D01*
X233414680Y-46102740D01*
X233414680Y-46102740D01*
G37*
G36*
X229604680Y-46102740D02*
X226952280Y-46102740D01*
X226952280Y-44950340D01*
X229604680Y-44950340D01*
X229604680Y-46102740D01*
X229604680Y-46102740D01*
G37*
G36*
X191203400Y-45155200D02*
X190251000Y-45155200D01*
X190251000Y-44252800D01*
X191203400Y-44252800D01*
X191203400Y-45155200D01*
X191203400Y-45155200D01*
G37*
G36*
X192703400Y-45155200D02*
X191751000Y-45155200D01*
X191751000Y-44252800D01*
X192703400Y-44252800D01*
X192703400Y-45155200D01*
X192703400Y-45155200D01*
G37*
M02*
