%TF.GenerationSoftware,KiCad,Pcbnew,4.0.5-e0-6337~49~ubuntu16.04.1*%
%TF.CreationDate,2017-07-25T12:16:49-07:00*%
%TF.ProjectId,mcphail-main-board,6D63706861696C2D6D61696E2D626F61,1.0*%
%TF.FileFunction,Legend,Bot*%
%FSLAX46Y46*%
G04 Gerber Fmt 4.6, Leading zero omitted, Abs format (unit mm)*
G04 Created by KiCad (PCBNEW 4.0.5-e0-6337~49~ubuntu16.04.1) date Tue Jul 25 12:16:49 2017*
%MOMM*%
%LPD*%
G01*
G04 APERTURE LIST*
%ADD10C,0.350000*%
%ADD11R,2.184400X2.184400*%
%ADD12O,2.184400X2.184400*%
%ADD13R,2.184400X1.879600*%
%ADD14O,2.184400X1.879600*%
%ADD15C,1.352400*%
%ADD16R,1.879600X1.879600*%
%ADD17O,1.879600X1.879600*%
%ADD18C,1.676400*%
%ADD19C,4.152400*%
%ADD20C,1.879600*%
%ADD21C,1.752400*%
G04 APERTURE END LIST*
D10*
%LPC*%
D11*
X81136262Y-132761500D03*
D12*
X81136262Y-135301500D03*
D11*
X107813881Y-116001500D03*
D12*
X107813881Y-118541500D03*
D13*
X77636500Y-113911501D03*
D14*
X77636500Y-116451501D03*
X77636500Y-118991501D03*
X77636500Y-121531501D03*
X77636500Y-124071501D03*
X77636500Y-126611501D03*
D15*
X99526501Y-100137701D03*
X106626501Y-100137701D03*
D16*
X112814501Y-79645501D03*
D17*
X115354501Y-79645501D03*
X112814501Y-82185501D03*
X115354501Y-82185501D03*
X112814501Y-84725501D03*
X115354501Y-84725501D03*
D18*
X76847701Y-74371500D03*
X79387701Y-74371500D03*
X81927701Y-74371500D03*
X84467701Y-74371500D03*
X87007701Y-74371500D03*
X89547701Y-74371500D03*
X92087701Y-74371500D03*
X94627701Y-74371500D03*
X97167701Y-74371500D03*
X99707701Y-74371500D03*
X102247701Y-74371500D03*
X104787701Y-74371500D03*
X107327701Y-74371500D03*
X109867701Y-74371500D03*
X112407701Y-74371500D03*
X114947701Y-74371500D03*
D19*
X144780000Y-72740520D03*
X144780000Y-78740000D03*
X149479000Y-75740260D03*
D20*
X134106500Y-139593900D03*
D21*
X89423101Y-101238101D03*
X94303101Y-101238101D03*
M02*
