M48
;DRILL file {KiCad 4.0.5-e0-6337~49~ubuntu16.04.1} date Thu Jul 27 13:02:09 2017
;FORMAT={-:-/ absolute / metric / decimal}
FMAT,2
METRIC,TZ
T1C0.762
T2C0.800
T3C1.016
T4C1.200
T5C3.000
%
G90
G05
M71
T1
X52.87Y-20.569
X55.41Y-20.569
X57.95Y-20.569
X60.49Y-20.569
X63.03Y-20.569
X65.57Y-20.569
X68.11Y-20.569
X70.65Y-20.569
X73.19Y-20.569
X75.73Y-20.569
X78.27Y-20.569
X80.81Y-20.569
X83.35Y-20.569
X85.89Y-20.569
X88.43Y-20.569
X90.97Y-20.569
T2
X90.926Y-38.596
X95.806Y-38.596
T3
X53.659Y-59.299
X53.659Y-61.839
X53.659Y-64.379
X53.659Y-66.919
X53.659Y-69.459
X53.659Y-71.999
X54.029Y-25.509
X54.029Y-28.049
X54.029Y-30.589
X54.029Y-33.129
X54.029Y-35.669
X54.029Y-38.209
X54.029Y-40.749
X54.029Y-43.289
X54.029Y-45.829
X54.029Y-48.369
X57.159Y-78.149
X57.159Y-80.689
X73.459Y-31.919
X73.459Y-34.459
X73.459Y-36.999
X73.459Y-39.539
X73.459Y-42.079
X74.179Y-104.371
X83.836Y-61.389
X83.836Y-63.929
T4
X77.289Y-46.365
X84.389Y-46.365
T5
X62.474Y-106.36
X65.474Y-111.059
X68.474Y-106.36
T0
M30
