%TF.GenerationSoftware,KiCad,Pcbnew,4.0.5-e0-6337~49~ubuntu16.04.1*%
%TF.CreationDate,2017-08-06T11:23:39-07:00*%
%TF.ProjectId,mcphail-main-board,6D63706861696C2D6D61696E2D626F61,1.0*%
%TF.FileFunction,Copper,L2,Bot,Signal*%
%FSLAX46Y46*%
G04 Gerber Fmt 4.6, Leading zero omitted, Abs format (unit mm)*
G04 Created by KiCad (PCBNEW 4.0.5-e0-6337~49~ubuntu16.04.1) date Sun Aug  6 11:23:39 2017*
%MOMM*%
%LPD*%
G01*
G04 APERTURE LIST*
%ADD10C,0.350000*%
%ADD11C,1.600000*%
%ADD12C,1.727200*%
%ADD13R,2.500000X5.100000*%
%ADD14C,10.200000*%
%ADD15R,2.032000X2.032000*%
%ADD16O,2.032000X2.032000*%
%ADD17R,1.727200X2.032000*%
%ADD18O,1.727200X2.032000*%
%ADD19C,1.200000*%
%ADD20C,1.524000*%
%ADD21C,4.000000*%
%ADD22R,1.727200X1.727200*%
%ADD23O,1.727200X1.727200*%
%ADD24C,0.685800*%
%ADD25C,0.254000*%
%ADD26C,0.508000*%
%ADD27C,0.762000*%
%ADD28C,0.330200*%
%ADD29C,0.350000*%
G04 APERTURE END LIST*
D10*
D11*
X182310000Y-69400000D03*
X184810000Y-69400000D03*
D12*
X187358020Y-54516020D03*
D13*
X240009200Y-56438800D03*
X224709200Y-56438800D03*
D14*
X232359200Y-56438800D03*
D15*
X237729700Y-81955100D03*
D16*
X235189700Y-81955100D03*
D15*
X172110000Y-68130000D03*
D16*
X172110000Y-70670000D03*
D17*
X186839856Y-76999514D03*
D18*
X184299856Y-76999514D03*
X181759856Y-76999514D03*
X179219856Y-76999514D03*
X176679856Y-76999514D03*
X174139856Y-76999514D03*
D19*
X169570798Y-57406318D03*
X169570798Y-64506318D03*
D20*
X244602000Y-52832000D03*
X244602000Y-55372000D03*
X244602000Y-57912000D03*
X244602000Y-60452000D03*
X244602000Y-62992000D03*
X244602000Y-65532000D03*
X244602000Y-68072000D03*
X244602000Y-70612000D03*
X244602000Y-73152000D03*
X244602000Y-75692000D03*
X244602000Y-78232000D03*
X244602000Y-80772000D03*
X244602000Y-83312000D03*
X244602000Y-85852000D03*
X244602000Y-88392000D03*
X244602000Y-90932000D03*
D21*
X181752240Y-47688500D03*
X175752760Y-47688500D03*
X178752500Y-52387500D03*
D11*
X232771400Y-67339400D03*
X227891400Y-67339400D03*
D22*
X204876400Y-55575200D03*
D23*
X204876400Y-58115200D03*
X202336400Y-55575200D03*
X202336400Y-58115200D03*
X199796400Y-55575200D03*
X199796400Y-58115200D03*
D24*
X240030000Y-59436000D03*
X211488996Y-71098749D03*
X182118000Y-73406000D03*
X197993000Y-73025000D03*
X228219000Y-60706000D03*
X236601000Y-52197000D03*
X230505000Y-49276000D03*
X220091000Y-56388000D03*
X198026720Y-50800000D03*
X195199000Y-44958000D03*
X175768000Y-73406000D03*
X170434000Y-73406000D03*
X243078000Y-50292000D03*
X242824000Y-47752000D03*
X236220000Y-72136000D03*
X212344000Y-47780540D03*
X216662000Y-52324000D03*
X221218680Y-51702940D03*
X211226400Y-57036958D03*
X193395600Y-67716400D03*
X190906400Y-65227200D03*
X211597272Y-62736958D03*
X211775298Y-68936958D03*
X217175298Y-63617158D03*
X212275298Y-60236958D03*
X211023298Y-73674158D03*
X219275298Y-63641158D03*
X202463400Y-51625500D03*
X202420220Y-48994060D03*
X202420220Y-50289460D03*
X192766144Y-47861311D03*
X194683380Y-51681380D03*
X194706240Y-50650140D03*
X193814038Y-48892118D03*
X191583924Y-48904787D03*
X192796911Y-49953118D03*
X230412080Y-45453140D03*
X219194582Y-45453140D03*
X226703680Y-45424940D03*
X222792080Y-45424940D03*
X216365880Y-48018540D03*
X216365880Y-47154940D03*
X216899280Y-46316740D03*
X217280280Y-47180340D03*
X217280280Y-48043940D03*
X176367280Y-56843020D03*
X177367280Y-63943020D03*
X176467280Y-63443020D03*
X247650000Y-59690000D03*
X209550000Y-96520000D03*
X209550000Y-89369900D03*
X233426000Y-47498000D03*
X206514700Y-88811110D03*
X212636100Y-88633300D03*
X237020100Y-88836500D03*
X236816900Y-91732100D03*
X220256100Y-88836500D03*
X222288100Y-88836500D03*
X210172310Y-92138500D03*
X205652224Y-69622251D03*
X202697736Y-69742474D03*
X196966298Y-70677958D03*
X204241498Y-65417709D03*
X235712000Y-88392000D03*
X207264000Y-85852000D03*
X178396824Y-92191182D03*
X173644556Y-90461514D03*
X171637956Y-87286514D03*
X187258956Y-89864614D03*
X184655456Y-89839214D03*
X193954400Y-87541100D03*
X215616198Y-88607890D03*
X199059800Y-88163400D03*
X226898200Y-89954100D03*
X217106500Y-88785700D03*
X212509100Y-93396500D03*
X210045300Y-88303100D03*
X235504700Y-92465100D03*
X198412100Y-92933802D03*
X195148200Y-92811600D03*
X191795400Y-90208100D03*
X195656200Y-89281000D03*
X223062800Y-88049100D03*
X201930000Y-86956900D03*
X201930000Y-74803000D03*
X205740000Y-68636958D03*
X233550000Y-50546000D03*
X194945000Y-75184000D03*
X226822000Y-59182000D03*
X240792000Y-47752000D03*
X179171600Y-89864614D03*
X219875298Y-57936958D03*
X209575498Y-73826558D03*
X219278298Y-62167958D03*
X204241498Y-66136958D03*
X210058000Y-49784000D03*
X190000000Y-46310000D03*
X190000000Y-47060000D03*
X190949580Y-47060000D03*
X190965960Y-46310000D03*
X216408000Y-53594000D03*
X210312000Y-62738000D03*
X193583560Y-59048780D03*
X191734440Y-59048780D03*
X189845939Y-48900080D03*
X192727580Y-44213780D03*
X192760140Y-45892720D03*
X192760140Y-45094700D03*
X201422000Y-68580000D03*
X205417885Y-68002873D03*
X205676500Y-71437500D03*
X200938193Y-70013776D03*
X213675298Y-71936958D03*
X208269298Y-71058958D03*
X212775298Y-68936958D03*
X212593020Y-72089369D03*
X206480392Y-72089369D03*
X199628192Y-71478068D03*
X213875298Y-68936958D03*
X217678000Y-64770000D03*
X218694000Y-65278000D03*
X218948000Y-66040000D03*
X218694000Y-67310000D03*
X180822610Y-84619514D03*
X183561886Y-84417921D03*
X209550000Y-69024500D03*
X225869500Y-60007500D03*
X213156800Y-65138300D03*
X197770720Y-67688448D03*
X213156800Y-64198500D03*
X196830920Y-67688448D03*
X220552578Y-62484000D03*
X217678000Y-65532000D03*
D25*
X236412400Y-50038000D02*
X229810000Y-50038000D01*
X229810000Y-50038000D02*
X224709200Y-55138800D01*
X224709200Y-55138800D02*
X224709200Y-56438800D01*
X240009200Y-56438800D02*
X240009200Y-53634800D01*
X240009200Y-53634800D02*
X236412400Y-50038000D01*
X240009200Y-56438800D02*
X240009200Y-59415200D01*
X240009200Y-59415200D02*
X240030000Y-59436000D01*
X211973929Y-71098749D02*
X211488996Y-71098749D01*
X211984251Y-71098749D02*
X211973929Y-71098749D01*
X212217000Y-70866000D02*
X211984251Y-71098749D01*
D26*
X232359200Y-56438800D02*
X232359200Y-56565800D01*
X232359200Y-56565800D02*
X228219000Y-60706000D01*
X232359200Y-56438800D02*
X236601000Y-52197000D01*
X190685137Y-48006000D02*
X188976000Y-48006000D01*
X191583924Y-48904787D02*
X190685137Y-48006000D01*
D25*
X170434000Y-73406000D02*
X175768000Y-73406000D01*
D27*
X202463400Y-51625500D02*
X202463400Y-50332640D01*
X202463400Y-50332640D02*
X202420220Y-50289460D01*
X202420220Y-50289460D02*
X202420220Y-48994060D01*
D25*
X192796911Y-49953118D02*
X192796911Y-47892078D01*
X192796911Y-47892078D02*
X192766144Y-47861311D01*
X191583924Y-48904787D02*
X193801369Y-48904787D01*
X193801369Y-48904787D02*
X193814038Y-48892118D01*
X216899280Y-46316740D02*
X216899280Y-46621540D01*
X216899280Y-46621540D02*
X216365880Y-47154940D01*
X217280280Y-48043940D02*
X217280280Y-47180340D01*
X247650000Y-95250000D02*
X247650000Y-59690000D01*
X245618000Y-97282000D02*
X247650000Y-95250000D01*
X209550000Y-97282000D02*
X245618000Y-97282000D01*
X209550000Y-96520000D02*
X209550000Y-97282000D01*
X209550000Y-97282000D02*
X169926000Y-97282000D01*
X169926000Y-97282000D02*
X168783000Y-96139000D01*
X168783000Y-96139000D02*
X168783000Y-76073000D01*
X168783000Y-76073000D02*
X170434000Y-74422000D01*
X170434000Y-74422000D02*
X184414742Y-74422000D01*
X233910933Y-47498000D02*
X233426000Y-47498000D01*
X239268000Y-47498000D02*
X233910933Y-47498000D01*
X244602000Y-52832000D02*
X239268000Y-47498000D01*
X184414742Y-73924742D02*
X182310000Y-71820000D01*
X182310000Y-71820000D02*
X182310000Y-69400000D01*
X184414742Y-74422000D02*
X184414742Y-73924742D01*
X184531000Y-74538258D02*
X184414742Y-74422000D01*
X186839856Y-76847114D02*
X184531000Y-74538258D01*
X186839856Y-76999514D02*
X186839856Y-76847114D01*
X209550000Y-89369900D02*
X212585300Y-89369900D01*
X207975200Y-89369900D02*
X209550000Y-89369900D01*
X236677201Y-89179399D02*
X237020100Y-88836500D01*
X234696000Y-88836500D02*
X235038899Y-89179399D01*
X235038899Y-89179399D02*
X236677201Y-89179399D01*
X234696000Y-88836500D02*
X222773033Y-88836500D01*
X234965033Y-88836500D02*
X234696000Y-88836500D01*
X212585300Y-89369900D02*
X213372700Y-89369900D01*
X212636100Y-88633300D02*
X212636100Y-89118233D01*
X212636100Y-89118233D02*
X212585300Y-89169033D01*
X212585300Y-89169033D02*
X212585300Y-89369900D01*
X214198211Y-90195411D02*
X213372700Y-89369900D01*
X206514700Y-88811110D02*
X207416410Y-88811110D01*
X207416410Y-88811110D02*
X207975200Y-89369900D01*
X218897189Y-90195411D02*
X214198211Y-90195411D01*
X220256100Y-88836500D02*
X218897189Y-90195411D01*
X237020100Y-88836500D02*
X237020100Y-88351567D01*
X237020100Y-88351567D02*
X234965033Y-86296500D01*
X222773033Y-88836500D02*
X222288100Y-88836500D01*
X205766251Y-69622251D02*
X205652224Y-69622251D01*
X205994000Y-69850000D02*
X205766251Y-69622251D01*
X202354837Y-70085373D02*
X202697736Y-69742474D01*
X200615104Y-70686877D02*
X201753333Y-70686877D01*
X200606185Y-70677958D02*
X200615104Y-70686877D01*
X196966298Y-70677958D02*
X200606185Y-70677958D01*
X201753333Y-70686877D02*
X202354837Y-70085373D01*
X195148200Y-92811600D02*
X198412100Y-92933802D01*
X198412100Y-92811600D02*
X198412100Y-92933802D01*
X195656200Y-89281000D02*
X192722500Y-89281000D01*
X192722500Y-89281000D02*
X191795400Y-90208100D01*
X205892399Y-86766400D02*
X212166200Y-86766400D01*
X212166200Y-86766400D02*
X212483700Y-86766400D01*
X217474800Y-88049100D02*
X216192100Y-86766400D01*
X216192100Y-86766400D02*
X212166200Y-86766400D01*
X220065600Y-88049100D02*
X223062800Y-88049100D01*
X219925900Y-88049100D02*
X220065600Y-88049100D01*
X220065600Y-88049100D02*
X217474800Y-88049100D01*
X206082900Y-86766400D02*
X205892399Y-86766400D01*
X202605433Y-86766400D02*
X205892399Y-86766400D01*
X201930000Y-86956900D02*
X202414933Y-86956900D01*
X202414933Y-86956900D02*
X202605433Y-86766400D01*
X201930000Y-74803000D02*
X196342000Y-80391000D01*
X205740000Y-68636958D02*
X205740000Y-68834000D01*
X205740000Y-68834000D02*
X202057000Y-72517000D01*
X202057000Y-72517000D02*
X202057000Y-74676000D01*
X202057000Y-74676000D02*
X201930000Y-74803000D01*
X196342000Y-80391000D02*
X179918942Y-80391000D01*
X179918942Y-80391000D02*
X176679856Y-77151914D01*
X226822000Y-54038500D02*
X230314500Y-50546000D01*
X230314500Y-50546000D02*
X233550000Y-50546000D01*
X226822000Y-59182000D02*
X226822000Y-54038500D01*
X184299856Y-76999514D02*
X184299856Y-76847114D01*
X184299856Y-76847114D02*
X183017742Y-75565000D01*
X169545000Y-90805000D02*
X170180000Y-91440000D01*
X183017742Y-75565000D02*
X183007000Y-75565000D01*
X183007000Y-75565000D02*
X182499000Y-75057000D01*
X182499000Y-75057000D02*
X170688000Y-75057000D01*
X170688000Y-75057000D02*
X169545000Y-76200000D01*
X170180000Y-91440000D02*
X177111281Y-91440000D01*
X169545000Y-76200000D02*
X169545000Y-90805000D01*
X177111281Y-91440000D02*
X178686667Y-89864614D01*
X178686667Y-89864614D02*
X179171600Y-89864614D01*
X219875298Y-57936958D02*
X219875298Y-59182000D01*
X226822000Y-59182000D02*
X221120340Y-59182000D01*
X219875298Y-59182000D02*
X219875298Y-61570958D01*
X221120340Y-59182000D02*
X219875298Y-59182000D01*
X245110000Y-49784000D02*
X246888000Y-51562000D01*
X240792000Y-47752000D02*
X241779046Y-47752000D01*
X243811046Y-49784000D02*
X245110000Y-49784000D01*
X241779046Y-47752000D02*
X243811046Y-49784000D01*
X246888000Y-51562000D02*
X246888000Y-58166000D01*
X246888000Y-58166000D02*
X245363999Y-59690001D01*
X245363999Y-59690001D02*
X244602000Y-60452000D01*
X184299856Y-76999514D02*
X184299856Y-78269514D01*
X219875298Y-61570958D02*
X219278298Y-62167958D01*
D26*
X192278000Y-43180000D02*
X190965960Y-44492040D01*
X190965960Y-44492040D02*
X190965960Y-46310000D01*
X203454000Y-43180000D02*
X192278000Y-43180000D01*
X210058000Y-49784000D02*
X203454000Y-43180000D01*
D25*
X210312000Y-59690000D02*
X216408000Y-53594000D01*
X210312000Y-62738000D02*
X210312000Y-59690000D01*
X191734440Y-59048780D02*
X191734440Y-50788581D01*
X191734440Y-50788581D02*
X189845939Y-48900080D01*
X201422000Y-68580000D02*
X202692000Y-68580000D01*
X202692000Y-68580000D02*
X203327000Y-69215000D01*
X203327000Y-70104000D02*
X201041000Y-72390000D01*
X203327000Y-69215000D02*
X203327000Y-70104000D01*
X201041000Y-72390000D02*
X201041000Y-74168000D01*
X201041000Y-74168000D02*
X196215000Y-78994000D01*
X196215000Y-78994000D02*
X183601942Y-78994000D01*
X183601942Y-78994000D02*
X181759856Y-77151914D01*
X181759856Y-77151914D02*
X181759856Y-76999514D01*
X179219856Y-77151914D02*
X179219856Y-76999514D01*
X205074986Y-68906828D02*
X201549000Y-72432814D01*
X181696942Y-79629000D02*
X179219856Y-77151914D01*
X201549000Y-72432814D02*
X201549000Y-74295000D01*
X196215000Y-79629000D02*
X181696942Y-79629000D01*
X201549000Y-74295000D02*
X196215000Y-79629000D01*
X205074986Y-68345772D02*
X205074986Y-68906828D01*
X205417885Y-68002873D02*
X205074986Y-68345772D01*
X213332399Y-71594059D02*
X206317992Y-71594059D01*
X213675298Y-71936958D02*
X213332399Y-71594059D01*
X206161433Y-71437500D02*
X205676500Y-71437500D01*
X206317992Y-71594059D02*
X206161433Y-71437500D01*
X208269298Y-71058958D02*
X208612197Y-70716059D01*
X212432399Y-69279857D02*
X212775298Y-68936958D01*
X208612197Y-70716059D02*
X210996197Y-70716059D01*
X210996197Y-70716059D02*
X212432399Y-69279857D01*
X212593020Y-72089369D02*
X206480392Y-72089369D01*
X181024203Y-84417921D02*
X180822610Y-84619514D01*
X183561886Y-84417921D02*
X181024203Y-84417921D01*
X216217500Y-62992000D02*
X210185000Y-69024500D01*
X210185000Y-69024500D02*
X209550000Y-69024500D01*
X219265500Y-62992000D02*
X216217500Y-62992000D01*
X222250000Y-60007500D02*
X219265500Y-62992000D01*
X225869500Y-60007500D02*
X222250000Y-60007500D01*
X200315389Y-64922399D02*
X212940899Y-64922399D01*
X197770720Y-67467068D02*
X200315389Y-64922399D01*
X197770720Y-67688448D02*
X197770720Y-67467068D01*
X212940899Y-64922399D02*
X213156800Y-65138300D01*
X200104967Y-64414401D02*
X212940899Y-64414401D01*
X196830920Y-67688448D02*
X200104967Y-64414401D01*
X212940899Y-64414401D02*
X213156800Y-64198500D01*
X218948000Y-64770000D02*
X218440000Y-64770000D01*
X218440000Y-64770000D02*
X217678000Y-65532000D01*
X220552578Y-63165422D02*
X218948000Y-64770000D01*
X220552578Y-62484000D02*
X220552578Y-63165422D01*
G36*
X170200000Y-42521200D02*
X191694552Y-42521200D01*
X191649382Y-42551382D01*
X190337342Y-43863422D01*
X190144631Y-44151834D01*
X190076960Y-44492040D01*
X190076960Y-45332167D01*
X189806337Y-45331931D01*
X189446788Y-45480493D01*
X189171460Y-45755341D01*
X189022270Y-46114630D01*
X189021931Y-46503663D01*
X189096858Y-46685002D01*
X189022270Y-46864630D01*
X189021931Y-47253663D01*
X189170493Y-47613212D01*
X189445341Y-47888540D01*
X189588956Y-47948174D01*
X189292727Y-48070573D01*
X189017399Y-48345421D01*
X188868209Y-48704710D01*
X188867870Y-49093743D01*
X189016432Y-49453292D01*
X189291280Y-49728620D01*
X189650569Y-49877810D01*
X189746122Y-49877893D01*
X190972440Y-51104212D01*
X190972440Y-58427697D01*
X190905900Y-58494121D01*
X190756710Y-58853410D01*
X190756371Y-59242443D01*
X190904933Y-59601992D01*
X191179781Y-59877320D01*
X191539070Y-60026510D01*
X191928103Y-60026849D01*
X192287652Y-59878287D01*
X192562980Y-59603439D01*
X192659052Y-59372072D01*
X192754053Y-59601992D01*
X193028901Y-59877320D01*
X193388190Y-60026510D01*
X193777223Y-60026849D01*
X194136772Y-59878287D01*
X194412100Y-59603439D01*
X194561290Y-59244150D01*
X194561629Y-58855117D01*
X194413067Y-58495568D01*
X194138219Y-58220240D01*
X193814551Y-58085841D01*
X198297800Y-58085841D01*
X198297800Y-58144559D01*
X198411874Y-58718048D01*
X198736730Y-59204229D01*
X199222911Y-59529085D01*
X199796400Y-59643159D01*
X200369889Y-59529085D01*
X200856070Y-59204229D01*
X201066400Y-58889448D01*
X201276730Y-59204229D01*
X201762911Y-59529085D01*
X202336400Y-59643159D01*
X202909889Y-59529085D01*
X203396070Y-59204229D01*
X203606400Y-58889448D01*
X203816730Y-59204229D01*
X204302911Y-59529085D01*
X204876400Y-59643159D01*
X205449889Y-59529085D01*
X205936070Y-59204229D01*
X206260926Y-58718048D01*
X206375000Y-58144559D01*
X206375000Y-58085841D01*
X206260926Y-57512352D01*
X205949826Y-57046758D01*
X205975317Y-57041962D01*
X206191441Y-56902890D01*
X206336431Y-56690690D01*
X206387440Y-56438800D01*
X206387440Y-54711600D01*
X206343162Y-54476283D01*
X206204090Y-54260159D01*
X205991890Y-54115169D01*
X205740000Y-54064160D01*
X204012800Y-54064160D01*
X203777483Y-54108438D01*
X203561359Y-54247510D01*
X203416369Y-54459710D01*
X203407536Y-54503331D01*
X203396070Y-54486171D01*
X202909889Y-54161315D01*
X202336400Y-54047241D01*
X201762911Y-54161315D01*
X201276730Y-54486171D01*
X201060736Y-54809428D01*
X201003221Y-54686710D01*
X200571347Y-54292512D01*
X200155426Y-54120242D01*
X199923400Y-54241383D01*
X199923400Y-55448200D01*
X199943400Y-55448200D01*
X199943400Y-55702200D01*
X199923400Y-55702200D01*
X199923400Y-55722200D01*
X199669400Y-55722200D01*
X199669400Y-55702200D01*
X198461931Y-55702200D01*
X198341432Y-55934227D01*
X198589579Y-56463690D01*
X199007561Y-56845208D01*
X198736730Y-57026171D01*
X198411874Y-57512352D01*
X198297800Y-58085841D01*
X193814551Y-58085841D01*
X193778930Y-58071050D01*
X193389897Y-58070711D01*
X193030348Y-58219273D01*
X192755020Y-58494121D01*
X192658948Y-58725488D01*
X192563947Y-58495568D01*
X192496440Y-58427943D01*
X192496440Y-55216173D01*
X198341432Y-55216173D01*
X198461931Y-55448200D01*
X199669400Y-55448200D01*
X199669400Y-54241383D01*
X199437374Y-54120242D01*
X199021453Y-54292512D01*
X198589579Y-54686710D01*
X198341432Y-55216173D01*
X192496440Y-55216173D01*
X192496440Y-50788581D01*
X192438436Y-50496976D01*
X192341791Y-50352337D01*
X192273256Y-50249766D01*
X190823926Y-48800437D01*
X190824008Y-48706417D01*
X190675446Y-48346868D01*
X190400598Y-48071540D01*
X190256983Y-48011906D01*
X190475038Y-47921808D01*
X190754210Y-48037730D01*
X191143243Y-48038069D01*
X191502792Y-47889507D01*
X191778120Y-47614659D01*
X191927310Y-47255370D01*
X191927649Y-46866337D01*
X191860891Y-46704771D01*
X191943690Y-46505370D01*
X191943730Y-46459052D01*
X192205481Y-46721260D01*
X192564770Y-46870450D01*
X192953803Y-46870789D01*
X193313352Y-46722227D01*
X193588680Y-46447379D01*
X193737870Y-46088090D01*
X193738209Y-45699057D01*
X193653337Y-45493649D01*
X193737870Y-45290070D01*
X193738209Y-44901037D01*
X193619928Y-44614773D01*
X193705310Y-44409150D01*
X193705606Y-44069000D01*
X203085764Y-44069000D01*
X209140137Y-50123373D01*
X209228493Y-50337212D01*
X209503341Y-50612540D01*
X209862630Y-50761730D01*
X210251663Y-50762069D01*
X210611212Y-50613507D01*
X210886540Y-50338659D01*
X211035730Y-49979370D01*
X211036069Y-49590337D01*
X210887507Y-49230788D01*
X210612659Y-48955460D01*
X210397250Y-48866014D01*
X204082618Y-42551382D01*
X204037448Y-42521200D01*
X245814951Y-42521200D01*
X246525942Y-42662624D01*
X247069309Y-43025691D01*
X247432375Y-43569056D01*
X247570300Y-44262452D01*
X247562772Y-44413380D01*
X247573800Y-44488109D01*
X247573800Y-51243163D01*
X247477615Y-51099212D01*
X247426816Y-51023185D01*
X245648815Y-49245185D01*
X245549999Y-49179158D01*
X245401605Y-49080004D01*
X245110000Y-49022000D01*
X244126676Y-49022000D01*
X242317861Y-47213185D01*
X242294149Y-47197341D01*
X242070651Y-47048004D01*
X241779046Y-46990000D01*
X241413083Y-46990000D01*
X241346659Y-46923460D01*
X240987370Y-46774270D01*
X240598337Y-46773931D01*
X240238788Y-46922493D01*
X240004251Y-47156621D01*
X239806815Y-46959185D01*
X239674014Y-46870450D01*
X239559605Y-46794004D01*
X239268000Y-46736000D01*
X234047083Y-46736000D01*
X233980659Y-46669460D01*
X233621370Y-46520270D01*
X233232337Y-46519931D01*
X232872788Y-46668493D01*
X232597460Y-46943341D01*
X232448270Y-47302630D01*
X232447931Y-47691663D01*
X232596493Y-48051212D01*
X232871341Y-48326540D01*
X233230630Y-48475730D01*
X233619663Y-48476069D01*
X233979212Y-48327507D01*
X234046837Y-48260000D01*
X238952370Y-48260000D01*
X243216987Y-52524617D01*
X243205243Y-52552900D01*
X243204758Y-53108661D01*
X243416990Y-53622303D01*
X243809630Y-54015629D01*
X244017512Y-54101949D01*
X243811697Y-54186990D01*
X243418371Y-54579630D01*
X243205243Y-55092900D01*
X243204758Y-55648661D01*
X243416990Y-56162303D01*
X243809630Y-56555629D01*
X244001727Y-56635395D01*
X243870857Y-56689603D01*
X243801392Y-56931787D01*
X244602000Y-57732395D01*
X245402608Y-56931787D01*
X245333143Y-56689603D01*
X245192682Y-56639491D01*
X245392303Y-56557010D01*
X245785629Y-56164370D01*
X245998757Y-55651100D01*
X245999242Y-55095339D01*
X245787010Y-54581697D01*
X245394370Y-54188371D01*
X245186488Y-54102051D01*
X245392303Y-54017010D01*
X245785629Y-53624370D01*
X245998757Y-53111100D01*
X245999242Y-52555339D01*
X245787010Y-52041697D01*
X245394370Y-51648371D01*
X244881100Y-51435243D01*
X244325339Y-51434758D01*
X244294946Y-51447316D01*
X241387211Y-48539581D01*
X241412837Y-48514000D01*
X241463416Y-48514000D01*
X243272231Y-50322815D01*
X243519441Y-50487996D01*
X243811046Y-50546000D01*
X244794370Y-50546000D01*
X246126000Y-51877631D01*
X246126000Y-57850370D01*
X246003781Y-57972589D01*
X245983362Y-57564632D01*
X245824397Y-57180857D01*
X245582213Y-57111392D01*
X244781605Y-57912000D01*
X244795748Y-57926143D01*
X244616143Y-58105748D01*
X244602000Y-58091605D01*
X243801392Y-58892213D01*
X243870857Y-59134397D01*
X244011318Y-59184509D01*
X243811697Y-59266990D01*
X243418371Y-59659630D01*
X243205243Y-60172900D01*
X243204758Y-60728661D01*
X243416990Y-61242303D01*
X243809630Y-61635629D01*
X244017512Y-61721949D01*
X243811697Y-61806990D01*
X243418371Y-62199630D01*
X243205243Y-62712900D01*
X243204758Y-63268661D01*
X243416990Y-63782303D01*
X243809630Y-64175629D01*
X244017512Y-64261949D01*
X243811697Y-64346990D01*
X243418371Y-64739630D01*
X243205243Y-65252900D01*
X243204758Y-65808661D01*
X243416990Y-66322303D01*
X243809630Y-66715629D01*
X244017512Y-66801949D01*
X243811697Y-66886990D01*
X243418371Y-67279630D01*
X243205243Y-67792900D01*
X243204758Y-68348661D01*
X243416990Y-68862303D01*
X243809630Y-69255629D01*
X244017512Y-69341949D01*
X243811697Y-69426990D01*
X243418371Y-69819630D01*
X243205243Y-70332900D01*
X243204758Y-70888661D01*
X243416990Y-71402303D01*
X243809630Y-71795629D01*
X244001727Y-71875395D01*
X243870857Y-71929603D01*
X243801392Y-72171787D01*
X244602000Y-72972395D01*
X245402608Y-72171787D01*
X245333143Y-71929603D01*
X245192682Y-71879491D01*
X245392303Y-71797010D01*
X245785629Y-71404370D01*
X245998757Y-70891100D01*
X245999242Y-70335339D01*
X245787010Y-69821697D01*
X245394370Y-69428371D01*
X245186488Y-69342051D01*
X245392303Y-69257010D01*
X245785629Y-68864370D01*
X245998757Y-68351100D01*
X245999242Y-67795339D01*
X245787010Y-67281697D01*
X245394370Y-66888371D01*
X245186488Y-66802051D01*
X245392303Y-66717010D01*
X245785629Y-66324370D01*
X245998757Y-65811100D01*
X245999242Y-65255339D01*
X245787010Y-64741697D01*
X245394370Y-64348371D01*
X245186488Y-64262051D01*
X245392303Y-64177010D01*
X245785629Y-63784370D01*
X245998757Y-63271100D01*
X245999242Y-62715339D01*
X245787010Y-62201697D01*
X245394370Y-61808371D01*
X245186488Y-61722051D01*
X245392303Y-61637010D01*
X245785629Y-61244370D01*
X245998757Y-60731100D01*
X245999242Y-60175339D01*
X245986684Y-60144946D01*
X246697315Y-59434315D01*
X246672270Y-59494630D01*
X246671931Y-59883663D01*
X246820493Y-60243212D01*
X246888000Y-60310837D01*
X246888000Y-94934370D01*
X245302370Y-96520000D01*
X210527900Y-96520000D01*
X210528069Y-96326337D01*
X210379507Y-95966788D01*
X210297862Y-95885000D01*
X241300000Y-95885000D01*
X241530795Y-95841573D01*
X241742767Y-95705173D01*
X241884971Y-95497051D01*
X241935000Y-95250000D01*
X241935000Y-78740000D01*
X241891573Y-78509205D01*
X241755173Y-78297233D01*
X241547051Y-78155029D01*
X241300000Y-78105000D01*
X207899000Y-78105000D01*
X207899000Y-75968661D01*
X243204758Y-75968661D01*
X243416990Y-76482303D01*
X243809630Y-76875629D01*
X244017512Y-76961949D01*
X243811697Y-77046990D01*
X243418371Y-77439630D01*
X243205243Y-77952900D01*
X243204758Y-78508661D01*
X243416990Y-79022303D01*
X243809630Y-79415629D01*
X244017512Y-79501949D01*
X243811697Y-79586990D01*
X243418371Y-79979630D01*
X243205243Y-80492900D01*
X243204758Y-81048661D01*
X243416990Y-81562303D01*
X243809630Y-81955629D01*
X244017512Y-82041949D01*
X243811697Y-82126990D01*
X243418371Y-82519630D01*
X243205243Y-83032900D01*
X243204758Y-83588661D01*
X243416990Y-84102303D01*
X243809630Y-84495629D01*
X244017512Y-84581949D01*
X243811697Y-84666990D01*
X243418371Y-85059630D01*
X243205243Y-85572900D01*
X243204758Y-86128661D01*
X243416990Y-86642303D01*
X243809630Y-87035629D01*
X244017512Y-87121949D01*
X243811697Y-87206990D01*
X243418371Y-87599630D01*
X243205243Y-88112900D01*
X243204758Y-88668661D01*
X243416990Y-89182303D01*
X243809630Y-89575629D01*
X244017512Y-89661949D01*
X243811697Y-89746990D01*
X243418371Y-90139630D01*
X243205243Y-90652900D01*
X243204758Y-91208661D01*
X243416990Y-91722303D01*
X243809630Y-92115629D01*
X244322900Y-92328757D01*
X244878661Y-92329242D01*
X245392303Y-92117010D01*
X245785629Y-91724370D01*
X245998757Y-91211100D01*
X245999242Y-90655339D01*
X245787010Y-90141697D01*
X245394370Y-89748371D01*
X245186488Y-89662051D01*
X245392303Y-89577010D01*
X245785629Y-89184370D01*
X245998757Y-88671100D01*
X245999242Y-88115339D01*
X245787010Y-87601697D01*
X245394370Y-87208371D01*
X245186488Y-87122051D01*
X245392303Y-87037010D01*
X245785629Y-86644370D01*
X245998757Y-86131100D01*
X245999242Y-85575339D01*
X245787010Y-85061697D01*
X245394370Y-84668371D01*
X245186488Y-84582051D01*
X245392303Y-84497010D01*
X245785629Y-84104370D01*
X245998757Y-83591100D01*
X245999242Y-83035339D01*
X245787010Y-82521697D01*
X245394370Y-82128371D01*
X245186488Y-82042051D01*
X245392303Y-81957010D01*
X245785629Y-81564370D01*
X245998757Y-81051100D01*
X245999242Y-80495339D01*
X245787010Y-79981697D01*
X245394370Y-79588371D01*
X245186488Y-79502051D01*
X245392303Y-79417010D01*
X245785629Y-79024370D01*
X245998757Y-78511100D01*
X245999242Y-77955339D01*
X245787010Y-77441697D01*
X245394370Y-77048371D01*
X245186488Y-76962051D01*
X245392303Y-76877010D01*
X245785629Y-76484370D01*
X245998757Y-75971100D01*
X245999242Y-75415339D01*
X245787010Y-74901697D01*
X245394370Y-74508371D01*
X245202273Y-74428605D01*
X245333143Y-74374397D01*
X245402608Y-74132213D01*
X244602000Y-73331605D01*
X243801392Y-74132213D01*
X243870857Y-74374397D01*
X244011318Y-74424509D01*
X243811697Y-74506990D01*
X243418371Y-74899630D01*
X243205243Y-75412900D01*
X243204758Y-75968661D01*
X207899000Y-75968661D01*
X207899000Y-72851369D01*
X209374865Y-72851369D01*
X209022286Y-72997051D01*
X208746958Y-73271899D01*
X208597768Y-73631188D01*
X208597429Y-74020221D01*
X208745991Y-74379770D01*
X209020839Y-74655098D01*
X209380128Y-74804288D01*
X209769161Y-74804627D01*
X210128710Y-74656065D01*
X210404038Y-74381217D01*
X210553228Y-74021928D01*
X210553567Y-73632895D01*
X210405005Y-73273346D01*
X210130157Y-72998018D01*
X209776987Y-72851369D01*
X211971937Y-72851369D01*
X212038361Y-72917909D01*
X212397650Y-73067099D01*
X212786683Y-73067438D01*
X213146232Y-72918876D01*
X213247224Y-72818061D01*
X213479928Y-72914688D01*
X213868961Y-72915027D01*
X214228510Y-72766465D01*
X214503838Y-72491617D01*
X214653028Y-72132328D01*
X214653367Y-71743295D01*
X214504805Y-71383746D01*
X214229957Y-71108418D01*
X213870668Y-70959228D01*
X213727329Y-70959103D01*
X213624004Y-70890063D01*
X213332399Y-70832059D01*
X211957827Y-70832059D01*
X212874942Y-69914945D01*
X212968961Y-69915027D01*
X213325732Y-69767613D01*
X213679928Y-69914688D01*
X214068961Y-69915027D01*
X214428510Y-69766465D01*
X214703838Y-69491617D01*
X214853028Y-69132328D01*
X214853367Y-68743295D01*
X214704805Y-68383746D01*
X214429957Y-68108418D01*
X214070668Y-67959228D01*
X213681635Y-67958889D01*
X213324864Y-68106303D01*
X212970668Y-67959228D01*
X212581635Y-67958889D01*
X212222086Y-68107451D01*
X211946758Y-68382299D01*
X211797568Y-68741588D01*
X211797485Y-68837140D01*
X210680567Y-69954059D01*
X209861067Y-69954059D01*
X210103212Y-69854007D01*
X210170837Y-69786500D01*
X210185000Y-69786500D01*
X210476605Y-69728496D01*
X210723815Y-69563315D01*
X216533131Y-63754000D01*
X218886370Y-63754000D01*
X218632370Y-64008000D01*
X218440000Y-64008000D01*
X218322429Y-64031386D01*
X218232659Y-63941460D01*
X217873370Y-63792270D01*
X217484337Y-63791931D01*
X217124788Y-63940493D01*
X216849460Y-64215341D01*
X216700270Y-64574630D01*
X216699931Y-64963663D01*
X216777344Y-65151016D01*
X216700270Y-65336630D01*
X216699931Y-65725663D01*
X216848493Y-66085212D01*
X217123341Y-66360540D01*
X217482630Y-66509730D01*
X217871663Y-66510069D01*
X218053154Y-66435079D01*
X218092030Y-66529166D01*
X217865460Y-66755341D01*
X217716270Y-67114630D01*
X217715931Y-67503663D01*
X217864493Y-67863212D01*
X218139341Y-68138540D01*
X218498630Y-68287730D01*
X218887663Y-68288069D01*
X219247212Y-68139507D01*
X219522540Y-67864659D01*
X219671730Y-67505370D01*
X219672069Y-67116337D01*
X219549970Y-66820834D01*
X219776540Y-66594659D01*
X219925730Y-66235370D01*
X219925786Y-66171000D01*
X225072000Y-66171000D01*
X225072000Y-69981000D01*
X225081334Y-70028789D01*
X225109197Y-70070803D01*
X226342000Y-71303606D01*
X226342000Y-72521000D01*
X226351334Y-72568789D01*
X226379197Y-72610803D01*
X227649197Y-73880803D01*
X227689590Y-73907994D01*
X227739000Y-73918000D01*
X234089000Y-73918000D01*
X234136789Y-73908666D01*
X234178803Y-73880803D01*
X235115304Y-72944302D01*
X243192856Y-72944302D01*
X243220638Y-73499368D01*
X243379603Y-73883143D01*
X243621787Y-73952608D01*
X244422395Y-73152000D01*
X244781605Y-73152000D01*
X245582213Y-73952608D01*
X245824397Y-73883143D01*
X246011144Y-73359698D01*
X245983362Y-72804632D01*
X245824397Y-72420857D01*
X245582213Y-72351392D01*
X244781605Y-73152000D01*
X244422395Y-73152000D01*
X243621787Y-72351392D01*
X243379603Y-72420857D01*
X243192856Y-72944302D01*
X235115304Y-72944302D01*
X235448803Y-72610803D01*
X235475994Y-72570410D01*
X235486000Y-72521000D01*
X235486000Y-63631000D01*
X235476666Y-63583211D01*
X235448803Y-63541197D01*
X234178803Y-62271197D01*
X234138410Y-62244006D01*
X234089000Y-62234000D01*
X230279000Y-62234000D01*
X230231211Y-62243334D01*
X230189197Y-62271197D01*
X228919197Y-63541197D01*
X228892006Y-63581590D01*
X228882000Y-63631000D01*
X228882000Y-64774000D01*
X226469000Y-64774000D01*
X226421211Y-64783334D01*
X226379197Y-64811197D01*
X225109197Y-66081197D01*
X225082006Y-66121590D01*
X225072000Y-66171000D01*
X219925786Y-66171000D01*
X219926069Y-65846337D01*
X219777507Y-65486788D01*
X219671811Y-65380907D01*
X219672035Y-65123595D01*
X221091393Y-63704237D01*
X221126029Y-63652401D01*
X221256574Y-63457027D01*
X221314578Y-63165422D01*
X221314578Y-63105083D01*
X221381118Y-63038659D01*
X221530308Y-62679370D01*
X221530647Y-62290337D01*
X221388593Y-61946538D01*
X222565631Y-60769500D01*
X225248417Y-60769500D01*
X225314841Y-60836040D01*
X225674130Y-60985230D01*
X226063163Y-60985569D01*
X226422712Y-60837007D01*
X226698040Y-60562159D01*
X226703067Y-60550051D01*
X228427554Y-60550051D01*
X229025767Y-61242943D01*
X231117976Y-62152899D01*
X233399149Y-62192935D01*
X235522000Y-61356957D01*
X235692633Y-61242943D01*
X236290846Y-60550051D01*
X232359200Y-56618405D01*
X228427554Y-60550051D01*
X226703067Y-60550051D01*
X226847230Y-60202870D01*
X226847267Y-60159922D01*
X227015663Y-60160069D01*
X227375212Y-60011507D01*
X227587149Y-59799940D01*
X228247949Y-60370446D01*
X232179595Y-56438800D01*
X232165453Y-56424658D01*
X232345058Y-56245053D01*
X232359200Y-56259195D01*
X236290846Y-52327549D01*
X235692633Y-51634657D01*
X234391742Y-51068866D01*
X234503385Y-50800000D01*
X236096770Y-50800000D01*
X238573139Y-53276370D01*
X238523883Y-53285638D01*
X238307759Y-53424710D01*
X238162769Y-53636910D01*
X238111760Y-53888800D01*
X238111760Y-55394852D01*
X237277357Y-53276000D01*
X237163343Y-53105367D01*
X236470451Y-52507154D01*
X232538805Y-56438800D01*
X236470451Y-60370446D01*
X237163343Y-59772233D01*
X238073299Y-57680024D01*
X238111760Y-55488591D01*
X238111760Y-58988800D01*
X238156038Y-59224117D01*
X238295110Y-59440241D01*
X238507310Y-59585231D01*
X238759200Y-59636240D01*
X239054649Y-59636240D01*
X239200493Y-59989212D01*
X239475341Y-60264540D01*
X239834630Y-60413730D01*
X240223663Y-60414069D01*
X240583212Y-60265507D01*
X240858540Y-59990659D01*
X241005708Y-59636240D01*
X241259200Y-59636240D01*
X241494517Y-59591962D01*
X241710641Y-59452890D01*
X241855631Y-59240690D01*
X241906640Y-58988800D01*
X241906640Y-57704302D01*
X243192856Y-57704302D01*
X243220638Y-58259368D01*
X243379603Y-58643143D01*
X243621787Y-58712608D01*
X244422395Y-57912000D01*
X243621787Y-57111392D01*
X243379603Y-57180857D01*
X243192856Y-57704302D01*
X241906640Y-57704302D01*
X241906640Y-53888800D01*
X241862362Y-53653483D01*
X241723290Y-53437359D01*
X241511090Y-53292369D01*
X241259200Y-53241360D01*
X240645152Y-53241360D01*
X240548015Y-53095984D01*
X236951215Y-49499185D01*
X236884697Y-49454739D01*
X236704005Y-49334004D01*
X236412400Y-49276000D01*
X229810000Y-49276000D01*
X229518396Y-49334003D01*
X229271185Y-49499184D01*
X225529010Y-53241360D01*
X223459200Y-53241360D01*
X223223883Y-53285638D01*
X223007759Y-53424710D01*
X222862769Y-53636910D01*
X222811760Y-53888800D01*
X222811760Y-58420000D01*
X220733576Y-58420000D01*
X220853028Y-58132328D01*
X220853367Y-57743295D01*
X220704805Y-57383746D01*
X220429957Y-57108418D01*
X220070668Y-56959228D01*
X219681635Y-56958889D01*
X219322086Y-57107451D01*
X219046758Y-57382299D01*
X218897568Y-57741588D01*
X218897229Y-58130621D01*
X219045791Y-58490170D01*
X219113298Y-58557795D01*
X219113298Y-61189914D01*
X219084635Y-61189889D01*
X218725086Y-61338451D01*
X218449758Y-61613299D01*
X218300568Y-61972588D01*
X218300344Y-62230000D01*
X216217500Y-62230000D01*
X215925895Y-62288004D01*
X215678684Y-62453185D01*
X214132578Y-63999292D01*
X213986307Y-63645288D01*
X213711459Y-63369960D01*
X213352170Y-63220770D01*
X212963137Y-63220431D01*
X212603588Y-63368993D01*
X212328260Y-63643841D01*
X212324706Y-63652401D01*
X210659752Y-63652401D01*
X210865212Y-63567507D01*
X211140540Y-63292659D01*
X211289730Y-62933370D01*
X211290069Y-62544337D01*
X211141507Y-62184788D01*
X211074000Y-62117163D01*
X211074000Y-60005630D01*
X216507643Y-54571987D01*
X216601663Y-54572069D01*
X216961212Y-54423507D01*
X217236540Y-54148659D01*
X217385730Y-53789370D01*
X217386069Y-53400337D01*
X217237507Y-53040788D01*
X216962659Y-52765460D01*
X216603370Y-52616270D01*
X216214337Y-52615931D01*
X215854788Y-52764493D01*
X215579460Y-53039341D01*
X215430270Y-53398630D01*
X215430187Y-53494183D01*
X209773185Y-59151185D01*
X209608004Y-59398395D01*
X209550000Y-59690000D01*
X209550000Y-62116917D01*
X209483460Y-62183341D01*
X209334270Y-62542630D01*
X209333931Y-62931663D01*
X209482493Y-63291212D01*
X209757341Y-63566540D01*
X209964117Y-63652401D01*
X207899000Y-63652401D01*
X207899000Y-63500000D01*
X207855573Y-63269205D01*
X207719173Y-63057233D01*
X207511051Y-62915029D01*
X207264000Y-62865000D01*
X200660000Y-62865000D01*
X200429205Y-62908427D01*
X200217233Y-63044827D01*
X200075029Y-63252949D01*
X200025000Y-63500000D01*
X200025000Y-63668307D01*
X199813362Y-63710405D01*
X199748118Y-63754000D01*
X199566152Y-63875585D01*
X196731277Y-66710461D01*
X196637257Y-66710379D01*
X196277708Y-66858941D01*
X196002380Y-67133789D01*
X195853190Y-67493078D01*
X195852851Y-67882111D01*
X196001413Y-68241660D01*
X196276261Y-68516988D01*
X196635550Y-68666178D01*
X197024583Y-68666517D01*
X197301056Y-68552281D01*
X197575350Y-68666178D01*
X197964383Y-68666517D01*
X198323932Y-68517955D01*
X198599260Y-68243107D01*
X198748450Y-67883818D01*
X198748726Y-67566692D01*
X200025000Y-66290419D01*
X200025000Y-69662984D01*
X199960463Y-69818406D01*
X199960378Y-69915958D01*
X197587381Y-69915958D01*
X197520957Y-69849418D01*
X197161668Y-69700228D01*
X196772635Y-69699889D01*
X196413086Y-69848451D01*
X196137758Y-70123299D01*
X195988568Y-70482588D01*
X195988229Y-70871621D01*
X196136791Y-71231170D01*
X196411639Y-71506498D01*
X196770928Y-71655688D01*
X197159961Y-71656027D01*
X197519510Y-71507465D01*
X197587135Y-71439958D01*
X198650325Y-71439958D01*
X198650123Y-71671731D01*
X198798685Y-72031280D01*
X199073533Y-72306608D01*
X199432822Y-72455798D01*
X199821855Y-72456137D01*
X200025000Y-72372200D01*
X200025000Y-73660000D01*
X185124081Y-73660000D01*
X185118738Y-73633137D01*
X185005727Y-73464004D01*
X184953558Y-73385927D01*
X183072000Y-71504370D01*
X183072000Y-70637820D01*
X183121800Y-70617243D01*
X183331663Y-70407745D01*
X183981861Y-70407745D01*
X184055995Y-70653864D01*
X184593223Y-70846965D01*
X185163454Y-70819778D01*
X185564005Y-70653864D01*
X185638139Y-70407745D01*
X184810000Y-69579605D01*
X183981861Y-70407745D01*
X183331663Y-70407745D01*
X183525824Y-70213923D01*
X183553423Y-70147456D01*
X183556136Y-70154005D01*
X183802255Y-70228139D01*
X184630395Y-69400000D01*
X184989605Y-69400000D01*
X185817745Y-70228139D01*
X186063864Y-70154005D01*
X186256965Y-69616777D01*
X186229778Y-69046546D01*
X186063864Y-68645995D01*
X185817745Y-68571861D01*
X184989605Y-69400000D01*
X184630395Y-69400000D01*
X183802255Y-68571861D01*
X183556136Y-68645995D01*
X183553804Y-68652483D01*
X183527243Y-68588200D01*
X183331640Y-68392255D01*
X183981861Y-68392255D01*
X184810000Y-69220395D01*
X185638139Y-68392255D01*
X185564005Y-68146136D01*
X185026777Y-67953035D01*
X184456546Y-67980222D01*
X184055995Y-68146136D01*
X183981861Y-68392255D01*
X183331640Y-68392255D01*
X183123923Y-68184176D01*
X182596691Y-67965250D01*
X182025813Y-67964752D01*
X181498200Y-68182757D01*
X181094176Y-68586077D01*
X180875250Y-69113309D01*
X180874752Y-69684187D01*
X181092757Y-70211800D01*
X181496077Y-70615824D01*
X181548000Y-70637384D01*
X181548000Y-71820000D01*
X181606004Y-72111605D01*
X181771185Y-72358815D01*
X183072369Y-73660000D01*
X170434000Y-73660000D01*
X170142396Y-73718003D01*
X169895185Y-73883184D01*
X168351200Y-75427170D01*
X168351200Y-71052944D01*
X170504025Y-71052944D01*
X170703615Y-71534818D01*
X171141621Y-72007188D01*
X171727054Y-72275983D01*
X171983000Y-72157367D01*
X171983000Y-70797000D01*
X172237000Y-70797000D01*
X172237000Y-72157367D01*
X172492946Y-72275983D01*
X173078379Y-72007188D01*
X173516385Y-71534818D01*
X173715975Y-71052944D01*
X173596836Y-70797000D01*
X172237000Y-70797000D01*
X171983000Y-70797000D01*
X170623164Y-70797000D01*
X170504025Y-71052944D01*
X168351200Y-71052944D01*
X168351200Y-67114000D01*
X170446560Y-67114000D01*
X170446560Y-69146000D01*
X170490838Y-69381317D01*
X170629910Y-69597441D01*
X170792948Y-69708840D01*
X170703615Y-69805182D01*
X170504025Y-70287056D01*
X170623164Y-70543000D01*
X171983000Y-70543000D01*
X171983000Y-70523000D01*
X172237000Y-70523000D01*
X172237000Y-70543000D01*
X173596836Y-70543000D01*
X173715975Y-70287056D01*
X173516385Y-69805182D01*
X173425903Y-69707602D01*
X173577441Y-69610090D01*
X173722431Y-69397890D01*
X173773440Y-69146000D01*
X173773440Y-67114000D01*
X173729162Y-66878683D01*
X173590090Y-66662559D01*
X173377890Y-66517569D01*
X173126000Y-66466560D01*
X171094000Y-66466560D01*
X170858683Y-66510838D01*
X170642559Y-66649910D01*
X170497569Y-66862110D01*
X170446560Y-67114000D01*
X168351200Y-67114000D01*
X168351200Y-64788690D01*
X168523206Y-65204975D01*
X168870313Y-65552689D01*
X169324064Y-65741103D01*
X169815377Y-65741532D01*
X170269455Y-65553910D01*
X170617169Y-65206803D01*
X170805583Y-64753052D01*
X170806012Y-64261739D01*
X170618390Y-63807661D01*
X170271283Y-63459947D01*
X169817532Y-63271533D01*
X169326219Y-63271104D01*
X168872141Y-63458726D01*
X168524427Y-63805833D01*
X168351200Y-64223010D01*
X168351200Y-57688690D01*
X168523206Y-58104975D01*
X168870313Y-58452689D01*
X169324064Y-58641103D01*
X169815377Y-58641532D01*
X170269455Y-58453910D01*
X170617169Y-58106803D01*
X170805583Y-57653052D01*
X170806012Y-57161739D01*
X170618390Y-56707661D01*
X170271283Y-56359947D01*
X169817532Y-56171533D01*
X169326219Y-56171104D01*
X168872141Y-56358726D01*
X168524427Y-56705833D01*
X168351200Y-57123010D01*
X168351200Y-54262522D01*
X177057084Y-54262522D01*
X177277853Y-54633243D01*
X178249512Y-55026619D01*
X179297747Y-55018213D01*
X179793653Y-54812802D01*
X185859161Y-54812802D01*
X186086828Y-55363800D01*
X186508023Y-55785730D01*
X187058622Y-56014359D01*
X187654802Y-56014879D01*
X188205800Y-55787212D01*
X188627730Y-55366017D01*
X188856359Y-54815418D01*
X188856879Y-54219238D01*
X188629212Y-53668240D01*
X188208017Y-53246310D01*
X187657418Y-53017681D01*
X187061238Y-53017161D01*
X186510240Y-53244828D01*
X186088310Y-53666023D01*
X185859681Y-54216622D01*
X185859161Y-54812802D01*
X179793653Y-54812802D01*
X180227147Y-54633243D01*
X180447916Y-54262522D01*
X178752500Y-52567105D01*
X177057084Y-54262522D01*
X168351200Y-54262522D01*
X168351200Y-51884512D01*
X176113381Y-51884512D01*
X176121787Y-52932747D01*
X176506757Y-53862147D01*
X176877478Y-54082916D01*
X178572895Y-52387500D01*
X178932105Y-52387500D01*
X180627522Y-54082916D01*
X180998243Y-53862147D01*
X181391619Y-52890488D01*
X181383213Y-51842253D01*
X180998243Y-50912853D01*
X180627522Y-50692084D01*
X178932105Y-52387500D01*
X178572895Y-52387500D01*
X176877478Y-50692084D01*
X176506757Y-50912853D01*
X176113381Y-51884512D01*
X168351200Y-51884512D01*
X168351200Y-50512478D01*
X177057084Y-50512478D01*
X178752500Y-52207895D01*
X180447916Y-50512478D01*
X180227147Y-50141757D01*
X179255488Y-49748381D01*
X178207253Y-49756787D01*
X177277853Y-50141757D01*
X177057084Y-50512478D01*
X168351200Y-50512478D01*
X168351200Y-49563522D01*
X174057344Y-49563522D01*
X174278113Y-49934243D01*
X175249772Y-50327619D01*
X176298007Y-50319213D01*
X177227407Y-49934243D01*
X177448176Y-49563522D01*
X175752760Y-47868105D01*
X174057344Y-49563522D01*
X168351200Y-49563522D01*
X168351200Y-47185512D01*
X173113641Y-47185512D01*
X173122047Y-48233747D01*
X173507017Y-49163147D01*
X173877738Y-49383916D01*
X175573155Y-47688500D01*
X175932365Y-47688500D01*
X177627782Y-49383916D01*
X177998503Y-49163147D01*
X178384249Y-48210334D01*
X179116783Y-48210334D01*
X179517093Y-49179158D01*
X180257683Y-49921042D01*
X181225807Y-50323042D01*
X182274074Y-50323957D01*
X183242898Y-49923647D01*
X183984782Y-49183057D01*
X184386782Y-48214933D01*
X184387697Y-47166666D01*
X183987387Y-46197842D01*
X183246797Y-45455958D01*
X182278673Y-45053958D01*
X181230406Y-45053043D01*
X180261582Y-45453353D01*
X179519698Y-46193943D01*
X179117698Y-47162067D01*
X179116783Y-48210334D01*
X178384249Y-48210334D01*
X178391879Y-48191488D01*
X178383473Y-47143253D01*
X177998503Y-46213853D01*
X177627782Y-45993084D01*
X175932365Y-47688500D01*
X175573155Y-47688500D01*
X173877738Y-45993084D01*
X173507017Y-46213853D01*
X173113641Y-47185512D01*
X168351200Y-47185512D01*
X168351200Y-45813478D01*
X174057344Y-45813478D01*
X175752760Y-47508895D01*
X177448176Y-45813478D01*
X177227407Y-45442757D01*
X176255748Y-45049381D01*
X175207513Y-45057787D01*
X174278113Y-45442757D01*
X174057344Y-45813478D01*
X168351200Y-45813478D01*
X168351200Y-44616055D01*
X168354711Y-44605856D01*
X168469997Y-43758303D01*
X168829594Y-43141593D01*
X169397822Y-42709439D01*
X170146601Y-42512245D01*
X170153865Y-42512023D01*
X170200000Y-42521200D01*
X170200000Y-42521200D01*
G37*
X170200000Y-42521200D02*
X191694552Y-42521200D01*
X191649382Y-42551382D01*
X190337342Y-43863422D01*
X190144631Y-44151834D01*
X190076960Y-44492040D01*
X190076960Y-45332167D01*
X189806337Y-45331931D01*
X189446788Y-45480493D01*
X189171460Y-45755341D01*
X189022270Y-46114630D01*
X189021931Y-46503663D01*
X189096858Y-46685002D01*
X189022270Y-46864630D01*
X189021931Y-47253663D01*
X189170493Y-47613212D01*
X189445341Y-47888540D01*
X189588956Y-47948174D01*
X189292727Y-48070573D01*
X189017399Y-48345421D01*
X188868209Y-48704710D01*
X188867870Y-49093743D01*
X189016432Y-49453292D01*
X189291280Y-49728620D01*
X189650569Y-49877810D01*
X189746122Y-49877893D01*
X190972440Y-51104212D01*
X190972440Y-58427697D01*
X190905900Y-58494121D01*
X190756710Y-58853410D01*
X190756371Y-59242443D01*
X190904933Y-59601992D01*
X191179781Y-59877320D01*
X191539070Y-60026510D01*
X191928103Y-60026849D01*
X192287652Y-59878287D01*
X192562980Y-59603439D01*
X192659052Y-59372072D01*
X192754053Y-59601992D01*
X193028901Y-59877320D01*
X193388190Y-60026510D01*
X193777223Y-60026849D01*
X194136772Y-59878287D01*
X194412100Y-59603439D01*
X194561290Y-59244150D01*
X194561629Y-58855117D01*
X194413067Y-58495568D01*
X194138219Y-58220240D01*
X193814551Y-58085841D01*
X198297800Y-58085841D01*
X198297800Y-58144559D01*
X198411874Y-58718048D01*
X198736730Y-59204229D01*
X199222911Y-59529085D01*
X199796400Y-59643159D01*
X200369889Y-59529085D01*
X200856070Y-59204229D01*
X201066400Y-58889448D01*
X201276730Y-59204229D01*
X201762911Y-59529085D01*
X202336400Y-59643159D01*
X202909889Y-59529085D01*
X203396070Y-59204229D01*
X203606400Y-58889448D01*
X203816730Y-59204229D01*
X204302911Y-59529085D01*
X204876400Y-59643159D01*
X205449889Y-59529085D01*
X205936070Y-59204229D01*
X206260926Y-58718048D01*
X206375000Y-58144559D01*
X206375000Y-58085841D01*
X206260926Y-57512352D01*
X205949826Y-57046758D01*
X205975317Y-57041962D01*
X206191441Y-56902890D01*
X206336431Y-56690690D01*
X206387440Y-56438800D01*
X206387440Y-54711600D01*
X206343162Y-54476283D01*
X206204090Y-54260159D01*
X205991890Y-54115169D01*
X205740000Y-54064160D01*
X204012800Y-54064160D01*
X203777483Y-54108438D01*
X203561359Y-54247510D01*
X203416369Y-54459710D01*
X203407536Y-54503331D01*
X203396070Y-54486171D01*
X202909889Y-54161315D01*
X202336400Y-54047241D01*
X201762911Y-54161315D01*
X201276730Y-54486171D01*
X201060736Y-54809428D01*
X201003221Y-54686710D01*
X200571347Y-54292512D01*
X200155426Y-54120242D01*
X199923400Y-54241383D01*
X199923400Y-55448200D01*
X199943400Y-55448200D01*
X199943400Y-55702200D01*
X199923400Y-55702200D01*
X199923400Y-55722200D01*
X199669400Y-55722200D01*
X199669400Y-55702200D01*
X198461931Y-55702200D01*
X198341432Y-55934227D01*
X198589579Y-56463690D01*
X199007561Y-56845208D01*
X198736730Y-57026171D01*
X198411874Y-57512352D01*
X198297800Y-58085841D01*
X193814551Y-58085841D01*
X193778930Y-58071050D01*
X193389897Y-58070711D01*
X193030348Y-58219273D01*
X192755020Y-58494121D01*
X192658948Y-58725488D01*
X192563947Y-58495568D01*
X192496440Y-58427943D01*
X192496440Y-55216173D01*
X198341432Y-55216173D01*
X198461931Y-55448200D01*
X199669400Y-55448200D01*
X199669400Y-54241383D01*
X199437374Y-54120242D01*
X199021453Y-54292512D01*
X198589579Y-54686710D01*
X198341432Y-55216173D01*
X192496440Y-55216173D01*
X192496440Y-50788581D01*
X192438436Y-50496976D01*
X192341791Y-50352337D01*
X192273256Y-50249766D01*
X190823926Y-48800437D01*
X190824008Y-48706417D01*
X190675446Y-48346868D01*
X190400598Y-48071540D01*
X190256983Y-48011906D01*
X190475038Y-47921808D01*
X190754210Y-48037730D01*
X191143243Y-48038069D01*
X191502792Y-47889507D01*
X191778120Y-47614659D01*
X191927310Y-47255370D01*
X191927649Y-46866337D01*
X191860891Y-46704771D01*
X191943690Y-46505370D01*
X191943730Y-46459052D01*
X192205481Y-46721260D01*
X192564770Y-46870450D01*
X192953803Y-46870789D01*
X193313352Y-46722227D01*
X193588680Y-46447379D01*
X193737870Y-46088090D01*
X193738209Y-45699057D01*
X193653337Y-45493649D01*
X193737870Y-45290070D01*
X193738209Y-44901037D01*
X193619928Y-44614773D01*
X193705310Y-44409150D01*
X193705606Y-44069000D01*
X203085764Y-44069000D01*
X209140137Y-50123373D01*
X209228493Y-50337212D01*
X209503341Y-50612540D01*
X209862630Y-50761730D01*
X210251663Y-50762069D01*
X210611212Y-50613507D01*
X210886540Y-50338659D01*
X211035730Y-49979370D01*
X211036069Y-49590337D01*
X210887507Y-49230788D01*
X210612659Y-48955460D01*
X210397250Y-48866014D01*
X204082618Y-42551382D01*
X204037448Y-42521200D01*
X245814951Y-42521200D01*
X246525942Y-42662624D01*
X247069309Y-43025691D01*
X247432375Y-43569056D01*
X247570300Y-44262452D01*
X247562772Y-44413380D01*
X247573800Y-44488109D01*
X247573800Y-51243163D01*
X247477615Y-51099212D01*
X247426816Y-51023185D01*
X245648815Y-49245185D01*
X245549999Y-49179158D01*
X245401605Y-49080004D01*
X245110000Y-49022000D01*
X244126676Y-49022000D01*
X242317861Y-47213185D01*
X242294149Y-47197341D01*
X242070651Y-47048004D01*
X241779046Y-46990000D01*
X241413083Y-46990000D01*
X241346659Y-46923460D01*
X240987370Y-46774270D01*
X240598337Y-46773931D01*
X240238788Y-46922493D01*
X240004251Y-47156621D01*
X239806815Y-46959185D01*
X239674014Y-46870450D01*
X239559605Y-46794004D01*
X239268000Y-46736000D01*
X234047083Y-46736000D01*
X233980659Y-46669460D01*
X233621370Y-46520270D01*
X233232337Y-46519931D01*
X232872788Y-46668493D01*
X232597460Y-46943341D01*
X232448270Y-47302630D01*
X232447931Y-47691663D01*
X232596493Y-48051212D01*
X232871341Y-48326540D01*
X233230630Y-48475730D01*
X233619663Y-48476069D01*
X233979212Y-48327507D01*
X234046837Y-48260000D01*
X238952370Y-48260000D01*
X243216987Y-52524617D01*
X243205243Y-52552900D01*
X243204758Y-53108661D01*
X243416990Y-53622303D01*
X243809630Y-54015629D01*
X244017512Y-54101949D01*
X243811697Y-54186990D01*
X243418371Y-54579630D01*
X243205243Y-55092900D01*
X243204758Y-55648661D01*
X243416990Y-56162303D01*
X243809630Y-56555629D01*
X244001727Y-56635395D01*
X243870857Y-56689603D01*
X243801392Y-56931787D01*
X244602000Y-57732395D01*
X245402608Y-56931787D01*
X245333143Y-56689603D01*
X245192682Y-56639491D01*
X245392303Y-56557010D01*
X245785629Y-56164370D01*
X245998757Y-55651100D01*
X245999242Y-55095339D01*
X245787010Y-54581697D01*
X245394370Y-54188371D01*
X245186488Y-54102051D01*
X245392303Y-54017010D01*
X245785629Y-53624370D01*
X245998757Y-53111100D01*
X245999242Y-52555339D01*
X245787010Y-52041697D01*
X245394370Y-51648371D01*
X244881100Y-51435243D01*
X244325339Y-51434758D01*
X244294946Y-51447316D01*
X241387211Y-48539581D01*
X241412837Y-48514000D01*
X241463416Y-48514000D01*
X243272231Y-50322815D01*
X243519441Y-50487996D01*
X243811046Y-50546000D01*
X244794370Y-50546000D01*
X246126000Y-51877631D01*
X246126000Y-57850370D01*
X246003781Y-57972589D01*
X245983362Y-57564632D01*
X245824397Y-57180857D01*
X245582213Y-57111392D01*
X244781605Y-57912000D01*
X244795748Y-57926143D01*
X244616143Y-58105748D01*
X244602000Y-58091605D01*
X243801392Y-58892213D01*
X243870857Y-59134397D01*
X244011318Y-59184509D01*
X243811697Y-59266990D01*
X243418371Y-59659630D01*
X243205243Y-60172900D01*
X243204758Y-60728661D01*
X243416990Y-61242303D01*
X243809630Y-61635629D01*
X244017512Y-61721949D01*
X243811697Y-61806990D01*
X243418371Y-62199630D01*
X243205243Y-62712900D01*
X243204758Y-63268661D01*
X243416990Y-63782303D01*
X243809630Y-64175629D01*
X244017512Y-64261949D01*
X243811697Y-64346990D01*
X243418371Y-64739630D01*
X243205243Y-65252900D01*
X243204758Y-65808661D01*
X243416990Y-66322303D01*
X243809630Y-66715629D01*
X244017512Y-66801949D01*
X243811697Y-66886990D01*
X243418371Y-67279630D01*
X243205243Y-67792900D01*
X243204758Y-68348661D01*
X243416990Y-68862303D01*
X243809630Y-69255629D01*
X244017512Y-69341949D01*
X243811697Y-69426990D01*
X243418371Y-69819630D01*
X243205243Y-70332900D01*
X243204758Y-70888661D01*
X243416990Y-71402303D01*
X243809630Y-71795629D01*
X244001727Y-71875395D01*
X243870857Y-71929603D01*
X243801392Y-72171787D01*
X244602000Y-72972395D01*
X245402608Y-72171787D01*
X245333143Y-71929603D01*
X245192682Y-71879491D01*
X245392303Y-71797010D01*
X245785629Y-71404370D01*
X245998757Y-70891100D01*
X245999242Y-70335339D01*
X245787010Y-69821697D01*
X245394370Y-69428371D01*
X245186488Y-69342051D01*
X245392303Y-69257010D01*
X245785629Y-68864370D01*
X245998757Y-68351100D01*
X245999242Y-67795339D01*
X245787010Y-67281697D01*
X245394370Y-66888371D01*
X245186488Y-66802051D01*
X245392303Y-66717010D01*
X245785629Y-66324370D01*
X245998757Y-65811100D01*
X245999242Y-65255339D01*
X245787010Y-64741697D01*
X245394370Y-64348371D01*
X245186488Y-64262051D01*
X245392303Y-64177010D01*
X245785629Y-63784370D01*
X245998757Y-63271100D01*
X245999242Y-62715339D01*
X245787010Y-62201697D01*
X245394370Y-61808371D01*
X245186488Y-61722051D01*
X245392303Y-61637010D01*
X245785629Y-61244370D01*
X245998757Y-60731100D01*
X245999242Y-60175339D01*
X245986684Y-60144946D01*
X246697315Y-59434315D01*
X246672270Y-59494630D01*
X246671931Y-59883663D01*
X246820493Y-60243212D01*
X246888000Y-60310837D01*
X246888000Y-94934370D01*
X245302370Y-96520000D01*
X210527900Y-96520000D01*
X210528069Y-96326337D01*
X210379507Y-95966788D01*
X210297862Y-95885000D01*
X241300000Y-95885000D01*
X241530795Y-95841573D01*
X241742767Y-95705173D01*
X241884971Y-95497051D01*
X241935000Y-95250000D01*
X241935000Y-78740000D01*
X241891573Y-78509205D01*
X241755173Y-78297233D01*
X241547051Y-78155029D01*
X241300000Y-78105000D01*
X207899000Y-78105000D01*
X207899000Y-75968661D01*
X243204758Y-75968661D01*
X243416990Y-76482303D01*
X243809630Y-76875629D01*
X244017512Y-76961949D01*
X243811697Y-77046990D01*
X243418371Y-77439630D01*
X243205243Y-77952900D01*
X243204758Y-78508661D01*
X243416990Y-79022303D01*
X243809630Y-79415629D01*
X244017512Y-79501949D01*
X243811697Y-79586990D01*
X243418371Y-79979630D01*
X243205243Y-80492900D01*
X243204758Y-81048661D01*
X243416990Y-81562303D01*
X243809630Y-81955629D01*
X244017512Y-82041949D01*
X243811697Y-82126990D01*
X243418371Y-82519630D01*
X243205243Y-83032900D01*
X243204758Y-83588661D01*
X243416990Y-84102303D01*
X243809630Y-84495629D01*
X244017512Y-84581949D01*
X243811697Y-84666990D01*
X243418371Y-85059630D01*
X243205243Y-85572900D01*
X243204758Y-86128661D01*
X243416990Y-86642303D01*
X243809630Y-87035629D01*
X244017512Y-87121949D01*
X243811697Y-87206990D01*
X243418371Y-87599630D01*
X243205243Y-88112900D01*
X243204758Y-88668661D01*
X243416990Y-89182303D01*
X243809630Y-89575629D01*
X244017512Y-89661949D01*
X243811697Y-89746990D01*
X243418371Y-90139630D01*
X243205243Y-90652900D01*
X243204758Y-91208661D01*
X243416990Y-91722303D01*
X243809630Y-92115629D01*
X244322900Y-92328757D01*
X244878661Y-92329242D01*
X245392303Y-92117010D01*
X245785629Y-91724370D01*
X245998757Y-91211100D01*
X245999242Y-90655339D01*
X245787010Y-90141697D01*
X245394370Y-89748371D01*
X245186488Y-89662051D01*
X245392303Y-89577010D01*
X245785629Y-89184370D01*
X245998757Y-88671100D01*
X245999242Y-88115339D01*
X245787010Y-87601697D01*
X245394370Y-87208371D01*
X245186488Y-87122051D01*
X245392303Y-87037010D01*
X245785629Y-86644370D01*
X245998757Y-86131100D01*
X245999242Y-85575339D01*
X245787010Y-85061697D01*
X245394370Y-84668371D01*
X245186488Y-84582051D01*
X245392303Y-84497010D01*
X245785629Y-84104370D01*
X245998757Y-83591100D01*
X245999242Y-83035339D01*
X245787010Y-82521697D01*
X245394370Y-82128371D01*
X245186488Y-82042051D01*
X245392303Y-81957010D01*
X245785629Y-81564370D01*
X245998757Y-81051100D01*
X245999242Y-80495339D01*
X245787010Y-79981697D01*
X245394370Y-79588371D01*
X245186488Y-79502051D01*
X245392303Y-79417010D01*
X245785629Y-79024370D01*
X245998757Y-78511100D01*
X245999242Y-77955339D01*
X245787010Y-77441697D01*
X245394370Y-77048371D01*
X245186488Y-76962051D01*
X245392303Y-76877010D01*
X245785629Y-76484370D01*
X245998757Y-75971100D01*
X245999242Y-75415339D01*
X245787010Y-74901697D01*
X245394370Y-74508371D01*
X245202273Y-74428605D01*
X245333143Y-74374397D01*
X245402608Y-74132213D01*
X244602000Y-73331605D01*
X243801392Y-74132213D01*
X243870857Y-74374397D01*
X244011318Y-74424509D01*
X243811697Y-74506990D01*
X243418371Y-74899630D01*
X243205243Y-75412900D01*
X243204758Y-75968661D01*
X207899000Y-75968661D01*
X207899000Y-72851369D01*
X209374865Y-72851369D01*
X209022286Y-72997051D01*
X208746958Y-73271899D01*
X208597768Y-73631188D01*
X208597429Y-74020221D01*
X208745991Y-74379770D01*
X209020839Y-74655098D01*
X209380128Y-74804288D01*
X209769161Y-74804627D01*
X210128710Y-74656065D01*
X210404038Y-74381217D01*
X210553228Y-74021928D01*
X210553567Y-73632895D01*
X210405005Y-73273346D01*
X210130157Y-72998018D01*
X209776987Y-72851369D01*
X211971937Y-72851369D01*
X212038361Y-72917909D01*
X212397650Y-73067099D01*
X212786683Y-73067438D01*
X213146232Y-72918876D01*
X213247224Y-72818061D01*
X213479928Y-72914688D01*
X213868961Y-72915027D01*
X214228510Y-72766465D01*
X214503838Y-72491617D01*
X214653028Y-72132328D01*
X214653367Y-71743295D01*
X214504805Y-71383746D01*
X214229957Y-71108418D01*
X213870668Y-70959228D01*
X213727329Y-70959103D01*
X213624004Y-70890063D01*
X213332399Y-70832059D01*
X211957827Y-70832059D01*
X212874942Y-69914945D01*
X212968961Y-69915027D01*
X213325732Y-69767613D01*
X213679928Y-69914688D01*
X214068961Y-69915027D01*
X214428510Y-69766465D01*
X214703838Y-69491617D01*
X214853028Y-69132328D01*
X214853367Y-68743295D01*
X214704805Y-68383746D01*
X214429957Y-68108418D01*
X214070668Y-67959228D01*
X213681635Y-67958889D01*
X213324864Y-68106303D01*
X212970668Y-67959228D01*
X212581635Y-67958889D01*
X212222086Y-68107451D01*
X211946758Y-68382299D01*
X211797568Y-68741588D01*
X211797485Y-68837140D01*
X210680567Y-69954059D01*
X209861067Y-69954059D01*
X210103212Y-69854007D01*
X210170837Y-69786500D01*
X210185000Y-69786500D01*
X210476605Y-69728496D01*
X210723815Y-69563315D01*
X216533131Y-63754000D01*
X218886370Y-63754000D01*
X218632370Y-64008000D01*
X218440000Y-64008000D01*
X218322429Y-64031386D01*
X218232659Y-63941460D01*
X217873370Y-63792270D01*
X217484337Y-63791931D01*
X217124788Y-63940493D01*
X216849460Y-64215341D01*
X216700270Y-64574630D01*
X216699931Y-64963663D01*
X216777344Y-65151016D01*
X216700270Y-65336630D01*
X216699931Y-65725663D01*
X216848493Y-66085212D01*
X217123341Y-66360540D01*
X217482630Y-66509730D01*
X217871663Y-66510069D01*
X218053154Y-66435079D01*
X218092030Y-66529166D01*
X217865460Y-66755341D01*
X217716270Y-67114630D01*
X217715931Y-67503663D01*
X217864493Y-67863212D01*
X218139341Y-68138540D01*
X218498630Y-68287730D01*
X218887663Y-68288069D01*
X219247212Y-68139507D01*
X219522540Y-67864659D01*
X219671730Y-67505370D01*
X219672069Y-67116337D01*
X219549970Y-66820834D01*
X219776540Y-66594659D01*
X219925730Y-66235370D01*
X219925786Y-66171000D01*
X225072000Y-66171000D01*
X225072000Y-69981000D01*
X225081334Y-70028789D01*
X225109197Y-70070803D01*
X226342000Y-71303606D01*
X226342000Y-72521000D01*
X226351334Y-72568789D01*
X226379197Y-72610803D01*
X227649197Y-73880803D01*
X227689590Y-73907994D01*
X227739000Y-73918000D01*
X234089000Y-73918000D01*
X234136789Y-73908666D01*
X234178803Y-73880803D01*
X235115304Y-72944302D01*
X243192856Y-72944302D01*
X243220638Y-73499368D01*
X243379603Y-73883143D01*
X243621787Y-73952608D01*
X244422395Y-73152000D01*
X244781605Y-73152000D01*
X245582213Y-73952608D01*
X245824397Y-73883143D01*
X246011144Y-73359698D01*
X245983362Y-72804632D01*
X245824397Y-72420857D01*
X245582213Y-72351392D01*
X244781605Y-73152000D01*
X244422395Y-73152000D01*
X243621787Y-72351392D01*
X243379603Y-72420857D01*
X243192856Y-72944302D01*
X235115304Y-72944302D01*
X235448803Y-72610803D01*
X235475994Y-72570410D01*
X235486000Y-72521000D01*
X235486000Y-63631000D01*
X235476666Y-63583211D01*
X235448803Y-63541197D01*
X234178803Y-62271197D01*
X234138410Y-62244006D01*
X234089000Y-62234000D01*
X230279000Y-62234000D01*
X230231211Y-62243334D01*
X230189197Y-62271197D01*
X228919197Y-63541197D01*
X228892006Y-63581590D01*
X228882000Y-63631000D01*
X228882000Y-64774000D01*
X226469000Y-64774000D01*
X226421211Y-64783334D01*
X226379197Y-64811197D01*
X225109197Y-66081197D01*
X225082006Y-66121590D01*
X225072000Y-66171000D01*
X219925786Y-66171000D01*
X219926069Y-65846337D01*
X219777507Y-65486788D01*
X219671811Y-65380907D01*
X219672035Y-65123595D01*
X221091393Y-63704237D01*
X221126029Y-63652401D01*
X221256574Y-63457027D01*
X221314578Y-63165422D01*
X221314578Y-63105083D01*
X221381118Y-63038659D01*
X221530308Y-62679370D01*
X221530647Y-62290337D01*
X221388593Y-61946538D01*
X222565631Y-60769500D01*
X225248417Y-60769500D01*
X225314841Y-60836040D01*
X225674130Y-60985230D01*
X226063163Y-60985569D01*
X226422712Y-60837007D01*
X226698040Y-60562159D01*
X226703067Y-60550051D01*
X228427554Y-60550051D01*
X229025767Y-61242943D01*
X231117976Y-62152899D01*
X233399149Y-62192935D01*
X235522000Y-61356957D01*
X235692633Y-61242943D01*
X236290846Y-60550051D01*
X232359200Y-56618405D01*
X228427554Y-60550051D01*
X226703067Y-60550051D01*
X226847230Y-60202870D01*
X226847267Y-60159922D01*
X227015663Y-60160069D01*
X227375212Y-60011507D01*
X227587149Y-59799940D01*
X228247949Y-60370446D01*
X232179595Y-56438800D01*
X232165453Y-56424658D01*
X232345058Y-56245053D01*
X232359200Y-56259195D01*
X236290846Y-52327549D01*
X235692633Y-51634657D01*
X234391742Y-51068866D01*
X234503385Y-50800000D01*
X236096770Y-50800000D01*
X238573139Y-53276370D01*
X238523883Y-53285638D01*
X238307759Y-53424710D01*
X238162769Y-53636910D01*
X238111760Y-53888800D01*
X238111760Y-55394852D01*
X237277357Y-53276000D01*
X237163343Y-53105367D01*
X236470451Y-52507154D01*
X232538805Y-56438800D01*
X236470451Y-60370446D01*
X237163343Y-59772233D01*
X238073299Y-57680024D01*
X238111760Y-55488591D01*
X238111760Y-58988800D01*
X238156038Y-59224117D01*
X238295110Y-59440241D01*
X238507310Y-59585231D01*
X238759200Y-59636240D01*
X239054649Y-59636240D01*
X239200493Y-59989212D01*
X239475341Y-60264540D01*
X239834630Y-60413730D01*
X240223663Y-60414069D01*
X240583212Y-60265507D01*
X240858540Y-59990659D01*
X241005708Y-59636240D01*
X241259200Y-59636240D01*
X241494517Y-59591962D01*
X241710641Y-59452890D01*
X241855631Y-59240690D01*
X241906640Y-58988800D01*
X241906640Y-57704302D01*
X243192856Y-57704302D01*
X243220638Y-58259368D01*
X243379603Y-58643143D01*
X243621787Y-58712608D01*
X244422395Y-57912000D01*
X243621787Y-57111392D01*
X243379603Y-57180857D01*
X243192856Y-57704302D01*
X241906640Y-57704302D01*
X241906640Y-53888800D01*
X241862362Y-53653483D01*
X241723290Y-53437359D01*
X241511090Y-53292369D01*
X241259200Y-53241360D01*
X240645152Y-53241360D01*
X240548015Y-53095984D01*
X236951215Y-49499185D01*
X236884697Y-49454739D01*
X236704005Y-49334004D01*
X236412400Y-49276000D01*
X229810000Y-49276000D01*
X229518396Y-49334003D01*
X229271185Y-49499184D01*
X225529010Y-53241360D01*
X223459200Y-53241360D01*
X223223883Y-53285638D01*
X223007759Y-53424710D01*
X222862769Y-53636910D01*
X222811760Y-53888800D01*
X222811760Y-58420000D01*
X220733576Y-58420000D01*
X220853028Y-58132328D01*
X220853367Y-57743295D01*
X220704805Y-57383746D01*
X220429957Y-57108418D01*
X220070668Y-56959228D01*
X219681635Y-56958889D01*
X219322086Y-57107451D01*
X219046758Y-57382299D01*
X218897568Y-57741588D01*
X218897229Y-58130621D01*
X219045791Y-58490170D01*
X219113298Y-58557795D01*
X219113298Y-61189914D01*
X219084635Y-61189889D01*
X218725086Y-61338451D01*
X218449758Y-61613299D01*
X218300568Y-61972588D01*
X218300344Y-62230000D01*
X216217500Y-62230000D01*
X215925895Y-62288004D01*
X215678684Y-62453185D01*
X214132578Y-63999292D01*
X213986307Y-63645288D01*
X213711459Y-63369960D01*
X213352170Y-63220770D01*
X212963137Y-63220431D01*
X212603588Y-63368993D01*
X212328260Y-63643841D01*
X212324706Y-63652401D01*
X210659752Y-63652401D01*
X210865212Y-63567507D01*
X211140540Y-63292659D01*
X211289730Y-62933370D01*
X211290069Y-62544337D01*
X211141507Y-62184788D01*
X211074000Y-62117163D01*
X211074000Y-60005630D01*
X216507643Y-54571987D01*
X216601663Y-54572069D01*
X216961212Y-54423507D01*
X217236540Y-54148659D01*
X217385730Y-53789370D01*
X217386069Y-53400337D01*
X217237507Y-53040788D01*
X216962659Y-52765460D01*
X216603370Y-52616270D01*
X216214337Y-52615931D01*
X215854788Y-52764493D01*
X215579460Y-53039341D01*
X215430270Y-53398630D01*
X215430187Y-53494183D01*
X209773185Y-59151185D01*
X209608004Y-59398395D01*
X209550000Y-59690000D01*
X209550000Y-62116917D01*
X209483460Y-62183341D01*
X209334270Y-62542630D01*
X209333931Y-62931663D01*
X209482493Y-63291212D01*
X209757341Y-63566540D01*
X209964117Y-63652401D01*
X207899000Y-63652401D01*
X207899000Y-63500000D01*
X207855573Y-63269205D01*
X207719173Y-63057233D01*
X207511051Y-62915029D01*
X207264000Y-62865000D01*
X200660000Y-62865000D01*
X200429205Y-62908427D01*
X200217233Y-63044827D01*
X200075029Y-63252949D01*
X200025000Y-63500000D01*
X200025000Y-63668307D01*
X199813362Y-63710405D01*
X199748118Y-63754000D01*
X199566152Y-63875585D01*
X196731277Y-66710461D01*
X196637257Y-66710379D01*
X196277708Y-66858941D01*
X196002380Y-67133789D01*
X195853190Y-67493078D01*
X195852851Y-67882111D01*
X196001413Y-68241660D01*
X196276261Y-68516988D01*
X196635550Y-68666178D01*
X197024583Y-68666517D01*
X197301056Y-68552281D01*
X197575350Y-68666178D01*
X197964383Y-68666517D01*
X198323932Y-68517955D01*
X198599260Y-68243107D01*
X198748450Y-67883818D01*
X198748726Y-67566692D01*
X200025000Y-66290419D01*
X200025000Y-69662984D01*
X199960463Y-69818406D01*
X199960378Y-69915958D01*
X197587381Y-69915958D01*
X197520957Y-69849418D01*
X197161668Y-69700228D01*
X196772635Y-69699889D01*
X196413086Y-69848451D01*
X196137758Y-70123299D01*
X195988568Y-70482588D01*
X195988229Y-70871621D01*
X196136791Y-71231170D01*
X196411639Y-71506498D01*
X196770928Y-71655688D01*
X197159961Y-71656027D01*
X197519510Y-71507465D01*
X197587135Y-71439958D01*
X198650325Y-71439958D01*
X198650123Y-71671731D01*
X198798685Y-72031280D01*
X199073533Y-72306608D01*
X199432822Y-72455798D01*
X199821855Y-72456137D01*
X200025000Y-72372200D01*
X200025000Y-73660000D01*
X185124081Y-73660000D01*
X185118738Y-73633137D01*
X185005727Y-73464004D01*
X184953558Y-73385927D01*
X183072000Y-71504370D01*
X183072000Y-70637820D01*
X183121800Y-70617243D01*
X183331663Y-70407745D01*
X183981861Y-70407745D01*
X184055995Y-70653864D01*
X184593223Y-70846965D01*
X185163454Y-70819778D01*
X185564005Y-70653864D01*
X185638139Y-70407745D01*
X184810000Y-69579605D01*
X183981861Y-70407745D01*
X183331663Y-70407745D01*
X183525824Y-70213923D01*
X183553423Y-70147456D01*
X183556136Y-70154005D01*
X183802255Y-70228139D01*
X184630395Y-69400000D01*
X184989605Y-69400000D01*
X185817745Y-70228139D01*
X186063864Y-70154005D01*
X186256965Y-69616777D01*
X186229778Y-69046546D01*
X186063864Y-68645995D01*
X185817745Y-68571861D01*
X184989605Y-69400000D01*
X184630395Y-69400000D01*
X183802255Y-68571861D01*
X183556136Y-68645995D01*
X183553804Y-68652483D01*
X183527243Y-68588200D01*
X183331640Y-68392255D01*
X183981861Y-68392255D01*
X184810000Y-69220395D01*
X185638139Y-68392255D01*
X185564005Y-68146136D01*
X185026777Y-67953035D01*
X184456546Y-67980222D01*
X184055995Y-68146136D01*
X183981861Y-68392255D01*
X183331640Y-68392255D01*
X183123923Y-68184176D01*
X182596691Y-67965250D01*
X182025813Y-67964752D01*
X181498200Y-68182757D01*
X181094176Y-68586077D01*
X180875250Y-69113309D01*
X180874752Y-69684187D01*
X181092757Y-70211800D01*
X181496077Y-70615824D01*
X181548000Y-70637384D01*
X181548000Y-71820000D01*
X181606004Y-72111605D01*
X181771185Y-72358815D01*
X183072369Y-73660000D01*
X170434000Y-73660000D01*
X170142396Y-73718003D01*
X169895185Y-73883184D01*
X168351200Y-75427170D01*
X168351200Y-71052944D01*
X170504025Y-71052944D01*
X170703615Y-71534818D01*
X171141621Y-72007188D01*
X171727054Y-72275983D01*
X171983000Y-72157367D01*
X171983000Y-70797000D01*
X172237000Y-70797000D01*
X172237000Y-72157367D01*
X172492946Y-72275983D01*
X173078379Y-72007188D01*
X173516385Y-71534818D01*
X173715975Y-71052944D01*
X173596836Y-70797000D01*
X172237000Y-70797000D01*
X171983000Y-70797000D01*
X170623164Y-70797000D01*
X170504025Y-71052944D01*
X168351200Y-71052944D01*
X168351200Y-67114000D01*
X170446560Y-67114000D01*
X170446560Y-69146000D01*
X170490838Y-69381317D01*
X170629910Y-69597441D01*
X170792948Y-69708840D01*
X170703615Y-69805182D01*
X170504025Y-70287056D01*
X170623164Y-70543000D01*
X171983000Y-70543000D01*
X171983000Y-70523000D01*
X172237000Y-70523000D01*
X172237000Y-70543000D01*
X173596836Y-70543000D01*
X173715975Y-70287056D01*
X173516385Y-69805182D01*
X173425903Y-69707602D01*
X173577441Y-69610090D01*
X173722431Y-69397890D01*
X173773440Y-69146000D01*
X173773440Y-67114000D01*
X173729162Y-66878683D01*
X173590090Y-66662559D01*
X173377890Y-66517569D01*
X173126000Y-66466560D01*
X171094000Y-66466560D01*
X170858683Y-66510838D01*
X170642559Y-66649910D01*
X170497569Y-66862110D01*
X170446560Y-67114000D01*
X168351200Y-67114000D01*
X168351200Y-64788690D01*
X168523206Y-65204975D01*
X168870313Y-65552689D01*
X169324064Y-65741103D01*
X169815377Y-65741532D01*
X170269455Y-65553910D01*
X170617169Y-65206803D01*
X170805583Y-64753052D01*
X170806012Y-64261739D01*
X170618390Y-63807661D01*
X170271283Y-63459947D01*
X169817532Y-63271533D01*
X169326219Y-63271104D01*
X168872141Y-63458726D01*
X168524427Y-63805833D01*
X168351200Y-64223010D01*
X168351200Y-57688690D01*
X168523206Y-58104975D01*
X168870313Y-58452689D01*
X169324064Y-58641103D01*
X169815377Y-58641532D01*
X170269455Y-58453910D01*
X170617169Y-58106803D01*
X170805583Y-57653052D01*
X170806012Y-57161739D01*
X170618390Y-56707661D01*
X170271283Y-56359947D01*
X169817532Y-56171533D01*
X169326219Y-56171104D01*
X168872141Y-56358726D01*
X168524427Y-56705833D01*
X168351200Y-57123010D01*
X168351200Y-54262522D01*
X177057084Y-54262522D01*
X177277853Y-54633243D01*
X178249512Y-55026619D01*
X179297747Y-55018213D01*
X179793653Y-54812802D01*
X185859161Y-54812802D01*
X186086828Y-55363800D01*
X186508023Y-55785730D01*
X187058622Y-56014359D01*
X187654802Y-56014879D01*
X188205800Y-55787212D01*
X188627730Y-55366017D01*
X188856359Y-54815418D01*
X188856879Y-54219238D01*
X188629212Y-53668240D01*
X188208017Y-53246310D01*
X187657418Y-53017681D01*
X187061238Y-53017161D01*
X186510240Y-53244828D01*
X186088310Y-53666023D01*
X185859681Y-54216622D01*
X185859161Y-54812802D01*
X179793653Y-54812802D01*
X180227147Y-54633243D01*
X180447916Y-54262522D01*
X178752500Y-52567105D01*
X177057084Y-54262522D01*
X168351200Y-54262522D01*
X168351200Y-51884512D01*
X176113381Y-51884512D01*
X176121787Y-52932747D01*
X176506757Y-53862147D01*
X176877478Y-54082916D01*
X178572895Y-52387500D01*
X178932105Y-52387500D01*
X180627522Y-54082916D01*
X180998243Y-53862147D01*
X181391619Y-52890488D01*
X181383213Y-51842253D01*
X180998243Y-50912853D01*
X180627522Y-50692084D01*
X178932105Y-52387500D01*
X178572895Y-52387500D01*
X176877478Y-50692084D01*
X176506757Y-50912853D01*
X176113381Y-51884512D01*
X168351200Y-51884512D01*
X168351200Y-50512478D01*
X177057084Y-50512478D01*
X178752500Y-52207895D01*
X180447916Y-50512478D01*
X180227147Y-50141757D01*
X179255488Y-49748381D01*
X178207253Y-49756787D01*
X177277853Y-50141757D01*
X177057084Y-50512478D01*
X168351200Y-50512478D01*
X168351200Y-49563522D01*
X174057344Y-49563522D01*
X174278113Y-49934243D01*
X175249772Y-50327619D01*
X176298007Y-50319213D01*
X177227407Y-49934243D01*
X177448176Y-49563522D01*
X175752760Y-47868105D01*
X174057344Y-49563522D01*
X168351200Y-49563522D01*
X168351200Y-47185512D01*
X173113641Y-47185512D01*
X173122047Y-48233747D01*
X173507017Y-49163147D01*
X173877738Y-49383916D01*
X175573155Y-47688500D01*
X175932365Y-47688500D01*
X177627782Y-49383916D01*
X177998503Y-49163147D01*
X178384249Y-48210334D01*
X179116783Y-48210334D01*
X179517093Y-49179158D01*
X180257683Y-49921042D01*
X181225807Y-50323042D01*
X182274074Y-50323957D01*
X183242898Y-49923647D01*
X183984782Y-49183057D01*
X184386782Y-48214933D01*
X184387697Y-47166666D01*
X183987387Y-46197842D01*
X183246797Y-45455958D01*
X182278673Y-45053958D01*
X181230406Y-45053043D01*
X180261582Y-45453353D01*
X179519698Y-46193943D01*
X179117698Y-47162067D01*
X179116783Y-48210334D01*
X178384249Y-48210334D01*
X178391879Y-48191488D01*
X178383473Y-47143253D01*
X177998503Y-46213853D01*
X177627782Y-45993084D01*
X175932365Y-47688500D01*
X175573155Y-47688500D01*
X173877738Y-45993084D01*
X173507017Y-46213853D01*
X173113641Y-47185512D01*
X168351200Y-47185512D01*
X168351200Y-45813478D01*
X174057344Y-45813478D01*
X175752760Y-47508895D01*
X177448176Y-45813478D01*
X177227407Y-45442757D01*
X176255748Y-45049381D01*
X175207513Y-45057787D01*
X174278113Y-45442757D01*
X174057344Y-45813478D01*
X168351200Y-45813478D01*
X168351200Y-44616055D01*
X168354711Y-44605856D01*
X168469997Y-43758303D01*
X168829594Y-43141593D01*
X169397822Y-42709439D01*
X170146601Y-42512245D01*
X170153865Y-42512023D01*
X170200000Y-42521200D01*
G36*
X203263768Y-65941588D02*
X203263429Y-66330621D01*
X203411991Y-66690170D01*
X203686839Y-66965498D01*
X204046128Y-67114688D01*
X204435161Y-67115027D01*
X204794710Y-66966465D01*
X205070038Y-66691617D01*
X205219228Y-66332328D01*
X205219567Y-65943295D01*
X205112594Y-65684399D01*
X207137000Y-65684399D01*
X207137000Y-70832059D01*
X206600535Y-70832059D01*
X206453038Y-70733504D01*
X206331316Y-70709292D01*
X206231159Y-70608960D01*
X205871870Y-70459770D01*
X205482837Y-70459431D01*
X205123288Y-70607993D01*
X204847960Y-70882841D01*
X204698770Y-71242130D01*
X204698431Y-71631163D01*
X204846993Y-71990712D01*
X205121841Y-72266040D01*
X205481130Y-72415230D01*
X205556973Y-72415296D01*
X205650885Y-72642581D01*
X205925733Y-72917909D01*
X206285022Y-73067099D01*
X206674055Y-73067438D01*
X207033604Y-72918876D01*
X207101229Y-72851369D01*
X207137000Y-72851369D01*
X207137000Y-78740000D01*
X207147006Y-78789410D01*
X207175447Y-78831035D01*
X207217841Y-78858315D01*
X207264000Y-78867000D01*
X241173000Y-78867000D01*
X241173000Y-95123000D01*
X171577000Y-95123000D01*
X171577000Y-93005263D01*
X194170131Y-93005263D01*
X194318693Y-93364812D01*
X194593541Y-93640140D01*
X194952830Y-93789330D01*
X195341863Y-93789669D01*
X195701412Y-93641107D01*
X195746079Y-93596518D01*
X197767456Y-93672200D01*
X197857441Y-93762342D01*
X198216730Y-93911532D01*
X198605763Y-93911871D01*
X198965312Y-93763309D01*
X199240640Y-93488461D01*
X199389830Y-93129172D01*
X199390169Y-92740139D01*
X199241607Y-92380590D01*
X198966759Y-92105262D01*
X198607470Y-91956072D01*
X198218437Y-91955733D01*
X197858888Y-92104295D01*
X197814221Y-92148884D01*
X195792844Y-92073202D01*
X195702859Y-91983060D01*
X195564873Y-91925763D01*
X235838831Y-91925763D01*
X235987393Y-92285312D01*
X236262241Y-92560640D01*
X236621530Y-92709830D01*
X237010563Y-92710169D01*
X237370112Y-92561607D01*
X237645440Y-92286759D01*
X237794630Y-91927470D01*
X237794969Y-91538437D01*
X237646407Y-91178888D01*
X237371559Y-90903560D01*
X237012270Y-90754370D01*
X236623237Y-90754031D01*
X236263688Y-90902593D01*
X235988360Y-91177441D01*
X235839170Y-91536730D01*
X235838831Y-91925763D01*
X195564873Y-91925763D01*
X195343570Y-91833870D01*
X194954537Y-91833531D01*
X194594988Y-91982093D01*
X194319660Y-92256941D01*
X194170470Y-92616230D01*
X194170131Y-93005263D01*
X171577000Y-93005263D01*
X171577000Y-92202000D01*
X177111281Y-92202000D01*
X177402886Y-92143996D01*
X177650096Y-91978815D01*
X178842216Y-90786696D01*
X178976230Y-90842344D01*
X179365263Y-90842683D01*
X179724812Y-90694121D01*
X180000140Y-90419273D01*
X180007410Y-90401763D01*
X190817331Y-90401763D01*
X190965893Y-90761312D01*
X191240741Y-91036640D01*
X191600030Y-91185830D01*
X191989063Y-91186169D01*
X192348612Y-91037607D01*
X192623940Y-90762759D01*
X192773130Y-90403470D01*
X192773213Y-90307917D01*
X193038131Y-90043000D01*
X195035117Y-90043000D01*
X195101541Y-90109540D01*
X195460830Y-90258730D01*
X195849863Y-90259069D01*
X196209412Y-90110507D01*
X196484740Y-89835659D01*
X196633930Y-89476370D01*
X196634269Y-89087337D01*
X196485707Y-88727788D01*
X196210859Y-88452460D01*
X195851570Y-88303270D01*
X195462537Y-88302931D01*
X195102988Y-88451493D01*
X195035363Y-88519000D01*
X192722500Y-88519000D01*
X192430895Y-88577004D01*
X192183684Y-88742185D01*
X191695757Y-89230113D01*
X191601737Y-89230031D01*
X191242188Y-89378593D01*
X190966860Y-89653441D01*
X190817670Y-90012730D01*
X190817331Y-90401763D01*
X180007410Y-90401763D01*
X180149330Y-90059984D01*
X180149669Y-89670951D01*
X180001107Y-89311402D01*
X179726259Y-89036074D01*
X179366970Y-88886884D01*
X178977937Y-88886545D01*
X178618388Y-89035107D01*
X178516944Y-89136374D01*
X178395062Y-89160618D01*
X178147851Y-89325799D01*
X176795651Y-90678000D01*
X171577000Y-90678000D01*
X171577000Y-87150563D01*
X200951931Y-87150563D01*
X201100493Y-87510112D01*
X201375341Y-87785440D01*
X201734630Y-87934630D01*
X202123663Y-87934969D01*
X202483212Y-87786407D01*
X202584656Y-87685140D01*
X202706538Y-87660896D01*
X202904832Y-87528400D01*
X215876470Y-87528400D01*
X216935985Y-88587916D01*
X217052703Y-88665904D01*
X217183195Y-88753096D01*
X217474800Y-88811100D01*
X219203869Y-88811100D01*
X218581559Y-89433411D01*
X214513841Y-89433411D01*
X213911515Y-88831085D01*
X213881605Y-88811100D01*
X213664305Y-88665904D01*
X213613981Y-88655894D01*
X213614169Y-88439637D01*
X213465607Y-88080088D01*
X213190759Y-87804760D01*
X212831470Y-87655570D01*
X212442437Y-87655231D01*
X212082888Y-87803793D01*
X211807560Y-88078641D01*
X211658370Y-88437930D01*
X211658222Y-88607900D01*
X210171083Y-88607900D01*
X210104659Y-88541360D01*
X209745370Y-88392170D01*
X209356337Y-88391831D01*
X208996788Y-88540393D01*
X208929163Y-88607900D01*
X208290831Y-88607900D01*
X207955225Y-88272295D01*
X207911027Y-88242763D01*
X207708015Y-88107114D01*
X207416410Y-88049110D01*
X207135783Y-88049110D01*
X207069359Y-87982570D01*
X206710070Y-87833380D01*
X206321037Y-87833041D01*
X205961488Y-87981603D01*
X205686160Y-88256451D01*
X205536970Y-88615740D01*
X205536631Y-89004773D01*
X205685193Y-89364322D01*
X205960041Y-89639650D01*
X206319330Y-89788840D01*
X206708363Y-89789179D01*
X207067912Y-89640617D01*
X207118143Y-89590474D01*
X207436384Y-89908715D01*
X207662774Y-90059984D01*
X207683595Y-90073896D01*
X207975200Y-90131900D01*
X208928917Y-90131900D01*
X208995341Y-90198440D01*
X209354630Y-90347630D01*
X209743663Y-90347969D01*
X210103212Y-90199407D01*
X210170837Y-90131900D01*
X213057070Y-90131900D01*
X213659396Y-90734226D01*
X213906606Y-90899407D01*
X214198211Y-90957411D01*
X218897189Y-90957411D01*
X219188794Y-90899407D01*
X219436004Y-90734226D01*
X220355744Y-89814487D01*
X220449763Y-89814569D01*
X220809312Y-89666007D01*
X221084640Y-89391159D01*
X221233830Y-89031870D01*
X221234022Y-88811100D01*
X221310222Y-88811100D01*
X221310031Y-89030163D01*
X221458593Y-89389712D01*
X221733441Y-89665040D01*
X222092730Y-89814230D01*
X222481763Y-89814569D01*
X222841312Y-89666007D01*
X222908937Y-89598500D01*
X234380369Y-89598500D01*
X234500083Y-89718214D01*
X234675852Y-89835659D01*
X234747294Y-89883395D01*
X235038899Y-89941399D01*
X236677201Y-89941399D01*
X236968806Y-89883395D01*
X237071996Y-89814445D01*
X237213763Y-89814569D01*
X237573312Y-89666007D01*
X237848640Y-89391159D01*
X237997830Y-89031870D01*
X237998169Y-88642837D01*
X237849607Y-88283288D01*
X237748340Y-88181844D01*
X237724096Y-88059962D01*
X237598036Y-87871300D01*
X237558916Y-87812752D01*
X235503848Y-85757685D01*
X235256637Y-85592504D01*
X234965033Y-85534501D01*
X234673429Y-85592504D01*
X234426218Y-85757685D01*
X234261037Y-86004896D01*
X234203034Y-86296500D01*
X234261037Y-86588104D01*
X234426218Y-86835315D01*
X236008301Y-88417399D01*
X235583839Y-88417399D01*
X235503848Y-88297685D01*
X235256638Y-88132504D01*
X234965033Y-88074500D01*
X224040678Y-88074500D01*
X224040869Y-87855437D01*
X223892307Y-87495888D01*
X223617459Y-87220560D01*
X223258170Y-87071370D01*
X222869137Y-87071031D01*
X222509588Y-87219593D01*
X222441963Y-87287100D01*
X217790431Y-87287100D01*
X216730915Y-86227585D01*
X216730914Y-86227584D01*
X216483705Y-86062404D01*
X216192100Y-86004400D01*
X202605433Y-86004400D01*
X202321936Y-86060791D01*
X202125370Y-85979170D01*
X201736337Y-85978831D01*
X201376788Y-86127393D01*
X201101460Y-86402241D01*
X200952270Y-86761530D01*
X200951931Y-87150563D01*
X171577000Y-87150563D01*
X171577000Y-84813177D01*
X179844541Y-84813177D01*
X179993103Y-85172726D01*
X180267951Y-85448054D01*
X180627240Y-85597244D01*
X181016273Y-85597583D01*
X181375822Y-85449021D01*
X181645392Y-85179921D01*
X182940803Y-85179921D01*
X183007227Y-85246461D01*
X183366516Y-85395651D01*
X183755549Y-85395990D01*
X184115098Y-85247428D01*
X184390426Y-84972580D01*
X184539616Y-84613291D01*
X184539955Y-84224258D01*
X184391393Y-83864709D01*
X184116545Y-83589381D01*
X183757256Y-83440191D01*
X183368223Y-83439852D01*
X183008674Y-83588414D01*
X182941049Y-83655921D01*
X181052026Y-83655921D01*
X181017980Y-83641784D01*
X180628947Y-83641445D01*
X180269398Y-83790007D01*
X179994070Y-84064855D01*
X179844880Y-84424144D01*
X179844541Y-84813177D01*
X171577000Y-84813177D01*
X171577000Y-82338046D01*
X233583717Y-82338046D01*
X233852512Y-82923479D01*
X234324882Y-83361485D01*
X234806756Y-83561075D01*
X235062700Y-83441936D01*
X235062700Y-82082100D01*
X233702333Y-82082100D01*
X233583717Y-82338046D01*
X171577000Y-82338046D01*
X171577000Y-81572154D01*
X233583717Y-81572154D01*
X233702333Y-81828100D01*
X235062700Y-81828100D01*
X235062700Y-80468264D01*
X235316700Y-80468264D01*
X235316700Y-81828100D01*
X235336700Y-81828100D01*
X235336700Y-82082100D01*
X235316700Y-82082100D01*
X235316700Y-83441936D01*
X235572644Y-83561075D01*
X236054518Y-83361485D01*
X236152098Y-83271003D01*
X236249610Y-83422541D01*
X236461810Y-83567531D01*
X236713700Y-83618540D01*
X238745700Y-83618540D01*
X238981017Y-83574262D01*
X239197141Y-83435190D01*
X239342131Y-83222990D01*
X239393140Y-82971100D01*
X239393140Y-80939100D01*
X239348862Y-80703783D01*
X239209790Y-80487659D01*
X238997590Y-80342669D01*
X238745700Y-80291660D01*
X236713700Y-80291660D01*
X236478383Y-80335938D01*
X236262259Y-80475010D01*
X236150860Y-80638048D01*
X236054518Y-80548715D01*
X235572644Y-80349125D01*
X235316700Y-80468264D01*
X235062700Y-80468264D01*
X234806756Y-80349125D01*
X234324882Y-80548715D01*
X233852512Y-80986721D01*
X233583717Y-81572154D01*
X171577000Y-81572154D01*
X171577000Y-77361427D01*
X172654672Y-77361427D01*
X172847902Y-77913834D01*
X173237820Y-78350246D01*
X173765065Y-78604223D01*
X173780830Y-78606872D01*
X174012856Y-78485731D01*
X174012856Y-77126514D01*
X172798932Y-77126514D01*
X172654672Y-77361427D01*
X171577000Y-77361427D01*
X171577000Y-75819000D01*
X173085737Y-75819000D01*
X172847902Y-76085194D01*
X172654672Y-76637601D01*
X172798932Y-76872514D01*
X174012856Y-76872514D01*
X174012856Y-76852514D01*
X174266856Y-76852514D01*
X174266856Y-76872514D01*
X174286856Y-76872514D01*
X174286856Y-77126514D01*
X174266856Y-77126514D01*
X174266856Y-78485731D01*
X174498882Y-78606872D01*
X174514647Y-78604223D01*
X175041892Y-78350246D01*
X175413395Y-77934445D01*
X175620186Y-78243929D01*
X176106367Y-78568785D01*
X176679856Y-78682859D01*
X177057961Y-78607649D01*
X179380126Y-80929815D01*
X179627337Y-81094996D01*
X179918942Y-81153000D01*
X196342000Y-81153000D01*
X196633605Y-81094996D01*
X196880815Y-80929815D01*
X202029644Y-75780987D01*
X202123663Y-75781069D01*
X202483212Y-75632507D01*
X202758540Y-75357659D01*
X202907730Y-74998370D01*
X202908069Y-74609337D01*
X202819000Y-74393773D01*
X202819000Y-72832630D01*
X206109088Y-69542543D01*
X206293212Y-69466465D01*
X206568540Y-69191617D01*
X206717730Y-68832328D01*
X206718069Y-68443295D01*
X206569507Y-68083746D01*
X206395866Y-67909802D01*
X206395954Y-67809210D01*
X206247392Y-67449661D01*
X205972544Y-67174333D01*
X205613255Y-67025143D01*
X205224222Y-67024804D01*
X204864673Y-67173366D01*
X204589345Y-67448214D01*
X204440155Y-67807503D01*
X204440030Y-67950842D01*
X204370990Y-68054167D01*
X204312986Y-68345772D01*
X204312986Y-68591197D01*
X204010886Y-68893298D01*
X203931606Y-68774648D01*
X203865816Y-68676185D01*
X203230815Y-68041185D01*
X203173477Y-68002873D01*
X202983605Y-67876004D01*
X202692000Y-67818000D01*
X202043083Y-67818000D01*
X201976659Y-67751460D01*
X201617370Y-67602270D01*
X201228337Y-67601931D01*
X200868788Y-67750493D01*
X200787000Y-67832138D01*
X200787000Y-65684399D01*
X203370562Y-65684399D01*
X203263768Y-65941588D01*
X203263768Y-65941588D01*
G37*
X203263768Y-65941588D02*
X203263429Y-66330621D01*
X203411991Y-66690170D01*
X203686839Y-66965498D01*
X204046128Y-67114688D01*
X204435161Y-67115027D01*
X204794710Y-66966465D01*
X205070038Y-66691617D01*
X205219228Y-66332328D01*
X205219567Y-65943295D01*
X205112594Y-65684399D01*
X207137000Y-65684399D01*
X207137000Y-70832059D01*
X206600535Y-70832059D01*
X206453038Y-70733504D01*
X206331316Y-70709292D01*
X206231159Y-70608960D01*
X205871870Y-70459770D01*
X205482837Y-70459431D01*
X205123288Y-70607993D01*
X204847960Y-70882841D01*
X204698770Y-71242130D01*
X204698431Y-71631163D01*
X204846993Y-71990712D01*
X205121841Y-72266040D01*
X205481130Y-72415230D01*
X205556973Y-72415296D01*
X205650885Y-72642581D01*
X205925733Y-72917909D01*
X206285022Y-73067099D01*
X206674055Y-73067438D01*
X207033604Y-72918876D01*
X207101229Y-72851369D01*
X207137000Y-72851369D01*
X207137000Y-78740000D01*
X207147006Y-78789410D01*
X207175447Y-78831035D01*
X207217841Y-78858315D01*
X207264000Y-78867000D01*
X241173000Y-78867000D01*
X241173000Y-95123000D01*
X171577000Y-95123000D01*
X171577000Y-93005263D01*
X194170131Y-93005263D01*
X194318693Y-93364812D01*
X194593541Y-93640140D01*
X194952830Y-93789330D01*
X195341863Y-93789669D01*
X195701412Y-93641107D01*
X195746079Y-93596518D01*
X197767456Y-93672200D01*
X197857441Y-93762342D01*
X198216730Y-93911532D01*
X198605763Y-93911871D01*
X198965312Y-93763309D01*
X199240640Y-93488461D01*
X199389830Y-93129172D01*
X199390169Y-92740139D01*
X199241607Y-92380590D01*
X198966759Y-92105262D01*
X198607470Y-91956072D01*
X198218437Y-91955733D01*
X197858888Y-92104295D01*
X197814221Y-92148884D01*
X195792844Y-92073202D01*
X195702859Y-91983060D01*
X195564873Y-91925763D01*
X235838831Y-91925763D01*
X235987393Y-92285312D01*
X236262241Y-92560640D01*
X236621530Y-92709830D01*
X237010563Y-92710169D01*
X237370112Y-92561607D01*
X237645440Y-92286759D01*
X237794630Y-91927470D01*
X237794969Y-91538437D01*
X237646407Y-91178888D01*
X237371559Y-90903560D01*
X237012270Y-90754370D01*
X236623237Y-90754031D01*
X236263688Y-90902593D01*
X235988360Y-91177441D01*
X235839170Y-91536730D01*
X235838831Y-91925763D01*
X195564873Y-91925763D01*
X195343570Y-91833870D01*
X194954537Y-91833531D01*
X194594988Y-91982093D01*
X194319660Y-92256941D01*
X194170470Y-92616230D01*
X194170131Y-93005263D01*
X171577000Y-93005263D01*
X171577000Y-92202000D01*
X177111281Y-92202000D01*
X177402886Y-92143996D01*
X177650096Y-91978815D01*
X178842216Y-90786696D01*
X178976230Y-90842344D01*
X179365263Y-90842683D01*
X179724812Y-90694121D01*
X180000140Y-90419273D01*
X180007410Y-90401763D01*
X190817331Y-90401763D01*
X190965893Y-90761312D01*
X191240741Y-91036640D01*
X191600030Y-91185830D01*
X191989063Y-91186169D01*
X192348612Y-91037607D01*
X192623940Y-90762759D01*
X192773130Y-90403470D01*
X192773213Y-90307917D01*
X193038131Y-90043000D01*
X195035117Y-90043000D01*
X195101541Y-90109540D01*
X195460830Y-90258730D01*
X195849863Y-90259069D01*
X196209412Y-90110507D01*
X196484740Y-89835659D01*
X196633930Y-89476370D01*
X196634269Y-89087337D01*
X196485707Y-88727788D01*
X196210859Y-88452460D01*
X195851570Y-88303270D01*
X195462537Y-88302931D01*
X195102988Y-88451493D01*
X195035363Y-88519000D01*
X192722500Y-88519000D01*
X192430895Y-88577004D01*
X192183684Y-88742185D01*
X191695757Y-89230113D01*
X191601737Y-89230031D01*
X191242188Y-89378593D01*
X190966860Y-89653441D01*
X190817670Y-90012730D01*
X190817331Y-90401763D01*
X180007410Y-90401763D01*
X180149330Y-90059984D01*
X180149669Y-89670951D01*
X180001107Y-89311402D01*
X179726259Y-89036074D01*
X179366970Y-88886884D01*
X178977937Y-88886545D01*
X178618388Y-89035107D01*
X178516944Y-89136374D01*
X178395062Y-89160618D01*
X178147851Y-89325799D01*
X176795651Y-90678000D01*
X171577000Y-90678000D01*
X171577000Y-87150563D01*
X200951931Y-87150563D01*
X201100493Y-87510112D01*
X201375341Y-87785440D01*
X201734630Y-87934630D01*
X202123663Y-87934969D01*
X202483212Y-87786407D01*
X202584656Y-87685140D01*
X202706538Y-87660896D01*
X202904832Y-87528400D01*
X215876470Y-87528400D01*
X216935985Y-88587916D01*
X217052703Y-88665904D01*
X217183195Y-88753096D01*
X217474800Y-88811100D01*
X219203869Y-88811100D01*
X218581559Y-89433411D01*
X214513841Y-89433411D01*
X213911515Y-88831085D01*
X213881605Y-88811100D01*
X213664305Y-88665904D01*
X213613981Y-88655894D01*
X213614169Y-88439637D01*
X213465607Y-88080088D01*
X213190759Y-87804760D01*
X212831470Y-87655570D01*
X212442437Y-87655231D01*
X212082888Y-87803793D01*
X211807560Y-88078641D01*
X211658370Y-88437930D01*
X211658222Y-88607900D01*
X210171083Y-88607900D01*
X210104659Y-88541360D01*
X209745370Y-88392170D01*
X209356337Y-88391831D01*
X208996788Y-88540393D01*
X208929163Y-88607900D01*
X208290831Y-88607900D01*
X207955225Y-88272295D01*
X207911027Y-88242763D01*
X207708015Y-88107114D01*
X207416410Y-88049110D01*
X207135783Y-88049110D01*
X207069359Y-87982570D01*
X206710070Y-87833380D01*
X206321037Y-87833041D01*
X205961488Y-87981603D01*
X205686160Y-88256451D01*
X205536970Y-88615740D01*
X205536631Y-89004773D01*
X205685193Y-89364322D01*
X205960041Y-89639650D01*
X206319330Y-89788840D01*
X206708363Y-89789179D01*
X207067912Y-89640617D01*
X207118143Y-89590474D01*
X207436384Y-89908715D01*
X207662774Y-90059984D01*
X207683595Y-90073896D01*
X207975200Y-90131900D01*
X208928917Y-90131900D01*
X208995341Y-90198440D01*
X209354630Y-90347630D01*
X209743663Y-90347969D01*
X210103212Y-90199407D01*
X210170837Y-90131900D01*
X213057070Y-90131900D01*
X213659396Y-90734226D01*
X213906606Y-90899407D01*
X214198211Y-90957411D01*
X218897189Y-90957411D01*
X219188794Y-90899407D01*
X219436004Y-90734226D01*
X220355744Y-89814487D01*
X220449763Y-89814569D01*
X220809312Y-89666007D01*
X221084640Y-89391159D01*
X221233830Y-89031870D01*
X221234022Y-88811100D01*
X221310222Y-88811100D01*
X221310031Y-89030163D01*
X221458593Y-89389712D01*
X221733441Y-89665040D01*
X222092730Y-89814230D01*
X222481763Y-89814569D01*
X222841312Y-89666007D01*
X222908937Y-89598500D01*
X234380369Y-89598500D01*
X234500083Y-89718214D01*
X234675852Y-89835659D01*
X234747294Y-89883395D01*
X235038899Y-89941399D01*
X236677201Y-89941399D01*
X236968806Y-89883395D01*
X237071996Y-89814445D01*
X237213763Y-89814569D01*
X237573312Y-89666007D01*
X237848640Y-89391159D01*
X237997830Y-89031870D01*
X237998169Y-88642837D01*
X237849607Y-88283288D01*
X237748340Y-88181844D01*
X237724096Y-88059962D01*
X237598036Y-87871300D01*
X237558916Y-87812752D01*
X235503848Y-85757685D01*
X235256637Y-85592504D01*
X234965033Y-85534501D01*
X234673429Y-85592504D01*
X234426218Y-85757685D01*
X234261037Y-86004896D01*
X234203034Y-86296500D01*
X234261037Y-86588104D01*
X234426218Y-86835315D01*
X236008301Y-88417399D01*
X235583839Y-88417399D01*
X235503848Y-88297685D01*
X235256638Y-88132504D01*
X234965033Y-88074500D01*
X224040678Y-88074500D01*
X224040869Y-87855437D01*
X223892307Y-87495888D01*
X223617459Y-87220560D01*
X223258170Y-87071370D01*
X222869137Y-87071031D01*
X222509588Y-87219593D01*
X222441963Y-87287100D01*
X217790431Y-87287100D01*
X216730915Y-86227585D01*
X216730914Y-86227584D01*
X216483705Y-86062404D01*
X216192100Y-86004400D01*
X202605433Y-86004400D01*
X202321936Y-86060791D01*
X202125370Y-85979170D01*
X201736337Y-85978831D01*
X201376788Y-86127393D01*
X201101460Y-86402241D01*
X200952270Y-86761530D01*
X200951931Y-87150563D01*
X171577000Y-87150563D01*
X171577000Y-84813177D01*
X179844541Y-84813177D01*
X179993103Y-85172726D01*
X180267951Y-85448054D01*
X180627240Y-85597244D01*
X181016273Y-85597583D01*
X181375822Y-85449021D01*
X181645392Y-85179921D01*
X182940803Y-85179921D01*
X183007227Y-85246461D01*
X183366516Y-85395651D01*
X183755549Y-85395990D01*
X184115098Y-85247428D01*
X184390426Y-84972580D01*
X184539616Y-84613291D01*
X184539955Y-84224258D01*
X184391393Y-83864709D01*
X184116545Y-83589381D01*
X183757256Y-83440191D01*
X183368223Y-83439852D01*
X183008674Y-83588414D01*
X182941049Y-83655921D01*
X181052026Y-83655921D01*
X181017980Y-83641784D01*
X180628947Y-83641445D01*
X180269398Y-83790007D01*
X179994070Y-84064855D01*
X179844880Y-84424144D01*
X179844541Y-84813177D01*
X171577000Y-84813177D01*
X171577000Y-82338046D01*
X233583717Y-82338046D01*
X233852512Y-82923479D01*
X234324882Y-83361485D01*
X234806756Y-83561075D01*
X235062700Y-83441936D01*
X235062700Y-82082100D01*
X233702333Y-82082100D01*
X233583717Y-82338046D01*
X171577000Y-82338046D01*
X171577000Y-81572154D01*
X233583717Y-81572154D01*
X233702333Y-81828100D01*
X235062700Y-81828100D01*
X235062700Y-80468264D01*
X235316700Y-80468264D01*
X235316700Y-81828100D01*
X235336700Y-81828100D01*
X235336700Y-82082100D01*
X235316700Y-82082100D01*
X235316700Y-83441936D01*
X235572644Y-83561075D01*
X236054518Y-83361485D01*
X236152098Y-83271003D01*
X236249610Y-83422541D01*
X236461810Y-83567531D01*
X236713700Y-83618540D01*
X238745700Y-83618540D01*
X238981017Y-83574262D01*
X239197141Y-83435190D01*
X239342131Y-83222990D01*
X239393140Y-82971100D01*
X239393140Y-80939100D01*
X239348862Y-80703783D01*
X239209790Y-80487659D01*
X238997590Y-80342669D01*
X238745700Y-80291660D01*
X236713700Y-80291660D01*
X236478383Y-80335938D01*
X236262259Y-80475010D01*
X236150860Y-80638048D01*
X236054518Y-80548715D01*
X235572644Y-80349125D01*
X235316700Y-80468264D01*
X235062700Y-80468264D01*
X234806756Y-80349125D01*
X234324882Y-80548715D01*
X233852512Y-80986721D01*
X233583717Y-81572154D01*
X171577000Y-81572154D01*
X171577000Y-77361427D01*
X172654672Y-77361427D01*
X172847902Y-77913834D01*
X173237820Y-78350246D01*
X173765065Y-78604223D01*
X173780830Y-78606872D01*
X174012856Y-78485731D01*
X174012856Y-77126514D01*
X172798932Y-77126514D01*
X172654672Y-77361427D01*
X171577000Y-77361427D01*
X171577000Y-75819000D01*
X173085737Y-75819000D01*
X172847902Y-76085194D01*
X172654672Y-76637601D01*
X172798932Y-76872514D01*
X174012856Y-76872514D01*
X174012856Y-76852514D01*
X174266856Y-76852514D01*
X174266856Y-76872514D01*
X174286856Y-76872514D01*
X174286856Y-77126514D01*
X174266856Y-77126514D01*
X174266856Y-78485731D01*
X174498882Y-78606872D01*
X174514647Y-78604223D01*
X175041892Y-78350246D01*
X175413395Y-77934445D01*
X175620186Y-78243929D01*
X176106367Y-78568785D01*
X176679856Y-78682859D01*
X177057961Y-78607649D01*
X179380126Y-80929815D01*
X179627337Y-81094996D01*
X179918942Y-81153000D01*
X196342000Y-81153000D01*
X196633605Y-81094996D01*
X196880815Y-80929815D01*
X202029644Y-75780987D01*
X202123663Y-75781069D01*
X202483212Y-75632507D01*
X202758540Y-75357659D01*
X202907730Y-74998370D01*
X202908069Y-74609337D01*
X202819000Y-74393773D01*
X202819000Y-72832630D01*
X206109088Y-69542543D01*
X206293212Y-69466465D01*
X206568540Y-69191617D01*
X206717730Y-68832328D01*
X206718069Y-68443295D01*
X206569507Y-68083746D01*
X206395866Y-67909802D01*
X206395954Y-67809210D01*
X206247392Y-67449661D01*
X205972544Y-67174333D01*
X205613255Y-67025143D01*
X205224222Y-67024804D01*
X204864673Y-67173366D01*
X204589345Y-67448214D01*
X204440155Y-67807503D01*
X204440030Y-67950842D01*
X204370990Y-68054167D01*
X204312986Y-68345772D01*
X204312986Y-68591197D01*
X204010886Y-68893298D01*
X203931606Y-68774648D01*
X203865816Y-68676185D01*
X203230815Y-68041185D01*
X203173477Y-68002873D01*
X202983605Y-67876004D01*
X202692000Y-67818000D01*
X202043083Y-67818000D01*
X201976659Y-67751460D01*
X201617370Y-67602270D01*
X201228337Y-67601931D01*
X200868788Y-67750493D01*
X200787000Y-67832138D01*
X200787000Y-65684399D01*
X203370562Y-65684399D01*
X203263768Y-65941588D01*
D28*
X240030000Y-59436000D03*
X211488996Y-71098749D03*
X182118000Y-73406000D03*
X197993000Y-73025000D03*
X228219000Y-60706000D03*
X236601000Y-52197000D03*
X230505000Y-49276000D03*
X220091000Y-56388000D03*
X198026720Y-50800000D03*
X195199000Y-44958000D03*
X175768000Y-73406000D03*
X170434000Y-73406000D03*
X243078000Y-50292000D03*
X242824000Y-47752000D03*
X236220000Y-72136000D03*
X212344000Y-47780540D03*
X216662000Y-52324000D03*
X221218680Y-51702940D03*
X211226400Y-57036958D03*
X193395600Y-67716400D03*
X190906400Y-65227200D03*
X211597272Y-62736958D03*
X211775298Y-68936958D03*
X217175298Y-63617158D03*
X212275298Y-60236958D03*
X211023298Y-73674158D03*
X219275298Y-63641158D03*
X202463400Y-51625500D03*
X202420220Y-48994060D03*
X202420220Y-50289460D03*
X192766144Y-47861311D03*
X194683380Y-51681380D03*
X194706240Y-50650140D03*
X193814038Y-48892118D03*
X191583924Y-48904787D03*
X192796911Y-49953118D03*
X230412080Y-45453140D03*
X219194582Y-45453140D03*
X226703680Y-45424940D03*
X222792080Y-45424940D03*
X216365880Y-48018540D03*
X216365880Y-47154940D03*
X216899280Y-46316740D03*
X217280280Y-47180340D03*
X217280280Y-48043940D03*
X176367280Y-56843020D03*
X177367280Y-63943020D03*
X176467280Y-63443020D03*
X247650000Y-59690000D03*
X209550000Y-96520000D03*
X209550000Y-89369900D03*
X233426000Y-47498000D03*
X206514700Y-88811110D03*
X212636100Y-88633300D03*
X237020100Y-88836500D03*
X236816900Y-91732100D03*
X220256100Y-88836500D03*
X222288100Y-88836500D03*
X210172310Y-92138500D03*
X205652224Y-69622251D03*
X202697736Y-69742474D03*
X196966298Y-70677958D03*
X204241498Y-65417709D03*
X235712000Y-88392000D03*
X207264000Y-85852000D03*
X178396824Y-92191182D03*
X173644556Y-90461514D03*
X171637956Y-87286514D03*
X187258956Y-89864614D03*
X184655456Y-89839214D03*
X193954400Y-87541100D03*
X215616198Y-88607890D03*
X199059800Y-88163400D03*
X226898200Y-89954100D03*
X217106500Y-88785700D03*
X212509100Y-93396500D03*
X210045300Y-88303100D03*
X235504700Y-92465100D03*
X198412100Y-92933802D03*
X195148200Y-92811600D03*
X191795400Y-90208100D03*
X195656200Y-89281000D03*
X223062800Y-88049100D03*
X201930000Y-86956900D03*
X201930000Y-74803000D03*
X205740000Y-68636958D03*
X233550000Y-50546000D03*
X194945000Y-75184000D03*
X226822000Y-59182000D03*
X240792000Y-47752000D03*
X179171600Y-89864614D03*
X219875298Y-57936958D03*
X209575498Y-73826558D03*
X219278298Y-62167958D03*
X204241498Y-66136958D03*
X210058000Y-49784000D03*
X190000000Y-46310000D03*
X190000000Y-47060000D03*
X190949580Y-47060000D03*
X190965960Y-46310000D03*
X216408000Y-53594000D03*
X210312000Y-62738000D03*
X193583560Y-59048780D03*
X191734440Y-59048780D03*
X189845939Y-48900080D03*
X192727580Y-44213780D03*
X192760140Y-45892720D03*
X192760140Y-45094700D03*
X201422000Y-68580000D03*
X205417885Y-68002873D03*
X205676500Y-71437500D03*
X200938193Y-70013776D03*
X213675298Y-71936958D03*
X208269298Y-71058958D03*
X212775298Y-68936958D03*
X212593020Y-72089369D03*
X206480392Y-72089369D03*
X199628192Y-71478068D03*
X213875298Y-68936958D03*
X217678000Y-64770000D03*
X218694000Y-65278000D03*
X218948000Y-66040000D03*
X218694000Y-67310000D03*
X180822610Y-84619514D03*
X183561886Y-84417921D03*
X209550000Y-69024500D03*
X225869500Y-60007500D03*
X213156800Y-65138300D03*
X197770720Y-67688448D03*
X213156800Y-64198500D03*
X196830920Y-67688448D03*
X220552578Y-62484000D03*
X217678000Y-65532000D03*
D29*
X182310000Y-69400000D03*
X184810000Y-69400000D03*
X187358020Y-54516020D03*
X237729700Y-81955100D03*
X235189700Y-81955100D03*
X172110000Y-68130000D03*
X172110000Y-70670000D03*
X186839856Y-76999514D03*
X184299856Y-76999514D03*
X181759856Y-76999514D03*
X179219856Y-76999514D03*
X176679856Y-76999514D03*
X174139856Y-76999514D03*
X169570798Y-57406318D03*
X169570798Y-64506318D03*
X244602000Y-52832000D03*
X244602000Y-55372000D03*
X244602000Y-57912000D03*
X244602000Y-60452000D03*
X244602000Y-62992000D03*
X244602000Y-65532000D03*
X244602000Y-68072000D03*
X244602000Y-70612000D03*
X244602000Y-73152000D03*
X244602000Y-75692000D03*
X244602000Y-78232000D03*
X244602000Y-80772000D03*
X244602000Y-83312000D03*
X244602000Y-85852000D03*
X244602000Y-88392000D03*
X244602000Y-90932000D03*
X181752240Y-47688500D03*
X175752760Y-47688500D03*
X178752500Y-52387500D03*
X232771400Y-67339400D03*
X227891400Y-67339400D03*
X204876400Y-55575200D03*
X204876400Y-58115200D03*
X202336400Y-55575200D03*
X202336400Y-58115200D03*
X199796400Y-55575200D03*
X199796400Y-58115200D03*
M02*
