%TF.GenerationSoftware,KiCad,Pcbnew,4.0.5-e0-6337~49~ubuntu16.04.1*%
%TF.CreationDate,2017-08-06T11:23:39-07:00*%
%TF.ProjectId,mcphail-main-board,6D63706861696C2D6D61696E2D626F61,1.0*%
%TF.FileFunction,Legend,Bot*%
%FSLAX46Y46*%
G04 Gerber Fmt 4.6, Leading zero omitted, Abs format (unit mm)*
G04 Created by KiCad (PCBNEW 4.0.5-e0-6337~49~ubuntu16.04.1) date Sun Aug  6 11:23:39 2017*
%MOMM*%
%LPD*%
G01*
G04 APERTURE LIST*
%ADD10C,0.350000*%
%ADD11C,0.152400*%
%ADD12C,0.150000*%
%ADD13C,1.752400*%
%ADD14C,1.879600*%
%ADD15R,2.652400X5.252400*%
%ADD16C,10.352400*%
%ADD17R,2.184400X2.184400*%
%ADD18O,2.184400X2.184400*%
%ADD19R,1.879600X2.184400*%
%ADD20O,1.879600X2.184400*%
%ADD21C,1.352400*%
%ADD22C,1.676400*%
%ADD23C,4.152400*%
%ADD24R,1.879600X1.879600*%
%ADD25O,1.879600X1.879600*%
G04 APERTURE END LIST*
D10*
D11*
X224609200Y-60938800D02*
X224609200Y-59438800D01*
X227859200Y-60938800D02*
X224609200Y-60938800D01*
X240359200Y-60938800D02*
X240359200Y-59438800D01*
X240109200Y-60938800D02*
X240359200Y-60938800D01*
X236859200Y-60938800D02*
X240109200Y-60938800D01*
X236823694Y-60972187D02*
G75*
G02X227859200Y-60938800I-4464494J4783387D01*
G01*
X228144706Y-51905413D02*
G75*
G02X237109200Y-51938800I4464494J-4783387D01*
G01*
X228109200Y-51938800D02*
X224859200Y-51938800D01*
X224859200Y-51938800D02*
X224609200Y-51938800D01*
X224609200Y-51938800D02*
X224609200Y-53438800D01*
X237109200Y-51938800D02*
X240359200Y-51938800D01*
X240359200Y-51938800D02*
X240359200Y-53438800D01*
D12*
X227323485Y-62117371D02*
X227180628Y-62164990D01*
X227133009Y-62212610D01*
X227085390Y-62307848D01*
X227085390Y-62450705D01*
X227133009Y-62545943D01*
X227180628Y-62593562D01*
X227275866Y-62641181D01*
X227656819Y-62641181D01*
X227656819Y-61641181D01*
X227323485Y-61641181D01*
X227228247Y-61688800D01*
X227180628Y-61736419D01*
X227133009Y-61831657D01*
X227133009Y-61926895D01*
X227180628Y-62022133D01*
X227228247Y-62069752D01*
X227323485Y-62117371D01*
X227656819Y-62117371D01*
X226704438Y-62355467D02*
X226228247Y-62355467D01*
X226799676Y-62641181D02*
X226466343Y-61641181D01*
X226133009Y-62641181D01*
X225942533Y-61641181D02*
X225371104Y-61641181D01*
X225656819Y-62641181D02*
X225656819Y-61641181D01*
X224513961Y-62641181D02*
X225085390Y-62641181D01*
X224799676Y-62641181D02*
X224799676Y-61641181D01*
X224894914Y-61784038D01*
X224990152Y-61879276D01*
X225085390Y-61926895D01*
%LPC*%
D13*
X182310000Y-69400000D03*
X184810000Y-69400000D03*
D14*
X187358020Y-54516020D03*
D15*
X240009200Y-56438800D03*
X224709200Y-56438800D03*
D16*
X232359200Y-56438800D03*
D17*
X237729700Y-81955100D03*
D18*
X235189700Y-81955100D03*
D17*
X172110000Y-68130000D03*
D18*
X172110000Y-70670000D03*
D19*
X186839856Y-76999514D03*
D20*
X184299856Y-76999514D03*
X181759856Y-76999514D03*
X179219856Y-76999514D03*
X176679856Y-76999514D03*
X174139856Y-76999514D03*
D21*
X169570798Y-57406318D03*
X169570798Y-64506318D03*
D22*
X244602000Y-52832000D03*
X244602000Y-55372000D03*
X244602000Y-57912000D03*
X244602000Y-60452000D03*
X244602000Y-62992000D03*
X244602000Y-65532000D03*
X244602000Y-68072000D03*
X244602000Y-70612000D03*
X244602000Y-73152000D03*
X244602000Y-75692000D03*
X244602000Y-78232000D03*
X244602000Y-80772000D03*
X244602000Y-83312000D03*
X244602000Y-85852000D03*
X244602000Y-88392000D03*
X244602000Y-90932000D03*
D23*
X181752240Y-47688500D03*
X175752760Y-47688500D03*
X178752500Y-52387500D03*
D13*
X232771400Y-67339400D03*
X227891400Y-67339400D03*
D24*
X204876400Y-55575200D03*
D25*
X204876400Y-58115200D03*
X202336400Y-55575200D03*
X202336400Y-58115200D03*
X199796400Y-55575200D03*
X199796400Y-58115200D03*
M02*
