G04 This is an RS-274x file exported by *
G04 gerbv version 2.6.0 *
G04 More information is available about gerbv at *
G04 http://gerbv.gpleda.org/ *
G04 --End of header info--*
%MOIN*%
%FSLAX34Y34*%
%IPPOS*%
G04 --Define apertures--*
%ADD10C,0.0050*%
%ADD11C,0.0060*%
%ADD12C,0.0079*%
%ADD13C,0.0118*%
%ADD14C,0.0138*%
%ADD15C,0.0059*%
G04 --Start main section--*
G54D11*
G01X0046500Y-048500D02*
G01X0046500Y-006500D01*
G01X0019000Y-048500D02*
G01X0046500Y-048500D01*
G01X0019000Y-006500D02*
G01X0019000Y-048500D01*
G01X0046500Y-006500D02*
G01X0019000Y-006500D01*
G54D12*
G01X0020665Y-007948D02*
G01X0020965Y-008248D01*
G01X0020965Y-007948D02*
G01X0020665Y-008248D01*
G01X0021665Y-007948D02*
G01X0021965Y-008248D01*
G01X0021965Y-007948D02*
G01X0021665Y-008248D01*
G01X0022665Y-007948D02*
G01X0022965Y-008248D01*
G01X0022965Y-007948D02*
G01X0022665Y-008248D01*
G01X0023665Y-007948D02*
G01X0023965Y-008248D01*
G01X0023965Y-007948D02*
G01X0023665Y-008248D01*
G01X0024665Y-007948D02*
G01X0024965Y-008248D01*
G01X0024965Y-007948D02*
G01X0024665Y-008248D01*
G01X0025665Y-007948D02*
G01X0025965Y-008248D01*
G01X0025965Y-007948D02*
G01X0025665Y-008248D01*
G01X0026665Y-007948D02*
G01X0026965Y-008248D01*
G01X0026965Y-007948D02*
G01X0026665Y-008248D01*
G01X0027665Y-007948D02*
G01X0027965Y-008248D01*
G01X0027965Y-007948D02*
G01X0027665Y-008248D01*
G01X0028665Y-007948D02*
G01X0028965Y-008248D01*
G01X0028965Y-007948D02*
G01X0028665Y-008248D01*
G01X0029665Y-007948D02*
G01X0029965Y-008248D01*
G01X0029965Y-007948D02*
G01X0029665Y-008248D01*
G01X0030665Y-007948D02*
G01X0030965Y-008248D01*
G01X0030965Y-007948D02*
G01X0030665Y-008248D01*
G01X0031665Y-007948D02*
G01X0031965Y-008248D01*
G01X0031965Y-007948D02*
G01X0031665Y-008248D01*
G01X0032665Y-007948D02*
G01X0032965Y-008248D01*
G01X0032965Y-007948D02*
G01X0032665Y-008248D01*
G01X0033665Y-007948D02*
G01X0033965Y-008248D01*
G01X0033965Y-007948D02*
G01X0033665Y-008248D01*
G01X0034665Y-007948D02*
G01X0034965Y-008248D01*
G01X0034965Y-007948D02*
G01X0034665Y-008248D01*
G01X0035665Y-007948D02*
G01X0035965Y-008248D01*
G01X0035965Y-007948D02*
G01X0035665Y-008248D01*
G01X0035955Y-015195D02*
G75*
G03X0035955Y-015195I-000157J0000000D01*
G01X0037876Y-015195D02*
G75*
G03X0037876Y-015195I-000157J0000000D01*
G01X0021126Y-023146D02*
G01X0021126Y-023546D01*
G01X0020926Y-023346D02*
G01X0021326Y-023346D01*
G01X0021126Y-024146D02*
G01X0021126Y-024546D01*
G01X0020926Y-024346D02*
G01X0021326Y-024346D01*
G01X0021126Y-025146D02*
G01X0021126Y-025546D01*
G01X0020926Y-025346D02*
G01X0021326Y-025346D01*
G01X0021126Y-026146D02*
G01X0021126Y-026546D01*
G01X0020926Y-026346D02*
G01X0021326Y-026346D01*
G01X0021126Y-027146D02*
G01X0021126Y-027546D01*
G01X0020926Y-027346D02*
G01X0021326Y-027346D01*
G01X0021126Y-028146D02*
G01X0021126Y-028546D01*
G01X0020926Y-028346D02*
G01X0021326Y-028346D01*
G01X0021271Y-009843D02*
G01X0021271Y-010243D01*
G01X0021071Y-010043D02*
G01X0021471Y-010043D01*
G01X0021271Y-010843D02*
G01X0021271Y-011243D01*
G01X0021071Y-011043D02*
G01X0021471Y-011043D01*
G01X0021271Y-011843D02*
G01X0021271Y-012243D01*
G01X0021071Y-012043D02*
G01X0021471Y-012043D01*
G01X0021271Y-012843D02*
G01X0021271Y-013243D01*
G01X0021071Y-013043D02*
G01X0021471Y-013043D01*
G01X0021271Y-013843D02*
G01X0021271Y-014243D01*
G01X0021071Y-014043D02*
G01X0021471Y-014043D01*
G01X0021271Y-014843D02*
G01X0021271Y-015243D01*
G01X0021071Y-015043D02*
G01X0021471Y-015043D01*
G01X0021271Y-015843D02*
G01X0021271Y-016243D01*
G01X0021071Y-016043D02*
G01X0021471Y-016043D01*
G01X0021271Y-016843D02*
G01X0021271Y-017243D01*
G01X0021071Y-017043D02*
G01X0021471Y-017043D01*
G01X0021271Y-017843D02*
G01X0021271Y-018243D01*
G01X0021071Y-018043D02*
G01X0021471Y-018043D01*
G01X0021271Y-018843D02*
G01X0021271Y-019243D01*
G01X0021071Y-019043D02*
G01X0021471Y-019043D01*
G01X0022503Y-030567D02*
G01X0022503Y-030967D01*
G01X0022303Y-030767D02*
G01X0022703Y-030767D01*
G01X0022503Y-031567D02*
G01X0022503Y-031967D01*
G01X0022303Y-031767D02*
G01X0022703Y-031767D01*
G01X0028921Y-012367D02*
G01X0028921Y-012767D01*
G01X0028721Y-012567D02*
G01X0029121Y-012567D01*
G01X0028921Y-013367D02*
G01X0028921Y-013767D01*
G01X0028721Y-013567D02*
G01X0029121Y-013567D01*
G01X0028921Y-014367D02*
G01X0028921Y-014767D01*
G01X0028721Y-014567D02*
G01X0029121Y-014567D01*
G01X0028921Y-015367D02*
G01X0028921Y-015767D01*
G01X0028721Y-015567D02*
G01X0029121Y-015567D01*
G01X0028921Y-016367D02*
G01X0028921Y-016767D01*
G01X0028721Y-016567D02*
G01X0029121Y-016567D01*
G01X0029204Y-040891D02*
G01X0029204Y-041291D01*
G01X0029004Y-041091D02*
G01X0029404Y-041091D01*
G01X0033006Y-023969D02*
G01X0033006Y-024369D01*
G01X0032806Y-024169D02*
G01X0033206Y-024169D01*
G01X0033006Y-024969D02*
G01X0033006Y-025369D01*
G01X0032806Y-025169D02*
G01X0033206Y-025169D01*
G01X0030596Y-018421D02*
G01X0030596Y-018087D01*
G01X0030596Y-018087D02*
G01X0030262Y-018087D01*
G01X0030262Y-018087D02*
G01X0030262Y-018421D01*
G01X0030262Y-018421D02*
G01X0030596Y-018421D01*
G01X0033391Y-018421D02*
G01X0033391Y-018087D01*
G01X0033391Y-018087D02*
G01X0033057Y-018087D01*
G01X0033057Y-018087D02*
G01X0033057Y-018421D01*
G01X0033057Y-018421D02*
G01X0033391Y-018421D01*
G01X0024596Y-042465D02*
G01X0025187Y-041874D01*
G01X0025187Y-041874D02*
G01X0024596Y-041284D01*
G01X0024596Y-041284D02*
G01X0024006Y-041874D01*
G01X0024006Y-041874D02*
G01X0024596Y-042465D01*
G01X0025777Y-044315D02*
G01X0026368Y-043724D01*
G01X0026368Y-043724D02*
G01X0025777Y-043134D01*
G01X0025777Y-043134D02*
G01X0025187Y-043724D01*
G01X0025187Y-043724D02*
G01X0025777Y-044315D01*
G01X0026958Y-042465D02*
G01X0027549Y-041874D01*
G01X0027549Y-041874D02*
G01X0026958Y-041284D01*
G01X0026958Y-041284D02*
G01X0026368Y-041874D01*
G01X0026368Y-041874D02*
G01X0026958Y-042465D01*
G54D13*
G01X0020039Y-050364D02*
G01X0020039Y-049182D01*
G01X0020039Y-049182D02*
G01X0020320Y-049182D01*
G01X0020320Y-049182D02*
G01X0020489Y-049239D01*
G01X0020489Y-049239D02*
G01X0020601Y-049351D01*
G01X0020601Y-049351D02*
G01X0020657Y-049464D01*
G01X0020657Y-049464D02*
G01X0020714Y-049689D01*
G01X0020714Y-049689D02*
G01X0020714Y-049857D01*
G01X0020714Y-049857D02*
G01X0020657Y-050082D01*
G01X0020657Y-050082D02*
G01X0020601Y-050195D01*
G01X0020601Y-050195D02*
G01X0020489Y-050307D01*
G01X0020489Y-050307D02*
G01X0020320Y-050364D01*
G01X0020320Y-050364D02*
G01X0020039Y-050364D01*
G01X0021220Y-050364D02*
G01X0021220Y-049576D01*
G01X0021220Y-049801D02*
G01X0021276Y-049689D01*
G01X0021276Y-049689D02*
G01X0021332Y-049632D01*
G01X0021332Y-049632D02*
G01X0021445Y-049576D01*
G01X0021445Y-049576D02*
G01X0021557Y-049576D01*
G01X0021951Y-050364D02*
G01X0021951Y-049576D01*
G01X0021951Y-049182D02*
G01X0021895Y-049239D01*
G01X0021895Y-049239D02*
G01X0021951Y-049295D01*
G01X0021951Y-049295D02*
G01X0022007Y-049239D01*
G01X0022007Y-049239D02*
G01X0021951Y-049182D01*
G01X0021951Y-049182D02*
G01X0021951Y-049295D01*
G01X0022682Y-050364D02*
G01X0022570Y-050307D01*
G01X0022570Y-050307D02*
G01X0022513Y-050195D01*
G01X0022513Y-050195D02*
G01X0022513Y-049182D01*
G01X0023301Y-050364D02*
G01X0023188Y-050307D01*
G01X0023188Y-050307D02*
G01X0023132Y-050195D01*
G01X0023132Y-050195D02*
G01X0023132Y-049182D01*
G01X0024651Y-050364D02*
G01X0024651Y-049182D01*
G01X0024651Y-049182D02*
G01X0025044Y-050026D01*
G01X0025044Y-050026D02*
G01X0025438Y-049182D01*
G01X0025438Y-049182D02*
G01X0025438Y-050364D01*
G01X0026507Y-050364D02*
G01X0026507Y-049745D01*
G01X0026507Y-049745D02*
G01X0026450Y-049632D01*
G01X0026450Y-049632D02*
G01X0026338Y-049576D01*
G01X0026338Y-049576D02*
G01X0026113Y-049576D01*
G01X0026113Y-049576D02*
G01X0026000Y-049632D01*
G01X0026507Y-050307D02*
G01X0026394Y-050364D01*
G01X0026394Y-050364D02*
G01X0026113Y-050364D01*
G01X0026113Y-050364D02*
G01X0026000Y-050307D01*
G01X0026000Y-050307D02*
G01X0025944Y-050195D01*
G01X0025944Y-050195D02*
G01X0025944Y-050082D01*
G01X0025944Y-050082D02*
G01X0026000Y-049970D01*
G01X0026000Y-049970D02*
G01X0026113Y-049914D01*
G01X0026113Y-049914D02*
G01X0026394Y-049914D01*
G01X0026394Y-049914D02*
G01X0026507Y-049857D01*
G01X0027069Y-049576D02*
G01X0027069Y-050757D01*
G01X0027069Y-049632D02*
G01X0027181Y-049576D01*
G01X0027181Y-049576D02*
G01X0027406Y-049576D01*
G01X0027406Y-049576D02*
G01X0027519Y-049632D01*
G01X0027519Y-049632D02*
G01X0027575Y-049689D01*
G01X0027575Y-049689D02*
G01X0027631Y-049801D01*
G01X0027631Y-049801D02*
G01X0027631Y-050139D01*
G01X0027631Y-050139D02*
G01X0027575Y-050251D01*
G01X0027575Y-050251D02*
G01X0027519Y-050307D01*
G01X0027519Y-050307D02*
G01X0027406Y-050364D01*
G01X0027406Y-050364D02*
G01X0027181Y-050364D01*
G01X0027181Y-050364D02*
G01X0027069Y-050307D01*
G01X0028138Y-050251D02*
G01X0028194Y-050307D01*
G01X0028194Y-050307D02*
G01X0028138Y-050364D01*
G01X0028138Y-050364D02*
G01X0028081Y-050307D01*
G01X0028081Y-050307D02*
G01X0028138Y-050251D01*
G01X0028138Y-050251D02*
G01X0028138Y-050364D01*
G01X0028138Y-049632D02*
G01X0028194Y-049689D01*
G01X0028194Y-049689D02*
G01X0028138Y-049745D01*
G01X0028138Y-049745D02*
G01X0028081Y-049689D01*
G01X0028081Y-049689D02*
G01X0028138Y-049632D01*
G01X0028138Y-049632D02*
G01X0028138Y-049745D01*
G01X0018670Y-052160D02*
G01X0018970Y-052460D01*
G01X0018970Y-052160D02*
G01X0018670Y-052460D01*
G01X0020264Y-051663D02*
G01X0020376Y-051663D01*
G01X0020376Y-051663D02*
G01X0020489Y-051719D01*
G01X0020489Y-051719D02*
G01X0020545Y-051775D01*
G01X0020545Y-051775D02*
G01X0020601Y-051888D01*
G01X0020601Y-051888D02*
G01X0020657Y-052113D01*
G01X0020657Y-052113D02*
G01X0020657Y-052394D01*
G01X0020657Y-052394D02*
G01X0020601Y-052619D01*
G01X0020601Y-052619D02*
G01X0020545Y-052731D01*
G01X0020545Y-052731D02*
G01X0020489Y-052788D01*
G01X0020489Y-052788D02*
G01X0020376Y-052844D01*
G01X0020376Y-052844D02*
G01X0020264Y-052844D01*
G01X0020264Y-052844D02*
G01X0020151Y-052788D01*
G01X0020151Y-052788D02*
G01X0020095Y-052731D01*
G01X0020095Y-052731D02*
G01X0020039Y-052619D01*
G01X0020039Y-052619D02*
G01X0019982Y-052394D01*
G01X0019982Y-052394D02*
G01X0019982Y-052113D01*
G01X0019982Y-052113D02*
G01X0020039Y-051888D01*
G01X0020039Y-051888D02*
G01X0020095Y-051775D01*
G01X0020095Y-051775D02*
G01X0020151Y-051719D01*
G01X0020151Y-051719D02*
G01X0020264Y-051663D01*
G01X0021163Y-052731D02*
G01X0021220Y-052788D01*
G01X0021220Y-052788D02*
G01X0021163Y-052844D01*
G01X0021163Y-052844D02*
G01X0021107Y-052788D01*
G01X0021107Y-052788D02*
G01X0021163Y-052731D01*
G01X0021163Y-052731D02*
G01X0021163Y-052844D01*
G01X0021613Y-051663D02*
G01X0022401Y-051663D01*
G01X0022401Y-051663D02*
G01X0021895Y-052844D01*
G01X0023357Y-051663D02*
G01X0023132Y-051663D01*
G01X0023132Y-051663D02*
G01X0023019Y-051719D01*
G01X0023019Y-051719D02*
G01X0022963Y-051775D01*
G01X0022963Y-051775D02*
G01X0022851Y-051944D01*
G01X0022851Y-051944D02*
G01X0022795Y-052169D01*
G01X0022795Y-052169D02*
G01X0022795Y-052619D01*
G01X0022795Y-052619D02*
G01X0022851Y-052731D01*
G01X0022851Y-052731D02*
G01X0022907Y-052788D01*
G01X0022907Y-052788D02*
G01X0023019Y-052844D01*
G01X0023019Y-052844D02*
G01X0023244Y-052844D01*
G01X0023244Y-052844D02*
G01X0023357Y-052788D01*
G01X0023357Y-052788D02*
G01X0023413Y-052731D01*
G01X0023413Y-052731D02*
G01X0023469Y-052619D01*
G01X0023469Y-052619D02*
G01X0023469Y-052338D01*
G01X0023469Y-052338D02*
G01X0023413Y-052225D01*
G01X0023413Y-052225D02*
G01X0023357Y-052169D01*
G01X0023357Y-052169D02*
G01X0023244Y-052113D01*
G01X0023244Y-052113D02*
G01X0023019Y-052113D01*
G01X0023019Y-052113D02*
G01X0022907Y-052169D01*
G01X0022907Y-052169D02*
G01X0022851Y-052225D01*
G01X0022851Y-052225D02*
G01X0022795Y-052338D01*
G01X0023976Y-052844D02*
G01X0023976Y-052056D01*
G01X0023976Y-052169D02*
G01X0024032Y-052113D01*
G01X0024032Y-052113D02*
G01X0024144Y-052056D01*
G01X0024144Y-052056D02*
G01X0024313Y-052056D01*
G01X0024313Y-052056D02*
G01X0024426Y-052113D01*
G01X0024426Y-052113D02*
G01X0024482Y-052225D01*
G01X0024482Y-052225D02*
G01X0024482Y-052844D01*
G01X0024482Y-052225D02*
G01X0024538Y-052113D01*
G01X0024538Y-052113D02*
G01X0024651Y-052056D01*
G01X0024651Y-052056D02*
G01X0024819Y-052056D01*
G01X0024819Y-052056D02*
G01X0024932Y-052113D01*
G01X0024932Y-052113D02*
G01X0024988Y-052225D01*
G01X0024988Y-052225D02*
G01X0024988Y-052844D01*
G01X0025550Y-052844D02*
G01X0025550Y-052056D01*
G01X0025550Y-052169D02*
G01X0025607Y-052113D01*
G01X0025607Y-052113D02*
G01X0025719Y-052056D01*
G01X0025719Y-052056D02*
G01X0025888Y-052056D01*
G01X0025888Y-052056D02*
G01X0026000Y-052113D01*
G01X0026000Y-052113D02*
G01X0026057Y-052225D01*
G01X0026057Y-052225D02*
G01X0026057Y-052844D01*
G01X0026057Y-052225D02*
G01X0026113Y-052113D01*
G01X0026113Y-052113D02*
G01X0026225Y-052056D01*
G01X0026225Y-052056D02*
G01X0026394Y-052056D01*
G01X0026394Y-052056D02*
G01X0026507Y-052113D01*
G01X0026507Y-052113D02*
G01X0026563Y-052225D01*
G01X0026563Y-052225D02*
G01X0026563Y-052844D01*
G01X0028869Y-051606D02*
G01X0027856Y-053125D01*
G01X0030387Y-051663D02*
G01X0030500Y-051663D01*
G01X0030500Y-051663D02*
G01X0030612Y-051719D01*
G01X0030612Y-051719D02*
G01X0030669Y-051775D01*
G01X0030669Y-051775D02*
G01X0030725Y-051888D01*
G01X0030725Y-051888D02*
G01X0030781Y-052113D01*
G01X0030781Y-052113D02*
G01X0030781Y-052394D01*
G01X0030781Y-052394D02*
G01X0030725Y-052619D01*
G01X0030725Y-052619D02*
G01X0030669Y-052731D01*
G01X0030669Y-052731D02*
G01X0030612Y-052788D01*
G01X0030612Y-052788D02*
G01X0030500Y-052844D01*
G01X0030500Y-052844D02*
G01X0030387Y-052844D01*
G01X0030387Y-052844D02*
G01X0030275Y-052788D01*
G01X0030275Y-052788D02*
G01X0030219Y-052731D01*
G01X0030219Y-052731D02*
G01X0030162Y-052619D01*
G01X0030162Y-052619D02*
G01X0030106Y-052394D01*
G01X0030106Y-052394D02*
G01X0030106Y-052113D01*
G01X0030106Y-052113D02*
G01X0030162Y-051888D01*
G01X0030162Y-051888D02*
G01X0030219Y-051775D01*
G01X0030219Y-051775D02*
G01X0030275Y-051719D01*
G01X0030275Y-051719D02*
G01X0030387Y-051663D01*
G01X0031287Y-052731D02*
G01X0031343Y-052788D01*
G01X0031343Y-052788D02*
G01X0031287Y-052844D01*
G01X0031287Y-052844D02*
G01X0031231Y-052788D01*
G01X0031231Y-052788D02*
G01X0031287Y-052731D01*
G01X0031287Y-052731D02*
G01X0031287Y-052844D01*
G01X0032075Y-051663D02*
G01X0032187Y-051663D01*
G01X0032187Y-051663D02*
G01X0032300Y-051719D01*
G01X0032300Y-051719D02*
G01X0032356Y-051775D01*
G01X0032356Y-051775D02*
G01X0032412Y-051888D01*
G01X0032412Y-051888D02*
G01X0032468Y-052113D01*
G01X0032468Y-052113D02*
G01X0032468Y-052394D01*
G01X0032468Y-052394D02*
G01X0032412Y-052619D01*
G01X0032412Y-052619D02*
G01X0032356Y-052731D01*
G01X0032356Y-052731D02*
G01X0032300Y-052788D01*
G01X0032300Y-052788D02*
G01X0032187Y-052844D01*
G01X0032187Y-052844D02*
G01X0032075Y-052844D01*
G01X0032075Y-052844D02*
G01X0031962Y-052788D01*
G01X0031962Y-052788D02*
G01X0031906Y-052731D01*
G01X0031906Y-052731D02*
G01X0031850Y-052619D01*
G01X0031850Y-052619D02*
G01X0031793Y-052394D01*
G01X0031793Y-052394D02*
G01X0031793Y-052113D01*
G01X0031793Y-052113D02*
G01X0031850Y-051888D01*
G01X0031850Y-051888D02*
G01X0031906Y-051775D01*
G01X0031906Y-051775D02*
G01X0031962Y-051719D01*
G01X0031962Y-051719D02*
G01X0032075Y-051663D01*
G01X0032862Y-051663D02*
G01X0033593Y-051663D01*
G01X0033593Y-051663D02*
G01X0033199Y-052113D01*
G01X0033199Y-052113D02*
G01X0033368Y-052113D01*
G01X0033368Y-052113D02*
G01X0033481Y-052169D01*
G01X0033481Y-052169D02*
G01X0033537Y-052225D01*
G01X0033537Y-052225D02*
G01X0033593Y-052338D01*
G01X0033593Y-052338D02*
G01X0033593Y-052619D01*
G01X0033593Y-052619D02*
G01X0033537Y-052731D01*
G01X0033537Y-052731D02*
G01X0033481Y-052788D01*
G01X0033481Y-052788D02*
G01X0033368Y-052844D01*
G01X0033368Y-052844D02*
G01X0033031Y-052844D01*
G01X0033031Y-052844D02*
G01X0032918Y-052788D01*
G01X0032918Y-052788D02*
G01X0032862Y-052731D01*
G01X0034324Y-051663D02*
G01X0034437Y-051663D01*
G01X0034437Y-051663D02*
G01X0034549Y-051719D01*
G01X0034549Y-051719D02*
G01X0034606Y-051775D01*
G01X0034606Y-051775D02*
G01X0034662Y-051888D01*
G01X0034662Y-051888D02*
G01X0034718Y-052113D01*
G01X0034718Y-052113D02*
G01X0034718Y-052394D01*
G01X0034718Y-052394D02*
G01X0034662Y-052619D01*
G01X0034662Y-052619D02*
G01X0034606Y-052731D01*
G01X0034606Y-052731D02*
G01X0034549Y-052788D01*
G01X0034549Y-052788D02*
G01X0034437Y-052844D01*
G01X0034437Y-052844D02*
G01X0034324Y-052844D01*
G01X0034324Y-052844D02*
G01X0034212Y-052788D01*
G01X0034212Y-052788D02*
G01X0034156Y-052731D01*
G01X0034156Y-052731D02*
G01X0034099Y-052619D01*
G01X0034099Y-052619D02*
G01X0034043Y-052394D01*
G01X0034043Y-052394D02*
G01X0034043Y-052113D01*
G01X0034043Y-052113D02*
G01X0034099Y-051888D01*
G01X0034099Y-051888D02*
G01X0034156Y-051775D01*
G01X0034156Y-051775D02*
G01X0034212Y-051719D01*
G01X0034212Y-051719D02*
G01X0034324Y-051663D01*
G01X0035168Y-051663D02*
G01X0035168Y-051888D01*
G01X0035618Y-051663D02*
G01X0035618Y-051888D01*
G01X0037361Y-053294D02*
G01X0037305Y-053238D01*
G01X0037305Y-053238D02*
G01X0037193Y-053069D01*
G01X0037193Y-053069D02*
G01X0037136Y-052956D01*
G01X0037136Y-052956D02*
G01X0037080Y-052788D01*
G01X0037080Y-052788D02*
G01X0037024Y-052506D01*
G01X0037024Y-052506D02*
G01X0037024Y-052281D01*
G01X0037024Y-052281D02*
G01X0037080Y-052000D01*
G01X0037080Y-052000D02*
G01X0037136Y-051831D01*
G01X0037136Y-051831D02*
G01X0037193Y-051719D01*
G01X0037193Y-051719D02*
G01X0037305Y-051550D01*
G01X0037305Y-051550D02*
G01X0037361Y-051494D01*
G01X0038430Y-052844D02*
G01X0037755Y-052844D01*
G01X0038093Y-052844D02*
G01X0038093Y-051663D01*
G01X0038093Y-051663D02*
G01X0037980Y-051831D01*
G01X0037980Y-051831D02*
G01X0037868Y-051944D01*
G01X0037868Y-051944D02*
G01X0037755Y-052000D01*
G01X0039442Y-051663D02*
G01X0039217Y-051663D01*
G01X0039217Y-051663D02*
G01X0039105Y-051719D01*
G01X0039105Y-051719D02*
G01X0039049Y-051775D01*
G01X0039049Y-051775D02*
G01X0038936Y-051944D01*
G01X0038936Y-051944D02*
G01X0038880Y-052169D01*
G01X0038880Y-052169D02*
G01X0038880Y-052619D01*
G01X0038880Y-052619D02*
G01X0038936Y-052731D01*
G01X0038936Y-052731D02*
G01X0038992Y-052788D01*
G01X0038992Y-052788D02*
G01X0039105Y-052844D01*
G01X0039105Y-052844D02*
G01X0039330Y-052844D01*
G01X0039330Y-052844D02*
G01X0039442Y-052788D01*
G01X0039442Y-052788D02*
G01X0039499Y-052731D01*
G01X0039499Y-052731D02*
G01X0039555Y-052619D01*
G01X0039555Y-052619D02*
G01X0039555Y-052338D01*
G01X0039555Y-052338D02*
G01X0039499Y-052225D01*
G01X0039499Y-052225D02*
G01X0039442Y-052169D01*
G01X0039442Y-052169D02*
G01X0039330Y-052113D01*
G01X0039330Y-052113D02*
G01X0039105Y-052113D01*
G01X0039105Y-052113D02*
G01X0038992Y-052169D01*
G01X0038992Y-052169D02*
G01X0038936Y-052225D01*
G01X0038936Y-052225D02*
G01X0038880Y-052338D01*
G01X0040961Y-052844D02*
G01X0040961Y-051663D01*
G01X0041467Y-052844D02*
G01X0041467Y-052225D01*
G01X0041467Y-052225D02*
G01X0041411Y-052113D01*
G01X0041411Y-052113D02*
G01X0041298Y-052056D01*
G01X0041298Y-052056D02*
G01X0041130Y-052056D01*
G01X0041130Y-052056D02*
G01X0041017Y-052113D01*
G01X0041017Y-052113D02*
G01X0040961Y-052169D01*
G01X0042198Y-052844D02*
G01X0042086Y-052788D01*
G01X0042086Y-052788D02*
G01X0042030Y-052731D01*
G01X0042030Y-052731D02*
G01X0041973Y-052619D01*
G01X0041973Y-052619D02*
G01X0041973Y-052281D01*
G01X0041973Y-052281D02*
G01X0042030Y-052169D01*
G01X0042030Y-052169D02*
G01X0042086Y-052113D01*
G01X0042086Y-052113D02*
G01X0042198Y-052056D01*
G01X0042198Y-052056D02*
G01X0042367Y-052056D01*
G01X0042367Y-052056D02*
G01X0042480Y-052113D01*
G01X0042480Y-052113D02*
G01X0042536Y-052169D01*
G01X0042536Y-052169D02*
G01X0042592Y-052281D01*
G01X0042592Y-052281D02*
G01X0042592Y-052619D01*
G01X0042592Y-052619D02*
G01X0042536Y-052731D01*
G01X0042536Y-052731D02*
G01X0042480Y-052788D01*
G01X0042480Y-052788D02*
G01X0042367Y-052844D01*
G01X0042367Y-052844D02*
G01X0042198Y-052844D01*
G01X0043267Y-052844D02*
G01X0043154Y-052788D01*
G01X0043154Y-052788D02*
G01X0043098Y-052675D01*
G01X0043098Y-052675D02*
G01X0043098Y-051663D01*
G01X0044167Y-052788D02*
G01X0044054Y-052844D01*
G01X0044054Y-052844D02*
G01X0043829Y-052844D01*
G01X0043829Y-052844D02*
G01X0043717Y-052788D01*
G01X0043717Y-052788D02*
G01X0043661Y-052675D01*
G01X0043661Y-052675D02*
G01X0043661Y-052225D01*
G01X0043661Y-052225D02*
G01X0043717Y-052113D01*
G01X0043717Y-052113D02*
G01X0043829Y-052056D01*
G01X0043829Y-052056D02*
G01X0044054Y-052056D01*
G01X0044054Y-052056D02*
G01X0044167Y-052113D01*
G01X0044167Y-052113D02*
G01X0044223Y-052225D01*
G01X0044223Y-052225D02*
G01X0044223Y-052338D01*
G01X0044223Y-052338D02*
G01X0043661Y-052450D01*
G01X0044673Y-052788D02*
G01X0044786Y-052844D01*
G01X0044786Y-052844D02*
G01X0045010Y-052844D01*
G01X0045010Y-052844D02*
G01X0045123Y-052788D01*
G01X0045123Y-052788D02*
G01X0045179Y-052675D01*
G01X0045179Y-052675D02*
G01X0045179Y-052619D01*
G01X0045179Y-052619D02*
G01X0045123Y-052506D01*
G01X0045123Y-052506D02*
G01X0045010Y-052450D01*
G01X0045010Y-052450D02*
G01X0044842Y-052450D01*
G01X0044842Y-052450D02*
G01X0044729Y-052394D01*
G01X0044729Y-052394D02*
G01X0044673Y-052281D01*
G01X0044673Y-052281D02*
G01X0044673Y-052225D01*
G01X0044673Y-052225D02*
G01X0044729Y-052113D01*
G01X0044729Y-052113D02*
G01X0044842Y-052056D01*
G01X0044842Y-052056D02*
G01X0045010Y-052056D01*
G01X0045010Y-052056D02*
G01X0045123Y-052113D01*
G01X0045573Y-053294D02*
G01X0045629Y-053238D01*
G01X0045629Y-053238D02*
G01X0045742Y-053069D01*
G01X0045742Y-053069D02*
G01X0045798Y-052956D01*
G01X0045798Y-052956D02*
G01X0045854Y-052788D01*
G01X0045854Y-052788D02*
G01X0045910Y-052506D01*
G01X0045910Y-052506D02*
G01X0045910Y-052281D01*
G01X0045910Y-052281D02*
G01X0045854Y-052000D01*
G01X0045854Y-052000D02*
G01X0045798Y-051831D01*
G01X0045798Y-051831D02*
G01X0045742Y-051719D01*
G01X0045742Y-051719D02*
G01X0045629Y-051550D01*
G01X0045629Y-051550D02*
G01X0045573Y-051494D01*
G01X0018970Y-053869D02*
G75*
G03X0018970Y-053869I-000157J0000000D01*
G01X0020264Y-053222D02*
G01X0020376Y-053222D01*
G01X0020376Y-053222D02*
G01X0020489Y-053278D01*
G01X0020489Y-053278D02*
G01X0020545Y-053334D01*
G01X0020545Y-053334D02*
G01X0020601Y-053447D01*
G01X0020601Y-053447D02*
G01X0020657Y-053672D01*
G01X0020657Y-053672D02*
G01X0020657Y-053953D01*
G01X0020657Y-053953D02*
G01X0020601Y-054178D01*
G01X0020601Y-054178D02*
G01X0020545Y-054290D01*
G01X0020545Y-054290D02*
G01X0020489Y-054347D01*
G01X0020489Y-054347D02*
G01X0020376Y-054403D01*
G01X0020376Y-054403D02*
G01X0020264Y-054403D01*
G01X0020264Y-054403D02*
G01X0020151Y-054347D01*
G01X0020151Y-054347D02*
G01X0020095Y-054290D01*
G01X0020095Y-054290D02*
G01X0020039Y-054178D01*
G01X0020039Y-054178D02*
G01X0019982Y-053953D01*
G01X0019982Y-053953D02*
G01X0019982Y-053672D01*
G01X0019982Y-053672D02*
G01X0020039Y-053447D01*
G01X0020039Y-053447D02*
G01X0020095Y-053334D01*
G01X0020095Y-053334D02*
G01X0020151Y-053278D01*
G01X0020151Y-053278D02*
G01X0020264Y-053222D01*
G01X0021163Y-054290D02*
G01X0021220Y-054347D01*
G01X0021220Y-054347D02*
G01X0021163Y-054403D01*
G01X0021163Y-054403D02*
G01X0021107Y-054347D01*
G01X0021107Y-054347D02*
G01X0021163Y-054290D01*
G01X0021163Y-054290D02*
G01X0021163Y-054403D01*
G01X0021895Y-053728D02*
G01X0021782Y-053672D01*
G01X0021782Y-053672D02*
G01X0021726Y-053615D01*
G01X0021726Y-053615D02*
G01X0021670Y-053503D01*
G01X0021670Y-053503D02*
G01X0021670Y-053447D01*
G01X0021670Y-053447D02*
G01X0021726Y-053334D01*
G01X0021726Y-053334D02*
G01X0021782Y-053278D01*
G01X0021782Y-053278D02*
G01X0021895Y-053222D01*
G01X0021895Y-053222D02*
G01X0022120Y-053222D01*
G01X0022120Y-053222D02*
G01X0022232Y-053278D01*
G01X0022232Y-053278D02*
G01X0022288Y-053334D01*
G01X0022288Y-053334D02*
G01X0022345Y-053447D01*
G01X0022345Y-053447D02*
G01X0022345Y-053503D01*
G01X0022345Y-053503D02*
G01X0022288Y-053615D01*
G01X0022288Y-053615D02*
G01X0022232Y-053672D01*
G01X0022232Y-053672D02*
G01X0022120Y-053728D01*
G01X0022120Y-053728D02*
G01X0021895Y-053728D01*
G01X0021895Y-053728D02*
G01X0021782Y-053784D01*
G01X0021782Y-053784D02*
G01X0021726Y-053840D01*
G01X0021726Y-053840D02*
G01X0021670Y-053953D01*
G01X0021670Y-053953D02*
G01X0021670Y-054178D01*
G01X0021670Y-054178D02*
G01X0021726Y-054290D01*
G01X0021726Y-054290D02*
G01X0021782Y-054347D01*
G01X0021782Y-054347D02*
G01X0021895Y-054403D01*
G01X0021895Y-054403D02*
G01X0022120Y-054403D01*
G01X0022120Y-054403D02*
G01X0022232Y-054347D01*
G01X0022232Y-054347D02*
G01X0022288Y-054290D01*
G01X0022288Y-054290D02*
G01X0022345Y-054178D01*
G01X0022345Y-054178D02*
G01X0022345Y-053953D01*
G01X0022345Y-053953D02*
G01X0022288Y-053840D01*
G01X0022288Y-053840D02*
G01X0022232Y-053784D01*
G01X0022232Y-053784D02*
G01X0022120Y-053728D01*
G01X0023076Y-053222D02*
G01X0023188Y-053222D01*
G01X0023188Y-053222D02*
G01X0023301Y-053278D01*
G01X0023301Y-053278D02*
G01X0023357Y-053334D01*
G01X0023357Y-053334D02*
G01X0023413Y-053447D01*
G01X0023413Y-053447D02*
G01X0023469Y-053672D01*
G01X0023469Y-053672D02*
G01X0023469Y-053953D01*
G01X0023469Y-053953D02*
G01X0023413Y-054178D01*
G01X0023413Y-054178D02*
G01X0023357Y-054290D01*
G01X0023357Y-054290D02*
G01X0023301Y-054347D01*
G01X0023301Y-054347D02*
G01X0023188Y-054403D01*
G01X0023188Y-054403D02*
G01X0023076Y-054403D01*
G01X0023076Y-054403D02*
G01X0022963Y-054347D01*
G01X0022963Y-054347D02*
G01X0022907Y-054290D01*
G01X0022907Y-054290D02*
G01X0022851Y-054178D01*
G01X0022851Y-054178D02*
G01X0022795Y-053953D01*
G01X0022795Y-053953D02*
G01X0022795Y-053672D01*
G01X0022795Y-053672D02*
G01X0022851Y-053447D01*
G01X0022851Y-053447D02*
G01X0022907Y-053334D01*
G01X0022907Y-053334D02*
G01X0022963Y-053278D01*
G01X0022963Y-053278D02*
G01X0023076Y-053222D01*
G01X0023976Y-054403D02*
G01X0023976Y-053615D01*
G01X0023976Y-053728D02*
G01X0024032Y-053672D01*
G01X0024032Y-053672D02*
G01X0024144Y-053615D01*
G01X0024144Y-053615D02*
G01X0024313Y-053615D01*
G01X0024313Y-053615D02*
G01X0024426Y-053672D01*
G01X0024426Y-053672D02*
G01X0024482Y-053784D01*
G01X0024482Y-053784D02*
G01X0024482Y-054403D01*
G01X0024482Y-053784D02*
G01X0024538Y-053672D01*
G01X0024538Y-053672D02*
G01X0024651Y-053615D01*
G01X0024651Y-053615D02*
G01X0024819Y-053615D01*
G01X0024819Y-053615D02*
G01X0024932Y-053672D01*
G01X0024932Y-053672D02*
G01X0024988Y-053784D01*
G01X0024988Y-053784D02*
G01X0024988Y-054403D01*
G01X0025550Y-054403D02*
G01X0025550Y-053615D01*
G01X0025550Y-053728D02*
G01X0025607Y-053672D01*
G01X0025607Y-053672D02*
G01X0025719Y-053615D01*
G01X0025719Y-053615D02*
G01X0025888Y-053615D01*
G01X0025888Y-053615D02*
G01X0026000Y-053672D01*
G01X0026000Y-053672D02*
G01X0026057Y-053784D01*
G01X0026057Y-053784D02*
G01X0026057Y-054403D01*
G01X0026057Y-053784D02*
G01X0026113Y-053672D01*
G01X0026113Y-053672D02*
G01X0026225Y-053615D01*
G01X0026225Y-053615D02*
G01X0026394Y-053615D01*
G01X0026394Y-053615D02*
G01X0026507Y-053672D01*
G01X0026507Y-053672D02*
G01X0026563Y-053784D01*
G01X0026563Y-053784D02*
G01X0026563Y-054403D01*
G01X0028869Y-053166D02*
G01X0027856Y-054684D01*
G01X0030387Y-053222D02*
G01X0030500Y-053222D01*
G01X0030500Y-053222D02*
G01X0030612Y-053278D01*
G01X0030612Y-053278D02*
G01X0030669Y-053334D01*
G01X0030669Y-053334D02*
G01X0030725Y-053447D01*
G01X0030725Y-053447D02*
G01X0030781Y-053672D01*
G01X0030781Y-053672D02*
G01X0030781Y-053953D01*
G01X0030781Y-053953D02*
G01X0030725Y-054178D01*
G01X0030725Y-054178D02*
G01X0030669Y-054290D01*
G01X0030669Y-054290D02*
G01X0030612Y-054347D01*
G01X0030612Y-054347D02*
G01X0030500Y-054403D01*
G01X0030500Y-054403D02*
G01X0030387Y-054403D01*
G01X0030387Y-054403D02*
G01X0030275Y-054347D01*
G01X0030275Y-054347D02*
G01X0030219Y-054290D01*
G01X0030219Y-054290D02*
G01X0030162Y-054178D01*
G01X0030162Y-054178D02*
G01X0030106Y-053953D01*
G01X0030106Y-053953D02*
G01X0030106Y-053672D01*
G01X0030106Y-053672D02*
G01X0030162Y-053447D01*
G01X0030162Y-053447D02*
G01X0030219Y-053334D01*
G01X0030219Y-053334D02*
G01X0030275Y-053278D01*
G01X0030275Y-053278D02*
G01X0030387Y-053222D01*
G01X0031287Y-054290D02*
G01X0031343Y-054347D01*
G01X0031343Y-054347D02*
G01X0031287Y-054403D01*
G01X0031287Y-054403D02*
G01X0031231Y-054347D01*
G01X0031231Y-054347D02*
G01X0031287Y-054290D01*
G01X0031287Y-054290D02*
G01X0031287Y-054403D01*
G01X0032075Y-053222D02*
G01X0032187Y-053222D01*
G01X0032187Y-053222D02*
G01X0032300Y-053278D01*
G01X0032300Y-053278D02*
G01X0032356Y-053334D01*
G01X0032356Y-053334D02*
G01X0032412Y-053447D01*
G01X0032412Y-053447D02*
G01X0032468Y-053672D01*
G01X0032468Y-053672D02*
G01X0032468Y-053953D01*
G01X0032468Y-053953D02*
G01X0032412Y-054178D01*
G01X0032412Y-054178D02*
G01X0032356Y-054290D01*
G01X0032356Y-054290D02*
G01X0032300Y-054347D01*
G01X0032300Y-054347D02*
G01X0032187Y-054403D01*
G01X0032187Y-054403D02*
G01X0032075Y-054403D01*
G01X0032075Y-054403D02*
G01X0031962Y-054347D01*
G01X0031962Y-054347D02*
G01X0031906Y-054290D01*
G01X0031906Y-054290D02*
G01X0031850Y-054178D01*
G01X0031850Y-054178D02*
G01X0031793Y-053953D01*
G01X0031793Y-053953D02*
G01X0031793Y-053672D01*
G01X0031793Y-053672D02*
G01X0031850Y-053447D01*
G01X0031850Y-053447D02*
G01X0031906Y-053334D01*
G01X0031906Y-053334D02*
G01X0031962Y-053278D01*
G01X0031962Y-053278D02*
G01X0032075Y-053222D01*
G01X0032862Y-053222D02*
G01X0033593Y-053222D01*
G01X0033593Y-053222D02*
G01X0033199Y-053672D01*
G01X0033199Y-053672D02*
G01X0033368Y-053672D01*
G01X0033368Y-053672D02*
G01X0033481Y-053728D01*
G01X0033481Y-053728D02*
G01X0033537Y-053784D01*
G01X0033537Y-053784D02*
G01X0033593Y-053897D01*
G01X0033593Y-053897D02*
G01X0033593Y-054178D01*
G01X0033593Y-054178D02*
G01X0033537Y-054290D01*
G01X0033537Y-054290D02*
G01X0033481Y-054347D01*
G01X0033481Y-054347D02*
G01X0033368Y-054403D01*
G01X0033368Y-054403D02*
G01X0033031Y-054403D01*
G01X0033031Y-054403D02*
G01X0032918Y-054347D01*
G01X0032918Y-054347D02*
G01X0032862Y-054290D01*
G01X0034718Y-054403D02*
G01X0034043Y-054403D01*
G01X0034381Y-054403D02*
G01X0034381Y-053222D01*
G01X0034381Y-053222D02*
G01X0034268Y-053391D01*
G01X0034268Y-053391D02*
G01X0034156Y-053503D01*
G01X0034156Y-053503D02*
G01X0034043Y-053559D01*
G01X0035168Y-053222D02*
G01X0035168Y-053447D01*
G01X0035618Y-053222D02*
G01X0035618Y-053447D01*
G01X0037361Y-054853D02*
G01X0037305Y-054797D01*
G01X0037305Y-054797D02*
G01X0037193Y-054628D01*
G01X0037193Y-054628D02*
G01X0037136Y-054515D01*
G01X0037136Y-054515D02*
G01X0037080Y-054347D01*
G01X0037080Y-054347D02*
G01X0037024Y-054065D01*
G01X0037024Y-054065D02*
G01X0037024Y-053840D01*
G01X0037024Y-053840D02*
G01X0037080Y-053559D01*
G01X0037080Y-053559D02*
G01X0037136Y-053391D01*
G01X0037136Y-053391D02*
G01X0037193Y-053278D01*
G01X0037193Y-053278D02*
G01X0037305Y-053109D01*
G01X0037305Y-053109D02*
G01X0037361Y-053053D01*
G01X0037755Y-053334D02*
G01X0037811Y-053278D01*
G01X0037811Y-053278D02*
G01X0037924Y-053222D01*
G01X0037924Y-053222D02*
G01X0038205Y-053222D01*
G01X0038205Y-053222D02*
G01X0038318Y-053278D01*
G01X0038318Y-053278D02*
G01X0038374Y-053334D01*
G01X0038374Y-053334D02*
G01X0038430Y-053447D01*
G01X0038430Y-053447D02*
G01X0038430Y-053559D01*
G01X0038430Y-053559D02*
G01X0038374Y-053728D01*
G01X0038374Y-053728D02*
G01X0037699Y-054403D01*
G01X0037699Y-054403D02*
G01X0038430Y-054403D01*
G01X0039836Y-054403D02*
G01X0039836Y-053222D01*
G01X0040342Y-054403D02*
G01X0040342Y-053784D01*
G01X0040342Y-053784D02*
G01X0040286Y-053672D01*
G01X0040286Y-053672D02*
G01X0040174Y-053615D01*
G01X0040174Y-053615D02*
G01X0040005Y-053615D01*
G01X0040005Y-053615D02*
G01X0039892Y-053672D01*
G01X0039892Y-053672D02*
G01X0039836Y-053728D01*
G01X0041073Y-054403D02*
G01X0040961Y-054347D01*
G01X0040961Y-054347D02*
G01X0040905Y-054290D01*
G01X0040905Y-054290D02*
G01X0040849Y-054178D01*
G01X0040849Y-054178D02*
G01X0040849Y-053840D01*
G01X0040849Y-053840D02*
G01X0040905Y-053728D01*
G01X0040905Y-053728D02*
G01X0040961Y-053672D01*
G01X0040961Y-053672D02*
G01X0041073Y-053615D01*
G01X0041073Y-053615D02*
G01X0041242Y-053615D01*
G01X0041242Y-053615D02*
G01X0041355Y-053672D01*
G01X0041355Y-053672D02*
G01X0041411Y-053728D01*
G01X0041411Y-053728D02*
G01X0041467Y-053840D01*
G01X0041467Y-053840D02*
G01X0041467Y-054178D01*
G01X0041467Y-054178D02*
G01X0041411Y-054290D01*
G01X0041411Y-054290D02*
G01X0041355Y-054347D01*
G01X0041355Y-054347D02*
G01X0041242Y-054403D01*
G01X0041242Y-054403D02*
G01X0041073Y-054403D01*
G01X0042142Y-054403D02*
G01X0042030Y-054347D01*
G01X0042030Y-054347D02*
G01X0041973Y-054234D01*
G01X0041973Y-054234D02*
G01X0041973Y-053222D01*
G01X0043042Y-054347D02*
G01X0042930Y-054403D01*
G01X0042930Y-054403D02*
G01X0042705Y-054403D01*
G01X0042705Y-054403D02*
G01X0042592Y-054347D01*
G01X0042592Y-054347D02*
G01X0042536Y-054234D01*
G01X0042536Y-054234D02*
G01X0042536Y-053784D01*
G01X0042536Y-053784D02*
G01X0042592Y-053672D01*
G01X0042592Y-053672D02*
G01X0042705Y-053615D01*
G01X0042705Y-053615D02*
G01X0042930Y-053615D01*
G01X0042930Y-053615D02*
G01X0043042Y-053672D01*
G01X0043042Y-053672D02*
G01X0043098Y-053784D01*
G01X0043098Y-053784D02*
G01X0043098Y-053897D01*
G01X0043098Y-053897D02*
G01X0042536Y-054009D01*
G01X0043548Y-054347D02*
G01X0043661Y-054403D01*
G01X0043661Y-054403D02*
G01X0043886Y-054403D01*
G01X0043886Y-054403D02*
G01X0043998Y-054347D01*
G01X0043998Y-054347D02*
G01X0044054Y-054234D01*
G01X0044054Y-054234D02*
G01X0044054Y-054178D01*
G01X0044054Y-054178D02*
G01X0043998Y-054065D01*
G01X0043998Y-054065D02*
G01X0043886Y-054009D01*
G01X0043886Y-054009D02*
G01X0043717Y-054009D01*
G01X0043717Y-054009D02*
G01X0043604Y-053953D01*
G01X0043604Y-053953D02*
G01X0043548Y-053840D01*
G01X0043548Y-053840D02*
G01X0043548Y-053784D01*
G01X0043548Y-053784D02*
G01X0043604Y-053672D01*
G01X0043604Y-053672D02*
G01X0043717Y-053615D01*
G01X0043717Y-053615D02*
G01X0043886Y-053615D01*
G01X0043886Y-053615D02*
G01X0043998Y-053672D01*
G01X0044448Y-054853D02*
G01X0044504Y-054797D01*
G01X0044504Y-054797D02*
G01X0044617Y-054628D01*
G01X0044617Y-054628D02*
G01X0044673Y-054515D01*
G01X0044673Y-054515D02*
G01X0044729Y-054347D01*
G01X0044729Y-054347D02*
G01X0044786Y-054065D01*
G01X0044786Y-054065D02*
G01X0044786Y-053840D01*
G01X0044786Y-053840D02*
G01X0044729Y-053559D01*
G01X0044729Y-053559D02*
G01X0044673Y-053391D01*
G01X0044673Y-053391D02*
G01X0044617Y-053278D01*
G01X0044617Y-053278D02*
G01X0044504Y-053109D01*
G01X0044504Y-053109D02*
G01X0044448Y-053053D01*
G01X0018770Y-055228D02*
G01X0018770Y-055628D01*
G01X0018570Y-055428D02*
G01X0018970Y-055428D01*
G01X0020657Y-055962D02*
G01X0019982Y-055962D01*
G01X0020320Y-055962D02*
G01X0020320Y-054781D01*
G01X0020320Y-054781D02*
G01X0020207Y-054950D01*
G01X0020207Y-054950D02*
G01X0020095Y-055062D01*
G01X0020095Y-055062D02*
G01X0019982Y-055118D01*
G01X0021163Y-055849D02*
G01X0021220Y-055906D01*
G01X0021220Y-055906D02*
G01X0021163Y-055962D01*
G01X0021163Y-055962D02*
G01X0021107Y-055906D01*
G01X0021107Y-055906D02*
G01X0021163Y-055849D01*
G01X0021163Y-055849D02*
G01X0021163Y-055962D01*
G01X0021951Y-054781D02*
G01X0022063Y-054781D01*
G01X0022063Y-054781D02*
G01X0022176Y-054837D01*
G01X0022176Y-054837D02*
G01X0022232Y-054893D01*
G01X0022232Y-054893D02*
G01X0022288Y-055006D01*
G01X0022288Y-055006D02*
G01X0022345Y-055231D01*
G01X0022345Y-055231D02*
G01X0022345Y-055512D01*
G01X0022345Y-055512D02*
G01X0022288Y-055737D01*
G01X0022288Y-055737D02*
G01X0022232Y-055849D01*
G01X0022232Y-055849D02*
G01X0022176Y-055906D01*
G01X0022176Y-055906D02*
G01X0022063Y-055962D01*
G01X0022063Y-055962D02*
G01X0021951Y-055962D01*
G01X0021951Y-055962D02*
G01X0021838Y-055906D01*
G01X0021838Y-055906D02*
G01X0021782Y-055849D01*
G01X0021782Y-055849D02*
G01X0021726Y-055737D01*
G01X0021726Y-055737D02*
G01X0021670Y-055512D01*
G01X0021670Y-055512D02*
G01X0021670Y-055231D01*
G01X0021670Y-055231D02*
G01X0021726Y-055006D01*
G01X0021726Y-055006D02*
G01X0021782Y-054893D01*
G01X0021782Y-054893D02*
G01X0021838Y-054837D01*
G01X0021838Y-054837D02*
G01X0021951Y-054781D01*
G01X0022795Y-054893D02*
G01X0022851Y-054837D01*
G01X0022851Y-054837D02*
G01X0022963Y-054781D01*
G01X0022963Y-054781D02*
G01X0023244Y-054781D01*
G01X0023244Y-054781D02*
G01X0023357Y-054837D01*
G01X0023357Y-054837D02*
G01X0023413Y-054893D01*
G01X0023413Y-054893D02*
G01X0023469Y-055006D01*
G01X0023469Y-055006D02*
G01X0023469Y-055118D01*
G01X0023469Y-055118D02*
G01X0023413Y-055287D01*
G01X0023413Y-055287D02*
G01X0022738Y-055962D01*
G01X0022738Y-055962D02*
G01X0023469Y-055962D01*
G01X0023976Y-055962D02*
G01X0023976Y-055175D01*
G01X0023976Y-055287D02*
G01X0024032Y-055231D01*
G01X0024032Y-055231D02*
G01X0024144Y-055175D01*
G01X0024144Y-055175D02*
G01X0024313Y-055175D01*
G01X0024313Y-055175D02*
G01X0024426Y-055231D01*
G01X0024426Y-055231D02*
G01X0024482Y-055343D01*
G01X0024482Y-055343D02*
G01X0024482Y-055962D01*
G01X0024482Y-055343D02*
G01X0024538Y-055231D01*
G01X0024538Y-055231D02*
G01X0024651Y-055175D01*
G01X0024651Y-055175D02*
G01X0024819Y-055175D01*
G01X0024819Y-055175D02*
G01X0024932Y-055231D01*
G01X0024932Y-055231D02*
G01X0024988Y-055343D01*
G01X0024988Y-055343D02*
G01X0024988Y-055962D01*
G01X0025550Y-055962D02*
G01X0025550Y-055175D01*
G01X0025550Y-055287D02*
G01X0025607Y-055231D01*
G01X0025607Y-055231D02*
G01X0025719Y-055175D01*
G01X0025719Y-055175D02*
G01X0025888Y-055175D01*
G01X0025888Y-055175D02*
G01X0026000Y-055231D01*
G01X0026000Y-055231D02*
G01X0026057Y-055343D01*
G01X0026057Y-055343D02*
G01X0026057Y-055962D01*
G01X0026057Y-055343D02*
G01X0026113Y-055231D01*
G01X0026113Y-055231D02*
G01X0026225Y-055175D01*
G01X0026225Y-055175D02*
G01X0026394Y-055175D01*
G01X0026394Y-055175D02*
G01X0026507Y-055231D01*
G01X0026507Y-055231D02*
G01X0026563Y-055343D01*
G01X0026563Y-055343D02*
G01X0026563Y-055962D01*
G01X0028869Y-054725D02*
G01X0027856Y-056243D01*
G01X0030387Y-054781D02*
G01X0030500Y-054781D01*
G01X0030500Y-054781D02*
G01X0030612Y-054837D01*
G01X0030612Y-054837D02*
G01X0030669Y-054893D01*
G01X0030669Y-054893D02*
G01X0030725Y-055006D01*
G01X0030725Y-055006D02*
G01X0030781Y-055231D01*
G01X0030781Y-055231D02*
G01X0030781Y-055512D01*
G01X0030781Y-055512D02*
G01X0030725Y-055737D01*
G01X0030725Y-055737D02*
G01X0030669Y-055849D01*
G01X0030669Y-055849D02*
G01X0030612Y-055906D01*
G01X0030612Y-055906D02*
G01X0030500Y-055962D01*
G01X0030500Y-055962D02*
G01X0030387Y-055962D01*
G01X0030387Y-055962D02*
G01X0030275Y-055906D01*
G01X0030275Y-055906D02*
G01X0030219Y-055849D01*
G01X0030219Y-055849D02*
G01X0030162Y-055737D01*
G01X0030162Y-055737D02*
G01X0030106Y-055512D01*
G01X0030106Y-055512D02*
G01X0030106Y-055231D01*
G01X0030106Y-055231D02*
G01X0030162Y-055006D01*
G01X0030162Y-055006D02*
G01X0030219Y-054893D01*
G01X0030219Y-054893D02*
G01X0030275Y-054837D01*
G01X0030275Y-054837D02*
G01X0030387Y-054781D01*
G01X0031287Y-055849D02*
G01X0031343Y-055906D01*
G01X0031343Y-055906D02*
G01X0031287Y-055962D01*
G01X0031287Y-055962D02*
G01X0031231Y-055906D01*
G01X0031231Y-055906D02*
G01X0031287Y-055849D01*
G01X0031287Y-055849D02*
G01X0031287Y-055962D01*
G01X0032075Y-054781D02*
G01X0032187Y-054781D01*
G01X0032187Y-054781D02*
G01X0032300Y-054837D01*
G01X0032300Y-054837D02*
G01X0032356Y-054893D01*
G01X0032356Y-054893D02*
G01X0032412Y-055006D01*
G01X0032412Y-055006D02*
G01X0032468Y-055231D01*
G01X0032468Y-055231D02*
G01X0032468Y-055512D01*
G01X0032468Y-055512D02*
G01X0032412Y-055737D01*
G01X0032412Y-055737D02*
G01X0032356Y-055849D01*
G01X0032356Y-055849D02*
G01X0032300Y-055906D01*
G01X0032300Y-055906D02*
G01X0032187Y-055962D01*
G01X0032187Y-055962D02*
G01X0032075Y-055962D01*
G01X0032075Y-055962D02*
G01X0031962Y-055906D01*
G01X0031962Y-055906D02*
G01X0031906Y-055849D01*
G01X0031906Y-055849D02*
G01X0031850Y-055737D01*
G01X0031850Y-055737D02*
G01X0031793Y-055512D01*
G01X0031793Y-055512D02*
G01X0031793Y-055231D01*
G01X0031793Y-055231D02*
G01X0031850Y-055006D01*
G01X0031850Y-055006D02*
G01X0031906Y-054893D01*
G01X0031906Y-054893D02*
G01X0031962Y-054837D01*
G01X0031962Y-054837D02*
G01X0032075Y-054781D01*
G01X0033481Y-055175D02*
G01X0033481Y-055962D01*
G01X0033199Y-054725D02*
G01X0032918Y-055568D01*
G01X0032918Y-055568D02*
G01X0033649Y-055568D01*
G01X0034324Y-054781D02*
G01X0034437Y-054781D01*
G01X0034437Y-054781D02*
G01X0034549Y-054837D01*
G01X0034549Y-054837D02*
G01X0034606Y-054893D01*
G01X0034606Y-054893D02*
G01X0034662Y-055006D01*
G01X0034662Y-055006D02*
G01X0034718Y-055231D01*
G01X0034718Y-055231D02*
G01X0034718Y-055512D01*
G01X0034718Y-055512D02*
G01X0034662Y-055737D01*
G01X0034662Y-055737D02*
G01X0034606Y-055849D01*
G01X0034606Y-055849D02*
G01X0034549Y-055906D01*
G01X0034549Y-055906D02*
G01X0034437Y-055962D01*
G01X0034437Y-055962D02*
G01X0034324Y-055962D01*
G01X0034324Y-055962D02*
G01X0034212Y-055906D01*
G01X0034212Y-055906D02*
G01X0034156Y-055849D01*
G01X0034156Y-055849D02*
G01X0034099Y-055737D01*
G01X0034099Y-055737D02*
G01X0034043Y-055512D01*
G01X0034043Y-055512D02*
G01X0034043Y-055231D01*
G01X0034043Y-055231D02*
G01X0034099Y-055006D01*
G01X0034099Y-055006D02*
G01X0034156Y-054893D01*
G01X0034156Y-054893D02*
G01X0034212Y-054837D01*
G01X0034212Y-054837D02*
G01X0034324Y-054781D01*
G01X0035168Y-054781D02*
G01X0035168Y-055006D01*
G01X0035618Y-054781D02*
G01X0035618Y-055006D01*
G01X0037361Y-056412D02*
G01X0037305Y-056356D01*
G01X0037305Y-056356D02*
G01X0037193Y-056187D01*
G01X0037193Y-056187D02*
G01X0037136Y-056074D01*
G01X0037136Y-056074D02*
G01X0037080Y-055906D01*
G01X0037080Y-055906D02*
G01X0037024Y-055624D01*
G01X0037024Y-055624D02*
G01X0037024Y-055400D01*
G01X0037024Y-055400D02*
G01X0037080Y-055118D01*
G01X0037080Y-055118D02*
G01X0037136Y-054950D01*
G01X0037136Y-054950D02*
G01X0037193Y-054837D01*
G01X0037193Y-054837D02*
G01X0037305Y-054668D01*
G01X0037305Y-054668D02*
G01X0037361Y-054612D01*
G01X0037755Y-054893D02*
G01X0037811Y-054837D01*
G01X0037811Y-054837D02*
G01X0037924Y-054781D01*
G01X0037924Y-054781D02*
G01X0038205Y-054781D01*
G01X0038205Y-054781D02*
G01X0038318Y-054837D01*
G01X0038318Y-054837D02*
G01X0038374Y-054893D01*
G01X0038374Y-054893D02*
G01X0038430Y-055006D01*
G01X0038430Y-055006D02*
G01X0038430Y-055118D01*
G01X0038430Y-055118D02*
G01X0038374Y-055287D01*
G01X0038374Y-055287D02*
G01X0037699Y-055962D01*
G01X0037699Y-055962D02*
G01X0038430Y-055962D01*
G01X0039442Y-054781D02*
G01X0039217Y-054781D01*
G01X0039217Y-054781D02*
G01X0039105Y-054837D01*
G01X0039105Y-054837D02*
G01X0039049Y-054893D01*
G01X0039049Y-054893D02*
G01X0038936Y-055062D01*
G01X0038936Y-055062D02*
G01X0038880Y-055287D01*
G01X0038880Y-055287D02*
G01X0038880Y-055737D01*
G01X0038880Y-055737D02*
G01X0038936Y-055849D01*
G01X0038936Y-055849D02*
G01X0038992Y-055906D01*
G01X0038992Y-055906D02*
G01X0039105Y-055962D01*
G01X0039105Y-055962D02*
G01X0039330Y-055962D01*
G01X0039330Y-055962D02*
G01X0039442Y-055906D01*
G01X0039442Y-055906D02*
G01X0039499Y-055849D01*
G01X0039499Y-055849D02*
G01X0039555Y-055737D01*
G01X0039555Y-055737D02*
G01X0039555Y-055456D01*
G01X0039555Y-055456D02*
G01X0039499Y-055343D01*
G01X0039499Y-055343D02*
G01X0039442Y-055287D01*
G01X0039442Y-055287D02*
G01X0039330Y-055231D01*
G01X0039330Y-055231D02*
G01X0039105Y-055231D01*
G01X0039105Y-055231D02*
G01X0038992Y-055287D01*
G01X0038992Y-055287D02*
G01X0038936Y-055343D01*
G01X0038936Y-055343D02*
G01X0038880Y-055456D01*
G01X0040961Y-055962D02*
G01X0040961Y-054781D01*
G01X0041467Y-055962D02*
G01X0041467Y-055343D01*
G01X0041467Y-055343D02*
G01X0041411Y-055231D01*
G01X0041411Y-055231D02*
G01X0041298Y-055175D01*
G01X0041298Y-055175D02*
G01X0041130Y-055175D01*
G01X0041130Y-055175D02*
G01X0041017Y-055231D01*
G01X0041017Y-055231D02*
G01X0040961Y-055287D01*
G01X0042198Y-055962D02*
G01X0042086Y-055906D01*
G01X0042086Y-055906D02*
G01X0042030Y-055849D01*
G01X0042030Y-055849D02*
G01X0041973Y-055737D01*
G01X0041973Y-055737D02*
G01X0041973Y-055400D01*
G01X0041973Y-055400D02*
G01X0042030Y-055287D01*
G01X0042030Y-055287D02*
G01X0042086Y-055231D01*
G01X0042086Y-055231D02*
G01X0042198Y-055175D01*
G01X0042198Y-055175D02*
G01X0042367Y-055175D01*
G01X0042367Y-055175D02*
G01X0042480Y-055231D01*
G01X0042480Y-055231D02*
G01X0042536Y-055287D01*
G01X0042536Y-055287D02*
G01X0042592Y-055400D01*
G01X0042592Y-055400D02*
G01X0042592Y-055737D01*
G01X0042592Y-055737D02*
G01X0042536Y-055849D01*
G01X0042536Y-055849D02*
G01X0042480Y-055906D01*
G01X0042480Y-055906D02*
G01X0042367Y-055962D01*
G01X0042367Y-055962D02*
G01X0042198Y-055962D01*
G01X0043267Y-055962D02*
G01X0043154Y-055906D01*
G01X0043154Y-055906D02*
G01X0043098Y-055793D01*
G01X0043098Y-055793D02*
G01X0043098Y-054781D01*
G01X0044167Y-055906D02*
G01X0044054Y-055962D01*
G01X0044054Y-055962D02*
G01X0043829Y-055962D01*
G01X0043829Y-055962D02*
G01X0043717Y-055906D01*
G01X0043717Y-055906D02*
G01X0043661Y-055793D01*
G01X0043661Y-055793D02*
G01X0043661Y-055343D01*
G01X0043661Y-055343D02*
G01X0043717Y-055231D01*
G01X0043717Y-055231D02*
G01X0043829Y-055175D01*
G01X0043829Y-055175D02*
G01X0044054Y-055175D01*
G01X0044054Y-055175D02*
G01X0044167Y-055231D01*
G01X0044167Y-055231D02*
G01X0044223Y-055343D01*
G01X0044223Y-055343D02*
G01X0044223Y-055456D01*
G01X0044223Y-055456D02*
G01X0043661Y-055568D01*
G01X0044673Y-055906D02*
G01X0044786Y-055962D01*
G01X0044786Y-055962D02*
G01X0045010Y-055962D01*
G01X0045010Y-055962D02*
G01X0045123Y-055906D01*
G01X0045123Y-055906D02*
G01X0045179Y-055793D01*
G01X0045179Y-055793D02*
G01X0045179Y-055737D01*
G01X0045179Y-055737D02*
G01X0045123Y-055624D01*
G01X0045123Y-055624D02*
G01X0045010Y-055568D01*
G01X0045010Y-055568D02*
G01X0044842Y-055568D01*
G01X0044842Y-055568D02*
G01X0044729Y-055512D01*
G01X0044729Y-055512D02*
G01X0044673Y-055400D01*
G01X0044673Y-055400D02*
G01X0044673Y-055343D01*
G01X0044673Y-055343D02*
G01X0044729Y-055231D01*
G01X0044729Y-055231D02*
G01X0044842Y-055175D01*
G01X0044842Y-055175D02*
G01X0045010Y-055175D01*
G01X0045010Y-055175D02*
G01X0045123Y-055231D01*
G01X0045573Y-056412D02*
G01X0045629Y-056356D01*
G01X0045629Y-056356D02*
G01X0045742Y-056187D01*
G01X0045742Y-056187D02*
G01X0045798Y-056074D01*
G01X0045798Y-056074D02*
G01X0045854Y-055906D01*
G01X0045854Y-055906D02*
G01X0045910Y-055624D01*
G01X0045910Y-055624D02*
G01X0045910Y-055400D01*
G01X0045910Y-055400D02*
G01X0045854Y-055118D01*
G01X0045854Y-055118D02*
G01X0045798Y-054950D01*
G01X0045798Y-054950D02*
G01X0045742Y-054837D01*
G01X0045742Y-054837D02*
G01X0045629Y-054668D01*
G01X0045629Y-054668D02*
G01X0045573Y-054612D01*
G01X0018901Y-057154D02*
G01X0018901Y-056820D01*
G01X0018901Y-056820D02*
G01X0018567Y-056820D01*
G01X0018567Y-056820D02*
G01X0018567Y-057154D01*
G01X0018567Y-057154D02*
G01X0018901Y-057154D01*
G01X0020657Y-057521D02*
G01X0019982Y-057521D01*
G01X0020320Y-057521D02*
G01X0020320Y-056340D01*
G01X0020320Y-056340D02*
G01X0020207Y-056509D01*
G01X0020207Y-056509D02*
G01X0020095Y-056621D01*
G01X0020095Y-056621D02*
G01X0019982Y-056677D01*
G01X0021163Y-057409D02*
G01X0021220Y-057465D01*
G01X0021220Y-057465D02*
G01X0021163Y-057521D01*
G01X0021163Y-057521D02*
G01X0021107Y-057465D01*
G01X0021107Y-057465D02*
G01X0021163Y-057409D01*
G01X0021163Y-057409D02*
G01X0021163Y-057521D01*
G01X0021670Y-056452D02*
G01X0021726Y-056396D01*
G01X0021726Y-056396D02*
G01X0021838Y-056340D01*
G01X0021838Y-056340D02*
G01X0022120Y-056340D01*
G01X0022120Y-056340D02*
G01X0022232Y-056396D01*
G01X0022232Y-056396D02*
G01X0022288Y-056452D01*
G01X0022288Y-056452D02*
G01X0022345Y-056565D01*
G01X0022345Y-056565D02*
G01X0022345Y-056677D01*
G01X0022345Y-056677D02*
G01X0022288Y-056846D01*
G01X0022288Y-056846D02*
G01X0021613Y-057521D01*
G01X0021613Y-057521D02*
G01X0022345Y-057521D01*
G01X0023076Y-056340D02*
G01X0023188Y-056340D01*
G01X0023188Y-056340D02*
G01X0023301Y-056396D01*
G01X0023301Y-056396D02*
G01X0023357Y-056452D01*
G01X0023357Y-056452D02*
G01X0023413Y-056565D01*
G01X0023413Y-056565D02*
G01X0023469Y-056790D01*
G01X0023469Y-056790D02*
G01X0023469Y-057071D01*
G01X0023469Y-057071D02*
G01X0023413Y-057296D01*
G01X0023413Y-057296D02*
G01X0023357Y-057409D01*
G01X0023357Y-057409D02*
G01X0023301Y-057465D01*
G01X0023301Y-057465D02*
G01X0023188Y-057521D01*
G01X0023188Y-057521D02*
G01X0023076Y-057521D01*
G01X0023076Y-057521D02*
G01X0022963Y-057465D01*
G01X0022963Y-057465D02*
G01X0022907Y-057409D01*
G01X0022907Y-057409D02*
G01X0022851Y-057296D01*
G01X0022851Y-057296D02*
G01X0022795Y-057071D01*
G01X0022795Y-057071D02*
G01X0022795Y-056790D01*
G01X0022795Y-056790D02*
G01X0022851Y-056565D01*
G01X0022851Y-056565D02*
G01X0022907Y-056452D01*
G01X0022907Y-056452D02*
G01X0022963Y-056396D01*
G01X0022963Y-056396D02*
G01X0023076Y-056340D01*
G01X0023976Y-057521D02*
G01X0023976Y-056734D01*
G01X0023976Y-056846D02*
G01X0024032Y-056790D01*
G01X0024032Y-056790D02*
G01X0024144Y-056734D01*
G01X0024144Y-056734D02*
G01X0024313Y-056734D01*
G01X0024313Y-056734D02*
G01X0024426Y-056790D01*
G01X0024426Y-056790D02*
G01X0024482Y-056902D01*
G01X0024482Y-056902D02*
G01X0024482Y-057521D01*
G01X0024482Y-056902D02*
G01X0024538Y-056790D01*
G01X0024538Y-056790D02*
G01X0024651Y-056734D01*
G01X0024651Y-056734D02*
G01X0024819Y-056734D01*
G01X0024819Y-056734D02*
G01X0024932Y-056790D01*
G01X0024932Y-056790D02*
G01X0024988Y-056902D01*
G01X0024988Y-056902D02*
G01X0024988Y-057521D01*
G01X0025550Y-057521D02*
G01X0025550Y-056734D01*
G01X0025550Y-056846D02*
G01X0025607Y-056790D01*
G01X0025607Y-056790D02*
G01X0025719Y-056734D01*
G01X0025719Y-056734D02*
G01X0025888Y-056734D01*
G01X0025888Y-056734D02*
G01X0026000Y-056790D01*
G01X0026000Y-056790D02*
G01X0026057Y-056902D01*
G01X0026057Y-056902D02*
G01X0026057Y-057521D01*
G01X0026057Y-056902D02*
G01X0026113Y-056790D01*
G01X0026113Y-056790D02*
G01X0026225Y-056734D01*
G01X0026225Y-056734D02*
G01X0026394Y-056734D01*
G01X0026394Y-056734D02*
G01X0026507Y-056790D01*
G01X0026507Y-056790D02*
G01X0026563Y-056902D01*
G01X0026563Y-056902D02*
G01X0026563Y-057521D01*
G01X0028869Y-056284D02*
G01X0027856Y-057802D01*
G01X0030387Y-056340D02*
G01X0030500Y-056340D01*
G01X0030500Y-056340D02*
G01X0030612Y-056396D01*
G01X0030612Y-056396D02*
G01X0030669Y-056452D01*
G01X0030669Y-056452D02*
G01X0030725Y-056565D01*
G01X0030725Y-056565D02*
G01X0030781Y-056790D01*
G01X0030781Y-056790D02*
G01X0030781Y-057071D01*
G01X0030781Y-057071D02*
G01X0030725Y-057296D01*
G01X0030725Y-057296D02*
G01X0030669Y-057409D01*
G01X0030669Y-057409D02*
G01X0030612Y-057465D01*
G01X0030612Y-057465D02*
G01X0030500Y-057521D01*
G01X0030500Y-057521D02*
G01X0030387Y-057521D01*
G01X0030387Y-057521D02*
G01X0030275Y-057465D01*
G01X0030275Y-057465D02*
G01X0030219Y-057409D01*
G01X0030219Y-057409D02*
G01X0030162Y-057296D01*
G01X0030162Y-057296D02*
G01X0030106Y-057071D01*
G01X0030106Y-057071D02*
G01X0030106Y-056790D01*
G01X0030106Y-056790D02*
G01X0030162Y-056565D01*
G01X0030162Y-056565D02*
G01X0030219Y-056452D01*
G01X0030219Y-056452D02*
G01X0030275Y-056396D01*
G01X0030275Y-056396D02*
G01X0030387Y-056340D01*
G01X0031287Y-057409D02*
G01X0031343Y-057465D01*
G01X0031343Y-057465D02*
G01X0031287Y-057521D01*
G01X0031287Y-057521D02*
G01X0031231Y-057465D01*
G01X0031231Y-057465D02*
G01X0031287Y-057409D01*
G01X0031287Y-057409D02*
G01X0031287Y-057521D01*
G01X0032075Y-056340D02*
G01X0032187Y-056340D01*
G01X0032187Y-056340D02*
G01X0032300Y-056396D01*
G01X0032300Y-056396D02*
G01X0032356Y-056452D01*
G01X0032356Y-056452D02*
G01X0032412Y-056565D01*
G01X0032412Y-056565D02*
G01X0032468Y-056790D01*
G01X0032468Y-056790D02*
G01X0032468Y-057071D01*
G01X0032468Y-057071D02*
G01X0032412Y-057296D01*
G01X0032412Y-057296D02*
G01X0032356Y-057409D01*
G01X0032356Y-057409D02*
G01X0032300Y-057465D01*
G01X0032300Y-057465D02*
G01X0032187Y-057521D01*
G01X0032187Y-057521D02*
G01X0032075Y-057521D01*
G01X0032075Y-057521D02*
G01X0031962Y-057465D01*
G01X0031962Y-057465D02*
G01X0031906Y-057409D01*
G01X0031906Y-057409D02*
G01X0031850Y-057296D01*
G01X0031850Y-057296D02*
G01X0031793Y-057071D01*
G01X0031793Y-057071D02*
G01X0031793Y-056790D01*
G01X0031793Y-056790D02*
G01X0031850Y-056565D01*
G01X0031850Y-056565D02*
G01X0031906Y-056452D01*
G01X0031906Y-056452D02*
G01X0031962Y-056396D01*
G01X0031962Y-056396D02*
G01X0032075Y-056340D01*
G01X0033481Y-056734D02*
G01X0033481Y-057521D01*
G01X0033199Y-056284D02*
G01X0032918Y-057127D01*
G01X0032918Y-057127D02*
G01X0033649Y-057127D01*
G01X0033987Y-056340D02*
G01X0034774Y-056340D01*
G01X0034774Y-056340D02*
G01X0034268Y-057521D01*
G01X0035168Y-056340D02*
G01X0035168Y-056565D01*
G01X0035618Y-056340D02*
G01X0035618Y-056565D01*
G01X0037361Y-057971D02*
G01X0037305Y-057915D01*
G01X0037305Y-057915D02*
G01X0037193Y-057746D01*
G01X0037193Y-057746D02*
G01X0037136Y-057633D01*
G01X0037136Y-057633D02*
G01X0037080Y-057465D01*
G01X0037080Y-057465D02*
G01X0037024Y-057184D01*
G01X0037024Y-057184D02*
G01X0037024Y-056959D01*
G01X0037024Y-056959D02*
G01X0037080Y-056677D01*
G01X0037080Y-056677D02*
G01X0037136Y-056509D01*
G01X0037136Y-056509D02*
G01X0037193Y-056396D01*
G01X0037193Y-056396D02*
G01X0037305Y-056227D01*
G01X0037305Y-056227D02*
G01X0037361Y-056171D01*
G01X0037755Y-056452D02*
G01X0037811Y-056396D01*
G01X0037811Y-056396D02*
G01X0037924Y-056340D01*
G01X0037924Y-056340D02*
G01X0038205Y-056340D01*
G01X0038205Y-056340D02*
G01X0038318Y-056396D01*
G01X0038318Y-056396D02*
G01X0038374Y-056452D01*
G01X0038374Y-056452D02*
G01X0038430Y-056565D01*
G01X0038430Y-056565D02*
G01X0038430Y-056677D01*
G01X0038430Y-056677D02*
G01X0038374Y-056846D01*
G01X0038374Y-056846D02*
G01X0037699Y-057521D01*
G01X0037699Y-057521D02*
G01X0038430Y-057521D01*
G01X0039836Y-057521D02*
G01X0039836Y-056340D01*
G01X0040342Y-057521D02*
G01X0040342Y-056902D01*
G01X0040342Y-056902D02*
G01X0040286Y-056790D01*
G01X0040286Y-056790D02*
G01X0040174Y-056734D01*
G01X0040174Y-056734D02*
G01X0040005Y-056734D01*
G01X0040005Y-056734D02*
G01X0039892Y-056790D01*
G01X0039892Y-056790D02*
G01X0039836Y-056846D01*
G01X0041073Y-057521D02*
G01X0040961Y-057465D01*
G01X0040961Y-057465D02*
G01X0040905Y-057409D01*
G01X0040905Y-057409D02*
G01X0040849Y-057296D01*
G01X0040849Y-057296D02*
G01X0040849Y-056959D01*
G01X0040849Y-056959D02*
G01X0040905Y-056846D01*
G01X0040905Y-056846D02*
G01X0040961Y-056790D01*
G01X0040961Y-056790D02*
G01X0041073Y-056734D01*
G01X0041073Y-056734D02*
G01X0041242Y-056734D01*
G01X0041242Y-056734D02*
G01X0041355Y-056790D01*
G01X0041355Y-056790D02*
G01X0041411Y-056846D01*
G01X0041411Y-056846D02*
G01X0041467Y-056959D01*
G01X0041467Y-056959D02*
G01X0041467Y-057296D01*
G01X0041467Y-057296D02*
G01X0041411Y-057409D01*
G01X0041411Y-057409D02*
G01X0041355Y-057465D01*
G01X0041355Y-057465D02*
G01X0041242Y-057521D01*
G01X0041242Y-057521D02*
G01X0041073Y-057521D01*
G01X0042142Y-057521D02*
G01X0042030Y-057465D01*
G01X0042030Y-057465D02*
G01X0041973Y-057352D01*
G01X0041973Y-057352D02*
G01X0041973Y-056340D01*
G01X0043042Y-057465D02*
G01X0042930Y-057521D01*
G01X0042930Y-057521D02*
G01X0042705Y-057521D01*
G01X0042705Y-057521D02*
G01X0042592Y-057465D01*
G01X0042592Y-057465D02*
G01X0042536Y-057352D01*
G01X0042536Y-057352D02*
G01X0042536Y-056902D01*
G01X0042536Y-056902D02*
G01X0042592Y-056790D01*
G01X0042592Y-056790D02*
G01X0042705Y-056734D01*
G01X0042705Y-056734D02*
G01X0042930Y-056734D01*
G01X0042930Y-056734D02*
G01X0043042Y-056790D01*
G01X0043042Y-056790D02*
G01X0043098Y-056902D01*
G01X0043098Y-056902D02*
G01X0043098Y-057015D01*
G01X0043098Y-057015D02*
G01X0042536Y-057127D01*
G01X0043548Y-057465D02*
G01X0043661Y-057521D01*
G01X0043661Y-057521D02*
G01X0043886Y-057521D01*
G01X0043886Y-057521D02*
G01X0043998Y-057465D01*
G01X0043998Y-057465D02*
G01X0044054Y-057352D01*
G01X0044054Y-057352D02*
G01X0044054Y-057296D01*
G01X0044054Y-057296D02*
G01X0043998Y-057184D01*
G01X0043998Y-057184D02*
G01X0043886Y-057127D01*
G01X0043886Y-057127D02*
G01X0043717Y-057127D01*
G01X0043717Y-057127D02*
G01X0043604Y-057071D01*
G01X0043604Y-057071D02*
G01X0043548Y-056959D01*
G01X0043548Y-056959D02*
G01X0043548Y-056902D01*
G01X0043548Y-056902D02*
G01X0043604Y-056790D01*
G01X0043604Y-056790D02*
G01X0043717Y-056734D01*
G01X0043717Y-056734D02*
G01X0043886Y-056734D01*
G01X0043886Y-056734D02*
G01X0043998Y-056790D01*
G01X0044448Y-057971D02*
G01X0044504Y-057915D01*
G01X0044504Y-057915D02*
G01X0044617Y-057746D01*
G01X0044617Y-057746D02*
G01X0044673Y-057633D01*
G01X0044673Y-057633D02*
G01X0044729Y-057465D01*
G01X0044729Y-057465D02*
G01X0044786Y-057184D01*
G01X0044786Y-057184D02*
G01X0044786Y-056959D01*
G01X0044786Y-056959D02*
G01X0044729Y-056677D01*
G01X0044729Y-056677D02*
G01X0044673Y-056509D01*
G01X0044673Y-056509D02*
G01X0044617Y-056396D01*
G01X0044617Y-056396D02*
G01X0044504Y-056227D01*
G01X0044504Y-056227D02*
G01X0044448Y-056171D01*
G01X0018380Y-059136D02*
G01X0018970Y-058546D01*
G01X0018970Y-058546D02*
G01X0018380Y-057955D01*
G01X0018380Y-057955D02*
G01X0017789Y-058546D01*
G01X0017789Y-058546D02*
G01X0018380Y-059136D01*
G01X0019926Y-057899D02*
G01X0020657Y-057899D01*
G01X0020657Y-057899D02*
G01X0020264Y-058349D01*
G01X0020264Y-058349D02*
G01X0020432Y-058349D01*
G01X0020432Y-058349D02*
G01X0020545Y-058405D01*
G01X0020545Y-058405D02*
G01X0020601Y-058461D01*
G01X0020601Y-058461D02*
G01X0020657Y-058574D01*
G01X0020657Y-058574D02*
G01X0020657Y-058855D01*
G01X0020657Y-058855D02*
G01X0020601Y-058968D01*
G01X0020601Y-058968D02*
G01X0020545Y-059024D01*
G01X0020545Y-059024D02*
G01X0020432Y-059080D01*
G01X0020432Y-059080D02*
G01X0020095Y-059080D01*
G01X0020095Y-059080D02*
G01X0019982Y-059024D01*
G01X0019982Y-059024D02*
G01X0019926Y-058968D01*
G01X0021163Y-058968D02*
G01X0021220Y-059024D01*
G01X0021220Y-059024D02*
G01X0021163Y-059080D01*
G01X0021163Y-059080D02*
G01X0021107Y-059024D01*
G01X0021107Y-059024D02*
G01X0021163Y-058968D01*
G01X0021163Y-058968D02*
G01X0021163Y-059080D01*
G01X0021951Y-057899D02*
G01X0022063Y-057899D01*
G01X0022063Y-057899D02*
G01X0022176Y-057955D01*
G01X0022176Y-057955D02*
G01X0022232Y-058011D01*
G01X0022232Y-058011D02*
G01X0022288Y-058124D01*
G01X0022288Y-058124D02*
G01X0022345Y-058349D01*
G01X0022345Y-058349D02*
G01X0022345Y-058630D01*
G01X0022345Y-058630D02*
G01X0022288Y-058855D01*
G01X0022288Y-058855D02*
G01X0022232Y-058968D01*
G01X0022232Y-058968D02*
G01X0022176Y-059024D01*
G01X0022176Y-059024D02*
G01X0022063Y-059080D01*
G01X0022063Y-059080D02*
G01X0021951Y-059080D01*
G01X0021951Y-059080D02*
G01X0021838Y-059024D01*
G01X0021838Y-059024D02*
G01X0021782Y-058968D01*
G01X0021782Y-058968D02*
G01X0021726Y-058855D01*
G01X0021726Y-058855D02*
G01X0021670Y-058630D01*
G01X0021670Y-058630D02*
G01X0021670Y-058349D01*
G01X0021670Y-058349D02*
G01X0021726Y-058124D01*
G01X0021726Y-058124D02*
G01X0021782Y-058011D01*
G01X0021782Y-058011D02*
G01X0021838Y-057955D01*
G01X0021838Y-057955D02*
G01X0021951Y-057899D01*
G01X0023076Y-057899D02*
G01X0023188Y-057899D01*
G01X0023188Y-057899D02*
G01X0023301Y-057955D01*
G01X0023301Y-057955D02*
G01X0023357Y-058011D01*
G01X0023357Y-058011D02*
G01X0023413Y-058124D01*
G01X0023413Y-058124D02*
G01X0023469Y-058349D01*
G01X0023469Y-058349D02*
G01X0023469Y-058630D01*
G01X0023469Y-058630D02*
G01X0023413Y-058855D01*
G01X0023413Y-058855D02*
G01X0023357Y-058968D01*
G01X0023357Y-058968D02*
G01X0023301Y-059024D01*
G01X0023301Y-059024D02*
G01X0023188Y-059080D01*
G01X0023188Y-059080D02*
G01X0023076Y-059080D01*
G01X0023076Y-059080D02*
G01X0022963Y-059024D01*
G01X0022963Y-059024D02*
G01X0022907Y-058968D01*
G01X0022907Y-058968D02*
G01X0022851Y-058855D01*
G01X0022851Y-058855D02*
G01X0022795Y-058630D01*
G01X0022795Y-058630D02*
G01X0022795Y-058349D01*
G01X0022795Y-058349D02*
G01X0022851Y-058124D01*
G01X0022851Y-058124D02*
G01X0022907Y-058011D01*
G01X0022907Y-058011D02*
G01X0022963Y-057955D01*
G01X0022963Y-057955D02*
G01X0023076Y-057899D01*
G01X0023976Y-059080D02*
G01X0023976Y-058293D01*
G01X0023976Y-058405D02*
G01X0024032Y-058349D01*
G01X0024032Y-058349D02*
G01X0024144Y-058293D01*
G01X0024144Y-058293D02*
G01X0024313Y-058293D01*
G01X0024313Y-058293D02*
G01X0024426Y-058349D01*
G01X0024426Y-058349D02*
G01X0024482Y-058461D01*
G01X0024482Y-058461D02*
G01X0024482Y-059080D01*
G01X0024482Y-058461D02*
G01X0024538Y-058349D01*
G01X0024538Y-058349D02*
G01X0024651Y-058293D01*
G01X0024651Y-058293D02*
G01X0024819Y-058293D01*
G01X0024819Y-058293D02*
G01X0024932Y-058349D01*
G01X0024932Y-058349D02*
G01X0024988Y-058461D01*
G01X0024988Y-058461D02*
G01X0024988Y-059080D01*
G01X0025550Y-059080D02*
G01X0025550Y-058293D01*
G01X0025550Y-058405D02*
G01X0025607Y-058349D01*
G01X0025607Y-058349D02*
G01X0025719Y-058293D01*
G01X0025719Y-058293D02*
G01X0025888Y-058293D01*
G01X0025888Y-058293D02*
G01X0026000Y-058349D01*
G01X0026000Y-058349D02*
G01X0026057Y-058461D01*
G01X0026057Y-058461D02*
G01X0026057Y-059080D01*
G01X0026057Y-058461D02*
G01X0026113Y-058349D01*
G01X0026113Y-058349D02*
G01X0026225Y-058293D01*
G01X0026225Y-058293D02*
G01X0026394Y-058293D01*
G01X0026394Y-058293D02*
G01X0026507Y-058349D01*
G01X0026507Y-058349D02*
G01X0026563Y-058461D01*
G01X0026563Y-058461D02*
G01X0026563Y-059080D01*
G01X0028869Y-057843D02*
G01X0027856Y-059361D01*
G01X0030387Y-057899D02*
G01X0030500Y-057899D01*
G01X0030500Y-057899D02*
G01X0030612Y-057955D01*
G01X0030612Y-057955D02*
G01X0030669Y-058011D01*
G01X0030669Y-058011D02*
G01X0030725Y-058124D01*
G01X0030725Y-058124D02*
G01X0030781Y-058349D01*
G01X0030781Y-058349D02*
G01X0030781Y-058630D01*
G01X0030781Y-058630D02*
G01X0030725Y-058855D01*
G01X0030725Y-058855D02*
G01X0030669Y-058968D01*
G01X0030669Y-058968D02*
G01X0030612Y-059024D01*
G01X0030612Y-059024D02*
G01X0030500Y-059080D01*
G01X0030500Y-059080D02*
G01X0030387Y-059080D01*
G01X0030387Y-059080D02*
G01X0030275Y-059024D01*
G01X0030275Y-059024D02*
G01X0030219Y-058968D01*
G01X0030219Y-058968D02*
G01X0030162Y-058855D01*
G01X0030162Y-058855D02*
G01X0030106Y-058630D01*
G01X0030106Y-058630D02*
G01X0030106Y-058349D01*
G01X0030106Y-058349D02*
G01X0030162Y-058124D01*
G01X0030162Y-058124D02*
G01X0030219Y-058011D01*
G01X0030219Y-058011D02*
G01X0030275Y-057955D01*
G01X0030275Y-057955D02*
G01X0030387Y-057899D01*
G01X0031287Y-058968D02*
G01X0031343Y-059024D01*
G01X0031343Y-059024D02*
G01X0031287Y-059080D01*
G01X0031287Y-059080D02*
G01X0031231Y-059024D01*
G01X0031231Y-059024D02*
G01X0031287Y-058968D01*
G01X0031287Y-058968D02*
G01X0031287Y-059080D01*
G01X0032468Y-059080D02*
G01X0031793Y-059080D01*
G01X0032131Y-059080D02*
G01X0032131Y-057899D01*
G01X0032131Y-057899D02*
G01X0032018Y-058068D01*
G01X0032018Y-058068D02*
G01X0031906Y-058180D01*
G01X0031906Y-058180D02*
G01X0031793Y-058236D01*
G01X0033593Y-059080D02*
G01X0032918Y-059080D01*
G01X0033256Y-059080D02*
G01X0033256Y-057899D01*
G01X0033256Y-057899D02*
G01X0033143Y-058068D01*
G01X0033143Y-058068D02*
G01X0033031Y-058180D01*
G01X0033031Y-058180D02*
G01X0032918Y-058236D01*
G01X0034268Y-058405D02*
G01X0034156Y-058349D01*
G01X0034156Y-058349D02*
G01X0034099Y-058293D01*
G01X0034099Y-058293D02*
G01X0034043Y-058180D01*
G01X0034043Y-058180D02*
G01X0034043Y-058124D01*
G01X0034043Y-058124D02*
G01X0034099Y-058011D01*
G01X0034099Y-058011D02*
G01X0034156Y-057955D01*
G01X0034156Y-057955D02*
G01X0034268Y-057899D01*
G01X0034268Y-057899D02*
G01X0034493Y-057899D01*
G01X0034493Y-057899D02*
G01X0034606Y-057955D01*
G01X0034606Y-057955D02*
G01X0034662Y-058011D01*
G01X0034662Y-058011D02*
G01X0034718Y-058124D01*
G01X0034718Y-058124D02*
G01X0034718Y-058180D01*
G01X0034718Y-058180D02*
G01X0034662Y-058293D01*
G01X0034662Y-058293D02*
G01X0034606Y-058349D01*
G01X0034606Y-058349D02*
G01X0034493Y-058405D01*
G01X0034493Y-058405D02*
G01X0034268Y-058405D01*
G01X0034268Y-058405D02*
G01X0034156Y-058461D01*
G01X0034156Y-058461D02*
G01X0034099Y-058518D01*
G01X0034099Y-058518D02*
G01X0034043Y-058630D01*
G01X0034043Y-058630D02*
G01X0034043Y-058855D01*
G01X0034043Y-058855D02*
G01X0034099Y-058968D01*
G01X0034099Y-058968D02*
G01X0034156Y-059024D01*
G01X0034156Y-059024D02*
G01X0034268Y-059080D01*
G01X0034268Y-059080D02*
G01X0034493Y-059080D01*
G01X0034493Y-059080D02*
G01X0034606Y-059024D01*
G01X0034606Y-059024D02*
G01X0034662Y-058968D01*
G01X0034662Y-058968D02*
G01X0034718Y-058855D01*
G01X0034718Y-058855D02*
G01X0034718Y-058630D01*
G01X0034718Y-058630D02*
G01X0034662Y-058518D01*
G01X0034662Y-058518D02*
G01X0034606Y-058461D01*
G01X0034606Y-058461D02*
G01X0034493Y-058405D01*
G01X0035168Y-057899D02*
G01X0035168Y-058124D01*
G01X0035618Y-057899D02*
G01X0035618Y-058124D01*
G01X0037361Y-059530D02*
G01X0037305Y-059474D01*
G01X0037305Y-059474D02*
G01X0037193Y-059305D01*
G01X0037193Y-059305D02*
G01X0037136Y-059193D01*
G01X0037136Y-059193D02*
G01X0037080Y-059024D01*
G01X0037080Y-059024D02*
G01X0037024Y-058743D01*
G01X0037024Y-058743D02*
G01X0037024Y-058518D01*
G01X0037024Y-058518D02*
G01X0037080Y-058236D01*
G01X0037080Y-058236D02*
G01X0037136Y-058068D01*
G01X0037136Y-058068D02*
G01X0037193Y-057955D01*
G01X0037193Y-057955D02*
G01X0037305Y-057786D01*
G01X0037305Y-057786D02*
G01X0037361Y-057730D01*
G01X0037699Y-057899D02*
G01X0038430Y-057899D01*
G01X0038430Y-057899D02*
G01X0038036Y-058349D01*
G01X0038036Y-058349D02*
G01X0038205Y-058349D01*
G01X0038205Y-058349D02*
G01X0038318Y-058405D01*
G01X0038318Y-058405D02*
G01X0038374Y-058461D01*
G01X0038374Y-058461D02*
G01X0038430Y-058574D01*
G01X0038430Y-058574D02*
G01X0038430Y-058855D01*
G01X0038430Y-058855D02*
G01X0038374Y-058968D01*
G01X0038374Y-058968D02*
G01X0038318Y-059024D01*
G01X0038318Y-059024D02*
G01X0038205Y-059080D01*
G01X0038205Y-059080D02*
G01X0037868Y-059080D01*
G01X0037868Y-059080D02*
G01X0037755Y-059024D01*
G01X0037755Y-059024D02*
G01X0037699Y-058968D01*
G01X0039836Y-059080D02*
G01X0039836Y-057899D01*
G01X0040342Y-059080D02*
G01X0040342Y-058461D01*
G01X0040342Y-058461D02*
G01X0040286Y-058349D01*
G01X0040286Y-058349D02*
G01X0040174Y-058293D01*
G01X0040174Y-058293D02*
G01X0040005Y-058293D01*
G01X0040005Y-058293D02*
G01X0039892Y-058349D01*
G01X0039892Y-058349D02*
G01X0039836Y-058405D01*
G01X0041073Y-059080D02*
G01X0040961Y-059024D01*
G01X0040961Y-059024D02*
G01X0040905Y-058968D01*
G01X0040905Y-058968D02*
G01X0040849Y-058855D01*
G01X0040849Y-058855D02*
G01X0040849Y-058518D01*
G01X0040849Y-058518D02*
G01X0040905Y-058405D01*
G01X0040905Y-058405D02*
G01X0040961Y-058349D01*
G01X0040961Y-058349D02*
G01X0041073Y-058293D01*
G01X0041073Y-058293D02*
G01X0041242Y-058293D01*
G01X0041242Y-058293D02*
G01X0041355Y-058349D01*
G01X0041355Y-058349D02*
G01X0041411Y-058405D01*
G01X0041411Y-058405D02*
G01X0041467Y-058518D01*
G01X0041467Y-058518D02*
G01X0041467Y-058855D01*
G01X0041467Y-058855D02*
G01X0041411Y-058968D01*
G01X0041411Y-058968D02*
G01X0041355Y-059024D01*
G01X0041355Y-059024D02*
G01X0041242Y-059080D01*
G01X0041242Y-059080D02*
G01X0041073Y-059080D01*
G01X0042142Y-059080D02*
G01X0042030Y-059024D01*
G01X0042030Y-059024D02*
G01X0041973Y-058911D01*
G01X0041973Y-058911D02*
G01X0041973Y-057899D01*
G01X0043042Y-059024D02*
G01X0042930Y-059080D01*
G01X0042930Y-059080D02*
G01X0042705Y-059080D01*
G01X0042705Y-059080D02*
G01X0042592Y-059024D01*
G01X0042592Y-059024D02*
G01X0042536Y-058911D01*
G01X0042536Y-058911D02*
G01X0042536Y-058461D01*
G01X0042536Y-058461D02*
G01X0042592Y-058349D01*
G01X0042592Y-058349D02*
G01X0042705Y-058293D01*
G01X0042705Y-058293D02*
G01X0042930Y-058293D01*
G01X0042930Y-058293D02*
G01X0043042Y-058349D01*
G01X0043042Y-058349D02*
G01X0043098Y-058461D01*
G01X0043098Y-058461D02*
G01X0043098Y-058574D01*
G01X0043098Y-058574D02*
G01X0042536Y-058686D01*
G01X0043548Y-059024D02*
G01X0043661Y-059080D01*
G01X0043661Y-059080D02*
G01X0043886Y-059080D01*
G01X0043886Y-059080D02*
G01X0043998Y-059024D01*
G01X0043998Y-059024D02*
G01X0044054Y-058911D01*
G01X0044054Y-058911D02*
G01X0044054Y-058855D01*
G01X0044054Y-058855D02*
G01X0043998Y-058743D01*
G01X0043998Y-058743D02*
G01X0043886Y-058686D01*
G01X0043886Y-058686D02*
G01X0043717Y-058686D01*
G01X0043717Y-058686D02*
G01X0043604Y-058630D01*
G01X0043604Y-058630D02*
G01X0043548Y-058518D01*
G01X0043548Y-058518D02*
G01X0043548Y-058461D01*
G01X0043548Y-058461D02*
G01X0043604Y-058349D01*
G01X0043604Y-058349D02*
G01X0043717Y-058293D01*
G01X0043717Y-058293D02*
G01X0043886Y-058293D01*
G01X0043886Y-058293D02*
G01X0043998Y-058349D01*
G01X0044448Y-059530D02*
G01X0044504Y-059474D01*
G01X0044504Y-059474D02*
G01X0044617Y-059305D01*
G01X0044617Y-059305D02*
G01X0044673Y-059193D01*
G01X0044673Y-059193D02*
G01X0044729Y-059024D01*
G01X0044729Y-059024D02*
G01X0044786Y-058743D01*
G01X0044786Y-058743D02*
G01X0044786Y-058518D01*
G01X0044786Y-058518D02*
G01X0044729Y-058236D01*
G01X0044729Y-058236D02*
G01X0044673Y-058068D01*
G01X0044673Y-058068D02*
G01X0044617Y-057955D01*
G01X0044617Y-057955D02*
G01X0044504Y-057786D01*
G01X0044504Y-057786D02*
G01X0044448Y-057730D01*
G01X0000000Y0000000D02*
G54D11*
G01X0046500Y-048500D02*
G01X0046500Y-006500D01*
G01X0019000Y-048500D02*
G01X0046500Y-048500D01*
G01X0019000Y-006500D02*
G01X0019000Y-048500D01*
G01X0046500Y-006500D02*
G01X0019000Y-006500D01*
G01X0000000Y0000000D02*
G54D15*
G01X0046700Y-030300D02*
G75*
G03X0046700Y-030300I-000500J0000000D01*
G01X0045050Y-031100D02*
G01X0045050Y-029500D01*
G01X0047350Y-031100D02*
G01X0045050Y-031100D01*
G01X0047350Y-029500D02*
G01X0047350Y-031100D01*
G01X0045050Y-029500D02*
G01X0047350Y-029500D01*
G01X0047450Y-037000D02*
G01X0041200Y-037000D01*
G01X0068250Y-040250D02*
G01X0068250Y-037250D01*
G01X0070250Y-040250D02*
G01X0068250Y-040250D01*
G01X0070250Y-037250D02*
G01X0070250Y-040250D01*
G01X0068250Y-037250D02*
G01X0070250Y-037250D01*
G01X0042950Y-048500D02*
G01X0042950Y-045000D01*
G01X0048200Y-048500D02*
G01X0042950Y-048500D01*
G01X0048200Y-045000D02*
G01X0048200Y-048500D01*
G01X0042950Y-045000D02*
G01X0048200Y-045000D01*
G01X0041200Y-037000D02*
G01X0041200Y-032500D01*
G01X0047450Y-032500D02*
G01X0047450Y-037000D01*
G01X0041200Y-032500D02*
G01X0047450Y-032500D01*
M02*
