%TF.GenerationSoftware,KiCad,Pcbnew,4.0.5-e0-6337~49~ubuntu16.04.1*%
%TF.CreationDate,2017-07-27T13:02:09-07:00*%
%TF.ProjectId,mcphail-main-board,6D63706861696C2D6D61696E2D626F61,1.0*%
%TF.FileFunction,Soldermask,Bot*%
%FSLAX46Y46*%
G04 Gerber Fmt 4.6, Leading zero omitted, Abs format (unit mm)*
G04 Created by KiCad (PCBNEW 4.0.5-e0-6337~49~ubuntu16.04.1) date Thu Jul 27 13:02:09 2017*
%MOMM*%
%LPD*%
G01*
G04 APERTURE LIST*
%ADD10C,0.350000*%
G04 APERTURE END LIST*
D10*
G36*
X65692077Y-108984581D02*
X66090917Y-109066452D01*
X66466274Y-109224237D01*
X66803827Y-109451920D01*
X67090729Y-109740831D01*
X67316048Y-110079965D01*
X67471206Y-110456407D01*
X67550223Y-110855470D01*
X67550223Y-110855480D01*
X67550290Y-110855819D01*
X67543796Y-111320877D01*
X67543720Y-111321211D01*
X67543720Y-111321224D01*
X67453591Y-111717926D01*
X67287985Y-112089885D01*
X67053280Y-112422598D01*
X66758423Y-112703387D01*
X66414644Y-112921557D01*
X66035032Y-113068798D01*
X65634058Y-113139501D01*
X65226981Y-113130973D01*
X64829313Y-113043540D01*
X64456202Y-112880532D01*
X64121864Y-112648161D01*
X63839023Y-112355271D01*
X63618459Y-112013021D01*
X63468569Y-111634445D01*
X63395070Y-111233976D01*
X63400754Y-110826850D01*
X63485409Y-110428581D01*
X63645807Y-110054344D01*
X63875842Y-109718386D01*
X64166749Y-109433509D01*
X64507451Y-109210560D01*
X64884968Y-109058033D01*
X65284917Y-108981739D01*
X65692077Y-108984581D01*
X65692077Y-108984581D01*
G37*
G36*
X62692337Y-104285581D02*
X63091177Y-104367452D01*
X63466534Y-104525237D01*
X63804087Y-104752920D01*
X64090989Y-105041831D01*
X64316308Y-105380965D01*
X64471466Y-105757407D01*
X64550483Y-106156470D01*
X64550483Y-106156480D01*
X64550550Y-106156819D01*
X64544056Y-106621877D01*
X64543980Y-106622211D01*
X64543980Y-106622224D01*
X64453851Y-107018926D01*
X64288245Y-107390885D01*
X64053540Y-107723598D01*
X63758683Y-108004387D01*
X63414904Y-108222557D01*
X63035292Y-108369798D01*
X62634318Y-108440501D01*
X62227241Y-108431973D01*
X61829573Y-108344540D01*
X61456462Y-108181532D01*
X61122124Y-107949161D01*
X60839283Y-107656271D01*
X60618719Y-107314021D01*
X60468829Y-106935445D01*
X60395330Y-106534976D01*
X60401014Y-106127850D01*
X60485669Y-105729581D01*
X60646067Y-105355344D01*
X60876102Y-105019386D01*
X61167009Y-104734509D01*
X61507711Y-104511560D01*
X61885228Y-104359033D01*
X62285177Y-104282739D01*
X62692337Y-104285581D01*
X62692337Y-104285581D01*
G37*
G36*
X68691817Y-104285581D02*
X69090657Y-104367452D01*
X69466014Y-104525237D01*
X69803567Y-104752920D01*
X70090469Y-105041831D01*
X70315788Y-105380965D01*
X70470946Y-105757407D01*
X70549963Y-106156470D01*
X70549963Y-106156480D01*
X70550030Y-106156819D01*
X70543536Y-106621877D01*
X70543460Y-106622211D01*
X70543460Y-106622224D01*
X70453331Y-107018926D01*
X70287725Y-107390885D01*
X70053020Y-107723598D01*
X69758163Y-108004387D01*
X69414384Y-108222557D01*
X69034772Y-108369798D01*
X68633798Y-108440501D01*
X68226721Y-108431973D01*
X67829053Y-108344540D01*
X67455942Y-108181532D01*
X67121604Y-107949161D01*
X66838763Y-107656271D01*
X66618199Y-107314021D01*
X66468309Y-106935445D01*
X66394810Y-106534976D01*
X66400494Y-106127850D01*
X66485149Y-105729581D01*
X66645547Y-105355344D01*
X66875582Y-105019386D01*
X67166489Y-104734509D01*
X67507191Y-104511560D01*
X67884708Y-104359033D01*
X68284657Y-104282739D01*
X68691817Y-104285581D01*
X68691817Y-104285581D01*
G37*
G36*
X74277715Y-103432224D02*
X74458248Y-103469283D01*
X74628158Y-103540706D01*
X74780949Y-103643766D01*
X74910821Y-103774546D01*
X75012810Y-103928053D01*
X75083043Y-104098451D01*
X75118772Y-104278899D01*
X75118772Y-104278904D01*
X75118840Y-104279248D01*
X75115901Y-104489758D01*
X75115824Y-104490096D01*
X75115824Y-104490106D01*
X75075070Y-104669486D01*
X75000108Y-104837852D01*
X74893868Y-104988456D01*
X74760399Y-105115557D01*
X74604784Y-105214314D01*
X74432954Y-105280962D01*
X74251452Y-105312966D01*
X74067186Y-105309106D01*
X73887179Y-105269529D01*
X73718288Y-105195743D01*
X73566950Y-105090560D01*
X73438921Y-104957982D01*
X73339081Y-104803061D01*
X73271232Y-104631693D01*
X73237963Y-104450423D01*
X73240535Y-104266136D01*
X73278856Y-104085856D01*
X73351459Y-103916457D01*
X73455587Y-103764384D01*
X73587266Y-103635433D01*
X73741487Y-103534514D01*
X73912372Y-103465472D01*
X74093409Y-103430938D01*
X74277715Y-103432224D01*
X74277715Y-103432224D01*
G37*
G36*
X57170157Y-79596842D02*
X57179296Y-79596906D01*
X57391128Y-79620667D01*
X57594310Y-79685120D01*
X57781104Y-79787811D01*
X57944394Y-79924828D01*
X58077961Y-80090951D01*
X58176717Y-80279855D01*
X58236901Y-80484342D01*
X58236905Y-80484383D01*
X58236906Y-80484387D01*
X58256221Y-80696623D01*
X58233945Y-80908570D01*
X58233943Y-80908575D01*
X58233939Y-80908617D01*
X58170906Y-81112245D01*
X58069522Y-81299750D01*
X57933648Y-81463993D01*
X57768461Y-81598717D01*
X57580252Y-81698789D01*
X57376190Y-81760399D01*
X57164047Y-81781200D01*
X57153441Y-81781200D01*
X57147367Y-81781158D01*
X57138228Y-81781094D01*
X56926396Y-81757333D01*
X56723214Y-81692880D01*
X56536420Y-81590189D01*
X56373130Y-81453172D01*
X56239563Y-81287049D01*
X56140807Y-81098145D01*
X56080623Y-80893658D01*
X56080619Y-80893617D01*
X56080618Y-80893613D01*
X56061303Y-80681377D01*
X56083579Y-80469430D01*
X56083581Y-80469425D01*
X56083585Y-80469383D01*
X56146618Y-80265755D01*
X56248002Y-80078250D01*
X56383876Y-79914007D01*
X56549063Y-79779283D01*
X56737272Y-79679211D01*
X56941334Y-79617601D01*
X57153477Y-79596800D01*
X57164083Y-79596800D01*
X57170157Y-79596842D01*
X57170157Y-79596842D01*
G37*
G36*
X58250962Y-79241200D02*
X56066562Y-79241200D01*
X56066562Y-77056800D01*
X58250962Y-77056800D01*
X58250962Y-79241200D01*
X58250962Y-79241200D01*
G37*
G36*
X53827749Y-71059278D02*
X53827754Y-71059279D01*
X53829807Y-71059293D01*
X54012080Y-71079738D01*
X54186912Y-71135198D01*
X54347641Y-71223559D01*
X54488146Y-71341457D01*
X54603076Y-71484401D01*
X54688052Y-71646946D01*
X54739839Y-71822900D01*
X54739843Y-71822941D01*
X54739844Y-71822945D01*
X54756463Y-72005559D01*
X54738648Y-72175057D01*
X54737290Y-72187974D01*
X54683052Y-72363188D01*
X54595815Y-72524530D01*
X54478900Y-72665856D01*
X54336762Y-72781780D01*
X54174815Y-72867889D01*
X53999226Y-72920903D01*
X53816685Y-72938801D01*
X53501283Y-72938801D01*
X53490251Y-72938724D01*
X53490246Y-72938723D01*
X53488193Y-72938709D01*
X53305920Y-72918264D01*
X53131088Y-72862804D01*
X52970359Y-72774443D01*
X52829854Y-72656545D01*
X52714924Y-72513601D01*
X52629948Y-72351056D01*
X52578161Y-72175102D01*
X52578157Y-72175061D01*
X52578156Y-72175057D01*
X52561537Y-71992443D01*
X52580705Y-71810075D01*
X52580710Y-71810028D01*
X52634948Y-71634814D01*
X52722185Y-71473472D01*
X52839100Y-71332146D01*
X52981238Y-71216222D01*
X53143185Y-71130113D01*
X53318774Y-71077099D01*
X53501315Y-71059201D01*
X53816717Y-71059201D01*
X53827749Y-71059278D01*
X53827749Y-71059278D01*
G37*
G36*
X53827749Y-68519278D02*
X53827754Y-68519279D01*
X53829807Y-68519293D01*
X54012080Y-68539738D01*
X54186912Y-68595198D01*
X54347641Y-68683559D01*
X54488146Y-68801457D01*
X54603076Y-68944401D01*
X54688052Y-69106946D01*
X54739839Y-69282900D01*
X54739843Y-69282941D01*
X54739844Y-69282945D01*
X54756463Y-69465559D01*
X54738648Y-69635057D01*
X54737290Y-69647974D01*
X54683052Y-69823188D01*
X54595815Y-69984530D01*
X54478900Y-70125856D01*
X54336762Y-70241780D01*
X54174815Y-70327889D01*
X53999226Y-70380903D01*
X53816685Y-70398801D01*
X53501283Y-70398801D01*
X53490251Y-70398724D01*
X53490246Y-70398723D01*
X53488193Y-70398709D01*
X53305920Y-70378264D01*
X53131088Y-70322804D01*
X52970359Y-70234443D01*
X52829854Y-70116545D01*
X52714924Y-69973601D01*
X52629948Y-69811056D01*
X52578161Y-69635102D01*
X52578157Y-69635061D01*
X52578156Y-69635057D01*
X52561537Y-69452443D01*
X52580705Y-69270075D01*
X52580710Y-69270028D01*
X52634948Y-69094814D01*
X52722185Y-68933472D01*
X52839100Y-68792146D01*
X52981238Y-68676222D01*
X53143185Y-68590113D01*
X53318774Y-68537099D01*
X53501315Y-68519201D01*
X53816717Y-68519201D01*
X53827749Y-68519278D01*
X53827749Y-68519278D01*
G37*
G36*
X53827749Y-65979278D02*
X53827754Y-65979279D01*
X53829807Y-65979293D01*
X54012080Y-65999738D01*
X54186912Y-66055198D01*
X54347641Y-66143559D01*
X54488146Y-66261457D01*
X54603076Y-66404401D01*
X54688052Y-66566946D01*
X54739839Y-66742900D01*
X54739843Y-66742941D01*
X54739844Y-66742945D01*
X54756463Y-66925559D01*
X54738648Y-67095057D01*
X54737290Y-67107974D01*
X54683052Y-67283188D01*
X54595815Y-67444530D01*
X54478900Y-67585856D01*
X54336762Y-67701780D01*
X54174815Y-67787889D01*
X53999226Y-67840903D01*
X53816685Y-67858801D01*
X53501283Y-67858801D01*
X53490251Y-67858724D01*
X53490246Y-67858723D01*
X53488193Y-67858709D01*
X53305920Y-67838264D01*
X53131088Y-67782804D01*
X52970359Y-67694443D01*
X52829854Y-67576545D01*
X52714924Y-67433601D01*
X52629948Y-67271056D01*
X52578161Y-67095102D01*
X52578157Y-67095061D01*
X52578156Y-67095057D01*
X52561537Y-66912443D01*
X52580705Y-66730075D01*
X52580710Y-66730028D01*
X52634948Y-66554814D01*
X52722185Y-66393472D01*
X52839100Y-66252146D01*
X52981238Y-66136222D01*
X53143185Y-66050113D01*
X53318774Y-65997099D01*
X53501315Y-65979201D01*
X53816717Y-65979201D01*
X53827749Y-65979278D01*
X53827749Y-65979278D01*
G37*
G36*
X53827749Y-63439278D02*
X53827754Y-63439279D01*
X53829807Y-63439293D01*
X54012080Y-63459738D01*
X54186912Y-63515198D01*
X54347641Y-63603559D01*
X54488146Y-63721457D01*
X54603076Y-63864401D01*
X54688052Y-64026946D01*
X54739839Y-64202900D01*
X54739843Y-64202941D01*
X54739844Y-64202945D01*
X54756463Y-64385559D01*
X54738648Y-64555057D01*
X54737290Y-64567974D01*
X54683052Y-64743188D01*
X54595815Y-64904530D01*
X54478900Y-65045856D01*
X54336762Y-65161780D01*
X54174815Y-65247889D01*
X53999226Y-65300903D01*
X53816685Y-65318801D01*
X53501283Y-65318801D01*
X53490251Y-65318724D01*
X53490246Y-65318723D01*
X53488193Y-65318709D01*
X53305920Y-65298264D01*
X53131088Y-65242804D01*
X52970359Y-65154443D01*
X52829854Y-65036545D01*
X52714924Y-64893601D01*
X52629948Y-64731056D01*
X52578161Y-64555102D01*
X52578157Y-64555061D01*
X52578156Y-64555057D01*
X52561537Y-64372443D01*
X52580705Y-64190075D01*
X52580710Y-64190028D01*
X52634948Y-64014814D01*
X52722185Y-63853472D01*
X52839100Y-63712146D01*
X52981238Y-63596222D01*
X53143185Y-63510113D01*
X53318774Y-63457099D01*
X53501315Y-63439201D01*
X53816717Y-63439201D01*
X53827749Y-63439278D01*
X53827749Y-63439278D01*
G37*
G36*
X83847776Y-62836842D02*
X83856915Y-62836906D01*
X84068747Y-62860667D01*
X84271929Y-62925120D01*
X84458723Y-63027811D01*
X84622013Y-63164828D01*
X84755580Y-63330951D01*
X84854336Y-63519855D01*
X84914520Y-63724342D01*
X84914524Y-63724383D01*
X84914525Y-63724387D01*
X84933840Y-63936623D01*
X84911564Y-64148570D01*
X84911562Y-64148575D01*
X84911558Y-64148617D01*
X84848525Y-64352245D01*
X84747141Y-64539750D01*
X84611267Y-64703993D01*
X84446080Y-64838717D01*
X84257871Y-64938789D01*
X84053809Y-65000399D01*
X83841666Y-65021200D01*
X83831060Y-65021200D01*
X83824986Y-65021158D01*
X83815847Y-65021094D01*
X83604015Y-64997333D01*
X83400833Y-64932880D01*
X83214039Y-64830189D01*
X83050749Y-64693172D01*
X82917182Y-64527049D01*
X82818426Y-64338145D01*
X82758242Y-64133658D01*
X82758238Y-64133617D01*
X82758237Y-64133613D01*
X82738922Y-63921377D01*
X82761198Y-63709430D01*
X82761200Y-63709425D01*
X82761204Y-63709383D01*
X82824237Y-63505755D01*
X82925621Y-63318250D01*
X83061495Y-63154007D01*
X83226682Y-63019283D01*
X83414891Y-62919211D01*
X83618953Y-62857601D01*
X83831096Y-62836800D01*
X83841702Y-62836800D01*
X83847776Y-62836842D01*
X83847776Y-62836842D01*
G37*
G36*
X53827749Y-60899278D02*
X53827754Y-60899279D01*
X53829807Y-60899293D01*
X54012080Y-60919738D01*
X54186912Y-60975198D01*
X54347641Y-61063559D01*
X54488146Y-61181457D01*
X54603076Y-61324401D01*
X54688052Y-61486946D01*
X54739839Y-61662900D01*
X54739843Y-61662941D01*
X54739844Y-61662945D01*
X54756463Y-61845559D01*
X54738648Y-62015057D01*
X54737290Y-62027974D01*
X54683052Y-62203188D01*
X54595815Y-62364530D01*
X54478900Y-62505856D01*
X54336762Y-62621780D01*
X54174815Y-62707889D01*
X53999226Y-62760903D01*
X53816685Y-62778801D01*
X53501283Y-62778801D01*
X53490251Y-62778724D01*
X53490246Y-62778723D01*
X53488193Y-62778709D01*
X53305920Y-62758264D01*
X53131088Y-62702804D01*
X52970359Y-62614443D01*
X52829854Y-62496545D01*
X52714924Y-62353601D01*
X52629948Y-62191056D01*
X52578161Y-62015102D01*
X52578157Y-62015061D01*
X52578156Y-62015057D01*
X52561537Y-61832443D01*
X52580705Y-61650075D01*
X52580710Y-61650028D01*
X52634948Y-61474814D01*
X52722185Y-61313472D01*
X52839100Y-61172146D01*
X52981238Y-61056222D01*
X53143185Y-60970113D01*
X53318774Y-60917099D01*
X53501315Y-60899201D01*
X53816717Y-60899201D01*
X53827749Y-60899278D01*
X53827749Y-60899278D01*
G37*
G36*
X84928581Y-62481200D02*
X82744181Y-62481200D01*
X82744181Y-60296800D01*
X84928581Y-60296800D01*
X84928581Y-62481200D01*
X84928581Y-62481200D01*
G37*
G36*
X54751200Y-60238801D02*
X52566800Y-60238801D01*
X52566800Y-58359201D01*
X54751200Y-58359201D01*
X54751200Y-60238801D01*
X54751200Y-60238801D01*
G37*
G36*
X54197749Y-47429678D02*
X54197754Y-47429679D01*
X54199807Y-47429693D01*
X54382080Y-47450138D01*
X54556912Y-47505598D01*
X54717641Y-47593959D01*
X54858146Y-47711857D01*
X54973076Y-47854801D01*
X55058052Y-48017346D01*
X55109839Y-48193300D01*
X55109843Y-48193341D01*
X55109844Y-48193345D01*
X55126463Y-48375959D01*
X55108648Y-48545457D01*
X55107290Y-48558374D01*
X55053052Y-48733588D01*
X54965815Y-48894930D01*
X54848900Y-49036256D01*
X54706762Y-49152180D01*
X54544815Y-49238289D01*
X54369226Y-49291303D01*
X54186685Y-49309201D01*
X53871283Y-49309201D01*
X53860251Y-49309124D01*
X53860246Y-49309123D01*
X53858193Y-49309109D01*
X53675920Y-49288664D01*
X53501088Y-49233204D01*
X53340359Y-49144843D01*
X53199854Y-49026945D01*
X53084924Y-48884001D01*
X52999948Y-48721456D01*
X52948161Y-48545502D01*
X52948157Y-48545461D01*
X52948156Y-48545457D01*
X52931537Y-48362843D01*
X52950705Y-48180475D01*
X52950710Y-48180428D01*
X53004948Y-48005214D01*
X53092185Y-47843872D01*
X53209100Y-47702546D01*
X53351238Y-47586622D01*
X53513185Y-47500513D01*
X53688774Y-47447499D01*
X53871315Y-47429601D01*
X54186717Y-47429601D01*
X54197749Y-47429678D01*
X54197749Y-47429678D01*
G37*
G36*
X77360029Y-45689449D02*
X77489923Y-45716113D01*
X77612178Y-45767504D01*
X77722116Y-45841658D01*
X77815553Y-45935750D01*
X77888942Y-46046209D01*
X77939476Y-46168813D01*
X77965163Y-46298542D01*
X77965163Y-46298557D01*
X77965230Y-46298896D01*
X77963115Y-46450361D01*
X77963039Y-46450695D01*
X77963039Y-46450708D01*
X77933737Y-46579679D01*
X77879802Y-46700820D01*
X77803360Y-46809183D01*
X77707327Y-46900634D01*
X77595361Y-46971690D01*
X77471723Y-47019646D01*
X77341132Y-47042673D01*
X77208548Y-47039895D01*
X77079032Y-47011420D01*
X76957511Y-46958328D01*
X76848622Y-46882648D01*
X76756503Y-46787257D01*
X76684666Y-46675787D01*
X76635847Y-46552485D01*
X76611910Y-46422060D01*
X76613761Y-46289462D01*
X76641333Y-46159747D01*
X76693572Y-46037862D01*
X76768494Y-45928443D01*
X76863242Y-45835659D01*
X76974200Y-45763049D01*
X77097158Y-45713371D01*
X77227416Y-45688524D01*
X77360029Y-45689449D01*
X77360029Y-45689449D01*
G37*
G36*
X84460029Y-45689449D02*
X84589923Y-45716113D01*
X84712178Y-45767504D01*
X84822116Y-45841658D01*
X84915553Y-45935750D01*
X84988942Y-46046209D01*
X85039476Y-46168813D01*
X85065163Y-46298542D01*
X85065163Y-46298557D01*
X85065230Y-46298896D01*
X85063115Y-46450361D01*
X85063039Y-46450695D01*
X85063039Y-46450708D01*
X85033737Y-46579679D01*
X84979802Y-46700820D01*
X84903360Y-46809183D01*
X84807327Y-46900634D01*
X84695361Y-46971690D01*
X84571723Y-47019646D01*
X84441132Y-47042673D01*
X84308548Y-47039895D01*
X84179032Y-47011420D01*
X84057511Y-46958328D01*
X83948622Y-46882648D01*
X83856503Y-46787257D01*
X83784666Y-46675787D01*
X83735847Y-46552485D01*
X83711910Y-46422060D01*
X83713761Y-46289462D01*
X83741333Y-46159747D01*
X83793572Y-46037862D01*
X83868494Y-45928443D01*
X83963242Y-45835659D01*
X84074200Y-45763049D01*
X84197158Y-45713371D01*
X84327416Y-45688524D01*
X84460029Y-45689449D01*
X84460029Y-45689449D01*
G37*
G36*
X54197749Y-44889678D02*
X54197754Y-44889679D01*
X54199807Y-44889693D01*
X54382080Y-44910138D01*
X54556912Y-44965598D01*
X54717641Y-45053959D01*
X54858146Y-45171857D01*
X54973076Y-45314801D01*
X55058052Y-45477346D01*
X55109839Y-45653300D01*
X55109843Y-45653341D01*
X55109844Y-45653345D01*
X55126463Y-45835959D01*
X55108648Y-46005457D01*
X55107290Y-46018374D01*
X55053052Y-46193588D01*
X54965815Y-46354930D01*
X54848900Y-46496256D01*
X54706762Y-46612180D01*
X54544815Y-46698289D01*
X54369226Y-46751303D01*
X54186685Y-46769201D01*
X53871283Y-46769201D01*
X53860251Y-46769124D01*
X53860246Y-46769123D01*
X53858193Y-46769109D01*
X53675920Y-46748664D01*
X53501088Y-46693204D01*
X53340359Y-46604843D01*
X53199854Y-46486945D01*
X53084924Y-46344001D01*
X52999948Y-46181456D01*
X52948161Y-46005502D01*
X52948157Y-46005461D01*
X52948156Y-46005457D01*
X52931537Y-45822843D01*
X52950705Y-45640475D01*
X52950710Y-45640428D01*
X53004948Y-45465214D01*
X53092185Y-45303872D01*
X53209100Y-45162546D01*
X53351238Y-45046622D01*
X53513185Y-44960513D01*
X53688774Y-44907499D01*
X53871315Y-44889601D01*
X54186717Y-44889601D01*
X54197749Y-44889678D01*
X54197749Y-44889678D01*
G37*
G36*
X54197749Y-42349678D02*
X54197754Y-42349679D01*
X54199807Y-42349693D01*
X54382080Y-42370138D01*
X54556912Y-42425598D01*
X54717641Y-42513959D01*
X54858146Y-42631857D01*
X54973076Y-42774801D01*
X55058052Y-42937346D01*
X55109839Y-43113300D01*
X55109843Y-43113341D01*
X55109844Y-43113345D01*
X55126463Y-43295959D01*
X55108648Y-43465457D01*
X55107290Y-43478374D01*
X55053052Y-43653588D01*
X54965815Y-43814930D01*
X54848900Y-43956256D01*
X54706762Y-44072180D01*
X54544815Y-44158289D01*
X54369226Y-44211303D01*
X54186685Y-44229201D01*
X53871283Y-44229201D01*
X53860251Y-44229124D01*
X53860246Y-44229123D01*
X53858193Y-44229109D01*
X53675920Y-44208664D01*
X53501088Y-44153204D01*
X53340359Y-44064843D01*
X53199854Y-43946945D01*
X53084924Y-43804001D01*
X52999948Y-43641456D01*
X52948161Y-43465502D01*
X52948157Y-43465461D01*
X52948156Y-43465457D01*
X52931537Y-43282843D01*
X52950705Y-43100475D01*
X52950710Y-43100428D01*
X53004948Y-42925214D01*
X53092185Y-42763872D01*
X53209100Y-42622546D01*
X53351238Y-42506622D01*
X53513185Y-42420513D01*
X53688774Y-42367499D01*
X53871315Y-42349601D01*
X54186717Y-42349601D01*
X54197749Y-42349678D01*
X54197749Y-42349678D01*
G37*
G36*
X73627749Y-41139678D02*
X73627754Y-41139679D01*
X73629807Y-41139693D01*
X73812080Y-41160138D01*
X73986912Y-41215598D01*
X74147641Y-41303959D01*
X74288146Y-41421857D01*
X74403076Y-41564801D01*
X74488052Y-41727346D01*
X74539839Y-41903300D01*
X74539843Y-41903341D01*
X74539844Y-41903345D01*
X74556463Y-42085959D01*
X74538648Y-42255457D01*
X74537290Y-42268374D01*
X74483052Y-42443588D01*
X74395815Y-42604930D01*
X74278900Y-42746256D01*
X74136762Y-42862180D01*
X73974815Y-42948289D01*
X73799226Y-43001303D01*
X73616685Y-43019201D01*
X73301283Y-43019201D01*
X73290251Y-43019124D01*
X73290246Y-43019123D01*
X73288193Y-43019109D01*
X73105920Y-42998664D01*
X72931088Y-42943204D01*
X72770359Y-42854843D01*
X72629854Y-42736945D01*
X72514924Y-42594001D01*
X72429948Y-42431456D01*
X72378161Y-42255502D01*
X72378157Y-42255461D01*
X72378156Y-42255457D01*
X72361537Y-42072843D01*
X72380705Y-41890475D01*
X72380710Y-41890428D01*
X72434948Y-41715214D01*
X72522185Y-41553872D01*
X72639100Y-41412546D01*
X72781238Y-41296622D01*
X72943185Y-41210513D01*
X73118774Y-41157499D01*
X73301315Y-41139601D01*
X73616717Y-41139601D01*
X73627749Y-41139678D01*
X73627749Y-41139678D01*
G37*
G36*
X54197749Y-39809678D02*
X54197754Y-39809679D01*
X54199807Y-39809693D01*
X54382080Y-39830138D01*
X54556912Y-39885598D01*
X54717641Y-39973959D01*
X54858146Y-40091857D01*
X54973076Y-40234801D01*
X55058052Y-40397346D01*
X55109839Y-40573300D01*
X55109843Y-40573341D01*
X55109844Y-40573345D01*
X55126463Y-40755959D01*
X55108648Y-40925457D01*
X55107290Y-40938374D01*
X55053052Y-41113588D01*
X54965815Y-41274930D01*
X54848900Y-41416256D01*
X54706762Y-41532180D01*
X54544815Y-41618289D01*
X54369226Y-41671303D01*
X54186685Y-41689201D01*
X53871283Y-41689201D01*
X53860251Y-41689124D01*
X53860246Y-41689123D01*
X53858193Y-41689109D01*
X53675920Y-41668664D01*
X53501088Y-41613204D01*
X53340359Y-41524843D01*
X53199854Y-41406945D01*
X53084924Y-41264001D01*
X52999948Y-41101456D01*
X52948161Y-40925502D01*
X52948157Y-40925461D01*
X52948156Y-40925457D01*
X52931537Y-40742843D01*
X52950705Y-40560475D01*
X52950710Y-40560428D01*
X53004948Y-40385214D01*
X53092185Y-40223872D01*
X53209100Y-40082546D01*
X53351238Y-39966622D01*
X53513185Y-39880513D01*
X53688774Y-39827499D01*
X53871315Y-39809601D01*
X54186717Y-39809601D01*
X54197749Y-39809678D01*
X54197749Y-39809678D01*
G37*
G36*
X73627749Y-38599678D02*
X73627754Y-38599679D01*
X73629807Y-38599693D01*
X73812080Y-38620138D01*
X73986912Y-38675598D01*
X74147641Y-38763959D01*
X74288146Y-38881857D01*
X74403076Y-39024801D01*
X74488052Y-39187346D01*
X74539839Y-39363300D01*
X74539843Y-39363341D01*
X74539844Y-39363345D01*
X74556463Y-39545959D01*
X74538648Y-39715457D01*
X74537290Y-39728374D01*
X74483052Y-39903588D01*
X74395815Y-40064930D01*
X74278900Y-40206256D01*
X74136762Y-40322180D01*
X73974815Y-40408289D01*
X73799226Y-40461303D01*
X73616685Y-40479201D01*
X73301283Y-40479201D01*
X73290251Y-40479124D01*
X73290246Y-40479123D01*
X73288193Y-40479109D01*
X73105920Y-40458664D01*
X72931088Y-40403204D01*
X72770359Y-40314843D01*
X72629854Y-40196945D01*
X72514924Y-40054001D01*
X72429948Y-39891456D01*
X72378161Y-39715502D01*
X72378157Y-39715461D01*
X72378156Y-39715457D01*
X72361537Y-39532843D01*
X72380705Y-39350475D01*
X72380710Y-39350428D01*
X72434948Y-39175214D01*
X72522185Y-39013872D01*
X72639100Y-38872546D01*
X72781238Y-38756622D01*
X72943185Y-38670513D01*
X73118774Y-38617499D01*
X73301315Y-38599601D01*
X73616717Y-38599601D01*
X73627749Y-38599678D01*
X73627749Y-38599678D01*
G37*
G36*
X95897636Y-37719983D02*
X96065951Y-37754534D01*
X96224363Y-37821124D01*
X96366817Y-37917210D01*
X96487895Y-38039136D01*
X96582982Y-38182255D01*
X96648464Y-38341125D01*
X96681770Y-38509336D01*
X96681839Y-38509685D01*
X96679098Y-38705949D01*
X96679021Y-38706287D01*
X96679021Y-38706296D01*
X96641030Y-38873514D01*
X96571141Y-39030486D01*
X96472091Y-39170899D01*
X96347654Y-39289398D01*
X96202571Y-39381471D01*
X96042370Y-39443609D01*
X95873149Y-39473448D01*
X95701352Y-39469848D01*
X95533529Y-39432951D01*
X95376067Y-39364157D01*
X95234971Y-39266093D01*
X95115606Y-39142487D01*
X95022523Y-38998050D01*
X94959265Y-38838279D01*
X94928248Y-38669277D01*
X94930646Y-38497460D01*
X94966373Y-38329381D01*
X95034063Y-38171446D01*
X95131144Y-38029664D01*
X95253912Y-37909440D01*
X95397697Y-37815351D01*
X95557017Y-37750980D01*
X95725802Y-37718784D01*
X95897636Y-37719983D01*
X95897636Y-37719983D01*
G37*
G36*
X91017636Y-37719983D02*
X91185951Y-37754534D01*
X91344363Y-37821124D01*
X91486817Y-37917210D01*
X91607895Y-38039136D01*
X91702982Y-38182255D01*
X91768464Y-38341125D01*
X91801770Y-38509336D01*
X91801839Y-38509685D01*
X91799098Y-38705949D01*
X91799021Y-38706287D01*
X91799021Y-38706296D01*
X91761030Y-38873514D01*
X91691141Y-39030486D01*
X91592091Y-39170899D01*
X91467654Y-39289398D01*
X91322571Y-39381471D01*
X91162370Y-39443609D01*
X90993149Y-39473448D01*
X90821352Y-39469848D01*
X90653529Y-39432951D01*
X90496067Y-39364157D01*
X90354971Y-39266093D01*
X90235606Y-39142487D01*
X90142523Y-38998050D01*
X90079265Y-38838279D01*
X90048248Y-38669277D01*
X90050646Y-38497460D01*
X90086373Y-38329381D01*
X90154063Y-38171446D01*
X90251144Y-38029664D01*
X90373912Y-37909440D01*
X90517697Y-37815351D01*
X90677017Y-37750980D01*
X90845802Y-37718784D01*
X91017636Y-37719983D01*
X91017636Y-37719983D01*
G37*
G36*
X54197749Y-37269678D02*
X54197754Y-37269679D01*
X54199807Y-37269693D01*
X54382080Y-37290138D01*
X54556912Y-37345598D01*
X54717641Y-37433959D01*
X54858146Y-37551857D01*
X54973076Y-37694801D01*
X55058052Y-37857346D01*
X55109839Y-38033300D01*
X55109843Y-38033341D01*
X55109844Y-38033345D01*
X55126463Y-38215959D01*
X55113307Y-38341125D01*
X55107290Y-38398374D01*
X55053052Y-38573588D01*
X54965815Y-38734930D01*
X54848900Y-38876256D01*
X54706762Y-38992180D01*
X54544815Y-39078289D01*
X54369226Y-39131303D01*
X54186685Y-39149201D01*
X53871283Y-39149201D01*
X53860251Y-39149124D01*
X53860246Y-39149123D01*
X53858193Y-39149109D01*
X53675920Y-39128664D01*
X53501088Y-39073204D01*
X53340359Y-38984843D01*
X53199854Y-38866945D01*
X53084924Y-38724001D01*
X52999948Y-38561456D01*
X52948161Y-38385502D01*
X52948157Y-38385461D01*
X52948156Y-38385457D01*
X52931537Y-38202843D01*
X52950705Y-38020475D01*
X52950710Y-38020428D01*
X53004948Y-37845214D01*
X53092185Y-37683872D01*
X53209100Y-37542546D01*
X53351238Y-37426622D01*
X53513185Y-37340513D01*
X53688774Y-37287499D01*
X53871315Y-37269601D01*
X54186717Y-37269601D01*
X54197749Y-37269678D01*
X54197749Y-37269678D01*
G37*
G36*
X73627749Y-36059678D02*
X73627754Y-36059679D01*
X73629807Y-36059693D01*
X73812080Y-36080138D01*
X73986912Y-36135598D01*
X74147641Y-36223959D01*
X74288146Y-36341857D01*
X74403076Y-36484801D01*
X74488052Y-36647346D01*
X74539839Y-36823300D01*
X74539843Y-36823341D01*
X74539844Y-36823345D01*
X74556463Y-37005959D01*
X74538648Y-37175457D01*
X74537290Y-37188374D01*
X74483052Y-37363588D01*
X74395815Y-37524930D01*
X74278900Y-37666256D01*
X74136762Y-37782180D01*
X73974815Y-37868289D01*
X73799226Y-37921303D01*
X73616685Y-37939201D01*
X73301283Y-37939201D01*
X73290251Y-37939124D01*
X73290246Y-37939123D01*
X73288193Y-37939109D01*
X73105920Y-37918664D01*
X72931088Y-37863204D01*
X72770359Y-37774843D01*
X72629854Y-37656945D01*
X72514924Y-37514001D01*
X72429948Y-37351456D01*
X72378161Y-37175502D01*
X72378157Y-37175461D01*
X72378156Y-37175457D01*
X72361537Y-36992843D01*
X72380705Y-36810475D01*
X72380710Y-36810428D01*
X72434948Y-36635214D01*
X72522185Y-36473872D01*
X72639100Y-36332546D01*
X72781238Y-36216622D01*
X72943185Y-36130513D01*
X73118774Y-36077499D01*
X73301315Y-36059601D01*
X73616717Y-36059601D01*
X73627749Y-36059678D01*
X73627749Y-36059678D01*
G37*
G36*
X54197749Y-34729678D02*
X54197754Y-34729679D01*
X54199807Y-34729693D01*
X54382080Y-34750138D01*
X54556912Y-34805598D01*
X54717641Y-34893959D01*
X54858146Y-35011857D01*
X54973076Y-35154801D01*
X55058052Y-35317346D01*
X55109839Y-35493300D01*
X55109843Y-35493341D01*
X55109844Y-35493345D01*
X55126463Y-35675959D01*
X55108648Y-35845457D01*
X55107290Y-35858374D01*
X55053052Y-36033588D01*
X54965815Y-36194930D01*
X54848900Y-36336256D01*
X54706762Y-36452180D01*
X54544815Y-36538289D01*
X54369226Y-36591303D01*
X54186685Y-36609201D01*
X53871283Y-36609201D01*
X53860251Y-36609124D01*
X53860246Y-36609123D01*
X53858193Y-36609109D01*
X53675920Y-36588664D01*
X53501088Y-36533204D01*
X53340359Y-36444843D01*
X53199854Y-36326945D01*
X53084924Y-36184001D01*
X52999948Y-36021456D01*
X52948161Y-35845502D01*
X52948157Y-35845461D01*
X52948156Y-35845457D01*
X52931537Y-35662843D01*
X52950705Y-35480475D01*
X52950710Y-35480428D01*
X53004948Y-35305214D01*
X53092185Y-35143872D01*
X53209100Y-35002546D01*
X53351238Y-34886622D01*
X53513185Y-34800513D01*
X53688774Y-34747499D01*
X53871315Y-34729601D01*
X54186717Y-34729601D01*
X54197749Y-34729678D01*
X54197749Y-34729678D01*
G37*
G36*
X73627749Y-33519678D02*
X73627754Y-33519679D01*
X73629807Y-33519693D01*
X73812080Y-33540138D01*
X73986912Y-33595598D01*
X74147641Y-33683959D01*
X74288146Y-33801857D01*
X74403076Y-33944801D01*
X74488052Y-34107346D01*
X74539839Y-34283300D01*
X74539843Y-34283341D01*
X74539844Y-34283345D01*
X74556463Y-34465959D01*
X74538648Y-34635457D01*
X74537290Y-34648374D01*
X74483052Y-34823588D01*
X74395815Y-34984930D01*
X74278900Y-35126256D01*
X74136762Y-35242180D01*
X73974815Y-35328289D01*
X73799226Y-35381303D01*
X73616685Y-35399201D01*
X73301283Y-35399201D01*
X73290251Y-35399124D01*
X73290246Y-35399123D01*
X73288193Y-35399109D01*
X73105920Y-35378664D01*
X72931088Y-35323204D01*
X72770359Y-35234843D01*
X72629854Y-35116945D01*
X72514924Y-34974001D01*
X72429948Y-34811456D01*
X72378161Y-34635502D01*
X72378157Y-34635461D01*
X72378156Y-34635457D01*
X72361537Y-34452843D01*
X72380705Y-34270475D01*
X72380710Y-34270428D01*
X72434948Y-34095214D01*
X72522185Y-33933872D01*
X72639100Y-33792546D01*
X72781238Y-33676622D01*
X72943185Y-33590513D01*
X73118774Y-33537499D01*
X73301315Y-33519601D01*
X73616717Y-33519601D01*
X73627749Y-33519678D01*
X73627749Y-33519678D01*
G37*
G36*
X54197749Y-32189678D02*
X54197754Y-32189679D01*
X54199807Y-32189693D01*
X54382080Y-32210138D01*
X54556912Y-32265598D01*
X54717641Y-32353959D01*
X54858146Y-32471857D01*
X54973076Y-32614801D01*
X55058052Y-32777346D01*
X55109839Y-32953300D01*
X55109843Y-32953341D01*
X55109844Y-32953345D01*
X55126463Y-33135959D01*
X55108648Y-33305457D01*
X55107290Y-33318374D01*
X55053052Y-33493588D01*
X54965815Y-33654930D01*
X54848900Y-33796256D01*
X54706762Y-33912180D01*
X54544815Y-33998289D01*
X54369226Y-34051303D01*
X54186685Y-34069201D01*
X53871283Y-34069201D01*
X53860251Y-34069124D01*
X53860246Y-34069123D01*
X53858193Y-34069109D01*
X53675920Y-34048664D01*
X53501088Y-33993204D01*
X53340359Y-33904843D01*
X53199854Y-33786945D01*
X53084924Y-33644001D01*
X52999948Y-33481456D01*
X52948161Y-33305502D01*
X52948157Y-33305461D01*
X52948156Y-33305457D01*
X52931537Y-33122843D01*
X52950705Y-32940475D01*
X52950710Y-32940428D01*
X53004948Y-32765214D01*
X53092185Y-32603872D01*
X53209100Y-32462546D01*
X53351238Y-32346622D01*
X53513185Y-32260513D01*
X53688774Y-32207499D01*
X53871315Y-32189601D01*
X54186717Y-32189601D01*
X54197749Y-32189678D01*
X54197749Y-32189678D01*
G37*
G36*
X74551200Y-32859201D02*
X72366800Y-32859201D01*
X72366800Y-30979601D01*
X74551200Y-30979601D01*
X74551200Y-32859201D01*
X74551200Y-32859201D01*
G37*
G36*
X54197749Y-29649678D02*
X54197754Y-29649679D01*
X54199807Y-29649693D01*
X54382080Y-29670138D01*
X54556912Y-29725598D01*
X54717641Y-29813959D01*
X54858146Y-29931857D01*
X54973076Y-30074801D01*
X55058052Y-30237346D01*
X55109839Y-30413300D01*
X55109843Y-30413341D01*
X55109844Y-30413345D01*
X55126463Y-30595959D01*
X55108648Y-30765457D01*
X55107290Y-30778374D01*
X55053052Y-30953588D01*
X54965815Y-31114930D01*
X54848900Y-31256256D01*
X54706762Y-31372180D01*
X54544815Y-31458289D01*
X54369226Y-31511303D01*
X54186685Y-31529201D01*
X53871283Y-31529201D01*
X53860251Y-31529124D01*
X53860246Y-31529123D01*
X53858193Y-31529109D01*
X53675920Y-31508664D01*
X53501088Y-31453204D01*
X53340359Y-31364843D01*
X53199854Y-31246945D01*
X53084924Y-31104001D01*
X52999948Y-30941456D01*
X52948161Y-30765502D01*
X52948157Y-30765461D01*
X52948156Y-30765457D01*
X52931537Y-30582843D01*
X52950705Y-30400475D01*
X52950710Y-30400428D01*
X53004948Y-30225214D01*
X53092185Y-30063872D01*
X53209100Y-29922546D01*
X53351238Y-29806622D01*
X53513185Y-29720513D01*
X53688774Y-29667499D01*
X53871315Y-29649601D01*
X54186717Y-29649601D01*
X54197749Y-29649678D01*
X54197749Y-29649678D01*
G37*
G36*
X54197749Y-27109678D02*
X54197754Y-27109679D01*
X54199807Y-27109693D01*
X54382080Y-27130138D01*
X54556912Y-27185598D01*
X54717641Y-27273959D01*
X54858146Y-27391857D01*
X54973076Y-27534801D01*
X55058052Y-27697346D01*
X55109839Y-27873300D01*
X55109843Y-27873341D01*
X55109844Y-27873345D01*
X55126463Y-28055959D01*
X55108648Y-28225457D01*
X55107290Y-28238374D01*
X55053052Y-28413588D01*
X54965815Y-28574930D01*
X54848900Y-28716256D01*
X54706762Y-28832180D01*
X54544815Y-28918289D01*
X54369226Y-28971303D01*
X54186685Y-28989201D01*
X53871283Y-28989201D01*
X53860251Y-28989124D01*
X53860246Y-28989123D01*
X53858193Y-28989109D01*
X53675920Y-28968664D01*
X53501088Y-28913204D01*
X53340359Y-28824843D01*
X53199854Y-28706945D01*
X53084924Y-28564001D01*
X52999948Y-28401456D01*
X52948161Y-28225502D01*
X52948157Y-28225461D01*
X52948156Y-28225457D01*
X52931537Y-28042843D01*
X52950705Y-27860475D01*
X52950710Y-27860428D01*
X53004948Y-27685214D01*
X53092185Y-27523872D01*
X53209100Y-27382546D01*
X53351238Y-27266622D01*
X53513185Y-27180513D01*
X53688774Y-27127499D01*
X53871315Y-27109601D01*
X54186717Y-27109601D01*
X54197749Y-27109678D01*
X54197749Y-27109678D01*
G37*
G36*
X55121200Y-26449201D02*
X52936800Y-26449201D01*
X52936800Y-24569601D01*
X55121200Y-24569601D01*
X55121200Y-26449201D01*
X55121200Y-26449201D01*
G37*
G36*
X68198244Y-19731357D02*
X68359259Y-19764409D01*
X68510802Y-19828111D01*
X68647074Y-19920029D01*
X68762907Y-20036672D01*
X68853869Y-20173582D01*
X68916511Y-20325563D01*
X68948369Y-20486456D01*
X68948369Y-20486466D01*
X68948437Y-20486810D01*
X68945816Y-20674563D01*
X68945738Y-20674906D01*
X68945738Y-20674909D01*
X68909398Y-20834861D01*
X68842541Y-20985025D01*
X68747785Y-21119347D01*
X68628746Y-21232708D01*
X68489954Y-21320788D01*
X68336700Y-21380231D01*
X68174820Y-21408775D01*
X68010474Y-21405332D01*
X67849929Y-21370035D01*
X67699295Y-21304224D01*
X67564319Y-21210413D01*
X67450131Y-21092168D01*
X67361084Y-20953994D01*
X67300570Y-20801153D01*
X67270898Y-20639481D01*
X67273192Y-20475116D01*
X67307370Y-20314326D01*
X67372124Y-20163240D01*
X67464995Y-20027607D01*
X67582438Y-19912598D01*
X67719987Y-19822588D01*
X67872398Y-19761010D01*
X68033863Y-19730209D01*
X68198244Y-19731357D01*
X68198244Y-19731357D01*
G37*
G36*
X70738244Y-19731357D02*
X70899259Y-19764409D01*
X71050802Y-19828111D01*
X71187074Y-19920029D01*
X71302907Y-20036672D01*
X71393869Y-20173582D01*
X71456511Y-20325563D01*
X71488369Y-20486456D01*
X71488369Y-20486466D01*
X71488437Y-20486810D01*
X71485816Y-20674563D01*
X71485738Y-20674906D01*
X71485738Y-20674909D01*
X71449398Y-20834861D01*
X71382541Y-20985025D01*
X71287785Y-21119347D01*
X71168746Y-21232708D01*
X71029954Y-21320788D01*
X70876700Y-21380231D01*
X70714820Y-21408775D01*
X70550474Y-21405332D01*
X70389929Y-21370035D01*
X70239295Y-21304224D01*
X70104319Y-21210413D01*
X69990131Y-21092168D01*
X69901084Y-20953994D01*
X69840570Y-20801153D01*
X69810898Y-20639481D01*
X69813192Y-20475116D01*
X69847370Y-20314326D01*
X69912124Y-20163240D01*
X70004995Y-20027607D01*
X70122438Y-19912598D01*
X70259987Y-19822588D01*
X70412398Y-19761010D01*
X70573863Y-19730209D01*
X70738244Y-19731357D01*
X70738244Y-19731357D01*
G37*
G36*
X73278244Y-19731357D02*
X73439259Y-19764409D01*
X73590802Y-19828111D01*
X73727074Y-19920029D01*
X73842907Y-20036672D01*
X73933869Y-20173582D01*
X73996511Y-20325563D01*
X74028369Y-20486456D01*
X74028369Y-20486466D01*
X74028437Y-20486810D01*
X74025816Y-20674563D01*
X74025738Y-20674906D01*
X74025738Y-20674909D01*
X73989398Y-20834861D01*
X73922541Y-20985025D01*
X73827785Y-21119347D01*
X73708746Y-21232708D01*
X73569954Y-21320788D01*
X73416700Y-21380231D01*
X73254820Y-21408775D01*
X73090474Y-21405332D01*
X72929929Y-21370035D01*
X72779295Y-21304224D01*
X72644319Y-21210413D01*
X72530131Y-21092168D01*
X72441084Y-20953994D01*
X72380570Y-20801153D01*
X72350898Y-20639481D01*
X72353192Y-20475116D01*
X72387370Y-20314326D01*
X72452124Y-20163240D01*
X72544995Y-20027607D01*
X72662438Y-19912598D01*
X72799987Y-19822588D01*
X72952398Y-19761010D01*
X73113863Y-19730209D01*
X73278244Y-19731357D01*
X73278244Y-19731357D01*
G37*
G36*
X75818244Y-19731357D02*
X75979259Y-19764409D01*
X76130802Y-19828111D01*
X76267074Y-19920029D01*
X76382907Y-20036672D01*
X76473869Y-20173582D01*
X76536511Y-20325563D01*
X76568369Y-20486456D01*
X76568369Y-20486466D01*
X76568437Y-20486810D01*
X76565816Y-20674563D01*
X76565738Y-20674906D01*
X76565738Y-20674909D01*
X76529398Y-20834861D01*
X76462541Y-20985025D01*
X76367785Y-21119347D01*
X76248746Y-21232708D01*
X76109954Y-21320788D01*
X75956700Y-21380231D01*
X75794820Y-21408775D01*
X75630474Y-21405332D01*
X75469929Y-21370035D01*
X75319295Y-21304224D01*
X75184319Y-21210413D01*
X75070131Y-21092168D01*
X74981084Y-20953994D01*
X74920570Y-20801153D01*
X74890898Y-20639481D01*
X74893192Y-20475116D01*
X74927370Y-20314326D01*
X74992124Y-20163240D01*
X75084995Y-20027607D01*
X75202438Y-19912598D01*
X75339987Y-19822588D01*
X75492398Y-19761010D01*
X75653863Y-19730209D01*
X75818244Y-19731357D01*
X75818244Y-19731357D01*
G37*
G36*
X78358244Y-19731357D02*
X78519259Y-19764409D01*
X78670802Y-19828111D01*
X78807074Y-19920029D01*
X78922907Y-20036672D01*
X79013869Y-20173582D01*
X79076511Y-20325563D01*
X79108369Y-20486456D01*
X79108369Y-20486466D01*
X79108437Y-20486810D01*
X79105816Y-20674563D01*
X79105738Y-20674906D01*
X79105738Y-20674909D01*
X79069398Y-20834861D01*
X79002541Y-20985025D01*
X78907785Y-21119347D01*
X78788746Y-21232708D01*
X78649954Y-21320788D01*
X78496700Y-21380231D01*
X78334820Y-21408775D01*
X78170474Y-21405332D01*
X78009929Y-21370035D01*
X77859295Y-21304224D01*
X77724319Y-21210413D01*
X77610131Y-21092168D01*
X77521084Y-20953994D01*
X77460570Y-20801153D01*
X77430898Y-20639481D01*
X77433192Y-20475116D01*
X77467370Y-20314326D01*
X77532124Y-20163240D01*
X77624995Y-20027607D01*
X77742438Y-19912598D01*
X77879987Y-19822588D01*
X78032398Y-19761010D01*
X78193863Y-19730209D01*
X78358244Y-19731357D01*
X78358244Y-19731357D01*
G37*
G36*
X80898244Y-19731357D02*
X81059259Y-19764409D01*
X81210802Y-19828111D01*
X81347074Y-19920029D01*
X81462907Y-20036672D01*
X81553869Y-20173582D01*
X81616511Y-20325563D01*
X81648369Y-20486456D01*
X81648369Y-20486466D01*
X81648437Y-20486810D01*
X81645816Y-20674563D01*
X81645738Y-20674906D01*
X81645738Y-20674909D01*
X81609398Y-20834861D01*
X81542541Y-20985025D01*
X81447785Y-21119347D01*
X81328746Y-21232708D01*
X81189954Y-21320788D01*
X81036700Y-21380231D01*
X80874820Y-21408775D01*
X80710474Y-21405332D01*
X80549929Y-21370035D01*
X80399295Y-21304224D01*
X80264319Y-21210413D01*
X80150131Y-21092168D01*
X80061084Y-20953994D01*
X80000570Y-20801153D01*
X79970898Y-20639481D01*
X79973192Y-20475116D01*
X80007370Y-20314326D01*
X80072124Y-20163240D01*
X80164995Y-20027607D01*
X80282438Y-19912598D01*
X80419987Y-19822588D01*
X80572398Y-19761010D01*
X80733863Y-19730209D01*
X80898244Y-19731357D01*
X80898244Y-19731357D01*
G37*
G36*
X83438244Y-19731357D02*
X83599259Y-19764409D01*
X83750802Y-19828111D01*
X83887074Y-19920029D01*
X84002907Y-20036672D01*
X84093869Y-20173582D01*
X84156511Y-20325563D01*
X84188369Y-20486456D01*
X84188369Y-20486466D01*
X84188437Y-20486810D01*
X84185816Y-20674563D01*
X84185738Y-20674906D01*
X84185738Y-20674909D01*
X84149398Y-20834861D01*
X84082541Y-20985025D01*
X83987785Y-21119347D01*
X83868746Y-21232708D01*
X83729954Y-21320788D01*
X83576700Y-21380231D01*
X83414820Y-21408775D01*
X83250474Y-21405332D01*
X83089929Y-21370035D01*
X82939295Y-21304224D01*
X82804319Y-21210413D01*
X82690131Y-21092168D01*
X82601084Y-20953994D01*
X82540570Y-20801153D01*
X82510898Y-20639481D01*
X82513192Y-20475116D01*
X82547370Y-20314326D01*
X82612124Y-20163240D01*
X82704995Y-20027607D01*
X82822438Y-19912598D01*
X82959987Y-19822588D01*
X83112398Y-19761010D01*
X83273863Y-19730209D01*
X83438244Y-19731357D01*
X83438244Y-19731357D01*
G37*
G36*
X85978244Y-19731357D02*
X86139259Y-19764409D01*
X86290802Y-19828111D01*
X86427074Y-19920029D01*
X86542907Y-20036672D01*
X86633869Y-20173582D01*
X86696511Y-20325563D01*
X86728369Y-20486456D01*
X86728369Y-20486466D01*
X86728437Y-20486810D01*
X86725816Y-20674563D01*
X86725738Y-20674906D01*
X86725738Y-20674909D01*
X86689398Y-20834861D01*
X86622541Y-20985025D01*
X86527785Y-21119347D01*
X86408746Y-21232708D01*
X86269954Y-21320788D01*
X86116700Y-21380231D01*
X85954820Y-21408775D01*
X85790474Y-21405332D01*
X85629929Y-21370035D01*
X85479295Y-21304224D01*
X85344319Y-21210413D01*
X85230131Y-21092168D01*
X85141084Y-20953994D01*
X85080570Y-20801153D01*
X85050898Y-20639481D01*
X85053192Y-20475116D01*
X85087370Y-20314326D01*
X85152124Y-20163240D01*
X85244995Y-20027607D01*
X85362438Y-19912598D01*
X85499987Y-19822588D01*
X85652398Y-19761010D01*
X85813863Y-19730209D01*
X85978244Y-19731357D01*
X85978244Y-19731357D01*
G37*
G36*
X91058244Y-19731357D02*
X91219259Y-19764409D01*
X91370802Y-19828111D01*
X91507074Y-19920029D01*
X91622907Y-20036672D01*
X91713869Y-20173582D01*
X91776511Y-20325563D01*
X91808369Y-20486456D01*
X91808369Y-20486466D01*
X91808437Y-20486810D01*
X91805816Y-20674563D01*
X91805738Y-20674906D01*
X91805738Y-20674909D01*
X91769398Y-20834861D01*
X91702541Y-20985025D01*
X91607785Y-21119347D01*
X91488746Y-21232708D01*
X91349954Y-21320788D01*
X91196700Y-21380231D01*
X91034820Y-21408775D01*
X90870474Y-21405332D01*
X90709929Y-21370035D01*
X90559295Y-21304224D01*
X90424319Y-21210413D01*
X90310131Y-21092168D01*
X90221084Y-20953994D01*
X90160570Y-20801153D01*
X90130898Y-20639481D01*
X90133192Y-20475116D01*
X90167370Y-20314326D01*
X90232124Y-20163240D01*
X90324995Y-20027607D01*
X90442438Y-19912598D01*
X90579987Y-19822588D01*
X90732398Y-19761010D01*
X90893863Y-19730209D01*
X91058244Y-19731357D01*
X91058244Y-19731357D01*
G37*
G36*
X52958244Y-19731357D02*
X53119259Y-19764409D01*
X53270802Y-19828111D01*
X53407074Y-19920029D01*
X53522907Y-20036672D01*
X53613869Y-20173582D01*
X53676511Y-20325563D01*
X53708369Y-20486456D01*
X53708369Y-20486466D01*
X53708437Y-20486810D01*
X53705816Y-20674563D01*
X53705738Y-20674906D01*
X53705738Y-20674909D01*
X53669398Y-20834861D01*
X53602541Y-20985025D01*
X53507785Y-21119347D01*
X53388746Y-21232708D01*
X53249954Y-21320788D01*
X53096700Y-21380231D01*
X52934820Y-21408775D01*
X52770474Y-21405332D01*
X52609929Y-21370035D01*
X52459295Y-21304224D01*
X52324319Y-21210413D01*
X52210131Y-21092168D01*
X52121084Y-20953994D01*
X52060570Y-20801153D01*
X52030898Y-20639481D01*
X52033192Y-20475116D01*
X52067370Y-20314326D01*
X52132124Y-20163240D01*
X52224995Y-20027607D01*
X52342438Y-19912598D01*
X52479987Y-19822588D01*
X52632398Y-19761010D01*
X52793863Y-19730209D01*
X52958244Y-19731357D01*
X52958244Y-19731357D01*
G37*
G36*
X55498244Y-19731357D02*
X55659259Y-19764409D01*
X55810802Y-19828111D01*
X55947074Y-19920029D01*
X56062907Y-20036672D01*
X56153869Y-20173582D01*
X56216511Y-20325563D01*
X56248369Y-20486456D01*
X56248369Y-20486466D01*
X56248437Y-20486810D01*
X56245816Y-20674563D01*
X56245738Y-20674906D01*
X56245738Y-20674909D01*
X56209398Y-20834861D01*
X56142541Y-20985025D01*
X56047785Y-21119347D01*
X55928746Y-21232708D01*
X55789954Y-21320788D01*
X55636700Y-21380231D01*
X55474820Y-21408775D01*
X55310474Y-21405332D01*
X55149929Y-21370035D01*
X54999295Y-21304224D01*
X54864319Y-21210413D01*
X54750131Y-21092168D01*
X54661084Y-20953994D01*
X54600570Y-20801153D01*
X54570898Y-20639481D01*
X54573192Y-20475116D01*
X54607370Y-20314326D01*
X54672124Y-20163240D01*
X54764995Y-20027607D01*
X54882438Y-19912598D01*
X55019987Y-19822588D01*
X55172398Y-19761010D01*
X55333863Y-19730209D01*
X55498244Y-19731357D01*
X55498244Y-19731357D01*
G37*
G36*
X58038244Y-19731357D02*
X58199259Y-19764409D01*
X58350802Y-19828111D01*
X58487074Y-19920029D01*
X58602907Y-20036672D01*
X58693869Y-20173582D01*
X58756511Y-20325563D01*
X58788369Y-20486456D01*
X58788369Y-20486466D01*
X58788437Y-20486810D01*
X58785816Y-20674563D01*
X58785738Y-20674906D01*
X58785738Y-20674909D01*
X58749398Y-20834861D01*
X58682541Y-20985025D01*
X58587785Y-21119347D01*
X58468746Y-21232708D01*
X58329954Y-21320788D01*
X58176700Y-21380231D01*
X58014820Y-21408775D01*
X57850474Y-21405332D01*
X57689929Y-21370035D01*
X57539295Y-21304224D01*
X57404319Y-21210413D01*
X57290131Y-21092168D01*
X57201084Y-20953994D01*
X57140570Y-20801153D01*
X57110898Y-20639481D01*
X57113192Y-20475116D01*
X57147370Y-20314326D01*
X57212124Y-20163240D01*
X57304995Y-20027607D01*
X57422438Y-19912598D01*
X57559987Y-19822588D01*
X57712398Y-19761010D01*
X57873863Y-19730209D01*
X58038244Y-19731357D01*
X58038244Y-19731357D01*
G37*
G36*
X60578244Y-19731357D02*
X60739259Y-19764409D01*
X60890802Y-19828111D01*
X61027074Y-19920029D01*
X61142907Y-20036672D01*
X61233869Y-20173582D01*
X61296511Y-20325563D01*
X61328369Y-20486456D01*
X61328369Y-20486466D01*
X61328437Y-20486810D01*
X61325816Y-20674563D01*
X61325738Y-20674906D01*
X61325738Y-20674909D01*
X61289398Y-20834861D01*
X61222541Y-20985025D01*
X61127785Y-21119347D01*
X61008746Y-21232708D01*
X60869954Y-21320788D01*
X60716700Y-21380231D01*
X60554820Y-21408775D01*
X60390474Y-21405332D01*
X60229929Y-21370035D01*
X60079295Y-21304224D01*
X59944319Y-21210413D01*
X59830131Y-21092168D01*
X59741084Y-20953994D01*
X59680570Y-20801153D01*
X59650898Y-20639481D01*
X59653192Y-20475116D01*
X59687370Y-20314326D01*
X59752124Y-20163240D01*
X59844995Y-20027607D01*
X59962438Y-19912598D01*
X60099987Y-19822588D01*
X60252398Y-19761010D01*
X60413863Y-19730209D01*
X60578244Y-19731357D01*
X60578244Y-19731357D01*
G37*
G36*
X63118244Y-19731357D02*
X63279259Y-19764409D01*
X63430802Y-19828111D01*
X63567074Y-19920029D01*
X63682907Y-20036672D01*
X63773869Y-20173582D01*
X63836511Y-20325563D01*
X63868369Y-20486456D01*
X63868369Y-20486466D01*
X63868437Y-20486810D01*
X63865816Y-20674563D01*
X63865738Y-20674906D01*
X63865738Y-20674909D01*
X63829398Y-20834861D01*
X63762541Y-20985025D01*
X63667785Y-21119347D01*
X63548746Y-21232708D01*
X63409954Y-21320788D01*
X63256700Y-21380231D01*
X63094820Y-21408775D01*
X62930474Y-21405332D01*
X62769929Y-21370035D01*
X62619295Y-21304224D01*
X62484319Y-21210413D01*
X62370131Y-21092168D01*
X62281084Y-20953994D01*
X62220570Y-20801153D01*
X62190898Y-20639481D01*
X62193192Y-20475116D01*
X62227370Y-20314326D01*
X62292124Y-20163240D01*
X62384995Y-20027607D01*
X62502438Y-19912598D01*
X62639987Y-19822588D01*
X62792398Y-19761010D01*
X62953863Y-19730209D01*
X63118244Y-19731357D01*
X63118244Y-19731357D01*
G37*
G36*
X88518244Y-19731357D02*
X88679259Y-19764409D01*
X88830802Y-19828111D01*
X88967074Y-19920029D01*
X89082907Y-20036672D01*
X89173869Y-20173582D01*
X89236511Y-20325563D01*
X89268369Y-20486456D01*
X89268369Y-20486466D01*
X89268437Y-20486810D01*
X89265816Y-20674563D01*
X89265738Y-20674906D01*
X89265738Y-20674909D01*
X89229398Y-20834861D01*
X89162541Y-20985025D01*
X89067785Y-21119347D01*
X88948746Y-21232708D01*
X88809954Y-21320788D01*
X88656700Y-21380231D01*
X88494820Y-21408775D01*
X88330474Y-21405332D01*
X88169929Y-21370035D01*
X88019295Y-21304224D01*
X87884319Y-21210413D01*
X87770131Y-21092168D01*
X87681084Y-20953994D01*
X87620570Y-20801153D01*
X87590898Y-20639481D01*
X87593192Y-20475116D01*
X87627370Y-20314326D01*
X87692124Y-20163240D01*
X87784995Y-20027607D01*
X87902438Y-19912598D01*
X88039987Y-19822588D01*
X88192398Y-19761010D01*
X88353863Y-19730209D01*
X88518244Y-19731357D01*
X88518244Y-19731357D01*
G37*
G36*
X65658244Y-19731357D02*
X65819259Y-19764409D01*
X65970802Y-19828111D01*
X66107074Y-19920029D01*
X66222907Y-20036672D01*
X66313869Y-20173582D01*
X66376511Y-20325563D01*
X66408369Y-20486456D01*
X66408369Y-20486466D01*
X66408437Y-20486810D01*
X66405816Y-20674563D01*
X66405738Y-20674906D01*
X66405738Y-20674909D01*
X66369398Y-20834861D01*
X66302541Y-20985025D01*
X66207785Y-21119347D01*
X66088746Y-21232708D01*
X65949954Y-21320788D01*
X65796700Y-21380231D01*
X65634820Y-21408775D01*
X65470474Y-21405332D01*
X65309929Y-21370035D01*
X65159295Y-21304224D01*
X65024319Y-21210413D01*
X64910131Y-21092168D01*
X64821084Y-20953994D01*
X64760570Y-20801153D01*
X64730898Y-20639481D01*
X64733192Y-20475116D01*
X64767370Y-20314326D01*
X64832124Y-20163240D01*
X64924995Y-20027607D01*
X65042438Y-19912598D01*
X65179987Y-19822588D01*
X65332398Y-19761010D01*
X65493863Y-19730209D01*
X65658244Y-19731357D01*
X65658244Y-19731357D01*
G37*
M02*
