%TF.GenerationSoftware,KiCad,Pcbnew,4.0.5-e0-6337~49~ubuntu16.04.1*%
%TF.CreationDate,2017-07-25T12:16:49-07:00*%
%TF.ProjectId,mcphail-main-board,6D63706861696C2D6D61696E2D626F61,1.0*%
%TF.FileFunction,Copper,L1,Top,Signal*%
%FSLAX46Y46*%
G04 Gerber Fmt 4.6, Leading zero omitted, Abs format (unit mm)*
G04 Created by KiCad (PCBNEW 4.0.5-e0-6337~49~ubuntu16.04.1) date Tue Jul 25 12:16:49 2017*
%MOMM*%
%LPD*%
G01*
G04 APERTURE LIST*
%ADD10C,0.350000*%
%ADD11R,2.500000X5.100000*%
%ADD12C,10.200000*%
%ADD13R,1.000000X1.600000*%
%ADD14R,0.800000X0.750000*%
%ADD15R,1.000000X1.250000*%
%ADD16R,1.000000X2.500000*%
%ADD17R,1.600000X1.000000*%
%ADD18R,2.499360X1.800860*%
%ADD19R,2.032000X2.032000*%
%ADD20O,2.032000X2.032000*%
%ADD21R,2.032000X1.727200*%
%ADD22O,2.032000X1.727200*%
%ADD23R,1.400000X0.900000*%
%ADD24R,1.200000X1.150000*%
%ADD25R,1.450000X1.200000*%
%ADD26R,0.700000X1.000000*%
%ADD27R,1.000000X0.700000*%
%ADD28R,0.400000X1.350000*%
%ADD29R,1.600000X1.400000*%
%ADD30C,1.200000*%
%ADD31R,1.900000X1.900000*%
%ADD32R,1.727200X1.727200*%
%ADD33O,1.727200X1.727200*%
%ADD34C,1.524000*%
%ADD35C,4.000000*%
%ADD36R,1.000000X3.500000*%
%ADD37R,1.600000X3.400000*%
%ADD38R,0.500000X0.600000*%
%ADD39R,0.800000X1.700000*%
%ADD40R,1.500000X0.600000*%
%ADD41R,1.500000X0.550000*%
%ADD42R,0.550000X1.500000*%
%ADD43R,1.750000X0.650000*%
%ADD44R,0.730000X0.300000*%
%ADD45R,0.300000X0.730000*%
%ADD46R,1.250000X1.250000*%
%ADD47R,0.800100X0.800100*%
%ADD48C,1.727200*%
%ADD49R,1.905000X1.397000*%
%ADD50C,1.600000*%
%ADD51R,1.000000X3.000000*%
%ADD52R,0.600000X0.500000*%
%ADD53C,0.350000*%
G04 APERTURE END LIST*
D10*
D11*
X91651821Y-84577889D03*
X76351821Y-84577889D03*
D12*
X84001821Y-84577889D03*
D13*
X97516501Y-129731501D03*
X100516501Y-129731501D03*
D14*
X95761024Y-140911501D03*
X97261024Y-140911501D03*
D15*
X113996501Y-140517501D03*
X115996501Y-140517501D03*
D14*
X127684833Y-121001501D03*
X129184833Y-121001501D03*
D16*
X97516501Y-135031501D03*
X100516501Y-135031501D03*
D13*
X89876501Y-136461501D03*
X92876501Y-136461501D03*
D14*
X124184833Y-130751501D03*
X125684833Y-130751501D03*
D15*
X128286501Y-125317501D03*
X130286501Y-125317501D03*
D14*
X113331024Y-123451501D03*
X114831024Y-123451501D03*
D13*
X75056501Y-138761501D03*
X78056501Y-138761501D03*
D14*
X124374833Y-126701501D03*
X125874833Y-126701501D03*
D13*
X112596501Y-113301501D03*
X115596501Y-113301501D03*
D15*
X120876501Y-135067501D03*
X122876501Y-135067501D03*
D16*
X104926501Y-127301501D03*
X107926501Y-127301501D03*
X112596501Y-118601501D03*
X115596501Y-118601501D03*
X89876501Y-141761501D03*
X92876501Y-141761501D03*
D14*
X110084833Y-141901501D03*
X111584833Y-141901501D03*
D16*
X120006501Y-113751501D03*
X123006501Y-113751501D03*
D13*
X105186501Y-122001501D03*
X108186501Y-122001501D03*
X97516501Y-124881501D03*
X100516501Y-124881501D03*
D16*
X104446501Y-133001501D03*
X107446501Y-133001501D03*
D13*
X82466501Y-138761501D03*
X85466501Y-138761501D03*
X80736501Y-124881501D03*
X83736501Y-124881501D03*
D15*
X83784833Y-143477501D03*
X85784833Y-143477501D03*
D14*
X118481024Y-118601501D03*
X119981024Y-118601501D03*
X116964833Y-135601501D03*
X118464833Y-135601501D03*
X120014833Y-130751501D03*
X121514833Y-130751501D03*
D15*
X128286501Y-127907501D03*
X130286501Y-127907501D03*
D14*
X132681024Y-83411501D03*
X134181024Y-83411501D03*
X110241024Y-98051501D03*
X111741024Y-98051501D03*
X118451024Y-92681501D03*
X119951024Y-92681501D03*
X132154833Y-88631501D03*
X133654833Y-88631501D03*
D15*
X81466501Y-106137501D03*
X83466501Y-106137501D03*
D14*
X120004833Y-96931501D03*
X121504833Y-96931501D03*
X115361024Y-98051501D03*
X116861024Y-98051501D03*
X112321024Y-102101501D03*
X113821024Y-102101501D03*
X123571024Y-92881501D03*
X125071024Y-92881501D03*
X103791024Y-92311501D03*
X105291024Y-92311501D03*
X94536501Y-105121501D03*
X96036501Y-105121501D03*
X107201024Y-102961501D03*
X108701024Y-102961501D03*
X116606501Y-102101501D03*
X118106501Y-102101501D03*
D13*
X136556501Y-120491501D03*
X139556501Y-120491501D03*
D17*
X106741501Y-109243499D03*
X106741501Y-106243499D03*
D13*
X136556501Y-125341501D03*
X139556501Y-125341501D03*
X131346501Y-99651501D03*
X134346501Y-99651501D03*
D14*
X132911024Y-104101501D03*
X134411024Y-104101501D03*
X139014833Y-100821501D03*
X140514833Y-100821501D03*
D15*
X144116501Y-97147501D03*
X146116501Y-97147501D03*
X146656501Y-127577501D03*
X148656501Y-127577501D03*
D18*
X87787521Y-106371501D03*
X91785481Y-106371501D03*
D14*
X116666262Y-88631501D03*
X118166262Y-88631501D03*
X94576262Y-92951501D03*
X96076262Y-92951501D03*
D18*
X137197521Y-143681501D03*
X141195481Y-143681501D03*
D19*
X81136262Y-132761500D03*
D20*
X81136262Y-135301500D03*
D19*
X107813881Y-116001500D03*
D20*
X107813881Y-118541500D03*
D21*
X77636500Y-113911501D03*
D22*
X77636500Y-116451501D03*
X77636500Y-118991501D03*
X77636500Y-121531501D03*
X77636500Y-124071501D03*
X77636500Y-126611501D03*
D23*
X129447901Y-76431501D03*
D24*
X119183001Y-76295001D03*
D25*
X129422901Y-74131501D03*
D24*
X119183001Y-73695001D03*
D26*
X121783001Y-72655001D03*
X120683001Y-72655001D03*
X122883001Y-72655001D03*
X123983001Y-72655001D03*
X125083001Y-72655001D03*
X128383001Y-72655001D03*
X127283001Y-72655001D03*
X126183001Y-72655001D03*
D27*
X129647901Y-75281501D03*
D28*
X101776501Y-97462701D03*
X102426501Y-97462701D03*
X103075601Y-97462701D03*
X103726501Y-97462701D03*
X104376501Y-97462701D03*
D29*
X99876501Y-97687701D03*
D30*
X99526501Y-100137701D03*
D31*
X101876501Y-100137701D03*
X104276501Y-100137701D03*
D29*
X106276501Y-97687701D03*
D30*
X106626501Y-100137701D03*
D32*
X112814501Y-79645501D03*
D33*
X115354501Y-79645501D03*
X112814501Y-82185501D03*
X115354501Y-82185501D03*
X112814501Y-84725501D03*
X115354501Y-84725501D03*
D34*
X76847701Y-74371500D03*
X79387701Y-74371500D03*
X81927701Y-74371500D03*
X84467701Y-74371500D03*
X87007701Y-74371500D03*
X89547701Y-74371500D03*
X92087701Y-74371500D03*
X94627701Y-74371500D03*
X97167701Y-74371500D03*
X99707701Y-74371500D03*
X102247701Y-74371500D03*
X104787701Y-74371500D03*
X107327701Y-74371500D03*
X109867701Y-74371500D03*
X112407701Y-74371500D03*
X114947701Y-74371500D03*
D35*
X144780000Y-72740520D03*
X144780000Y-78740000D03*
X149479000Y-75740260D03*
D36*
X139616901Y-131776501D03*
X141616901Y-131776501D03*
D37*
X137216901Y-137326501D03*
X144016901Y-137326501D03*
D14*
X144843881Y-123253501D03*
X146343881Y-123253501D03*
X127643881Y-104113501D03*
X129143881Y-104113501D03*
X127643881Y-108183501D03*
X129143881Y-108183501D03*
X113896501Y-142841501D03*
X115396501Y-142841501D03*
X130588166Y-112901501D03*
X132088166Y-112901501D03*
X120110071Y-126701501D03*
X121610071Y-126701501D03*
X112700071Y-136201501D03*
X114200071Y-136201501D03*
X100738166Y-141901501D03*
X102238166Y-141901501D03*
X118338166Y-122651501D03*
X119838166Y-122651501D03*
X128376501Y-134281501D03*
X129876501Y-134281501D03*
X130588166Y-116951501D03*
X132088166Y-116951501D03*
X105578166Y-141901501D03*
X107078166Y-141901501D03*
X131826501Y-134281501D03*
X133326501Y-134281501D03*
X103258166Y-137851501D03*
X104758166Y-137851501D03*
X125748166Y-112901501D03*
X127248166Y-112901501D03*
X120776501Y-137391501D03*
X122276501Y-137391501D03*
X124226501Y-138851501D03*
X125726501Y-138851501D03*
X110188166Y-132151501D03*
X111688166Y-132151501D03*
X110668166Y-127501501D03*
X112168166Y-127501501D03*
X118046501Y-141441501D03*
X119546501Y-141441501D03*
X124926501Y-134801501D03*
X126426501Y-134801501D03*
X128186501Y-130231501D03*
X129686501Y-130231501D03*
D15*
X79520071Y-143477501D03*
X81520071Y-143477501D03*
X75160071Y-143477501D03*
X77160071Y-143477501D03*
D14*
X131711976Y-121001501D03*
X133211976Y-121001501D03*
X115508166Y-127501501D03*
X117008166Y-127501501D03*
X131636501Y-130231501D03*
X133136501Y-130231501D03*
X123178166Y-122651501D03*
X124678166Y-122651501D03*
X121711976Y-142901501D03*
X123211976Y-142901501D03*
X115028166Y-131551501D03*
X116528166Y-131551501D03*
X128376501Y-138331501D03*
X129876501Y-138331501D03*
X108098166Y-137851501D03*
X109598166Y-137851501D03*
X125748166Y-116951501D03*
X127248166Y-116951501D03*
X120056501Y-100981501D03*
X121556501Y-100981501D03*
X135966501Y-87461501D03*
X137466501Y-87461501D03*
X127266501Y-96931501D03*
X128766501Y-96931501D03*
X131796501Y-92681501D03*
X133296501Y-92681501D03*
X123816501Y-96931501D03*
X125316501Y-96931501D03*
X127856501Y-92881501D03*
X129356501Y-92881501D03*
X136966501Y-83411501D03*
X138466501Y-83411501D03*
X139610071Y-96771501D03*
X141110071Y-96771501D03*
X142826501Y-103521501D03*
X144326501Y-103521501D03*
X136436501Y-108921501D03*
X137936501Y-108921501D03*
X137196501Y-104871501D03*
X138696501Y-104871501D03*
D38*
X111051500Y-108310405D03*
X111051500Y-107210405D03*
D14*
X144016501Y-99471501D03*
X145516501Y-99471501D03*
X149730071Y-123241501D03*
X151230071Y-123241501D03*
X147466501Y-99471501D03*
X148966501Y-99471501D03*
X132530071Y-108151501D03*
X134030071Y-108151501D03*
X140646501Y-107571501D03*
X142146501Y-107571501D03*
D39*
X112868501Y-93455501D03*
X109468501Y-93455501D03*
D40*
X81036901Y-113141901D03*
X81036901Y-114411901D03*
X81036901Y-115681901D03*
X81036901Y-116951901D03*
X81036901Y-118221901D03*
X81036901Y-119491901D03*
X81036901Y-120761901D03*
X86436901Y-120761901D03*
X86436901Y-119491901D03*
X86436901Y-118221901D03*
X86436901Y-116951901D03*
X86436901Y-115681901D03*
X86436901Y-114411901D03*
X86436901Y-113141901D03*
X89186901Y-113141901D03*
X89186901Y-114411901D03*
X89186901Y-115681901D03*
X89186901Y-116951901D03*
X89186901Y-118221901D03*
X89186901Y-119491901D03*
X89186901Y-120761901D03*
X94586901Y-120761901D03*
X94586901Y-119491901D03*
X94586901Y-118221901D03*
X94586901Y-116951901D03*
X94586901Y-115681901D03*
X94586901Y-114411901D03*
X94586901Y-113141901D03*
X97336901Y-113141901D03*
X97336901Y-114411901D03*
X97336901Y-115681901D03*
X97336901Y-116951901D03*
X97336901Y-118221901D03*
X97336901Y-119491901D03*
X97336901Y-120761901D03*
X102736901Y-120761901D03*
X102736901Y-119491901D03*
X102736901Y-118221901D03*
X102736901Y-116951901D03*
X102736901Y-115681901D03*
X102736901Y-114411901D03*
X102736901Y-113141901D03*
X89666901Y-124721901D03*
X89666901Y-125991901D03*
X89666901Y-127261901D03*
X89666901Y-128531901D03*
X89666901Y-129801901D03*
X89666901Y-131071901D03*
X89666901Y-132341901D03*
X95066901Y-132341901D03*
X95066901Y-131071901D03*
X95066901Y-129801901D03*
X95066901Y-128531901D03*
X95066901Y-127261901D03*
X95066901Y-125991901D03*
X95066901Y-124721901D03*
X132246901Y-72071901D03*
X132246901Y-73341901D03*
X132246901Y-74611901D03*
X132246901Y-75881901D03*
X132246901Y-77151901D03*
X132246901Y-78421901D03*
X132246901Y-79691901D03*
X137646901Y-79691901D03*
X137646901Y-78421901D03*
X137646901Y-77151901D03*
X137646901Y-75881901D03*
X137646901Y-74611901D03*
X137646901Y-73341901D03*
X137646901Y-72071901D03*
D41*
X96690548Y-80261501D03*
X96690548Y-81061501D03*
X96690548Y-81861501D03*
X96690548Y-82661501D03*
X96690548Y-83461501D03*
X96690548Y-84261501D03*
X96690548Y-85061501D03*
X96690548Y-85861501D03*
X96690548Y-86661501D03*
X96690548Y-87461501D03*
X96690548Y-88261501D03*
D42*
X98390548Y-89961501D03*
X99190548Y-89961501D03*
X99990548Y-89961501D03*
X100790548Y-89961501D03*
X101590548Y-89961501D03*
X102390548Y-89961501D03*
X103190548Y-89961501D03*
X103990548Y-89961501D03*
X104790548Y-89961501D03*
X105590548Y-89961501D03*
X106390548Y-89961501D03*
D41*
X108090548Y-88261501D03*
X108090548Y-87461501D03*
X108090548Y-86661501D03*
X108090548Y-85861501D03*
X108090548Y-85061501D03*
X108090548Y-84261501D03*
X108090548Y-83461501D03*
X108090548Y-82661501D03*
X108090548Y-81861501D03*
X108090548Y-81061501D03*
X108090548Y-80261501D03*
D42*
X106390548Y-78561501D03*
X105590548Y-78561501D03*
X104790548Y-78561501D03*
X103990548Y-78561501D03*
X103190548Y-78561501D03*
X102390548Y-78561501D03*
X101590548Y-78561501D03*
X100790548Y-78561501D03*
X99990548Y-78561501D03*
X99190548Y-78561501D03*
X98390548Y-78561501D03*
D43*
X78526738Y-93457504D03*
X78526738Y-94727504D03*
X78526738Y-95997504D03*
X78526738Y-97267504D03*
X84126738Y-97267504D03*
X84126738Y-95997504D03*
X84126738Y-94727504D03*
X84126738Y-93457504D03*
X77193405Y-99917504D03*
X77193405Y-101187504D03*
X77193405Y-102457504D03*
X77193405Y-103727504D03*
X82793405Y-103727504D03*
X82793405Y-102457504D03*
X82793405Y-101187504D03*
X82793405Y-99917504D03*
D44*
X138310000Y-114840000D03*
X138310000Y-115340000D03*
X138310000Y-115840000D03*
X138310000Y-116340000D03*
X138310000Y-116840000D03*
D45*
X139275000Y-117805000D03*
X139775000Y-117805000D03*
X140275000Y-117805000D03*
X140775000Y-117805000D03*
X141275000Y-117805000D03*
D44*
X142240000Y-116840000D03*
X142240000Y-116340000D03*
X142240000Y-115840000D03*
X142240000Y-115340000D03*
X142240000Y-114840000D03*
D45*
X141275000Y-113875000D03*
X140775000Y-113875000D03*
X140275000Y-113875000D03*
X139775000Y-113875000D03*
X139275000Y-113875000D03*
D46*
X140900000Y-116465000D03*
X140900000Y-115215000D03*
X139650000Y-116465000D03*
X139650000Y-115215000D03*
D44*
X143390000Y-91440000D03*
X143390000Y-91940000D03*
X143390000Y-92440000D03*
X143390000Y-92940000D03*
X143390000Y-93440000D03*
D45*
X144355000Y-94405000D03*
X144855000Y-94405000D03*
X145355000Y-94405000D03*
X145855000Y-94405000D03*
X146355000Y-94405000D03*
D44*
X147320000Y-93440000D03*
X147320000Y-92940000D03*
X147320000Y-92440000D03*
X147320000Y-91940000D03*
X147320000Y-91440000D03*
D45*
X146355000Y-90475000D03*
X145855000Y-90475000D03*
X145355000Y-90475000D03*
X144855000Y-90475000D03*
X144355000Y-90475000D03*
D46*
X145980000Y-93065000D03*
X145980000Y-91815000D03*
X144730000Y-93065000D03*
X144730000Y-91815000D03*
D47*
X117480000Y-106680000D03*
X119380000Y-106680000D03*
X118430000Y-104681020D03*
D48*
X134106500Y-139593900D03*
D49*
X103736901Y-103278301D03*
X99266501Y-103278301D03*
X103736901Y-105767501D03*
X99266501Y-105767501D03*
D50*
X89423101Y-101238101D03*
X94303101Y-101238101D03*
D51*
X125146501Y-89731501D03*
X129746501Y-89731501D03*
D52*
X76633881Y-105731500D03*
X77733881Y-105731500D03*
D53*
X81136262Y-132761500D03*
X81136262Y-135301500D03*
X107813881Y-116001500D03*
X107813881Y-118541500D03*
X77636500Y-113911501D03*
X77636500Y-116451501D03*
X77636500Y-118991501D03*
X77636500Y-121531501D03*
X77636500Y-124071501D03*
X77636500Y-126611501D03*
X99526501Y-100137701D03*
X106626501Y-100137701D03*
X112814501Y-79645501D03*
X115354501Y-79645501D03*
X112814501Y-82185501D03*
X115354501Y-82185501D03*
X112814501Y-84725501D03*
X115354501Y-84725501D03*
X76847701Y-74371500D03*
X79387701Y-74371500D03*
X81927701Y-74371500D03*
X84467701Y-74371500D03*
X87007701Y-74371500D03*
X89547701Y-74371500D03*
X92087701Y-74371500D03*
X94627701Y-74371500D03*
X97167701Y-74371500D03*
X99707701Y-74371500D03*
X102247701Y-74371500D03*
X104787701Y-74371500D03*
X107327701Y-74371500D03*
X109867701Y-74371500D03*
X112407701Y-74371500D03*
X114947701Y-74371500D03*
X144780000Y-72740520D03*
X144780000Y-78740000D03*
X149479000Y-75740260D03*
X134106500Y-139593900D03*
X89423101Y-101238101D03*
X94303101Y-101238101D03*
M02*
