M48
;DRILL file {KiCad 4.0.5-e0-6337~49~ubuntu16.04.1} date Mon Aug 14 10:43:52 2017
;FORMAT={-:-/ absolute / metric / decimal}
FMAT,2
METRIC,TZ
T1C0.330
T2C0.762
T3C0.800
T4C1.016
T5C1.200
T6C3.000
%
G90
G05
M71
T1
X25.756Y-74.397
X29.141Y-87.538
X29.268Y-91.374
X29.972Y-74.397
X30.505Y-52.781
X31.605Y-92.632
X31.732Y-87.868
X32.093Y-59.258
X32.258Y-66.777
X32.288Y-69.355
X33.528Y-92.634
X33.731Y-88.113
X35.014Y-62.738
X35.103Y-59.233
X35.941Y-66.599
X36.119Y-80.391
X36.119Y-81.458
X36.202Y-88.021
X36.411Y-77.457
X37.059Y-70.002
X37.681Y-64.897
X38.532Y-79.375
X39.268Y-78.054
X39.352Y-88.072
X41.384Y-88.072
X45.009Y-47.244
X45.974Y-72.746
X45.994Y-89.189
X46.238Y-74.231
X48.514Y-68.453
X49.784Y-67.589
X51.003Y-75.819
X52.781Y-52.603
X53.41Y-50.114
X54.458Y-73.685
X54.508Y-69.164
X54.661Y-50.093
X54.953Y-88.072
X56.083Y-48.861
X56.134Y-47.473
X56.286Y-80.277
X56.733Y-51.486
X57.249Y-73.609
X57.455Y-51.093
X58.522Y-46.101
X58.699Y-92.85
X58.763Y-91.834
X58.83Y-81.247
X59.08Y-80.264
X59.842Y-65.253
X59.853Y-73.634
X60.096Y-66.37
X60.604Y-52.857
X60.798Y-92.297
X60.993Y-88.567
X61.112Y-74.435
X61.722Y-78.969
X62.11Y-91.564
X62.314Y-88.669
X62.517Y-77.267
X62.56Y-76.302
X63.144Y-71.75
X63.462Y-81.242
X63.525Y-84.785
X63.627Y-78.41
X63.678Y-69.621
X63.678Y-73.533
X63.926Y-66.847
X64.478Y-83.007
X64.77Y-79.769
X64.872Y-72.898
X65.176Y-51.486
X65.367Y-82.309
X65.583Y-76.53
X65.608Y-91.516
X65.684Y-79.261
X65.684Y-94.742
X65.684Y-97.536
X66.345Y-53.975
X67.335Y-79.426
X67.412Y-67.158
X67.412Y-76.378
X67.589Y-87.122
X67.666Y-91.389
X67.716Y-97.409
X69.291Y-70.764
X69.393Y-92.888
X69.482Y-76.276
X69.494Y-67.412
X69.748Y-60.247
X69.81Y-74.117
X69.85Y-71.399
X69.875Y-69.494
X70.663Y-65.202
X70.764Y-66.37
X70.764Y-67.259
X70.79Y-62.89
X71.044Y-81.534
X71.12Y-70.637
X71.305Y-71.755
X71.78Y-66.37
X72.187Y-60.223
X72.212Y-62.916
X72.314Y-65.354
X72.593Y-71.806
X72.644Y-61.392
X72.898Y-68.809
X73.Y-52.172
X74.27Y-83.261
X75.387Y-52.146
X75.59Y-56.693
X75.844Y-63.602
X75.87Y-70.256
X76.022Y-65.368
X76.022Y-71.298
X77.165Y-92.177
X77.241Y-81.509
X77.876Y-63.525
X77.943Y-70.248
X77.978Y-66.218
X77.997Y-56.718
X78.994Y-51.347
X79.045Y-63.144
X79.045Y-66.192
X79.223Y-62.128
X79.325Y-71.492
X79.451Y-80.391
X79.654Y-59.461
X79.807Y-57.201
X79.832Y-47.041
X79.832Y-47.981
X80.01Y-65.278
X80.467Y-75.565
X80.62Y-81.763
X80.67Y-51.347
X81.255Y-54.051
X81.61Y-72.415
X81.636Y-82.169
X81.686Y-69.24
X81.991Y-71.247
X82.728Y-66.472
X82.855Y-67.742
X82.956Y-75.362
X83.541Y-57.734
X83.542Y-70.106
X84.176Y-52.146
X84.785Y-53.924
X84.887Y-67.64
X84.988Y-75.362
X85.039Y-82.779
X85.11Y-69.507
X85.649Y-68.059
X85.649Y-80.566
X85.649Y-69.97
X85.801Y-45.847
X85.903Y-92.1
X86.766Y-75.514
X86.766Y-82.321
X88.24Y-79.426
X88.443Y-65.202
X89.56Y-45.898
X89.662Y-69.342
X90.602Y-65.202
X91.796Y-57.429
X93.447Y-45.847
X93.878Y-50.749
X93.98Y-53.772
X95.682Y-72.669
X95.682Y-76.657
X97.841Y-93.142
X98.501Y-81.89
T2
X100.127Y-53.111
X100.127Y-55.651
X100.127Y-58.191
X100.127Y-60.731
X100.127Y-63.271
X100.127Y-65.811
X100.127Y-68.351
X100.127Y-70.891
X100.127Y-73.431
X100.127Y-75.971
X100.127Y-78.511
X100.127Y-81.051
X100.127Y-83.591
X100.127Y-86.131
X100.127Y-88.671
X100.127Y-91.211
T3
X90.957Y-71.831
X90.957Y-76.711
X92.481Y-83.682
X92.481Y-86.182
T4
X50.038Y-51.994
X52.73Y-81.166
X52.73Y-83.706
X52.73Y-86.246
X52.73Y-88.786
X52.73Y-91.326
X52.73Y-93.866
X59.639Y-95.669
X60.096Y-57.988
X60.096Y-60.528
X62.179Y-95.669
X62.636Y-57.988
X62.636Y-60.528
X65.176Y-57.988
X65.176Y-60.528
X91.295Y-93.663
X93.835Y-93.663
T5
X25.299Y-53.266
X25.299Y-60.366
T6
X31.897Y-46.788
X34.897Y-51.487
X37.897Y-46.788
T0
M30
