M48
;DRILL file {KiCad 4.0.7-e2-6376~58~ubuntu16.04.1} date Sun Sep 24 11:29:09 2017
;FORMAT={-:-/ absolute / metric / decimal}
FMAT,2
METRIC,TZ
T1C0.330
T2C0.762
T3C0.800
T4C1.016
T5C1.200
T6C3.000
%
G90
G05
M71
T1
X29.141Y-87.538
X29.268Y-91.374
X29.972Y-74.397
X30.505Y-52.781
X31.605Y-92.632
X31.732Y-87.868
X32.093Y-59.258
X32.258Y-66.421
X32.288Y-69.355
X33.528Y-92.634
X33.731Y-88.113
X35.014Y-62.738
X35.027Y-82.22
X35.103Y-59.233
X35.941Y-66.599
X36.202Y-88.021
X36.297Y-92.659
X36.411Y-77.457
X36.881Y-79.629
X37.059Y-70.002
X37.681Y-64.897
X38.532Y-79.375
X39.268Y-78.054
X39.352Y-88.072
X41.384Y-88.072
X45.009Y-47.244
X45.974Y-72.746
X45.994Y-89.189
X46.238Y-74.231
X48.514Y-68.453
X49.784Y-67.589
X51.003Y-75.819
X52.781Y-52.603
X53.084Y-49.932
X54.458Y-73.685
X54.508Y-69.164
X54.953Y-88.072
X56.134Y-47.473
X56.286Y-80.277
X56.733Y-51.486
X57.249Y-73.609
X57.607Y-51.613
X58.522Y-46.101
X58.699Y-92.85
X58.763Y-91.834
X59.207Y-80.264
X59.614Y-70.46
X59.842Y-65.253
X59.853Y-73.634
X60.096Y-66.37
X60.604Y-52.857
X60.655Y-88.494
X60.798Y-92.297
X61.112Y-74.435
X61.62Y-70.383
X61.976Y-78.715
X62.11Y-91.564
X62.314Y-88.669
X62.593Y-77.191
X62.611Y-76.073
X63.144Y-71.75
X63.398Y-81.407
X63.525Y-84.785
X63.678Y-69.621
X63.678Y-73.533
X63.703Y-78.334
X63.926Y-66.847
X64.478Y-83.007
X64.872Y-72.898
X64.872Y-79.667
X65.176Y-51.486
X65.367Y-82.309
X65.583Y-76.53
X65.608Y-91.516
X65.684Y-94.742
X65.684Y-97.536
X65.913Y-79.032
X66.345Y-53.975
X66.548Y-79.705
X67.338Y-79.425
X67.412Y-76.378
X67.589Y-87.122
X67.666Y-91.389
X67.716Y-97.409
X68.555Y-65.43
X68.834Y-71.145
X69.342Y-74.574
X69.393Y-92.888
X69.482Y-76.276
X69.647Y-67.513
X69.748Y-60.247
X69.799Y-70.561
X70.307Y-65.151
X70.434Y-62.89
X70.764Y-66.624
X70.764Y-67.513
X70.887Y-81.293
X71.12Y-70.637
X71.778Y-71.208
X71.78Y-66.624
X71.78Y-74.168
X72.187Y-60.223
X72.314Y-65.354
X72.456Y-62.983
X72.644Y-61.392
X72.898Y-68.453
X73.Y-52.172
X73.152Y-70.815
X74.27Y-83.261
X75.387Y-52.146
X75.59Y-56.693
X75.616Y-71.653
X75.844Y-63.602
X76.022Y-65.368
X77.165Y-92.177
X77.241Y-81.509
X77.546Y-70.46
X77.673Y-82.423
X77.876Y-63.525
X77.978Y-66.218
X77.997Y-56.718
X78.283Y-65.507
X79.045Y-63.144
X79.223Y-62.128
X79.299Y-82.321
X79.325Y-71.492
X79.602Y-65.251
X79.654Y-59.461
X79.72Y-67.817
X79.731Y-47.473
X79.756Y-48.311
X79.807Y-57.201
X80.467Y-75.565
X80.543Y-70.612
X80.62Y-81.547
X80.874Y-79.045
X81.088Y-71.685
X81.255Y-54.051
X81.559Y-78.08
X81.736Y-72.384
X82.03Y-71.361
X82.55Y-66.497
X82.956Y-75.362
X83.541Y-57.734
X84.049Y-72.822
X84.176Y-52.146
X84.785Y-53.924
X84.963Y-67.843
X84.988Y-69.799
X84.988Y-75.362
X85.573Y-66.497
X85.649Y-80.566
X85.801Y-45.847
X85.903Y-92.1
X86.563Y-82.525
X86.766Y-75.514
X88.24Y-79.426
X88.443Y-65.202
X89.56Y-45.898
X90.602Y-65.202
X91.796Y-57.429
X93.447Y-45.847
X93.878Y-50.749
X93.98Y-53.772
X95.682Y-72.669
X95.682Y-76.657
X97.841Y-93.142
X98.468Y-82.017
T2
X100.127Y-53.111
X100.127Y-55.651
X100.127Y-58.191
X100.127Y-60.731
X100.127Y-63.271
X100.127Y-65.811
X100.127Y-68.351
X100.127Y-70.891
X100.127Y-73.431
X100.127Y-75.971
X100.127Y-78.511
X100.127Y-81.051
X100.127Y-83.591
X100.127Y-86.131
X100.127Y-88.671
X100.127Y-91.211
T3
X90.957Y-71.831
X90.957Y-76.711
X92.481Y-83.682
X92.481Y-86.182
T4
X50.038Y-51.994
X52.73Y-81.166
X52.73Y-83.706
X52.73Y-86.246
X52.73Y-88.786
X52.73Y-91.326
X52.73Y-93.866
X59.639Y-95.669
X60.096Y-57.988
X60.096Y-60.528
X62.179Y-95.669
X62.636Y-57.988
X62.636Y-60.528
X65.176Y-57.988
X65.176Y-60.528
X91.295Y-93.663
X93.835Y-93.663
T5
X25.299Y-53.266
X25.299Y-60.366
T6
X31.897Y-46.788
X34.897Y-51.487
X37.897Y-46.788
T0
M30
