G04 This is an RS-274x file exported by *
G04 gerbv version 2.6.0 *
G04 More information is available about gerbv at *
G04 http://gerbv.gpleda.org/ *
G04 --End of header info--*
%MOIN*%
%FSLAX34Y34*%
%IPPOS*%
G04 --Define apertures--*
%ADD10C,0.0050*%
%ADD11C,0.0060*%
%ADD12C,0.0079*%
%ADD13C,0.0118*%
%ADD14C,0.0138*%
%ADD15C,0.0059*%
G04 --Start main section--*
G54D11*
G01X0067008Y-016456D02*
G75*
G03X0066004Y-017524I0000000J-001006D01*
G01X0097750Y-017500D02*
G01X0097750Y-037750D01*
G01X0096750Y-038752D02*
G75*
G03X0097750Y-037695I0000000J0001002D01*
G01X0067057Y-038750D02*
G01X0096807Y-038750D01*
G01X0066000Y-037750D02*
G75*
G03X0067057Y-038750I0001002J0000000D01*
G01X0097745Y-017500D02*
G75*
G03X0096805Y-016461I-000940J0000094D01*
G01X0066000Y-037750D02*
G01X0066000Y-017350D01*
G01X0067008Y-016461D02*
G01X0096850Y-016461D01*
G54D12*
G01X0066915Y-029095D02*
G01X0067045Y-029225D01*
G01X0067045Y-029095D02*
G01X0066915Y-029225D01*
G01X0068248Y-034269D02*
G01X0068378Y-034399D01*
G01X0068378Y-034269D02*
G01X0068248Y-034399D01*
G01X0068298Y-035779D02*
G01X0068428Y-035909D01*
G01X0068428Y-035779D02*
G01X0068298Y-035909D01*
G01X0068575Y-029095D02*
G01X0068705Y-029225D01*
G01X0068705Y-029095D02*
G01X0068575Y-029225D01*
G01X0068785Y-020585D02*
G01X0068915Y-020715D01*
G01X0068915Y-020585D02*
G01X0068785Y-020715D01*
G01X0069218Y-036274D02*
G01X0069348Y-036404D01*
G01X0069348Y-036274D02*
G01X0069218Y-036404D01*
G01X0069268Y-034399D02*
G01X0069398Y-034529D01*
G01X0069398Y-034399D02*
G01X0069268Y-034529D01*
G01X0069410Y-023135D02*
G01X0069540Y-023265D01*
G01X0069540Y-023135D02*
G01X0069410Y-023265D01*
G01X0069475Y-026095D02*
G01X0069605Y-026225D01*
G01X0069605Y-026095D02*
G01X0069475Y-026225D01*
G01X0069487Y-027110D02*
G01X0069617Y-027240D01*
G01X0069617Y-027110D02*
G01X0069487Y-027240D01*
G01X0069975Y-036275D02*
G01X0070105Y-036405D01*
G01X0070105Y-036275D02*
G01X0069975Y-036405D01*
G01X0070055Y-034495D02*
G01X0070185Y-034625D01*
G01X0070185Y-034495D02*
G01X0070055Y-034625D01*
G01X0070560Y-024505D02*
G01X0070690Y-024635D01*
G01X0070690Y-024505D02*
G01X0070560Y-024635D01*
G01X0070925Y-026025D02*
G01X0071055Y-026155D01*
G01X0071055Y-026025D02*
G01X0070925Y-026155D01*
G01X0070995Y-031455D02*
G01X0071125Y-031585D01*
G01X0071125Y-031455D02*
G01X0070995Y-031585D01*
G01X0070995Y-031875D02*
G01X0071125Y-032005D01*
G01X0071125Y-031875D02*
G01X0070995Y-032005D01*
G01X0071028Y-034459D02*
G01X0071158Y-034589D01*
G01X0071158Y-034459D02*
G01X0071028Y-034589D01*
G01X0071110Y-030300D02*
G01X0071240Y-030430D01*
G01X0071240Y-030300D02*
G01X0071110Y-030430D01*
G01X0071365Y-027365D02*
G01X0071495Y-027495D01*
G01X0071495Y-027365D02*
G01X0071365Y-027495D01*
G01X0071610Y-025355D02*
G01X0071740Y-025485D01*
G01X0071740Y-025355D02*
G01X0071610Y-025485D01*
G01X0072235Y-030535D02*
G01X0072365Y-030665D01*
G01X0072365Y-030535D02*
G01X0072235Y-030665D01*
G01X0072268Y-034479D02*
G01X0072398Y-034609D01*
G01X0072398Y-034479D02*
G01X0072268Y-034609D01*
G01X0073068Y-034479D02*
G01X0073198Y-034609D01*
G01X0073198Y-034479D02*
G01X0073068Y-034609D01*
G01X0074883Y-034919D02*
G01X0075013Y-035049D01*
G01X0075013Y-034919D02*
G01X0074883Y-035049D01*
G01X0074979Y-029030D02*
G01X0075109Y-029160D01*
G01X0075109Y-029030D02*
G01X0074979Y-029160D01*
G01X0075875Y-026755D02*
G01X0076005Y-026885D01*
G01X0076005Y-026755D02*
G01X0075875Y-026885D01*
G01X0076435Y-026395D02*
G01X0076565Y-026525D01*
G01X0076565Y-026395D02*
G01X0076435Y-026525D01*
G01X0076855Y-029655D02*
G01X0076985Y-029785D01*
G01X0076985Y-029655D02*
G01X0076855Y-029785D01*
G01X0077555Y-020515D02*
G01X0077685Y-020645D01*
G01X0077685Y-020515D02*
G01X0077555Y-020645D01*
G01X0077802Y-019535D02*
G01X0077932Y-019665D01*
G01X0077932Y-019535D02*
G01X0077802Y-019665D01*
G01X0078215Y-028815D02*
G01X0078345Y-028945D01*
G01X0078345Y-028815D02*
G01X0078215Y-028945D01*
G01X0078235Y-027035D02*
G01X0078365Y-027165D01*
G01X0078365Y-027035D02*
G01X0078235Y-027165D01*
G01X0078295Y-019527D02*
G01X0078425Y-019657D01*
G01X0078425Y-019527D02*
G01X0078295Y-019657D01*
G01X0078410Y-034479D02*
G01X0078540Y-034609D01*
G01X0078540Y-034479D02*
G01X0078410Y-034609D01*
G01X0078855Y-019042D02*
G01X0078985Y-019172D01*
G01X0078985Y-019042D02*
G01X0078855Y-019172D01*
G01X0078875Y-018495D02*
G01X0079005Y-018625D01*
G01X0079005Y-018495D02*
G01X0078875Y-018625D01*
G01X0078935Y-031410D02*
G01X0079065Y-031540D01*
G01X0079065Y-031410D02*
G01X0078935Y-031540D01*
G01X0079111Y-020075D02*
G01X0079241Y-020205D01*
G01X0079241Y-020075D02*
G01X0079111Y-020205D01*
G01X0079314Y-028785D02*
G01X0079444Y-028915D01*
G01X0079444Y-028785D02*
G01X0079314Y-028915D01*
G01X0079395Y-019920D02*
G01X0079525Y-020050D01*
G01X0079525Y-019920D02*
G01X0079395Y-020050D01*
G01X0079815Y-017955D02*
G01X0079945Y-018085D01*
G01X0079945Y-017955D02*
G01X0079815Y-018085D01*
G01X0079885Y-036360D02*
G01X0080015Y-036490D01*
G01X0080015Y-036360D02*
G01X0079885Y-036490D01*
G01X0079910Y-035960D02*
G01X0080040Y-036090D01*
G01X0080040Y-035960D02*
G01X0079910Y-036090D01*
G01X0079936Y-031792D02*
G01X0080066Y-031922D01*
G01X0080066Y-031792D02*
G01X0079936Y-031922D01*
G01X0080035Y-031405D02*
G01X0080165Y-031535D01*
G01X0080165Y-031405D02*
G01X0080035Y-031535D01*
G01X0080335Y-025495D02*
G01X0080465Y-025625D01*
G01X0080465Y-025495D02*
G01X0080335Y-025625D01*
G01X0080339Y-028795D02*
G01X0080469Y-028925D01*
G01X0080469Y-028795D02*
G01X0080339Y-028925D01*
G01X0080435Y-025935D02*
G01X0080565Y-026065D01*
G01X0080565Y-025935D02*
G01X0080435Y-026065D01*
G01X0080635Y-020615D02*
G01X0080765Y-020745D01*
G01X0080765Y-020615D02*
G01X0080635Y-020745D01*
G01X0080711Y-036142D02*
G01X0080841Y-036272D01*
G01X0080841Y-036142D02*
G01X0080711Y-036272D01*
G01X0080788Y-034674D02*
G01X0080918Y-034804D01*
G01X0080918Y-034674D02*
G01X0080788Y-034804D01*
G01X0080835Y-029110D02*
G01X0080965Y-029240D01*
G01X0080965Y-029110D02*
G01X0080835Y-029240D01*
G01X0081075Y-030895D02*
G01X0081205Y-031025D01*
G01X0081205Y-030895D02*
G01X0081075Y-031025D01*
G01X0081228Y-035854D02*
G01X0081358Y-035984D01*
G01X0081358Y-035854D02*
G01X0081228Y-035984D01*
G01X0081308Y-034714D02*
G01X0081438Y-034844D01*
G01X0081438Y-034714D02*
G01X0081308Y-034844D01*
G01X0081388Y-030225D02*
G01X0081518Y-030355D01*
G01X0081518Y-030225D02*
G01X0081388Y-030355D01*
G01X0081405Y-029845D02*
G01X0081535Y-029975D01*
G01X0081535Y-029845D02*
G01X0081405Y-029975D01*
G01X0081635Y-028053D02*
G01X0081765Y-028183D01*
G01X0081765Y-028053D02*
G01X0081635Y-028183D01*
G01X0081760Y-031790D02*
G01X0081890Y-031920D01*
G01X0081890Y-031790D02*
G01X0081760Y-031920D01*
G01X0081785Y-033185D02*
G01X0081915Y-033315D01*
G01X0081915Y-033185D02*
G01X0081785Y-033315D01*
G01X0081825Y-030675D02*
G01X0081955Y-030805D01*
G01X0081955Y-030675D02*
G01X0081825Y-030805D01*
G01X0081845Y-027215D02*
G01X0081975Y-027345D01*
G01X0081975Y-027215D02*
G01X0081845Y-027345D01*
G01X0081845Y-028755D02*
G01X0081975Y-028885D01*
G01X0081975Y-028755D02*
G01X0081845Y-028885D01*
G01X0081943Y-026123D02*
G01X0082073Y-026253D01*
G01X0082073Y-026123D02*
G01X0081943Y-026253D01*
G01X0082160Y-032485D02*
G01X0082290Y-032615D01*
G01X0082290Y-032485D02*
G01X0082160Y-032615D01*
G01X0082275Y-031210D02*
G01X0082405Y-031340D01*
G01X0082405Y-031210D02*
G01X0082275Y-031340D01*
G01X0082315Y-028505D02*
G01X0082445Y-028635D01*
G01X0082445Y-028505D02*
G01X0082315Y-028635D01*
G01X0082435Y-020075D02*
G01X0082565Y-020205D01*
G01X0082565Y-020075D02*
G01X0082435Y-020205D01*
G01X0082510Y-032210D02*
G01X0082640Y-032340D01*
G01X0082640Y-032210D02*
G01X0082510Y-032340D01*
G01X0082595Y-029935D02*
G01X0082725Y-030065D01*
G01X0082725Y-029935D02*
G01X0082595Y-030065D01*
G01X0082635Y-031010D02*
G01X0082765Y-031140D01*
G01X0082765Y-031010D02*
G01X0082635Y-031140D01*
G01X0082895Y-021055D02*
G01X0083025Y-021185D01*
G01X0083025Y-021055D02*
G01X0082895Y-021185D01*
G01X0083315Y-026245D02*
G01X0083445Y-026375D01*
G01X0083445Y-026245D02*
G01X0083315Y-026375D01*
G01X0083315Y-029875D02*
G01X0083445Y-030005D01*
G01X0083445Y-029875D02*
G01X0083315Y-030005D01*
G01X0083385Y-034105D02*
G01X0083515Y-034235D01*
G01X0083515Y-034105D02*
G01X0083385Y-034235D01*
G01X0083415Y-035785D02*
G01X0083545Y-035915D01*
G01X0083545Y-035785D02*
G01X0083415Y-035915D01*
G01X0083435Y-038155D02*
G01X0083565Y-038285D01*
G01X0083565Y-038155D02*
G01X0083435Y-038285D01*
G01X0084055Y-027665D02*
G01X0084185Y-027795D01*
G01X0084185Y-027665D02*
G01X0084055Y-027795D01*
G01X0084095Y-036375D02*
G01X0084225Y-036505D01*
G01X0084225Y-036375D02*
G01X0084095Y-036505D01*
G01X0084130Y-029835D02*
G01X0084260Y-029965D01*
G01X0084260Y-029835D02*
G01X0084130Y-029965D01*
G01X0084135Y-026345D02*
G01X0084265Y-026475D01*
G01X0084265Y-026345D02*
G01X0084135Y-026475D01*
G01X0084235Y-023524D02*
G01X0084365Y-023654D01*
G01X0084365Y-023524D02*
G01X0084235Y-023654D01*
G01X0084259Y-028985D02*
G01X0084389Y-029115D01*
G01X0084389Y-028985D02*
G01X0084259Y-029115D01*
G01X0084275Y-027915D02*
G01X0084405Y-028045D01*
G01X0084405Y-027915D02*
G01X0084275Y-028045D01*
G01X0084285Y-027165D02*
G01X0084415Y-027295D01*
G01X0084415Y-027165D02*
G01X0084285Y-027295D01*
G01X0084595Y-025475D02*
G01X0084725Y-025605D01*
G01X0084725Y-025475D02*
G01X0084595Y-025605D01*
G01X0084635Y-025935D02*
G01X0084765Y-026065D01*
G01X0084765Y-025935D02*
G01X0084635Y-026065D01*
G01X0084635Y-026285D02*
G01X0084765Y-026415D01*
G01X0084765Y-026285D02*
G01X0084635Y-026415D01*
G01X0084775Y-027615D02*
G01X0084905Y-027745D01*
G01X0084905Y-027615D02*
G01X0084775Y-027745D01*
G01X0084848Y-028055D02*
G01X0084978Y-028185D01*
G01X0084978Y-028055D02*
G01X0084848Y-028185D01*
G01X0085035Y-025935D02*
G01X0085165Y-026065D01*
G01X0085165Y-025935D02*
G01X0085035Y-026065D01*
G01X0085035Y-035510D02*
G01X0085165Y-035640D01*
G01X0085165Y-035510D02*
G01X0085035Y-035640D01*
G01X0085195Y-023515D02*
G01X0085325Y-023645D01*
G01X0085325Y-023515D02*
G01X0085195Y-023645D01*
G01X0085205Y-024575D02*
G01X0085335Y-024705D01*
G01X0085335Y-024575D02*
G01X0085205Y-024705D01*
G01X0085245Y-025535D02*
G01X0085375Y-025665D01*
G01X0085375Y-025535D02*
G01X0085245Y-025665D01*
G01X0085355Y-028075D02*
G01X0085485Y-028205D01*
G01X0085485Y-028075D02*
G01X0085355Y-028205D01*
G01X0085475Y-026895D02*
G01X0085605Y-027025D01*
G01X0085605Y-026895D02*
G01X0085475Y-027025D01*
G01X0086455Y-020335D02*
G01X0086585Y-020465D01*
G01X0086585Y-020335D02*
G01X0086455Y-020465D01*
G01X0086635Y-024845D02*
G01X0086765Y-024975D01*
G01X0086765Y-024845D02*
G01X0086635Y-024975D01*
G01X0086645Y-027465D02*
G01X0086775Y-027595D01*
G01X0086775Y-027465D02*
G01X0086645Y-027595D01*
G01X0087070Y-028057D02*
G01X0087200Y-028187D01*
G01X0087200Y-028057D02*
G01X0087070Y-028187D01*
G01X0087235Y-035985D02*
G01X0087365Y-036115D01*
G01X0087365Y-035985D02*
G01X0087235Y-036115D01*
G01X0087355Y-025255D02*
G01X0087485Y-025385D01*
G01X0087485Y-025255D02*
G01X0087355Y-025385D01*
G01X0087415Y-025875D02*
G01X0087545Y-026005D01*
G01X0087545Y-025875D02*
G01X0087415Y-026005D01*
G01X0087435Y-024815D02*
G01X0087565Y-024945D01*
G01X0087565Y-024815D02*
G01X0087435Y-024945D01*
G01X0087461Y-027462D02*
G01X0087591Y-027592D01*
G01X0087591Y-027462D02*
G01X0087461Y-027592D01*
G01X0087851Y-027572D02*
G01X0087981Y-027702D01*
G01X0087981Y-027572D02*
G01X0087851Y-027702D01*
G01X0087875Y-020020D02*
G01X0088005Y-020150D01*
G01X0088005Y-020020D02*
G01X0087875Y-020150D01*
G01X0087895Y-024665D02*
G01X0088025Y-024795D01*
G01X0088025Y-024665D02*
G01X0087895Y-024795D01*
G01X0087895Y-025865D02*
G01X0088025Y-025995D01*
G01X0088025Y-025865D02*
G01X0087895Y-025995D01*
G01X0087965Y-024265D02*
G01X0088095Y-024395D01*
G01X0088095Y-024265D02*
G01X0087965Y-024395D01*
G01X0088055Y-031455D02*
G01X0088185Y-031585D01*
G01X0088185Y-031455D02*
G01X0088055Y-031585D01*
G01X0088135Y-023215D02*
G01X0088265Y-023345D01*
G01X0088265Y-023215D02*
G01X0088135Y-023345D01*
G01X0088195Y-022325D02*
G01X0088325Y-022455D01*
G01X0088325Y-022325D02*
G01X0088195Y-022455D01*
G01X0088275Y-025505D02*
G01X0088405Y-025635D01*
G01X0088405Y-025505D02*
G01X0088275Y-025635D01*
G01X0088455Y-029555D02*
G01X0088585Y-029685D01*
G01X0088585Y-029555D02*
G01X0088455Y-029685D01*
G01X0088515Y-031995D02*
G01X0088645Y-032125D01*
G01X0088645Y-031995D02*
G01X0088515Y-032125D01*
G01X0088535Y-020020D02*
G01X0088665Y-020150D01*
G01X0088665Y-020020D02*
G01X0088535Y-020150D01*
G01X0088905Y-028315D02*
G01X0089035Y-028445D01*
G01X0089035Y-028315D02*
G01X0088905Y-028445D01*
G01X0088915Y-032155D02*
G01X0089045Y-032285D01*
G01X0089045Y-032155D02*
G01X0088915Y-032285D01*
G01X0088935Y-027065D02*
G01X0089065Y-027195D01*
G01X0089065Y-027065D02*
G01X0088935Y-027195D01*
G01X0089055Y-027855D02*
G01X0089185Y-027985D01*
G01X0089185Y-027855D02*
G01X0089055Y-027985D01*
G01X0089345Y-025975D02*
G01X0089475Y-026105D01*
G01X0089475Y-025975D02*
G01X0089345Y-026105D01*
G01X0089395Y-026475D02*
G01X0089525Y-026605D01*
G01X0089525Y-026475D02*
G01X0089395Y-026605D01*
G01X0089435Y-029475D02*
G01X0089565Y-029605D01*
G01X0089565Y-029475D02*
G01X0089435Y-029605D01*
G01X0089665Y-022535D02*
G01X0089795Y-022665D01*
G01X0089795Y-022535D02*
G01X0089665Y-022665D01*
G01X0089666Y-027406D02*
G01X0089796Y-027536D01*
G01X0089796Y-027406D02*
G01X0089666Y-027536D01*
G01X0089915Y-020335D02*
G01X0090045Y-020465D01*
G01X0090045Y-020335D02*
G01X0089915Y-020465D01*
G01X0090195Y-026435D02*
G01X0090325Y-026565D01*
G01X0090325Y-026435D02*
G01X0090195Y-026565D01*
G01X0090235Y-029475D02*
G01X0090365Y-029605D01*
G01X0090365Y-029475D02*
G01X0090235Y-029605D01*
G01X0090255Y-032395D02*
G01X0090385Y-032525D01*
G01X0090385Y-032395D02*
G01X0090255Y-032525D01*
G01X0090283Y-027170D02*
G01X0090413Y-027300D01*
G01X0090413Y-027170D02*
G01X0090283Y-027300D01*
G01X0090495Y-026600D02*
G01X0090625Y-026730D01*
G01X0090625Y-026600D02*
G01X0090495Y-026730D01*
G01X0090495Y-031524D02*
G01X0090625Y-031654D01*
G01X0090625Y-031524D02*
G01X0090495Y-031654D01*
G01X0090495Y-027352D02*
G01X0090625Y-027482D01*
G01X0090625Y-027352D02*
G01X0090495Y-027482D01*
G01X0090555Y-017855D02*
G01X0090685Y-017985D01*
G01X0090685Y-017855D02*
G01X0090555Y-017985D01*
G01X0090595Y-036065D02*
G01X0090725Y-036195D01*
G01X0090725Y-036065D02*
G01X0090595Y-036195D01*
G01X0090935Y-029535D02*
G01X0091065Y-029665D01*
G01X0091065Y-029535D02*
G01X0090935Y-029665D01*
G01X0090935Y-032215D02*
G01X0091065Y-032345D01*
G01X0091065Y-032215D02*
G01X0090935Y-032345D01*
G01X0091515Y-031075D02*
G01X0091645Y-031205D01*
G01X0091645Y-031075D02*
G01X0091515Y-031205D01*
G01X0091595Y-025475D02*
G01X0091725Y-025605D01*
G01X0091725Y-025475D02*
G01X0091595Y-025605D01*
G01X0092035Y-017875D02*
G01X0092165Y-018005D01*
G01X0092165Y-017875D02*
G01X0092035Y-018005D01*
G01X0092075Y-027105D02*
G01X0092205Y-027235D01*
G01X0092205Y-027105D02*
G01X0092075Y-027235D01*
G01X0092445Y-025475D02*
G01X0092575Y-025605D01*
G01X0092575Y-025475D02*
G01X0092445Y-025605D01*
G01X0092915Y-022415D02*
G01X0093045Y-022545D01*
G01X0093045Y-022415D02*
G01X0092915Y-022545D01*
G01X0093775Y-020975D02*
G01X0093905Y-021105D01*
G01X0093905Y-020975D02*
G01X0093775Y-021105D01*
G01X0093943Y-029215D02*
G01X0094073Y-029345D01*
G01X0094073Y-029215D02*
G01X0093943Y-029345D01*
G01X0095295Y-036475D02*
G01X0095425Y-036605D01*
G01X0095425Y-036475D02*
G01X0095295Y-036605D01*
G01X0095555Y-032045D02*
G01X0095685Y-032175D01*
G01X0095685Y-032045D02*
G01X0095555Y-032175D01*
G01X0096410Y-020780D02*
G75*
G03X0096410Y-020780I-000150J0000000D01*
G01X0096410Y-021780D02*
G75*
G03X0096410Y-021780I-000150J0000000D01*
G01X0096410Y-022780D02*
G75*
G03X0096410Y-022780I-000150J0000000D01*
G01X0096410Y-023780D02*
G75*
G03X0096410Y-023780I-000150J0000000D01*
G01X0096410Y-024780D02*
G75*
G03X0096410Y-024780I-000150J0000000D01*
G01X0096410Y-025780D02*
G75*
G03X0096410Y-025780I-000150J0000000D01*
G01X0096410Y-026780D02*
G75*
G03X0096410Y-026780I-000150J0000000D01*
G01X0096410Y-027780D02*
G75*
G03X0096410Y-027780I-000150J0000000D01*
G01X0096410Y-028780D02*
G75*
G03X0096410Y-028780I-000150J0000000D01*
G01X0096410Y-029780D02*
G75*
G03X0096410Y-029780I-000150J0000000D01*
G01X0096410Y-030780D02*
G75*
G03X0096410Y-030780I-000150J0000000D01*
G01X0096410Y-031780D02*
G75*
G03X0096410Y-031780I-000150J0000000D01*
G01X0096410Y-032780D02*
G75*
G03X0096410Y-032780I-000150J0000000D01*
G01X0096410Y-033780D02*
G75*
G03X0096410Y-033780I-000150J0000000D01*
G01X0096410Y-034780D02*
G75*
G03X0096410Y-034780I-000150J0000000D01*
G01X0096410Y-035780D02*
G75*
G03X0096410Y-035780I-000150J0000000D01*
G01X0092468Y-027984D02*
G01X0092468Y-028299D01*
G01X0092311Y-028141D02*
G01X0092626Y-028141D01*
G01X0092468Y-029905D02*
G01X0092468Y-030220D01*
G01X0092311Y-030062D02*
G01X0092626Y-030062D01*
G01X0093250Y-032658D02*
G01X0093250Y-032973D01*
G01X0093093Y-032816D02*
G01X0093407Y-032816D01*
G01X0093250Y-033643D02*
G01X0093250Y-033957D01*
G01X0093093Y-033800D02*
G01X0093407Y-033800D01*
G01X0076681Y-020481D02*
G01X0076681Y-020199D01*
G01X0076681Y-020199D02*
G01X0076399Y-020199D01*
G01X0076399Y-020199D02*
G01X0076399Y-020481D01*
G01X0076399Y-020481D02*
G01X0076681Y-020481D01*
G01X0077741Y-031966D02*
G01X0077741Y-031684D01*
G01X0077741Y-031684D02*
G01X0077459Y-031684D01*
G01X0077459Y-031684D02*
G01X0077459Y-031966D01*
G01X0077459Y-031966D02*
G01X0077741Y-031966D01*
G01X0077741Y-032966D02*
G01X0077741Y-032684D01*
G01X0077741Y-032684D02*
G01X0077459Y-032684D01*
G01X0077459Y-032684D02*
G01X0077459Y-032966D01*
G01X0077459Y-032966D02*
G01X0077741Y-032966D01*
G01X0077741Y-033966D02*
G01X0077741Y-033684D01*
G01X0077741Y-033684D02*
G01X0077459Y-033684D01*
G01X0077459Y-033684D02*
G01X0077459Y-033966D01*
G01X0077459Y-033966D02*
G01X0077741Y-033966D01*
G01X0077741Y-034966D02*
G01X0077741Y-034684D01*
G01X0077741Y-034684D02*
G01X0077459Y-034684D01*
G01X0077459Y-034684D02*
G01X0077459Y-034966D01*
G01X0077459Y-034966D02*
G01X0077741Y-034966D01*
G01X0077741Y-035966D02*
G01X0077741Y-035684D01*
G01X0077741Y-035684D02*
G01X0077459Y-035684D01*
G01X0077459Y-035684D02*
G01X0077459Y-035966D01*
G01X0077459Y-035966D02*
G01X0077741Y-035966D01*
G01X0077741Y-036966D02*
G01X0077741Y-036684D01*
G01X0077741Y-036684D02*
G01X0077459Y-036684D01*
G01X0077459Y-036684D02*
G01X0077459Y-036966D01*
G01X0077459Y-036966D02*
G01X0077741Y-036966D01*
G01X0080461Y-037676D02*
G01X0080461Y-037394D01*
G01X0080461Y-037394D02*
G01X0080179Y-037394D01*
G01X0080179Y-037394D02*
G01X0080179Y-037676D01*
G01X0080179Y-037676D02*
G01X0080461Y-037676D01*
G01X0080641Y-022841D02*
G01X0080641Y-022559D01*
G01X0080641Y-022559D02*
G01X0080359Y-022559D01*
G01X0080359Y-022559D02*
G01X0080359Y-022841D01*
G01X0080359Y-022841D02*
G01X0080641Y-022841D01*
G01X0080641Y-023841D02*
G01X0080641Y-023559D01*
G01X0080641Y-023559D02*
G01X0080359Y-023559D01*
G01X0080359Y-023559D02*
G01X0080359Y-023841D01*
G01X0080359Y-023841D02*
G01X0080641Y-023841D01*
G01X0081461Y-037676D02*
G01X0081461Y-037394D01*
G01X0081461Y-037394D02*
G01X0081179Y-037394D01*
G01X0081179Y-037394D02*
G01X0081179Y-037676D01*
G01X0081179Y-037676D02*
G01X0081461Y-037676D01*
G01X0081641Y-022841D02*
G01X0081641Y-022559D01*
G01X0081641Y-022559D02*
G01X0081359Y-022559D01*
G01X0081359Y-022559D02*
G01X0081359Y-022841D01*
G01X0081359Y-022841D02*
G01X0081641Y-022841D01*
G01X0081641Y-023841D02*
G01X0081641Y-023559D01*
G01X0081641Y-023559D02*
G01X0081359Y-023559D01*
G01X0081359Y-023559D02*
G01X0081359Y-023841D01*
G01X0081359Y-023841D02*
G01X0081641Y-023841D01*
G01X0082641Y-022841D02*
G01X0082641Y-022559D01*
G01X0082641Y-022559D02*
G01X0082359Y-022559D01*
G01X0082359Y-022559D02*
G01X0082359Y-022841D01*
G01X0082359Y-022841D02*
G01X0082641Y-022841D01*
G01X0082641Y-023841D02*
G01X0082641Y-023559D01*
G01X0082641Y-023559D02*
G01X0082359Y-023559D01*
G01X0082359Y-023559D02*
G01X0082359Y-023841D01*
G01X0082359Y-023841D02*
G01X0082641Y-023841D01*
G01X0092924Y-036887D02*
G01X0092924Y-036604D01*
G01X0092924Y-036604D02*
G01X0092641Y-036604D01*
G01X0092641Y-036604D02*
G01X0092641Y-036887D01*
G01X0092641Y-036887D02*
G01X0092924Y-036887D01*
G01X0093924Y-036887D02*
G01X0093924Y-036604D01*
G01X0093924Y-036604D02*
G01X0093641Y-036604D01*
G01X0093641Y-036604D02*
G01X0093641Y-036887D01*
G01X0093641Y-036887D02*
G01X0093924Y-036887D01*
G01X0066800Y-021077D02*
G01X0067036Y-020841D01*
G01X0067036Y-020841D02*
G01X0066800Y-020605D01*
G01X0066800Y-020605D02*
G01X0066564Y-020841D01*
G01X0066564Y-020841D02*
G01X0066800Y-021077D01*
G01X0066800Y-023872D02*
G01X0067036Y-023636D01*
G01X0067036Y-023636D02*
G01X0066800Y-023400D01*
G01X0066800Y-023400D02*
G01X0066564Y-023636D01*
G01X0066564Y-023636D02*
G01X0066800Y-023872D01*
G01X0068808Y-017700D02*
G01X0069989Y-018881D01*
G01X0069989Y-017700D02*
G01X0068808Y-018881D01*
G01X0069989Y-018291D02*
G75*
G03X0069989Y-018291I-000591J0000000D01*
G01X0069989Y-019550D02*
G01X0071170Y-020731D01*
G01X0071170Y-019550D02*
G01X0069989Y-020731D01*
G01X0071170Y-020141D02*
G75*
G03X0071170Y-020141I-000591J0000000D01*
G01X0071170Y-017700D02*
G01X0072351Y-018881D01*
G01X0072351Y-017700D02*
G01X0071170Y-018881D01*
G01X0072351Y-018291D02*
G75*
G03X0072351Y-018291I-000591J0000000D01*
G54D13*
G01X0067039Y-040615D02*
G01X0067039Y-039434D01*
G01X0067039Y-039434D02*
G01X0067320Y-039434D01*
G01X0067320Y-039434D02*
G01X0067489Y-039490D01*
G01X0067489Y-039490D02*
G01X0067601Y-039603D01*
G01X0067601Y-039603D02*
G01X0067657Y-039715D01*
G01X0067657Y-039715D02*
G01X0067714Y-039940D01*
G01X0067714Y-039940D02*
G01X0067714Y-040109D01*
G01X0067714Y-040109D02*
G01X0067657Y-040334D01*
G01X0067657Y-040334D02*
G01X0067601Y-040446D01*
G01X0067601Y-040446D02*
G01X0067489Y-040559D01*
G01X0067489Y-040559D02*
G01X0067320Y-040615D01*
G01X0067320Y-040615D02*
G01X0067039Y-040615D01*
G01X0068220Y-040615D02*
G01X0068220Y-039828D01*
G01X0068220Y-040053D02*
G01X0068276Y-039940D01*
G01X0068276Y-039940D02*
G01X0068332Y-039884D01*
G01X0068332Y-039884D02*
G01X0068445Y-039828D01*
G01X0068445Y-039828D02*
G01X0068557Y-039828D01*
G01X0068951Y-040615D02*
G01X0068951Y-039828D01*
G01X0068951Y-039434D02*
G01X0068895Y-039490D01*
G01X0068895Y-039490D02*
G01X0068951Y-039546D01*
G01X0068951Y-039546D02*
G01X0069007Y-039490D01*
G01X0069007Y-039490D02*
G01X0068951Y-039434D01*
G01X0068951Y-039434D02*
G01X0068951Y-039546D01*
G01X0069682Y-040615D02*
G01X0069570Y-040559D01*
G01X0069570Y-040559D02*
G01X0069513Y-040446D01*
G01X0069513Y-040446D02*
G01X0069513Y-039434D01*
G01X0070301Y-040615D02*
G01X0070188Y-040559D01*
G01X0070188Y-040559D02*
G01X0070132Y-040446D01*
G01X0070132Y-040446D02*
G01X0070132Y-039434D01*
G01X0071651Y-040615D02*
G01X0071651Y-039434D01*
G01X0071651Y-039434D02*
G01X0072044Y-040278D01*
G01X0072044Y-040278D02*
G01X0072438Y-039434D01*
G01X0072438Y-039434D02*
G01X0072438Y-040615D01*
G01X0073507Y-040615D02*
G01X0073507Y-039996D01*
G01X0073507Y-039996D02*
G01X0073450Y-039884D01*
G01X0073450Y-039884D02*
G01X0073338Y-039828D01*
G01X0073338Y-039828D02*
G01X0073113Y-039828D01*
G01X0073113Y-039828D02*
G01X0073000Y-039884D01*
G01X0073507Y-040559D02*
G01X0073394Y-040615D01*
G01X0073394Y-040615D02*
G01X0073113Y-040615D01*
G01X0073113Y-040615D02*
G01X0073000Y-040559D01*
G01X0073000Y-040559D02*
G01X0072944Y-040446D01*
G01X0072944Y-040446D02*
G01X0072944Y-040334D01*
G01X0072944Y-040334D02*
G01X0073000Y-040221D01*
G01X0073000Y-040221D02*
G01X0073113Y-040165D01*
G01X0073113Y-040165D02*
G01X0073394Y-040165D01*
G01X0073394Y-040165D02*
G01X0073507Y-040109D01*
G01X0074069Y-039828D02*
G01X0074069Y-041009D01*
G01X0074069Y-039884D02*
G01X0074181Y-039828D01*
G01X0074181Y-039828D02*
G01X0074406Y-039828D01*
G01X0074406Y-039828D02*
G01X0074519Y-039884D01*
G01X0074519Y-039884D02*
G01X0074575Y-039940D01*
G01X0074575Y-039940D02*
G01X0074631Y-040053D01*
G01X0074631Y-040053D02*
G01X0074631Y-040390D01*
G01X0074631Y-040390D02*
G01X0074575Y-040503D01*
G01X0074575Y-040503D02*
G01X0074519Y-040559D01*
G01X0074519Y-040559D02*
G01X0074406Y-040615D01*
G01X0074406Y-040615D02*
G01X0074181Y-040615D01*
G01X0074181Y-040615D02*
G01X0074069Y-040559D01*
G01X0075138Y-040503D02*
G01X0075194Y-040559D01*
G01X0075194Y-040559D02*
G01X0075138Y-040615D01*
G01X0075138Y-040615D02*
G01X0075081Y-040559D01*
G01X0075081Y-040559D02*
G01X0075138Y-040503D01*
G01X0075138Y-040503D02*
G01X0075138Y-040615D01*
G01X0075138Y-039884D02*
G01X0075194Y-039940D01*
G01X0075194Y-039940D02*
G01X0075138Y-039996D01*
G01X0075138Y-039996D02*
G01X0075081Y-039940D01*
G01X0075081Y-039940D02*
G01X0075138Y-039884D01*
G01X0075138Y-039884D02*
G01X0075138Y-039996D01*
G01X0065840Y-042496D02*
G01X0065970Y-042626D01*
G01X0065970Y-042496D02*
G01X0065840Y-042626D01*
G01X0067264Y-041914D02*
G01X0067376Y-041914D01*
G01X0067376Y-041914D02*
G01X0067489Y-041970D01*
G01X0067489Y-041970D02*
G01X0067545Y-042027D01*
G01X0067545Y-042027D02*
G01X0067601Y-042139D01*
G01X0067601Y-042139D02*
G01X0067657Y-042364D01*
G01X0067657Y-042364D02*
G01X0067657Y-042645D01*
G01X0067657Y-042645D02*
G01X0067601Y-042870D01*
G01X0067601Y-042870D02*
G01X0067545Y-042983D01*
G01X0067545Y-042983D02*
G01X0067489Y-043039D01*
G01X0067489Y-043039D02*
G01X0067376Y-043095D01*
G01X0067376Y-043095D02*
G01X0067264Y-043095D01*
G01X0067264Y-043095D02*
G01X0067151Y-043039D01*
G01X0067151Y-043039D02*
G01X0067095Y-042983D01*
G01X0067095Y-042983D02*
G01X0067039Y-042870D01*
G01X0067039Y-042870D02*
G01X0066982Y-042645D01*
G01X0066982Y-042645D02*
G01X0066982Y-042364D01*
G01X0066982Y-042364D02*
G01X0067039Y-042139D01*
G01X0067039Y-042139D02*
G01X0067095Y-042027D01*
G01X0067095Y-042027D02*
G01X0067151Y-041970D01*
G01X0067151Y-041970D02*
G01X0067264Y-041914D01*
G01X0068163Y-042983D02*
G01X0068220Y-043039D01*
G01X0068220Y-043039D02*
G01X0068163Y-043095D01*
G01X0068163Y-043095D02*
G01X0068107Y-043039D01*
G01X0068107Y-043039D02*
G01X0068163Y-042983D01*
G01X0068163Y-042983D02*
G01X0068163Y-043095D01*
G01X0068613Y-041914D02*
G01X0069345Y-041914D01*
G01X0069345Y-041914D02*
G01X0068951Y-042364D01*
G01X0068951Y-042364D02*
G01X0069120Y-042364D01*
G01X0069120Y-042364D02*
G01X0069232Y-042420D01*
G01X0069232Y-042420D02*
G01X0069288Y-042477D01*
G01X0069288Y-042477D02*
G01X0069345Y-042589D01*
G01X0069345Y-042589D02*
G01X0069345Y-042870D01*
G01X0069345Y-042870D02*
G01X0069288Y-042983D01*
G01X0069288Y-042983D02*
G01X0069232Y-043039D01*
G01X0069232Y-043039D02*
G01X0069120Y-043095D01*
G01X0069120Y-043095D02*
G01X0068782Y-043095D01*
G01X0068782Y-043095D02*
G01X0068670Y-043039D01*
G01X0068670Y-043039D02*
G01X0068613Y-042983D01*
G01X0069738Y-041914D02*
G01X0070469Y-041914D01*
G01X0070469Y-041914D02*
G01X0070076Y-042364D01*
G01X0070076Y-042364D02*
G01X0070244Y-042364D01*
G01X0070244Y-042364D02*
G01X0070357Y-042420D01*
G01X0070357Y-042420D02*
G01X0070413Y-042477D01*
G01X0070413Y-042477D02*
G01X0070469Y-042589D01*
G01X0070469Y-042589D02*
G01X0070469Y-042870D01*
G01X0070469Y-042870D02*
G01X0070413Y-042983D01*
G01X0070413Y-042983D02*
G01X0070357Y-043039D01*
G01X0070357Y-043039D02*
G01X0070244Y-043095D01*
G01X0070244Y-043095D02*
G01X0069907Y-043095D01*
G01X0069907Y-043095D02*
G01X0069795Y-043039D01*
G01X0069795Y-043039D02*
G01X0069738Y-042983D01*
G01X0070976Y-043095D02*
G01X0070976Y-042308D01*
G01X0070976Y-042420D02*
G01X0071032Y-042364D01*
G01X0071032Y-042364D02*
G01X0071144Y-042308D01*
G01X0071144Y-042308D02*
G01X0071313Y-042308D01*
G01X0071313Y-042308D02*
G01X0071426Y-042364D01*
G01X0071426Y-042364D02*
G01X0071482Y-042477D01*
G01X0071482Y-042477D02*
G01X0071482Y-043095D01*
G01X0071482Y-042477D02*
G01X0071538Y-042364D01*
G01X0071538Y-042364D02*
G01X0071651Y-042308D01*
G01X0071651Y-042308D02*
G01X0071819Y-042308D01*
G01X0071819Y-042308D02*
G01X0071932Y-042364D01*
G01X0071932Y-042364D02*
G01X0071988Y-042477D01*
G01X0071988Y-042477D02*
G01X0071988Y-043095D01*
G01X0072550Y-043095D02*
G01X0072550Y-042308D01*
G01X0072550Y-042420D02*
G01X0072607Y-042364D01*
G01X0072607Y-042364D02*
G01X0072719Y-042308D01*
G01X0072719Y-042308D02*
G01X0072888Y-042308D01*
G01X0072888Y-042308D02*
G01X0073000Y-042364D01*
G01X0073000Y-042364D02*
G01X0073057Y-042477D01*
G01X0073057Y-042477D02*
G01X0073057Y-043095D01*
G01X0073057Y-042477D02*
G01X0073113Y-042364D01*
G01X0073113Y-042364D02*
G01X0073225Y-042308D01*
G01X0073225Y-042308D02*
G01X0073394Y-042308D01*
G01X0073394Y-042308D02*
G01X0073507Y-042364D01*
G01X0073507Y-042364D02*
G01X0073563Y-042477D01*
G01X0073563Y-042477D02*
G01X0073563Y-043095D01*
G01X0075869Y-041858D02*
G01X0074856Y-043377D01*
G01X0077387Y-041914D02*
G01X0077500Y-041914D01*
G01X0077500Y-041914D02*
G01X0077612Y-041970D01*
G01X0077612Y-041970D02*
G01X0077669Y-042027D01*
G01X0077669Y-042027D02*
G01X0077725Y-042139D01*
G01X0077725Y-042139D02*
G01X0077781Y-042364D01*
G01X0077781Y-042364D02*
G01X0077781Y-042645D01*
G01X0077781Y-042645D02*
G01X0077725Y-042870D01*
G01X0077725Y-042870D02*
G01X0077669Y-042983D01*
G01X0077669Y-042983D02*
G01X0077612Y-043039D01*
G01X0077612Y-043039D02*
G01X0077500Y-043095D01*
G01X0077500Y-043095D02*
G01X0077387Y-043095D01*
G01X0077387Y-043095D02*
G01X0077275Y-043039D01*
G01X0077275Y-043039D02*
G01X0077219Y-042983D01*
G01X0077219Y-042983D02*
G01X0077162Y-042870D01*
G01X0077162Y-042870D02*
G01X0077106Y-042645D01*
G01X0077106Y-042645D02*
G01X0077106Y-042364D01*
G01X0077106Y-042364D02*
G01X0077162Y-042139D01*
G01X0077162Y-042139D02*
G01X0077219Y-042027D01*
G01X0077219Y-042027D02*
G01X0077275Y-041970D01*
G01X0077275Y-041970D02*
G01X0077387Y-041914D01*
G01X0078287Y-042983D02*
G01X0078343Y-043039D01*
G01X0078343Y-043039D02*
G01X0078287Y-043095D01*
G01X0078287Y-043095D02*
G01X0078231Y-043039D01*
G01X0078231Y-043039D02*
G01X0078287Y-042983D01*
G01X0078287Y-042983D02*
G01X0078287Y-043095D01*
G01X0079075Y-041914D02*
G01X0079187Y-041914D01*
G01X0079187Y-041914D02*
G01X0079300Y-041970D01*
G01X0079300Y-041970D02*
G01X0079356Y-042027D01*
G01X0079356Y-042027D02*
G01X0079412Y-042139D01*
G01X0079412Y-042139D02*
G01X0079468Y-042364D01*
G01X0079468Y-042364D02*
G01X0079468Y-042645D01*
G01X0079468Y-042645D02*
G01X0079412Y-042870D01*
G01X0079412Y-042870D02*
G01X0079356Y-042983D01*
G01X0079356Y-042983D02*
G01X0079300Y-043039D01*
G01X0079300Y-043039D02*
G01X0079187Y-043095D01*
G01X0079187Y-043095D02*
G01X0079075Y-043095D01*
G01X0079075Y-043095D02*
G01X0078962Y-043039D01*
G01X0078962Y-043039D02*
G01X0078906Y-042983D01*
G01X0078906Y-042983D02*
G01X0078850Y-042870D01*
G01X0078850Y-042870D02*
G01X0078793Y-042645D01*
G01X0078793Y-042645D02*
G01X0078793Y-042364D01*
G01X0078793Y-042364D02*
G01X0078850Y-042139D01*
G01X0078850Y-042139D02*
G01X0078906Y-042027D01*
G01X0078906Y-042027D02*
G01X0078962Y-041970D01*
G01X0078962Y-041970D02*
G01X0079075Y-041914D01*
G01X0080593Y-043095D02*
G01X0079918Y-043095D01*
G01X0080256Y-043095D02*
G01X0080256Y-041914D01*
G01X0080256Y-041914D02*
G01X0080143Y-042083D01*
G01X0080143Y-042083D02*
G01X0080031Y-042195D01*
G01X0080031Y-042195D02*
G01X0079918Y-042252D01*
G01X0080987Y-041914D02*
G01X0081718Y-041914D01*
G01X0081718Y-041914D02*
G01X0081324Y-042364D01*
G01X0081324Y-042364D02*
G01X0081493Y-042364D01*
G01X0081493Y-042364D02*
G01X0081606Y-042420D01*
G01X0081606Y-042420D02*
G01X0081662Y-042477D01*
G01X0081662Y-042477D02*
G01X0081718Y-042589D01*
G01X0081718Y-042589D02*
G01X0081718Y-042870D01*
G01X0081718Y-042870D02*
G01X0081662Y-042983D01*
G01X0081662Y-042983D02*
G01X0081606Y-043039D01*
G01X0081606Y-043039D02*
G01X0081493Y-043095D01*
G01X0081493Y-043095D02*
G01X0081156Y-043095D01*
G01X0081156Y-043095D02*
G01X0081043Y-043039D01*
G01X0081043Y-043039D02*
G01X0080987Y-042983D01*
G01X0082168Y-041914D02*
G01X0082168Y-042139D01*
G01X0082618Y-041914D02*
G01X0082618Y-042139D01*
G01X0084361Y-043545D02*
G01X0084305Y-043489D01*
G01X0084305Y-043489D02*
G01X0084193Y-043320D01*
G01X0084193Y-043320D02*
G01X0084136Y-043208D01*
G01X0084136Y-043208D02*
G01X0084080Y-043039D01*
G01X0084080Y-043039D02*
G01X0084024Y-042758D01*
G01X0084024Y-042758D02*
G01X0084024Y-042533D01*
G01X0084024Y-042533D02*
G01X0084080Y-042252D01*
G01X0084080Y-042252D02*
G01X0084136Y-042083D01*
G01X0084136Y-042083D02*
G01X0084193Y-041970D01*
G01X0084193Y-041970D02*
G01X0084305Y-041802D01*
G01X0084305Y-041802D02*
G01X0084361Y-041746D01*
G01X0085430Y-043095D02*
G01X0084755Y-043095D01*
G01X0085093Y-043095D02*
G01X0085093Y-041914D01*
G01X0085093Y-041914D02*
G01X0084980Y-042083D01*
G01X0084980Y-042083D02*
G01X0084868Y-042195D01*
G01X0084868Y-042195D02*
G01X0084755Y-042252D01*
G01X0086442Y-042308D02*
G01X0086442Y-043095D01*
G01X0086161Y-041858D02*
G01X0085880Y-042702D01*
G01X0085880Y-042702D02*
G01X0086611Y-042702D01*
G01X0087117Y-043095D02*
G01X0087342Y-043095D01*
G01X0087342Y-043095D02*
G01X0087455Y-043039D01*
G01X0087455Y-043039D02*
G01X0087511Y-042983D01*
G01X0087511Y-042983D02*
G01X0087624Y-042814D01*
G01X0087624Y-042814D02*
G01X0087680Y-042589D01*
G01X0087680Y-042589D02*
G01X0087680Y-042139D01*
G01X0087680Y-042139D02*
G01X0087624Y-042027D01*
G01X0087624Y-042027D02*
G01X0087567Y-041970D01*
G01X0087567Y-041970D02*
G01X0087455Y-041914D01*
G01X0087455Y-041914D02*
G01X0087230Y-041914D01*
G01X0087230Y-041914D02*
G01X0087117Y-041970D01*
G01X0087117Y-041970D02*
G01X0087061Y-042027D01*
G01X0087061Y-042027D02*
G01X0087005Y-042139D01*
G01X0087005Y-042139D02*
G01X0087005Y-042420D01*
G01X0087005Y-042420D02*
G01X0087061Y-042533D01*
G01X0087061Y-042533D02*
G01X0087117Y-042589D01*
G01X0087117Y-042589D02*
G01X0087230Y-042645D01*
G01X0087230Y-042645D02*
G01X0087455Y-042645D01*
G01X0087455Y-042645D02*
G01X0087567Y-042589D01*
G01X0087567Y-042589D02*
G01X0087624Y-042533D01*
G01X0087624Y-042533D02*
G01X0087680Y-042420D01*
G01X0089086Y-043095D02*
G01X0089086Y-041914D01*
G01X0089592Y-043095D02*
G01X0089592Y-042477D01*
G01X0089592Y-042477D02*
G01X0089536Y-042364D01*
G01X0089536Y-042364D02*
G01X0089423Y-042308D01*
G01X0089423Y-042308D02*
G01X0089255Y-042308D01*
G01X0089255Y-042308D02*
G01X0089142Y-042364D01*
G01X0089142Y-042364D02*
G01X0089086Y-042420D01*
G01X0090323Y-043095D02*
G01X0090211Y-043039D01*
G01X0090211Y-043039D02*
G01X0090154Y-042983D01*
G01X0090154Y-042983D02*
G01X0090098Y-042870D01*
G01X0090098Y-042870D02*
G01X0090098Y-042533D01*
G01X0090098Y-042533D02*
G01X0090154Y-042420D01*
G01X0090154Y-042420D02*
G01X0090211Y-042364D01*
G01X0090211Y-042364D02*
G01X0090323Y-042308D01*
G01X0090323Y-042308D02*
G01X0090492Y-042308D01*
G01X0090492Y-042308D02*
G01X0090604Y-042364D01*
G01X0090604Y-042364D02*
G01X0090661Y-042420D01*
G01X0090661Y-042420D02*
G01X0090717Y-042533D01*
G01X0090717Y-042533D02*
G01X0090717Y-042870D01*
G01X0090717Y-042870D02*
G01X0090661Y-042983D01*
G01X0090661Y-042983D02*
G01X0090604Y-043039D01*
G01X0090604Y-043039D02*
G01X0090492Y-043095D01*
G01X0090492Y-043095D02*
G01X0090323Y-043095D01*
G01X0091392Y-043095D02*
G01X0091279Y-043039D01*
G01X0091279Y-043039D02*
G01X0091223Y-042927D01*
G01X0091223Y-042927D02*
G01X0091223Y-041914D01*
G01X0092292Y-043039D02*
G01X0092179Y-043095D01*
G01X0092179Y-043095D02*
G01X0091954Y-043095D01*
G01X0091954Y-043095D02*
G01X0091842Y-043039D01*
G01X0091842Y-043039D02*
G01X0091786Y-042927D01*
G01X0091786Y-042927D02*
G01X0091786Y-042477D01*
G01X0091786Y-042477D02*
G01X0091842Y-042364D01*
G01X0091842Y-042364D02*
G01X0091954Y-042308D01*
G01X0091954Y-042308D02*
G01X0092179Y-042308D01*
G01X0092179Y-042308D02*
G01X0092292Y-042364D01*
G01X0092292Y-042364D02*
G01X0092348Y-042477D01*
G01X0092348Y-042477D02*
G01X0092348Y-042589D01*
G01X0092348Y-042589D02*
G01X0091786Y-042702D01*
G01X0092798Y-043039D02*
G01X0092910Y-043095D01*
G01X0092910Y-043095D02*
G01X0093135Y-043095D01*
G01X0093135Y-043095D02*
G01X0093248Y-043039D01*
G01X0093248Y-043039D02*
G01X0093304Y-042927D01*
G01X0093304Y-042927D02*
G01X0093304Y-042870D01*
G01X0093304Y-042870D02*
G01X0093248Y-042758D01*
G01X0093248Y-042758D02*
G01X0093135Y-042702D01*
G01X0093135Y-042702D02*
G01X0092967Y-042702D01*
G01X0092967Y-042702D02*
G01X0092854Y-042645D01*
G01X0092854Y-042645D02*
G01X0092798Y-042533D01*
G01X0092798Y-042533D02*
G01X0092798Y-042477D01*
G01X0092798Y-042477D02*
G01X0092854Y-042364D01*
G01X0092854Y-042364D02*
G01X0092967Y-042308D01*
G01X0092967Y-042308D02*
G01X0093135Y-042308D01*
G01X0093135Y-042308D02*
G01X0093248Y-042364D01*
G01X0093698Y-043545D02*
G01X0093754Y-043489D01*
G01X0093754Y-043489D02*
G01X0093867Y-043320D01*
G01X0093867Y-043320D02*
G01X0093923Y-043208D01*
G01X0093923Y-043208D02*
G01X0093979Y-043039D01*
G01X0093979Y-043039D02*
G01X0094035Y-042758D01*
G01X0094035Y-042758D02*
G01X0094035Y-042533D01*
G01X0094035Y-042533D02*
G01X0093979Y-042252D01*
G01X0093979Y-042252D02*
G01X0093923Y-042083D01*
G01X0093923Y-042083D02*
G01X0093867Y-041970D01*
G01X0093867Y-041970D02*
G01X0093754Y-041802D01*
G01X0093754Y-041802D02*
G01X0093698Y-041746D01*
G01X0065970Y-044120D02*
G75*
G03X0065970Y-044120I-000150J0000000D01*
G01X0067264Y-043473D02*
G01X0067376Y-043473D01*
G01X0067376Y-043473D02*
G01X0067489Y-043530D01*
G01X0067489Y-043530D02*
G01X0067545Y-043586D01*
G01X0067545Y-043586D02*
G01X0067601Y-043698D01*
G01X0067601Y-043698D02*
G01X0067657Y-043923D01*
G01X0067657Y-043923D02*
G01X0067657Y-044204D01*
G01X0067657Y-044204D02*
G01X0067601Y-044429D01*
G01X0067601Y-044429D02*
G01X0067545Y-044542D01*
G01X0067545Y-044542D02*
G01X0067489Y-044598D01*
G01X0067489Y-044598D02*
G01X0067376Y-044654D01*
G01X0067376Y-044654D02*
G01X0067264Y-044654D01*
G01X0067264Y-044654D02*
G01X0067151Y-044598D01*
G01X0067151Y-044598D02*
G01X0067095Y-044542D01*
G01X0067095Y-044542D02*
G01X0067039Y-044429D01*
G01X0067039Y-044429D02*
G01X0066982Y-044204D01*
G01X0066982Y-044204D02*
G01X0066982Y-043923D01*
G01X0066982Y-043923D02*
G01X0067039Y-043698D01*
G01X0067039Y-043698D02*
G01X0067095Y-043586D01*
G01X0067095Y-043586D02*
G01X0067151Y-043530D01*
G01X0067151Y-043530D02*
G01X0067264Y-043473D01*
G01X0068163Y-044542D02*
G01X0068220Y-044598D01*
G01X0068220Y-044598D02*
G01X0068163Y-044654D01*
G01X0068163Y-044654D02*
G01X0068107Y-044598D01*
G01X0068107Y-044598D02*
G01X0068163Y-044542D01*
G01X0068163Y-044542D02*
G01X0068163Y-044654D01*
G01X0068613Y-043473D02*
G01X0069401Y-043473D01*
G01X0069401Y-043473D02*
G01X0068895Y-044654D01*
G01X0070357Y-043473D02*
G01X0070132Y-043473D01*
G01X0070132Y-043473D02*
G01X0070019Y-043530D01*
G01X0070019Y-043530D02*
G01X0069963Y-043586D01*
G01X0069963Y-043586D02*
G01X0069851Y-043755D01*
G01X0069851Y-043755D02*
G01X0069795Y-043979D01*
G01X0069795Y-043979D02*
G01X0069795Y-044429D01*
G01X0069795Y-044429D02*
G01X0069851Y-044542D01*
G01X0069851Y-044542D02*
G01X0069907Y-044598D01*
G01X0069907Y-044598D02*
G01X0070019Y-044654D01*
G01X0070019Y-044654D02*
G01X0070244Y-044654D01*
G01X0070244Y-044654D02*
G01X0070357Y-044598D01*
G01X0070357Y-044598D02*
G01X0070413Y-044542D01*
G01X0070413Y-044542D02*
G01X0070469Y-044429D01*
G01X0070469Y-044429D02*
G01X0070469Y-044148D01*
G01X0070469Y-044148D02*
G01X0070413Y-044036D01*
G01X0070413Y-044036D02*
G01X0070357Y-043979D01*
G01X0070357Y-043979D02*
G01X0070244Y-043923D01*
G01X0070244Y-043923D02*
G01X0070019Y-043923D01*
G01X0070019Y-043923D02*
G01X0069907Y-043979D01*
G01X0069907Y-043979D02*
G01X0069851Y-044036D01*
G01X0069851Y-044036D02*
G01X0069795Y-044148D01*
G01X0070976Y-044654D02*
G01X0070976Y-043867D01*
G01X0070976Y-043979D02*
G01X0071032Y-043923D01*
G01X0071032Y-043923D02*
G01X0071144Y-043867D01*
G01X0071144Y-043867D02*
G01X0071313Y-043867D01*
G01X0071313Y-043867D02*
G01X0071426Y-043923D01*
G01X0071426Y-043923D02*
G01X0071482Y-044036D01*
G01X0071482Y-044036D02*
G01X0071482Y-044654D01*
G01X0071482Y-044036D02*
G01X0071538Y-043923D01*
G01X0071538Y-043923D02*
G01X0071651Y-043867D01*
G01X0071651Y-043867D02*
G01X0071819Y-043867D01*
G01X0071819Y-043867D02*
G01X0071932Y-043923D01*
G01X0071932Y-043923D02*
G01X0071988Y-044036D01*
G01X0071988Y-044036D02*
G01X0071988Y-044654D01*
G01X0072550Y-044654D02*
G01X0072550Y-043867D01*
G01X0072550Y-043979D02*
G01X0072607Y-043923D01*
G01X0072607Y-043923D02*
G01X0072719Y-043867D01*
G01X0072719Y-043867D02*
G01X0072888Y-043867D01*
G01X0072888Y-043867D02*
G01X0073000Y-043923D01*
G01X0073000Y-043923D02*
G01X0073057Y-044036D01*
G01X0073057Y-044036D02*
G01X0073057Y-044654D01*
G01X0073057Y-044036D02*
G01X0073113Y-043923D01*
G01X0073113Y-043923D02*
G01X0073225Y-043867D01*
G01X0073225Y-043867D02*
G01X0073394Y-043867D01*
G01X0073394Y-043867D02*
G01X0073507Y-043923D01*
G01X0073507Y-043923D02*
G01X0073563Y-044036D01*
G01X0073563Y-044036D02*
G01X0073563Y-044654D01*
G01X0075869Y-043417D02*
G01X0074856Y-044936D01*
G01X0077387Y-043473D02*
G01X0077500Y-043473D01*
G01X0077500Y-043473D02*
G01X0077612Y-043530D01*
G01X0077612Y-043530D02*
G01X0077669Y-043586D01*
G01X0077669Y-043586D02*
G01X0077725Y-043698D01*
G01X0077725Y-043698D02*
G01X0077781Y-043923D01*
G01X0077781Y-043923D02*
G01X0077781Y-044204D01*
G01X0077781Y-044204D02*
G01X0077725Y-044429D01*
G01X0077725Y-044429D02*
G01X0077669Y-044542D01*
G01X0077669Y-044542D02*
G01X0077612Y-044598D01*
G01X0077612Y-044598D02*
G01X0077500Y-044654D01*
G01X0077500Y-044654D02*
G01X0077387Y-044654D01*
G01X0077387Y-044654D02*
G01X0077275Y-044598D01*
G01X0077275Y-044598D02*
G01X0077219Y-044542D01*
G01X0077219Y-044542D02*
G01X0077162Y-044429D01*
G01X0077162Y-044429D02*
G01X0077106Y-044204D01*
G01X0077106Y-044204D02*
G01X0077106Y-043923D01*
G01X0077106Y-043923D02*
G01X0077162Y-043698D01*
G01X0077162Y-043698D02*
G01X0077219Y-043586D01*
G01X0077219Y-043586D02*
G01X0077275Y-043530D01*
G01X0077275Y-043530D02*
G01X0077387Y-043473D01*
G01X0078287Y-044542D02*
G01X0078343Y-044598D01*
G01X0078343Y-044598D02*
G01X0078287Y-044654D01*
G01X0078287Y-044654D02*
G01X0078231Y-044598D01*
G01X0078231Y-044598D02*
G01X0078287Y-044542D01*
G01X0078287Y-044542D02*
G01X0078287Y-044654D01*
G01X0079075Y-043473D02*
G01X0079187Y-043473D01*
G01X0079187Y-043473D02*
G01X0079300Y-043530D01*
G01X0079300Y-043530D02*
G01X0079356Y-043586D01*
G01X0079356Y-043586D02*
G01X0079412Y-043698D01*
G01X0079412Y-043698D02*
G01X0079468Y-043923D01*
G01X0079468Y-043923D02*
G01X0079468Y-044204D01*
G01X0079468Y-044204D02*
G01X0079412Y-044429D01*
G01X0079412Y-044429D02*
G01X0079356Y-044542D01*
G01X0079356Y-044542D02*
G01X0079300Y-044598D01*
G01X0079300Y-044598D02*
G01X0079187Y-044654D01*
G01X0079187Y-044654D02*
G01X0079075Y-044654D01*
G01X0079075Y-044654D02*
G01X0078962Y-044598D01*
G01X0078962Y-044598D02*
G01X0078906Y-044542D01*
G01X0078906Y-044542D02*
G01X0078850Y-044429D01*
G01X0078850Y-044429D02*
G01X0078793Y-044204D01*
G01X0078793Y-044204D02*
G01X0078793Y-043923D01*
G01X0078793Y-043923D02*
G01X0078850Y-043698D01*
G01X0078850Y-043698D02*
G01X0078906Y-043586D01*
G01X0078906Y-043586D02*
G01X0078962Y-043530D01*
G01X0078962Y-043530D02*
G01X0079075Y-043473D01*
G01X0079862Y-043473D02*
G01X0080593Y-043473D01*
G01X0080593Y-043473D02*
G01X0080199Y-043923D01*
G01X0080199Y-043923D02*
G01X0080368Y-043923D01*
G01X0080368Y-043923D02*
G01X0080481Y-043979D01*
G01X0080481Y-043979D02*
G01X0080537Y-044036D01*
G01X0080537Y-044036D02*
G01X0080593Y-044148D01*
G01X0080593Y-044148D02*
G01X0080593Y-044429D01*
G01X0080593Y-044429D02*
G01X0080537Y-044542D01*
G01X0080537Y-044542D02*
G01X0080481Y-044598D01*
G01X0080481Y-044598D02*
G01X0080368Y-044654D01*
G01X0080368Y-044654D02*
G01X0080031Y-044654D01*
G01X0080031Y-044654D02*
G01X0079918Y-044598D01*
G01X0079918Y-044598D02*
G01X0079862Y-044542D01*
G01X0081324Y-043473D02*
G01X0081437Y-043473D01*
G01X0081437Y-043473D02*
G01X0081549Y-043530D01*
G01X0081549Y-043530D02*
G01X0081606Y-043586D01*
G01X0081606Y-043586D02*
G01X0081662Y-043698D01*
G01X0081662Y-043698D02*
G01X0081718Y-043923D01*
G01X0081718Y-043923D02*
G01X0081718Y-044204D01*
G01X0081718Y-044204D02*
G01X0081662Y-044429D01*
G01X0081662Y-044429D02*
G01X0081606Y-044542D01*
G01X0081606Y-044542D02*
G01X0081549Y-044598D01*
G01X0081549Y-044598D02*
G01X0081437Y-044654D01*
G01X0081437Y-044654D02*
G01X0081324Y-044654D01*
G01X0081324Y-044654D02*
G01X0081212Y-044598D01*
G01X0081212Y-044598D02*
G01X0081156Y-044542D01*
G01X0081156Y-044542D02*
G01X0081099Y-044429D01*
G01X0081099Y-044429D02*
G01X0081043Y-044204D01*
G01X0081043Y-044204D02*
G01X0081043Y-043923D01*
G01X0081043Y-043923D02*
G01X0081099Y-043698D01*
G01X0081099Y-043698D02*
G01X0081156Y-043586D01*
G01X0081156Y-043586D02*
G01X0081212Y-043530D01*
G01X0081212Y-043530D02*
G01X0081324Y-043473D01*
G01X0082168Y-043473D02*
G01X0082168Y-043698D01*
G01X0082618Y-043473D02*
G01X0082618Y-043698D01*
G01X0084361Y-045104D02*
G01X0084305Y-045048D01*
G01X0084305Y-045048D02*
G01X0084193Y-044879D01*
G01X0084193Y-044879D02*
G01X0084136Y-044767D01*
G01X0084136Y-044767D02*
G01X0084080Y-044598D01*
G01X0084080Y-044598D02*
G01X0084024Y-044317D01*
G01X0084024Y-044317D02*
G01X0084024Y-044092D01*
G01X0084024Y-044092D02*
G01X0084080Y-043811D01*
G01X0084080Y-043811D02*
G01X0084136Y-043642D01*
G01X0084136Y-043642D02*
G01X0084193Y-043530D01*
G01X0084193Y-043530D02*
G01X0084305Y-043361D01*
G01X0084305Y-043361D02*
G01X0084361Y-043305D01*
G01X0085430Y-044654D02*
G01X0084755Y-044654D01*
G01X0085093Y-044654D02*
G01X0085093Y-043473D01*
G01X0085093Y-043473D02*
G01X0084980Y-043642D01*
G01X0084980Y-043642D02*
G01X0084868Y-043755D01*
G01X0084868Y-043755D02*
G01X0084755Y-043811D01*
G01X0086442Y-043473D02*
G01X0086217Y-043473D01*
G01X0086217Y-043473D02*
G01X0086105Y-043530D01*
G01X0086105Y-043530D02*
G01X0086049Y-043586D01*
G01X0086049Y-043586D02*
G01X0085936Y-043755D01*
G01X0085936Y-043755D02*
G01X0085880Y-043979D01*
G01X0085880Y-043979D02*
G01X0085880Y-044429D01*
G01X0085880Y-044429D02*
G01X0085936Y-044542D01*
G01X0085936Y-044542D02*
G01X0085992Y-044598D01*
G01X0085992Y-044598D02*
G01X0086105Y-044654D01*
G01X0086105Y-044654D02*
G01X0086330Y-044654D01*
G01X0086330Y-044654D02*
G01X0086442Y-044598D01*
G01X0086442Y-044598D02*
G01X0086499Y-044542D01*
G01X0086499Y-044542D02*
G01X0086555Y-044429D01*
G01X0086555Y-044429D02*
G01X0086555Y-044148D01*
G01X0086555Y-044148D02*
G01X0086499Y-044036D01*
G01X0086499Y-044036D02*
G01X0086442Y-043979D01*
G01X0086442Y-043979D02*
G01X0086330Y-043923D01*
G01X0086330Y-043923D02*
G01X0086105Y-043923D01*
G01X0086105Y-043923D02*
G01X0085992Y-043979D01*
G01X0085992Y-043979D02*
G01X0085936Y-044036D01*
G01X0085936Y-044036D02*
G01X0085880Y-044148D01*
G01X0087961Y-044654D02*
G01X0087961Y-043473D01*
G01X0088467Y-044654D02*
G01X0088467Y-044036D01*
G01X0088467Y-044036D02*
G01X0088411Y-043923D01*
G01X0088411Y-043923D02*
G01X0088298Y-043867D01*
G01X0088298Y-043867D02*
G01X0088130Y-043867D01*
G01X0088130Y-043867D02*
G01X0088017Y-043923D01*
G01X0088017Y-043923D02*
G01X0087961Y-043979D01*
G01X0089198Y-044654D02*
G01X0089086Y-044598D01*
G01X0089086Y-044598D02*
G01X0089030Y-044542D01*
G01X0089030Y-044542D02*
G01X0088973Y-044429D01*
G01X0088973Y-044429D02*
G01X0088973Y-044092D01*
G01X0088973Y-044092D02*
G01X0089030Y-043979D01*
G01X0089030Y-043979D02*
G01X0089086Y-043923D01*
G01X0089086Y-043923D02*
G01X0089198Y-043867D01*
G01X0089198Y-043867D02*
G01X0089367Y-043867D01*
G01X0089367Y-043867D02*
G01X0089480Y-043923D01*
G01X0089480Y-043923D02*
G01X0089536Y-043979D01*
G01X0089536Y-043979D02*
G01X0089592Y-044092D01*
G01X0089592Y-044092D02*
G01X0089592Y-044429D01*
G01X0089592Y-044429D02*
G01X0089536Y-044542D01*
G01X0089536Y-044542D02*
G01X0089480Y-044598D01*
G01X0089480Y-044598D02*
G01X0089367Y-044654D01*
G01X0089367Y-044654D02*
G01X0089198Y-044654D01*
G01X0090267Y-044654D02*
G01X0090154Y-044598D01*
G01X0090154Y-044598D02*
G01X0090098Y-044486D01*
G01X0090098Y-044486D02*
G01X0090098Y-043473D01*
G01X0091167Y-044598D02*
G01X0091054Y-044654D01*
G01X0091054Y-044654D02*
G01X0090829Y-044654D01*
G01X0090829Y-044654D02*
G01X0090717Y-044598D01*
G01X0090717Y-044598D02*
G01X0090661Y-044486D01*
G01X0090661Y-044486D02*
G01X0090661Y-044036D01*
G01X0090661Y-044036D02*
G01X0090717Y-043923D01*
G01X0090717Y-043923D02*
G01X0090829Y-043867D01*
G01X0090829Y-043867D02*
G01X0091054Y-043867D01*
G01X0091054Y-043867D02*
G01X0091167Y-043923D01*
G01X0091167Y-043923D02*
G01X0091223Y-044036D01*
G01X0091223Y-044036D02*
G01X0091223Y-044148D01*
G01X0091223Y-044148D02*
G01X0090661Y-044261D01*
G01X0091673Y-044598D02*
G01X0091786Y-044654D01*
G01X0091786Y-044654D02*
G01X0092010Y-044654D01*
G01X0092010Y-044654D02*
G01X0092123Y-044598D01*
G01X0092123Y-044598D02*
G01X0092179Y-044486D01*
G01X0092179Y-044486D02*
G01X0092179Y-044429D01*
G01X0092179Y-044429D02*
G01X0092123Y-044317D01*
G01X0092123Y-044317D02*
G01X0092010Y-044261D01*
G01X0092010Y-044261D02*
G01X0091842Y-044261D01*
G01X0091842Y-044261D02*
G01X0091729Y-044204D01*
G01X0091729Y-044204D02*
G01X0091673Y-044092D01*
G01X0091673Y-044092D02*
G01X0091673Y-044036D01*
G01X0091673Y-044036D02*
G01X0091729Y-043923D01*
G01X0091729Y-043923D02*
G01X0091842Y-043867D01*
G01X0091842Y-043867D02*
G01X0092010Y-043867D01*
G01X0092010Y-043867D02*
G01X0092123Y-043923D01*
G01X0092573Y-045104D02*
G01X0092629Y-045048D01*
G01X0092629Y-045048D02*
G01X0092742Y-044879D01*
G01X0092742Y-044879D02*
G01X0092798Y-044767D01*
G01X0092798Y-044767D02*
G01X0092854Y-044598D01*
G01X0092854Y-044598D02*
G01X0092910Y-044317D01*
G01X0092910Y-044317D02*
G01X0092910Y-044092D01*
G01X0092910Y-044092D02*
G01X0092854Y-043811D01*
G01X0092854Y-043811D02*
G01X0092798Y-043642D01*
G01X0092798Y-043642D02*
G01X0092742Y-043530D01*
G01X0092742Y-043530D02*
G01X0092629Y-043361D01*
G01X0092629Y-043361D02*
G01X0092573Y-043305D01*
G01X0065813Y-045522D02*
G01X0065813Y-045837D01*
G01X0065655Y-045679D02*
G01X0065970Y-045679D01*
G01X0067264Y-045032D02*
G01X0067376Y-045032D01*
G01X0067376Y-045032D02*
G01X0067489Y-045089D01*
G01X0067489Y-045089D02*
G01X0067545Y-045145D01*
G01X0067545Y-045145D02*
G01X0067601Y-045257D01*
G01X0067601Y-045257D02*
G01X0067657Y-045482D01*
G01X0067657Y-045482D02*
G01X0067657Y-045764D01*
G01X0067657Y-045764D02*
G01X0067601Y-045988D01*
G01X0067601Y-045988D02*
G01X0067545Y-046101D01*
G01X0067545Y-046101D02*
G01X0067489Y-046157D01*
G01X0067489Y-046157D02*
G01X0067376Y-046213D01*
G01X0067376Y-046213D02*
G01X0067264Y-046213D01*
G01X0067264Y-046213D02*
G01X0067151Y-046157D01*
G01X0067151Y-046157D02*
G01X0067095Y-046101D01*
G01X0067095Y-046101D02*
G01X0067039Y-045988D01*
G01X0067039Y-045988D02*
G01X0066982Y-045764D01*
G01X0066982Y-045764D02*
G01X0066982Y-045482D01*
G01X0066982Y-045482D02*
G01X0067039Y-045257D01*
G01X0067039Y-045257D02*
G01X0067095Y-045145D01*
G01X0067095Y-045145D02*
G01X0067151Y-045089D01*
G01X0067151Y-045089D02*
G01X0067264Y-045032D01*
G01X0068163Y-046101D02*
G01X0068220Y-046157D01*
G01X0068220Y-046157D02*
G01X0068163Y-046213D01*
G01X0068163Y-046213D02*
G01X0068107Y-046157D01*
G01X0068107Y-046157D02*
G01X0068163Y-046101D01*
G01X0068163Y-046101D02*
G01X0068163Y-046213D01*
G01X0068895Y-045539D02*
G01X0068782Y-045482D01*
G01X0068782Y-045482D02*
G01X0068726Y-045426D01*
G01X0068726Y-045426D02*
G01X0068670Y-045314D01*
G01X0068670Y-045314D02*
G01X0068670Y-045257D01*
G01X0068670Y-045257D02*
G01X0068726Y-045145D01*
G01X0068726Y-045145D02*
G01X0068782Y-045089D01*
G01X0068782Y-045089D02*
G01X0068895Y-045032D01*
G01X0068895Y-045032D02*
G01X0069120Y-045032D01*
G01X0069120Y-045032D02*
G01X0069232Y-045089D01*
G01X0069232Y-045089D02*
G01X0069288Y-045145D01*
G01X0069288Y-045145D02*
G01X0069345Y-045257D01*
G01X0069345Y-045257D02*
G01X0069345Y-045314D01*
G01X0069345Y-045314D02*
G01X0069288Y-045426D01*
G01X0069288Y-045426D02*
G01X0069232Y-045482D01*
G01X0069232Y-045482D02*
G01X0069120Y-045539D01*
G01X0069120Y-045539D02*
G01X0068895Y-045539D01*
G01X0068895Y-045539D02*
G01X0068782Y-045595D01*
G01X0068782Y-045595D02*
G01X0068726Y-045651D01*
G01X0068726Y-045651D02*
G01X0068670Y-045764D01*
G01X0068670Y-045764D02*
G01X0068670Y-045988D01*
G01X0068670Y-045988D02*
G01X0068726Y-046101D01*
G01X0068726Y-046101D02*
G01X0068782Y-046157D01*
G01X0068782Y-046157D02*
G01X0068895Y-046213D01*
G01X0068895Y-046213D02*
G01X0069120Y-046213D01*
G01X0069120Y-046213D02*
G01X0069232Y-046157D01*
G01X0069232Y-046157D02*
G01X0069288Y-046101D01*
G01X0069288Y-046101D02*
G01X0069345Y-045988D01*
G01X0069345Y-045988D02*
G01X0069345Y-045764D01*
G01X0069345Y-045764D02*
G01X0069288Y-045651D01*
G01X0069288Y-045651D02*
G01X0069232Y-045595D01*
G01X0069232Y-045595D02*
G01X0069120Y-045539D01*
G01X0070076Y-045032D02*
G01X0070188Y-045032D01*
G01X0070188Y-045032D02*
G01X0070301Y-045089D01*
G01X0070301Y-045089D02*
G01X0070357Y-045145D01*
G01X0070357Y-045145D02*
G01X0070413Y-045257D01*
G01X0070413Y-045257D02*
G01X0070469Y-045482D01*
G01X0070469Y-045482D02*
G01X0070469Y-045764D01*
G01X0070469Y-045764D02*
G01X0070413Y-045988D01*
G01X0070413Y-045988D02*
G01X0070357Y-046101D01*
G01X0070357Y-046101D02*
G01X0070301Y-046157D01*
G01X0070301Y-046157D02*
G01X0070188Y-046213D01*
G01X0070188Y-046213D02*
G01X0070076Y-046213D01*
G01X0070076Y-046213D02*
G01X0069963Y-046157D01*
G01X0069963Y-046157D02*
G01X0069907Y-046101D01*
G01X0069907Y-046101D02*
G01X0069851Y-045988D01*
G01X0069851Y-045988D02*
G01X0069795Y-045764D01*
G01X0069795Y-045764D02*
G01X0069795Y-045482D01*
G01X0069795Y-045482D02*
G01X0069851Y-045257D01*
G01X0069851Y-045257D02*
G01X0069907Y-045145D01*
G01X0069907Y-045145D02*
G01X0069963Y-045089D01*
G01X0069963Y-045089D02*
G01X0070076Y-045032D01*
G01X0070976Y-046213D02*
G01X0070976Y-045426D01*
G01X0070976Y-045539D02*
G01X0071032Y-045482D01*
G01X0071032Y-045482D02*
G01X0071144Y-045426D01*
G01X0071144Y-045426D02*
G01X0071313Y-045426D01*
G01X0071313Y-045426D02*
G01X0071426Y-045482D01*
G01X0071426Y-045482D02*
G01X0071482Y-045595D01*
G01X0071482Y-045595D02*
G01X0071482Y-046213D01*
G01X0071482Y-045595D02*
G01X0071538Y-045482D01*
G01X0071538Y-045482D02*
G01X0071651Y-045426D01*
G01X0071651Y-045426D02*
G01X0071819Y-045426D01*
G01X0071819Y-045426D02*
G01X0071932Y-045482D01*
G01X0071932Y-045482D02*
G01X0071988Y-045595D01*
G01X0071988Y-045595D02*
G01X0071988Y-046213D01*
G01X0072550Y-046213D02*
G01X0072550Y-045426D01*
G01X0072550Y-045539D02*
G01X0072607Y-045482D01*
G01X0072607Y-045482D02*
G01X0072719Y-045426D01*
G01X0072719Y-045426D02*
G01X0072888Y-045426D01*
G01X0072888Y-045426D02*
G01X0073000Y-045482D01*
G01X0073000Y-045482D02*
G01X0073057Y-045595D01*
G01X0073057Y-045595D02*
G01X0073057Y-046213D01*
G01X0073057Y-045595D02*
G01X0073113Y-045482D01*
G01X0073113Y-045482D02*
G01X0073225Y-045426D01*
G01X0073225Y-045426D02*
G01X0073394Y-045426D01*
G01X0073394Y-045426D02*
G01X0073507Y-045482D01*
G01X0073507Y-045482D02*
G01X0073563Y-045595D01*
G01X0073563Y-045595D02*
G01X0073563Y-046213D01*
G01X0075869Y-044976D02*
G01X0074856Y-046495D01*
G01X0077387Y-045032D02*
G01X0077500Y-045032D01*
G01X0077500Y-045032D02*
G01X0077612Y-045089D01*
G01X0077612Y-045089D02*
G01X0077669Y-045145D01*
G01X0077669Y-045145D02*
G01X0077725Y-045257D01*
G01X0077725Y-045257D02*
G01X0077781Y-045482D01*
G01X0077781Y-045482D02*
G01X0077781Y-045764D01*
G01X0077781Y-045764D02*
G01X0077725Y-045988D01*
G01X0077725Y-045988D02*
G01X0077669Y-046101D01*
G01X0077669Y-046101D02*
G01X0077612Y-046157D01*
G01X0077612Y-046157D02*
G01X0077500Y-046213D01*
G01X0077500Y-046213D02*
G01X0077387Y-046213D01*
G01X0077387Y-046213D02*
G01X0077275Y-046157D01*
G01X0077275Y-046157D02*
G01X0077219Y-046101D01*
G01X0077219Y-046101D02*
G01X0077162Y-045988D01*
G01X0077162Y-045988D02*
G01X0077106Y-045764D01*
G01X0077106Y-045764D02*
G01X0077106Y-045482D01*
G01X0077106Y-045482D02*
G01X0077162Y-045257D01*
G01X0077162Y-045257D02*
G01X0077219Y-045145D01*
G01X0077219Y-045145D02*
G01X0077275Y-045089D01*
G01X0077275Y-045089D02*
G01X0077387Y-045032D01*
G01X0078287Y-046101D02*
G01X0078343Y-046157D01*
G01X0078343Y-046157D02*
G01X0078287Y-046213D01*
G01X0078287Y-046213D02*
G01X0078231Y-046157D01*
G01X0078231Y-046157D02*
G01X0078287Y-046101D01*
G01X0078287Y-046101D02*
G01X0078287Y-046213D01*
G01X0079075Y-045032D02*
G01X0079187Y-045032D01*
G01X0079187Y-045032D02*
G01X0079300Y-045089D01*
G01X0079300Y-045089D02*
G01X0079356Y-045145D01*
G01X0079356Y-045145D02*
G01X0079412Y-045257D01*
G01X0079412Y-045257D02*
G01X0079468Y-045482D01*
G01X0079468Y-045482D02*
G01X0079468Y-045764D01*
G01X0079468Y-045764D02*
G01X0079412Y-045988D01*
G01X0079412Y-045988D02*
G01X0079356Y-046101D01*
G01X0079356Y-046101D02*
G01X0079300Y-046157D01*
G01X0079300Y-046157D02*
G01X0079187Y-046213D01*
G01X0079187Y-046213D02*
G01X0079075Y-046213D01*
G01X0079075Y-046213D02*
G01X0078962Y-046157D01*
G01X0078962Y-046157D02*
G01X0078906Y-046101D01*
G01X0078906Y-046101D02*
G01X0078850Y-045988D01*
G01X0078850Y-045988D02*
G01X0078793Y-045764D01*
G01X0078793Y-045764D02*
G01X0078793Y-045482D01*
G01X0078793Y-045482D02*
G01X0078850Y-045257D01*
G01X0078850Y-045257D02*
G01X0078906Y-045145D01*
G01X0078906Y-045145D02*
G01X0078962Y-045089D01*
G01X0078962Y-045089D02*
G01X0079075Y-045032D01*
G01X0079862Y-045032D02*
G01X0080593Y-045032D01*
G01X0080593Y-045032D02*
G01X0080199Y-045482D01*
G01X0080199Y-045482D02*
G01X0080368Y-045482D01*
G01X0080368Y-045482D02*
G01X0080481Y-045539D01*
G01X0080481Y-045539D02*
G01X0080537Y-045595D01*
G01X0080537Y-045595D02*
G01X0080593Y-045707D01*
G01X0080593Y-045707D02*
G01X0080593Y-045988D01*
G01X0080593Y-045988D02*
G01X0080537Y-046101D01*
G01X0080537Y-046101D02*
G01X0080481Y-046157D01*
G01X0080481Y-046157D02*
G01X0080368Y-046213D01*
G01X0080368Y-046213D02*
G01X0080031Y-046213D01*
G01X0080031Y-046213D02*
G01X0079918Y-046157D01*
G01X0079918Y-046157D02*
G01X0079862Y-046101D01*
G01X0081718Y-046213D02*
G01X0081043Y-046213D01*
G01X0081381Y-046213D02*
G01X0081381Y-045032D01*
G01X0081381Y-045032D02*
G01X0081268Y-045201D01*
G01X0081268Y-045201D02*
G01X0081156Y-045314D01*
G01X0081156Y-045314D02*
G01X0081043Y-045370D01*
G01X0082168Y-045032D02*
G01X0082168Y-045257D01*
G01X0082618Y-045032D02*
G01X0082618Y-045257D01*
G01X0084361Y-046663D02*
G01X0084305Y-046607D01*
G01X0084305Y-046607D02*
G01X0084193Y-046438D01*
G01X0084193Y-046438D02*
G01X0084136Y-046326D01*
G01X0084136Y-046326D02*
G01X0084080Y-046157D01*
G01X0084080Y-046157D02*
G01X0084024Y-045876D01*
G01X0084024Y-045876D02*
G01X0084024Y-045651D01*
G01X0084024Y-045651D02*
G01X0084080Y-045370D01*
G01X0084080Y-045370D02*
G01X0084136Y-045201D01*
G01X0084136Y-045201D02*
G01X0084193Y-045089D01*
G01X0084193Y-045089D02*
G01X0084305Y-044920D01*
G01X0084305Y-044920D02*
G01X0084361Y-044864D01*
G01X0085318Y-045426D02*
G01X0085318Y-046213D01*
G01X0085036Y-044976D02*
G01X0084755Y-045820D01*
G01X0084755Y-045820D02*
G01X0085486Y-045820D01*
G01X0086836Y-046213D02*
G01X0086836Y-045032D01*
G01X0087342Y-046213D02*
G01X0087342Y-045595D01*
G01X0087342Y-045595D02*
G01X0087286Y-045482D01*
G01X0087286Y-045482D02*
G01X0087174Y-045426D01*
G01X0087174Y-045426D02*
G01X0087005Y-045426D01*
G01X0087005Y-045426D02*
G01X0086892Y-045482D01*
G01X0086892Y-045482D02*
G01X0086836Y-045539D01*
G01X0088073Y-046213D02*
G01X0087961Y-046157D01*
G01X0087961Y-046157D02*
G01X0087905Y-046101D01*
G01X0087905Y-046101D02*
G01X0087849Y-045988D01*
G01X0087849Y-045988D02*
G01X0087849Y-045651D01*
G01X0087849Y-045651D02*
G01X0087905Y-045539D01*
G01X0087905Y-045539D02*
G01X0087961Y-045482D01*
G01X0087961Y-045482D02*
G01X0088073Y-045426D01*
G01X0088073Y-045426D02*
G01X0088242Y-045426D01*
G01X0088242Y-045426D02*
G01X0088355Y-045482D01*
G01X0088355Y-045482D02*
G01X0088411Y-045539D01*
G01X0088411Y-045539D02*
G01X0088467Y-045651D01*
G01X0088467Y-045651D02*
G01X0088467Y-045988D01*
G01X0088467Y-045988D02*
G01X0088411Y-046101D01*
G01X0088411Y-046101D02*
G01X0088355Y-046157D01*
G01X0088355Y-046157D02*
G01X0088242Y-046213D01*
G01X0088242Y-046213D02*
G01X0088073Y-046213D01*
G01X0089142Y-046213D02*
G01X0089030Y-046157D01*
G01X0089030Y-046157D02*
G01X0088973Y-046045D01*
G01X0088973Y-046045D02*
G01X0088973Y-045032D01*
G01X0090042Y-046157D02*
G01X0089930Y-046213D01*
G01X0089930Y-046213D02*
G01X0089705Y-046213D01*
G01X0089705Y-046213D02*
G01X0089592Y-046157D01*
G01X0089592Y-046157D02*
G01X0089536Y-046045D01*
G01X0089536Y-046045D02*
G01X0089536Y-045595D01*
G01X0089536Y-045595D02*
G01X0089592Y-045482D01*
G01X0089592Y-045482D02*
G01X0089705Y-045426D01*
G01X0089705Y-045426D02*
G01X0089930Y-045426D01*
G01X0089930Y-045426D02*
G01X0090042Y-045482D01*
G01X0090042Y-045482D02*
G01X0090098Y-045595D01*
G01X0090098Y-045595D02*
G01X0090098Y-045707D01*
G01X0090098Y-045707D02*
G01X0089536Y-045820D01*
G01X0090548Y-046157D02*
G01X0090661Y-046213D01*
G01X0090661Y-046213D02*
G01X0090886Y-046213D01*
G01X0090886Y-046213D02*
G01X0090998Y-046157D01*
G01X0090998Y-046157D02*
G01X0091054Y-046045D01*
G01X0091054Y-046045D02*
G01X0091054Y-045988D01*
G01X0091054Y-045988D02*
G01X0090998Y-045876D01*
G01X0090998Y-045876D02*
G01X0090886Y-045820D01*
G01X0090886Y-045820D02*
G01X0090717Y-045820D01*
G01X0090717Y-045820D02*
G01X0090604Y-045764D01*
G01X0090604Y-045764D02*
G01X0090548Y-045651D01*
G01X0090548Y-045651D02*
G01X0090548Y-045595D01*
G01X0090548Y-045595D02*
G01X0090604Y-045482D01*
G01X0090604Y-045482D02*
G01X0090717Y-045426D01*
G01X0090717Y-045426D02*
G01X0090886Y-045426D01*
G01X0090886Y-045426D02*
G01X0090998Y-045482D01*
G01X0091448Y-046663D02*
G01X0091504Y-046607D01*
G01X0091504Y-046607D02*
G01X0091617Y-046438D01*
G01X0091617Y-046438D02*
G01X0091673Y-046326D01*
G01X0091673Y-046326D02*
G01X0091729Y-046157D01*
G01X0091729Y-046157D02*
G01X0091786Y-045876D01*
G01X0091786Y-045876D02*
G01X0091786Y-045651D01*
G01X0091786Y-045651D02*
G01X0091729Y-045370D01*
G01X0091729Y-045370D02*
G01X0091673Y-045201D01*
G01X0091673Y-045201D02*
G01X0091617Y-045089D01*
G01X0091617Y-045089D02*
G01X0091504Y-044920D01*
G01X0091504Y-044920D02*
G01X0091448Y-044864D01*
G01X0065911Y-047380D02*
G01X0065911Y-047097D01*
G01X0065911Y-047097D02*
G01X0065629Y-047097D01*
G01X0065629Y-047097D02*
G01X0065629Y-047380D01*
G01X0065629Y-047380D02*
G01X0065911Y-047380D01*
G01X0067657Y-047773D02*
G01X0066982Y-047773D01*
G01X0067320Y-047773D02*
G01X0067320Y-046591D01*
G01X0067320Y-046591D02*
G01X0067207Y-046760D01*
G01X0067207Y-046760D02*
G01X0067095Y-046873D01*
G01X0067095Y-046873D02*
G01X0066982Y-046929D01*
G01X0068163Y-047660D02*
G01X0068220Y-047716D01*
G01X0068220Y-047716D02*
G01X0068163Y-047773D01*
G01X0068163Y-047773D02*
G01X0068107Y-047716D01*
G01X0068107Y-047716D02*
G01X0068163Y-047660D01*
G01X0068163Y-047660D02*
G01X0068163Y-047773D01*
G01X0068951Y-046591D02*
G01X0069063Y-046591D01*
G01X0069063Y-046591D02*
G01X0069176Y-046648D01*
G01X0069176Y-046648D02*
G01X0069232Y-046704D01*
G01X0069232Y-046704D02*
G01X0069288Y-046816D01*
G01X0069288Y-046816D02*
G01X0069345Y-047041D01*
G01X0069345Y-047041D02*
G01X0069345Y-047323D01*
G01X0069345Y-047323D02*
G01X0069288Y-047548D01*
G01X0069288Y-047548D02*
G01X0069232Y-047660D01*
G01X0069232Y-047660D02*
G01X0069176Y-047716D01*
G01X0069176Y-047716D02*
G01X0069063Y-047773D01*
G01X0069063Y-047773D02*
G01X0068951Y-047773D01*
G01X0068951Y-047773D02*
G01X0068838Y-047716D01*
G01X0068838Y-047716D02*
G01X0068782Y-047660D01*
G01X0068782Y-047660D02*
G01X0068726Y-047548D01*
G01X0068726Y-047548D02*
G01X0068670Y-047323D01*
G01X0068670Y-047323D02*
G01X0068670Y-047041D01*
G01X0068670Y-047041D02*
G01X0068726Y-046816D01*
G01X0068726Y-046816D02*
G01X0068782Y-046704D01*
G01X0068782Y-046704D02*
G01X0068838Y-046648D01*
G01X0068838Y-046648D02*
G01X0068951Y-046591D01*
G01X0069795Y-046704D02*
G01X0069851Y-046648D01*
G01X0069851Y-046648D02*
G01X0069963Y-046591D01*
G01X0069963Y-046591D02*
G01X0070244Y-046591D01*
G01X0070244Y-046591D02*
G01X0070357Y-046648D01*
G01X0070357Y-046648D02*
G01X0070413Y-046704D01*
G01X0070413Y-046704D02*
G01X0070469Y-046816D01*
G01X0070469Y-046816D02*
G01X0070469Y-046929D01*
G01X0070469Y-046929D02*
G01X0070413Y-047098D01*
G01X0070413Y-047098D02*
G01X0069738Y-047773D01*
G01X0069738Y-047773D02*
G01X0070469Y-047773D01*
G01X0070976Y-047773D02*
G01X0070976Y-046985D01*
G01X0070976Y-047098D02*
G01X0071032Y-047041D01*
G01X0071032Y-047041D02*
G01X0071144Y-046985D01*
G01X0071144Y-046985D02*
G01X0071313Y-046985D01*
G01X0071313Y-046985D02*
G01X0071426Y-047041D01*
G01X0071426Y-047041D02*
G01X0071482Y-047154D01*
G01X0071482Y-047154D02*
G01X0071482Y-047773D01*
G01X0071482Y-047154D02*
G01X0071538Y-047041D01*
G01X0071538Y-047041D02*
G01X0071651Y-046985D01*
G01X0071651Y-046985D02*
G01X0071819Y-046985D01*
G01X0071819Y-046985D02*
G01X0071932Y-047041D01*
G01X0071932Y-047041D02*
G01X0071988Y-047154D01*
G01X0071988Y-047154D02*
G01X0071988Y-047773D01*
G01X0072550Y-047773D02*
G01X0072550Y-046985D01*
G01X0072550Y-047098D02*
G01X0072607Y-047041D01*
G01X0072607Y-047041D02*
G01X0072719Y-046985D01*
G01X0072719Y-046985D02*
G01X0072888Y-046985D01*
G01X0072888Y-046985D02*
G01X0073000Y-047041D01*
G01X0073000Y-047041D02*
G01X0073057Y-047154D01*
G01X0073057Y-047154D02*
G01X0073057Y-047773D01*
G01X0073057Y-047154D02*
G01X0073113Y-047041D01*
G01X0073113Y-047041D02*
G01X0073225Y-046985D01*
G01X0073225Y-046985D02*
G01X0073394Y-046985D01*
G01X0073394Y-046985D02*
G01X0073507Y-047041D01*
G01X0073507Y-047041D02*
G01X0073563Y-047154D01*
G01X0073563Y-047154D02*
G01X0073563Y-047773D01*
G01X0075869Y-046535D02*
G01X0074856Y-048054D01*
G01X0077387Y-046591D02*
G01X0077500Y-046591D01*
G01X0077500Y-046591D02*
G01X0077612Y-046648D01*
G01X0077612Y-046648D02*
G01X0077669Y-046704D01*
G01X0077669Y-046704D02*
G01X0077725Y-046816D01*
G01X0077725Y-046816D02*
G01X0077781Y-047041D01*
G01X0077781Y-047041D02*
G01X0077781Y-047323D01*
G01X0077781Y-047323D02*
G01X0077725Y-047548D01*
G01X0077725Y-047548D02*
G01X0077669Y-047660D01*
G01X0077669Y-047660D02*
G01X0077612Y-047716D01*
G01X0077612Y-047716D02*
G01X0077500Y-047773D01*
G01X0077500Y-047773D02*
G01X0077387Y-047773D01*
G01X0077387Y-047773D02*
G01X0077275Y-047716D01*
G01X0077275Y-047716D02*
G01X0077219Y-047660D01*
G01X0077219Y-047660D02*
G01X0077162Y-047548D01*
G01X0077162Y-047548D02*
G01X0077106Y-047323D01*
G01X0077106Y-047323D02*
G01X0077106Y-047041D01*
G01X0077106Y-047041D02*
G01X0077162Y-046816D01*
G01X0077162Y-046816D02*
G01X0077219Y-046704D01*
G01X0077219Y-046704D02*
G01X0077275Y-046648D01*
G01X0077275Y-046648D02*
G01X0077387Y-046591D01*
G01X0078287Y-047660D02*
G01X0078343Y-047716D01*
G01X0078343Y-047716D02*
G01X0078287Y-047773D01*
G01X0078287Y-047773D02*
G01X0078231Y-047716D01*
G01X0078231Y-047716D02*
G01X0078287Y-047660D01*
G01X0078287Y-047660D02*
G01X0078287Y-047773D01*
G01X0079075Y-046591D02*
G01X0079187Y-046591D01*
G01X0079187Y-046591D02*
G01X0079300Y-046648D01*
G01X0079300Y-046648D02*
G01X0079356Y-046704D01*
G01X0079356Y-046704D02*
G01X0079412Y-046816D01*
G01X0079412Y-046816D02*
G01X0079468Y-047041D01*
G01X0079468Y-047041D02*
G01X0079468Y-047323D01*
G01X0079468Y-047323D02*
G01X0079412Y-047548D01*
G01X0079412Y-047548D02*
G01X0079356Y-047660D01*
G01X0079356Y-047660D02*
G01X0079300Y-047716D01*
G01X0079300Y-047716D02*
G01X0079187Y-047773D01*
G01X0079187Y-047773D02*
G01X0079075Y-047773D01*
G01X0079075Y-047773D02*
G01X0078962Y-047716D01*
G01X0078962Y-047716D02*
G01X0078906Y-047660D01*
G01X0078906Y-047660D02*
G01X0078850Y-047548D01*
G01X0078850Y-047548D02*
G01X0078793Y-047323D01*
G01X0078793Y-047323D02*
G01X0078793Y-047041D01*
G01X0078793Y-047041D02*
G01X0078850Y-046816D01*
G01X0078850Y-046816D02*
G01X0078906Y-046704D01*
G01X0078906Y-046704D02*
G01X0078962Y-046648D01*
G01X0078962Y-046648D02*
G01X0079075Y-046591D01*
G01X0080481Y-046985D02*
G01X0080481Y-047773D01*
G01X0080199Y-046535D02*
G01X0079918Y-047379D01*
G01X0079918Y-047379D02*
G01X0080649Y-047379D01*
G01X0081324Y-046591D02*
G01X0081437Y-046591D01*
G01X0081437Y-046591D02*
G01X0081549Y-046648D01*
G01X0081549Y-046648D02*
G01X0081606Y-046704D01*
G01X0081606Y-046704D02*
G01X0081662Y-046816D01*
G01X0081662Y-046816D02*
G01X0081718Y-047041D01*
G01X0081718Y-047041D02*
G01X0081718Y-047323D01*
G01X0081718Y-047323D02*
G01X0081662Y-047548D01*
G01X0081662Y-047548D02*
G01X0081606Y-047660D01*
G01X0081606Y-047660D02*
G01X0081549Y-047716D01*
G01X0081549Y-047716D02*
G01X0081437Y-047773D01*
G01X0081437Y-047773D02*
G01X0081324Y-047773D01*
G01X0081324Y-047773D02*
G01X0081212Y-047716D01*
G01X0081212Y-047716D02*
G01X0081156Y-047660D01*
G01X0081156Y-047660D02*
G01X0081099Y-047548D01*
G01X0081099Y-047548D02*
G01X0081043Y-047323D01*
G01X0081043Y-047323D02*
G01X0081043Y-047041D01*
G01X0081043Y-047041D02*
G01X0081099Y-046816D01*
G01X0081099Y-046816D02*
G01X0081156Y-046704D01*
G01X0081156Y-046704D02*
G01X0081212Y-046648D01*
G01X0081212Y-046648D02*
G01X0081324Y-046591D01*
G01X0082168Y-046591D02*
G01X0082168Y-046816D01*
G01X0082618Y-046591D02*
G01X0082618Y-046816D01*
G01X0084361Y-048222D02*
G01X0084305Y-048166D01*
G01X0084305Y-048166D02*
G01X0084193Y-047997D01*
G01X0084193Y-047997D02*
G01X0084136Y-047885D01*
G01X0084136Y-047885D02*
G01X0084080Y-047716D01*
G01X0084080Y-047716D02*
G01X0084024Y-047435D01*
G01X0084024Y-047435D02*
G01X0084024Y-047210D01*
G01X0084024Y-047210D02*
G01X0084080Y-046929D01*
G01X0084080Y-046929D02*
G01X0084136Y-046760D01*
G01X0084136Y-046760D02*
G01X0084193Y-046648D01*
G01X0084193Y-046648D02*
G01X0084305Y-046479D01*
G01X0084305Y-046479D02*
G01X0084361Y-046423D01*
G01X0085430Y-047773D02*
G01X0084755Y-047773D01*
G01X0085093Y-047773D02*
G01X0085093Y-046591D01*
G01X0085093Y-046591D02*
G01X0084980Y-046760D01*
G01X0084980Y-046760D02*
G01X0084868Y-046873D01*
G01X0084868Y-046873D02*
G01X0084755Y-046929D01*
G01X0085824Y-046591D02*
G01X0086611Y-046591D01*
G01X0086611Y-046591D02*
G01X0086105Y-047773D01*
G01X0087961Y-047773D02*
G01X0087961Y-046591D01*
G01X0088467Y-047773D02*
G01X0088467Y-047154D01*
G01X0088467Y-047154D02*
G01X0088411Y-047041D01*
G01X0088411Y-047041D02*
G01X0088298Y-046985D01*
G01X0088298Y-046985D02*
G01X0088130Y-046985D01*
G01X0088130Y-046985D02*
G01X0088017Y-047041D01*
G01X0088017Y-047041D02*
G01X0087961Y-047098D01*
G01X0089198Y-047773D02*
G01X0089086Y-047716D01*
G01X0089086Y-047716D02*
G01X0089030Y-047660D01*
G01X0089030Y-047660D02*
G01X0088973Y-047548D01*
G01X0088973Y-047548D02*
G01X0088973Y-047210D01*
G01X0088973Y-047210D02*
G01X0089030Y-047098D01*
G01X0089030Y-047098D02*
G01X0089086Y-047041D01*
G01X0089086Y-047041D02*
G01X0089198Y-046985D01*
G01X0089198Y-046985D02*
G01X0089367Y-046985D01*
G01X0089367Y-046985D02*
G01X0089480Y-047041D01*
G01X0089480Y-047041D02*
G01X0089536Y-047098D01*
G01X0089536Y-047098D02*
G01X0089592Y-047210D01*
G01X0089592Y-047210D02*
G01X0089592Y-047548D01*
G01X0089592Y-047548D02*
G01X0089536Y-047660D01*
G01X0089536Y-047660D02*
G01X0089480Y-047716D01*
G01X0089480Y-047716D02*
G01X0089367Y-047773D01*
G01X0089367Y-047773D02*
G01X0089198Y-047773D01*
G01X0090267Y-047773D02*
G01X0090154Y-047716D01*
G01X0090154Y-047716D02*
G01X0090098Y-047604D01*
G01X0090098Y-047604D02*
G01X0090098Y-046591D01*
G01X0091167Y-047716D02*
G01X0091054Y-047773D01*
G01X0091054Y-047773D02*
G01X0090829Y-047773D01*
G01X0090829Y-047773D02*
G01X0090717Y-047716D01*
G01X0090717Y-047716D02*
G01X0090661Y-047604D01*
G01X0090661Y-047604D02*
G01X0090661Y-047154D01*
G01X0090661Y-047154D02*
G01X0090717Y-047041D01*
G01X0090717Y-047041D02*
G01X0090829Y-046985D01*
G01X0090829Y-046985D02*
G01X0091054Y-046985D01*
G01X0091054Y-046985D02*
G01X0091167Y-047041D01*
G01X0091167Y-047041D02*
G01X0091223Y-047154D01*
G01X0091223Y-047154D02*
G01X0091223Y-047266D01*
G01X0091223Y-047266D02*
G01X0090661Y-047379D01*
G01X0091673Y-047716D02*
G01X0091786Y-047773D01*
G01X0091786Y-047773D02*
G01X0092010Y-047773D01*
G01X0092010Y-047773D02*
G01X0092123Y-047716D01*
G01X0092123Y-047716D02*
G01X0092179Y-047604D01*
G01X0092179Y-047604D02*
G01X0092179Y-047548D01*
G01X0092179Y-047548D02*
G01X0092123Y-047435D01*
G01X0092123Y-047435D02*
G01X0092010Y-047379D01*
G01X0092010Y-047379D02*
G01X0091842Y-047379D01*
G01X0091842Y-047379D02*
G01X0091729Y-047323D01*
G01X0091729Y-047323D02*
G01X0091673Y-047210D01*
G01X0091673Y-047210D02*
G01X0091673Y-047154D01*
G01X0091673Y-047154D02*
G01X0091729Y-047041D01*
G01X0091729Y-047041D02*
G01X0091842Y-046985D01*
G01X0091842Y-046985D02*
G01X0092010Y-046985D01*
G01X0092010Y-046985D02*
G01X0092123Y-047041D01*
G01X0092573Y-048222D02*
G01X0092629Y-048166D01*
G01X0092629Y-048166D02*
G01X0092742Y-047997D01*
G01X0092742Y-047997D02*
G01X0092798Y-047885D01*
G01X0092798Y-047885D02*
G01X0092854Y-047716D01*
G01X0092854Y-047716D02*
G01X0092910Y-047435D01*
G01X0092910Y-047435D02*
G01X0092910Y-047210D01*
G01X0092910Y-047210D02*
G01X0092854Y-046929D01*
G01X0092854Y-046929D02*
G01X0092798Y-046760D01*
G01X0092798Y-046760D02*
G01X0092742Y-046648D01*
G01X0092742Y-046648D02*
G01X0092629Y-046479D01*
G01X0092629Y-046479D02*
G01X0092573Y-046423D01*
G01X0065734Y-049033D02*
G01X0065970Y-048797D01*
G01X0065970Y-048797D02*
G01X0065734Y-048561D01*
G01X0065734Y-048561D02*
G01X0065498Y-048797D01*
G01X0065498Y-048797D02*
G01X0065734Y-049033D01*
G01X0067657Y-049332D02*
G01X0066982Y-049332D01*
G01X0067320Y-049332D02*
G01X0067320Y-048150D01*
G01X0067320Y-048150D02*
G01X0067207Y-048319D01*
G01X0067207Y-048319D02*
G01X0067095Y-048432D01*
G01X0067095Y-048432D02*
G01X0066982Y-048488D01*
G01X0068163Y-049219D02*
G01X0068220Y-049275D01*
G01X0068220Y-049275D02*
G01X0068163Y-049332D01*
G01X0068163Y-049332D02*
G01X0068107Y-049275D01*
G01X0068107Y-049275D02*
G01X0068163Y-049219D01*
G01X0068163Y-049219D02*
G01X0068163Y-049332D01*
G01X0068670Y-048263D02*
G01X0068726Y-048207D01*
G01X0068726Y-048207D02*
G01X0068838Y-048150D01*
G01X0068838Y-048150D02*
G01X0069120Y-048150D01*
G01X0069120Y-048150D02*
G01X0069232Y-048207D01*
G01X0069232Y-048207D02*
G01X0069288Y-048263D01*
G01X0069288Y-048263D02*
G01X0069345Y-048375D01*
G01X0069345Y-048375D02*
G01X0069345Y-048488D01*
G01X0069345Y-048488D02*
G01X0069288Y-048657D01*
G01X0069288Y-048657D02*
G01X0068613Y-049332D01*
G01X0068613Y-049332D02*
G01X0069345Y-049332D01*
G01X0070076Y-048150D02*
G01X0070188Y-048150D01*
G01X0070188Y-048150D02*
G01X0070301Y-048207D01*
G01X0070301Y-048207D02*
G01X0070357Y-048263D01*
G01X0070357Y-048263D02*
G01X0070413Y-048375D01*
G01X0070413Y-048375D02*
G01X0070469Y-048600D01*
G01X0070469Y-048600D02*
G01X0070469Y-048882D01*
G01X0070469Y-048882D02*
G01X0070413Y-049107D01*
G01X0070413Y-049107D02*
G01X0070357Y-049219D01*
G01X0070357Y-049219D02*
G01X0070301Y-049275D01*
G01X0070301Y-049275D02*
G01X0070188Y-049332D01*
G01X0070188Y-049332D02*
G01X0070076Y-049332D01*
G01X0070076Y-049332D02*
G01X0069963Y-049275D01*
G01X0069963Y-049275D02*
G01X0069907Y-049219D01*
G01X0069907Y-049219D02*
G01X0069851Y-049107D01*
G01X0069851Y-049107D02*
G01X0069795Y-048882D01*
G01X0069795Y-048882D02*
G01X0069795Y-048600D01*
G01X0069795Y-048600D02*
G01X0069851Y-048375D01*
G01X0069851Y-048375D02*
G01X0069907Y-048263D01*
G01X0069907Y-048263D02*
G01X0069963Y-048207D01*
G01X0069963Y-048207D02*
G01X0070076Y-048150D01*
G01X0070976Y-049332D02*
G01X0070976Y-048544D01*
G01X0070976Y-048657D02*
G01X0071032Y-048600D01*
G01X0071032Y-048600D02*
G01X0071144Y-048544D01*
G01X0071144Y-048544D02*
G01X0071313Y-048544D01*
G01X0071313Y-048544D02*
G01X0071426Y-048600D01*
G01X0071426Y-048600D02*
G01X0071482Y-048713D01*
G01X0071482Y-048713D02*
G01X0071482Y-049332D01*
G01X0071482Y-048713D02*
G01X0071538Y-048600D01*
G01X0071538Y-048600D02*
G01X0071651Y-048544D01*
G01X0071651Y-048544D02*
G01X0071819Y-048544D01*
G01X0071819Y-048544D02*
G01X0071932Y-048600D01*
G01X0071932Y-048600D02*
G01X0071988Y-048713D01*
G01X0071988Y-048713D02*
G01X0071988Y-049332D01*
G01X0072550Y-049332D02*
G01X0072550Y-048544D01*
G01X0072550Y-048657D02*
G01X0072607Y-048600D01*
G01X0072607Y-048600D02*
G01X0072719Y-048544D01*
G01X0072719Y-048544D02*
G01X0072888Y-048544D01*
G01X0072888Y-048544D02*
G01X0073000Y-048600D01*
G01X0073000Y-048600D02*
G01X0073057Y-048713D01*
G01X0073057Y-048713D02*
G01X0073057Y-049332D01*
G01X0073057Y-048713D02*
G01X0073113Y-048600D01*
G01X0073113Y-048600D02*
G01X0073225Y-048544D01*
G01X0073225Y-048544D02*
G01X0073394Y-048544D01*
G01X0073394Y-048544D02*
G01X0073507Y-048600D01*
G01X0073507Y-048600D02*
G01X0073563Y-048713D01*
G01X0073563Y-048713D02*
G01X0073563Y-049332D01*
G01X0075869Y-048094D02*
G01X0074856Y-049613D01*
G01X0077387Y-048150D02*
G01X0077500Y-048150D01*
G01X0077500Y-048150D02*
G01X0077612Y-048207D01*
G01X0077612Y-048207D02*
G01X0077669Y-048263D01*
G01X0077669Y-048263D02*
G01X0077725Y-048375D01*
G01X0077725Y-048375D02*
G01X0077781Y-048600D01*
G01X0077781Y-048600D02*
G01X0077781Y-048882D01*
G01X0077781Y-048882D02*
G01X0077725Y-049107D01*
G01X0077725Y-049107D02*
G01X0077669Y-049219D01*
G01X0077669Y-049219D02*
G01X0077612Y-049275D01*
G01X0077612Y-049275D02*
G01X0077500Y-049332D01*
G01X0077500Y-049332D02*
G01X0077387Y-049332D01*
G01X0077387Y-049332D02*
G01X0077275Y-049275D01*
G01X0077275Y-049275D02*
G01X0077219Y-049219D01*
G01X0077219Y-049219D02*
G01X0077162Y-049107D01*
G01X0077162Y-049107D02*
G01X0077106Y-048882D01*
G01X0077106Y-048882D02*
G01X0077106Y-048600D01*
G01X0077106Y-048600D02*
G01X0077162Y-048375D01*
G01X0077162Y-048375D02*
G01X0077219Y-048263D01*
G01X0077219Y-048263D02*
G01X0077275Y-048207D01*
G01X0077275Y-048207D02*
G01X0077387Y-048150D01*
G01X0078287Y-049219D02*
G01X0078343Y-049275D01*
G01X0078343Y-049275D02*
G01X0078287Y-049332D01*
G01X0078287Y-049332D02*
G01X0078231Y-049275D01*
G01X0078231Y-049275D02*
G01X0078287Y-049219D01*
G01X0078287Y-049219D02*
G01X0078287Y-049332D01*
G01X0079075Y-048150D02*
G01X0079187Y-048150D01*
G01X0079187Y-048150D02*
G01X0079300Y-048207D01*
G01X0079300Y-048207D02*
G01X0079356Y-048263D01*
G01X0079356Y-048263D02*
G01X0079412Y-048375D01*
G01X0079412Y-048375D02*
G01X0079468Y-048600D01*
G01X0079468Y-048600D02*
G01X0079468Y-048882D01*
G01X0079468Y-048882D02*
G01X0079412Y-049107D01*
G01X0079412Y-049107D02*
G01X0079356Y-049219D01*
G01X0079356Y-049219D02*
G01X0079300Y-049275D01*
G01X0079300Y-049275D02*
G01X0079187Y-049332D01*
G01X0079187Y-049332D02*
G01X0079075Y-049332D01*
G01X0079075Y-049332D02*
G01X0078962Y-049275D01*
G01X0078962Y-049275D02*
G01X0078906Y-049219D01*
G01X0078906Y-049219D02*
G01X0078850Y-049107D01*
G01X0078850Y-049107D02*
G01X0078793Y-048882D01*
G01X0078793Y-048882D02*
G01X0078793Y-048600D01*
G01X0078793Y-048600D02*
G01X0078850Y-048375D01*
G01X0078850Y-048375D02*
G01X0078906Y-048263D01*
G01X0078906Y-048263D02*
G01X0078962Y-048207D01*
G01X0078962Y-048207D02*
G01X0079075Y-048150D01*
G01X0080481Y-048544D02*
G01X0080481Y-049332D01*
G01X0080199Y-048094D02*
G01X0079918Y-048938D01*
G01X0079918Y-048938D02*
G01X0080649Y-048938D01*
G01X0080987Y-048150D02*
G01X0081774Y-048150D01*
G01X0081774Y-048150D02*
G01X0081268Y-049332D01*
G01X0082168Y-048150D02*
G01X0082168Y-048375D01*
G01X0082618Y-048150D02*
G01X0082618Y-048375D01*
G01X0084361Y-049782D02*
G01X0084305Y-049725D01*
G01X0084305Y-049725D02*
G01X0084193Y-049557D01*
G01X0084193Y-049557D02*
G01X0084136Y-049444D01*
G01X0084136Y-049444D02*
G01X0084080Y-049275D01*
G01X0084080Y-049275D02*
G01X0084024Y-048994D01*
G01X0084024Y-048994D02*
G01X0084024Y-048769D01*
G01X0084024Y-048769D02*
G01X0084080Y-048488D01*
G01X0084080Y-048488D02*
G01X0084136Y-048319D01*
G01X0084136Y-048319D02*
G01X0084193Y-048207D01*
G01X0084193Y-048207D02*
G01X0084305Y-048038D01*
G01X0084305Y-048038D02*
G01X0084361Y-047982D01*
G01X0084755Y-048263D02*
G01X0084811Y-048207D01*
G01X0084811Y-048207D02*
G01X0084924Y-048150D01*
G01X0084924Y-048150D02*
G01X0085205Y-048150D01*
G01X0085205Y-048150D02*
G01X0085318Y-048207D01*
G01X0085318Y-048207D02*
G01X0085374Y-048263D01*
G01X0085374Y-048263D02*
G01X0085430Y-048375D01*
G01X0085430Y-048375D02*
G01X0085430Y-048488D01*
G01X0085430Y-048488D02*
G01X0085374Y-048657D01*
G01X0085374Y-048657D02*
G01X0084699Y-049332D01*
G01X0084699Y-049332D02*
G01X0085430Y-049332D01*
G01X0086836Y-049332D02*
G01X0086836Y-048150D01*
G01X0087342Y-049332D02*
G01X0087342Y-048713D01*
G01X0087342Y-048713D02*
G01X0087286Y-048600D01*
G01X0087286Y-048600D02*
G01X0087174Y-048544D01*
G01X0087174Y-048544D02*
G01X0087005Y-048544D01*
G01X0087005Y-048544D02*
G01X0086892Y-048600D01*
G01X0086892Y-048600D02*
G01X0086836Y-048657D01*
G01X0088073Y-049332D02*
G01X0087961Y-049275D01*
G01X0087961Y-049275D02*
G01X0087905Y-049219D01*
G01X0087905Y-049219D02*
G01X0087849Y-049107D01*
G01X0087849Y-049107D02*
G01X0087849Y-048769D01*
G01X0087849Y-048769D02*
G01X0087905Y-048657D01*
G01X0087905Y-048657D02*
G01X0087961Y-048600D01*
G01X0087961Y-048600D02*
G01X0088073Y-048544D01*
G01X0088073Y-048544D02*
G01X0088242Y-048544D01*
G01X0088242Y-048544D02*
G01X0088355Y-048600D01*
G01X0088355Y-048600D02*
G01X0088411Y-048657D01*
G01X0088411Y-048657D02*
G01X0088467Y-048769D01*
G01X0088467Y-048769D02*
G01X0088467Y-049107D01*
G01X0088467Y-049107D02*
G01X0088411Y-049219D01*
G01X0088411Y-049219D02*
G01X0088355Y-049275D01*
G01X0088355Y-049275D02*
G01X0088242Y-049332D01*
G01X0088242Y-049332D02*
G01X0088073Y-049332D01*
G01X0089142Y-049332D02*
G01X0089030Y-049275D01*
G01X0089030Y-049275D02*
G01X0088973Y-049163D01*
G01X0088973Y-049163D02*
G01X0088973Y-048150D01*
G01X0090042Y-049275D02*
G01X0089930Y-049332D01*
G01X0089930Y-049332D02*
G01X0089705Y-049332D01*
G01X0089705Y-049332D02*
G01X0089592Y-049275D01*
G01X0089592Y-049275D02*
G01X0089536Y-049163D01*
G01X0089536Y-049163D02*
G01X0089536Y-048713D01*
G01X0089536Y-048713D02*
G01X0089592Y-048600D01*
G01X0089592Y-048600D02*
G01X0089705Y-048544D01*
G01X0089705Y-048544D02*
G01X0089930Y-048544D01*
G01X0089930Y-048544D02*
G01X0090042Y-048600D01*
G01X0090042Y-048600D02*
G01X0090098Y-048713D01*
G01X0090098Y-048713D02*
G01X0090098Y-048825D01*
G01X0090098Y-048825D02*
G01X0089536Y-048938D01*
G01X0090548Y-049275D02*
G01X0090661Y-049332D01*
G01X0090661Y-049332D02*
G01X0090886Y-049332D01*
G01X0090886Y-049332D02*
G01X0090998Y-049275D01*
G01X0090998Y-049275D02*
G01X0091054Y-049163D01*
G01X0091054Y-049163D02*
G01X0091054Y-049107D01*
G01X0091054Y-049107D02*
G01X0090998Y-048994D01*
G01X0090998Y-048994D02*
G01X0090886Y-048938D01*
G01X0090886Y-048938D02*
G01X0090717Y-048938D01*
G01X0090717Y-048938D02*
G01X0090604Y-048882D01*
G01X0090604Y-048882D02*
G01X0090548Y-048769D01*
G01X0090548Y-048769D02*
G01X0090548Y-048713D01*
G01X0090548Y-048713D02*
G01X0090604Y-048600D01*
G01X0090604Y-048600D02*
G01X0090717Y-048544D01*
G01X0090717Y-048544D02*
G01X0090886Y-048544D01*
G01X0090886Y-048544D02*
G01X0090998Y-048600D01*
G01X0091448Y-049782D02*
G01X0091504Y-049725D01*
G01X0091504Y-049725D02*
G01X0091617Y-049557D01*
G01X0091617Y-049557D02*
G01X0091673Y-049444D01*
G01X0091673Y-049444D02*
G01X0091729Y-049275D01*
G01X0091729Y-049275D02*
G01X0091786Y-048994D01*
G01X0091786Y-048994D02*
G01X0091786Y-048769D01*
G01X0091786Y-048769D02*
G01X0091729Y-048488D01*
G01X0091729Y-048488D02*
G01X0091673Y-048319D01*
G01X0091673Y-048319D02*
G01X0091617Y-048207D01*
G01X0091617Y-048207D02*
G01X0091504Y-048038D01*
G01X0091504Y-048038D02*
G01X0091448Y-047982D01*
G01X0064789Y-049766D02*
G01X0065970Y-050947D01*
G01X0065970Y-049766D02*
G01X0064789Y-050947D01*
G01X0065970Y-050356D02*
G75*
G03X0065970Y-050356I-000591J0000000D01*
G01X0066926Y-049710D02*
G01X0067657Y-049710D01*
G01X0067657Y-049710D02*
G01X0067264Y-050159D01*
G01X0067264Y-050159D02*
G01X0067432Y-050159D01*
G01X0067432Y-050159D02*
G01X0067545Y-050216D01*
G01X0067545Y-050216D02*
G01X0067601Y-050272D01*
G01X0067601Y-050272D02*
G01X0067657Y-050384D01*
G01X0067657Y-050384D02*
G01X0067657Y-050666D01*
G01X0067657Y-050666D02*
G01X0067601Y-050778D01*
G01X0067601Y-050778D02*
G01X0067545Y-050834D01*
G01X0067545Y-050834D02*
G01X0067432Y-050891D01*
G01X0067432Y-050891D02*
G01X0067095Y-050891D01*
G01X0067095Y-050891D02*
G01X0066982Y-050834D01*
G01X0066982Y-050834D02*
G01X0066926Y-050778D01*
G01X0068163Y-050778D02*
G01X0068220Y-050834D01*
G01X0068220Y-050834D02*
G01X0068163Y-050891D01*
G01X0068163Y-050891D02*
G01X0068107Y-050834D01*
G01X0068107Y-050834D02*
G01X0068163Y-050778D01*
G01X0068163Y-050778D02*
G01X0068163Y-050891D01*
G01X0068951Y-049710D02*
G01X0069063Y-049710D01*
G01X0069063Y-049710D02*
G01X0069176Y-049766D01*
G01X0069176Y-049766D02*
G01X0069232Y-049822D01*
G01X0069232Y-049822D02*
G01X0069288Y-049934D01*
G01X0069288Y-049934D02*
G01X0069345Y-050159D01*
G01X0069345Y-050159D02*
G01X0069345Y-050441D01*
G01X0069345Y-050441D02*
G01X0069288Y-050666D01*
G01X0069288Y-050666D02*
G01X0069232Y-050778D01*
G01X0069232Y-050778D02*
G01X0069176Y-050834D01*
G01X0069176Y-050834D02*
G01X0069063Y-050891D01*
G01X0069063Y-050891D02*
G01X0068951Y-050891D01*
G01X0068951Y-050891D02*
G01X0068838Y-050834D01*
G01X0068838Y-050834D02*
G01X0068782Y-050778D01*
G01X0068782Y-050778D02*
G01X0068726Y-050666D01*
G01X0068726Y-050666D02*
G01X0068670Y-050441D01*
G01X0068670Y-050441D02*
G01X0068670Y-050159D01*
G01X0068670Y-050159D02*
G01X0068726Y-049934D01*
G01X0068726Y-049934D02*
G01X0068782Y-049822D01*
G01X0068782Y-049822D02*
G01X0068838Y-049766D01*
G01X0068838Y-049766D02*
G01X0068951Y-049710D01*
G01X0070076Y-049710D02*
G01X0070188Y-049710D01*
G01X0070188Y-049710D02*
G01X0070301Y-049766D01*
G01X0070301Y-049766D02*
G01X0070357Y-049822D01*
G01X0070357Y-049822D02*
G01X0070413Y-049934D01*
G01X0070413Y-049934D02*
G01X0070469Y-050159D01*
G01X0070469Y-050159D02*
G01X0070469Y-050441D01*
G01X0070469Y-050441D02*
G01X0070413Y-050666D01*
G01X0070413Y-050666D02*
G01X0070357Y-050778D01*
G01X0070357Y-050778D02*
G01X0070301Y-050834D01*
G01X0070301Y-050834D02*
G01X0070188Y-050891D01*
G01X0070188Y-050891D02*
G01X0070076Y-050891D01*
G01X0070076Y-050891D02*
G01X0069963Y-050834D01*
G01X0069963Y-050834D02*
G01X0069907Y-050778D01*
G01X0069907Y-050778D02*
G01X0069851Y-050666D01*
G01X0069851Y-050666D02*
G01X0069795Y-050441D01*
G01X0069795Y-050441D02*
G01X0069795Y-050159D01*
G01X0069795Y-050159D02*
G01X0069851Y-049934D01*
G01X0069851Y-049934D02*
G01X0069907Y-049822D01*
G01X0069907Y-049822D02*
G01X0069963Y-049766D01*
G01X0069963Y-049766D02*
G01X0070076Y-049710D01*
G01X0070976Y-050891D02*
G01X0070976Y-050103D01*
G01X0070976Y-050216D02*
G01X0071032Y-050159D01*
G01X0071032Y-050159D02*
G01X0071144Y-050103D01*
G01X0071144Y-050103D02*
G01X0071313Y-050103D01*
G01X0071313Y-050103D02*
G01X0071426Y-050159D01*
G01X0071426Y-050159D02*
G01X0071482Y-050272D01*
G01X0071482Y-050272D02*
G01X0071482Y-050891D01*
G01X0071482Y-050272D02*
G01X0071538Y-050159D01*
G01X0071538Y-050159D02*
G01X0071651Y-050103D01*
G01X0071651Y-050103D02*
G01X0071819Y-050103D01*
G01X0071819Y-050103D02*
G01X0071932Y-050159D01*
G01X0071932Y-050159D02*
G01X0071988Y-050272D01*
G01X0071988Y-050272D02*
G01X0071988Y-050891D01*
G01X0072550Y-050891D02*
G01X0072550Y-050103D01*
G01X0072550Y-050216D02*
G01X0072607Y-050159D01*
G01X0072607Y-050159D02*
G01X0072719Y-050103D01*
G01X0072719Y-050103D02*
G01X0072888Y-050103D01*
G01X0072888Y-050103D02*
G01X0073000Y-050159D01*
G01X0073000Y-050159D02*
G01X0073057Y-050272D01*
G01X0073057Y-050272D02*
G01X0073057Y-050891D01*
G01X0073057Y-050272D02*
G01X0073113Y-050159D01*
G01X0073113Y-050159D02*
G01X0073225Y-050103D01*
G01X0073225Y-050103D02*
G01X0073394Y-050103D01*
G01X0073394Y-050103D02*
G01X0073507Y-050159D01*
G01X0073507Y-050159D02*
G01X0073563Y-050272D01*
G01X0073563Y-050272D02*
G01X0073563Y-050891D01*
G01X0075869Y-049653D02*
G01X0074856Y-051172D01*
G01X0077387Y-049710D02*
G01X0077500Y-049710D01*
G01X0077500Y-049710D02*
G01X0077612Y-049766D01*
G01X0077612Y-049766D02*
G01X0077669Y-049822D01*
G01X0077669Y-049822D02*
G01X0077725Y-049934D01*
G01X0077725Y-049934D02*
G01X0077781Y-050159D01*
G01X0077781Y-050159D02*
G01X0077781Y-050441D01*
G01X0077781Y-050441D02*
G01X0077725Y-050666D01*
G01X0077725Y-050666D02*
G01X0077669Y-050778D01*
G01X0077669Y-050778D02*
G01X0077612Y-050834D01*
G01X0077612Y-050834D02*
G01X0077500Y-050891D01*
G01X0077500Y-050891D02*
G01X0077387Y-050891D01*
G01X0077387Y-050891D02*
G01X0077275Y-050834D01*
G01X0077275Y-050834D02*
G01X0077219Y-050778D01*
G01X0077219Y-050778D02*
G01X0077162Y-050666D01*
G01X0077162Y-050666D02*
G01X0077106Y-050441D01*
G01X0077106Y-050441D02*
G01X0077106Y-050159D01*
G01X0077106Y-050159D02*
G01X0077162Y-049934D01*
G01X0077162Y-049934D02*
G01X0077219Y-049822D01*
G01X0077219Y-049822D02*
G01X0077275Y-049766D01*
G01X0077275Y-049766D02*
G01X0077387Y-049710D01*
G01X0078287Y-050778D02*
G01X0078343Y-050834D01*
G01X0078343Y-050834D02*
G01X0078287Y-050891D01*
G01X0078287Y-050891D02*
G01X0078231Y-050834D01*
G01X0078231Y-050834D02*
G01X0078287Y-050778D01*
G01X0078287Y-050778D02*
G01X0078287Y-050891D01*
G01X0079468Y-050891D02*
G01X0078793Y-050891D01*
G01X0079131Y-050891D02*
G01X0079131Y-049710D01*
G01X0079131Y-049710D02*
G01X0079018Y-049878D01*
G01X0079018Y-049878D02*
G01X0078906Y-049991D01*
G01X0078906Y-049991D02*
G01X0078793Y-050047D01*
G01X0080593Y-050891D02*
G01X0079918Y-050891D01*
G01X0080256Y-050891D02*
G01X0080256Y-049710D01*
G01X0080256Y-049710D02*
G01X0080143Y-049878D01*
G01X0080143Y-049878D02*
G01X0080031Y-049991D01*
G01X0080031Y-049991D02*
G01X0079918Y-050047D01*
G01X0081268Y-050216D02*
G01X0081156Y-050159D01*
G01X0081156Y-050159D02*
G01X0081099Y-050103D01*
G01X0081099Y-050103D02*
G01X0081043Y-049991D01*
G01X0081043Y-049991D02*
G01X0081043Y-049934D01*
G01X0081043Y-049934D02*
G01X0081099Y-049822D01*
G01X0081099Y-049822D02*
G01X0081156Y-049766D01*
G01X0081156Y-049766D02*
G01X0081268Y-049710D01*
G01X0081268Y-049710D02*
G01X0081493Y-049710D01*
G01X0081493Y-049710D02*
G01X0081606Y-049766D01*
G01X0081606Y-049766D02*
G01X0081662Y-049822D01*
G01X0081662Y-049822D02*
G01X0081718Y-049934D01*
G01X0081718Y-049934D02*
G01X0081718Y-049991D01*
G01X0081718Y-049991D02*
G01X0081662Y-050103D01*
G01X0081662Y-050103D02*
G01X0081606Y-050159D01*
G01X0081606Y-050159D02*
G01X0081493Y-050216D01*
G01X0081493Y-050216D02*
G01X0081268Y-050216D01*
G01X0081268Y-050216D02*
G01X0081156Y-050272D01*
G01X0081156Y-050272D02*
G01X0081099Y-050328D01*
G01X0081099Y-050328D02*
G01X0081043Y-050441D01*
G01X0081043Y-050441D02*
G01X0081043Y-050666D01*
G01X0081043Y-050666D02*
G01X0081099Y-050778D01*
G01X0081099Y-050778D02*
G01X0081156Y-050834D01*
G01X0081156Y-050834D02*
G01X0081268Y-050891D01*
G01X0081268Y-050891D02*
G01X0081493Y-050891D01*
G01X0081493Y-050891D02*
G01X0081606Y-050834D01*
G01X0081606Y-050834D02*
G01X0081662Y-050778D01*
G01X0081662Y-050778D02*
G01X0081718Y-050666D01*
G01X0081718Y-050666D02*
G01X0081718Y-050441D01*
G01X0081718Y-050441D02*
G01X0081662Y-050328D01*
G01X0081662Y-050328D02*
G01X0081606Y-050272D01*
G01X0081606Y-050272D02*
G01X0081493Y-050216D01*
G01X0082168Y-049710D02*
G01X0082168Y-049934D01*
G01X0082618Y-049710D02*
G01X0082618Y-049934D01*
G01X0084361Y-051341D02*
G01X0084305Y-051284D01*
G01X0084305Y-051284D02*
G01X0084193Y-051116D01*
G01X0084193Y-051116D02*
G01X0084136Y-051003D01*
G01X0084136Y-051003D02*
G01X0084080Y-050834D01*
G01X0084080Y-050834D02*
G01X0084024Y-050553D01*
G01X0084024Y-050553D02*
G01X0084024Y-050328D01*
G01X0084024Y-050328D02*
G01X0084080Y-050047D01*
G01X0084080Y-050047D02*
G01X0084136Y-049878D01*
G01X0084136Y-049878D02*
G01X0084193Y-049766D01*
G01X0084193Y-049766D02*
G01X0084305Y-049597D01*
G01X0084305Y-049597D02*
G01X0084361Y-049541D01*
G01X0084699Y-049710D02*
G01X0085430Y-049710D01*
G01X0085430Y-049710D02*
G01X0085036Y-050159D01*
G01X0085036Y-050159D02*
G01X0085205Y-050159D01*
G01X0085205Y-050159D02*
G01X0085318Y-050216D01*
G01X0085318Y-050216D02*
G01X0085374Y-050272D01*
G01X0085374Y-050272D02*
G01X0085430Y-050384D01*
G01X0085430Y-050384D02*
G01X0085430Y-050666D01*
G01X0085430Y-050666D02*
G01X0085374Y-050778D01*
G01X0085374Y-050778D02*
G01X0085318Y-050834D01*
G01X0085318Y-050834D02*
G01X0085205Y-050891D01*
G01X0085205Y-050891D02*
G01X0084868Y-050891D01*
G01X0084868Y-050891D02*
G01X0084755Y-050834D01*
G01X0084755Y-050834D02*
G01X0084699Y-050778D01*
G01X0086836Y-050891D02*
G01X0086836Y-049710D01*
G01X0087342Y-050891D02*
G01X0087342Y-050272D01*
G01X0087342Y-050272D02*
G01X0087286Y-050159D01*
G01X0087286Y-050159D02*
G01X0087174Y-050103D01*
G01X0087174Y-050103D02*
G01X0087005Y-050103D01*
G01X0087005Y-050103D02*
G01X0086892Y-050159D01*
G01X0086892Y-050159D02*
G01X0086836Y-050216D01*
G01X0088073Y-050891D02*
G01X0087961Y-050834D01*
G01X0087961Y-050834D02*
G01X0087905Y-050778D01*
G01X0087905Y-050778D02*
G01X0087849Y-050666D01*
G01X0087849Y-050666D02*
G01X0087849Y-050328D01*
G01X0087849Y-050328D02*
G01X0087905Y-050216D01*
G01X0087905Y-050216D02*
G01X0087961Y-050159D01*
G01X0087961Y-050159D02*
G01X0088073Y-050103D01*
G01X0088073Y-050103D02*
G01X0088242Y-050103D01*
G01X0088242Y-050103D02*
G01X0088355Y-050159D01*
G01X0088355Y-050159D02*
G01X0088411Y-050216D01*
G01X0088411Y-050216D02*
G01X0088467Y-050328D01*
G01X0088467Y-050328D02*
G01X0088467Y-050666D01*
G01X0088467Y-050666D02*
G01X0088411Y-050778D01*
G01X0088411Y-050778D02*
G01X0088355Y-050834D01*
G01X0088355Y-050834D02*
G01X0088242Y-050891D01*
G01X0088242Y-050891D02*
G01X0088073Y-050891D01*
G01X0089142Y-050891D02*
G01X0089030Y-050834D01*
G01X0089030Y-050834D02*
G01X0088973Y-050722D01*
G01X0088973Y-050722D02*
G01X0088973Y-049710D01*
G01X0090042Y-050834D02*
G01X0089930Y-050891D01*
G01X0089930Y-050891D02*
G01X0089705Y-050891D01*
G01X0089705Y-050891D02*
G01X0089592Y-050834D01*
G01X0089592Y-050834D02*
G01X0089536Y-050722D01*
G01X0089536Y-050722D02*
G01X0089536Y-050272D01*
G01X0089536Y-050272D02*
G01X0089592Y-050159D01*
G01X0089592Y-050159D02*
G01X0089705Y-050103D01*
G01X0089705Y-050103D02*
G01X0089930Y-050103D01*
G01X0089930Y-050103D02*
G01X0090042Y-050159D01*
G01X0090042Y-050159D02*
G01X0090098Y-050272D01*
G01X0090098Y-050272D02*
G01X0090098Y-050384D01*
G01X0090098Y-050384D02*
G01X0089536Y-050497D01*
G01X0090548Y-050834D02*
G01X0090661Y-050891D01*
G01X0090661Y-050891D02*
G01X0090886Y-050891D01*
G01X0090886Y-050891D02*
G01X0090998Y-050834D01*
G01X0090998Y-050834D02*
G01X0091054Y-050722D01*
G01X0091054Y-050722D02*
G01X0091054Y-050666D01*
G01X0091054Y-050666D02*
G01X0090998Y-050553D01*
G01X0090998Y-050553D02*
G01X0090886Y-050497D01*
G01X0090886Y-050497D02*
G01X0090717Y-050497D01*
G01X0090717Y-050497D02*
G01X0090604Y-050441D01*
G01X0090604Y-050441D02*
G01X0090548Y-050328D01*
G01X0090548Y-050328D02*
G01X0090548Y-050272D01*
G01X0090548Y-050272D02*
G01X0090604Y-050159D01*
G01X0090604Y-050159D02*
G01X0090717Y-050103D01*
G01X0090717Y-050103D02*
G01X0090886Y-050103D01*
G01X0090886Y-050103D02*
G01X0090998Y-050159D01*
G01X0091448Y-051341D02*
G01X0091504Y-051284D01*
G01X0091504Y-051284D02*
G01X0091617Y-051116D01*
G01X0091617Y-051116D02*
G01X0091673Y-051003D01*
G01X0091673Y-051003D02*
G01X0091729Y-050834D01*
G01X0091729Y-050834D02*
G01X0091786Y-050553D01*
G01X0091786Y-050553D02*
G01X0091786Y-050328D01*
G01X0091786Y-050328D02*
G01X0091729Y-050047D01*
G01X0091729Y-050047D02*
G01X0091673Y-049878D01*
G01X0091673Y-049878D02*
G01X0091617Y-049766D01*
G01X0091617Y-049766D02*
G01X0091504Y-049597D01*
G01X0091504Y-049597D02*
G01X0091448Y-049541D01*
G01X0000000Y0000000D02*
G54D11*
G01X0067008Y-016456D02*
G75*
G03X0066004Y-017524I0000000J-001006D01*
G01X0097750Y-017500D02*
G01X0097750Y-037750D01*
G01X0096750Y-038752D02*
G75*
G03X0097750Y-037695I0000000J0001002D01*
G01X0067057Y-038750D02*
G01X0096807Y-038750D01*
G01X0066000Y-037750D02*
G75*
G03X0067057Y-038750I0001002J0000000D01*
G01X0097745Y-017500D02*
G75*
G03X0096805Y-016461I-000940J0000094D01*
G01X0066000Y-037750D02*
G01X0066000Y-017350D01*
G01X0067008Y-016461D02*
G01X0096850Y-016461D01*
G01X0000000Y0000000D02*
G54D15*
G01X0046700Y-030300D02*
G75*
G03X0046700Y-030300I-000500J0000000D01*
G01X0045050Y-031100D02*
G01X0045050Y-029500D01*
G01X0047350Y-031100D02*
G01X0045050Y-031100D01*
G01X0047350Y-029500D02*
G01X0047350Y-031100D01*
G01X0045050Y-029500D02*
G01X0047350Y-029500D01*
G01X0047450Y-037000D02*
G01X0041200Y-037000D01*
G01X0068250Y-040250D02*
G01X0068250Y-037250D01*
G01X0070250Y-040250D02*
G01X0068250Y-040250D01*
G01X0070250Y-037250D02*
G01X0070250Y-040250D01*
G01X0068250Y-037250D02*
G01X0070250Y-037250D01*
G01X0042950Y-048500D02*
G01X0042950Y-045000D01*
G01X0048200Y-048500D02*
G01X0042950Y-048500D01*
G01X0048200Y-045000D02*
G01X0048200Y-048500D01*
G01X0042950Y-045000D02*
G01X0048200Y-045000D01*
G01X0041200Y-037000D02*
G01X0041200Y-032500D01*
G01X0047450Y-032500D02*
G01X0047450Y-037000D01*
G01X0041200Y-032500D02*
G01X0047450Y-032500D01*
M02*
