%TF.GenerationSoftware,KiCad,Pcbnew,4.0.5-e0-6337~49~ubuntu16.04.1*%
%TF.CreationDate,2017-07-25T12:16:49-07:00*%
%TF.ProjectId,mcphail-main-board,6D63706861696C2D6D61696E2D626F61,1.0*%
%TF.FileFunction,Soldermask,Bot*%
%FSLAX46Y46*%
G04 Gerber Fmt 4.6, Leading zero omitted, Abs format (unit mm)*
G04 Created by KiCad (PCBNEW 4.0.5-e0-6337~49~ubuntu16.04.1) date Tue Jul 25 12:16:49 2017*
%MOMM*%
%LPD*%
G01*
G04 APERTURE LIST*
%ADD10C,0.350000*%
G04 APERTURE END LIST*
D10*
G36*
X134205215Y-138654724D02*
X134385748Y-138691783D01*
X134555658Y-138763206D01*
X134708449Y-138866266D01*
X134838321Y-138997046D01*
X134940310Y-139150553D01*
X135010543Y-139320951D01*
X135046272Y-139501399D01*
X135046272Y-139501404D01*
X135046340Y-139501748D01*
X135043401Y-139712258D01*
X135043324Y-139712596D01*
X135043324Y-139712606D01*
X135002570Y-139891986D01*
X134927608Y-140060352D01*
X134821368Y-140210956D01*
X134687899Y-140338057D01*
X134532284Y-140436814D01*
X134360454Y-140503462D01*
X134178952Y-140535466D01*
X133994686Y-140531606D01*
X133814679Y-140492029D01*
X133645788Y-140418243D01*
X133494450Y-140313060D01*
X133366421Y-140180482D01*
X133266581Y-140025561D01*
X133198732Y-139854193D01*
X133165463Y-139672923D01*
X133168035Y-139488636D01*
X133206356Y-139308356D01*
X133278959Y-139138957D01*
X133383087Y-138986884D01*
X133514766Y-138857933D01*
X133668987Y-138757014D01*
X133839872Y-138687972D01*
X134020909Y-138653438D01*
X134205215Y-138654724D01*
X134205215Y-138654724D01*
G37*
G36*
X81147657Y-134209342D02*
X81156796Y-134209406D01*
X81368628Y-134233167D01*
X81571810Y-134297620D01*
X81758604Y-134400311D01*
X81921894Y-134537328D01*
X82055461Y-134703451D01*
X82154217Y-134892355D01*
X82214401Y-135096842D01*
X82214405Y-135096883D01*
X82214406Y-135096887D01*
X82233721Y-135309123D01*
X82211445Y-135521070D01*
X82211443Y-135521075D01*
X82211439Y-135521117D01*
X82148406Y-135724745D01*
X82047022Y-135912250D01*
X81911148Y-136076493D01*
X81745961Y-136211217D01*
X81557752Y-136311289D01*
X81353690Y-136372899D01*
X81141547Y-136393700D01*
X81130941Y-136393700D01*
X81124867Y-136393658D01*
X81115728Y-136393594D01*
X80903896Y-136369833D01*
X80700714Y-136305380D01*
X80513920Y-136202689D01*
X80350630Y-136065672D01*
X80217063Y-135899549D01*
X80118307Y-135710645D01*
X80058123Y-135506158D01*
X80058119Y-135506117D01*
X80058118Y-135506113D01*
X80038803Y-135293877D01*
X80061079Y-135081930D01*
X80061081Y-135081925D01*
X80061085Y-135081883D01*
X80124118Y-134878255D01*
X80225502Y-134690750D01*
X80361376Y-134526507D01*
X80526563Y-134391783D01*
X80714772Y-134291711D01*
X80918834Y-134230101D01*
X81130977Y-134209300D01*
X81141583Y-134209300D01*
X81147657Y-134209342D01*
X81147657Y-134209342D01*
G37*
G36*
X82228462Y-133853700D02*
X80044062Y-133853700D01*
X80044062Y-131669300D01*
X82228462Y-131669300D01*
X82228462Y-133853700D01*
X82228462Y-133853700D01*
G37*
G36*
X77805249Y-125671778D02*
X77805254Y-125671779D01*
X77807307Y-125671793D01*
X77989580Y-125692238D01*
X78164412Y-125747698D01*
X78325141Y-125836059D01*
X78465646Y-125953957D01*
X78580576Y-126096901D01*
X78665552Y-126259446D01*
X78717339Y-126435400D01*
X78717343Y-126435441D01*
X78717344Y-126435445D01*
X78733963Y-126618059D01*
X78716148Y-126787557D01*
X78714790Y-126800474D01*
X78660552Y-126975688D01*
X78573315Y-127137030D01*
X78456400Y-127278356D01*
X78314262Y-127394280D01*
X78152315Y-127480389D01*
X77976726Y-127533403D01*
X77794185Y-127551301D01*
X77478783Y-127551301D01*
X77467751Y-127551224D01*
X77467746Y-127551223D01*
X77465693Y-127551209D01*
X77283420Y-127530764D01*
X77108588Y-127475304D01*
X76947859Y-127386943D01*
X76807354Y-127269045D01*
X76692424Y-127126101D01*
X76607448Y-126963556D01*
X76555661Y-126787602D01*
X76555657Y-126787561D01*
X76555656Y-126787557D01*
X76539037Y-126604943D01*
X76558205Y-126422575D01*
X76558210Y-126422528D01*
X76612448Y-126247314D01*
X76699685Y-126085972D01*
X76816600Y-125944646D01*
X76958738Y-125828722D01*
X77120685Y-125742613D01*
X77296274Y-125689599D01*
X77478815Y-125671701D01*
X77794217Y-125671701D01*
X77805249Y-125671778D01*
X77805249Y-125671778D01*
G37*
G36*
X77805249Y-123131778D02*
X77805254Y-123131779D01*
X77807307Y-123131793D01*
X77989580Y-123152238D01*
X78164412Y-123207698D01*
X78325141Y-123296059D01*
X78465646Y-123413957D01*
X78580576Y-123556901D01*
X78665552Y-123719446D01*
X78717339Y-123895400D01*
X78717343Y-123895441D01*
X78717344Y-123895445D01*
X78733963Y-124078059D01*
X78716148Y-124247557D01*
X78714790Y-124260474D01*
X78660552Y-124435688D01*
X78573315Y-124597030D01*
X78456400Y-124738356D01*
X78314262Y-124854280D01*
X78152315Y-124940389D01*
X77976726Y-124993403D01*
X77794185Y-125011301D01*
X77478783Y-125011301D01*
X77467751Y-125011224D01*
X77467746Y-125011223D01*
X77465693Y-125011209D01*
X77283420Y-124990764D01*
X77108588Y-124935304D01*
X76947859Y-124846943D01*
X76807354Y-124729045D01*
X76692424Y-124586101D01*
X76607448Y-124423556D01*
X76555661Y-124247602D01*
X76555657Y-124247561D01*
X76555656Y-124247557D01*
X76539037Y-124064943D01*
X76558205Y-123882575D01*
X76558210Y-123882528D01*
X76612448Y-123707314D01*
X76699685Y-123545972D01*
X76816600Y-123404646D01*
X76958738Y-123288722D01*
X77120685Y-123202613D01*
X77296274Y-123149599D01*
X77478815Y-123131701D01*
X77794217Y-123131701D01*
X77805249Y-123131778D01*
X77805249Y-123131778D01*
G37*
G36*
X77805249Y-120591778D02*
X77805254Y-120591779D01*
X77807307Y-120591793D01*
X77989580Y-120612238D01*
X78164412Y-120667698D01*
X78325141Y-120756059D01*
X78465646Y-120873957D01*
X78580576Y-121016901D01*
X78665552Y-121179446D01*
X78717339Y-121355400D01*
X78717343Y-121355441D01*
X78717344Y-121355445D01*
X78733963Y-121538059D01*
X78716148Y-121707557D01*
X78714790Y-121720474D01*
X78660552Y-121895688D01*
X78573315Y-122057030D01*
X78456400Y-122198356D01*
X78314262Y-122314280D01*
X78152315Y-122400389D01*
X77976726Y-122453403D01*
X77794185Y-122471301D01*
X77478783Y-122471301D01*
X77467751Y-122471224D01*
X77467746Y-122471223D01*
X77465693Y-122471209D01*
X77283420Y-122450764D01*
X77108588Y-122395304D01*
X76947859Y-122306943D01*
X76807354Y-122189045D01*
X76692424Y-122046101D01*
X76607448Y-121883556D01*
X76555661Y-121707602D01*
X76555657Y-121707561D01*
X76555656Y-121707557D01*
X76539037Y-121524943D01*
X76558205Y-121342575D01*
X76558210Y-121342528D01*
X76612448Y-121167314D01*
X76699685Y-121005972D01*
X76816600Y-120864646D01*
X76958738Y-120748722D01*
X77120685Y-120662613D01*
X77296274Y-120609599D01*
X77478815Y-120591701D01*
X77794217Y-120591701D01*
X77805249Y-120591778D01*
X77805249Y-120591778D01*
G37*
G36*
X77805249Y-118051778D02*
X77805254Y-118051779D01*
X77807307Y-118051793D01*
X77989580Y-118072238D01*
X78164412Y-118127698D01*
X78325141Y-118216059D01*
X78465646Y-118333957D01*
X78580576Y-118476901D01*
X78665552Y-118639446D01*
X78717339Y-118815400D01*
X78717343Y-118815441D01*
X78717344Y-118815445D01*
X78733963Y-118998059D01*
X78716148Y-119167557D01*
X78714790Y-119180474D01*
X78660552Y-119355688D01*
X78573315Y-119517030D01*
X78456400Y-119658356D01*
X78314262Y-119774280D01*
X78152315Y-119860389D01*
X77976726Y-119913403D01*
X77794185Y-119931301D01*
X77478783Y-119931301D01*
X77467751Y-119931224D01*
X77467746Y-119931223D01*
X77465693Y-119931209D01*
X77283420Y-119910764D01*
X77108588Y-119855304D01*
X76947859Y-119766943D01*
X76807354Y-119649045D01*
X76692424Y-119506101D01*
X76607448Y-119343556D01*
X76555661Y-119167602D01*
X76555657Y-119167561D01*
X76555656Y-119167557D01*
X76539037Y-118984943D01*
X76558205Y-118802575D01*
X76558210Y-118802528D01*
X76612448Y-118627314D01*
X76699685Y-118465972D01*
X76816600Y-118324646D01*
X76958738Y-118208722D01*
X77120685Y-118122613D01*
X77296274Y-118069599D01*
X77478815Y-118051701D01*
X77794217Y-118051701D01*
X77805249Y-118051778D01*
X77805249Y-118051778D01*
G37*
G36*
X107825276Y-117449342D02*
X107834415Y-117449406D01*
X108046247Y-117473167D01*
X108249429Y-117537620D01*
X108436223Y-117640311D01*
X108599513Y-117777328D01*
X108733080Y-117943451D01*
X108831836Y-118132355D01*
X108892020Y-118336842D01*
X108892024Y-118336883D01*
X108892025Y-118336887D01*
X108911340Y-118549123D01*
X108889064Y-118761070D01*
X108889062Y-118761075D01*
X108889058Y-118761117D01*
X108826025Y-118964745D01*
X108724641Y-119152250D01*
X108588767Y-119316493D01*
X108423580Y-119451217D01*
X108235371Y-119551289D01*
X108031309Y-119612899D01*
X107819166Y-119633700D01*
X107808560Y-119633700D01*
X107802486Y-119633658D01*
X107793347Y-119633594D01*
X107581515Y-119609833D01*
X107378333Y-119545380D01*
X107191539Y-119442689D01*
X107028249Y-119305672D01*
X106894682Y-119139549D01*
X106795926Y-118950645D01*
X106735742Y-118746158D01*
X106735738Y-118746117D01*
X106735737Y-118746113D01*
X106716422Y-118533877D01*
X106738698Y-118321930D01*
X106738700Y-118321925D01*
X106738704Y-118321883D01*
X106801737Y-118118255D01*
X106903121Y-117930750D01*
X107038995Y-117766507D01*
X107204182Y-117631783D01*
X107392391Y-117531711D01*
X107596453Y-117470101D01*
X107808596Y-117449300D01*
X107819202Y-117449300D01*
X107825276Y-117449342D01*
X107825276Y-117449342D01*
G37*
G36*
X77805249Y-115511778D02*
X77805254Y-115511779D01*
X77807307Y-115511793D01*
X77989580Y-115532238D01*
X78164412Y-115587698D01*
X78325141Y-115676059D01*
X78465646Y-115793957D01*
X78580576Y-115936901D01*
X78665552Y-116099446D01*
X78717339Y-116275400D01*
X78717343Y-116275441D01*
X78717344Y-116275445D01*
X78733963Y-116458059D01*
X78716148Y-116627557D01*
X78714790Y-116640474D01*
X78660552Y-116815688D01*
X78573315Y-116977030D01*
X78456400Y-117118356D01*
X78314262Y-117234280D01*
X78152315Y-117320389D01*
X77976726Y-117373403D01*
X77794185Y-117391301D01*
X77478783Y-117391301D01*
X77467751Y-117391224D01*
X77467746Y-117391223D01*
X77465693Y-117391209D01*
X77283420Y-117370764D01*
X77108588Y-117315304D01*
X76947859Y-117226943D01*
X76807354Y-117109045D01*
X76692424Y-116966101D01*
X76607448Y-116803556D01*
X76555661Y-116627602D01*
X76555657Y-116627561D01*
X76555656Y-116627557D01*
X76539037Y-116444943D01*
X76558205Y-116262575D01*
X76558210Y-116262528D01*
X76612448Y-116087314D01*
X76699685Y-115925972D01*
X76816600Y-115784646D01*
X76958738Y-115668722D01*
X77120685Y-115582613D01*
X77296274Y-115529599D01*
X77478815Y-115511701D01*
X77794217Y-115511701D01*
X77805249Y-115511778D01*
X77805249Y-115511778D01*
G37*
G36*
X108906081Y-117093700D02*
X106721681Y-117093700D01*
X106721681Y-114909300D01*
X108906081Y-114909300D01*
X108906081Y-117093700D01*
X108906081Y-117093700D01*
G37*
G36*
X78728700Y-114851301D02*
X76544300Y-114851301D01*
X76544300Y-112971701D01*
X78728700Y-112971701D01*
X78728700Y-114851301D01*
X78728700Y-114851301D01*
G37*
G36*
X89515136Y-100362483D02*
X89683451Y-100397034D01*
X89841863Y-100463624D01*
X89984317Y-100559710D01*
X90105395Y-100681636D01*
X90200482Y-100824755D01*
X90265964Y-100983625D01*
X90299270Y-101151836D01*
X90299339Y-101152185D01*
X90296598Y-101348449D01*
X90296521Y-101348787D01*
X90296521Y-101348796D01*
X90258530Y-101516014D01*
X90188641Y-101672986D01*
X90089591Y-101813399D01*
X89965154Y-101931898D01*
X89820071Y-102023971D01*
X89659870Y-102086109D01*
X89490649Y-102115948D01*
X89318852Y-102112348D01*
X89151029Y-102075451D01*
X88993567Y-102006657D01*
X88852471Y-101908593D01*
X88733106Y-101784987D01*
X88640023Y-101640550D01*
X88576765Y-101480779D01*
X88545748Y-101311777D01*
X88548146Y-101139960D01*
X88583873Y-100971881D01*
X88651563Y-100813946D01*
X88748644Y-100672164D01*
X88871412Y-100551940D01*
X89015197Y-100457851D01*
X89174517Y-100393480D01*
X89343302Y-100361284D01*
X89515136Y-100362483D01*
X89515136Y-100362483D01*
G37*
G36*
X94395136Y-100362483D02*
X94563451Y-100397034D01*
X94721863Y-100463624D01*
X94864317Y-100559710D01*
X94985395Y-100681636D01*
X95080482Y-100824755D01*
X95145964Y-100983625D01*
X95179270Y-101151836D01*
X95179339Y-101152185D01*
X95176598Y-101348449D01*
X95176521Y-101348787D01*
X95176521Y-101348796D01*
X95138530Y-101516014D01*
X95068641Y-101672986D01*
X94969591Y-101813399D01*
X94845154Y-101931898D01*
X94700071Y-102023971D01*
X94539870Y-102086109D01*
X94370649Y-102115948D01*
X94198852Y-102112348D01*
X94031029Y-102075451D01*
X93873567Y-102006657D01*
X93732471Y-101908593D01*
X93613106Y-101784987D01*
X93520023Y-101640550D01*
X93456765Y-101480779D01*
X93425748Y-101311777D01*
X93428146Y-101139960D01*
X93463873Y-100971881D01*
X93531563Y-100813946D01*
X93628644Y-100672164D01*
X93751412Y-100551940D01*
X93895197Y-100457851D01*
X94054517Y-100393480D01*
X94223302Y-100361284D01*
X94395136Y-100362483D01*
X94395136Y-100362483D01*
G37*
G36*
X106697529Y-99461949D02*
X106827423Y-99488613D01*
X106949678Y-99540004D01*
X107059616Y-99614158D01*
X107153053Y-99708250D01*
X107226442Y-99818709D01*
X107276976Y-99941313D01*
X107302663Y-100071042D01*
X107302663Y-100071057D01*
X107302730Y-100071396D01*
X107300615Y-100222861D01*
X107300539Y-100223195D01*
X107300539Y-100223208D01*
X107271237Y-100352179D01*
X107217302Y-100473320D01*
X107140860Y-100581683D01*
X107044827Y-100673134D01*
X106932861Y-100744190D01*
X106809223Y-100792146D01*
X106678632Y-100815173D01*
X106546048Y-100812395D01*
X106416532Y-100783920D01*
X106295011Y-100730828D01*
X106186122Y-100655148D01*
X106094003Y-100559757D01*
X106022166Y-100448287D01*
X105973347Y-100324985D01*
X105949410Y-100194560D01*
X105951261Y-100061962D01*
X105978833Y-99932247D01*
X106031072Y-99810362D01*
X106105994Y-99700943D01*
X106200742Y-99608159D01*
X106311700Y-99535549D01*
X106434658Y-99485871D01*
X106564916Y-99461024D01*
X106697529Y-99461949D01*
X106697529Y-99461949D01*
G37*
G36*
X99597529Y-99461949D02*
X99727423Y-99488613D01*
X99849678Y-99540004D01*
X99959616Y-99614158D01*
X100053053Y-99708250D01*
X100126442Y-99818709D01*
X100176976Y-99941313D01*
X100202663Y-100071042D01*
X100202663Y-100071057D01*
X100202730Y-100071396D01*
X100200615Y-100222861D01*
X100200539Y-100223195D01*
X100200539Y-100223208D01*
X100171237Y-100352179D01*
X100117302Y-100473320D01*
X100040860Y-100581683D01*
X99944827Y-100673134D01*
X99832861Y-100744190D01*
X99709223Y-100792146D01*
X99578632Y-100815173D01*
X99446048Y-100812395D01*
X99316532Y-100783920D01*
X99195011Y-100730828D01*
X99086122Y-100655148D01*
X98994003Y-100559757D01*
X98922166Y-100448287D01*
X98873347Y-100324985D01*
X98849410Y-100194560D01*
X98851261Y-100061962D01*
X98878833Y-99932247D01*
X98931072Y-99810362D01*
X99005994Y-99700943D01*
X99100742Y-99608159D01*
X99211700Y-99535549D01*
X99334658Y-99485871D01*
X99464916Y-99461024D01*
X99597529Y-99461949D01*
X99597529Y-99461949D01*
G37*
G36*
X115370113Y-83785778D02*
X115370118Y-83785779D01*
X115372170Y-83785793D01*
X115554443Y-83806238D01*
X115729275Y-83861698D01*
X115890004Y-83950059D01*
X116030509Y-84067957D01*
X116145439Y-84210901D01*
X116230415Y-84373446D01*
X116282202Y-84549400D01*
X116282205Y-84549436D01*
X116282208Y-84549445D01*
X116298827Y-84732059D01*
X116279659Y-84914427D01*
X116279657Y-84914432D01*
X116279653Y-84914474D01*
X116225415Y-85089688D01*
X116138178Y-85251030D01*
X116021263Y-85392356D01*
X115879125Y-85508280D01*
X115717178Y-85594389D01*
X115541589Y-85647403D01*
X115359048Y-85665301D01*
X115349921Y-85665301D01*
X115338889Y-85665224D01*
X115338884Y-85665223D01*
X115336832Y-85665209D01*
X115154559Y-85644764D01*
X114979727Y-85589304D01*
X114818998Y-85500943D01*
X114678493Y-85383045D01*
X114563563Y-85240101D01*
X114478587Y-85077556D01*
X114426800Y-84901602D01*
X114426797Y-84901566D01*
X114426794Y-84901557D01*
X114410175Y-84718943D01*
X114429343Y-84536575D01*
X114429345Y-84536570D01*
X114429349Y-84536528D01*
X114483587Y-84361314D01*
X114570824Y-84199972D01*
X114687739Y-84058646D01*
X114829877Y-83942722D01*
X114991824Y-83856613D01*
X115167413Y-83803599D01*
X115349954Y-83785701D01*
X115359081Y-83785701D01*
X115370113Y-83785778D01*
X115370113Y-83785778D01*
G37*
G36*
X112830113Y-83785778D02*
X112830118Y-83785779D01*
X112832170Y-83785793D01*
X113014443Y-83806238D01*
X113189275Y-83861698D01*
X113350004Y-83950059D01*
X113490509Y-84067957D01*
X113605439Y-84210901D01*
X113690415Y-84373446D01*
X113742202Y-84549400D01*
X113742205Y-84549436D01*
X113742208Y-84549445D01*
X113758827Y-84732059D01*
X113739659Y-84914427D01*
X113739657Y-84914432D01*
X113739653Y-84914474D01*
X113685415Y-85089688D01*
X113598178Y-85251030D01*
X113481263Y-85392356D01*
X113339125Y-85508280D01*
X113177178Y-85594389D01*
X113001589Y-85647403D01*
X112819048Y-85665301D01*
X112809921Y-85665301D01*
X112798889Y-85665224D01*
X112798884Y-85665223D01*
X112796832Y-85665209D01*
X112614559Y-85644764D01*
X112439727Y-85589304D01*
X112278998Y-85500943D01*
X112138493Y-85383045D01*
X112023563Y-85240101D01*
X111938587Y-85077556D01*
X111886800Y-84901602D01*
X111886797Y-84901566D01*
X111886794Y-84901557D01*
X111870175Y-84718943D01*
X111889343Y-84536575D01*
X111889345Y-84536570D01*
X111889349Y-84536528D01*
X111943587Y-84361314D01*
X112030824Y-84199972D01*
X112147739Y-84058646D01*
X112289877Y-83942722D01*
X112451824Y-83856613D01*
X112627413Y-83803599D01*
X112809954Y-83785701D01*
X112819081Y-83785701D01*
X112830113Y-83785778D01*
X112830113Y-83785778D01*
G37*
G36*
X115370113Y-81245778D02*
X115370118Y-81245779D01*
X115372170Y-81245793D01*
X115554443Y-81266238D01*
X115729275Y-81321698D01*
X115890004Y-81410059D01*
X116030509Y-81527957D01*
X116145439Y-81670901D01*
X116230415Y-81833446D01*
X116282202Y-82009400D01*
X116282205Y-82009436D01*
X116282208Y-82009445D01*
X116298827Y-82192059D01*
X116279659Y-82374427D01*
X116279657Y-82374432D01*
X116279653Y-82374474D01*
X116225415Y-82549688D01*
X116138178Y-82711030D01*
X116021263Y-82852356D01*
X115879125Y-82968280D01*
X115717178Y-83054389D01*
X115541589Y-83107403D01*
X115359048Y-83125301D01*
X115349921Y-83125301D01*
X115338889Y-83125224D01*
X115338884Y-83125223D01*
X115336832Y-83125209D01*
X115154559Y-83104764D01*
X114979727Y-83049304D01*
X114818998Y-82960943D01*
X114678493Y-82843045D01*
X114563563Y-82700101D01*
X114478587Y-82537556D01*
X114426800Y-82361602D01*
X114426797Y-82361566D01*
X114426794Y-82361557D01*
X114410175Y-82178943D01*
X114429343Y-81996575D01*
X114429345Y-81996570D01*
X114429349Y-81996528D01*
X114483587Y-81821314D01*
X114570824Y-81659972D01*
X114687739Y-81518646D01*
X114829877Y-81402722D01*
X114991824Y-81316613D01*
X115167413Y-81263599D01*
X115349954Y-81245701D01*
X115359081Y-81245701D01*
X115370113Y-81245778D01*
X115370113Y-81245778D01*
G37*
G36*
X112830113Y-81245778D02*
X112830118Y-81245779D01*
X112832170Y-81245793D01*
X113014443Y-81266238D01*
X113189275Y-81321698D01*
X113350004Y-81410059D01*
X113490509Y-81527957D01*
X113605439Y-81670901D01*
X113690415Y-81833446D01*
X113742202Y-82009400D01*
X113742205Y-82009436D01*
X113742208Y-82009445D01*
X113758827Y-82192059D01*
X113739659Y-82374427D01*
X113739657Y-82374432D01*
X113739653Y-82374474D01*
X113685415Y-82549688D01*
X113598178Y-82711030D01*
X113481263Y-82852356D01*
X113339125Y-82968280D01*
X113177178Y-83054389D01*
X113001589Y-83107403D01*
X112819048Y-83125301D01*
X112809921Y-83125301D01*
X112798889Y-83125224D01*
X112798884Y-83125223D01*
X112796832Y-83125209D01*
X112614559Y-83104764D01*
X112439727Y-83049304D01*
X112278998Y-82960943D01*
X112138493Y-82843045D01*
X112023563Y-82700101D01*
X111938587Y-82537556D01*
X111886800Y-82361602D01*
X111886797Y-82361566D01*
X111886794Y-82361557D01*
X111870175Y-82178943D01*
X111889343Y-81996575D01*
X111889345Y-81996570D01*
X111889349Y-81996528D01*
X111943587Y-81821314D01*
X112030824Y-81659972D01*
X112147739Y-81518646D01*
X112289877Y-81402722D01*
X112451824Y-81316613D01*
X112627413Y-81263599D01*
X112809954Y-81245701D01*
X112819081Y-81245701D01*
X112830113Y-81245778D01*
X112830113Y-81245778D01*
G37*
G36*
X144998076Y-76665180D02*
X145396916Y-76747051D01*
X145772273Y-76904836D01*
X146109826Y-77132519D01*
X146396728Y-77421430D01*
X146622047Y-77760564D01*
X146777205Y-78137006D01*
X146856222Y-78536069D01*
X146856222Y-78536079D01*
X146856289Y-78536418D01*
X146849795Y-79001476D01*
X146849719Y-79001810D01*
X146849719Y-79001823D01*
X146759590Y-79398525D01*
X146593984Y-79770484D01*
X146359279Y-80103197D01*
X146064422Y-80383986D01*
X145720643Y-80602156D01*
X145341031Y-80749397D01*
X144940057Y-80820100D01*
X144532980Y-80811572D01*
X144135312Y-80724139D01*
X143762201Y-80561131D01*
X143427863Y-80328760D01*
X143145022Y-80035870D01*
X142924458Y-79693620D01*
X142774568Y-79315044D01*
X142701069Y-78914575D01*
X142706753Y-78507449D01*
X142791408Y-78109180D01*
X142951806Y-77734943D01*
X143181841Y-77398985D01*
X143472748Y-77114108D01*
X143813450Y-76891159D01*
X144190967Y-76738632D01*
X144590916Y-76662338D01*
X144998076Y-76665180D01*
X144998076Y-76665180D01*
G37*
G36*
X113754301Y-80585301D02*
X111874701Y-80585301D01*
X111874701Y-78705701D01*
X113754301Y-78705701D01*
X113754301Y-80585301D01*
X113754301Y-80585301D01*
G37*
G36*
X115370113Y-78705778D02*
X115370118Y-78705779D01*
X115372170Y-78705793D01*
X115554443Y-78726238D01*
X115729275Y-78781698D01*
X115890004Y-78870059D01*
X116030509Y-78987957D01*
X116145439Y-79130901D01*
X116230415Y-79293446D01*
X116282202Y-79469400D01*
X116282205Y-79469436D01*
X116282208Y-79469445D01*
X116298827Y-79652059D01*
X116279659Y-79834427D01*
X116279657Y-79834432D01*
X116279653Y-79834474D01*
X116225415Y-80009688D01*
X116138178Y-80171030D01*
X116021263Y-80312356D01*
X115879125Y-80428280D01*
X115717178Y-80514389D01*
X115541589Y-80567403D01*
X115359048Y-80585301D01*
X115349921Y-80585301D01*
X115338889Y-80585224D01*
X115338884Y-80585223D01*
X115336832Y-80585209D01*
X115154559Y-80564764D01*
X114979727Y-80509304D01*
X114818998Y-80420943D01*
X114678493Y-80303045D01*
X114563563Y-80160101D01*
X114478587Y-79997556D01*
X114426800Y-79821602D01*
X114426797Y-79821566D01*
X114426794Y-79821557D01*
X114410175Y-79638943D01*
X114429343Y-79456575D01*
X114429345Y-79456570D01*
X114429349Y-79456528D01*
X114483587Y-79281314D01*
X114570824Y-79119972D01*
X114687739Y-78978646D01*
X114829877Y-78862722D01*
X114991824Y-78776613D01*
X115167413Y-78723599D01*
X115349954Y-78705701D01*
X115359081Y-78705701D01*
X115370113Y-78705778D01*
X115370113Y-78705778D01*
G37*
G36*
X149697076Y-73665440D02*
X150095916Y-73747311D01*
X150471273Y-73905096D01*
X150808826Y-74132779D01*
X151095728Y-74421690D01*
X151321047Y-74760824D01*
X151476205Y-75137266D01*
X151555222Y-75536329D01*
X151555222Y-75536339D01*
X151555289Y-75536678D01*
X151548795Y-76001736D01*
X151548719Y-76002070D01*
X151548719Y-76002083D01*
X151458590Y-76398785D01*
X151292984Y-76770744D01*
X151058279Y-77103457D01*
X150763422Y-77384246D01*
X150419643Y-77602416D01*
X150040031Y-77749657D01*
X149639057Y-77820360D01*
X149231980Y-77811832D01*
X148834312Y-77724399D01*
X148461201Y-77561391D01*
X148126863Y-77329020D01*
X147844022Y-77036130D01*
X147623458Y-76693880D01*
X147473568Y-76315304D01*
X147400069Y-75914835D01*
X147405753Y-75507709D01*
X147490408Y-75109440D01*
X147650806Y-74735203D01*
X147880841Y-74399245D01*
X148171748Y-74114368D01*
X148512450Y-73891419D01*
X148889967Y-73738892D01*
X149289916Y-73662598D01*
X149697076Y-73665440D01*
X149697076Y-73665440D01*
G37*
G36*
X102335744Y-73533857D02*
X102496759Y-73566909D01*
X102648302Y-73630611D01*
X102784574Y-73722529D01*
X102900407Y-73839172D01*
X102991369Y-73976082D01*
X103054011Y-74128063D01*
X103085869Y-74288956D01*
X103085869Y-74288966D01*
X103085937Y-74289310D01*
X103083316Y-74477063D01*
X103083238Y-74477406D01*
X103083238Y-74477409D01*
X103046898Y-74637361D01*
X102980041Y-74787525D01*
X102885285Y-74921847D01*
X102766246Y-75035208D01*
X102627454Y-75123288D01*
X102474200Y-75182731D01*
X102312320Y-75211275D01*
X102147974Y-75207832D01*
X101987429Y-75172535D01*
X101836795Y-75106724D01*
X101701819Y-75012913D01*
X101587631Y-74894668D01*
X101498584Y-74756494D01*
X101438070Y-74603653D01*
X101408398Y-74441981D01*
X101410692Y-74277616D01*
X101444870Y-74116826D01*
X101509624Y-73965740D01*
X101602495Y-73830107D01*
X101719938Y-73715098D01*
X101857487Y-73625088D01*
X102009898Y-73563510D01*
X102171363Y-73532709D01*
X102335744Y-73533857D01*
X102335744Y-73533857D01*
G37*
G36*
X115035744Y-73533857D02*
X115196759Y-73566909D01*
X115348302Y-73630611D01*
X115484574Y-73722529D01*
X115600407Y-73839172D01*
X115691369Y-73976082D01*
X115754011Y-74128063D01*
X115785869Y-74288956D01*
X115785869Y-74288966D01*
X115785937Y-74289310D01*
X115783316Y-74477063D01*
X115783238Y-74477406D01*
X115783238Y-74477409D01*
X115746898Y-74637361D01*
X115680041Y-74787525D01*
X115585285Y-74921847D01*
X115466246Y-75035208D01*
X115327454Y-75123288D01*
X115174200Y-75182731D01*
X115012320Y-75211275D01*
X114847974Y-75207832D01*
X114687429Y-75172535D01*
X114536795Y-75106724D01*
X114401819Y-75012913D01*
X114287631Y-74894668D01*
X114198584Y-74756494D01*
X114138070Y-74603653D01*
X114108398Y-74441981D01*
X114110692Y-74277616D01*
X114144870Y-74116826D01*
X114209624Y-73965740D01*
X114302495Y-73830107D01*
X114419938Y-73715098D01*
X114557487Y-73625088D01*
X114709898Y-73563510D01*
X114871363Y-73532709D01*
X115035744Y-73533857D01*
X115035744Y-73533857D01*
G37*
G36*
X79475744Y-73533857D02*
X79636759Y-73566909D01*
X79788302Y-73630611D01*
X79924574Y-73722529D01*
X80040407Y-73839172D01*
X80131369Y-73976082D01*
X80194011Y-74128063D01*
X80225869Y-74288956D01*
X80225869Y-74288966D01*
X80225937Y-74289310D01*
X80223316Y-74477063D01*
X80223238Y-74477406D01*
X80223238Y-74477409D01*
X80186898Y-74637361D01*
X80120041Y-74787525D01*
X80025285Y-74921847D01*
X79906246Y-75035208D01*
X79767454Y-75123288D01*
X79614200Y-75182731D01*
X79452320Y-75211275D01*
X79287974Y-75207832D01*
X79127429Y-75172535D01*
X78976795Y-75106724D01*
X78841819Y-75012913D01*
X78727631Y-74894668D01*
X78638584Y-74756494D01*
X78578070Y-74603653D01*
X78548398Y-74441981D01*
X78550692Y-74277616D01*
X78584870Y-74116826D01*
X78649624Y-73965740D01*
X78742495Y-73830107D01*
X78859938Y-73715098D01*
X78997487Y-73625088D01*
X79149898Y-73563510D01*
X79311363Y-73532709D01*
X79475744Y-73533857D01*
X79475744Y-73533857D01*
G37*
G36*
X76935744Y-73533857D02*
X77096759Y-73566909D01*
X77248302Y-73630611D01*
X77384574Y-73722529D01*
X77500407Y-73839172D01*
X77591369Y-73976082D01*
X77654011Y-74128063D01*
X77685869Y-74288956D01*
X77685869Y-74288966D01*
X77685937Y-74289310D01*
X77683316Y-74477063D01*
X77683238Y-74477406D01*
X77683238Y-74477409D01*
X77646898Y-74637361D01*
X77580041Y-74787525D01*
X77485285Y-74921847D01*
X77366246Y-75035208D01*
X77227454Y-75123288D01*
X77074200Y-75182731D01*
X76912320Y-75211275D01*
X76747974Y-75207832D01*
X76587429Y-75172535D01*
X76436795Y-75106724D01*
X76301819Y-75012913D01*
X76187631Y-74894668D01*
X76098584Y-74756494D01*
X76038070Y-74603653D01*
X76008398Y-74441981D01*
X76010692Y-74277616D01*
X76044870Y-74116826D01*
X76109624Y-73965740D01*
X76202495Y-73830107D01*
X76319938Y-73715098D01*
X76457487Y-73625088D01*
X76609898Y-73563510D01*
X76771363Y-73532709D01*
X76935744Y-73533857D01*
X76935744Y-73533857D01*
G37*
G36*
X112495744Y-73533857D02*
X112656759Y-73566909D01*
X112808302Y-73630611D01*
X112944574Y-73722529D01*
X113060407Y-73839172D01*
X113151369Y-73976082D01*
X113214011Y-74128063D01*
X113245869Y-74288956D01*
X113245869Y-74288966D01*
X113245937Y-74289310D01*
X113243316Y-74477063D01*
X113243238Y-74477406D01*
X113243238Y-74477409D01*
X113206898Y-74637361D01*
X113140041Y-74787525D01*
X113045285Y-74921847D01*
X112926246Y-75035208D01*
X112787454Y-75123288D01*
X112634200Y-75182731D01*
X112472320Y-75211275D01*
X112307974Y-75207832D01*
X112147429Y-75172535D01*
X111996795Y-75106724D01*
X111861819Y-75012913D01*
X111747631Y-74894668D01*
X111658584Y-74756494D01*
X111598070Y-74603653D01*
X111568398Y-74441981D01*
X111570692Y-74277616D01*
X111604870Y-74116826D01*
X111669624Y-73965740D01*
X111762495Y-73830107D01*
X111879938Y-73715098D01*
X112017487Y-73625088D01*
X112169898Y-73563510D01*
X112331363Y-73532709D01*
X112495744Y-73533857D01*
X112495744Y-73533857D01*
G37*
G36*
X109955744Y-73533857D02*
X110116759Y-73566909D01*
X110268302Y-73630611D01*
X110404574Y-73722529D01*
X110520407Y-73839172D01*
X110611369Y-73976082D01*
X110674011Y-74128063D01*
X110705869Y-74288956D01*
X110705869Y-74288966D01*
X110705937Y-74289310D01*
X110703316Y-74477063D01*
X110703238Y-74477406D01*
X110703238Y-74477409D01*
X110666898Y-74637361D01*
X110600041Y-74787525D01*
X110505285Y-74921847D01*
X110386246Y-75035208D01*
X110247454Y-75123288D01*
X110094200Y-75182731D01*
X109932320Y-75211275D01*
X109767974Y-75207832D01*
X109607429Y-75172535D01*
X109456795Y-75106724D01*
X109321819Y-75012913D01*
X109207631Y-74894668D01*
X109118584Y-74756494D01*
X109058070Y-74603653D01*
X109028398Y-74441981D01*
X109030692Y-74277616D01*
X109064870Y-74116826D01*
X109129624Y-73965740D01*
X109222495Y-73830107D01*
X109339938Y-73715098D01*
X109477487Y-73625088D01*
X109629898Y-73563510D01*
X109791363Y-73532709D01*
X109955744Y-73533857D01*
X109955744Y-73533857D01*
G37*
G36*
X107415744Y-73533857D02*
X107576759Y-73566909D01*
X107728302Y-73630611D01*
X107864574Y-73722529D01*
X107980407Y-73839172D01*
X108071369Y-73976082D01*
X108134011Y-74128063D01*
X108165869Y-74288956D01*
X108165869Y-74288966D01*
X108165937Y-74289310D01*
X108163316Y-74477063D01*
X108163238Y-74477406D01*
X108163238Y-74477409D01*
X108126898Y-74637361D01*
X108060041Y-74787525D01*
X107965285Y-74921847D01*
X107846246Y-75035208D01*
X107707454Y-75123288D01*
X107554200Y-75182731D01*
X107392320Y-75211275D01*
X107227974Y-75207832D01*
X107067429Y-75172535D01*
X106916795Y-75106724D01*
X106781819Y-75012913D01*
X106667631Y-74894668D01*
X106578584Y-74756494D01*
X106518070Y-74603653D01*
X106488398Y-74441981D01*
X106490692Y-74277616D01*
X106524870Y-74116826D01*
X106589624Y-73965740D01*
X106682495Y-73830107D01*
X106799938Y-73715098D01*
X106937487Y-73625088D01*
X107089898Y-73563510D01*
X107251363Y-73532709D01*
X107415744Y-73533857D01*
X107415744Y-73533857D01*
G37*
G36*
X84555744Y-73533857D02*
X84716759Y-73566909D01*
X84868302Y-73630611D01*
X85004574Y-73722529D01*
X85120407Y-73839172D01*
X85211369Y-73976082D01*
X85274011Y-74128063D01*
X85305869Y-74288956D01*
X85305869Y-74288966D01*
X85305937Y-74289310D01*
X85303316Y-74477063D01*
X85303238Y-74477406D01*
X85303238Y-74477409D01*
X85266898Y-74637361D01*
X85200041Y-74787525D01*
X85105285Y-74921847D01*
X84986246Y-75035208D01*
X84847454Y-75123288D01*
X84694200Y-75182731D01*
X84532320Y-75211275D01*
X84367974Y-75207832D01*
X84207429Y-75172535D01*
X84056795Y-75106724D01*
X83921819Y-75012913D01*
X83807631Y-74894668D01*
X83718584Y-74756494D01*
X83658070Y-74603653D01*
X83628398Y-74441981D01*
X83630692Y-74277616D01*
X83664870Y-74116826D01*
X83729624Y-73965740D01*
X83822495Y-73830107D01*
X83939938Y-73715098D01*
X84077487Y-73625088D01*
X84229898Y-73563510D01*
X84391363Y-73532709D01*
X84555744Y-73533857D01*
X84555744Y-73533857D01*
G37*
G36*
X104875744Y-73533857D02*
X105036759Y-73566909D01*
X105188302Y-73630611D01*
X105324574Y-73722529D01*
X105440407Y-73839172D01*
X105531369Y-73976082D01*
X105594011Y-74128063D01*
X105625869Y-74288956D01*
X105625869Y-74288966D01*
X105625937Y-74289310D01*
X105623316Y-74477063D01*
X105623238Y-74477406D01*
X105623238Y-74477409D01*
X105586898Y-74637361D01*
X105520041Y-74787525D01*
X105425285Y-74921847D01*
X105306246Y-75035208D01*
X105167454Y-75123288D01*
X105014200Y-75182731D01*
X104852320Y-75211275D01*
X104687974Y-75207832D01*
X104527429Y-75172535D01*
X104376795Y-75106724D01*
X104241819Y-75012913D01*
X104127631Y-74894668D01*
X104038584Y-74756494D01*
X103978070Y-74603653D01*
X103948398Y-74441981D01*
X103950692Y-74277616D01*
X103984870Y-74116826D01*
X104049624Y-73965740D01*
X104142495Y-73830107D01*
X104259938Y-73715098D01*
X104397487Y-73625088D01*
X104549898Y-73563510D01*
X104711363Y-73532709D01*
X104875744Y-73533857D01*
X104875744Y-73533857D01*
G37*
G36*
X99795744Y-73533857D02*
X99956759Y-73566909D01*
X100108302Y-73630611D01*
X100244574Y-73722529D01*
X100360407Y-73839172D01*
X100451369Y-73976082D01*
X100514011Y-74128063D01*
X100545869Y-74288956D01*
X100545869Y-74288966D01*
X100545937Y-74289310D01*
X100543316Y-74477063D01*
X100543238Y-74477406D01*
X100543238Y-74477409D01*
X100506898Y-74637361D01*
X100440041Y-74787525D01*
X100345285Y-74921847D01*
X100226246Y-75035208D01*
X100087454Y-75123288D01*
X99934200Y-75182731D01*
X99772320Y-75211275D01*
X99607974Y-75207832D01*
X99447429Y-75172535D01*
X99296795Y-75106724D01*
X99161819Y-75012913D01*
X99047631Y-74894668D01*
X98958584Y-74756494D01*
X98898070Y-74603653D01*
X98868398Y-74441981D01*
X98870692Y-74277616D01*
X98904870Y-74116826D01*
X98969624Y-73965740D01*
X99062495Y-73830107D01*
X99179938Y-73715098D01*
X99317487Y-73625088D01*
X99469898Y-73563510D01*
X99631363Y-73532709D01*
X99795744Y-73533857D01*
X99795744Y-73533857D01*
G37*
G36*
X97255744Y-73533857D02*
X97416759Y-73566909D01*
X97568302Y-73630611D01*
X97704574Y-73722529D01*
X97820407Y-73839172D01*
X97911369Y-73976082D01*
X97974011Y-74128063D01*
X98005869Y-74288956D01*
X98005869Y-74288966D01*
X98005937Y-74289310D01*
X98003316Y-74477063D01*
X98003238Y-74477406D01*
X98003238Y-74477409D01*
X97966898Y-74637361D01*
X97900041Y-74787525D01*
X97805285Y-74921847D01*
X97686246Y-75035208D01*
X97547454Y-75123288D01*
X97394200Y-75182731D01*
X97232320Y-75211275D01*
X97067974Y-75207832D01*
X96907429Y-75172535D01*
X96756795Y-75106724D01*
X96621819Y-75012913D01*
X96507631Y-74894668D01*
X96418584Y-74756494D01*
X96358070Y-74603653D01*
X96328398Y-74441981D01*
X96330692Y-74277616D01*
X96364870Y-74116826D01*
X96429624Y-73965740D01*
X96522495Y-73830107D01*
X96639938Y-73715098D01*
X96777487Y-73625088D01*
X96929898Y-73563510D01*
X97091363Y-73532709D01*
X97255744Y-73533857D01*
X97255744Y-73533857D01*
G37*
G36*
X89635744Y-73533857D02*
X89796759Y-73566909D01*
X89948302Y-73630611D01*
X90084574Y-73722529D01*
X90200407Y-73839172D01*
X90291369Y-73976082D01*
X90354011Y-74128063D01*
X90385869Y-74288956D01*
X90385869Y-74288966D01*
X90385937Y-74289310D01*
X90383316Y-74477063D01*
X90383238Y-74477406D01*
X90383238Y-74477409D01*
X90346898Y-74637361D01*
X90280041Y-74787525D01*
X90185285Y-74921847D01*
X90066246Y-75035208D01*
X89927454Y-75123288D01*
X89774200Y-75182731D01*
X89612320Y-75211275D01*
X89447974Y-75207832D01*
X89287429Y-75172535D01*
X89136795Y-75106724D01*
X89001819Y-75012913D01*
X88887631Y-74894668D01*
X88798584Y-74756494D01*
X88738070Y-74603653D01*
X88708398Y-74441981D01*
X88710692Y-74277616D01*
X88744870Y-74116826D01*
X88809624Y-73965740D01*
X88902495Y-73830107D01*
X89019938Y-73715098D01*
X89157487Y-73625088D01*
X89309898Y-73563510D01*
X89471363Y-73532709D01*
X89635744Y-73533857D01*
X89635744Y-73533857D01*
G37*
G36*
X92175744Y-73533857D02*
X92336759Y-73566909D01*
X92488302Y-73630611D01*
X92624574Y-73722529D01*
X92740407Y-73839172D01*
X92831369Y-73976082D01*
X92894011Y-74128063D01*
X92925869Y-74288956D01*
X92925869Y-74288966D01*
X92925937Y-74289310D01*
X92923316Y-74477063D01*
X92923238Y-74477406D01*
X92923238Y-74477409D01*
X92886898Y-74637361D01*
X92820041Y-74787525D01*
X92725285Y-74921847D01*
X92606246Y-75035208D01*
X92467454Y-75123288D01*
X92314200Y-75182731D01*
X92152320Y-75211275D01*
X91987974Y-75207832D01*
X91827429Y-75172535D01*
X91676795Y-75106724D01*
X91541819Y-75012913D01*
X91427631Y-74894668D01*
X91338584Y-74756494D01*
X91278070Y-74603653D01*
X91248398Y-74441981D01*
X91250692Y-74277616D01*
X91284870Y-74116826D01*
X91349624Y-73965740D01*
X91442495Y-73830107D01*
X91559938Y-73715098D01*
X91697487Y-73625088D01*
X91849898Y-73563510D01*
X92011363Y-73532709D01*
X92175744Y-73533857D01*
X92175744Y-73533857D01*
G37*
G36*
X94715744Y-73533857D02*
X94876759Y-73566909D01*
X95028302Y-73630611D01*
X95164574Y-73722529D01*
X95280407Y-73839172D01*
X95371369Y-73976082D01*
X95434011Y-74128063D01*
X95465869Y-74288956D01*
X95465869Y-74288966D01*
X95465937Y-74289310D01*
X95463316Y-74477063D01*
X95463238Y-74477406D01*
X95463238Y-74477409D01*
X95426898Y-74637361D01*
X95360041Y-74787525D01*
X95265285Y-74921847D01*
X95146246Y-75035208D01*
X95007454Y-75123288D01*
X94854200Y-75182731D01*
X94692320Y-75211275D01*
X94527974Y-75207832D01*
X94367429Y-75172535D01*
X94216795Y-75106724D01*
X94081819Y-75012913D01*
X93967631Y-74894668D01*
X93878584Y-74756494D01*
X93818070Y-74603653D01*
X93788398Y-74441981D01*
X93790692Y-74277616D01*
X93824870Y-74116826D01*
X93889624Y-73965740D01*
X93982495Y-73830107D01*
X94099938Y-73715098D01*
X94237487Y-73625088D01*
X94389898Y-73563510D01*
X94551363Y-73532709D01*
X94715744Y-73533857D01*
X94715744Y-73533857D01*
G37*
G36*
X82015744Y-73533857D02*
X82176759Y-73566909D01*
X82328302Y-73630611D01*
X82464574Y-73722529D01*
X82580407Y-73839172D01*
X82671369Y-73976082D01*
X82734011Y-74128063D01*
X82765869Y-74288956D01*
X82765869Y-74288966D01*
X82765937Y-74289310D01*
X82763316Y-74477063D01*
X82763238Y-74477406D01*
X82763238Y-74477409D01*
X82726898Y-74637361D01*
X82660041Y-74787525D01*
X82565285Y-74921847D01*
X82446246Y-75035208D01*
X82307454Y-75123288D01*
X82154200Y-75182731D01*
X81992320Y-75211275D01*
X81827974Y-75207832D01*
X81667429Y-75172535D01*
X81516795Y-75106724D01*
X81381819Y-75012913D01*
X81267631Y-74894668D01*
X81178584Y-74756494D01*
X81118070Y-74603653D01*
X81088398Y-74441981D01*
X81090692Y-74277616D01*
X81124870Y-74116826D01*
X81189624Y-73965740D01*
X81282495Y-73830107D01*
X81399938Y-73715098D01*
X81537487Y-73625088D01*
X81689898Y-73563510D01*
X81851363Y-73532709D01*
X82015744Y-73533857D01*
X82015744Y-73533857D01*
G37*
G36*
X87095744Y-73533857D02*
X87256759Y-73566909D01*
X87408302Y-73630611D01*
X87544574Y-73722529D01*
X87660407Y-73839172D01*
X87751369Y-73976082D01*
X87814011Y-74128063D01*
X87845869Y-74288956D01*
X87845869Y-74288966D01*
X87845937Y-74289310D01*
X87843316Y-74477063D01*
X87843238Y-74477406D01*
X87843238Y-74477409D01*
X87806898Y-74637361D01*
X87740041Y-74787525D01*
X87645285Y-74921847D01*
X87526246Y-75035208D01*
X87387454Y-75123288D01*
X87234200Y-75182731D01*
X87072320Y-75211275D01*
X86907974Y-75207832D01*
X86747429Y-75172535D01*
X86596795Y-75106724D01*
X86461819Y-75012913D01*
X86347631Y-74894668D01*
X86258584Y-74756494D01*
X86198070Y-74603653D01*
X86168398Y-74441981D01*
X86170692Y-74277616D01*
X86204870Y-74116826D01*
X86269624Y-73965740D01*
X86362495Y-73830107D01*
X86479938Y-73715098D01*
X86617487Y-73625088D01*
X86769898Y-73563510D01*
X86931363Y-73532709D01*
X87095744Y-73533857D01*
X87095744Y-73533857D01*
G37*
G36*
X144998076Y-70665700D02*
X145396916Y-70747571D01*
X145772273Y-70905356D01*
X146109826Y-71133039D01*
X146396728Y-71421950D01*
X146622047Y-71761084D01*
X146777205Y-72137526D01*
X146856222Y-72536589D01*
X146856222Y-72536599D01*
X146856289Y-72536938D01*
X146849795Y-73001996D01*
X146849719Y-73002330D01*
X146849719Y-73002343D01*
X146759590Y-73399045D01*
X146593984Y-73771004D01*
X146359279Y-74103717D01*
X146064422Y-74384506D01*
X145720643Y-74602676D01*
X145341031Y-74749917D01*
X144940057Y-74820620D01*
X144532980Y-74812092D01*
X144135312Y-74724659D01*
X143762201Y-74561651D01*
X143427863Y-74329280D01*
X143145022Y-74036390D01*
X142924458Y-73694140D01*
X142774568Y-73315564D01*
X142701069Y-72915095D01*
X142706753Y-72507969D01*
X142791408Y-72109700D01*
X142951806Y-71735463D01*
X143181841Y-71399505D01*
X143472748Y-71114628D01*
X143813450Y-70891679D01*
X144190967Y-70739152D01*
X144590916Y-70662858D01*
X144998076Y-70665700D01*
X144998076Y-70665700D01*
G37*
M02*
