%TF.GenerationSoftware,KiCad,Pcbnew,4.0.5-e0-6337~49~ubuntu16.04.1*%
%TF.CreationDate,2017-07-27T13:02:09-07:00*%
%TF.ProjectId,mcphail-main-board,6D63706861696C2D6D61696E2D626F61,1.0*%
%TF.FileFunction,Copper,L1,Top,Signal*%
%FSLAX46Y46*%
G04 Gerber Fmt 4.6, Leading zero omitted, Abs format (unit mm)*
G04 Created by KiCad (PCBNEW 4.0.5-e0-6337~49~ubuntu16.04.1) date Thu Jul 27 13:02:09 2017*
%MOMM*%
%LPD*%
G01*
G04 APERTURE LIST*
%ADD10C,0.350000*%
%ADD11R,2.500000X5.100000*%
%ADD12C,10.200000*%
%ADD13R,1.000000X1.600000*%
%ADD14R,0.800000X0.750000*%
%ADD15R,1.000000X1.250000*%
%ADD16R,1.000000X2.500000*%
%ADD17R,2.499360X1.800860*%
%ADD18R,1.000000X3.000000*%
%ADD19R,2.032000X2.032000*%
%ADD20O,2.032000X2.032000*%
%ADD21R,2.032000X1.727200*%
%ADD22O,2.032000X1.727200*%
%ADD23R,1.400000X0.900000*%
%ADD24R,1.200000X1.150000*%
%ADD25R,1.450000X1.200000*%
%ADD26R,0.700000X1.000000*%
%ADD27R,1.000000X0.700000*%
%ADD28R,0.400000X1.350000*%
%ADD29R,1.600000X1.400000*%
%ADD30C,1.200000*%
%ADD31R,1.900000X1.900000*%
%ADD32C,1.524000*%
%ADD33C,4.000000*%
%ADD34R,1.000000X3.500000*%
%ADD35R,1.600000X3.400000*%
%ADD36R,0.600000X0.500000*%
%ADD37R,0.800000X1.700000*%
%ADD38R,1.500000X0.600000*%
%ADD39R,1.750000X0.650000*%
%ADD40R,0.730000X0.300000*%
%ADD41R,0.300000X0.730000*%
%ADD42R,1.250000X1.250000*%
%ADD43R,0.800100X0.800100*%
%ADD44C,1.727200*%
%ADD45R,1.905000X1.397000*%
%ADD46C,1.600000*%
%ADD47C,0.350000*%
G04 APERTURE END LIST*
D10*
D11*
X111514321Y-24345389D03*
X96214321Y-24345389D03*
D12*
X103864321Y-24345389D03*
D13*
X65899001Y-81849001D03*
X68899001Y-81849001D03*
D14*
X94503524Y-63989001D03*
X96003524Y-63989001D03*
D15*
X104309001Y-70705001D03*
X106309001Y-70705001D03*
D14*
X96037333Y-76139001D03*
X97537333Y-76139001D03*
D16*
X80949001Y-72689001D03*
X83949001Y-72689001D03*
D13*
X73539001Y-75119001D03*
X76539001Y-75119001D03*
D14*
X100207333Y-76139001D03*
X101707333Y-76139001D03*
D15*
X90019001Y-85905001D03*
X92019001Y-85905001D03*
D14*
X89353524Y-68839001D03*
X90853524Y-68839001D03*
D13*
X81209001Y-67389001D03*
X84209001Y-67389001D03*
D14*
X92987333Y-80989001D03*
X94487333Y-80989001D03*
D13*
X58489001Y-84149001D03*
X61489001Y-84149001D03*
D15*
X96899001Y-80455001D03*
X98899001Y-80455001D03*
D16*
X88619001Y-63989001D03*
X91619001Y-63989001D03*
X65899001Y-87149001D03*
X68899001Y-87149001D03*
X73539001Y-80419001D03*
X76539001Y-80419001D03*
D14*
X100397333Y-72089001D03*
X101897333Y-72089001D03*
D16*
X80469001Y-78389001D03*
X83469001Y-78389001D03*
D13*
X51079001Y-84149001D03*
X54079001Y-84149001D03*
X88619001Y-58689001D03*
X91619001Y-58689001D03*
D16*
X96029001Y-59139001D03*
X99029001Y-59139001D03*
D13*
X56759001Y-70269001D03*
X59759001Y-70269001D03*
X73539001Y-70269001D03*
X76539001Y-70269001D03*
D15*
X59807333Y-88865001D03*
X61807333Y-88865001D03*
D14*
X71783524Y-86299001D03*
X73283524Y-86299001D03*
X86107333Y-87289001D03*
X87607333Y-87289001D03*
X103707333Y-66389001D03*
X105207333Y-66389001D03*
D15*
X104309001Y-73295001D03*
X106309001Y-73295001D03*
D14*
X106153524Y-36969001D03*
X107653524Y-36969001D03*
D15*
X62827333Y-49535001D03*
X64827333Y-49535001D03*
D14*
X90603524Y-32719001D03*
X92103524Y-32719001D03*
X102117333Y-45069001D03*
X103617333Y-45069001D03*
D15*
X62819001Y-52125001D03*
X64819001Y-52125001D03*
D14*
X110797333Y-36769001D03*
X112297333Y-36769001D03*
X101033524Y-41019001D03*
X102533524Y-41019001D03*
X107783524Y-32719001D03*
X109283524Y-32719001D03*
X112903524Y-32719001D03*
X114403524Y-32719001D03*
X106153524Y-41019001D03*
X107653524Y-41019001D03*
X110439001Y-44869001D03*
X111939001Y-44869001D03*
X97473524Y-45069001D03*
X98973524Y-45069001D03*
X106989001Y-49119001D03*
X108489001Y-49119001D03*
D13*
X86789001Y-100279001D03*
X89789001Y-100279001D03*
X86789001Y-95429001D03*
X89789001Y-95429001D03*
X72129001Y-112159001D03*
X75129001Y-112159001D03*
X84119001Y-107609001D03*
X87119001Y-107609001D03*
D14*
X85683524Y-112059001D03*
X87183524Y-112059001D03*
X91787333Y-108779001D03*
X93287333Y-108779001D03*
D15*
X96889001Y-102515001D03*
X98889001Y-102515001D03*
X96889001Y-105105001D03*
X98889001Y-105105001D03*
D14*
X95723524Y-32719001D03*
X97223524Y-32719001D03*
X101033524Y-36969001D03*
X102533524Y-36969001D03*
D17*
X78890021Y-50439001D03*
X82887981Y-50439001D03*
D14*
X81388762Y-32719001D03*
X82888762Y-32719001D03*
X62038762Y-45219001D03*
X63538762Y-45219001D03*
D17*
X77270021Y-108459001D03*
X81267981Y-108459001D03*
D18*
X100299001Y-33819001D03*
X104899001Y-33819001D03*
D19*
X57158762Y-78149000D03*
D20*
X57158762Y-80689000D03*
D19*
X83836381Y-61389000D03*
D20*
X83836381Y-63929000D03*
D21*
X53659000Y-59299001D03*
D22*
X53659000Y-61839001D03*
X53659000Y-64379001D03*
X53659000Y-66919001D03*
X53659000Y-69459001D03*
X53659000Y-71999001D03*
D23*
X67760401Y-29059001D03*
D24*
X57495501Y-28922501D03*
D25*
X67735401Y-26759001D03*
D24*
X57495501Y-26322501D03*
D26*
X60095501Y-25282501D03*
X58995501Y-25282501D03*
X61195501Y-25282501D03*
X62295501Y-25282501D03*
X63395501Y-25282501D03*
X66695501Y-25282501D03*
X65595501Y-25282501D03*
X64495501Y-25282501D03*
D27*
X67960401Y-27909001D03*
D28*
X79539001Y-43690201D03*
X80189001Y-43690201D03*
X80838101Y-43690201D03*
X81489001Y-43690201D03*
X82139001Y-43690201D03*
D29*
X77639001Y-43915201D03*
D30*
X77289001Y-46365201D03*
D31*
X79639001Y-46365201D03*
X82039001Y-46365201D03*
D29*
X84039001Y-43915201D03*
D30*
X84389001Y-46365201D03*
D21*
X73459000Y-31919401D03*
D22*
X73459000Y-34459401D03*
X73459000Y-36999401D03*
X73459000Y-39539401D03*
X73459000Y-42079401D03*
D32*
X52870201Y-20569000D03*
X55410201Y-20569000D03*
X57950201Y-20569000D03*
X60490201Y-20569000D03*
X63030201Y-20569000D03*
X65570201Y-20569000D03*
X68110201Y-20569000D03*
X70650201Y-20569000D03*
X73190201Y-20569000D03*
X75730201Y-20569000D03*
X78270201Y-20569000D03*
X80810201Y-20569000D03*
X83350201Y-20569000D03*
X85890201Y-20569000D03*
X88430201Y-20569000D03*
X90970201Y-20569000D03*
D33*
X68473741Y-106360401D03*
X62474261Y-106360401D03*
X65474001Y-111059401D03*
D34*
X79689401Y-96554001D03*
X81689401Y-96554001D03*
D35*
X77289401Y-102104001D03*
X84089401Y-102104001D03*
D21*
X54029000Y-25509401D03*
D22*
X54029000Y-28049401D03*
X54029000Y-30589401D03*
X54029000Y-33129401D03*
X54029000Y-35669401D03*
X54029000Y-38209401D03*
X54029000Y-40749401D03*
X54029000Y-43289401D03*
X54029000Y-45829401D03*
X54029000Y-48369401D03*
D15*
X58336381Y-41525001D03*
X60336381Y-41525001D03*
X64746381Y-41525001D03*
X66746381Y-41525001D03*
X86076381Y-30095001D03*
X88076381Y-30095001D03*
D14*
X95076381Y-98191001D03*
X96576381Y-98191001D03*
X80416381Y-112071001D03*
X81916381Y-112071001D03*
X80416381Y-116141001D03*
X81916381Y-116141001D03*
X107659001Y-75619001D03*
X109159001Y-75619001D03*
X86690666Y-72889001D03*
X88190666Y-72889001D03*
X96132571Y-72089001D03*
X97632571Y-72089001D03*
X88722571Y-81589001D03*
X90222571Y-81589001D03*
X94360666Y-68039001D03*
X95860666Y-68039001D03*
X91050666Y-76939001D03*
X92550666Y-76939001D03*
X107519001Y-66389001D03*
X109019001Y-66389001D03*
X106610666Y-62339001D03*
X108110666Y-62339001D03*
X101770666Y-62339001D03*
X103270666Y-62339001D03*
X100949001Y-80189001D03*
X102449001Y-80189001D03*
X91530666Y-72889001D03*
X93030666Y-72889001D03*
X106610666Y-58289001D03*
X108110666Y-58289001D03*
X89919001Y-88229001D03*
X91419001Y-88229001D03*
X104209001Y-75619001D03*
X105709001Y-75619001D03*
X79280666Y-83239001D03*
X80780666Y-83239001D03*
X101770666Y-58289001D03*
X103270666Y-58289001D03*
X104399001Y-83719001D03*
X105899001Y-83719001D03*
X94069001Y-86829001D03*
X95569001Y-86829001D03*
X107849001Y-79669001D03*
X109349001Y-79669001D03*
D15*
X51182571Y-88865001D03*
X53182571Y-88865001D03*
X55542571Y-88865001D03*
X57542571Y-88865001D03*
D14*
X97734476Y-88289001D03*
X99234476Y-88289001D03*
X76760666Y-87289001D03*
X78260666Y-87289001D03*
X104399001Y-79669001D03*
X105899001Y-79669001D03*
X84120666Y-83239001D03*
X85620666Y-83239001D03*
X100464476Y-84239001D03*
X101964476Y-84239001D03*
X99200666Y-68039001D03*
X100700666Y-68039001D03*
X96799001Y-82779001D03*
X98299001Y-82779001D03*
X81600666Y-87289001D03*
X83100666Y-87289001D03*
X86210666Y-77539001D03*
X87710666Y-77539001D03*
X66889001Y-49269001D03*
X68389001Y-49269001D03*
X96639001Y-49119001D03*
X98139001Y-49119001D03*
X100089001Y-49119001D03*
X101589001Y-49119001D03*
X110439001Y-40819001D03*
X111939001Y-40819001D03*
X105929001Y-45069001D03*
X107429001Y-45069001D03*
X103539001Y-49119001D03*
X105039001Y-49119001D03*
X110439001Y-48919001D03*
X111939001Y-48919001D03*
X92382571Y-104729001D03*
X93882571Y-104729001D03*
X89209001Y-116879001D03*
X90709001Y-116879001D03*
X100239001Y-107429001D03*
X101739001Y-107429001D03*
X93419001Y-115529001D03*
X94919001Y-115529001D03*
D36*
X73062095Y-116469000D03*
X74162095Y-116469000D03*
D14*
X95599001Y-111479001D03*
X97099001Y-111479001D03*
X99962571Y-98179001D03*
X101462571Y-98179001D03*
X89969001Y-112829001D03*
X91469001Y-112829001D03*
X85302571Y-116109001D03*
X86802571Y-116109001D03*
X96789001Y-107429001D03*
X98289001Y-107429001D03*
D37*
X88311001Y-25233001D03*
X84911001Y-25233001D03*
D38*
X65689401Y-70109401D03*
X65689401Y-71379401D03*
X65689401Y-72649401D03*
X65689401Y-73919401D03*
X65689401Y-75189401D03*
X65689401Y-76459401D03*
X65689401Y-77729401D03*
X71089401Y-77729401D03*
X71089401Y-76459401D03*
X71089401Y-75189401D03*
X71089401Y-73919401D03*
X71089401Y-72649401D03*
X71089401Y-71379401D03*
X71089401Y-70109401D03*
X57059401Y-58529401D03*
X57059401Y-59799401D03*
X57059401Y-61069401D03*
X57059401Y-62339401D03*
X57059401Y-63609401D03*
X57059401Y-64879401D03*
X57059401Y-66149401D03*
X62459401Y-66149401D03*
X62459401Y-64879401D03*
X62459401Y-63609401D03*
X62459401Y-62339401D03*
X62459401Y-61069401D03*
X62459401Y-59799401D03*
X62459401Y-58529401D03*
X73359401Y-58529401D03*
X73359401Y-59799401D03*
X73359401Y-61069401D03*
X73359401Y-62339401D03*
X73359401Y-63609401D03*
X73359401Y-64879401D03*
X73359401Y-66149401D03*
X78759401Y-66149401D03*
X78759401Y-64879401D03*
X78759401Y-63609401D03*
X78759401Y-62339401D03*
X78759401Y-61069401D03*
X78759401Y-59799401D03*
X78759401Y-58529401D03*
X65209401Y-58529401D03*
X65209401Y-59799401D03*
X65209401Y-61069401D03*
X65209401Y-62339401D03*
X65209401Y-63609401D03*
X65209401Y-64879401D03*
X65209401Y-66149401D03*
X70609401Y-66149401D03*
X70609401Y-64879401D03*
X70609401Y-63609401D03*
X70609401Y-62339401D03*
X70609401Y-61069401D03*
X70609401Y-59799401D03*
X70609401Y-58529401D03*
X88889401Y-42719401D03*
X88889401Y-43989401D03*
X88889401Y-45259401D03*
X88889401Y-46529401D03*
X88889401Y-47799401D03*
X88889401Y-49069401D03*
X88889401Y-50339401D03*
X94289401Y-50339401D03*
X94289401Y-49069401D03*
X94289401Y-47799401D03*
X94289401Y-46529401D03*
X94289401Y-45259401D03*
X94289401Y-43989401D03*
X94289401Y-42719401D03*
D39*
X73729238Y-24965004D03*
X73729238Y-26235004D03*
X73729238Y-27505004D03*
X73729238Y-28775004D03*
X79329238Y-28775004D03*
X79329238Y-27505004D03*
X79329238Y-26235004D03*
X79329238Y-24965004D03*
X78695905Y-37275004D03*
X78695905Y-38545004D03*
X78695905Y-39815004D03*
X78695905Y-41085004D03*
X84295905Y-41085004D03*
X84295905Y-39815004D03*
X84295905Y-38545004D03*
X84295905Y-37275004D03*
D40*
X56491381Y-115769001D03*
X56491381Y-116269001D03*
X56491381Y-116769001D03*
X56491381Y-117269001D03*
X56491381Y-117769001D03*
D41*
X57456381Y-118734001D03*
X57956381Y-118734001D03*
X58456381Y-118734001D03*
X58956381Y-118734001D03*
X59456381Y-118734001D03*
D40*
X60421381Y-117769001D03*
X60421381Y-117269001D03*
X60421381Y-116769001D03*
X60421381Y-116269001D03*
X60421381Y-115769001D03*
D41*
X59456381Y-114804001D03*
X58956381Y-114804001D03*
X58456381Y-114804001D03*
X57956381Y-114804001D03*
X57456381Y-114804001D03*
D42*
X59081381Y-117394001D03*
X59081381Y-116144001D03*
X57831381Y-117394001D03*
X57831381Y-116144001D03*
D40*
X62991381Y-95879001D03*
X62991381Y-96379001D03*
X62991381Y-96879001D03*
X62991381Y-97379001D03*
X62991381Y-97879001D03*
D41*
X63956381Y-98844001D03*
X64456381Y-98844001D03*
X64956381Y-98844001D03*
X65456381Y-98844001D03*
X65956381Y-98844001D03*
D40*
X66921381Y-97879001D03*
X66921381Y-97379001D03*
X66921381Y-96879001D03*
X66921381Y-96379001D03*
X66921381Y-95879001D03*
D41*
X65956381Y-94914001D03*
X65456381Y-94914001D03*
X64956381Y-94914001D03*
X64456381Y-94914001D03*
X63956381Y-94914001D03*
D42*
X65581381Y-97504001D03*
X65581381Y-96254001D03*
X64331381Y-97504001D03*
X64331381Y-96254001D03*
D43*
X65440190Y-116769761D03*
X67340190Y-116769761D03*
X66390190Y-114770781D03*
D44*
X74179000Y-104371400D03*
D45*
X75459401Y-49505801D03*
X70989001Y-49505801D03*
X75459401Y-51995001D03*
X70989001Y-51995001D03*
D46*
X90925601Y-38595601D03*
X95805601Y-38595601D03*
D47*
X57158762Y-78149000D03*
X57158762Y-80689000D03*
X83836381Y-61389000D03*
X83836381Y-63929000D03*
X53659000Y-59299001D03*
X53659000Y-61839001D03*
X53659000Y-64379001D03*
X53659000Y-66919001D03*
X53659000Y-69459001D03*
X53659000Y-71999001D03*
X77289001Y-46365201D03*
X84389001Y-46365201D03*
X73459000Y-31919401D03*
X73459000Y-34459401D03*
X73459000Y-36999401D03*
X73459000Y-39539401D03*
X73459000Y-42079401D03*
X52870201Y-20569000D03*
X55410201Y-20569000D03*
X57950201Y-20569000D03*
X60490201Y-20569000D03*
X63030201Y-20569000D03*
X65570201Y-20569000D03*
X68110201Y-20569000D03*
X70650201Y-20569000D03*
X73190201Y-20569000D03*
X75730201Y-20569000D03*
X78270201Y-20569000D03*
X80810201Y-20569000D03*
X83350201Y-20569000D03*
X85890201Y-20569000D03*
X88430201Y-20569000D03*
X90970201Y-20569000D03*
X68473741Y-106360401D03*
X62474261Y-106360401D03*
X65474001Y-111059401D03*
X54029000Y-25509401D03*
X54029000Y-28049401D03*
X54029000Y-30589401D03*
X54029000Y-33129401D03*
X54029000Y-35669401D03*
X54029000Y-38209401D03*
X54029000Y-40749401D03*
X54029000Y-43289401D03*
X54029000Y-45829401D03*
X54029000Y-48369401D03*
X74179000Y-104371400D03*
X90925601Y-38595601D03*
X95805601Y-38595601D03*
M02*
