%TF.GenerationSoftware,KiCad,Pcbnew,4.0.5-e0-6337~49~ubuntu16.04.1*%
%TF.CreationDate,2017-08-09T07:16:44-07:00*%
%TF.ProjectId,mcphail-main-board,6D63706861696C2D6D61696E2D626F61,1.0*%
%TF.FileFunction,Copper,L2,Bot,Signal*%
%FSLAX46Y46*%
G04 Gerber Fmt 4.6, Leading zero omitted, Abs format (unit mm)*
G04 Created by KiCad (PCBNEW 4.0.5-e0-6337~49~ubuntu16.04.1) date Wed Aug  9 07:16:44 2017*
%MOMM*%
%LPD*%
G01*
G04 APERTURE LIST*
%ADD10C,0.350000*%
%ADD11C,1.524000*%
%ADD12R,2.032000X1.727200*%
%ADD13O,2.032000X1.727200*%
%ADD14C,1.600000*%
%ADD15C,1.727200*%
%ADD16R,2.500000X5.100000*%
%ADD17C,10.200000*%
%ADD18R,2.032000X2.032000*%
%ADD19O,2.032000X2.032000*%
%ADD20C,1.200000*%
%ADD21C,4.000000*%
%ADD22R,1.727200X1.727200*%
%ADD23O,1.727200X1.727200*%
%ADD24C,0.685800*%
%ADD25C,0.254000*%
%ADD26C,0.330200*%
%ADD27C,0.330200*%
%ADD28C,0.350000*%
G04 APERTURE END LIST*
D10*
D11*
X244500400Y-52781200D03*
X244500400Y-55321200D03*
X244500400Y-57861200D03*
X244500400Y-60401200D03*
X244500400Y-62941200D03*
X244500400Y-65481200D03*
X244500400Y-68021200D03*
X244500400Y-70561200D03*
X244500400Y-73101200D03*
X244500400Y-75641200D03*
X244500400Y-78181200D03*
X244500400Y-80721200D03*
X244500400Y-83261200D03*
X244500400Y-85801200D03*
X244500400Y-88341200D03*
X244500400Y-90881200D03*
D12*
X197104000Y-93535500D03*
D13*
X197104000Y-90995500D03*
X197104000Y-88455500D03*
X197104000Y-85915500D03*
X197104000Y-83375500D03*
X197104000Y-80835500D03*
D14*
X236855000Y-85852000D03*
X236855000Y-83352000D03*
D15*
X194411600Y-51663600D03*
D16*
X233684600Y-87426800D03*
X218384600Y-87426800D03*
D17*
X226034600Y-87426800D03*
D18*
X206552800Y-95338900D03*
D19*
X204012800Y-95338900D03*
D18*
X235668400Y-93332700D03*
D19*
X238208400Y-93332700D03*
D20*
X169672398Y-52935918D03*
X169672398Y-60035918D03*
D21*
X182270540Y-46458200D03*
X176271060Y-46458200D03*
X179270800Y-51157200D03*
D14*
X234869800Y-76358200D03*
X234869800Y-71478200D03*
D22*
X209550000Y-57658000D03*
D23*
X209550000Y-60198000D03*
X207010000Y-57658000D03*
X207010000Y-60198000D03*
X204470000Y-57658000D03*
X204470000Y-60198000D03*
D24*
X194310000Y-67208400D03*
X230022400Y-80236000D03*
X211785200Y-66827400D03*
X214249000Y-69164200D03*
X214183498Y-73787000D03*
X234975400Y-64871600D03*
X223418400Y-65862200D03*
X227914200Y-57404000D03*
X224180400Y-56870600D03*
X211963000Y-86791800D03*
X212090000Y-97078800D03*
X212039200Y-91059000D03*
X213766400Y-92557600D03*
X230276400Y-91770200D03*
X221742000Y-91567000D03*
X229412800Y-82448400D03*
X232613200Y-79095600D03*
X232816400Y-64871600D03*
X227228400Y-67411600D03*
X226364800Y-70916800D03*
X238781400Y-74371200D03*
X211785200Y-76047600D03*
X224028000Y-59131200D03*
X222199200Y-65887600D03*
X216560400Y-59893200D03*
X214122000Y-59917200D03*
X204978000Y-52527200D03*
X210718400Y-53644800D03*
X209550000Y-51155600D03*
X233934000Y-45567600D03*
X236169200Y-57099200D03*
X238353600Y-53441600D03*
X228549200Y-51816000D03*
X219760800Y-51816000D03*
X223367600Y-51017140D03*
X225044000Y-51017140D03*
X230174800Y-45516800D03*
X202895200Y-45770800D03*
X197154800Y-52273200D03*
X200456800Y-48531122D03*
X201828400Y-50762820D03*
X201106740Y-51155600D03*
X199034400Y-49762820D03*
X213856000Y-75946000D03*
X176466500Y-58928000D03*
X174879000Y-52451000D03*
X242214400Y-92811600D03*
X199326500Y-87741461D03*
X174345600Y-74066400D03*
X170129200Y-74066400D03*
X180784490Y-77127100D03*
X176105629Y-87538261D03*
X206687229Y-88338361D03*
X206484029Y-91233961D03*
X183725629Y-87741461D03*
X185757629Y-87741461D03*
X208000600Y-78079600D03*
X177901600Y-92303600D03*
X178104800Y-87782400D03*
X205366519Y-88236771D03*
X209956400Y-76200000D03*
X204470000Y-66040000D03*
X208299358Y-66516558D03*
X208851500Y-82677000D03*
X209740500Y-81978500D03*
X203073000Y-92519500D03*
X203136500Y-91503500D03*
X203203517Y-80916390D03*
X183642000Y-77724000D03*
X195376800Y-75488800D03*
X192887600Y-68122800D03*
X173641839Y-91043461D03*
X190611756Y-73900714D03*
X204226156Y-73303814D03*
X201622656Y-73278414D03*
X182054500Y-64566800D03*
X181432200Y-69672200D03*
X190367729Y-88859061D03*
X180576029Y-87690661D03*
X175978629Y-92301461D03*
X173514829Y-87208061D03*
X205171829Y-91966961D03*
X176631600Y-66446400D03*
X176661798Y-69024500D03*
X180492400Y-81127600D03*
X180492400Y-80060800D03*
X179387500Y-62407800D03*
X180314600Y-66268600D03*
X213664800Y-70434200D03*
X231140000Y-81991211D03*
X217271600Y-68478400D03*
X231140000Y-75184000D03*
X222046800Y-64312800D03*
X204216000Y-64922400D03*
X206095600Y-78638400D03*
X207835500Y-80911700D03*
X216154000Y-90360500D03*
X215036400Y-64871600D03*
X197783438Y-49784000D03*
X200507600Y-47142400D03*
X208051400Y-69291200D03*
X208051400Y-73202800D03*
X205486000Y-74104500D03*
X207518000Y-71420200D03*
X209143600Y-79438500D03*
X209245200Y-72567800D03*
X206933800Y-75971400D03*
X207899000Y-84455000D03*
X200660000Y-79946500D03*
X203454000Y-79933800D03*
X206890856Y-76936600D03*
X210058000Y-78930500D03*
X214223600Y-71069200D03*
X234035600Y-69011800D03*
X226060000Y-68910200D03*
X229483154Y-69176910D03*
X221322890Y-71429273D03*
X229260400Y-67310000D03*
X216966800Y-71475600D03*
X229362000Y-75031600D03*
X230022833Y-69640126D03*
X223307603Y-70197679D03*
X227915776Y-69775705D03*
X230022400Y-67729090D03*
X215678808Y-71424800D03*
X227330000Y-75031600D03*
X224840800Y-75234800D03*
X215493600Y-70307200D03*
X213868000Y-67081400D03*
X215138000Y-66040000D03*
X215138000Y-66929000D03*
X216154000Y-66040000D03*
X223824800Y-80060800D03*
X225983800Y-72085200D03*
X223596200Y-61798200D03*
X216585800Y-62585600D03*
X224383600Y-64947800D03*
X222250000Y-63195200D03*
X227101400Y-66141600D03*
X220218000Y-63271400D03*
X216687400Y-65024000D03*
X223418400Y-62814200D03*
X198882000Y-68834000D03*
X198831200Y-73355200D03*
X242874800Y-81559400D03*
X226009200Y-81838800D03*
X220243400Y-69926200D03*
X222316570Y-69918268D03*
X224993200Y-81432400D03*
D25*
X220065600Y-93802200D02*
X218384600Y-92121200D01*
X218384600Y-92121200D02*
X218384600Y-87426800D01*
X230352600Y-93802200D02*
X220065600Y-93802200D01*
X233684600Y-90470200D02*
X230352600Y-93802200D01*
X233684600Y-87426800D02*
X233684600Y-90470200D01*
X230022400Y-80236000D02*
X230022400Y-82464600D01*
X233684600Y-86126800D02*
X233684600Y-87426800D01*
X230022400Y-82464600D02*
X233684600Y-86126800D01*
X211734400Y-66291667D02*
X211734400Y-65963800D01*
X211785200Y-66827400D02*
X211785200Y-66342467D01*
X211785200Y-66342467D02*
X211734400Y-66291667D01*
X214858600Y-69900800D02*
X214858600Y-69773800D01*
X214858600Y-69773800D02*
X214249000Y-69164200D01*
X214858600Y-71450200D02*
X214858600Y-69900800D01*
X214183498Y-72125302D02*
X214858600Y-71450200D01*
X214183498Y-73787000D02*
X214183498Y-72125302D01*
X222199200Y-65887600D02*
X223393000Y-65887600D01*
X223393000Y-65887600D02*
X223418400Y-65862200D01*
X226034600Y-87426800D02*
X226034600Y-87528400D01*
X226034600Y-87528400D02*
X230276400Y-91770200D01*
X226034600Y-87426800D02*
X225882200Y-87426800D01*
X225882200Y-87426800D02*
X221742000Y-91567000D01*
X226034600Y-87426800D02*
X226034600Y-85826600D01*
X226034600Y-85826600D02*
X229412800Y-82448400D01*
D26*
X211785200Y-76047600D02*
X213754400Y-76047600D01*
X213754400Y-76047600D02*
X213856000Y-75946000D01*
X214680800Y-96113600D02*
X238912400Y-96113600D01*
X238912400Y-96113600D02*
X242214400Y-92811600D01*
X211480400Y-92913200D02*
X214680800Y-96113600D01*
X209143600Y-92913200D02*
X211480400Y-92913200D01*
X207464361Y-91233961D02*
X209143600Y-92913200D01*
X206484029Y-91233961D02*
X207464361Y-91233961D01*
D25*
X199326500Y-87741461D02*
X198707039Y-87122000D01*
X198707039Y-87122000D02*
X186377090Y-87122000D01*
X186377090Y-87122000D02*
X185757629Y-87741461D01*
X176842229Y-88274861D02*
X176105629Y-87538261D01*
X206687229Y-87985600D02*
X206443090Y-87741461D01*
X199326500Y-87741461D02*
X206443090Y-87741461D01*
X206687229Y-87985600D02*
X206687229Y-88338361D01*
X179374800Y-74066400D02*
X174345600Y-74066400D01*
X180784490Y-75476090D02*
X179374800Y-74066400D01*
X180784490Y-77127100D02*
X180784490Y-75476090D01*
X177667740Y-89100372D02*
X176842229Y-88274861D01*
X182366718Y-89100372D02*
X177667740Y-89100372D01*
X183725629Y-87741461D02*
X182366718Y-89100372D01*
X205171829Y-91966961D02*
X203726961Y-91966961D01*
X176631600Y-66446400D02*
X176631600Y-68994302D01*
X176631600Y-68994302D02*
X176661798Y-69024500D01*
X176784000Y-69024500D02*
X176661798Y-69024500D01*
X180492400Y-80060800D02*
X180492400Y-81127600D01*
X180314600Y-66268600D02*
X180314600Y-63334900D01*
X180314600Y-63334900D02*
X179387500Y-62407800D01*
X213664800Y-70434200D02*
X213664800Y-68478400D01*
X231140000Y-75184000D02*
X231140000Y-81991211D01*
X222046800Y-64312800D02*
X221335600Y-65024000D01*
X221081600Y-68478400D02*
X221259400Y-68300600D01*
X221335600Y-68224400D02*
X221259400Y-68300600D01*
X221335600Y-65024000D02*
X221335600Y-68224400D01*
X217932000Y-68478400D02*
X221081600Y-68478400D01*
X217932000Y-68478400D02*
X219303600Y-68478400D01*
X217271600Y-68478400D02*
X217932000Y-68478400D01*
X212496400Y-68478400D02*
X213664800Y-68478400D01*
X213664800Y-68478400D02*
X217271600Y-68478400D01*
X208940400Y-64922400D02*
X212496400Y-68478400D01*
X204216000Y-64922400D02*
X208940400Y-64922400D01*
X207835500Y-80911700D02*
X206095600Y-79171800D01*
X206095600Y-79171800D02*
X206095600Y-78638400D01*
X209702400Y-61874400D02*
X206146400Y-61874400D01*
X206146400Y-61874400D02*
X204470000Y-60198000D01*
X212699600Y-64871600D02*
X209702400Y-61874400D01*
X215036400Y-64871600D02*
X212699600Y-64871600D01*
D26*
X200507600Y-47142400D02*
X197866000Y-49784000D01*
X197866000Y-49784000D02*
X197783438Y-49784000D01*
D25*
X208051400Y-73202800D02*
X208051400Y-69291200D01*
X205359000Y-73579200D02*
X205359000Y-73977500D01*
X205359000Y-73977500D02*
X205486000Y-74104500D01*
X207518000Y-71420200D02*
X205359000Y-73579200D01*
X209245200Y-72567800D02*
X209245200Y-79336900D01*
X209245200Y-79336900D02*
X209143600Y-79438500D01*
X203581000Y-79324200D02*
X201282300Y-79324200D01*
X201282300Y-79324200D02*
X200660000Y-79946500D01*
X206933800Y-75971400D02*
X203581000Y-79324200D01*
X200660000Y-82677000D02*
X202438000Y-84455000D01*
X202438000Y-84455000D02*
X207899000Y-84455000D01*
X200660000Y-79946500D02*
X200660000Y-82677000D01*
X206438501Y-77279499D02*
X203784200Y-79933800D01*
X203784200Y-79933800D02*
X203454000Y-79933800D01*
X206890856Y-76936600D02*
X206547957Y-77279499D01*
X206547957Y-77279499D02*
X206438501Y-77279499D01*
X211124800Y-74168000D02*
X211124800Y-77863700D01*
X211124800Y-77863700D02*
X210058000Y-78930500D01*
X214223600Y-71069200D02*
X211124800Y-74168000D01*
X231470200Y-68148200D02*
X232333800Y-69011800D01*
X232333800Y-69011800D02*
X234035600Y-69011800D01*
X231470200Y-67132200D02*
X231470200Y-68148200D01*
X230682800Y-66344800D02*
X231470200Y-67132200D01*
X228828600Y-66344800D02*
X230682800Y-66344800D01*
X228447600Y-66725800D02*
X228828600Y-66344800D01*
X228447600Y-67284600D02*
X228447600Y-66725800D01*
X227164899Y-68567301D02*
X228447600Y-67284600D01*
X226060000Y-68910200D02*
X226402899Y-68567301D01*
X226402899Y-68567301D02*
X227164899Y-68567301D01*
X229260400Y-68954156D02*
X229483154Y-69176910D01*
X229362000Y-69298064D02*
X229483154Y-69176910D01*
X229362000Y-75031600D02*
X229362000Y-69298064D01*
X229260400Y-67310000D02*
X229260400Y-68954156D01*
X221276563Y-71475600D02*
X221322890Y-71429273D01*
X216966800Y-71475600D02*
X221276563Y-71475600D01*
X215678808Y-71424800D02*
X217672709Y-69430899D01*
X222964704Y-69854780D02*
X223307603Y-70197679D01*
X222210233Y-69100309D02*
X222964704Y-69854780D01*
X227330000Y-75031600D02*
X227330000Y-70361481D01*
X221543454Y-69430899D02*
X221874044Y-69100309D01*
X217672709Y-69430899D02*
X221543454Y-69430899D01*
X221874044Y-69100309D02*
X222210233Y-69100309D01*
X227330000Y-70361481D02*
X227572877Y-70118604D01*
X230022400Y-67729090D02*
X230022400Y-69639693D01*
X227572877Y-70118604D02*
X227915776Y-69775705D01*
X230022400Y-69639693D02*
X230022833Y-69640126D01*
X222564765Y-68820898D02*
X223113600Y-69369733D01*
X215978533Y-70307200D02*
X217312046Y-68973687D01*
X221758309Y-68820898D02*
X222564765Y-68820898D01*
X221605520Y-68973687D02*
X221758309Y-68820898D01*
X215493600Y-70307200D02*
X215978533Y-70307200D01*
X217312046Y-68973687D02*
X221605520Y-68973687D01*
X223496933Y-69369733D02*
X224536000Y-70408800D01*
X224536000Y-70408800D02*
X224536000Y-71069200D01*
X223113600Y-69369733D02*
X223496933Y-69369733D01*
X224536000Y-71069200D02*
X224536000Y-71323200D01*
X224536000Y-74930000D02*
X224840800Y-75234800D01*
X224536000Y-71069200D02*
X224536000Y-74930000D01*
X223113600Y-69369733D02*
X223242933Y-69369733D01*
X213868000Y-67081400D02*
X214096600Y-67081400D01*
X214096600Y-67081400D02*
X214249000Y-66929000D01*
X215138000Y-66040000D02*
X214249000Y-66929000D01*
X216154000Y-66040000D02*
X216027000Y-66040000D01*
X216027000Y-66040000D02*
X215138000Y-66929000D01*
X225983800Y-78155800D02*
X224078800Y-80060800D01*
X224078800Y-80060800D02*
X223824800Y-80060800D01*
X225983800Y-72085200D02*
X225983800Y-78155800D01*
X217373200Y-61798200D02*
X216865200Y-62306200D01*
X216865200Y-62306200D02*
X216783372Y-62388028D01*
X216585800Y-62585600D02*
X216865200Y-62306200D01*
X223596200Y-61798200D02*
X217373200Y-61798200D01*
X224383600Y-64947800D02*
X225577400Y-66141600D01*
X225577400Y-66141600D02*
X227101400Y-66141600D01*
X222250000Y-63195200D02*
X220294200Y-63195200D01*
X220294200Y-63195200D02*
X220218000Y-63271400D01*
X216687400Y-65024000D02*
X216687400Y-63804802D01*
X216687400Y-63804802D02*
X218020901Y-62471301D01*
X223075501Y-62471301D02*
X218020901Y-62471301D01*
X223418400Y-62814200D02*
X223075501Y-62471301D01*
X198831200Y-73355200D02*
X198831200Y-68884800D01*
X198831200Y-68884800D02*
X198882000Y-68834000D01*
X242874800Y-81559400D02*
X242874800Y-79806800D01*
X242874800Y-79806800D02*
X244500400Y-78181200D01*
X224078800Y-81991200D02*
X225856800Y-81991200D01*
X225856800Y-81991200D02*
X226009200Y-81838800D01*
X221818200Y-79730600D02*
X224078800Y-81991200D01*
X221818200Y-71016067D02*
X221818200Y-79730600D01*
X220728333Y-69926200D02*
X221818200Y-71016067D01*
X220243400Y-69926200D02*
X220728333Y-69926200D01*
X224993200Y-81432400D02*
X224256600Y-81432400D01*
X224256600Y-81432400D02*
X222316570Y-79492370D01*
X222316570Y-70403201D02*
X222316570Y-69918268D01*
X222316570Y-79492370D02*
X222316570Y-70403201D01*
G36*
X178558960Y-61853141D02*
X178409770Y-62212430D01*
X178409431Y-62601463D01*
X178557993Y-62961012D01*
X178832841Y-63236340D01*
X179192130Y-63385530D01*
X179287683Y-63385613D01*
X179552600Y-63650531D01*
X179552600Y-65647517D01*
X179486060Y-65713941D01*
X179336870Y-66073230D01*
X179336531Y-66462263D01*
X179485093Y-66821812D01*
X179759941Y-67097140D01*
X180119230Y-67246330D01*
X180508263Y-67246669D01*
X180867812Y-67098107D01*
X181143140Y-66823259D01*
X181292330Y-66463970D01*
X181292669Y-66074937D01*
X181144107Y-65715388D01*
X181076600Y-65647763D01*
X181076600Y-63334900D01*
X181018596Y-63043295D01*
X180963616Y-62961012D01*
X180853415Y-62796084D01*
X180365487Y-62308157D01*
X180365569Y-62214137D01*
X180217007Y-61854588D01*
X180084650Y-61722000D01*
X190373000Y-61722000D01*
X190373000Y-65405000D01*
X190383006Y-65454410D01*
X190411447Y-65496035D01*
X190453841Y-65523315D01*
X190500000Y-65532000D01*
X203442783Y-65532000D01*
X203661341Y-65750940D01*
X204020630Y-65900130D01*
X204409663Y-65900469D01*
X204769212Y-65751907D01*
X204836837Y-65684400D01*
X208624770Y-65684400D01*
X210693000Y-67752631D01*
X210693000Y-73522170D01*
X210585985Y-73629185D01*
X210420804Y-73876395D01*
X210362800Y-74168000D01*
X210362800Y-77548070D01*
X210007200Y-77903670D01*
X210007200Y-73188883D01*
X210073740Y-73122459D01*
X210222930Y-72763170D01*
X210223269Y-72374137D01*
X210074707Y-72014588D01*
X209799859Y-71739260D01*
X209440570Y-71590070D01*
X209051537Y-71589731D01*
X208813400Y-71688127D01*
X208813400Y-69912283D01*
X208879940Y-69845859D01*
X209029130Y-69486570D01*
X209029469Y-69097537D01*
X208880907Y-68737988D01*
X208606059Y-68462660D01*
X208246770Y-68313470D01*
X207857737Y-68313131D01*
X207498188Y-68461693D01*
X207222860Y-68736541D01*
X207073670Y-69095830D01*
X207073331Y-69484863D01*
X207221893Y-69844412D01*
X207289400Y-69912037D01*
X207289400Y-70456567D01*
X206964788Y-70590693D01*
X206689460Y-70865541D01*
X206540270Y-71224830D01*
X206540187Y-71320383D01*
X204820185Y-73040385D01*
X204655004Y-73287595D01*
X204597000Y-73579200D01*
X204597000Y-73695445D01*
X204508270Y-73909130D01*
X204507931Y-74298163D01*
X204656493Y-74657712D01*
X204931341Y-74933040D01*
X205290630Y-75082230D01*
X205679663Y-75082569D01*
X206039212Y-74934007D01*
X206314540Y-74659159D01*
X206463730Y-74299870D01*
X206464069Y-73910837D01*
X206359082Y-73656748D01*
X207120018Y-72895812D01*
X207073670Y-73007430D01*
X207073331Y-73396463D01*
X207221893Y-73756012D01*
X207496741Y-74031340D01*
X207856030Y-74180530D01*
X208245063Y-74180869D01*
X208483200Y-74082473D01*
X208483200Y-78715994D01*
X208315060Y-78883841D01*
X208165870Y-79243130D01*
X208165531Y-79632163D01*
X208314093Y-79991712D01*
X208588941Y-80267040D01*
X208948230Y-80416230D01*
X209337263Y-80416569D01*
X209696812Y-80268007D01*
X209972140Y-79993159D01*
X210007353Y-79908356D01*
X210251663Y-79908569D01*
X210611212Y-79760007D01*
X210693000Y-79678362D01*
X210693000Y-92113100D01*
X209475012Y-92113100D01*
X208030117Y-90668205D01*
X207770546Y-90494765D01*
X207464361Y-90433861D01*
X207067078Y-90433861D01*
X207038688Y-90405421D01*
X206679399Y-90256231D01*
X206290366Y-90255892D01*
X205930817Y-90404454D01*
X205655489Y-90679302D01*
X205506299Y-91038591D01*
X205505960Y-91427624D01*
X205654522Y-91787173D01*
X205929370Y-92062501D01*
X206288659Y-92211691D01*
X206677692Y-92212030D01*
X207037241Y-92063468D01*
X207066699Y-92034061D01*
X207132949Y-92034061D01*
X208577844Y-93478956D01*
X208837415Y-93652396D01*
X209143600Y-93713300D01*
X210693000Y-93713300D01*
X210693000Y-97663000D01*
X170017022Y-97663000D01*
X169581389Y-97601038D01*
X168970551Y-97239858D01*
X168544425Y-96672412D01*
X168524811Y-96596048D01*
X168521744Y-95721846D01*
X202406817Y-95721846D01*
X202675612Y-96307279D01*
X203147982Y-96745285D01*
X203629856Y-96944875D01*
X203885800Y-96825736D01*
X203885800Y-95465900D01*
X202525433Y-95465900D01*
X202406817Y-95721846D01*
X168521744Y-95721846D01*
X168493710Y-87731924D01*
X175127560Y-87731924D01*
X175276122Y-88091473D01*
X175550970Y-88366801D01*
X175910259Y-88515991D01*
X176005812Y-88516074D01*
X176303414Y-88813677D01*
X176303417Y-88813679D01*
X177128925Y-89639187D01*
X177376135Y-89804368D01*
X177667740Y-89862372D01*
X182366718Y-89862372D01*
X182658323Y-89804368D01*
X182905533Y-89639187D01*
X183825273Y-88719448D01*
X183919292Y-88719530D01*
X184278841Y-88570968D01*
X184554169Y-88296120D01*
X184703359Y-87936831D01*
X184703360Y-87935124D01*
X184779560Y-87935124D01*
X184928122Y-88294673D01*
X185202970Y-88570001D01*
X185562259Y-88719191D01*
X185951292Y-88719530D01*
X186310841Y-88570968D01*
X186586169Y-88296120D01*
X186735359Y-87936831D01*
X186735405Y-87884000D01*
X195534333Y-87884000D01*
X195420655Y-88455500D01*
X195534729Y-89028989D01*
X195859585Y-89515170D01*
X196174366Y-89725500D01*
X195859585Y-89935830D01*
X195534729Y-90422011D01*
X195420655Y-90995500D01*
X195534729Y-91568989D01*
X195859585Y-92055170D01*
X195873913Y-92064743D01*
X195852683Y-92068738D01*
X195636559Y-92207810D01*
X195491569Y-92420010D01*
X195440560Y-92671900D01*
X195440560Y-94399100D01*
X195484838Y-94634417D01*
X195623910Y-94850541D01*
X195836110Y-94995531D01*
X196088000Y-95046540D01*
X198120000Y-95046540D01*
X198355317Y-95002262D01*
X198427281Y-94955954D01*
X202406817Y-94955954D01*
X202525433Y-95211900D01*
X203885800Y-95211900D01*
X203885800Y-93852064D01*
X204139800Y-93852064D01*
X204139800Y-95211900D01*
X204159800Y-95211900D01*
X204159800Y-95465900D01*
X204139800Y-95465900D01*
X204139800Y-96825736D01*
X204395744Y-96944875D01*
X204877618Y-96745285D01*
X204975198Y-96654803D01*
X205072710Y-96806341D01*
X205284910Y-96951331D01*
X205536800Y-97002340D01*
X207568800Y-97002340D01*
X207804117Y-96958062D01*
X208020241Y-96818990D01*
X208165231Y-96606790D01*
X208216240Y-96354900D01*
X208216240Y-94322900D01*
X208171962Y-94087583D01*
X208032890Y-93871459D01*
X207820690Y-93726469D01*
X207568800Y-93675460D01*
X205536800Y-93675460D01*
X205301483Y-93719738D01*
X205085359Y-93858810D01*
X204973960Y-94021848D01*
X204877618Y-93932515D01*
X204395744Y-93732925D01*
X204139800Y-93852064D01*
X203885800Y-93852064D01*
X203629856Y-93732925D01*
X203147982Y-93932515D01*
X202675612Y-94370521D01*
X202406817Y-94955954D01*
X198427281Y-94955954D01*
X198571441Y-94863190D01*
X198716431Y-94650990D01*
X198767440Y-94399100D01*
X198767440Y-92671900D01*
X198723162Y-92436583D01*
X198584090Y-92220459D01*
X198371890Y-92075469D01*
X198330561Y-92067100D01*
X198348415Y-92055170D01*
X198673271Y-91568989D01*
X198787345Y-90995500D01*
X198673271Y-90422011D01*
X198348415Y-89935830D01*
X198033634Y-89725500D01*
X198348415Y-89515170D01*
X198673271Y-89028989D01*
X198765778Y-88563927D01*
X198771841Y-88570001D01*
X199131130Y-88719191D01*
X199520163Y-88719530D01*
X199879712Y-88570968D01*
X199947337Y-88503461D01*
X205709185Y-88503461D01*
X205709160Y-88532024D01*
X205857722Y-88891573D01*
X206132570Y-89166901D01*
X206491859Y-89316091D01*
X206880892Y-89316430D01*
X207240441Y-89167868D01*
X207515769Y-88893020D01*
X207664959Y-88533731D01*
X207665298Y-88144698D01*
X207516736Y-87785149D01*
X207321354Y-87589425D01*
X207293539Y-87547798D01*
X207226045Y-87446785D01*
X206981905Y-87202646D01*
X206861210Y-87122000D01*
X206734695Y-87037465D01*
X206443090Y-86979461D01*
X199947583Y-86979461D01*
X199881159Y-86912921D01*
X199521870Y-86763731D01*
X199426317Y-86763648D01*
X199245854Y-86583185D01*
X199104880Y-86488989D01*
X198998644Y-86418004D01*
X198707039Y-86360000D01*
X198698928Y-86360000D01*
X198787345Y-85915500D01*
X198673271Y-85342011D01*
X198348415Y-84855830D01*
X198033634Y-84645500D01*
X198348415Y-84435170D01*
X198673271Y-83948989D01*
X198787345Y-83375500D01*
X198673271Y-82802011D01*
X198348415Y-82315830D01*
X198038931Y-82109039D01*
X198454732Y-81737536D01*
X198708709Y-81210291D01*
X198711358Y-81194526D01*
X198590217Y-80962500D01*
X197231000Y-80962500D01*
X197231000Y-80982500D01*
X196977000Y-80982500D01*
X196977000Y-80962500D01*
X195617783Y-80962500D01*
X195496642Y-81194526D01*
X195499291Y-81210291D01*
X195753268Y-81737536D01*
X196169069Y-82109039D01*
X195859585Y-82315830D01*
X195534729Y-82802011D01*
X195420655Y-83375500D01*
X195534729Y-83948989D01*
X195859585Y-84435170D01*
X196174366Y-84645500D01*
X195859585Y-84855830D01*
X195534729Y-85342011D01*
X195420655Y-85915500D01*
X195509072Y-86360000D01*
X186377090Y-86360000D01*
X186085485Y-86418004D01*
X185838275Y-86583185D01*
X185657986Y-86763474D01*
X185563966Y-86763392D01*
X185204417Y-86911954D01*
X184929089Y-87186802D01*
X184779899Y-87546091D01*
X184779560Y-87935124D01*
X184703360Y-87935124D01*
X184703698Y-87547798D01*
X184555136Y-87188249D01*
X184280288Y-86912921D01*
X183920999Y-86763731D01*
X183531966Y-86763392D01*
X183172417Y-86911954D01*
X182897089Y-87186802D01*
X182747899Y-87546091D01*
X182747816Y-87641644D01*
X182051088Y-88338372D01*
X177983370Y-88338372D01*
X177381047Y-87736049D01*
X177381045Y-87736046D01*
X177083616Y-87438617D01*
X177083698Y-87344598D01*
X176935136Y-86985049D01*
X176660288Y-86709721D01*
X176300999Y-86560531D01*
X175911966Y-86560192D01*
X175552417Y-86708754D01*
X175277089Y-86983602D01*
X175127899Y-87342891D01*
X175127560Y-87731924D01*
X168493710Y-87731924D01*
X168467474Y-80254463D01*
X179514331Y-80254463D01*
X179654869Y-80594593D01*
X179514670Y-80932230D01*
X179514331Y-81321263D01*
X179662893Y-81680812D01*
X179937741Y-81956140D01*
X180297030Y-82105330D01*
X180686063Y-82105669D01*
X181045612Y-81957107D01*
X181320940Y-81682259D01*
X181470130Y-81322970D01*
X181470469Y-80933937D01*
X181329931Y-80593807D01*
X181378651Y-80476474D01*
X195496642Y-80476474D01*
X195617783Y-80708500D01*
X196977000Y-80708500D01*
X196977000Y-79494576D01*
X197231000Y-79494576D01*
X197231000Y-80708500D01*
X198590217Y-80708500D01*
X198711358Y-80476474D01*
X198708709Y-80460709D01*
X198554301Y-80140163D01*
X199681931Y-80140163D01*
X199830493Y-80499712D01*
X199898000Y-80567337D01*
X199898000Y-82677000D01*
X199956004Y-82968605D01*
X200121185Y-83215815D01*
X201899185Y-84993816D01*
X202047377Y-85092834D01*
X202146395Y-85158996D01*
X202438000Y-85217000D01*
X207277917Y-85217000D01*
X207344341Y-85283540D01*
X207703630Y-85432730D01*
X208092663Y-85433069D01*
X208452212Y-85284507D01*
X208727540Y-85009659D01*
X208876730Y-84650370D01*
X208877069Y-84261337D01*
X208728507Y-83901788D01*
X208453659Y-83626460D01*
X208094370Y-83477270D01*
X207705337Y-83476931D01*
X207345788Y-83625493D01*
X207278163Y-83693000D01*
X202753631Y-83693000D01*
X201422000Y-82361370D01*
X201422000Y-80567583D01*
X201488540Y-80501159D01*
X201637730Y-80141870D01*
X201637779Y-80086200D01*
X202475967Y-80086200D01*
X202475931Y-80127463D01*
X202624493Y-80487012D01*
X202899341Y-80762340D01*
X203258630Y-80911530D01*
X203647663Y-80911869D01*
X204007212Y-80763307D01*
X204248607Y-80522333D01*
X204323015Y-80472615D01*
X205381752Y-79413878D01*
X205391604Y-79463405D01*
X205505924Y-79634496D01*
X205556785Y-79710615D01*
X206857513Y-81011343D01*
X206857431Y-81105363D01*
X207005993Y-81464912D01*
X207280841Y-81740240D01*
X207640130Y-81889430D01*
X208029163Y-81889769D01*
X208388712Y-81741207D01*
X208664040Y-81466359D01*
X208813230Y-81107070D01*
X208813569Y-80718037D01*
X208665007Y-80358488D01*
X208390159Y-80083160D01*
X208030870Y-79933970D01*
X207935317Y-79933887D01*
X207003462Y-79002032D01*
X207073330Y-78833770D01*
X207073669Y-78444737D01*
X206925107Y-78085188D01*
X206826237Y-77986145D01*
X206839562Y-77983495D01*
X206942752Y-77914545D01*
X207084519Y-77914669D01*
X207444068Y-77766107D01*
X207719396Y-77491259D01*
X207868586Y-77131970D01*
X207868925Y-76742937D01*
X207770848Y-76505571D01*
X207911530Y-76166770D01*
X207911869Y-75777737D01*
X207763307Y-75418188D01*
X207488459Y-75142860D01*
X207129170Y-74993670D01*
X206740137Y-74993331D01*
X206380588Y-75141893D01*
X206105260Y-75416741D01*
X205956070Y-75776030D01*
X205955987Y-75871582D01*
X203265370Y-78562200D01*
X201282300Y-78562200D01*
X200990695Y-78620204D01*
X200743485Y-78785385D01*
X200560357Y-78968513D01*
X200466337Y-78968431D01*
X200106788Y-79116993D01*
X199831460Y-79391841D01*
X199682270Y-79751130D01*
X199681931Y-80140163D01*
X198554301Y-80140163D01*
X198454732Y-79933464D01*
X198018320Y-79543546D01*
X197465913Y-79350316D01*
X197231000Y-79494576D01*
X196977000Y-79494576D01*
X196742087Y-79350316D01*
X196189680Y-79543546D01*
X195753268Y-79933464D01*
X195499291Y-80460709D01*
X195496642Y-80476474D01*
X181378651Y-80476474D01*
X181470130Y-80256170D01*
X181470469Y-79867137D01*
X181321907Y-79507588D01*
X181047059Y-79232260D01*
X180687770Y-79083070D01*
X180298737Y-79082731D01*
X179939188Y-79231293D01*
X179663860Y-79506141D01*
X179514670Y-79865430D01*
X179514331Y-80254463D01*
X168467474Y-80254463D01*
X168446440Y-74260063D01*
X169151131Y-74260063D01*
X169299693Y-74619612D01*
X169574541Y-74894940D01*
X169933830Y-75044130D01*
X170322863Y-75044469D01*
X170682412Y-74895907D01*
X170957740Y-74621059D01*
X171106930Y-74261770D01*
X171106931Y-74260063D01*
X173367531Y-74260063D01*
X173516093Y-74619612D01*
X173790941Y-74894940D01*
X174150230Y-75044130D01*
X174539263Y-75044469D01*
X174898812Y-74895907D01*
X174966437Y-74828400D01*
X179059170Y-74828400D01*
X180022490Y-75791721D01*
X180022490Y-76506017D01*
X179955950Y-76572441D01*
X179806760Y-76931730D01*
X179806421Y-77320763D01*
X179954983Y-77680312D01*
X180229831Y-77955640D01*
X180589120Y-78104830D01*
X180978153Y-78105169D01*
X181337702Y-77956607D01*
X181613030Y-77681759D01*
X181762220Y-77322470D01*
X181762559Y-76933437D01*
X181613997Y-76573888D01*
X181546490Y-76506263D01*
X181546490Y-75476090D01*
X181488486Y-75184485D01*
X181420161Y-75082230D01*
X181323306Y-74937275D01*
X179934894Y-73548863D01*
X197853131Y-73548863D01*
X198001693Y-73908412D01*
X198276541Y-74183740D01*
X198635830Y-74332930D01*
X199024863Y-74333269D01*
X199384412Y-74184707D01*
X199659740Y-73909859D01*
X199808930Y-73550570D01*
X199809269Y-73161537D01*
X199660707Y-72801988D01*
X199593200Y-72734363D01*
X199593200Y-69505794D01*
X199710540Y-69388659D01*
X199859730Y-69029370D01*
X199860069Y-68640337D01*
X199711507Y-68280788D01*
X199436659Y-68005460D01*
X199077370Y-67856270D01*
X198688337Y-67855931D01*
X198328788Y-68004493D01*
X198053460Y-68279341D01*
X197904270Y-68638630D01*
X197903931Y-69027663D01*
X198052493Y-69387212D01*
X198069200Y-69403948D01*
X198069200Y-72734117D01*
X198002660Y-72800541D01*
X197853470Y-73159830D01*
X197853131Y-73548863D01*
X179934894Y-73548863D01*
X179913615Y-73527585D01*
X179863958Y-73494405D01*
X179666405Y-73362404D01*
X179374800Y-73304400D01*
X174966683Y-73304400D01*
X174900259Y-73237860D01*
X174540970Y-73088670D01*
X174151937Y-73088331D01*
X173792388Y-73236893D01*
X173517060Y-73511741D01*
X173367870Y-73871030D01*
X173367531Y-74260063D01*
X171106931Y-74260063D01*
X171107269Y-73872737D01*
X170958707Y-73513188D01*
X170683859Y-73237860D01*
X170324570Y-73088670D01*
X169935537Y-73088331D01*
X169575988Y-73236893D01*
X169300660Y-73511741D01*
X169151470Y-73871030D01*
X169151131Y-74260063D01*
X168446440Y-74260063D01*
X168419703Y-66640063D01*
X175653531Y-66640063D01*
X175802093Y-66999612D01*
X175869600Y-67067237D01*
X175869600Y-68433562D01*
X175833258Y-68469841D01*
X175684068Y-68829130D01*
X175683729Y-69218163D01*
X175832291Y-69577712D01*
X176107139Y-69853040D01*
X176466428Y-70002230D01*
X176855461Y-70002569D01*
X177215010Y-69854007D01*
X177490338Y-69579159D01*
X177639528Y-69219870D01*
X177639867Y-68830837D01*
X177491305Y-68471288D01*
X177393600Y-68373412D01*
X177393600Y-67402063D01*
X193331931Y-67402063D01*
X193480493Y-67761612D01*
X193755341Y-68036940D01*
X194114630Y-68186130D01*
X194503663Y-68186469D01*
X194863212Y-68037907D01*
X195138540Y-67763059D01*
X195287730Y-67403770D01*
X195288069Y-67014737D01*
X195139507Y-66655188D01*
X194864659Y-66379860D01*
X194505370Y-66230670D01*
X194116337Y-66230331D01*
X193756788Y-66378893D01*
X193481460Y-66653741D01*
X193332270Y-67013030D01*
X193331931Y-67402063D01*
X177393600Y-67402063D01*
X177393600Y-67067483D01*
X177460140Y-67001059D01*
X177609330Y-66641770D01*
X177609669Y-66252737D01*
X177461107Y-65893188D01*
X177186259Y-65617860D01*
X176826970Y-65468670D01*
X176437937Y-65468331D01*
X176078388Y-65616893D01*
X175803060Y-65891741D01*
X175653870Y-66251030D01*
X175653531Y-66640063D01*
X168419703Y-66640063D01*
X168402446Y-61722000D01*
X178690330Y-61722000D01*
X178558960Y-61853141D01*
X178558960Y-61853141D01*
G37*
X178558960Y-61853141D02*
X178409770Y-62212430D01*
X178409431Y-62601463D01*
X178557993Y-62961012D01*
X178832841Y-63236340D01*
X179192130Y-63385530D01*
X179287683Y-63385613D01*
X179552600Y-63650531D01*
X179552600Y-65647517D01*
X179486060Y-65713941D01*
X179336870Y-66073230D01*
X179336531Y-66462263D01*
X179485093Y-66821812D01*
X179759941Y-67097140D01*
X180119230Y-67246330D01*
X180508263Y-67246669D01*
X180867812Y-67098107D01*
X181143140Y-66823259D01*
X181292330Y-66463970D01*
X181292669Y-66074937D01*
X181144107Y-65715388D01*
X181076600Y-65647763D01*
X181076600Y-63334900D01*
X181018596Y-63043295D01*
X180963616Y-62961012D01*
X180853415Y-62796084D01*
X180365487Y-62308157D01*
X180365569Y-62214137D01*
X180217007Y-61854588D01*
X180084650Y-61722000D01*
X190373000Y-61722000D01*
X190373000Y-65405000D01*
X190383006Y-65454410D01*
X190411447Y-65496035D01*
X190453841Y-65523315D01*
X190500000Y-65532000D01*
X203442783Y-65532000D01*
X203661341Y-65750940D01*
X204020630Y-65900130D01*
X204409663Y-65900469D01*
X204769212Y-65751907D01*
X204836837Y-65684400D01*
X208624770Y-65684400D01*
X210693000Y-67752631D01*
X210693000Y-73522170D01*
X210585985Y-73629185D01*
X210420804Y-73876395D01*
X210362800Y-74168000D01*
X210362800Y-77548070D01*
X210007200Y-77903670D01*
X210007200Y-73188883D01*
X210073740Y-73122459D01*
X210222930Y-72763170D01*
X210223269Y-72374137D01*
X210074707Y-72014588D01*
X209799859Y-71739260D01*
X209440570Y-71590070D01*
X209051537Y-71589731D01*
X208813400Y-71688127D01*
X208813400Y-69912283D01*
X208879940Y-69845859D01*
X209029130Y-69486570D01*
X209029469Y-69097537D01*
X208880907Y-68737988D01*
X208606059Y-68462660D01*
X208246770Y-68313470D01*
X207857737Y-68313131D01*
X207498188Y-68461693D01*
X207222860Y-68736541D01*
X207073670Y-69095830D01*
X207073331Y-69484863D01*
X207221893Y-69844412D01*
X207289400Y-69912037D01*
X207289400Y-70456567D01*
X206964788Y-70590693D01*
X206689460Y-70865541D01*
X206540270Y-71224830D01*
X206540187Y-71320383D01*
X204820185Y-73040385D01*
X204655004Y-73287595D01*
X204597000Y-73579200D01*
X204597000Y-73695445D01*
X204508270Y-73909130D01*
X204507931Y-74298163D01*
X204656493Y-74657712D01*
X204931341Y-74933040D01*
X205290630Y-75082230D01*
X205679663Y-75082569D01*
X206039212Y-74934007D01*
X206314540Y-74659159D01*
X206463730Y-74299870D01*
X206464069Y-73910837D01*
X206359082Y-73656748D01*
X207120018Y-72895812D01*
X207073670Y-73007430D01*
X207073331Y-73396463D01*
X207221893Y-73756012D01*
X207496741Y-74031340D01*
X207856030Y-74180530D01*
X208245063Y-74180869D01*
X208483200Y-74082473D01*
X208483200Y-78715994D01*
X208315060Y-78883841D01*
X208165870Y-79243130D01*
X208165531Y-79632163D01*
X208314093Y-79991712D01*
X208588941Y-80267040D01*
X208948230Y-80416230D01*
X209337263Y-80416569D01*
X209696812Y-80268007D01*
X209972140Y-79993159D01*
X210007353Y-79908356D01*
X210251663Y-79908569D01*
X210611212Y-79760007D01*
X210693000Y-79678362D01*
X210693000Y-92113100D01*
X209475012Y-92113100D01*
X208030117Y-90668205D01*
X207770546Y-90494765D01*
X207464361Y-90433861D01*
X207067078Y-90433861D01*
X207038688Y-90405421D01*
X206679399Y-90256231D01*
X206290366Y-90255892D01*
X205930817Y-90404454D01*
X205655489Y-90679302D01*
X205506299Y-91038591D01*
X205505960Y-91427624D01*
X205654522Y-91787173D01*
X205929370Y-92062501D01*
X206288659Y-92211691D01*
X206677692Y-92212030D01*
X207037241Y-92063468D01*
X207066699Y-92034061D01*
X207132949Y-92034061D01*
X208577844Y-93478956D01*
X208837415Y-93652396D01*
X209143600Y-93713300D01*
X210693000Y-93713300D01*
X210693000Y-97663000D01*
X170017022Y-97663000D01*
X169581389Y-97601038D01*
X168970551Y-97239858D01*
X168544425Y-96672412D01*
X168524811Y-96596048D01*
X168521744Y-95721846D01*
X202406817Y-95721846D01*
X202675612Y-96307279D01*
X203147982Y-96745285D01*
X203629856Y-96944875D01*
X203885800Y-96825736D01*
X203885800Y-95465900D01*
X202525433Y-95465900D01*
X202406817Y-95721846D01*
X168521744Y-95721846D01*
X168493710Y-87731924D01*
X175127560Y-87731924D01*
X175276122Y-88091473D01*
X175550970Y-88366801D01*
X175910259Y-88515991D01*
X176005812Y-88516074D01*
X176303414Y-88813677D01*
X176303417Y-88813679D01*
X177128925Y-89639187D01*
X177376135Y-89804368D01*
X177667740Y-89862372D01*
X182366718Y-89862372D01*
X182658323Y-89804368D01*
X182905533Y-89639187D01*
X183825273Y-88719448D01*
X183919292Y-88719530D01*
X184278841Y-88570968D01*
X184554169Y-88296120D01*
X184703359Y-87936831D01*
X184703360Y-87935124D01*
X184779560Y-87935124D01*
X184928122Y-88294673D01*
X185202970Y-88570001D01*
X185562259Y-88719191D01*
X185951292Y-88719530D01*
X186310841Y-88570968D01*
X186586169Y-88296120D01*
X186735359Y-87936831D01*
X186735405Y-87884000D01*
X195534333Y-87884000D01*
X195420655Y-88455500D01*
X195534729Y-89028989D01*
X195859585Y-89515170D01*
X196174366Y-89725500D01*
X195859585Y-89935830D01*
X195534729Y-90422011D01*
X195420655Y-90995500D01*
X195534729Y-91568989D01*
X195859585Y-92055170D01*
X195873913Y-92064743D01*
X195852683Y-92068738D01*
X195636559Y-92207810D01*
X195491569Y-92420010D01*
X195440560Y-92671900D01*
X195440560Y-94399100D01*
X195484838Y-94634417D01*
X195623910Y-94850541D01*
X195836110Y-94995531D01*
X196088000Y-95046540D01*
X198120000Y-95046540D01*
X198355317Y-95002262D01*
X198427281Y-94955954D01*
X202406817Y-94955954D01*
X202525433Y-95211900D01*
X203885800Y-95211900D01*
X203885800Y-93852064D01*
X204139800Y-93852064D01*
X204139800Y-95211900D01*
X204159800Y-95211900D01*
X204159800Y-95465900D01*
X204139800Y-95465900D01*
X204139800Y-96825736D01*
X204395744Y-96944875D01*
X204877618Y-96745285D01*
X204975198Y-96654803D01*
X205072710Y-96806341D01*
X205284910Y-96951331D01*
X205536800Y-97002340D01*
X207568800Y-97002340D01*
X207804117Y-96958062D01*
X208020241Y-96818990D01*
X208165231Y-96606790D01*
X208216240Y-96354900D01*
X208216240Y-94322900D01*
X208171962Y-94087583D01*
X208032890Y-93871459D01*
X207820690Y-93726469D01*
X207568800Y-93675460D01*
X205536800Y-93675460D01*
X205301483Y-93719738D01*
X205085359Y-93858810D01*
X204973960Y-94021848D01*
X204877618Y-93932515D01*
X204395744Y-93732925D01*
X204139800Y-93852064D01*
X203885800Y-93852064D01*
X203629856Y-93732925D01*
X203147982Y-93932515D01*
X202675612Y-94370521D01*
X202406817Y-94955954D01*
X198427281Y-94955954D01*
X198571441Y-94863190D01*
X198716431Y-94650990D01*
X198767440Y-94399100D01*
X198767440Y-92671900D01*
X198723162Y-92436583D01*
X198584090Y-92220459D01*
X198371890Y-92075469D01*
X198330561Y-92067100D01*
X198348415Y-92055170D01*
X198673271Y-91568989D01*
X198787345Y-90995500D01*
X198673271Y-90422011D01*
X198348415Y-89935830D01*
X198033634Y-89725500D01*
X198348415Y-89515170D01*
X198673271Y-89028989D01*
X198765778Y-88563927D01*
X198771841Y-88570001D01*
X199131130Y-88719191D01*
X199520163Y-88719530D01*
X199879712Y-88570968D01*
X199947337Y-88503461D01*
X205709185Y-88503461D01*
X205709160Y-88532024D01*
X205857722Y-88891573D01*
X206132570Y-89166901D01*
X206491859Y-89316091D01*
X206880892Y-89316430D01*
X207240441Y-89167868D01*
X207515769Y-88893020D01*
X207664959Y-88533731D01*
X207665298Y-88144698D01*
X207516736Y-87785149D01*
X207321354Y-87589425D01*
X207293539Y-87547798D01*
X207226045Y-87446785D01*
X206981905Y-87202646D01*
X206861210Y-87122000D01*
X206734695Y-87037465D01*
X206443090Y-86979461D01*
X199947583Y-86979461D01*
X199881159Y-86912921D01*
X199521870Y-86763731D01*
X199426317Y-86763648D01*
X199245854Y-86583185D01*
X199104880Y-86488989D01*
X198998644Y-86418004D01*
X198707039Y-86360000D01*
X198698928Y-86360000D01*
X198787345Y-85915500D01*
X198673271Y-85342011D01*
X198348415Y-84855830D01*
X198033634Y-84645500D01*
X198348415Y-84435170D01*
X198673271Y-83948989D01*
X198787345Y-83375500D01*
X198673271Y-82802011D01*
X198348415Y-82315830D01*
X198038931Y-82109039D01*
X198454732Y-81737536D01*
X198708709Y-81210291D01*
X198711358Y-81194526D01*
X198590217Y-80962500D01*
X197231000Y-80962500D01*
X197231000Y-80982500D01*
X196977000Y-80982500D01*
X196977000Y-80962500D01*
X195617783Y-80962500D01*
X195496642Y-81194526D01*
X195499291Y-81210291D01*
X195753268Y-81737536D01*
X196169069Y-82109039D01*
X195859585Y-82315830D01*
X195534729Y-82802011D01*
X195420655Y-83375500D01*
X195534729Y-83948989D01*
X195859585Y-84435170D01*
X196174366Y-84645500D01*
X195859585Y-84855830D01*
X195534729Y-85342011D01*
X195420655Y-85915500D01*
X195509072Y-86360000D01*
X186377090Y-86360000D01*
X186085485Y-86418004D01*
X185838275Y-86583185D01*
X185657986Y-86763474D01*
X185563966Y-86763392D01*
X185204417Y-86911954D01*
X184929089Y-87186802D01*
X184779899Y-87546091D01*
X184779560Y-87935124D01*
X184703360Y-87935124D01*
X184703698Y-87547798D01*
X184555136Y-87188249D01*
X184280288Y-86912921D01*
X183920999Y-86763731D01*
X183531966Y-86763392D01*
X183172417Y-86911954D01*
X182897089Y-87186802D01*
X182747899Y-87546091D01*
X182747816Y-87641644D01*
X182051088Y-88338372D01*
X177983370Y-88338372D01*
X177381047Y-87736049D01*
X177381045Y-87736046D01*
X177083616Y-87438617D01*
X177083698Y-87344598D01*
X176935136Y-86985049D01*
X176660288Y-86709721D01*
X176300999Y-86560531D01*
X175911966Y-86560192D01*
X175552417Y-86708754D01*
X175277089Y-86983602D01*
X175127899Y-87342891D01*
X175127560Y-87731924D01*
X168493710Y-87731924D01*
X168467474Y-80254463D01*
X179514331Y-80254463D01*
X179654869Y-80594593D01*
X179514670Y-80932230D01*
X179514331Y-81321263D01*
X179662893Y-81680812D01*
X179937741Y-81956140D01*
X180297030Y-82105330D01*
X180686063Y-82105669D01*
X181045612Y-81957107D01*
X181320940Y-81682259D01*
X181470130Y-81322970D01*
X181470469Y-80933937D01*
X181329931Y-80593807D01*
X181378651Y-80476474D01*
X195496642Y-80476474D01*
X195617783Y-80708500D01*
X196977000Y-80708500D01*
X196977000Y-79494576D01*
X197231000Y-79494576D01*
X197231000Y-80708500D01*
X198590217Y-80708500D01*
X198711358Y-80476474D01*
X198708709Y-80460709D01*
X198554301Y-80140163D01*
X199681931Y-80140163D01*
X199830493Y-80499712D01*
X199898000Y-80567337D01*
X199898000Y-82677000D01*
X199956004Y-82968605D01*
X200121185Y-83215815D01*
X201899185Y-84993816D01*
X202047377Y-85092834D01*
X202146395Y-85158996D01*
X202438000Y-85217000D01*
X207277917Y-85217000D01*
X207344341Y-85283540D01*
X207703630Y-85432730D01*
X208092663Y-85433069D01*
X208452212Y-85284507D01*
X208727540Y-85009659D01*
X208876730Y-84650370D01*
X208877069Y-84261337D01*
X208728507Y-83901788D01*
X208453659Y-83626460D01*
X208094370Y-83477270D01*
X207705337Y-83476931D01*
X207345788Y-83625493D01*
X207278163Y-83693000D01*
X202753631Y-83693000D01*
X201422000Y-82361370D01*
X201422000Y-80567583D01*
X201488540Y-80501159D01*
X201637730Y-80141870D01*
X201637779Y-80086200D01*
X202475967Y-80086200D01*
X202475931Y-80127463D01*
X202624493Y-80487012D01*
X202899341Y-80762340D01*
X203258630Y-80911530D01*
X203647663Y-80911869D01*
X204007212Y-80763307D01*
X204248607Y-80522333D01*
X204323015Y-80472615D01*
X205381752Y-79413878D01*
X205391604Y-79463405D01*
X205505924Y-79634496D01*
X205556785Y-79710615D01*
X206857513Y-81011343D01*
X206857431Y-81105363D01*
X207005993Y-81464912D01*
X207280841Y-81740240D01*
X207640130Y-81889430D01*
X208029163Y-81889769D01*
X208388712Y-81741207D01*
X208664040Y-81466359D01*
X208813230Y-81107070D01*
X208813569Y-80718037D01*
X208665007Y-80358488D01*
X208390159Y-80083160D01*
X208030870Y-79933970D01*
X207935317Y-79933887D01*
X207003462Y-79002032D01*
X207073330Y-78833770D01*
X207073669Y-78444737D01*
X206925107Y-78085188D01*
X206826237Y-77986145D01*
X206839562Y-77983495D01*
X206942752Y-77914545D01*
X207084519Y-77914669D01*
X207444068Y-77766107D01*
X207719396Y-77491259D01*
X207868586Y-77131970D01*
X207868925Y-76742937D01*
X207770848Y-76505571D01*
X207911530Y-76166770D01*
X207911869Y-75777737D01*
X207763307Y-75418188D01*
X207488459Y-75142860D01*
X207129170Y-74993670D01*
X206740137Y-74993331D01*
X206380588Y-75141893D01*
X206105260Y-75416741D01*
X205956070Y-75776030D01*
X205955987Y-75871582D01*
X203265370Y-78562200D01*
X201282300Y-78562200D01*
X200990695Y-78620204D01*
X200743485Y-78785385D01*
X200560357Y-78968513D01*
X200466337Y-78968431D01*
X200106788Y-79116993D01*
X199831460Y-79391841D01*
X199682270Y-79751130D01*
X199681931Y-80140163D01*
X198554301Y-80140163D01*
X198454732Y-79933464D01*
X198018320Y-79543546D01*
X197465913Y-79350316D01*
X197231000Y-79494576D01*
X196977000Y-79494576D01*
X196742087Y-79350316D01*
X196189680Y-79543546D01*
X195753268Y-79933464D01*
X195499291Y-80460709D01*
X195496642Y-80476474D01*
X181378651Y-80476474D01*
X181470130Y-80256170D01*
X181470469Y-79867137D01*
X181321907Y-79507588D01*
X181047059Y-79232260D01*
X180687770Y-79083070D01*
X180298737Y-79082731D01*
X179939188Y-79231293D01*
X179663860Y-79506141D01*
X179514670Y-79865430D01*
X179514331Y-80254463D01*
X168467474Y-80254463D01*
X168446440Y-74260063D01*
X169151131Y-74260063D01*
X169299693Y-74619612D01*
X169574541Y-74894940D01*
X169933830Y-75044130D01*
X170322863Y-75044469D01*
X170682412Y-74895907D01*
X170957740Y-74621059D01*
X171106930Y-74261770D01*
X171106931Y-74260063D01*
X173367531Y-74260063D01*
X173516093Y-74619612D01*
X173790941Y-74894940D01*
X174150230Y-75044130D01*
X174539263Y-75044469D01*
X174898812Y-74895907D01*
X174966437Y-74828400D01*
X179059170Y-74828400D01*
X180022490Y-75791721D01*
X180022490Y-76506017D01*
X179955950Y-76572441D01*
X179806760Y-76931730D01*
X179806421Y-77320763D01*
X179954983Y-77680312D01*
X180229831Y-77955640D01*
X180589120Y-78104830D01*
X180978153Y-78105169D01*
X181337702Y-77956607D01*
X181613030Y-77681759D01*
X181762220Y-77322470D01*
X181762559Y-76933437D01*
X181613997Y-76573888D01*
X181546490Y-76506263D01*
X181546490Y-75476090D01*
X181488486Y-75184485D01*
X181420161Y-75082230D01*
X181323306Y-74937275D01*
X179934894Y-73548863D01*
X197853131Y-73548863D01*
X198001693Y-73908412D01*
X198276541Y-74183740D01*
X198635830Y-74332930D01*
X199024863Y-74333269D01*
X199384412Y-74184707D01*
X199659740Y-73909859D01*
X199808930Y-73550570D01*
X199809269Y-73161537D01*
X199660707Y-72801988D01*
X199593200Y-72734363D01*
X199593200Y-69505794D01*
X199710540Y-69388659D01*
X199859730Y-69029370D01*
X199860069Y-68640337D01*
X199711507Y-68280788D01*
X199436659Y-68005460D01*
X199077370Y-67856270D01*
X198688337Y-67855931D01*
X198328788Y-68004493D01*
X198053460Y-68279341D01*
X197904270Y-68638630D01*
X197903931Y-69027663D01*
X198052493Y-69387212D01*
X198069200Y-69403948D01*
X198069200Y-72734117D01*
X198002660Y-72800541D01*
X197853470Y-73159830D01*
X197853131Y-73548863D01*
X179934894Y-73548863D01*
X179913615Y-73527585D01*
X179863958Y-73494405D01*
X179666405Y-73362404D01*
X179374800Y-73304400D01*
X174966683Y-73304400D01*
X174900259Y-73237860D01*
X174540970Y-73088670D01*
X174151937Y-73088331D01*
X173792388Y-73236893D01*
X173517060Y-73511741D01*
X173367870Y-73871030D01*
X173367531Y-74260063D01*
X171106931Y-74260063D01*
X171107269Y-73872737D01*
X170958707Y-73513188D01*
X170683859Y-73237860D01*
X170324570Y-73088670D01*
X169935537Y-73088331D01*
X169575988Y-73236893D01*
X169300660Y-73511741D01*
X169151470Y-73871030D01*
X169151131Y-74260063D01*
X168446440Y-74260063D01*
X168419703Y-66640063D01*
X175653531Y-66640063D01*
X175802093Y-66999612D01*
X175869600Y-67067237D01*
X175869600Y-68433562D01*
X175833258Y-68469841D01*
X175684068Y-68829130D01*
X175683729Y-69218163D01*
X175832291Y-69577712D01*
X176107139Y-69853040D01*
X176466428Y-70002230D01*
X176855461Y-70002569D01*
X177215010Y-69854007D01*
X177490338Y-69579159D01*
X177639528Y-69219870D01*
X177639867Y-68830837D01*
X177491305Y-68471288D01*
X177393600Y-68373412D01*
X177393600Y-67402063D01*
X193331931Y-67402063D01*
X193480493Y-67761612D01*
X193755341Y-68036940D01*
X194114630Y-68186130D01*
X194503663Y-68186469D01*
X194863212Y-68037907D01*
X195138540Y-67763059D01*
X195287730Y-67403770D01*
X195288069Y-67014737D01*
X195139507Y-66655188D01*
X194864659Y-66379860D01*
X194505370Y-66230670D01*
X194116337Y-66230331D01*
X193756788Y-66378893D01*
X193481460Y-66653741D01*
X193332270Y-67013030D01*
X193331931Y-67402063D01*
X177393600Y-67402063D01*
X177393600Y-67067483D01*
X177460140Y-67001059D01*
X177609330Y-66641770D01*
X177609669Y-66252737D01*
X177461107Y-65893188D01*
X177186259Y-65617860D01*
X176826970Y-65468670D01*
X176437937Y-65468331D01*
X176078388Y-65616893D01*
X175803060Y-65891741D01*
X175653870Y-66251030D01*
X175653531Y-66640063D01*
X168419703Y-66640063D01*
X168402446Y-61722000D01*
X178690330Y-61722000D01*
X178558960Y-61853141D01*
G36*
X170200000Y-42521200D02*
X245814951Y-42521200D01*
X246525942Y-42662624D01*
X247069309Y-43025691D01*
X247432375Y-43569056D01*
X247523000Y-44024659D01*
X247523000Y-96051833D01*
X247461038Y-96487466D01*
X247099858Y-97098304D01*
X246532412Y-97524430D01*
X245992908Y-97663000D01*
X211455000Y-97663000D01*
X211455000Y-94019312D01*
X214115044Y-96679356D01*
X214374615Y-96852796D01*
X214680800Y-96913700D01*
X238912400Y-96913700D01*
X239218585Y-96852796D01*
X239478156Y-96679356D01*
X242367878Y-93789634D01*
X242408063Y-93789669D01*
X242767612Y-93641107D01*
X243042940Y-93366259D01*
X243192130Y-93006970D01*
X243192469Y-92617937D01*
X243043907Y-92258388D01*
X242769059Y-91983060D01*
X242409770Y-91833870D01*
X242020737Y-91833531D01*
X241661188Y-91982093D01*
X241385860Y-92256941D01*
X241236670Y-92616230D01*
X241236634Y-92657854D01*
X238580988Y-95313500D01*
X215012212Y-95313500D01*
X212046156Y-92347444D01*
X211786585Y-92174004D01*
X211480400Y-92113100D01*
X211455000Y-92113100D01*
X211455000Y-78611130D01*
X211663615Y-78402515D01*
X211748838Y-78274970D01*
X211828796Y-78155305D01*
X211885234Y-77871572D01*
X211859712Y-79310706D01*
X211869026Y-79360747D01*
X211896889Y-79402761D01*
X213166889Y-80672761D01*
X213207282Y-80699952D01*
X213256692Y-80709958D01*
X221511692Y-80709958D01*
X221559481Y-80700624D01*
X221601495Y-80672761D01*
X221642113Y-80632143D01*
X223335865Y-82325895D01*
X222871800Y-82508643D01*
X222701167Y-82622657D01*
X222102954Y-83315549D01*
X226034600Y-87247195D01*
X226048743Y-87233053D01*
X226228348Y-87412658D01*
X226214205Y-87426800D01*
X230145851Y-91358446D01*
X230838743Y-90760233D01*
X231748699Y-88668024D01*
X231787160Y-86476591D01*
X231787160Y-89976800D01*
X231831438Y-90212117D01*
X231970510Y-90428241D01*
X232182710Y-90573231D01*
X232434600Y-90624240D01*
X232452929Y-90624240D01*
X230036970Y-93040200D01*
X227431926Y-93040200D01*
X229197400Y-92344957D01*
X229368033Y-92230943D01*
X229966246Y-91538051D01*
X226034600Y-87606405D01*
X222102954Y-91538051D01*
X222701167Y-92230943D01*
X224561845Y-93040200D01*
X220381230Y-93040200D01*
X219146600Y-91805570D01*
X219146600Y-90624240D01*
X219634600Y-90624240D01*
X219869917Y-90579962D01*
X220086041Y-90440890D01*
X220231031Y-90228690D01*
X220282040Y-89976800D01*
X220282040Y-88470748D01*
X221116443Y-90589600D01*
X221230457Y-90760233D01*
X221923349Y-91358446D01*
X225854995Y-87426800D01*
X221923349Y-83495154D01*
X221230457Y-84093367D01*
X220320501Y-86185576D01*
X220282040Y-88377009D01*
X220282040Y-84876800D01*
X220237762Y-84641483D01*
X220098690Y-84425359D01*
X219886490Y-84280369D01*
X219634600Y-84229360D01*
X217134600Y-84229360D01*
X216899283Y-84273638D01*
X216683159Y-84412710D01*
X216538169Y-84624910D01*
X216487160Y-84876800D01*
X216487160Y-89439985D01*
X216349370Y-89382770D01*
X215960337Y-89382431D01*
X215600788Y-89530993D01*
X215325460Y-89805841D01*
X215176270Y-90165130D01*
X215175931Y-90554163D01*
X215324493Y-90913712D01*
X215599341Y-91189040D01*
X215958630Y-91338230D01*
X216347663Y-91338569D01*
X216707212Y-91190007D01*
X216982540Y-90915159D01*
X217105765Y-90618401D01*
X217134600Y-90624240D01*
X217622600Y-90624240D01*
X217622600Y-92121200D01*
X217680604Y-92412805D01*
X217816529Y-92616230D01*
X217845785Y-92660015D01*
X219526785Y-94341015D01*
X219773995Y-94506196D01*
X220065600Y-94564200D01*
X230352600Y-94564200D01*
X230644205Y-94506196D01*
X230891415Y-94341015D01*
X232915730Y-92316700D01*
X234004960Y-92316700D01*
X234004960Y-94348700D01*
X234049238Y-94584017D01*
X234188310Y-94800141D01*
X234400510Y-94945131D01*
X234652400Y-94996140D01*
X236684400Y-94996140D01*
X236919717Y-94951862D01*
X237135841Y-94812790D01*
X237247240Y-94649752D01*
X237343582Y-94739085D01*
X237825456Y-94938675D01*
X238081400Y-94819536D01*
X238081400Y-93459700D01*
X238335400Y-93459700D01*
X238335400Y-94819536D01*
X238591344Y-94938675D01*
X239073218Y-94739085D01*
X239545588Y-94301079D01*
X239814383Y-93715646D01*
X239695767Y-93459700D01*
X238335400Y-93459700D01*
X238081400Y-93459700D01*
X238061400Y-93459700D01*
X238061400Y-93205700D01*
X238081400Y-93205700D01*
X238081400Y-91845864D01*
X238335400Y-91845864D01*
X238335400Y-93205700D01*
X239695767Y-93205700D01*
X239814383Y-92949754D01*
X239545588Y-92364321D01*
X239073218Y-91926315D01*
X238591344Y-91726725D01*
X238335400Y-91845864D01*
X238081400Y-91845864D01*
X237825456Y-91726725D01*
X237343582Y-91926315D01*
X237246002Y-92016797D01*
X237148490Y-91865259D01*
X236936290Y-91720269D01*
X236684400Y-91669260D01*
X234652400Y-91669260D01*
X234417083Y-91713538D01*
X234200959Y-91852610D01*
X234055969Y-92064810D01*
X234004960Y-92316700D01*
X232915730Y-92316700D01*
X234223416Y-91009015D01*
X234388597Y-90761804D01*
X234415960Y-90624240D01*
X234934600Y-90624240D01*
X235169917Y-90579962D01*
X235386041Y-90440890D01*
X235531031Y-90228690D01*
X235582040Y-89976800D01*
X235582040Y-86528954D01*
X235637757Y-86663800D01*
X236041077Y-87067824D01*
X236568309Y-87286750D01*
X237139187Y-87287248D01*
X237666800Y-87069243D01*
X238070824Y-86665923D01*
X238289750Y-86138691D01*
X238290248Y-85567813D01*
X238072243Y-85040200D01*
X237668923Y-84636176D01*
X237602456Y-84608577D01*
X237609005Y-84605864D01*
X237683139Y-84359745D01*
X236855000Y-83531605D01*
X236026861Y-84359745D01*
X236100995Y-84605864D01*
X236107483Y-84608196D01*
X236043200Y-84634757D01*
X235639176Y-85038077D01*
X235582040Y-85175676D01*
X235582040Y-84876800D01*
X235537762Y-84641483D01*
X235398690Y-84425359D01*
X235186490Y-84280369D01*
X234934600Y-84229360D01*
X232864790Y-84229360D01*
X231770653Y-83135223D01*
X235408035Y-83135223D01*
X235435222Y-83705454D01*
X235601136Y-84106005D01*
X235847255Y-84180139D01*
X236675395Y-83352000D01*
X237034605Y-83352000D01*
X237862745Y-84180139D01*
X238108864Y-84106005D01*
X238301965Y-83568777D01*
X238274778Y-82998546D01*
X238108864Y-82597995D01*
X237862745Y-82523861D01*
X237034605Y-83352000D01*
X236675395Y-83352000D01*
X235847255Y-82523861D01*
X235601136Y-82597995D01*
X235408035Y-83135223D01*
X231770653Y-83135223D01*
X231525461Y-82890031D01*
X231693212Y-82820718D01*
X231968540Y-82545870D01*
X232052257Y-82344255D01*
X236026861Y-82344255D01*
X236855000Y-83172395D01*
X237683139Y-82344255D01*
X237609005Y-82098136D01*
X237071777Y-81905035D01*
X236501546Y-81932222D01*
X236100995Y-82098136D01*
X236026861Y-82344255D01*
X232052257Y-82344255D01*
X232117730Y-82186581D01*
X232118069Y-81797548D01*
X232099689Y-81753063D01*
X241896731Y-81753063D01*
X242045293Y-82112612D01*
X242320141Y-82387940D01*
X242679430Y-82537130D01*
X243068463Y-82537469D01*
X243374815Y-82410888D01*
X243316771Y-82468830D01*
X243103643Y-82982100D01*
X243103158Y-83537861D01*
X243315390Y-84051503D01*
X243708030Y-84444829D01*
X243915912Y-84531149D01*
X243710097Y-84616190D01*
X243316771Y-85008830D01*
X243103643Y-85522100D01*
X243103158Y-86077861D01*
X243315390Y-86591503D01*
X243708030Y-86984829D01*
X243915912Y-87071149D01*
X243710097Y-87156190D01*
X243316771Y-87548830D01*
X243103643Y-88062100D01*
X243103158Y-88617861D01*
X243315390Y-89131503D01*
X243708030Y-89524829D01*
X243915912Y-89611149D01*
X243710097Y-89696190D01*
X243316771Y-90088830D01*
X243103643Y-90602100D01*
X243103158Y-91157861D01*
X243315390Y-91671503D01*
X243708030Y-92064829D01*
X244221300Y-92277957D01*
X244777061Y-92278442D01*
X245290703Y-92066210D01*
X245684029Y-91673570D01*
X245897157Y-91160300D01*
X245897642Y-90604539D01*
X245685410Y-90090897D01*
X245292770Y-89697571D01*
X245084888Y-89611251D01*
X245290703Y-89526210D01*
X245684029Y-89133570D01*
X245897157Y-88620300D01*
X245897642Y-88064539D01*
X245685410Y-87550897D01*
X245292770Y-87157571D01*
X245084888Y-87071251D01*
X245290703Y-86986210D01*
X245684029Y-86593570D01*
X245897157Y-86080300D01*
X245897642Y-85524539D01*
X245685410Y-85010897D01*
X245292770Y-84617571D01*
X245084888Y-84531251D01*
X245290703Y-84446210D01*
X245684029Y-84053570D01*
X245897157Y-83540300D01*
X245897642Y-82984539D01*
X245685410Y-82470897D01*
X245292770Y-82077571D01*
X245084888Y-81991251D01*
X245290703Y-81906210D01*
X245684029Y-81513570D01*
X245897157Y-81000300D01*
X245897642Y-80444539D01*
X245685410Y-79930897D01*
X245292770Y-79537571D01*
X245084888Y-79451251D01*
X245290703Y-79366210D01*
X245684029Y-78973570D01*
X245897157Y-78460300D01*
X245897642Y-77904539D01*
X245685410Y-77390897D01*
X245292770Y-76997571D01*
X245084888Y-76911251D01*
X245290703Y-76826210D01*
X245684029Y-76433570D01*
X245897157Y-75920300D01*
X245897642Y-75364539D01*
X245685410Y-74850897D01*
X245292770Y-74457571D01*
X245100673Y-74377805D01*
X245231543Y-74323597D01*
X245301008Y-74081413D01*
X244500400Y-73280805D01*
X243699792Y-74081413D01*
X243769257Y-74323597D01*
X243909718Y-74373709D01*
X243710097Y-74456190D01*
X243316771Y-74848830D01*
X243103643Y-75362100D01*
X243103158Y-75917861D01*
X243315390Y-76431503D01*
X243708030Y-76824829D01*
X243915912Y-76911149D01*
X243710097Y-76996190D01*
X243316771Y-77388830D01*
X243103643Y-77902100D01*
X243103158Y-78457861D01*
X243115716Y-78488254D01*
X242335985Y-79267985D01*
X242170804Y-79515195D01*
X242112800Y-79806800D01*
X242112800Y-80938317D01*
X242046260Y-81004741D01*
X241897070Y-81364030D01*
X241896731Y-81753063D01*
X232099689Y-81753063D01*
X231969507Y-81437999D01*
X231902000Y-81370374D01*
X231902000Y-76642387D01*
X233434552Y-76642387D01*
X233652557Y-77170000D01*
X234055877Y-77574024D01*
X234583109Y-77792950D01*
X235153987Y-77793448D01*
X235681600Y-77575443D01*
X236085624Y-77172123D01*
X236304550Y-76644891D01*
X236305048Y-76074013D01*
X236087043Y-75546400D01*
X235683723Y-75142376D01*
X235156491Y-74923450D01*
X234585613Y-74922952D01*
X234058000Y-75140957D01*
X233653976Y-75544277D01*
X233435050Y-76071509D01*
X233434552Y-76642387D01*
X231902000Y-76642387D01*
X231902000Y-75805083D01*
X231968540Y-75738659D01*
X232117730Y-75379370D01*
X232118069Y-74990337D01*
X231969507Y-74630788D01*
X231694659Y-74355460D01*
X231335370Y-74206270D01*
X230946337Y-74205931D01*
X230586788Y-74354493D01*
X230311460Y-74629341D01*
X230282598Y-74698847D01*
X230191507Y-74478388D01*
X230124000Y-74410763D01*
X230124000Y-71762387D01*
X233434552Y-71762387D01*
X233652557Y-72290000D01*
X234055877Y-72694024D01*
X234583109Y-72912950D01*
X235153987Y-72913448D01*
X235202260Y-72893502D01*
X243091256Y-72893502D01*
X243119038Y-73448568D01*
X243278003Y-73832343D01*
X243520187Y-73901808D01*
X244320795Y-73101200D01*
X244680005Y-73101200D01*
X245480613Y-73901808D01*
X245722797Y-73832343D01*
X245909544Y-73308898D01*
X245881762Y-72753832D01*
X245722797Y-72370057D01*
X245480613Y-72300592D01*
X244680005Y-73101200D01*
X244320795Y-73101200D01*
X243520187Y-72300592D01*
X243278003Y-72370057D01*
X243091256Y-72893502D01*
X235202260Y-72893502D01*
X235681600Y-72695443D01*
X236085624Y-72292123D01*
X236304550Y-71764891D01*
X236305048Y-71194013D01*
X236087043Y-70666400D01*
X235683723Y-70262376D01*
X235156491Y-70043450D01*
X234585613Y-70042952D01*
X234058000Y-70260957D01*
X233653976Y-70664277D01*
X233435050Y-71191509D01*
X233434552Y-71762387D01*
X230124000Y-71762387D01*
X230124000Y-70618114D01*
X230216496Y-70618195D01*
X230576045Y-70469633D01*
X230851373Y-70194785D01*
X231000563Y-69835496D01*
X231000902Y-69446463D01*
X230852340Y-69086914D01*
X230784400Y-69018855D01*
X230784400Y-68467037D01*
X230919280Y-68668899D01*
X230931385Y-68687015D01*
X231794985Y-69550615D01*
X232042195Y-69715796D01*
X232333800Y-69773800D01*
X233414517Y-69773800D01*
X233480941Y-69840340D01*
X233840230Y-69989530D01*
X234229263Y-69989869D01*
X234588812Y-69841307D01*
X234864140Y-69566459D01*
X235013330Y-69207170D01*
X235013669Y-68818137D01*
X234865107Y-68458588D01*
X234590259Y-68183260D01*
X234230970Y-68034070D01*
X233841937Y-68033731D01*
X233482388Y-68182293D01*
X233414763Y-68249800D01*
X232649430Y-68249800D01*
X232232200Y-67832570D01*
X232232200Y-67132200D01*
X232174196Y-66840595D01*
X232087083Y-66710221D01*
X232009016Y-66593385D01*
X231221615Y-65805985D01*
X231153243Y-65760300D01*
X230974405Y-65640804D01*
X230682800Y-65582800D01*
X228828600Y-65582800D01*
X228573212Y-65633600D01*
X228536995Y-65640804D01*
X228289784Y-65805985D01*
X228079409Y-66016360D01*
X228079469Y-65947937D01*
X227930907Y-65588388D01*
X227656059Y-65313060D01*
X227296770Y-65163870D01*
X226907737Y-65163531D01*
X226548188Y-65312093D01*
X226480563Y-65379600D01*
X225893030Y-65379600D01*
X225361587Y-64848157D01*
X225361669Y-64754137D01*
X225213107Y-64394588D01*
X224938259Y-64119260D01*
X224578970Y-63970070D01*
X224189937Y-63969731D01*
X223830388Y-64118293D01*
X223555060Y-64393141D01*
X223405870Y-64752430D01*
X223405531Y-65141463D01*
X223554093Y-65501012D01*
X223828941Y-65776340D01*
X224188230Y-65925530D01*
X224283783Y-65925613D01*
X225038585Y-66680415D01*
X225285795Y-66845596D01*
X225577400Y-66903600D01*
X226480317Y-66903600D01*
X226546741Y-66970140D01*
X226906030Y-67119330D01*
X227295063Y-67119669D01*
X227654612Y-66971107D01*
X227685600Y-66940173D01*
X227685600Y-66968970D01*
X226849269Y-67805301D01*
X226402899Y-67805301D01*
X226111762Y-67863212D01*
X226111294Y-67863305D01*
X226008104Y-67932255D01*
X225866337Y-67932131D01*
X225506788Y-68080693D01*
X225231460Y-68355541D01*
X225082270Y-68714830D01*
X225081931Y-69103863D01*
X225230493Y-69463412D01*
X225505341Y-69738740D01*
X225864630Y-69887930D01*
X226253663Y-69888269D01*
X226613212Y-69739707D01*
X226888540Y-69464859D01*
X226944829Y-69329301D01*
X227042285Y-69329301D01*
X226938046Y-69580335D01*
X226937963Y-69675888D01*
X226791185Y-69822666D01*
X226626004Y-70069876D01*
X226568000Y-70361481D01*
X226568000Y-71286253D01*
X226538459Y-71256660D01*
X226179170Y-71107470D01*
X225790137Y-71107131D01*
X225430588Y-71255693D01*
X225298000Y-71388050D01*
X225298000Y-70408800D01*
X225239996Y-70117195D01*
X225173834Y-70018177D01*
X225074816Y-69869985D01*
X224035748Y-68830918D01*
X224006691Y-68811503D01*
X223788538Y-68665737D01*
X223496933Y-68607733D01*
X223429230Y-68607733D01*
X223103580Y-68282083D01*
X223029079Y-68232303D01*
X222856370Y-68116902D01*
X222564765Y-68058898D01*
X222097600Y-68058898D01*
X222097600Y-65339630D01*
X222146443Y-65290787D01*
X222240463Y-65290869D01*
X222600012Y-65142307D01*
X222875340Y-64867459D01*
X223024530Y-64508170D01*
X223024869Y-64119137D01*
X222932517Y-63895627D01*
X223078540Y-63749859D01*
X223084889Y-63734569D01*
X223223030Y-63791930D01*
X223612063Y-63792269D01*
X223971612Y-63643707D01*
X224246940Y-63368859D01*
X224396130Y-63009570D01*
X224396469Y-62620537D01*
X224326421Y-62451007D01*
X224424740Y-62352859D01*
X224573930Y-61993570D01*
X224574269Y-61604537D01*
X224425707Y-61244988D01*
X224150859Y-60969660D01*
X223791570Y-60820470D01*
X223402537Y-60820131D01*
X223042988Y-60968693D01*
X222975363Y-61036200D01*
X217373200Y-61036200D01*
X217081595Y-61094204D01*
X216834384Y-61259385D01*
X216486157Y-61607613D01*
X216392137Y-61607531D01*
X216032588Y-61756093D01*
X215757260Y-62030941D01*
X215608070Y-62390230D01*
X215607731Y-62779263D01*
X215756293Y-63138812D01*
X216031141Y-63414140D01*
X216045585Y-63420138D01*
X215983404Y-63513197D01*
X215925400Y-63804802D01*
X215925400Y-64402917D01*
X215908007Y-64420279D01*
X215865907Y-64318388D01*
X215591059Y-64043060D01*
X215231770Y-63893870D01*
X214842737Y-63893531D01*
X214483188Y-64042093D01*
X214415563Y-64109600D01*
X213015230Y-64109600D01*
X210359690Y-61454060D01*
X210609670Y-61287029D01*
X210934526Y-60800848D01*
X210958989Y-60677861D01*
X243103158Y-60677861D01*
X243315390Y-61191503D01*
X243708030Y-61584829D01*
X243915912Y-61671149D01*
X243710097Y-61756190D01*
X243316771Y-62148830D01*
X243103643Y-62662100D01*
X243103158Y-63217861D01*
X243315390Y-63731503D01*
X243708030Y-64124829D01*
X243915912Y-64211149D01*
X243710097Y-64296190D01*
X243316771Y-64688830D01*
X243103643Y-65202100D01*
X243103158Y-65757861D01*
X243315390Y-66271503D01*
X243708030Y-66664829D01*
X243915912Y-66751149D01*
X243710097Y-66836190D01*
X243316771Y-67228830D01*
X243103643Y-67742100D01*
X243103158Y-68297861D01*
X243315390Y-68811503D01*
X243708030Y-69204829D01*
X243915912Y-69291149D01*
X243710097Y-69376190D01*
X243316771Y-69768830D01*
X243103643Y-70282100D01*
X243103158Y-70837861D01*
X243315390Y-71351503D01*
X243708030Y-71744829D01*
X243900127Y-71824595D01*
X243769257Y-71878803D01*
X243699792Y-72120987D01*
X244500400Y-72921595D01*
X245301008Y-72120987D01*
X245231543Y-71878803D01*
X245091082Y-71828691D01*
X245290703Y-71746210D01*
X245684029Y-71353570D01*
X245897157Y-70840300D01*
X245897642Y-70284539D01*
X245685410Y-69770897D01*
X245292770Y-69377571D01*
X245084888Y-69291251D01*
X245290703Y-69206210D01*
X245684029Y-68813570D01*
X245897157Y-68300300D01*
X245897642Y-67744539D01*
X245685410Y-67230897D01*
X245292770Y-66837571D01*
X245084888Y-66751251D01*
X245290703Y-66666210D01*
X245684029Y-66273570D01*
X245897157Y-65760300D01*
X245897642Y-65204539D01*
X245685410Y-64690897D01*
X245292770Y-64297571D01*
X245084888Y-64211251D01*
X245290703Y-64126210D01*
X245684029Y-63733570D01*
X245897157Y-63220300D01*
X245897642Y-62664539D01*
X245685410Y-62150897D01*
X245292770Y-61757571D01*
X245084888Y-61671251D01*
X245290703Y-61586210D01*
X245684029Y-61193570D01*
X245897157Y-60680300D01*
X245897642Y-60124539D01*
X245685410Y-59610897D01*
X245292770Y-59217571D01*
X245100673Y-59137805D01*
X245231543Y-59083597D01*
X245301008Y-58841413D01*
X244500400Y-58040805D01*
X243699792Y-58841413D01*
X243769257Y-59083597D01*
X243909718Y-59133709D01*
X243710097Y-59216190D01*
X243316771Y-59608830D01*
X243103643Y-60122100D01*
X243103158Y-60677861D01*
X210958989Y-60677861D01*
X211048600Y-60227359D01*
X211048600Y-60168641D01*
X210934526Y-59595152D01*
X210623426Y-59129558D01*
X210648917Y-59124762D01*
X210865041Y-58985690D01*
X211010031Y-58773490D01*
X211061040Y-58521600D01*
X211061040Y-57653502D01*
X243091256Y-57653502D01*
X243119038Y-58208568D01*
X243278003Y-58592343D01*
X243520187Y-58661808D01*
X244320795Y-57861200D01*
X244680005Y-57861200D01*
X245480613Y-58661808D01*
X245722797Y-58592343D01*
X245909544Y-58068898D01*
X245881762Y-57513832D01*
X245722797Y-57130057D01*
X245480613Y-57060592D01*
X244680005Y-57861200D01*
X244320795Y-57861200D01*
X243520187Y-57060592D01*
X243278003Y-57130057D01*
X243091256Y-57653502D01*
X211061040Y-57653502D01*
X211061040Y-56794400D01*
X211016762Y-56559083D01*
X210877690Y-56342959D01*
X210665490Y-56197969D01*
X210413600Y-56146960D01*
X208686400Y-56146960D01*
X208451083Y-56191238D01*
X208234959Y-56330310D01*
X208089969Y-56542510D01*
X208081136Y-56586131D01*
X208069670Y-56568971D01*
X207583489Y-56244115D01*
X207010000Y-56130041D01*
X206436511Y-56244115D01*
X205950330Y-56568971D01*
X205734336Y-56892228D01*
X205676821Y-56769510D01*
X205244947Y-56375312D01*
X204829026Y-56203042D01*
X204597000Y-56324183D01*
X204597000Y-57531000D01*
X204617000Y-57531000D01*
X204617000Y-57785000D01*
X204597000Y-57785000D01*
X204597000Y-57805000D01*
X204343000Y-57805000D01*
X204343000Y-57785000D01*
X203135531Y-57785000D01*
X203015032Y-58017027D01*
X203263179Y-58546490D01*
X203681161Y-58928008D01*
X203410330Y-59108971D01*
X203085474Y-59595152D01*
X202971400Y-60168641D01*
X202971400Y-60227359D01*
X203085474Y-60800848D01*
X203410330Y-61287029D01*
X203896511Y-61611885D01*
X204470000Y-61725959D01*
X204845614Y-61651245D01*
X205607585Y-62413216D01*
X205724303Y-62491204D01*
X205854795Y-62578396D01*
X206146400Y-62636400D01*
X209386770Y-62636400D01*
X212160785Y-65410415D01*
X212407995Y-65575596D01*
X212699600Y-65633600D01*
X214247897Y-65633600D01*
X214160270Y-65844630D01*
X214160187Y-65940183D01*
X213996758Y-66103612D01*
X213674337Y-66103331D01*
X213314788Y-66251893D01*
X213039460Y-66526741D01*
X212890270Y-66886030D01*
X212889931Y-67275063D01*
X213038493Y-67634612D01*
X213120138Y-67716400D01*
X212812031Y-67716400D01*
X211455000Y-66359369D01*
X211455000Y-65405000D01*
X211411573Y-65174205D01*
X211275173Y-64962233D01*
X211067051Y-64820029D01*
X210820000Y-64770000D01*
X209865630Y-64770000D01*
X209479215Y-64383585D01*
X209232005Y-64218404D01*
X208940400Y-64160400D01*
X204837083Y-64160400D01*
X204770659Y-64093860D01*
X204411370Y-63944670D01*
X204022337Y-63944331D01*
X203662788Y-64092893D01*
X203387460Y-64367741D01*
X203238270Y-64727030D01*
X203238233Y-64770000D01*
X191135000Y-64770000D01*
X191135000Y-61595000D01*
X191091573Y-61364205D01*
X190955173Y-61152233D01*
X190747051Y-61010029D01*
X190500000Y-60960000D01*
X170494781Y-60960000D01*
X170718769Y-60736403D01*
X170907183Y-60282652D01*
X170907612Y-59791339D01*
X170719990Y-59337261D01*
X170372883Y-58989547D01*
X169919132Y-58801133D01*
X169427819Y-58800704D01*
X168973741Y-58988326D01*
X168626027Y-59335433D01*
X168437613Y-59789184D01*
X168437184Y-60280497D01*
X168624806Y-60734575D01*
X168849837Y-60960000D01*
X168351200Y-60960000D01*
X168351200Y-57298973D01*
X203015032Y-57298973D01*
X203135531Y-57531000D01*
X204343000Y-57531000D01*
X204343000Y-56324183D01*
X204110974Y-56203042D01*
X203695053Y-56375312D01*
X203263179Y-56769510D01*
X203015032Y-57298973D01*
X168351200Y-57298973D01*
X168351200Y-53180497D01*
X168437184Y-53180497D01*
X168624806Y-53634575D01*
X168971913Y-53982289D01*
X169425664Y-54170703D01*
X169916977Y-54171132D01*
X170371055Y-53983510D01*
X170718769Y-53636403D01*
X170907183Y-53182652D01*
X170907314Y-53032222D01*
X177575384Y-53032222D01*
X177796153Y-53402943D01*
X178767812Y-53796319D01*
X179816047Y-53787913D01*
X180745447Y-53402943D01*
X180966216Y-53032222D01*
X179270800Y-51336805D01*
X177575384Y-53032222D01*
X170907314Y-53032222D01*
X170907612Y-52691339D01*
X170719990Y-52237261D01*
X170372883Y-51889547D01*
X169919132Y-51701133D01*
X169427819Y-51700704D01*
X168973741Y-51888326D01*
X168626027Y-52235433D01*
X168437613Y-52689184D01*
X168437184Y-53180497D01*
X168351200Y-53180497D01*
X168351200Y-50654212D01*
X176631681Y-50654212D01*
X176640087Y-51702447D01*
X177025057Y-52631847D01*
X177395778Y-52852616D01*
X179091195Y-51157200D01*
X179450405Y-51157200D01*
X181145822Y-52852616D01*
X181516543Y-52631847D01*
X181788385Y-51960382D01*
X192912741Y-51960382D01*
X193140408Y-52511380D01*
X193561603Y-52933310D01*
X194112202Y-53161939D01*
X194708382Y-53162459D01*
X194961529Y-53057861D01*
X243103158Y-53057861D01*
X243315390Y-53571503D01*
X243708030Y-53964829D01*
X243915912Y-54051149D01*
X243710097Y-54136190D01*
X243316771Y-54528830D01*
X243103643Y-55042100D01*
X243103158Y-55597861D01*
X243315390Y-56111503D01*
X243708030Y-56504829D01*
X243900127Y-56584595D01*
X243769257Y-56638803D01*
X243699792Y-56880987D01*
X244500400Y-57681595D01*
X245301008Y-56880987D01*
X245231543Y-56638803D01*
X245091082Y-56588691D01*
X245290703Y-56506210D01*
X245684029Y-56113570D01*
X245897157Y-55600300D01*
X245897642Y-55044539D01*
X245685410Y-54530897D01*
X245292770Y-54137571D01*
X245084888Y-54051251D01*
X245290703Y-53966210D01*
X245684029Y-53573570D01*
X245897157Y-53060300D01*
X245897642Y-52504539D01*
X245685410Y-51990897D01*
X245292770Y-51597571D01*
X244779500Y-51384443D01*
X244223739Y-51383958D01*
X243710097Y-51596190D01*
X243316771Y-51988830D01*
X243103643Y-52502100D01*
X243103158Y-53057861D01*
X194961529Y-53057861D01*
X195259380Y-52934792D01*
X195681310Y-52513597D01*
X195909939Y-51962998D01*
X195910459Y-51366818D01*
X195682792Y-50815820D01*
X195261597Y-50393890D01*
X194710998Y-50165261D01*
X194114818Y-50164741D01*
X193563820Y-50392408D01*
X193141890Y-50813603D01*
X192913261Y-51364202D01*
X192912741Y-51960382D01*
X181788385Y-51960382D01*
X181909919Y-51660188D01*
X181901513Y-50611953D01*
X181638782Y-49977663D01*
X196805369Y-49977663D01*
X196953931Y-50337212D01*
X197228779Y-50612540D01*
X197588068Y-50761730D01*
X197977101Y-50762069D01*
X198336650Y-50613507D01*
X198611978Y-50338659D01*
X198732073Y-50049439D01*
X200661078Y-48120434D01*
X200701263Y-48120469D01*
X201060812Y-47971907D01*
X201336140Y-47697059D01*
X201485330Y-47337770D01*
X201485669Y-46948737D01*
X201337107Y-46589188D01*
X201062259Y-46313860D01*
X200702970Y-46164670D01*
X200313937Y-46164331D01*
X199954388Y-46312893D01*
X199679060Y-46587741D01*
X199529870Y-46947030D01*
X199529834Y-46988654D01*
X197712450Y-48806038D01*
X197589775Y-48805931D01*
X197230226Y-48954493D01*
X196954898Y-49229341D01*
X196805708Y-49588630D01*
X196805369Y-49977663D01*
X181638782Y-49977663D01*
X181516543Y-49682553D01*
X181145822Y-49461784D01*
X179450405Y-51157200D01*
X179091195Y-51157200D01*
X177395778Y-49461784D01*
X177025057Y-49682553D01*
X176631681Y-50654212D01*
X168351200Y-50654212D01*
X168351200Y-49282178D01*
X177575384Y-49282178D01*
X179270800Y-50977595D01*
X180966216Y-49282178D01*
X180745447Y-48911457D01*
X179773788Y-48518081D01*
X178725553Y-48526487D01*
X177796153Y-48911457D01*
X177575384Y-49282178D01*
X168351200Y-49282178D01*
X168351200Y-48333222D01*
X174575644Y-48333222D01*
X174796413Y-48703943D01*
X175768072Y-49097319D01*
X176816307Y-49088913D01*
X177745707Y-48703943D01*
X177966476Y-48333222D01*
X176271060Y-46637805D01*
X174575644Y-48333222D01*
X168351200Y-48333222D01*
X168351200Y-45955212D01*
X173631941Y-45955212D01*
X173640347Y-47003447D01*
X174025317Y-47932847D01*
X174396038Y-48153616D01*
X176091455Y-46458200D01*
X176450665Y-46458200D01*
X178146082Y-48153616D01*
X178516803Y-47932847D01*
X178902549Y-46980034D01*
X179635083Y-46980034D01*
X180035393Y-47948858D01*
X180775983Y-48690742D01*
X181744107Y-49092742D01*
X182792374Y-49093657D01*
X183761198Y-48693347D01*
X184503082Y-47952757D01*
X184905082Y-46984633D01*
X184905997Y-45936366D01*
X184505687Y-44967542D01*
X183765097Y-44225658D01*
X182796973Y-43823658D01*
X181748706Y-43822743D01*
X180779882Y-44223053D01*
X180037998Y-44963643D01*
X179635998Y-45931767D01*
X179635083Y-46980034D01*
X178902549Y-46980034D01*
X178910179Y-46961188D01*
X178901773Y-45912953D01*
X178516803Y-44983553D01*
X178146082Y-44762784D01*
X176450665Y-46458200D01*
X176091455Y-46458200D01*
X174396038Y-44762784D01*
X174025317Y-44983553D01*
X173631941Y-45955212D01*
X168351200Y-45955212D01*
X168351200Y-44616055D01*
X168354711Y-44605856D01*
X168357795Y-44583178D01*
X174575644Y-44583178D01*
X176271060Y-46278595D01*
X177966476Y-44583178D01*
X177745707Y-44212457D01*
X176774048Y-43819081D01*
X175725813Y-43827487D01*
X174796413Y-44212457D01*
X174575644Y-44583178D01*
X168357795Y-44583178D01*
X168469997Y-43758303D01*
X168829594Y-43141593D01*
X169397822Y-42709439D01*
X170146601Y-42512245D01*
X170153865Y-42512023D01*
X170200000Y-42521200D01*
X170200000Y-42521200D01*
G37*
X170200000Y-42521200D02*
X245814951Y-42521200D01*
X246525942Y-42662624D01*
X247069309Y-43025691D01*
X247432375Y-43569056D01*
X247523000Y-44024659D01*
X247523000Y-96051833D01*
X247461038Y-96487466D01*
X247099858Y-97098304D01*
X246532412Y-97524430D01*
X245992908Y-97663000D01*
X211455000Y-97663000D01*
X211455000Y-94019312D01*
X214115044Y-96679356D01*
X214374615Y-96852796D01*
X214680800Y-96913700D01*
X238912400Y-96913700D01*
X239218585Y-96852796D01*
X239478156Y-96679356D01*
X242367878Y-93789634D01*
X242408063Y-93789669D01*
X242767612Y-93641107D01*
X243042940Y-93366259D01*
X243192130Y-93006970D01*
X243192469Y-92617937D01*
X243043907Y-92258388D01*
X242769059Y-91983060D01*
X242409770Y-91833870D01*
X242020737Y-91833531D01*
X241661188Y-91982093D01*
X241385860Y-92256941D01*
X241236670Y-92616230D01*
X241236634Y-92657854D01*
X238580988Y-95313500D01*
X215012212Y-95313500D01*
X212046156Y-92347444D01*
X211786585Y-92174004D01*
X211480400Y-92113100D01*
X211455000Y-92113100D01*
X211455000Y-78611130D01*
X211663615Y-78402515D01*
X211748838Y-78274970D01*
X211828796Y-78155305D01*
X211885234Y-77871572D01*
X211859712Y-79310706D01*
X211869026Y-79360747D01*
X211896889Y-79402761D01*
X213166889Y-80672761D01*
X213207282Y-80699952D01*
X213256692Y-80709958D01*
X221511692Y-80709958D01*
X221559481Y-80700624D01*
X221601495Y-80672761D01*
X221642113Y-80632143D01*
X223335865Y-82325895D01*
X222871800Y-82508643D01*
X222701167Y-82622657D01*
X222102954Y-83315549D01*
X226034600Y-87247195D01*
X226048743Y-87233053D01*
X226228348Y-87412658D01*
X226214205Y-87426800D01*
X230145851Y-91358446D01*
X230838743Y-90760233D01*
X231748699Y-88668024D01*
X231787160Y-86476591D01*
X231787160Y-89976800D01*
X231831438Y-90212117D01*
X231970510Y-90428241D01*
X232182710Y-90573231D01*
X232434600Y-90624240D01*
X232452929Y-90624240D01*
X230036970Y-93040200D01*
X227431926Y-93040200D01*
X229197400Y-92344957D01*
X229368033Y-92230943D01*
X229966246Y-91538051D01*
X226034600Y-87606405D01*
X222102954Y-91538051D01*
X222701167Y-92230943D01*
X224561845Y-93040200D01*
X220381230Y-93040200D01*
X219146600Y-91805570D01*
X219146600Y-90624240D01*
X219634600Y-90624240D01*
X219869917Y-90579962D01*
X220086041Y-90440890D01*
X220231031Y-90228690D01*
X220282040Y-89976800D01*
X220282040Y-88470748D01*
X221116443Y-90589600D01*
X221230457Y-90760233D01*
X221923349Y-91358446D01*
X225854995Y-87426800D01*
X221923349Y-83495154D01*
X221230457Y-84093367D01*
X220320501Y-86185576D01*
X220282040Y-88377009D01*
X220282040Y-84876800D01*
X220237762Y-84641483D01*
X220098690Y-84425359D01*
X219886490Y-84280369D01*
X219634600Y-84229360D01*
X217134600Y-84229360D01*
X216899283Y-84273638D01*
X216683159Y-84412710D01*
X216538169Y-84624910D01*
X216487160Y-84876800D01*
X216487160Y-89439985D01*
X216349370Y-89382770D01*
X215960337Y-89382431D01*
X215600788Y-89530993D01*
X215325460Y-89805841D01*
X215176270Y-90165130D01*
X215175931Y-90554163D01*
X215324493Y-90913712D01*
X215599341Y-91189040D01*
X215958630Y-91338230D01*
X216347663Y-91338569D01*
X216707212Y-91190007D01*
X216982540Y-90915159D01*
X217105765Y-90618401D01*
X217134600Y-90624240D01*
X217622600Y-90624240D01*
X217622600Y-92121200D01*
X217680604Y-92412805D01*
X217816529Y-92616230D01*
X217845785Y-92660015D01*
X219526785Y-94341015D01*
X219773995Y-94506196D01*
X220065600Y-94564200D01*
X230352600Y-94564200D01*
X230644205Y-94506196D01*
X230891415Y-94341015D01*
X232915730Y-92316700D01*
X234004960Y-92316700D01*
X234004960Y-94348700D01*
X234049238Y-94584017D01*
X234188310Y-94800141D01*
X234400510Y-94945131D01*
X234652400Y-94996140D01*
X236684400Y-94996140D01*
X236919717Y-94951862D01*
X237135841Y-94812790D01*
X237247240Y-94649752D01*
X237343582Y-94739085D01*
X237825456Y-94938675D01*
X238081400Y-94819536D01*
X238081400Y-93459700D01*
X238335400Y-93459700D01*
X238335400Y-94819536D01*
X238591344Y-94938675D01*
X239073218Y-94739085D01*
X239545588Y-94301079D01*
X239814383Y-93715646D01*
X239695767Y-93459700D01*
X238335400Y-93459700D01*
X238081400Y-93459700D01*
X238061400Y-93459700D01*
X238061400Y-93205700D01*
X238081400Y-93205700D01*
X238081400Y-91845864D01*
X238335400Y-91845864D01*
X238335400Y-93205700D01*
X239695767Y-93205700D01*
X239814383Y-92949754D01*
X239545588Y-92364321D01*
X239073218Y-91926315D01*
X238591344Y-91726725D01*
X238335400Y-91845864D01*
X238081400Y-91845864D01*
X237825456Y-91726725D01*
X237343582Y-91926315D01*
X237246002Y-92016797D01*
X237148490Y-91865259D01*
X236936290Y-91720269D01*
X236684400Y-91669260D01*
X234652400Y-91669260D01*
X234417083Y-91713538D01*
X234200959Y-91852610D01*
X234055969Y-92064810D01*
X234004960Y-92316700D01*
X232915730Y-92316700D01*
X234223416Y-91009015D01*
X234388597Y-90761804D01*
X234415960Y-90624240D01*
X234934600Y-90624240D01*
X235169917Y-90579962D01*
X235386041Y-90440890D01*
X235531031Y-90228690D01*
X235582040Y-89976800D01*
X235582040Y-86528954D01*
X235637757Y-86663800D01*
X236041077Y-87067824D01*
X236568309Y-87286750D01*
X237139187Y-87287248D01*
X237666800Y-87069243D01*
X238070824Y-86665923D01*
X238289750Y-86138691D01*
X238290248Y-85567813D01*
X238072243Y-85040200D01*
X237668923Y-84636176D01*
X237602456Y-84608577D01*
X237609005Y-84605864D01*
X237683139Y-84359745D01*
X236855000Y-83531605D01*
X236026861Y-84359745D01*
X236100995Y-84605864D01*
X236107483Y-84608196D01*
X236043200Y-84634757D01*
X235639176Y-85038077D01*
X235582040Y-85175676D01*
X235582040Y-84876800D01*
X235537762Y-84641483D01*
X235398690Y-84425359D01*
X235186490Y-84280369D01*
X234934600Y-84229360D01*
X232864790Y-84229360D01*
X231770653Y-83135223D01*
X235408035Y-83135223D01*
X235435222Y-83705454D01*
X235601136Y-84106005D01*
X235847255Y-84180139D01*
X236675395Y-83352000D01*
X237034605Y-83352000D01*
X237862745Y-84180139D01*
X238108864Y-84106005D01*
X238301965Y-83568777D01*
X238274778Y-82998546D01*
X238108864Y-82597995D01*
X237862745Y-82523861D01*
X237034605Y-83352000D01*
X236675395Y-83352000D01*
X235847255Y-82523861D01*
X235601136Y-82597995D01*
X235408035Y-83135223D01*
X231770653Y-83135223D01*
X231525461Y-82890031D01*
X231693212Y-82820718D01*
X231968540Y-82545870D01*
X232052257Y-82344255D01*
X236026861Y-82344255D01*
X236855000Y-83172395D01*
X237683139Y-82344255D01*
X237609005Y-82098136D01*
X237071777Y-81905035D01*
X236501546Y-81932222D01*
X236100995Y-82098136D01*
X236026861Y-82344255D01*
X232052257Y-82344255D01*
X232117730Y-82186581D01*
X232118069Y-81797548D01*
X232099689Y-81753063D01*
X241896731Y-81753063D01*
X242045293Y-82112612D01*
X242320141Y-82387940D01*
X242679430Y-82537130D01*
X243068463Y-82537469D01*
X243374815Y-82410888D01*
X243316771Y-82468830D01*
X243103643Y-82982100D01*
X243103158Y-83537861D01*
X243315390Y-84051503D01*
X243708030Y-84444829D01*
X243915912Y-84531149D01*
X243710097Y-84616190D01*
X243316771Y-85008830D01*
X243103643Y-85522100D01*
X243103158Y-86077861D01*
X243315390Y-86591503D01*
X243708030Y-86984829D01*
X243915912Y-87071149D01*
X243710097Y-87156190D01*
X243316771Y-87548830D01*
X243103643Y-88062100D01*
X243103158Y-88617861D01*
X243315390Y-89131503D01*
X243708030Y-89524829D01*
X243915912Y-89611149D01*
X243710097Y-89696190D01*
X243316771Y-90088830D01*
X243103643Y-90602100D01*
X243103158Y-91157861D01*
X243315390Y-91671503D01*
X243708030Y-92064829D01*
X244221300Y-92277957D01*
X244777061Y-92278442D01*
X245290703Y-92066210D01*
X245684029Y-91673570D01*
X245897157Y-91160300D01*
X245897642Y-90604539D01*
X245685410Y-90090897D01*
X245292770Y-89697571D01*
X245084888Y-89611251D01*
X245290703Y-89526210D01*
X245684029Y-89133570D01*
X245897157Y-88620300D01*
X245897642Y-88064539D01*
X245685410Y-87550897D01*
X245292770Y-87157571D01*
X245084888Y-87071251D01*
X245290703Y-86986210D01*
X245684029Y-86593570D01*
X245897157Y-86080300D01*
X245897642Y-85524539D01*
X245685410Y-85010897D01*
X245292770Y-84617571D01*
X245084888Y-84531251D01*
X245290703Y-84446210D01*
X245684029Y-84053570D01*
X245897157Y-83540300D01*
X245897642Y-82984539D01*
X245685410Y-82470897D01*
X245292770Y-82077571D01*
X245084888Y-81991251D01*
X245290703Y-81906210D01*
X245684029Y-81513570D01*
X245897157Y-81000300D01*
X245897642Y-80444539D01*
X245685410Y-79930897D01*
X245292770Y-79537571D01*
X245084888Y-79451251D01*
X245290703Y-79366210D01*
X245684029Y-78973570D01*
X245897157Y-78460300D01*
X245897642Y-77904539D01*
X245685410Y-77390897D01*
X245292770Y-76997571D01*
X245084888Y-76911251D01*
X245290703Y-76826210D01*
X245684029Y-76433570D01*
X245897157Y-75920300D01*
X245897642Y-75364539D01*
X245685410Y-74850897D01*
X245292770Y-74457571D01*
X245100673Y-74377805D01*
X245231543Y-74323597D01*
X245301008Y-74081413D01*
X244500400Y-73280805D01*
X243699792Y-74081413D01*
X243769257Y-74323597D01*
X243909718Y-74373709D01*
X243710097Y-74456190D01*
X243316771Y-74848830D01*
X243103643Y-75362100D01*
X243103158Y-75917861D01*
X243315390Y-76431503D01*
X243708030Y-76824829D01*
X243915912Y-76911149D01*
X243710097Y-76996190D01*
X243316771Y-77388830D01*
X243103643Y-77902100D01*
X243103158Y-78457861D01*
X243115716Y-78488254D01*
X242335985Y-79267985D01*
X242170804Y-79515195D01*
X242112800Y-79806800D01*
X242112800Y-80938317D01*
X242046260Y-81004741D01*
X241897070Y-81364030D01*
X241896731Y-81753063D01*
X232099689Y-81753063D01*
X231969507Y-81437999D01*
X231902000Y-81370374D01*
X231902000Y-76642387D01*
X233434552Y-76642387D01*
X233652557Y-77170000D01*
X234055877Y-77574024D01*
X234583109Y-77792950D01*
X235153987Y-77793448D01*
X235681600Y-77575443D01*
X236085624Y-77172123D01*
X236304550Y-76644891D01*
X236305048Y-76074013D01*
X236087043Y-75546400D01*
X235683723Y-75142376D01*
X235156491Y-74923450D01*
X234585613Y-74922952D01*
X234058000Y-75140957D01*
X233653976Y-75544277D01*
X233435050Y-76071509D01*
X233434552Y-76642387D01*
X231902000Y-76642387D01*
X231902000Y-75805083D01*
X231968540Y-75738659D01*
X232117730Y-75379370D01*
X232118069Y-74990337D01*
X231969507Y-74630788D01*
X231694659Y-74355460D01*
X231335370Y-74206270D01*
X230946337Y-74205931D01*
X230586788Y-74354493D01*
X230311460Y-74629341D01*
X230282598Y-74698847D01*
X230191507Y-74478388D01*
X230124000Y-74410763D01*
X230124000Y-71762387D01*
X233434552Y-71762387D01*
X233652557Y-72290000D01*
X234055877Y-72694024D01*
X234583109Y-72912950D01*
X235153987Y-72913448D01*
X235202260Y-72893502D01*
X243091256Y-72893502D01*
X243119038Y-73448568D01*
X243278003Y-73832343D01*
X243520187Y-73901808D01*
X244320795Y-73101200D01*
X244680005Y-73101200D01*
X245480613Y-73901808D01*
X245722797Y-73832343D01*
X245909544Y-73308898D01*
X245881762Y-72753832D01*
X245722797Y-72370057D01*
X245480613Y-72300592D01*
X244680005Y-73101200D01*
X244320795Y-73101200D01*
X243520187Y-72300592D01*
X243278003Y-72370057D01*
X243091256Y-72893502D01*
X235202260Y-72893502D01*
X235681600Y-72695443D01*
X236085624Y-72292123D01*
X236304550Y-71764891D01*
X236305048Y-71194013D01*
X236087043Y-70666400D01*
X235683723Y-70262376D01*
X235156491Y-70043450D01*
X234585613Y-70042952D01*
X234058000Y-70260957D01*
X233653976Y-70664277D01*
X233435050Y-71191509D01*
X233434552Y-71762387D01*
X230124000Y-71762387D01*
X230124000Y-70618114D01*
X230216496Y-70618195D01*
X230576045Y-70469633D01*
X230851373Y-70194785D01*
X231000563Y-69835496D01*
X231000902Y-69446463D01*
X230852340Y-69086914D01*
X230784400Y-69018855D01*
X230784400Y-68467037D01*
X230919280Y-68668899D01*
X230931385Y-68687015D01*
X231794985Y-69550615D01*
X232042195Y-69715796D01*
X232333800Y-69773800D01*
X233414517Y-69773800D01*
X233480941Y-69840340D01*
X233840230Y-69989530D01*
X234229263Y-69989869D01*
X234588812Y-69841307D01*
X234864140Y-69566459D01*
X235013330Y-69207170D01*
X235013669Y-68818137D01*
X234865107Y-68458588D01*
X234590259Y-68183260D01*
X234230970Y-68034070D01*
X233841937Y-68033731D01*
X233482388Y-68182293D01*
X233414763Y-68249800D01*
X232649430Y-68249800D01*
X232232200Y-67832570D01*
X232232200Y-67132200D01*
X232174196Y-66840595D01*
X232087083Y-66710221D01*
X232009016Y-66593385D01*
X231221615Y-65805985D01*
X231153243Y-65760300D01*
X230974405Y-65640804D01*
X230682800Y-65582800D01*
X228828600Y-65582800D01*
X228573212Y-65633600D01*
X228536995Y-65640804D01*
X228289784Y-65805985D01*
X228079409Y-66016360D01*
X228079469Y-65947937D01*
X227930907Y-65588388D01*
X227656059Y-65313060D01*
X227296770Y-65163870D01*
X226907737Y-65163531D01*
X226548188Y-65312093D01*
X226480563Y-65379600D01*
X225893030Y-65379600D01*
X225361587Y-64848157D01*
X225361669Y-64754137D01*
X225213107Y-64394588D01*
X224938259Y-64119260D01*
X224578970Y-63970070D01*
X224189937Y-63969731D01*
X223830388Y-64118293D01*
X223555060Y-64393141D01*
X223405870Y-64752430D01*
X223405531Y-65141463D01*
X223554093Y-65501012D01*
X223828941Y-65776340D01*
X224188230Y-65925530D01*
X224283783Y-65925613D01*
X225038585Y-66680415D01*
X225285795Y-66845596D01*
X225577400Y-66903600D01*
X226480317Y-66903600D01*
X226546741Y-66970140D01*
X226906030Y-67119330D01*
X227295063Y-67119669D01*
X227654612Y-66971107D01*
X227685600Y-66940173D01*
X227685600Y-66968970D01*
X226849269Y-67805301D01*
X226402899Y-67805301D01*
X226111762Y-67863212D01*
X226111294Y-67863305D01*
X226008104Y-67932255D01*
X225866337Y-67932131D01*
X225506788Y-68080693D01*
X225231460Y-68355541D01*
X225082270Y-68714830D01*
X225081931Y-69103863D01*
X225230493Y-69463412D01*
X225505341Y-69738740D01*
X225864630Y-69887930D01*
X226253663Y-69888269D01*
X226613212Y-69739707D01*
X226888540Y-69464859D01*
X226944829Y-69329301D01*
X227042285Y-69329301D01*
X226938046Y-69580335D01*
X226937963Y-69675888D01*
X226791185Y-69822666D01*
X226626004Y-70069876D01*
X226568000Y-70361481D01*
X226568000Y-71286253D01*
X226538459Y-71256660D01*
X226179170Y-71107470D01*
X225790137Y-71107131D01*
X225430588Y-71255693D01*
X225298000Y-71388050D01*
X225298000Y-70408800D01*
X225239996Y-70117195D01*
X225173834Y-70018177D01*
X225074816Y-69869985D01*
X224035748Y-68830918D01*
X224006691Y-68811503D01*
X223788538Y-68665737D01*
X223496933Y-68607733D01*
X223429230Y-68607733D01*
X223103580Y-68282083D01*
X223029079Y-68232303D01*
X222856370Y-68116902D01*
X222564765Y-68058898D01*
X222097600Y-68058898D01*
X222097600Y-65339630D01*
X222146443Y-65290787D01*
X222240463Y-65290869D01*
X222600012Y-65142307D01*
X222875340Y-64867459D01*
X223024530Y-64508170D01*
X223024869Y-64119137D01*
X222932517Y-63895627D01*
X223078540Y-63749859D01*
X223084889Y-63734569D01*
X223223030Y-63791930D01*
X223612063Y-63792269D01*
X223971612Y-63643707D01*
X224246940Y-63368859D01*
X224396130Y-63009570D01*
X224396469Y-62620537D01*
X224326421Y-62451007D01*
X224424740Y-62352859D01*
X224573930Y-61993570D01*
X224574269Y-61604537D01*
X224425707Y-61244988D01*
X224150859Y-60969660D01*
X223791570Y-60820470D01*
X223402537Y-60820131D01*
X223042988Y-60968693D01*
X222975363Y-61036200D01*
X217373200Y-61036200D01*
X217081595Y-61094204D01*
X216834384Y-61259385D01*
X216486157Y-61607613D01*
X216392137Y-61607531D01*
X216032588Y-61756093D01*
X215757260Y-62030941D01*
X215608070Y-62390230D01*
X215607731Y-62779263D01*
X215756293Y-63138812D01*
X216031141Y-63414140D01*
X216045585Y-63420138D01*
X215983404Y-63513197D01*
X215925400Y-63804802D01*
X215925400Y-64402917D01*
X215908007Y-64420279D01*
X215865907Y-64318388D01*
X215591059Y-64043060D01*
X215231770Y-63893870D01*
X214842737Y-63893531D01*
X214483188Y-64042093D01*
X214415563Y-64109600D01*
X213015230Y-64109600D01*
X210359690Y-61454060D01*
X210609670Y-61287029D01*
X210934526Y-60800848D01*
X210958989Y-60677861D01*
X243103158Y-60677861D01*
X243315390Y-61191503D01*
X243708030Y-61584829D01*
X243915912Y-61671149D01*
X243710097Y-61756190D01*
X243316771Y-62148830D01*
X243103643Y-62662100D01*
X243103158Y-63217861D01*
X243315390Y-63731503D01*
X243708030Y-64124829D01*
X243915912Y-64211149D01*
X243710097Y-64296190D01*
X243316771Y-64688830D01*
X243103643Y-65202100D01*
X243103158Y-65757861D01*
X243315390Y-66271503D01*
X243708030Y-66664829D01*
X243915912Y-66751149D01*
X243710097Y-66836190D01*
X243316771Y-67228830D01*
X243103643Y-67742100D01*
X243103158Y-68297861D01*
X243315390Y-68811503D01*
X243708030Y-69204829D01*
X243915912Y-69291149D01*
X243710097Y-69376190D01*
X243316771Y-69768830D01*
X243103643Y-70282100D01*
X243103158Y-70837861D01*
X243315390Y-71351503D01*
X243708030Y-71744829D01*
X243900127Y-71824595D01*
X243769257Y-71878803D01*
X243699792Y-72120987D01*
X244500400Y-72921595D01*
X245301008Y-72120987D01*
X245231543Y-71878803D01*
X245091082Y-71828691D01*
X245290703Y-71746210D01*
X245684029Y-71353570D01*
X245897157Y-70840300D01*
X245897642Y-70284539D01*
X245685410Y-69770897D01*
X245292770Y-69377571D01*
X245084888Y-69291251D01*
X245290703Y-69206210D01*
X245684029Y-68813570D01*
X245897157Y-68300300D01*
X245897642Y-67744539D01*
X245685410Y-67230897D01*
X245292770Y-66837571D01*
X245084888Y-66751251D01*
X245290703Y-66666210D01*
X245684029Y-66273570D01*
X245897157Y-65760300D01*
X245897642Y-65204539D01*
X245685410Y-64690897D01*
X245292770Y-64297571D01*
X245084888Y-64211251D01*
X245290703Y-64126210D01*
X245684029Y-63733570D01*
X245897157Y-63220300D01*
X245897642Y-62664539D01*
X245685410Y-62150897D01*
X245292770Y-61757571D01*
X245084888Y-61671251D01*
X245290703Y-61586210D01*
X245684029Y-61193570D01*
X245897157Y-60680300D01*
X245897642Y-60124539D01*
X245685410Y-59610897D01*
X245292770Y-59217571D01*
X245100673Y-59137805D01*
X245231543Y-59083597D01*
X245301008Y-58841413D01*
X244500400Y-58040805D01*
X243699792Y-58841413D01*
X243769257Y-59083597D01*
X243909718Y-59133709D01*
X243710097Y-59216190D01*
X243316771Y-59608830D01*
X243103643Y-60122100D01*
X243103158Y-60677861D01*
X210958989Y-60677861D01*
X211048600Y-60227359D01*
X211048600Y-60168641D01*
X210934526Y-59595152D01*
X210623426Y-59129558D01*
X210648917Y-59124762D01*
X210865041Y-58985690D01*
X211010031Y-58773490D01*
X211061040Y-58521600D01*
X211061040Y-57653502D01*
X243091256Y-57653502D01*
X243119038Y-58208568D01*
X243278003Y-58592343D01*
X243520187Y-58661808D01*
X244320795Y-57861200D01*
X244680005Y-57861200D01*
X245480613Y-58661808D01*
X245722797Y-58592343D01*
X245909544Y-58068898D01*
X245881762Y-57513832D01*
X245722797Y-57130057D01*
X245480613Y-57060592D01*
X244680005Y-57861200D01*
X244320795Y-57861200D01*
X243520187Y-57060592D01*
X243278003Y-57130057D01*
X243091256Y-57653502D01*
X211061040Y-57653502D01*
X211061040Y-56794400D01*
X211016762Y-56559083D01*
X210877690Y-56342959D01*
X210665490Y-56197969D01*
X210413600Y-56146960D01*
X208686400Y-56146960D01*
X208451083Y-56191238D01*
X208234959Y-56330310D01*
X208089969Y-56542510D01*
X208081136Y-56586131D01*
X208069670Y-56568971D01*
X207583489Y-56244115D01*
X207010000Y-56130041D01*
X206436511Y-56244115D01*
X205950330Y-56568971D01*
X205734336Y-56892228D01*
X205676821Y-56769510D01*
X205244947Y-56375312D01*
X204829026Y-56203042D01*
X204597000Y-56324183D01*
X204597000Y-57531000D01*
X204617000Y-57531000D01*
X204617000Y-57785000D01*
X204597000Y-57785000D01*
X204597000Y-57805000D01*
X204343000Y-57805000D01*
X204343000Y-57785000D01*
X203135531Y-57785000D01*
X203015032Y-58017027D01*
X203263179Y-58546490D01*
X203681161Y-58928008D01*
X203410330Y-59108971D01*
X203085474Y-59595152D01*
X202971400Y-60168641D01*
X202971400Y-60227359D01*
X203085474Y-60800848D01*
X203410330Y-61287029D01*
X203896511Y-61611885D01*
X204470000Y-61725959D01*
X204845614Y-61651245D01*
X205607585Y-62413216D01*
X205724303Y-62491204D01*
X205854795Y-62578396D01*
X206146400Y-62636400D01*
X209386770Y-62636400D01*
X212160785Y-65410415D01*
X212407995Y-65575596D01*
X212699600Y-65633600D01*
X214247897Y-65633600D01*
X214160270Y-65844630D01*
X214160187Y-65940183D01*
X213996758Y-66103612D01*
X213674337Y-66103331D01*
X213314788Y-66251893D01*
X213039460Y-66526741D01*
X212890270Y-66886030D01*
X212889931Y-67275063D01*
X213038493Y-67634612D01*
X213120138Y-67716400D01*
X212812031Y-67716400D01*
X211455000Y-66359369D01*
X211455000Y-65405000D01*
X211411573Y-65174205D01*
X211275173Y-64962233D01*
X211067051Y-64820029D01*
X210820000Y-64770000D01*
X209865630Y-64770000D01*
X209479215Y-64383585D01*
X209232005Y-64218404D01*
X208940400Y-64160400D01*
X204837083Y-64160400D01*
X204770659Y-64093860D01*
X204411370Y-63944670D01*
X204022337Y-63944331D01*
X203662788Y-64092893D01*
X203387460Y-64367741D01*
X203238270Y-64727030D01*
X203238233Y-64770000D01*
X191135000Y-64770000D01*
X191135000Y-61595000D01*
X191091573Y-61364205D01*
X190955173Y-61152233D01*
X190747051Y-61010029D01*
X190500000Y-60960000D01*
X170494781Y-60960000D01*
X170718769Y-60736403D01*
X170907183Y-60282652D01*
X170907612Y-59791339D01*
X170719990Y-59337261D01*
X170372883Y-58989547D01*
X169919132Y-58801133D01*
X169427819Y-58800704D01*
X168973741Y-58988326D01*
X168626027Y-59335433D01*
X168437613Y-59789184D01*
X168437184Y-60280497D01*
X168624806Y-60734575D01*
X168849837Y-60960000D01*
X168351200Y-60960000D01*
X168351200Y-57298973D01*
X203015032Y-57298973D01*
X203135531Y-57531000D01*
X204343000Y-57531000D01*
X204343000Y-56324183D01*
X204110974Y-56203042D01*
X203695053Y-56375312D01*
X203263179Y-56769510D01*
X203015032Y-57298973D01*
X168351200Y-57298973D01*
X168351200Y-53180497D01*
X168437184Y-53180497D01*
X168624806Y-53634575D01*
X168971913Y-53982289D01*
X169425664Y-54170703D01*
X169916977Y-54171132D01*
X170371055Y-53983510D01*
X170718769Y-53636403D01*
X170907183Y-53182652D01*
X170907314Y-53032222D01*
X177575384Y-53032222D01*
X177796153Y-53402943D01*
X178767812Y-53796319D01*
X179816047Y-53787913D01*
X180745447Y-53402943D01*
X180966216Y-53032222D01*
X179270800Y-51336805D01*
X177575384Y-53032222D01*
X170907314Y-53032222D01*
X170907612Y-52691339D01*
X170719990Y-52237261D01*
X170372883Y-51889547D01*
X169919132Y-51701133D01*
X169427819Y-51700704D01*
X168973741Y-51888326D01*
X168626027Y-52235433D01*
X168437613Y-52689184D01*
X168437184Y-53180497D01*
X168351200Y-53180497D01*
X168351200Y-50654212D01*
X176631681Y-50654212D01*
X176640087Y-51702447D01*
X177025057Y-52631847D01*
X177395778Y-52852616D01*
X179091195Y-51157200D01*
X179450405Y-51157200D01*
X181145822Y-52852616D01*
X181516543Y-52631847D01*
X181788385Y-51960382D01*
X192912741Y-51960382D01*
X193140408Y-52511380D01*
X193561603Y-52933310D01*
X194112202Y-53161939D01*
X194708382Y-53162459D01*
X194961529Y-53057861D01*
X243103158Y-53057861D01*
X243315390Y-53571503D01*
X243708030Y-53964829D01*
X243915912Y-54051149D01*
X243710097Y-54136190D01*
X243316771Y-54528830D01*
X243103643Y-55042100D01*
X243103158Y-55597861D01*
X243315390Y-56111503D01*
X243708030Y-56504829D01*
X243900127Y-56584595D01*
X243769257Y-56638803D01*
X243699792Y-56880987D01*
X244500400Y-57681595D01*
X245301008Y-56880987D01*
X245231543Y-56638803D01*
X245091082Y-56588691D01*
X245290703Y-56506210D01*
X245684029Y-56113570D01*
X245897157Y-55600300D01*
X245897642Y-55044539D01*
X245685410Y-54530897D01*
X245292770Y-54137571D01*
X245084888Y-54051251D01*
X245290703Y-53966210D01*
X245684029Y-53573570D01*
X245897157Y-53060300D01*
X245897642Y-52504539D01*
X245685410Y-51990897D01*
X245292770Y-51597571D01*
X244779500Y-51384443D01*
X244223739Y-51383958D01*
X243710097Y-51596190D01*
X243316771Y-51988830D01*
X243103643Y-52502100D01*
X243103158Y-53057861D01*
X194961529Y-53057861D01*
X195259380Y-52934792D01*
X195681310Y-52513597D01*
X195909939Y-51962998D01*
X195910459Y-51366818D01*
X195682792Y-50815820D01*
X195261597Y-50393890D01*
X194710998Y-50165261D01*
X194114818Y-50164741D01*
X193563820Y-50392408D01*
X193141890Y-50813603D01*
X192913261Y-51364202D01*
X192912741Y-51960382D01*
X181788385Y-51960382D01*
X181909919Y-51660188D01*
X181901513Y-50611953D01*
X181638782Y-49977663D01*
X196805369Y-49977663D01*
X196953931Y-50337212D01*
X197228779Y-50612540D01*
X197588068Y-50761730D01*
X197977101Y-50762069D01*
X198336650Y-50613507D01*
X198611978Y-50338659D01*
X198732073Y-50049439D01*
X200661078Y-48120434D01*
X200701263Y-48120469D01*
X201060812Y-47971907D01*
X201336140Y-47697059D01*
X201485330Y-47337770D01*
X201485669Y-46948737D01*
X201337107Y-46589188D01*
X201062259Y-46313860D01*
X200702970Y-46164670D01*
X200313937Y-46164331D01*
X199954388Y-46312893D01*
X199679060Y-46587741D01*
X199529870Y-46947030D01*
X199529834Y-46988654D01*
X197712450Y-48806038D01*
X197589775Y-48805931D01*
X197230226Y-48954493D01*
X196954898Y-49229341D01*
X196805708Y-49588630D01*
X196805369Y-49977663D01*
X181638782Y-49977663D01*
X181516543Y-49682553D01*
X181145822Y-49461784D01*
X179450405Y-51157200D01*
X179091195Y-51157200D01*
X177395778Y-49461784D01*
X177025057Y-49682553D01*
X176631681Y-50654212D01*
X168351200Y-50654212D01*
X168351200Y-49282178D01*
X177575384Y-49282178D01*
X179270800Y-50977595D01*
X180966216Y-49282178D01*
X180745447Y-48911457D01*
X179773788Y-48518081D01*
X178725553Y-48526487D01*
X177796153Y-48911457D01*
X177575384Y-49282178D01*
X168351200Y-49282178D01*
X168351200Y-48333222D01*
X174575644Y-48333222D01*
X174796413Y-48703943D01*
X175768072Y-49097319D01*
X176816307Y-49088913D01*
X177745707Y-48703943D01*
X177966476Y-48333222D01*
X176271060Y-46637805D01*
X174575644Y-48333222D01*
X168351200Y-48333222D01*
X168351200Y-45955212D01*
X173631941Y-45955212D01*
X173640347Y-47003447D01*
X174025317Y-47932847D01*
X174396038Y-48153616D01*
X176091455Y-46458200D01*
X176450665Y-46458200D01*
X178146082Y-48153616D01*
X178516803Y-47932847D01*
X178902549Y-46980034D01*
X179635083Y-46980034D01*
X180035393Y-47948858D01*
X180775983Y-48690742D01*
X181744107Y-49092742D01*
X182792374Y-49093657D01*
X183761198Y-48693347D01*
X184503082Y-47952757D01*
X184905082Y-46984633D01*
X184905997Y-45936366D01*
X184505687Y-44967542D01*
X183765097Y-44225658D01*
X182796973Y-43823658D01*
X181748706Y-43822743D01*
X180779882Y-44223053D01*
X180037998Y-44963643D01*
X179635998Y-45931767D01*
X179635083Y-46980034D01*
X178902549Y-46980034D01*
X178910179Y-46961188D01*
X178901773Y-45912953D01*
X178516803Y-44983553D01*
X178146082Y-44762784D01*
X176450665Y-46458200D01*
X176091455Y-46458200D01*
X174396038Y-44762784D01*
X174025317Y-44983553D01*
X173631941Y-45955212D01*
X168351200Y-45955212D01*
X168351200Y-44616055D01*
X168354711Y-44605856D01*
X168357795Y-44583178D01*
X174575644Y-44583178D01*
X176271060Y-46278595D01*
X177966476Y-44583178D01*
X177745707Y-44212457D01*
X176774048Y-43819081D01*
X175725813Y-43827487D01*
X174796413Y-44212457D01*
X174575644Y-44583178D01*
X168357795Y-44583178D01*
X168469997Y-43758303D01*
X168829594Y-43141593D01*
X169397822Y-42709439D01*
X170146601Y-42512245D01*
X170153865Y-42512023D01*
X170200000Y-42521200D01*
D27*
X194310000Y-67208400D03*
X230022400Y-80236000D03*
X211785200Y-66827400D03*
X214249000Y-69164200D03*
X214183498Y-73787000D03*
X234975400Y-64871600D03*
X223418400Y-65862200D03*
X227914200Y-57404000D03*
X224180400Y-56870600D03*
X211963000Y-86791800D03*
X212090000Y-97078800D03*
X212039200Y-91059000D03*
X213766400Y-92557600D03*
X230276400Y-91770200D03*
X221742000Y-91567000D03*
X229412800Y-82448400D03*
X232613200Y-79095600D03*
X232816400Y-64871600D03*
X227228400Y-67411600D03*
X226364800Y-70916800D03*
X238781400Y-74371200D03*
X211785200Y-76047600D03*
X224028000Y-59131200D03*
X222199200Y-65887600D03*
X216560400Y-59893200D03*
X214122000Y-59917200D03*
X204978000Y-52527200D03*
X210718400Y-53644800D03*
X209550000Y-51155600D03*
X233934000Y-45567600D03*
X236169200Y-57099200D03*
X238353600Y-53441600D03*
X228549200Y-51816000D03*
X219760800Y-51816000D03*
X223367600Y-51017140D03*
X225044000Y-51017140D03*
X230174800Y-45516800D03*
X202895200Y-45770800D03*
X197154800Y-52273200D03*
X200456800Y-48531122D03*
X201828400Y-50762820D03*
X201106740Y-51155600D03*
X199034400Y-49762820D03*
X213856000Y-75946000D03*
X176466500Y-58928000D03*
X174879000Y-52451000D03*
X242214400Y-92811600D03*
X199326500Y-87741461D03*
X174345600Y-74066400D03*
X170129200Y-74066400D03*
X180784490Y-77127100D03*
X176105629Y-87538261D03*
X206687229Y-88338361D03*
X206484029Y-91233961D03*
X183725629Y-87741461D03*
X185757629Y-87741461D03*
X208000600Y-78079600D03*
X177901600Y-92303600D03*
X178104800Y-87782400D03*
X205366519Y-88236771D03*
X209956400Y-76200000D03*
X204470000Y-66040000D03*
X208299358Y-66516558D03*
X208851500Y-82677000D03*
X209740500Y-81978500D03*
X203073000Y-92519500D03*
X203136500Y-91503500D03*
X203203517Y-80916390D03*
X183642000Y-77724000D03*
X195376800Y-75488800D03*
X192887600Y-68122800D03*
X173641839Y-91043461D03*
X190611756Y-73900714D03*
X204226156Y-73303814D03*
X201622656Y-73278414D03*
X182054500Y-64566800D03*
X181432200Y-69672200D03*
X190367729Y-88859061D03*
X180576029Y-87690661D03*
X175978629Y-92301461D03*
X173514829Y-87208061D03*
X205171829Y-91966961D03*
X176631600Y-66446400D03*
X176661798Y-69024500D03*
X180492400Y-81127600D03*
X180492400Y-80060800D03*
X179387500Y-62407800D03*
X180314600Y-66268600D03*
X213664800Y-70434200D03*
X231140000Y-81991211D03*
X217271600Y-68478400D03*
X231140000Y-75184000D03*
X222046800Y-64312800D03*
X204216000Y-64922400D03*
X206095600Y-78638400D03*
X207835500Y-80911700D03*
X216154000Y-90360500D03*
X215036400Y-64871600D03*
X197783438Y-49784000D03*
X200507600Y-47142400D03*
X208051400Y-69291200D03*
X208051400Y-73202800D03*
X205486000Y-74104500D03*
X207518000Y-71420200D03*
X209143600Y-79438500D03*
X209245200Y-72567800D03*
X206933800Y-75971400D03*
X207899000Y-84455000D03*
X200660000Y-79946500D03*
X203454000Y-79933800D03*
X206890856Y-76936600D03*
X210058000Y-78930500D03*
X214223600Y-71069200D03*
X234035600Y-69011800D03*
X226060000Y-68910200D03*
X229483154Y-69176910D03*
X221322890Y-71429273D03*
X229260400Y-67310000D03*
X216966800Y-71475600D03*
X229362000Y-75031600D03*
X230022833Y-69640126D03*
X223307603Y-70197679D03*
X227915776Y-69775705D03*
X230022400Y-67729090D03*
X215678808Y-71424800D03*
X227330000Y-75031600D03*
X224840800Y-75234800D03*
X215493600Y-70307200D03*
X213868000Y-67081400D03*
X215138000Y-66040000D03*
X215138000Y-66929000D03*
X216154000Y-66040000D03*
X223824800Y-80060800D03*
X225983800Y-72085200D03*
X223596200Y-61798200D03*
X216585800Y-62585600D03*
X224383600Y-64947800D03*
X222250000Y-63195200D03*
X227101400Y-66141600D03*
X220218000Y-63271400D03*
X216687400Y-65024000D03*
X223418400Y-62814200D03*
X198882000Y-68834000D03*
X198831200Y-73355200D03*
X242874800Y-81559400D03*
X226009200Y-81838800D03*
X220243400Y-69926200D03*
X222316570Y-69918268D03*
X224993200Y-81432400D03*
D28*
X244500400Y-52781200D03*
X244500400Y-55321200D03*
X244500400Y-57861200D03*
X244500400Y-60401200D03*
X244500400Y-62941200D03*
X244500400Y-65481200D03*
X244500400Y-68021200D03*
X244500400Y-70561200D03*
X244500400Y-73101200D03*
X244500400Y-75641200D03*
X244500400Y-78181200D03*
X244500400Y-80721200D03*
X244500400Y-83261200D03*
X244500400Y-85801200D03*
X244500400Y-88341200D03*
X244500400Y-90881200D03*
X197104000Y-93535500D03*
X197104000Y-90995500D03*
X197104000Y-88455500D03*
X197104000Y-85915500D03*
X197104000Y-83375500D03*
X197104000Y-80835500D03*
X236855000Y-85852000D03*
X236855000Y-83352000D03*
X194411600Y-51663600D03*
X206552800Y-95338900D03*
X204012800Y-95338900D03*
X235668400Y-93332700D03*
X238208400Y-93332700D03*
X169672398Y-52935918D03*
X169672398Y-60035918D03*
X182270540Y-46458200D03*
X176271060Y-46458200D03*
X179270800Y-51157200D03*
X234869800Y-76358200D03*
X234869800Y-71478200D03*
X209550000Y-57658000D03*
X209550000Y-60198000D03*
X207010000Y-57658000D03*
X207010000Y-60198000D03*
X204470000Y-57658000D03*
X204470000Y-60198000D03*
M02*
