%TF.GenerationSoftware,KiCad,Pcbnew,4.0.5-e0-6337~49~ubuntu16.04.1*%
%TF.CreationDate,2017-07-25T12:16:49-07:00*%
%TF.ProjectId,mcphail-main-board,6D63706861696C2D6D61696E2D626F61,1.0*%
%TF.FileFunction,Legend,Top*%
%FSLAX46Y46*%
G04 Gerber Fmt 4.6, Leading zero omitted, Abs format (unit mm)*
G04 Created by KiCad (PCBNEW 4.0.5-e0-6337~49~ubuntu16.04.1) date Tue Jul 25 12:16:49 2017*
%MOMM*%
%LPD*%
G01*
G04 APERTURE LIST*
%ADD10C,0.350000*%
%ADD11C,0.152400*%
%ADD12C,0.150000*%
%ADD13C,0.050000*%
%ADD14C,0.254000*%
%ADD15C,0.127000*%
%ADD16C,0.200000*%
%ADD17C,0.300000*%
%ADD18C,0.203200*%
%ADD19R,2.652400X5.252400*%
%ADD20C,10.352400*%
%ADD21R,1.152400X1.752400*%
%ADD22R,0.952400X0.902400*%
%ADD23R,1.152400X1.402400*%
%ADD24R,1.152400X2.652400*%
%ADD25R,1.752400X1.152400*%
%ADD26R,2.651760X1.953260*%
%ADD27R,2.184400X2.184400*%
%ADD28O,2.184400X2.184400*%
%ADD29R,2.184400X1.879600*%
%ADD30O,2.184400X1.879600*%
%ADD31R,1.552400X1.052400*%
%ADD32R,1.352400X1.302400*%
%ADD33R,1.602400X1.352400*%
%ADD34R,0.852400X1.152400*%
%ADD35R,1.152400X0.852400*%
%ADD36R,0.552400X1.502400*%
%ADD37R,1.752400X1.552400*%
%ADD38C,1.352400*%
%ADD39R,2.052400X2.052400*%
%ADD40R,1.879600X1.879600*%
%ADD41O,1.879600X1.879600*%
%ADD42C,1.676400*%
%ADD43C,4.152400*%
%ADD44R,1.152400X3.652400*%
%ADD45R,1.752400X3.552400*%
%ADD46R,0.652400X0.752400*%
%ADD47R,0.952400X1.852400*%
%ADD48R,1.652400X0.752400*%
%ADD49R,1.652400X0.702400*%
%ADD50R,0.702400X1.652400*%
%ADD51R,1.902400X0.802400*%
%ADD52R,0.882400X0.452400*%
%ADD53R,0.452400X0.882400*%
%ADD54R,1.402400X1.402400*%
%ADD55R,0.952500X0.952500*%
%ADD56C,1.879600*%
%ADD57R,2.057400X1.549400*%
%ADD58C,1.752400*%
%ADD59R,1.152400X3.152400*%
%ADD60R,0.752400X0.652400*%
G04 APERTURE END LIST*
D10*
D11*
X76251821Y-80077889D02*
X76251821Y-81577889D01*
X79501821Y-80077889D02*
X76251821Y-80077889D01*
X92001821Y-80077889D02*
X92001821Y-81577889D01*
X91751821Y-80077889D02*
X92001821Y-80077889D01*
X88501821Y-80077889D02*
X91751821Y-80077889D01*
X88466315Y-80044502D02*
G75*
G03X79501821Y-80077889I-4464494J-4783387D01*
G01*
X79787327Y-89111276D02*
G75*
G03X88751821Y-89077889I4464494J4783387D01*
G01*
X79751821Y-89077889D02*
X76501821Y-89077889D01*
X76501821Y-89077889D02*
X76251821Y-89077889D01*
X76251821Y-89077889D02*
X76251821Y-87577889D01*
X88751821Y-89077889D02*
X92001821Y-89077889D01*
X92001821Y-89077889D02*
X92001821Y-87577889D01*
D12*
X100016501Y-128706501D02*
X98016501Y-128706501D01*
X98016501Y-130756501D02*
X100016501Y-130756501D01*
D11*
X95114024Y-140276501D02*
X95114024Y-141546501D01*
X97844524Y-140276501D02*
X97844524Y-141546501D01*
D12*
X95114024Y-140276501D02*
X97844524Y-140276501D01*
X97844524Y-141546501D02*
X95114024Y-141546501D01*
X115496501Y-139667501D02*
X114496501Y-139667501D01*
X114496501Y-141367501D02*
X115496501Y-141367501D01*
D11*
X127037833Y-120366501D02*
X127037833Y-121636501D01*
X129768333Y-120366501D02*
X129768333Y-121636501D01*
D12*
X127037833Y-120366501D02*
X129768333Y-120366501D01*
X129768333Y-121636501D02*
X127037833Y-121636501D01*
X100016501Y-133556501D02*
X98016501Y-133556501D01*
X98016501Y-136506501D02*
X100016501Y-136506501D01*
X92376501Y-135436501D02*
X90376501Y-135436501D01*
X90376501Y-137486501D02*
X92376501Y-137486501D01*
D11*
X123537833Y-130116501D02*
X123537833Y-131386501D01*
X126268333Y-130116501D02*
X126268333Y-131386501D01*
D12*
X123537833Y-130116501D02*
X126268333Y-130116501D01*
X126268333Y-131386501D02*
X123537833Y-131386501D01*
X129786501Y-124467501D02*
X128786501Y-124467501D01*
X128786501Y-126167501D02*
X129786501Y-126167501D01*
D11*
X112684024Y-122816501D02*
X112684024Y-124086501D01*
X115414524Y-122816501D02*
X115414524Y-124086501D01*
D12*
X112684024Y-122816501D02*
X115414524Y-122816501D01*
X115414524Y-124086501D02*
X112684024Y-124086501D01*
X77556501Y-137736501D02*
X75556501Y-137736501D01*
X75556501Y-139786501D02*
X77556501Y-139786501D01*
D11*
X123727833Y-126066501D02*
X123727833Y-127336501D01*
X126458333Y-126066501D02*
X126458333Y-127336501D01*
D12*
X123727833Y-126066501D02*
X126458333Y-126066501D01*
X126458333Y-127336501D02*
X123727833Y-127336501D01*
X115096501Y-112276501D02*
X113096501Y-112276501D01*
X113096501Y-114326501D02*
X115096501Y-114326501D01*
X122376501Y-134217501D02*
X121376501Y-134217501D01*
X121376501Y-135917501D02*
X122376501Y-135917501D01*
X107426501Y-125826501D02*
X105426501Y-125826501D01*
X105426501Y-128776501D02*
X107426501Y-128776501D01*
X115096501Y-117126501D02*
X113096501Y-117126501D01*
X113096501Y-120076501D02*
X115096501Y-120076501D01*
X92376501Y-140286501D02*
X90376501Y-140286501D01*
X90376501Y-143236501D02*
X92376501Y-143236501D01*
D11*
X109437833Y-141266501D02*
X109437833Y-142536501D01*
X112168333Y-141266501D02*
X112168333Y-142536501D01*
D12*
X109437833Y-141266501D02*
X112168333Y-141266501D01*
X112168333Y-142536501D02*
X109437833Y-142536501D01*
X122506501Y-112276501D02*
X120506501Y-112276501D01*
X120506501Y-115226501D02*
X122506501Y-115226501D01*
X107686501Y-120976501D02*
X105686501Y-120976501D01*
X105686501Y-123026501D02*
X107686501Y-123026501D01*
X100016501Y-123856501D02*
X98016501Y-123856501D01*
X98016501Y-125906501D02*
X100016501Y-125906501D01*
X106946501Y-131526501D02*
X104946501Y-131526501D01*
X104946501Y-134476501D02*
X106946501Y-134476501D01*
X84966501Y-137736501D02*
X82966501Y-137736501D01*
X82966501Y-139786501D02*
X84966501Y-139786501D01*
X83236501Y-123856501D02*
X81236501Y-123856501D01*
X81236501Y-125906501D02*
X83236501Y-125906501D01*
X85284833Y-142627501D02*
X84284833Y-142627501D01*
X84284833Y-144327501D02*
X85284833Y-144327501D01*
D11*
X117834024Y-117966501D02*
X117834024Y-119236501D01*
X120564524Y-117966501D02*
X120564524Y-119236501D01*
D12*
X117834024Y-117966501D02*
X120564524Y-117966501D01*
X120564524Y-119236501D02*
X117834024Y-119236501D01*
D11*
X116317833Y-134966501D02*
X116317833Y-136236501D01*
X119048333Y-134966501D02*
X119048333Y-136236501D01*
D12*
X116317833Y-134966501D02*
X119048333Y-134966501D01*
X119048333Y-136236501D02*
X116317833Y-136236501D01*
D11*
X119367833Y-130116501D02*
X119367833Y-131386501D01*
X122098333Y-130116501D02*
X122098333Y-131386501D01*
D12*
X119367833Y-130116501D02*
X122098333Y-130116501D01*
X122098333Y-131386501D02*
X119367833Y-131386501D01*
X129786501Y-127057501D02*
X128786501Y-127057501D01*
X128786501Y-128757501D02*
X129786501Y-128757501D01*
D11*
X132034024Y-82776501D02*
X132034024Y-84046501D01*
X134764524Y-82776501D02*
X134764524Y-84046501D01*
D12*
X132034024Y-82776501D02*
X134764524Y-82776501D01*
X134764524Y-84046501D02*
X132034024Y-84046501D01*
D11*
X109594024Y-97416501D02*
X109594024Y-98686501D01*
X112324524Y-97416501D02*
X112324524Y-98686501D01*
D12*
X109594024Y-97416501D02*
X112324524Y-97416501D01*
X112324524Y-98686501D02*
X109594024Y-98686501D01*
D11*
X117804024Y-92046501D02*
X117804024Y-93316501D01*
X120534524Y-92046501D02*
X120534524Y-93316501D01*
D12*
X117804024Y-92046501D02*
X120534524Y-92046501D01*
X120534524Y-93316501D02*
X117804024Y-93316501D01*
D11*
X131507833Y-87996501D02*
X131507833Y-89266501D01*
X134238333Y-87996501D02*
X134238333Y-89266501D01*
D12*
X131507833Y-87996501D02*
X134238333Y-87996501D01*
X134238333Y-89266501D02*
X131507833Y-89266501D01*
X82966501Y-105287501D02*
X81966501Y-105287501D01*
X81966501Y-106987501D02*
X82966501Y-106987501D01*
D11*
X119357833Y-96296501D02*
X119357833Y-97566501D01*
X122088333Y-96296501D02*
X122088333Y-97566501D01*
D12*
X119357833Y-96296501D02*
X122088333Y-96296501D01*
X122088333Y-97566501D02*
X119357833Y-97566501D01*
D11*
X114714024Y-97416501D02*
X114714024Y-98686501D01*
X117444524Y-97416501D02*
X117444524Y-98686501D01*
D12*
X114714024Y-97416501D02*
X117444524Y-97416501D01*
X117444524Y-98686501D02*
X114714024Y-98686501D01*
D11*
X111674024Y-101466501D02*
X111674024Y-102736501D01*
X114404524Y-101466501D02*
X114404524Y-102736501D01*
D12*
X111674024Y-101466501D02*
X114404524Y-101466501D01*
X114404524Y-102736501D02*
X111674024Y-102736501D01*
D11*
X122924024Y-92246501D02*
X122924024Y-93516501D01*
X125654524Y-92246501D02*
X125654524Y-93516501D01*
D12*
X122924024Y-92246501D02*
X125654524Y-92246501D01*
X125654524Y-93516501D02*
X122924024Y-93516501D01*
D11*
X103144024Y-91676501D02*
X103144024Y-92946501D01*
X105874524Y-91676501D02*
X105874524Y-92946501D01*
D12*
X103144024Y-91676501D02*
X105874524Y-91676501D01*
X105874524Y-92946501D02*
X103144024Y-92946501D01*
D11*
X93889501Y-104486501D02*
X93889501Y-105756501D01*
X96620001Y-104486501D02*
X96620001Y-105756501D01*
D12*
X93889501Y-104486501D02*
X96620001Y-104486501D01*
X96620001Y-105756501D02*
X93889501Y-105756501D01*
D11*
X106554024Y-102326501D02*
X106554024Y-103596501D01*
X109284524Y-102326501D02*
X109284524Y-103596501D01*
D12*
X106554024Y-102326501D02*
X109284524Y-102326501D01*
X109284524Y-103596501D02*
X106554024Y-103596501D01*
D11*
X115959501Y-101466501D02*
X115959501Y-102736501D01*
X118690001Y-101466501D02*
X118690001Y-102736501D01*
D12*
X115959501Y-101466501D02*
X118690001Y-101466501D01*
X118690001Y-102736501D02*
X115959501Y-102736501D01*
X139056501Y-119466501D02*
X137056501Y-119466501D01*
X137056501Y-121516501D02*
X139056501Y-121516501D01*
X105716501Y-106743499D02*
X105716501Y-108743499D01*
X107766501Y-108743499D02*
X107766501Y-106743499D01*
X139056501Y-124316501D02*
X137056501Y-124316501D01*
X137056501Y-126366501D02*
X139056501Y-126366501D01*
X133846501Y-98626501D02*
X131846501Y-98626501D01*
X131846501Y-100676501D02*
X133846501Y-100676501D01*
D11*
X132264024Y-103466501D02*
X132264024Y-104736501D01*
X134994524Y-103466501D02*
X134994524Y-104736501D01*
D12*
X132264024Y-103466501D02*
X134994524Y-103466501D01*
X134994524Y-104736501D02*
X132264024Y-104736501D01*
D11*
X138367833Y-100186501D02*
X138367833Y-101456501D01*
X141098333Y-100186501D02*
X141098333Y-101456501D01*
D12*
X138367833Y-100186501D02*
X141098333Y-100186501D01*
X141098333Y-101456501D02*
X138367833Y-101456501D01*
X145616501Y-96297501D02*
X144616501Y-96297501D01*
X144616501Y-97997501D02*
X145616501Y-97997501D01*
X148156501Y-126727501D02*
X147156501Y-126727501D01*
X147156501Y-128427501D02*
X148156501Y-128427501D01*
X87987361Y-108121561D02*
X87987361Y-107771041D01*
X87987361Y-104621441D02*
X87987361Y-104971961D01*
X92036941Y-108121561D02*
X92036941Y-107771041D01*
X87536061Y-108121561D02*
X87536061Y-107771041D01*
X87536061Y-104621441D02*
X87536061Y-104971961D01*
X92036941Y-104621441D02*
X92036941Y-104971961D01*
X87536061Y-108121561D02*
X92036941Y-108121561D01*
X87536061Y-104621441D02*
X92036941Y-104621441D01*
D11*
X116019262Y-87996501D02*
X116019262Y-89266501D01*
X118749762Y-87996501D02*
X118749762Y-89266501D01*
D12*
X116019262Y-87996501D02*
X118749762Y-87996501D01*
X118749762Y-89266501D02*
X116019262Y-89266501D01*
D11*
X93929262Y-92316501D02*
X93929262Y-93586501D01*
X96659762Y-92316501D02*
X96659762Y-93586501D01*
D12*
X93929262Y-92316501D02*
X96659762Y-92316501D01*
X96659762Y-93586501D02*
X93929262Y-93586501D01*
X137397361Y-145431561D02*
X137397361Y-145081041D01*
X137397361Y-141931441D02*
X137397361Y-142281961D01*
X141446941Y-145431561D02*
X141446941Y-145081041D01*
X136946061Y-145431561D02*
X136946061Y-145081041D01*
X136946061Y-141931441D02*
X136946061Y-142281961D01*
X141446941Y-141931441D02*
X141446941Y-142281961D01*
X136946061Y-145431561D02*
X141446941Y-145431561D01*
X136946061Y-141931441D02*
X141446941Y-141931441D01*
X82406262Y-134031500D02*
X82406262Y-136571500D01*
X82686262Y-131211500D02*
X82686262Y-132761500D01*
X82406262Y-134031500D02*
X79866262Y-134031500D01*
X79586262Y-132761500D02*
X79586262Y-131211500D01*
X79586262Y-131211500D02*
X82686262Y-131211500D01*
X79866262Y-134031500D02*
X79866262Y-136571500D01*
X79866262Y-136571500D02*
X82406262Y-136571500D01*
X109083881Y-117271500D02*
X109083881Y-119811500D01*
X109363881Y-114451500D02*
X109363881Y-116001500D01*
X109083881Y-117271500D02*
X106543881Y-117271500D01*
X106263881Y-116001500D02*
X106263881Y-114451500D01*
X106263881Y-114451500D02*
X109363881Y-114451500D01*
X106543881Y-117271500D02*
X106543881Y-119811500D01*
X106543881Y-119811500D02*
X109083881Y-119811500D01*
X78906500Y-115181501D02*
X78906500Y-127881501D01*
X78906500Y-127881501D02*
X76366500Y-127881501D01*
X76366500Y-127881501D02*
X76366500Y-115181501D01*
X79186500Y-112361501D02*
X79186500Y-113911501D01*
X78906500Y-115181501D02*
X76366500Y-115181501D01*
X76086500Y-113911501D02*
X76086500Y-112361501D01*
X76086500Y-112361501D02*
X79186500Y-112361501D01*
D13*
X118346501Y-71331501D02*
X130346501Y-71331501D01*
X118346501Y-77081501D02*
X118346501Y-71331501D01*
X130346501Y-77081501D02*
X118346501Y-77081501D01*
X130346501Y-71331501D02*
X130346501Y-77081501D01*
D14*
X113068501Y-77867501D02*
G75*
G03X113068501Y-77867501I-254000J0D01*
G01*
D12*
X111544501Y-80915501D02*
X111544501Y-85995501D01*
X111544501Y-85995501D02*
X116624501Y-85995501D01*
X116624501Y-85995501D02*
X116624501Y-80915501D01*
X116624501Y-78375501D02*
X114084501Y-78375501D01*
X116624501Y-80915501D02*
X116624501Y-78375501D01*
D11*
X74307701Y-76911500D02*
X74307701Y-71831500D01*
X117487701Y-76911500D02*
X74307701Y-76911500D01*
X117487701Y-71831500D02*
X117487701Y-76911500D01*
X74307701Y-71831500D02*
X117487701Y-71831500D01*
D12*
X140279120Y-82941160D02*
X149280880Y-82941160D01*
X140279120Y-86441280D02*
X149280880Y-86441280D01*
X149280880Y-86441280D02*
X149280880Y-71940420D01*
X149280880Y-71940420D02*
X140279120Y-71940420D01*
X140279120Y-71940420D02*
X140279120Y-86441280D01*
X138466901Y-132026501D02*
G75*
G03X138466901Y-132026501I-250000J0D01*
G01*
X140116901Y-138776501D02*
X140116901Y-137776501D01*
X140116901Y-137776501D02*
X141116901Y-137776501D01*
X141116901Y-137776501D02*
X141116901Y-138776501D01*
X138716901Y-132776501D02*
X137466901Y-132776501D01*
X137466901Y-132776501D02*
X137466901Y-131176501D01*
X137466901Y-131176501D02*
X136666901Y-131176501D01*
X136666901Y-131176501D02*
X136666901Y-135276501D01*
X137466901Y-132776501D02*
X136666901Y-132776501D01*
X142516901Y-132776501D02*
X143766901Y-132776501D01*
X143766901Y-132776501D02*
X143766901Y-131176501D01*
X143766901Y-131176501D02*
X144566901Y-131176501D01*
X144566901Y-131176501D02*
X144566901Y-135276501D01*
X143766901Y-132776501D02*
X144566901Y-132776501D01*
X138416901Y-138776501D02*
X142816901Y-138776501D01*
X138416901Y-133876501D02*
X138416901Y-137276501D01*
X138416901Y-137276501D02*
X139416901Y-137276501D01*
X139416901Y-137276501D02*
X139416901Y-133876501D01*
X139416901Y-133876501D02*
X138416901Y-133876501D01*
X142816901Y-133876501D02*
X142816901Y-137276501D01*
X142816901Y-137276501D02*
X141816901Y-137276501D01*
X141816901Y-137276501D02*
X141816901Y-133876501D01*
X141816901Y-133876501D02*
X142816901Y-133876501D01*
X140516901Y-132776501D02*
X140716901Y-132776501D01*
D15*
X144068881Y-123903501D02*
X144068881Y-122603501D01*
D12*
X145243881Y-122653501D02*
X145943881Y-122653501D01*
X145943881Y-123853501D02*
X145243881Y-123853501D01*
D15*
X126868881Y-104763501D02*
X126868881Y-103463501D01*
D12*
X128043881Y-103513501D02*
X128743881Y-103513501D01*
X128743881Y-104713501D02*
X128043881Y-104713501D01*
D15*
X126868881Y-108833501D02*
X126868881Y-107533501D01*
D12*
X128043881Y-107583501D02*
X128743881Y-107583501D01*
X128743881Y-108783501D02*
X128043881Y-108783501D01*
D11*
X113249501Y-142206501D02*
X113249501Y-143476501D01*
X115980001Y-142206501D02*
X115980001Y-143476501D01*
D12*
X113249501Y-142206501D02*
X115980001Y-142206501D01*
X115980001Y-143476501D02*
X113249501Y-143476501D01*
D11*
X129941166Y-112266501D02*
X129941166Y-113536501D01*
X132671666Y-112266501D02*
X132671666Y-113536501D01*
D12*
X129941166Y-112266501D02*
X132671666Y-112266501D01*
X132671666Y-113536501D02*
X129941166Y-113536501D01*
D11*
X119463071Y-126066501D02*
X119463071Y-127336501D01*
X122193571Y-126066501D02*
X122193571Y-127336501D01*
D12*
X119463071Y-126066501D02*
X122193571Y-126066501D01*
X122193571Y-127336501D02*
X119463071Y-127336501D01*
D11*
X112053071Y-135566501D02*
X112053071Y-136836501D01*
X114783571Y-135566501D02*
X114783571Y-136836501D01*
D12*
X112053071Y-135566501D02*
X114783571Y-135566501D01*
X114783571Y-136836501D02*
X112053071Y-136836501D01*
D11*
X100091166Y-141266501D02*
X100091166Y-142536501D01*
X102821666Y-141266501D02*
X102821666Y-142536501D01*
D12*
X100091166Y-141266501D02*
X102821666Y-141266501D01*
X102821666Y-142536501D02*
X100091166Y-142536501D01*
D11*
X117691166Y-122016501D02*
X117691166Y-123286501D01*
X120421666Y-122016501D02*
X120421666Y-123286501D01*
D12*
X117691166Y-122016501D02*
X120421666Y-122016501D01*
X120421666Y-123286501D02*
X117691166Y-123286501D01*
D11*
X127729501Y-133646501D02*
X127729501Y-134916501D01*
X130460001Y-133646501D02*
X130460001Y-134916501D01*
D12*
X127729501Y-133646501D02*
X130460001Y-133646501D01*
X130460001Y-134916501D02*
X127729501Y-134916501D01*
D11*
X129941166Y-116316501D02*
X129941166Y-117586501D01*
X132671666Y-116316501D02*
X132671666Y-117586501D01*
D12*
X129941166Y-116316501D02*
X132671666Y-116316501D01*
X132671666Y-117586501D02*
X129941166Y-117586501D01*
D11*
X104931166Y-141266501D02*
X104931166Y-142536501D01*
X107661666Y-141266501D02*
X107661666Y-142536501D01*
D12*
X104931166Y-141266501D02*
X107661666Y-141266501D01*
X107661666Y-142536501D02*
X104931166Y-142536501D01*
D11*
X131179501Y-133646501D02*
X131179501Y-134916501D01*
X133910001Y-133646501D02*
X133910001Y-134916501D01*
D12*
X131179501Y-133646501D02*
X133910001Y-133646501D01*
X133910001Y-134916501D02*
X131179501Y-134916501D01*
D11*
X102611166Y-137216501D02*
X102611166Y-138486501D01*
X105341666Y-137216501D02*
X105341666Y-138486501D01*
D12*
X102611166Y-137216501D02*
X105341666Y-137216501D01*
X105341666Y-138486501D02*
X102611166Y-138486501D01*
D11*
X125101166Y-112266501D02*
X125101166Y-113536501D01*
X127831666Y-112266501D02*
X127831666Y-113536501D01*
D12*
X125101166Y-112266501D02*
X127831666Y-112266501D01*
X127831666Y-113536501D02*
X125101166Y-113536501D01*
D11*
X120129501Y-136756501D02*
X120129501Y-138026501D01*
X122860001Y-136756501D02*
X122860001Y-138026501D01*
D12*
X120129501Y-136756501D02*
X122860001Y-136756501D01*
X122860001Y-138026501D02*
X120129501Y-138026501D01*
D11*
X123579501Y-138216501D02*
X123579501Y-139486501D01*
X126310001Y-138216501D02*
X126310001Y-139486501D01*
D12*
X123579501Y-138216501D02*
X126310001Y-138216501D01*
X126310001Y-139486501D02*
X123579501Y-139486501D01*
D11*
X109541166Y-131516501D02*
X109541166Y-132786501D01*
X112271666Y-131516501D02*
X112271666Y-132786501D01*
D12*
X109541166Y-131516501D02*
X112271666Y-131516501D01*
X112271666Y-132786501D02*
X109541166Y-132786501D01*
D11*
X110021166Y-126866501D02*
X110021166Y-128136501D01*
X112751666Y-126866501D02*
X112751666Y-128136501D01*
D12*
X110021166Y-126866501D02*
X112751666Y-126866501D01*
X112751666Y-128136501D02*
X110021166Y-128136501D01*
D11*
X117399501Y-140806501D02*
X117399501Y-142076501D01*
X120130001Y-140806501D02*
X120130001Y-142076501D01*
D12*
X117399501Y-140806501D02*
X120130001Y-140806501D01*
X120130001Y-142076501D02*
X117399501Y-142076501D01*
D11*
X124279501Y-134166501D02*
X124279501Y-135436501D01*
X127010001Y-134166501D02*
X127010001Y-135436501D01*
D12*
X124279501Y-134166501D02*
X127010001Y-134166501D01*
X127010001Y-135436501D02*
X124279501Y-135436501D01*
D11*
X127539501Y-129596501D02*
X127539501Y-130866501D01*
X130270001Y-129596501D02*
X130270001Y-130866501D01*
D12*
X127539501Y-129596501D02*
X130270001Y-129596501D01*
X130270001Y-130866501D02*
X127539501Y-130866501D01*
X81020071Y-142627501D02*
X80020071Y-142627501D01*
X80020071Y-144327501D02*
X81020071Y-144327501D01*
X76660071Y-142627501D02*
X75660071Y-142627501D01*
X75660071Y-144327501D02*
X76660071Y-144327501D01*
D11*
X131064976Y-120366501D02*
X131064976Y-121636501D01*
X133795476Y-120366501D02*
X133795476Y-121636501D01*
D12*
X131064976Y-120366501D02*
X133795476Y-120366501D01*
X133795476Y-121636501D02*
X131064976Y-121636501D01*
D11*
X114861166Y-126866501D02*
X114861166Y-128136501D01*
X117591666Y-126866501D02*
X117591666Y-128136501D01*
D12*
X114861166Y-126866501D02*
X117591666Y-126866501D01*
X117591666Y-128136501D02*
X114861166Y-128136501D01*
D11*
X130989501Y-129596501D02*
X130989501Y-130866501D01*
X133720001Y-129596501D02*
X133720001Y-130866501D01*
D12*
X130989501Y-129596501D02*
X133720001Y-129596501D01*
X133720001Y-130866501D02*
X130989501Y-130866501D01*
D11*
X122531166Y-122016501D02*
X122531166Y-123286501D01*
X125261666Y-122016501D02*
X125261666Y-123286501D01*
D12*
X122531166Y-122016501D02*
X125261666Y-122016501D01*
X125261666Y-123286501D02*
X122531166Y-123286501D01*
D11*
X121064976Y-142266501D02*
X121064976Y-143536501D01*
X123795476Y-142266501D02*
X123795476Y-143536501D01*
D12*
X121064976Y-142266501D02*
X123795476Y-142266501D01*
X123795476Y-143536501D02*
X121064976Y-143536501D01*
D11*
X114381166Y-130916501D02*
X114381166Y-132186501D01*
X117111666Y-130916501D02*
X117111666Y-132186501D01*
D12*
X114381166Y-130916501D02*
X117111666Y-130916501D01*
X117111666Y-132186501D02*
X114381166Y-132186501D01*
D11*
X127729501Y-137696501D02*
X127729501Y-138966501D01*
X130460001Y-137696501D02*
X130460001Y-138966501D01*
D12*
X127729501Y-137696501D02*
X130460001Y-137696501D01*
X130460001Y-138966501D02*
X127729501Y-138966501D01*
D11*
X107451166Y-137216501D02*
X107451166Y-138486501D01*
X110181666Y-137216501D02*
X110181666Y-138486501D01*
D12*
X107451166Y-137216501D02*
X110181666Y-137216501D01*
X110181666Y-138486501D02*
X107451166Y-138486501D01*
D11*
X125101166Y-116316501D02*
X125101166Y-117586501D01*
X127831666Y-116316501D02*
X127831666Y-117586501D01*
D12*
X125101166Y-116316501D02*
X127831666Y-116316501D01*
X127831666Y-117586501D02*
X125101166Y-117586501D01*
D11*
X119409501Y-100346501D02*
X119409501Y-101616501D01*
X122140001Y-100346501D02*
X122140001Y-101616501D01*
D12*
X119409501Y-100346501D02*
X122140001Y-100346501D01*
X122140001Y-101616501D02*
X119409501Y-101616501D01*
D11*
X135319501Y-86826501D02*
X135319501Y-88096501D01*
X138050001Y-86826501D02*
X138050001Y-88096501D01*
D12*
X135319501Y-86826501D02*
X138050001Y-86826501D01*
X138050001Y-88096501D02*
X135319501Y-88096501D01*
D11*
X126619501Y-96296501D02*
X126619501Y-97566501D01*
X129350001Y-96296501D02*
X129350001Y-97566501D01*
D12*
X126619501Y-96296501D02*
X129350001Y-96296501D01*
X129350001Y-97566501D02*
X126619501Y-97566501D01*
D11*
X131149501Y-92046501D02*
X131149501Y-93316501D01*
X133880001Y-92046501D02*
X133880001Y-93316501D01*
D12*
X131149501Y-92046501D02*
X133880001Y-92046501D01*
X133880001Y-93316501D02*
X131149501Y-93316501D01*
D11*
X123169501Y-96296501D02*
X123169501Y-97566501D01*
X125900001Y-96296501D02*
X125900001Y-97566501D01*
D12*
X123169501Y-96296501D02*
X125900001Y-96296501D01*
X125900001Y-97566501D02*
X123169501Y-97566501D01*
D11*
X127209501Y-92246501D02*
X127209501Y-93516501D01*
X129940001Y-92246501D02*
X129940001Y-93516501D01*
D12*
X127209501Y-92246501D02*
X129940001Y-92246501D01*
X129940001Y-93516501D02*
X127209501Y-93516501D01*
D11*
X136319501Y-82776501D02*
X136319501Y-84046501D01*
X139050001Y-82776501D02*
X139050001Y-84046501D01*
D12*
X136319501Y-82776501D02*
X139050001Y-82776501D01*
X139050001Y-84046501D02*
X136319501Y-84046501D01*
D11*
X138963071Y-96136501D02*
X138963071Y-97406501D01*
X141693571Y-96136501D02*
X141693571Y-97406501D01*
D12*
X138963071Y-96136501D02*
X141693571Y-96136501D01*
X141693571Y-97406501D02*
X138963071Y-97406501D01*
D11*
X142179501Y-102886501D02*
X142179501Y-104156501D01*
X144910001Y-102886501D02*
X144910001Y-104156501D01*
D12*
X142179501Y-102886501D02*
X144910001Y-102886501D01*
X144910001Y-104156501D02*
X142179501Y-104156501D01*
D11*
X135789501Y-108286501D02*
X135789501Y-109556501D01*
X138520001Y-108286501D02*
X138520001Y-109556501D01*
D12*
X135789501Y-108286501D02*
X138520001Y-108286501D01*
X138520001Y-109556501D02*
X135789501Y-109556501D01*
D11*
X136549501Y-104236501D02*
X136549501Y-105506501D01*
X139280001Y-104236501D02*
X139280001Y-105506501D01*
D12*
X136549501Y-104236501D02*
X139280001Y-104236501D01*
X139280001Y-105506501D02*
X136549501Y-105506501D01*
X110576500Y-107510405D02*
X110576500Y-108010405D01*
X111526500Y-108010405D02*
X111526500Y-107510405D01*
D11*
X143369501Y-98836501D02*
X143369501Y-100106501D01*
X146100001Y-98836501D02*
X146100001Y-100106501D01*
D12*
X143369501Y-98836501D02*
X146100001Y-98836501D01*
X146100001Y-100106501D02*
X143369501Y-100106501D01*
D11*
X149083071Y-122606501D02*
X149083071Y-123876501D01*
X151813571Y-122606501D02*
X151813571Y-123876501D01*
D12*
X149083071Y-122606501D02*
X151813571Y-122606501D01*
X151813571Y-123876501D02*
X149083071Y-123876501D01*
D11*
X146819501Y-98836501D02*
X146819501Y-100106501D01*
X149550001Y-98836501D02*
X149550001Y-100106501D01*
D12*
X146819501Y-98836501D02*
X149550001Y-98836501D01*
X149550001Y-100106501D02*
X146819501Y-100106501D01*
D11*
X131883071Y-107516501D02*
X131883071Y-108786501D01*
X134613571Y-107516501D02*
X134613571Y-108786501D01*
D12*
X131883071Y-107516501D02*
X134613571Y-107516501D01*
X134613571Y-108786501D02*
X131883071Y-108786501D01*
D11*
X139999501Y-106936501D02*
X139999501Y-108206501D01*
X142730001Y-106936501D02*
X142730001Y-108206501D01*
D12*
X139999501Y-106936501D02*
X142730001Y-106936501D01*
X142730001Y-108206501D02*
X139999501Y-108206501D01*
X109575181Y-94705501D02*
X112575181Y-94705501D01*
X109575181Y-92205501D02*
X112575181Y-92205501D01*
D10*
X109468501Y-95455501D02*
X109468501Y-95455501D01*
X116390521Y-96768681D02*
X116390521Y-96768681D01*
D12*
X85811901Y-112501901D02*
X85811901Y-112616901D01*
X85811901Y-121401901D02*
X85811901Y-121286901D01*
X81661901Y-121401901D02*
X81661901Y-121286901D01*
X81661901Y-112501901D02*
X85811901Y-112501901D01*
X81661901Y-121401901D02*
X85811901Y-121401901D01*
X81661901Y-112501901D02*
X80286901Y-112501901D01*
X93961901Y-112501901D02*
X93961901Y-112616901D01*
X93961901Y-121401901D02*
X93961901Y-121286901D01*
X89811901Y-121401901D02*
X89811901Y-121286901D01*
X89811901Y-112501901D02*
X93961901Y-112501901D01*
X89811901Y-121401901D02*
X93961901Y-121401901D01*
X89811901Y-112501901D02*
X88436901Y-112501901D01*
X102111901Y-112501901D02*
X102111901Y-112616901D01*
X102111901Y-121401901D02*
X102111901Y-121286901D01*
X97961901Y-121401901D02*
X97961901Y-121286901D01*
X97961901Y-112501901D02*
X102111901Y-112501901D01*
X97961901Y-121401901D02*
X102111901Y-121401901D01*
X97961901Y-112501901D02*
X96586901Y-112501901D01*
X94441901Y-124081901D02*
X94441901Y-124196901D01*
X94441901Y-132981901D02*
X94441901Y-132866901D01*
X90291901Y-132981901D02*
X90291901Y-132866901D01*
X90291901Y-124081901D02*
X94441901Y-124081901D01*
X90291901Y-132981901D02*
X94441901Y-132981901D01*
X90291901Y-124081901D02*
X88916901Y-124081901D01*
X137021901Y-71431901D02*
X137021901Y-71546901D01*
X137021901Y-80331901D02*
X137021901Y-80216901D01*
X132871901Y-80331901D02*
X132871901Y-80216901D01*
X132871901Y-71431901D02*
X137021901Y-71431901D01*
X132871901Y-80331901D02*
X137021901Y-80331901D01*
X132871901Y-71431901D02*
X131496901Y-71431901D01*
D16*
X96645499Y-79011501D02*
G75*
G03X96645499Y-79011501I-254951J0D01*
G01*
D12*
X97215548Y-79086501D02*
X97215548Y-79761501D01*
X107565548Y-79086501D02*
X107565548Y-79761501D01*
X107565548Y-89436501D02*
X107565548Y-88761501D01*
X97215548Y-89436501D02*
X97215548Y-88761501D01*
X97215548Y-79086501D02*
X97890548Y-79086501D01*
X97215548Y-89436501D02*
X97890548Y-89436501D01*
X107565548Y-89436501D02*
X106890548Y-89436501D01*
X107565548Y-79086501D02*
X106890548Y-79086501D01*
X97215548Y-79761501D02*
X95940548Y-79761501D01*
D17*
X78482641Y-92441504D02*
G75*
G03X78482641Y-92441504I-115003J0D01*
G01*
D12*
X79251738Y-92787504D02*
X79251738Y-92932504D01*
X83401738Y-92787504D02*
X83401738Y-92932504D01*
X83401738Y-97937504D02*
X83401738Y-97792504D01*
X79251738Y-97937504D02*
X79251738Y-97792504D01*
X79251738Y-92787504D02*
X83401738Y-92787504D01*
X79251738Y-97937504D02*
X83401738Y-97937504D01*
D17*
X77149308Y-98901504D02*
G75*
G03X77149308Y-98901504I-115003J0D01*
G01*
D12*
X77918405Y-99247504D02*
X77918405Y-99392504D01*
X82068405Y-99247504D02*
X82068405Y-99392504D01*
X82068405Y-104397504D02*
X82068405Y-104252504D01*
X77918405Y-104397504D02*
X77918405Y-104252504D01*
X77918405Y-99247504D02*
X82068405Y-99247504D01*
X77918405Y-104397504D02*
X82068405Y-104397504D01*
D11*
X138370000Y-113808000D02*
G75*
G03X138370000Y-113808000I-127000J0D01*
G01*
D12*
X142425000Y-113690000D02*
X142425000Y-114465000D01*
X138125000Y-117990000D02*
X138125000Y-117215000D01*
X142425000Y-117990000D02*
X142425000Y-117215000D01*
X138125000Y-117990000D02*
X138900000Y-117990000D01*
X142425000Y-117990000D02*
X141650000Y-117990000D01*
X142425000Y-113690000D02*
X141650000Y-113690000D01*
D11*
X143450000Y-90408000D02*
G75*
G03X143450000Y-90408000I-127000J0D01*
G01*
D12*
X147505000Y-90290000D02*
X147505000Y-91065000D01*
X143205000Y-94590000D02*
X143205000Y-93815000D01*
X147505000Y-94590000D02*
X147505000Y-93815000D01*
X143205000Y-94590000D02*
X143980000Y-94590000D01*
X147505000Y-94590000D02*
X146730000Y-94590000D01*
X147505000Y-90290000D02*
X146730000Y-90290000D01*
X119729160Y-105029000D02*
X119680900Y-105029000D01*
X116930180Y-105730040D02*
X116930180Y-105029000D01*
X116930180Y-105029000D02*
X117179100Y-105029000D01*
X119729160Y-105029000D02*
X119929820Y-105029000D01*
X119929820Y-105029000D02*
X119929820Y-105730040D01*
D11*
X98504501Y-106275501D02*
X98504501Y-102770301D01*
X98504501Y-106275501D02*
X104498901Y-106275501D01*
X98504501Y-102770301D02*
X104498901Y-102770301D01*
X104498901Y-106275501D02*
X104498901Y-102770301D01*
D18*
X94863101Y-103738101D02*
X88863101Y-103738101D01*
X88863101Y-98738101D02*
G75*
G03X86363101Y-101238101I0J-2500000D01*
G01*
X94863101Y-103738101D02*
G75*
G03X97363101Y-101238101I0J2500000D01*
G01*
X97363101Y-101238101D02*
G75*
G03X94863101Y-98738101I-2500000J0D01*
G01*
X88863101Y-98738101D02*
X94863101Y-98738101D01*
X86363101Y-101238101D02*
G75*
G03X88863101Y-103738101I2500000J0D01*
G01*
D12*
X128970501Y-88006501D02*
X125922501Y-88006501D01*
X125922501Y-91456501D02*
X128970501Y-91456501D01*
X77433881Y-105256500D02*
X76933881Y-105256500D01*
X76933881Y-106206500D02*
X77433881Y-106206500D01*
X146813405Y-104450071D02*
X146956262Y-104497690D01*
X147003881Y-104545310D01*
X147051500Y-104640548D01*
X147051500Y-104783405D01*
X147003881Y-104878643D01*
X146956262Y-104926262D01*
X146861024Y-104973881D01*
X146480071Y-104973881D01*
X146480071Y-103973881D01*
X146813405Y-103973881D01*
X146908643Y-104021500D01*
X146956262Y-104069119D01*
X147003881Y-104164357D01*
X147003881Y-104259595D01*
X146956262Y-104354833D01*
X146908643Y-104402452D01*
X146813405Y-104450071D01*
X146480071Y-104450071D01*
X148003881Y-104973881D02*
X147432452Y-104973881D01*
X147718166Y-104973881D02*
X147718166Y-103973881D01*
X147622928Y-104116738D01*
X147527690Y-104211976D01*
X147432452Y-104259595D01*
X76537536Y-78756460D02*
X76680393Y-78804079D01*
X76728012Y-78851699D01*
X76775631Y-78946937D01*
X76775631Y-79089794D01*
X76728012Y-79185032D01*
X76680393Y-79232651D01*
X76585155Y-79280270D01*
X76204202Y-79280270D01*
X76204202Y-78280270D01*
X76537536Y-78280270D01*
X76632774Y-78327889D01*
X76680393Y-78375508D01*
X76728012Y-78470746D01*
X76728012Y-78565984D01*
X76680393Y-78661222D01*
X76632774Y-78708841D01*
X76537536Y-78756460D01*
X76204202Y-78756460D01*
X77156583Y-78994556D02*
X77632774Y-78994556D01*
X77061345Y-79280270D02*
X77394678Y-78280270D01*
X77728012Y-79280270D01*
X77918488Y-78280270D02*
X78489917Y-78280270D01*
X78204202Y-79280270D02*
X78204202Y-78280270D01*
X79347060Y-79280270D02*
X78775631Y-79280270D01*
X79061345Y-79280270D02*
X79061345Y-78280270D01*
X78966107Y-78423127D01*
X78870869Y-78518365D01*
X78775631Y-78565984D01*
X101975435Y-129885444D02*
X101927816Y-129933063D01*
X101784959Y-129980682D01*
X101689721Y-129980682D01*
X101546863Y-129933063D01*
X101451625Y-129837825D01*
X101404006Y-129742587D01*
X101356387Y-129552111D01*
X101356387Y-129409253D01*
X101404006Y-129218777D01*
X101451625Y-129123539D01*
X101546863Y-129028301D01*
X101689721Y-128980682D01*
X101784959Y-128980682D01*
X101927816Y-129028301D01*
X101975435Y-129075920D01*
X102356387Y-129075920D02*
X102404006Y-129028301D01*
X102499244Y-128980682D01*
X102737340Y-128980682D01*
X102832578Y-129028301D01*
X102880197Y-129075920D01*
X102927816Y-129171158D01*
X102927816Y-129266396D01*
X102880197Y-129409253D01*
X102308768Y-129980682D01*
X102927816Y-129980682D01*
X98808858Y-140951144D02*
X98761239Y-140998763D01*
X98618382Y-141046382D01*
X98523144Y-141046382D01*
X98380286Y-140998763D01*
X98285048Y-140903525D01*
X98237429Y-140808287D01*
X98189810Y-140617811D01*
X98189810Y-140474953D01*
X98237429Y-140284477D01*
X98285048Y-140189239D01*
X98380286Y-140094001D01*
X98523144Y-140046382D01*
X98618382Y-140046382D01*
X98761239Y-140094001D01*
X98808858Y-140141620D01*
X99142191Y-140046382D02*
X99761239Y-140046382D01*
X99427905Y-140427334D01*
X99570763Y-140427334D01*
X99666001Y-140474953D01*
X99713620Y-140522572D01*
X99761239Y-140617811D01*
X99761239Y-140855906D01*
X99713620Y-140951144D01*
X99666001Y-140998763D01*
X99570763Y-141046382D01*
X99285048Y-141046382D01*
X99189810Y-140998763D01*
X99142191Y-140951144D01*
X117877835Y-140874644D02*
X117830216Y-140922263D01*
X117687359Y-140969882D01*
X117592121Y-140969882D01*
X117449263Y-140922263D01*
X117354025Y-140827025D01*
X117306406Y-140731787D01*
X117258787Y-140541311D01*
X117258787Y-140398453D01*
X117306406Y-140207977D01*
X117354025Y-140112739D01*
X117449263Y-140017501D01*
X117592121Y-139969882D01*
X117687359Y-139969882D01*
X117830216Y-140017501D01*
X117877835Y-140065120D01*
X118734978Y-140303215D02*
X118734978Y-140969882D01*
X118496882Y-139922263D02*
X118258787Y-140636549D01*
X118877835Y-140636549D01*
X130732667Y-121041144D02*
X130685048Y-121088763D01*
X130542191Y-121136382D01*
X130446953Y-121136382D01*
X130304095Y-121088763D01*
X130208857Y-120993525D01*
X130161238Y-120898287D01*
X130113619Y-120707811D01*
X130113619Y-120564953D01*
X130161238Y-120374477D01*
X130208857Y-120279239D01*
X130304095Y-120184001D01*
X130446953Y-120136382D01*
X130542191Y-120136382D01*
X130685048Y-120184001D01*
X130732667Y-120231620D01*
X131637429Y-120136382D02*
X131161238Y-120136382D01*
X131113619Y-120612572D01*
X131161238Y-120564953D01*
X131256476Y-120517334D01*
X131494572Y-120517334D01*
X131589810Y-120564953D01*
X131637429Y-120612572D01*
X131685048Y-120707811D01*
X131685048Y-120945906D01*
X131637429Y-121041144D01*
X131589810Y-121088763D01*
X131494572Y-121136382D01*
X131256476Y-121136382D01*
X131161238Y-121088763D01*
X131113619Y-121041144D01*
X98849835Y-138182644D02*
X98802216Y-138230263D01*
X98659359Y-138277882D01*
X98564121Y-138277882D01*
X98421263Y-138230263D01*
X98326025Y-138135025D01*
X98278406Y-138039787D01*
X98230787Y-137849311D01*
X98230787Y-137706453D01*
X98278406Y-137515977D01*
X98326025Y-137420739D01*
X98421263Y-137325501D01*
X98564121Y-137277882D01*
X98659359Y-137277882D01*
X98802216Y-137325501D01*
X98849835Y-137373120D01*
X99706978Y-137277882D02*
X99516501Y-137277882D01*
X99421263Y-137325501D01*
X99373644Y-137373120D01*
X99278406Y-137515977D01*
X99230787Y-137706453D01*
X99230787Y-138087406D01*
X99278406Y-138182644D01*
X99326025Y-138230263D01*
X99421263Y-138277882D01*
X99611740Y-138277882D01*
X99706978Y-138230263D01*
X99754597Y-138182644D01*
X99802216Y-138087406D01*
X99802216Y-137849311D01*
X99754597Y-137754072D01*
X99706978Y-137706453D01*
X99611740Y-137658834D01*
X99421263Y-137658834D01*
X99326025Y-137706453D01*
X99278406Y-137754072D01*
X99230787Y-137849311D01*
X94335435Y-136615444D02*
X94287816Y-136663063D01*
X94144959Y-136710682D01*
X94049721Y-136710682D01*
X93906863Y-136663063D01*
X93811625Y-136567825D01*
X93764006Y-136472587D01*
X93716387Y-136282111D01*
X93716387Y-136139253D01*
X93764006Y-135948777D01*
X93811625Y-135853539D01*
X93906863Y-135758301D01*
X94049721Y-135710682D01*
X94144959Y-135710682D01*
X94287816Y-135758301D01*
X94335435Y-135805920D01*
X94668768Y-135710682D02*
X95335435Y-135710682D01*
X94906863Y-136710682D01*
X127232667Y-130791144D02*
X127185048Y-130838763D01*
X127042191Y-130886382D01*
X126946953Y-130886382D01*
X126804095Y-130838763D01*
X126708857Y-130743525D01*
X126661238Y-130648287D01*
X126613619Y-130457811D01*
X126613619Y-130314953D01*
X126661238Y-130124477D01*
X126708857Y-130029239D01*
X126804095Y-129934001D01*
X126946953Y-129886382D01*
X127042191Y-129886382D01*
X127185048Y-129934001D01*
X127232667Y-129981620D01*
X127804095Y-130314953D02*
X127708857Y-130267334D01*
X127661238Y-130219715D01*
X127613619Y-130124477D01*
X127613619Y-130076858D01*
X127661238Y-129981620D01*
X127708857Y-129934001D01*
X127804095Y-129886382D01*
X127994572Y-129886382D01*
X128089810Y-129934001D01*
X128137429Y-129981620D01*
X128185048Y-130076858D01*
X128185048Y-130124477D01*
X128137429Y-130219715D01*
X128089810Y-130267334D01*
X127994572Y-130314953D01*
X127804095Y-130314953D01*
X127708857Y-130362572D01*
X127661238Y-130410191D01*
X127613619Y-130505430D01*
X127613619Y-130695906D01*
X127661238Y-130791144D01*
X127708857Y-130838763D01*
X127804095Y-130886382D01*
X127994572Y-130886382D01*
X128089810Y-130838763D01*
X128137429Y-130791144D01*
X128185048Y-130695906D01*
X128185048Y-130505430D01*
X128137429Y-130410191D01*
X128089810Y-130362572D01*
X127994572Y-130314953D01*
X132167835Y-125674644D02*
X132120216Y-125722263D01*
X131977359Y-125769882D01*
X131882121Y-125769882D01*
X131739263Y-125722263D01*
X131644025Y-125627025D01*
X131596406Y-125531787D01*
X131548787Y-125341311D01*
X131548787Y-125198453D01*
X131596406Y-125007977D01*
X131644025Y-124912739D01*
X131739263Y-124817501D01*
X131882121Y-124769882D01*
X131977359Y-124769882D01*
X132120216Y-124817501D01*
X132167835Y-124865120D01*
X132644025Y-125769882D02*
X132834501Y-125769882D01*
X132929740Y-125722263D01*
X132977359Y-125674644D01*
X133072597Y-125531787D01*
X133120216Y-125341311D01*
X133120216Y-124960358D01*
X133072597Y-124865120D01*
X133024978Y-124817501D01*
X132929740Y-124769882D01*
X132739263Y-124769882D01*
X132644025Y-124817501D01*
X132596406Y-124865120D01*
X132548787Y-124960358D01*
X132548787Y-125198453D01*
X132596406Y-125293691D01*
X132644025Y-125341311D01*
X132739263Y-125388930D01*
X132929740Y-125388930D01*
X133024978Y-125341311D01*
X133072597Y-125293691D01*
X133120216Y-125198453D01*
X115902667Y-123491144D02*
X115855048Y-123538763D01*
X115712191Y-123586382D01*
X115616953Y-123586382D01*
X115474095Y-123538763D01*
X115378857Y-123443525D01*
X115331238Y-123348287D01*
X115283619Y-123157811D01*
X115283619Y-123014953D01*
X115331238Y-122824477D01*
X115378857Y-122729239D01*
X115474095Y-122634001D01*
X115616953Y-122586382D01*
X115712191Y-122586382D01*
X115855048Y-122634001D01*
X115902667Y-122681620D01*
X116855048Y-123586382D02*
X116283619Y-123586382D01*
X116569333Y-123586382D02*
X116569333Y-122586382D01*
X116474095Y-122729239D01*
X116378857Y-122824477D01*
X116283619Y-122872096D01*
X117474095Y-122586382D02*
X117569334Y-122586382D01*
X117664572Y-122634001D01*
X117712191Y-122681620D01*
X117759810Y-122776858D01*
X117807429Y-122967334D01*
X117807429Y-123205430D01*
X117759810Y-123395906D01*
X117712191Y-123491144D01*
X117664572Y-123538763D01*
X117569334Y-123586382D01*
X117474095Y-123586382D01*
X117378857Y-123538763D01*
X117331238Y-123491144D01*
X117283619Y-123395906D01*
X117236000Y-123205430D01*
X117236000Y-122967334D01*
X117283619Y-122776858D01*
X117331238Y-122681620D01*
X117378857Y-122634001D01*
X117474095Y-122586382D01*
X79039244Y-138915444D02*
X78991625Y-138963063D01*
X78848768Y-139010682D01*
X78753530Y-139010682D01*
X78610672Y-138963063D01*
X78515434Y-138867825D01*
X78467815Y-138772587D01*
X78420196Y-138582111D01*
X78420196Y-138439253D01*
X78467815Y-138248777D01*
X78515434Y-138153539D01*
X78610672Y-138058301D01*
X78753530Y-138010682D01*
X78848768Y-138010682D01*
X78991625Y-138058301D01*
X79039244Y-138105920D01*
X79991625Y-139010682D02*
X79420196Y-139010682D01*
X79705910Y-139010682D02*
X79705910Y-138010682D01*
X79610672Y-138153539D01*
X79515434Y-138248777D01*
X79420196Y-138296396D01*
X80944006Y-139010682D02*
X80372577Y-139010682D01*
X80658291Y-139010682D02*
X80658291Y-138010682D01*
X80563053Y-138153539D01*
X80467815Y-138248777D01*
X80372577Y-138296396D01*
X126946476Y-126741144D02*
X126898857Y-126788763D01*
X126756000Y-126836382D01*
X126660762Y-126836382D01*
X126517904Y-126788763D01*
X126422666Y-126693525D01*
X126375047Y-126598287D01*
X126327428Y-126407811D01*
X126327428Y-126264953D01*
X126375047Y-126074477D01*
X126422666Y-125979239D01*
X126517904Y-125884001D01*
X126660762Y-125836382D01*
X126756000Y-125836382D01*
X126898857Y-125884001D01*
X126946476Y-125931620D01*
X127898857Y-126836382D02*
X127327428Y-126836382D01*
X127613142Y-126836382D02*
X127613142Y-125836382D01*
X127517904Y-125979239D01*
X127422666Y-126074477D01*
X127327428Y-126122096D01*
X128279809Y-125931620D02*
X128327428Y-125884001D01*
X128422666Y-125836382D01*
X128660762Y-125836382D01*
X128756000Y-125884001D01*
X128803619Y-125931620D01*
X128851238Y-126026858D01*
X128851238Y-126122096D01*
X128803619Y-126264953D01*
X128232190Y-126836382D01*
X128851238Y-126836382D01*
X116579244Y-113455444D02*
X116531625Y-113503063D01*
X116388768Y-113550682D01*
X116293530Y-113550682D01*
X116150672Y-113503063D01*
X116055434Y-113407825D01*
X116007815Y-113312587D01*
X115960196Y-113122111D01*
X115960196Y-112979253D01*
X116007815Y-112788777D01*
X116055434Y-112693539D01*
X116150672Y-112598301D01*
X116293530Y-112550682D01*
X116388768Y-112550682D01*
X116531625Y-112598301D01*
X116579244Y-112645920D01*
X117531625Y-113550682D02*
X116960196Y-113550682D01*
X117245910Y-113550682D02*
X117245910Y-112550682D01*
X117150672Y-112693539D01*
X117055434Y-112788777D01*
X116960196Y-112836396D01*
X117864958Y-112550682D02*
X118484006Y-112550682D01*
X118150672Y-112931634D01*
X118293530Y-112931634D01*
X118388768Y-112979253D01*
X118436387Y-113026872D01*
X118484006Y-113122111D01*
X118484006Y-113360206D01*
X118436387Y-113455444D01*
X118388768Y-113503063D01*
X118293530Y-113550682D01*
X118007815Y-113550682D01*
X117912577Y-113503063D01*
X117864958Y-113455444D01*
X124281644Y-135424644D02*
X124234025Y-135472263D01*
X124091168Y-135519882D01*
X123995930Y-135519882D01*
X123853072Y-135472263D01*
X123757834Y-135377025D01*
X123710215Y-135281787D01*
X123662596Y-135091311D01*
X123662596Y-134948453D01*
X123710215Y-134757977D01*
X123757834Y-134662739D01*
X123853072Y-134567501D01*
X123995930Y-134519882D01*
X124091168Y-134519882D01*
X124234025Y-134567501D01*
X124281644Y-134615120D01*
X125234025Y-135519882D02*
X124662596Y-135519882D01*
X124948310Y-135519882D02*
X124948310Y-134519882D01*
X124853072Y-134662739D01*
X124757834Y-134757977D01*
X124662596Y-134805596D01*
X126091168Y-134853215D02*
X126091168Y-135519882D01*
X125853072Y-134472263D02*
X125614977Y-135186549D01*
X126234025Y-135186549D01*
X105783644Y-130452644D02*
X105736025Y-130500263D01*
X105593168Y-130547882D01*
X105497930Y-130547882D01*
X105355072Y-130500263D01*
X105259834Y-130405025D01*
X105212215Y-130309787D01*
X105164596Y-130119311D01*
X105164596Y-129976453D01*
X105212215Y-129785977D01*
X105259834Y-129690739D01*
X105355072Y-129595501D01*
X105497930Y-129547882D01*
X105593168Y-129547882D01*
X105736025Y-129595501D01*
X105783644Y-129643120D01*
X106736025Y-130547882D02*
X106164596Y-130547882D01*
X106450310Y-130547882D02*
X106450310Y-129547882D01*
X106355072Y-129690739D01*
X106259834Y-129785977D01*
X106164596Y-129833596D01*
X107640787Y-129547882D02*
X107164596Y-129547882D01*
X107116977Y-130024072D01*
X107164596Y-129976453D01*
X107259834Y-129928834D01*
X107497930Y-129928834D01*
X107593168Y-129976453D01*
X107640787Y-130024072D01*
X107688406Y-130119311D01*
X107688406Y-130357406D01*
X107640787Y-130452644D01*
X107593168Y-130500263D01*
X107497930Y-130547882D01*
X107259834Y-130547882D01*
X107164596Y-130500263D01*
X107116977Y-130452644D01*
X113453644Y-121752644D02*
X113406025Y-121800263D01*
X113263168Y-121847882D01*
X113167930Y-121847882D01*
X113025072Y-121800263D01*
X112929834Y-121705025D01*
X112882215Y-121609787D01*
X112834596Y-121419311D01*
X112834596Y-121276453D01*
X112882215Y-121085977D01*
X112929834Y-120990739D01*
X113025072Y-120895501D01*
X113167930Y-120847882D01*
X113263168Y-120847882D01*
X113406025Y-120895501D01*
X113453644Y-120943120D01*
X114406025Y-121847882D02*
X113834596Y-121847882D01*
X114120310Y-121847882D02*
X114120310Y-120847882D01*
X114025072Y-120990739D01*
X113929834Y-121085977D01*
X113834596Y-121133596D01*
X115263168Y-120847882D02*
X115072691Y-120847882D01*
X114977453Y-120895501D01*
X114929834Y-120943120D01*
X114834596Y-121085977D01*
X114786977Y-121276453D01*
X114786977Y-121657406D01*
X114834596Y-121752644D01*
X114882215Y-121800263D01*
X114977453Y-121847882D01*
X115167930Y-121847882D01*
X115263168Y-121800263D01*
X115310787Y-121752644D01*
X115358406Y-121657406D01*
X115358406Y-121419311D01*
X115310787Y-121324072D01*
X115263168Y-121276453D01*
X115167930Y-121228834D01*
X114977453Y-121228834D01*
X114882215Y-121276453D01*
X114834596Y-121324072D01*
X114786977Y-121419311D01*
X90733644Y-144912644D02*
X90686025Y-144960263D01*
X90543168Y-145007882D01*
X90447930Y-145007882D01*
X90305072Y-144960263D01*
X90209834Y-144865025D01*
X90162215Y-144769787D01*
X90114596Y-144579311D01*
X90114596Y-144436453D01*
X90162215Y-144245977D01*
X90209834Y-144150739D01*
X90305072Y-144055501D01*
X90447930Y-144007882D01*
X90543168Y-144007882D01*
X90686025Y-144055501D01*
X90733644Y-144103120D01*
X91686025Y-145007882D02*
X91114596Y-145007882D01*
X91400310Y-145007882D02*
X91400310Y-144007882D01*
X91305072Y-144150739D01*
X91209834Y-144245977D01*
X91114596Y-144293596D01*
X92019358Y-144007882D02*
X92686025Y-144007882D01*
X92257453Y-145007882D01*
X112656476Y-141941144D02*
X112608857Y-141988763D01*
X112466000Y-142036382D01*
X112370762Y-142036382D01*
X112227904Y-141988763D01*
X112132666Y-141893525D01*
X112085047Y-141798287D01*
X112037428Y-141607811D01*
X112037428Y-141464953D01*
X112085047Y-141274477D01*
X112132666Y-141179239D01*
X112227904Y-141084001D01*
X112370762Y-141036382D01*
X112466000Y-141036382D01*
X112608857Y-141084001D01*
X112656476Y-141131620D01*
X113608857Y-142036382D02*
X113037428Y-142036382D01*
X113323142Y-142036382D02*
X113323142Y-141036382D01*
X113227904Y-141179239D01*
X113132666Y-141274477D01*
X113037428Y-141322096D01*
X114180285Y-141464953D02*
X114085047Y-141417334D01*
X114037428Y-141369715D01*
X113989809Y-141274477D01*
X113989809Y-141226858D01*
X114037428Y-141131620D01*
X114085047Y-141084001D01*
X114180285Y-141036382D01*
X114370762Y-141036382D01*
X114466000Y-141084001D01*
X114513619Y-141131620D01*
X114561238Y-141226858D01*
X114561238Y-141274477D01*
X114513619Y-141369715D01*
X114466000Y-141417334D01*
X114370762Y-141464953D01*
X114180285Y-141464953D01*
X114085047Y-141512572D01*
X114037428Y-141560191D01*
X113989809Y-141655430D01*
X113989809Y-141845906D01*
X114037428Y-141941144D01*
X114085047Y-141988763D01*
X114180285Y-142036382D01*
X114370762Y-142036382D01*
X114466000Y-141988763D01*
X114513619Y-141941144D01*
X114561238Y-141845906D01*
X114561238Y-141655430D01*
X114513619Y-141560191D01*
X114466000Y-141512572D01*
X114370762Y-141464953D01*
X120863644Y-116902644D02*
X120816025Y-116950263D01*
X120673168Y-116997882D01*
X120577930Y-116997882D01*
X120435072Y-116950263D01*
X120339834Y-116855025D01*
X120292215Y-116759787D01*
X120244596Y-116569311D01*
X120244596Y-116426453D01*
X120292215Y-116235977D01*
X120339834Y-116140739D01*
X120435072Y-116045501D01*
X120577930Y-115997882D01*
X120673168Y-115997882D01*
X120816025Y-116045501D01*
X120863644Y-116093120D01*
X121816025Y-116997882D02*
X121244596Y-116997882D01*
X121530310Y-116997882D02*
X121530310Y-115997882D01*
X121435072Y-116140739D01*
X121339834Y-116235977D01*
X121244596Y-116283596D01*
X122292215Y-116997882D02*
X122482691Y-116997882D01*
X122577930Y-116950263D01*
X122625549Y-116902644D01*
X122720787Y-116759787D01*
X122768406Y-116569311D01*
X122768406Y-116188358D01*
X122720787Y-116093120D01*
X122673168Y-116045501D01*
X122577930Y-115997882D01*
X122387453Y-115997882D01*
X122292215Y-116045501D01*
X122244596Y-116093120D01*
X122196977Y-116188358D01*
X122196977Y-116426453D01*
X122244596Y-116521691D01*
X122292215Y-116569311D01*
X122387453Y-116616930D01*
X122577930Y-116616930D01*
X122673168Y-116569311D01*
X122720787Y-116521691D01*
X122768406Y-116426453D01*
X109169244Y-122155444D02*
X109121625Y-122203063D01*
X108978768Y-122250682D01*
X108883530Y-122250682D01*
X108740672Y-122203063D01*
X108645434Y-122107825D01*
X108597815Y-122012587D01*
X108550196Y-121822111D01*
X108550196Y-121679253D01*
X108597815Y-121488777D01*
X108645434Y-121393539D01*
X108740672Y-121298301D01*
X108883530Y-121250682D01*
X108978768Y-121250682D01*
X109121625Y-121298301D01*
X109169244Y-121345920D01*
X109550196Y-121345920D02*
X109597815Y-121298301D01*
X109693053Y-121250682D01*
X109931149Y-121250682D01*
X110026387Y-121298301D01*
X110074006Y-121345920D01*
X110121625Y-121441158D01*
X110121625Y-121536396D01*
X110074006Y-121679253D01*
X109502577Y-122250682D01*
X110121625Y-122250682D01*
X110740672Y-121250682D02*
X110835911Y-121250682D01*
X110931149Y-121298301D01*
X110978768Y-121345920D01*
X111026387Y-121441158D01*
X111074006Y-121631634D01*
X111074006Y-121869730D01*
X111026387Y-122060206D01*
X110978768Y-122155444D01*
X110931149Y-122203063D01*
X110835911Y-122250682D01*
X110740672Y-122250682D01*
X110645434Y-122203063D01*
X110597815Y-122155444D01*
X110550196Y-122060206D01*
X110502577Y-121869730D01*
X110502577Y-121631634D01*
X110550196Y-121441158D01*
X110597815Y-121345920D01*
X110645434Y-121298301D01*
X110740672Y-121250682D01*
X101499244Y-125035444D02*
X101451625Y-125083063D01*
X101308768Y-125130682D01*
X101213530Y-125130682D01*
X101070672Y-125083063D01*
X100975434Y-124987825D01*
X100927815Y-124892587D01*
X100880196Y-124702111D01*
X100880196Y-124559253D01*
X100927815Y-124368777D01*
X100975434Y-124273539D01*
X101070672Y-124178301D01*
X101213530Y-124130682D01*
X101308768Y-124130682D01*
X101451625Y-124178301D01*
X101499244Y-124225920D01*
X101880196Y-124225920D02*
X101927815Y-124178301D01*
X102023053Y-124130682D01*
X102261149Y-124130682D01*
X102356387Y-124178301D01*
X102404006Y-124225920D01*
X102451625Y-124321158D01*
X102451625Y-124416396D01*
X102404006Y-124559253D01*
X101832577Y-125130682D01*
X102451625Y-125130682D01*
X103404006Y-125130682D02*
X102832577Y-125130682D01*
X103118291Y-125130682D02*
X103118291Y-124130682D01*
X103023053Y-124273539D01*
X102927815Y-124368777D01*
X102832577Y-124416396D01*
X105303644Y-136152644D02*
X105256025Y-136200263D01*
X105113168Y-136247882D01*
X105017930Y-136247882D01*
X104875072Y-136200263D01*
X104779834Y-136105025D01*
X104732215Y-136009787D01*
X104684596Y-135819311D01*
X104684596Y-135676453D01*
X104732215Y-135485977D01*
X104779834Y-135390739D01*
X104875072Y-135295501D01*
X105017930Y-135247882D01*
X105113168Y-135247882D01*
X105256025Y-135295501D01*
X105303644Y-135343120D01*
X105684596Y-135343120D02*
X105732215Y-135295501D01*
X105827453Y-135247882D01*
X106065549Y-135247882D01*
X106160787Y-135295501D01*
X106208406Y-135343120D01*
X106256025Y-135438358D01*
X106256025Y-135533596D01*
X106208406Y-135676453D01*
X105636977Y-136247882D01*
X106256025Y-136247882D01*
X106636977Y-135343120D02*
X106684596Y-135295501D01*
X106779834Y-135247882D01*
X107017930Y-135247882D01*
X107113168Y-135295501D01*
X107160787Y-135343120D01*
X107208406Y-135438358D01*
X107208406Y-135533596D01*
X107160787Y-135676453D01*
X106589358Y-136247882D01*
X107208406Y-136247882D01*
X86449244Y-138915444D02*
X86401625Y-138963063D01*
X86258768Y-139010682D01*
X86163530Y-139010682D01*
X86020672Y-138963063D01*
X85925434Y-138867825D01*
X85877815Y-138772587D01*
X85830196Y-138582111D01*
X85830196Y-138439253D01*
X85877815Y-138248777D01*
X85925434Y-138153539D01*
X86020672Y-138058301D01*
X86163530Y-138010682D01*
X86258768Y-138010682D01*
X86401625Y-138058301D01*
X86449244Y-138105920D01*
X86830196Y-138105920D02*
X86877815Y-138058301D01*
X86973053Y-138010682D01*
X87211149Y-138010682D01*
X87306387Y-138058301D01*
X87354006Y-138105920D01*
X87401625Y-138201158D01*
X87401625Y-138296396D01*
X87354006Y-138439253D01*
X86782577Y-139010682D01*
X87401625Y-139010682D01*
X87734958Y-138010682D02*
X88354006Y-138010682D01*
X88020672Y-138391634D01*
X88163530Y-138391634D01*
X88258768Y-138439253D01*
X88306387Y-138486872D01*
X88354006Y-138582111D01*
X88354006Y-138820206D01*
X88306387Y-138915444D01*
X88258768Y-138963063D01*
X88163530Y-139010682D01*
X87877815Y-139010682D01*
X87782577Y-138963063D01*
X87734958Y-138915444D01*
X84719244Y-125035444D02*
X84671625Y-125083063D01*
X84528768Y-125130682D01*
X84433530Y-125130682D01*
X84290672Y-125083063D01*
X84195434Y-124987825D01*
X84147815Y-124892587D01*
X84100196Y-124702111D01*
X84100196Y-124559253D01*
X84147815Y-124368777D01*
X84195434Y-124273539D01*
X84290672Y-124178301D01*
X84433530Y-124130682D01*
X84528768Y-124130682D01*
X84671625Y-124178301D01*
X84719244Y-124225920D01*
X85100196Y-124225920D02*
X85147815Y-124178301D01*
X85243053Y-124130682D01*
X85481149Y-124130682D01*
X85576387Y-124178301D01*
X85624006Y-124225920D01*
X85671625Y-124321158D01*
X85671625Y-124416396D01*
X85624006Y-124559253D01*
X85052577Y-125130682D01*
X85671625Y-125130682D01*
X86528768Y-124464015D02*
X86528768Y-125130682D01*
X86290672Y-124083063D02*
X86052577Y-124797349D01*
X86671625Y-124797349D01*
X87189976Y-143834644D02*
X87142357Y-143882263D01*
X86999500Y-143929882D01*
X86904262Y-143929882D01*
X86761404Y-143882263D01*
X86666166Y-143787025D01*
X86618547Y-143691787D01*
X86570928Y-143501311D01*
X86570928Y-143358453D01*
X86618547Y-143167977D01*
X86666166Y-143072739D01*
X86761404Y-142977501D01*
X86904262Y-142929882D01*
X86999500Y-142929882D01*
X87142357Y-142977501D01*
X87189976Y-143025120D01*
X87570928Y-143025120D02*
X87618547Y-142977501D01*
X87713785Y-142929882D01*
X87951881Y-142929882D01*
X88047119Y-142977501D01*
X88094738Y-143025120D01*
X88142357Y-143120358D01*
X88142357Y-143215596D01*
X88094738Y-143358453D01*
X87523309Y-143929882D01*
X88142357Y-143929882D01*
X89047119Y-142929882D02*
X88570928Y-142929882D01*
X88523309Y-143406072D01*
X88570928Y-143358453D01*
X88666166Y-143310834D01*
X88904262Y-143310834D01*
X88999500Y-143358453D01*
X89047119Y-143406072D01*
X89094738Y-143501311D01*
X89094738Y-143739406D01*
X89047119Y-143834644D01*
X88999500Y-143882263D01*
X88904262Y-143929882D01*
X88666166Y-143929882D01*
X88570928Y-143882263D01*
X88523309Y-143834644D01*
X121052667Y-118641144D02*
X121005048Y-118688763D01*
X120862191Y-118736382D01*
X120766953Y-118736382D01*
X120624095Y-118688763D01*
X120528857Y-118593525D01*
X120481238Y-118498287D01*
X120433619Y-118307811D01*
X120433619Y-118164953D01*
X120481238Y-117974477D01*
X120528857Y-117879239D01*
X120624095Y-117784001D01*
X120766953Y-117736382D01*
X120862191Y-117736382D01*
X121005048Y-117784001D01*
X121052667Y-117831620D01*
X121433619Y-117831620D02*
X121481238Y-117784001D01*
X121576476Y-117736382D01*
X121814572Y-117736382D01*
X121909810Y-117784001D01*
X121957429Y-117831620D01*
X122005048Y-117926858D01*
X122005048Y-118022096D01*
X121957429Y-118164953D01*
X121386000Y-118736382D01*
X122005048Y-118736382D01*
X122862191Y-117736382D02*
X122671714Y-117736382D01*
X122576476Y-117784001D01*
X122528857Y-117831620D01*
X122433619Y-117974477D01*
X122386000Y-118164953D01*
X122386000Y-118545906D01*
X122433619Y-118641144D01*
X122481238Y-118688763D01*
X122576476Y-118736382D01*
X122766953Y-118736382D01*
X122862191Y-118688763D01*
X122909810Y-118641144D01*
X122957429Y-118545906D01*
X122957429Y-118307811D01*
X122909810Y-118212572D01*
X122862191Y-118164953D01*
X122766953Y-118117334D01*
X122576476Y-118117334D01*
X122481238Y-118164953D01*
X122433619Y-118212572D01*
X122386000Y-118307811D01*
X119536476Y-135641144D02*
X119488857Y-135688763D01*
X119346000Y-135736382D01*
X119250762Y-135736382D01*
X119107904Y-135688763D01*
X119012666Y-135593525D01*
X118965047Y-135498287D01*
X118917428Y-135307811D01*
X118917428Y-135164953D01*
X118965047Y-134974477D01*
X119012666Y-134879239D01*
X119107904Y-134784001D01*
X119250762Y-134736382D01*
X119346000Y-134736382D01*
X119488857Y-134784001D01*
X119536476Y-134831620D01*
X119917428Y-134831620D02*
X119965047Y-134784001D01*
X120060285Y-134736382D01*
X120298381Y-134736382D01*
X120393619Y-134784001D01*
X120441238Y-134831620D01*
X120488857Y-134926858D01*
X120488857Y-135022096D01*
X120441238Y-135164953D01*
X119869809Y-135736382D01*
X120488857Y-135736382D01*
X120822190Y-134736382D02*
X121488857Y-134736382D01*
X121060285Y-135736382D01*
X122586476Y-130791144D02*
X122538857Y-130838763D01*
X122396000Y-130886382D01*
X122300762Y-130886382D01*
X122157904Y-130838763D01*
X122062666Y-130743525D01*
X122015047Y-130648287D01*
X121967428Y-130457811D01*
X121967428Y-130314953D01*
X122015047Y-130124477D01*
X122062666Y-130029239D01*
X122157904Y-129934001D01*
X122300762Y-129886382D01*
X122396000Y-129886382D01*
X122538857Y-129934001D01*
X122586476Y-129981620D01*
X122967428Y-129981620D02*
X123015047Y-129934001D01*
X123110285Y-129886382D01*
X123348381Y-129886382D01*
X123443619Y-129934001D01*
X123491238Y-129981620D01*
X123538857Y-130076858D01*
X123538857Y-130172096D01*
X123491238Y-130314953D01*
X122919809Y-130886382D01*
X123538857Y-130886382D01*
X124110285Y-130314953D02*
X124015047Y-130267334D01*
X123967428Y-130219715D01*
X123919809Y-130124477D01*
X123919809Y-130076858D01*
X123967428Y-129981620D01*
X124015047Y-129934001D01*
X124110285Y-129886382D01*
X124300762Y-129886382D01*
X124396000Y-129934001D01*
X124443619Y-129981620D01*
X124491238Y-130076858D01*
X124491238Y-130124477D01*
X124443619Y-130219715D01*
X124396000Y-130267334D01*
X124300762Y-130314953D01*
X124110285Y-130314953D01*
X124015047Y-130362572D01*
X123967428Y-130410191D01*
X123919809Y-130505430D01*
X123919809Y-130695906D01*
X123967428Y-130791144D01*
X124015047Y-130838763D01*
X124110285Y-130886382D01*
X124300762Y-130886382D01*
X124396000Y-130838763D01*
X124443619Y-130791144D01*
X124491238Y-130695906D01*
X124491238Y-130505430D01*
X124443619Y-130410191D01*
X124396000Y-130362572D01*
X124300762Y-130314953D01*
X131691644Y-128264644D02*
X131644025Y-128312263D01*
X131501168Y-128359882D01*
X131405930Y-128359882D01*
X131263072Y-128312263D01*
X131167834Y-128217025D01*
X131120215Y-128121787D01*
X131072596Y-127931311D01*
X131072596Y-127788453D01*
X131120215Y-127597977D01*
X131167834Y-127502739D01*
X131263072Y-127407501D01*
X131405930Y-127359882D01*
X131501168Y-127359882D01*
X131644025Y-127407501D01*
X131691644Y-127455120D01*
X132072596Y-127455120D02*
X132120215Y-127407501D01*
X132215453Y-127359882D01*
X132453549Y-127359882D01*
X132548787Y-127407501D01*
X132596406Y-127455120D01*
X132644025Y-127550358D01*
X132644025Y-127645596D01*
X132596406Y-127788453D01*
X132024977Y-128359882D01*
X132644025Y-128359882D01*
X133120215Y-128359882D02*
X133310691Y-128359882D01*
X133405930Y-128312263D01*
X133453549Y-128264644D01*
X133548787Y-128121787D01*
X133596406Y-127931311D01*
X133596406Y-127550358D01*
X133548787Y-127455120D01*
X133501168Y-127407501D01*
X133405930Y-127359882D01*
X133215453Y-127359882D01*
X133120215Y-127407501D01*
X133072596Y-127455120D01*
X133024977Y-127550358D01*
X133024977Y-127788453D01*
X133072596Y-127883691D01*
X133120215Y-127931311D01*
X133215453Y-127978930D01*
X133405930Y-127978930D01*
X133501168Y-127931311D01*
X133548787Y-127883691D01*
X133596406Y-127788453D01*
X135252667Y-83451144D02*
X135205048Y-83498763D01*
X135062191Y-83546382D01*
X134966953Y-83546382D01*
X134824095Y-83498763D01*
X134728857Y-83403525D01*
X134681238Y-83308287D01*
X134633619Y-83117811D01*
X134633619Y-82974953D01*
X134681238Y-82784477D01*
X134728857Y-82689239D01*
X134824095Y-82594001D01*
X134966953Y-82546382D01*
X135062191Y-82546382D01*
X135205048Y-82594001D01*
X135252667Y-82641620D01*
X135586000Y-82546382D02*
X136205048Y-82546382D01*
X135871714Y-82927334D01*
X136014572Y-82927334D01*
X136109810Y-82974953D01*
X136157429Y-83022572D01*
X136205048Y-83117811D01*
X136205048Y-83355906D01*
X136157429Y-83451144D01*
X136109810Y-83498763D01*
X136014572Y-83546382D01*
X135728857Y-83546382D01*
X135633619Y-83498763D01*
X135586000Y-83451144D01*
X136824095Y-82546382D02*
X136919334Y-82546382D01*
X137014572Y-82594001D01*
X137062191Y-82641620D01*
X137109810Y-82736858D01*
X137157429Y-82927334D01*
X137157429Y-83165430D01*
X137109810Y-83355906D01*
X137062191Y-83451144D01*
X137014572Y-83498763D01*
X136919334Y-83546382D01*
X136824095Y-83546382D01*
X136728857Y-83498763D01*
X136681238Y-83451144D01*
X136633619Y-83355906D01*
X136586000Y-83165430D01*
X136586000Y-82927334D01*
X136633619Y-82736858D01*
X136681238Y-82641620D01*
X136728857Y-82594001D01*
X136824095Y-82546382D01*
X112812667Y-98091144D02*
X112765048Y-98138763D01*
X112622191Y-98186382D01*
X112526953Y-98186382D01*
X112384095Y-98138763D01*
X112288857Y-98043525D01*
X112241238Y-97948287D01*
X112193619Y-97757811D01*
X112193619Y-97614953D01*
X112241238Y-97424477D01*
X112288857Y-97329239D01*
X112384095Y-97234001D01*
X112526953Y-97186382D01*
X112622191Y-97186382D01*
X112765048Y-97234001D01*
X112812667Y-97281620D01*
X113146000Y-97186382D02*
X113765048Y-97186382D01*
X113431714Y-97567334D01*
X113574572Y-97567334D01*
X113669810Y-97614953D01*
X113717429Y-97662572D01*
X113765048Y-97757811D01*
X113765048Y-97995906D01*
X113717429Y-98091144D01*
X113669810Y-98138763D01*
X113574572Y-98186382D01*
X113288857Y-98186382D01*
X113193619Y-98138763D01*
X113146000Y-98091144D01*
X114717429Y-98186382D02*
X114146000Y-98186382D01*
X114431714Y-98186382D02*
X114431714Y-97186382D01*
X114336476Y-97329239D01*
X114241238Y-97424477D01*
X114146000Y-97472096D01*
X121022667Y-92721144D02*
X120975048Y-92768763D01*
X120832191Y-92816382D01*
X120736953Y-92816382D01*
X120594095Y-92768763D01*
X120498857Y-92673525D01*
X120451238Y-92578287D01*
X120403619Y-92387811D01*
X120403619Y-92244953D01*
X120451238Y-92054477D01*
X120498857Y-91959239D01*
X120594095Y-91864001D01*
X120736953Y-91816382D01*
X120832191Y-91816382D01*
X120975048Y-91864001D01*
X121022667Y-91911620D01*
X121356000Y-91816382D02*
X121975048Y-91816382D01*
X121641714Y-92197334D01*
X121784572Y-92197334D01*
X121879810Y-92244953D01*
X121927429Y-92292572D01*
X121975048Y-92387811D01*
X121975048Y-92625906D01*
X121927429Y-92721144D01*
X121879810Y-92768763D01*
X121784572Y-92816382D01*
X121498857Y-92816382D01*
X121403619Y-92768763D01*
X121356000Y-92721144D01*
X122356000Y-91911620D02*
X122403619Y-91864001D01*
X122498857Y-91816382D01*
X122736953Y-91816382D01*
X122832191Y-91864001D01*
X122879810Y-91911620D01*
X122927429Y-92006858D01*
X122927429Y-92102096D01*
X122879810Y-92244953D01*
X122308381Y-92816382D01*
X122927429Y-92816382D01*
X134726476Y-88671144D02*
X134678857Y-88718763D01*
X134536000Y-88766382D01*
X134440762Y-88766382D01*
X134297904Y-88718763D01*
X134202666Y-88623525D01*
X134155047Y-88528287D01*
X134107428Y-88337811D01*
X134107428Y-88194953D01*
X134155047Y-88004477D01*
X134202666Y-87909239D01*
X134297904Y-87814001D01*
X134440762Y-87766382D01*
X134536000Y-87766382D01*
X134678857Y-87814001D01*
X134726476Y-87861620D01*
X135059809Y-87766382D02*
X135678857Y-87766382D01*
X135345523Y-88147334D01*
X135488381Y-88147334D01*
X135583619Y-88194953D01*
X135631238Y-88242572D01*
X135678857Y-88337811D01*
X135678857Y-88575906D01*
X135631238Y-88671144D01*
X135583619Y-88718763D01*
X135488381Y-88766382D01*
X135202666Y-88766382D01*
X135107428Y-88718763D01*
X135059809Y-88671144D01*
X136012190Y-87766382D02*
X136631238Y-87766382D01*
X136297904Y-88147334D01*
X136440762Y-88147334D01*
X136536000Y-88194953D01*
X136583619Y-88242572D01*
X136631238Y-88337811D01*
X136631238Y-88575906D01*
X136583619Y-88671144D01*
X136536000Y-88718763D01*
X136440762Y-88766382D01*
X136155047Y-88766382D01*
X136059809Y-88718763D01*
X136012190Y-88671144D01*
X84871644Y-106494644D02*
X84824025Y-106542263D01*
X84681168Y-106589882D01*
X84585930Y-106589882D01*
X84443072Y-106542263D01*
X84347834Y-106447025D01*
X84300215Y-106351787D01*
X84252596Y-106161311D01*
X84252596Y-106018453D01*
X84300215Y-105827977D01*
X84347834Y-105732739D01*
X84443072Y-105637501D01*
X84585930Y-105589882D01*
X84681168Y-105589882D01*
X84824025Y-105637501D01*
X84871644Y-105685120D01*
X85204977Y-105589882D02*
X85824025Y-105589882D01*
X85490691Y-105970834D01*
X85633549Y-105970834D01*
X85728787Y-106018453D01*
X85776406Y-106066072D01*
X85824025Y-106161311D01*
X85824025Y-106399406D01*
X85776406Y-106494644D01*
X85728787Y-106542263D01*
X85633549Y-106589882D01*
X85347834Y-106589882D01*
X85252596Y-106542263D01*
X85204977Y-106494644D01*
X86681168Y-105923215D02*
X86681168Y-106589882D01*
X86443072Y-105542263D02*
X86204977Y-106256549D01*
X86824025Y-106256549D01*
X122576476Y-96971144D02*
X122528857Y-97018763D01*
X122386000Y-97066382D01*
X122290762Y-97066382D01*
X122147904Y-97018763D01*
X122052666Y-96923525D01*
X122005047Y-96828287D01*
X121957428Y-96637811D01*
X121957428Y-96494953D01*
X122005047Y-96304477D01*
X122052666Y-96209239D01*
X122147904Y-96114001D01*
X122290762Y-96066382D01*
X122386000Y-96066382D01*
X122528857Y-96114001D01*
X122576476Y-96161620D01*
X122909809Y-96066382D02*
X123528857Y-96066382D01*
X123195523Y-96447334D01*
X123338381Y-96447334D01*
X123433619Y-96494953D01*
X123481238Y-96542572D01*
X123528857Y-96637811D01*
X123528857Y-96875906D01*
X123481238Y-96971144D01*
X123433619Y-97018763D01*
X123338381Y-97066382D01*
X123052666Y-97066382D01*
X122957428Y-97018763D01*
X122909809Y-96971144D01*
X124433619Y-96066382D02*
X123957428Y-96066382D01*
X123909809Y-96542572D01*
X123957428Y-96494953D01*
X124052666Y-96447334D01*
X124290762Y-96447334D01*
X124386000Y-96494953D01*
X124433619Y-96542572D01*
X124481238Y-96637811D01*
X124481238Y-96875906D01*
X124433619Y-96971144D01*
X124386000Y-97018763D01*
X124290762Y-97066382D01*
X124052666Y-97066382D01*
X123957428Y-97018763D01*
X123909809Y-96971144D01*
X117932667Y-98091144D02*
X117885048Y-98138763D01*
X117742191Y-98186382D01*
X117646953Y-98186382D01*
X117504095Y-98138763D01*
X117408857Y-98043525D01*
X117361238Y-97948287D01*
X117313619Y-97757811D01*
X117313619Y-97614953D01*
X117361238Y-97424477D01*
X117408857Y-97329239D01*
X117504095Y-97234001D01*
X117646953Y-97186382D01*
X117742191Y-97186382D01*
X117885048Y-97234001D01*
X117932667Y-97281620D01*
X118266000Y-97186382D02*
X118885048Y-97186382D01*
X118551714Y-97567334D01*
X118694572Y-97567334D01*
X118789810Y-97614953D01*
X118837429Y-97662572D01*
X118885048Y-97757811D01*
X118885048Y-97995906D01*
X118837429Y-98091144D01*
X118789810Y-98138763D01*
X118694572Y-98186382D01*
X118408857Y-98186382D01*
X118313619Y-98138763D01*
X118266000Y-98091144D01*
X119742191Y-97186382D02*
X119551714Y-97186382D01*
X119456476Y-97234001D01*
X119408857Y-97281620D01*
X119313619Y-97424477D01*
X119266000Y-97614953D01*
X119266000Y-97995906D01*
X119313619Y-98091144D01*
X119361238Y-98138763D01*
X119456476Y-98186382D01*
X119646953Y-98186382D01*
X119742191Y-98138763D01*
X119789810Y-98091144D01*
X119837429Y-97995906D01*
X119837429Y-97757811D01*
X119789810Y-97662572D01*
X119742191Y-97614953D01*
X119646953Y-97567334D01*
X119456476Y-97567334D01*
X119361238Y-97614953D01*
X119313619Y-97662572D01*
X119266000Y-97757811D01*
X114892667Y-102141144D02*
X114845048Y-102188763D01*
X114702191Y-102236382D01*
X114606953Y-102236382D01*
X114464095Y-102188763D01*
X114368857Y-102093525D01*
X114321238Y-101998287D01*
X114273619Y-101807811D01*
X114273619Y-101664953D01*
X114321238Y-101474477D01*
X114368857Y-101379239D01*
X114464095Y-101284001D01*
X114606953Y-101236382D01*
X114702191Y-101236382D01*
X114845048Y-101284001D01*
X114892667Y-101331620D01*
X115226000Y-101236382D02*
X115845048Y-101236382D01*
X115511714Y-101617334D01*
X115654572Y-101617334D01*
X115749810Y-101664953D01*
X115797429Y-101712572D01*
X115845048Y-101807811D01*
X115845048Y-102045906D01*
X115797429Y-102141144D01*
X115749810Y-102188763D01*
X115654572Y-102236382D01*
X115368857Y-102236382D01*
X115273619Y-102188763D01*
X115226000Y-102141144D01*
X116178381Y-101236382D02*
X116845048Y-101236382D01*
X116416476Y-102236382D01*
X126142667Y-92921144D02*
X126095048Y-92968763D01*
X125952191Y-93016382D01*
X125856953Y-93016382D01*
X125714095Y-92968763D01*
X125618857Y-92873525D01*
X125571238Y-92778287D01*
X125523619Y-92587811D01*
X125523619Y-92444953D01*
X125571238Y-92254477D01*
X125618857Y-92159239D01*
X125714095Y-92064001D01*
X125856953Y-92016382D01*
X125952191Y-92016382D01*
X126095048Y-92064001D01*
X126142667Y-92111620D01*
X126476000Y-92016382D02*
X127095048Y-92016382D01*
X126761714Y-92397334D01*
X126904572Y-92397334D01*
X126999810Y-92444953D01*
X127047429Y-92492572D01*
X127095048Y-92587811D01*
X127095048Y-92825906D01*
X127047429Y-92921144D01*
X126999810Y-92968763D01*
X126904572Y-93016382D01*
X126618857Y-93016382D01*
X126523619Y-92968763D01*
X126476000Y-92921144D01*
X127666476Y-92444953D02*
X127571238Y-92397334D01*
X127523619Y-92349715D01*
X127476000Y-92254477D01*
X127476000Y-92206858D01*
X127523619Y-92111620D01*
X127571238Y-92064001D01*
X127666476Y-92016382D01*
X127856953Y-92016382D01*
X127952191Y-92064001D01*
X127999810Y-92111620D01*
X128047429Y-92206858D01*
X128047429Y-92254477D01*
X127999810Y-92349715D01*
X127952191Y-92397334D01*
X127856953Y-92444953D01*
X127666476Y-92444953D01*
X127571238Y-92492572D01*
X127523619Y-92540191D01*
X127476000Y-92635430D01*
X127476000Y-92825906D01*
X127523619Y-92921144D01*
X127571238Y-92968763D01*
X127666476Y-93016382D01*
X127856953Y-93016382D01*
X127952191Y-92968763D01*
X127999810Y-92921144D01*
X128047429Y-92825906D01*
X128047429Y-92635430D01*
X127999810Y-92540191D01*
X127952191Y-92492572D01*
X127856953Y-92444953D01*
X106362667Y-92351144D02*
X106315048Y-92398763D01*
X106172191Y-92446382D01*
X106076953Y-92446382D01*
X105934095Y-92398763D01*
X105838857Y-92303525D01*
X105791238Y-92208287D01*
X105743619Y-92017811D01*
X105743619Y-91874953D01*
X105791238Y-91684477D01*
X105838857Y-91589239D01*
X105934095Y-91494001D01*
X106076953Y-91446382D01*
X106172191Y-91446382D01*
X106315048Y-91494001D01*
X106362667Y-91541620D01*
X106696000Y-91446382D02*
X107315048Y-91446382D01*
X106981714Y-91827334D01*
X107124572Y-91827334D01*
X107219810Y-91874953D01*
X107267429Y-91922572D01*
X107315048Y-92017811D01*
X107315048Y-92255906D01*
X107267429Y-92351144D01*
X107219810Y-92398763D01*
X107124572Y-92446382D01*
X106838857Y-92446382D01*
X106743619Y-92398763D01*
X106696000Y-92351144D01*
X107791238Y-92446382D02*
X107981714Y-92446382D01*
X108076953Y-92398763D01*
X108124572Y-92351144D01*
X108219810Y-92208287D01*
X108267429Y-92017811D01*
X108267429Y-91636858D01*
X108219810Y-91541620D01*
X108172191Y-91494001D01*
X108076953Y-91446382D01*
X107886476Y-91446382D01*
X107791238Y-91494001D01*
X107743619Y-91541620D01*
X107696000Y-91636858D01*
X107696000Y-91874953D01*
X107743619Y-91970191D01*
X107791238Y-92017811D01*
X107886476Y-92065430D01*
X108076953Y-92065430D01*
X108172191Y-92017811D01*
X108219810Y-91970191D01*
X108267429Y-91874953D01*
X97108144Y-105161144D02*
X97060525Y-105208763D01*
X96917668Y-105256382D01*
X96822430Y-105256382D01*
X96679572Y-105208763D01*
X96584334Y-105113525D01*
X96536715Y-105018287D01*
X96489096Y-104827811D01*
X96489096Y-104684953D01*
X96536715Y-104494477D01*
X96584334Y-104399239D01*
X96679572Y-104304001D01*
X96822430Y-104256382D01*
X96917668Y-104256382D01*
X97060525Y-104304001D01*
X97108144Y-104351620D01*
X97965287Y-104589715D02*
X97965287Y-105256382D01*
X97727191Y-104208763D02*
X97489096Y-104923049D01*
X98108144Y-104923049D01*
X98679572Y-104256382D02*
X98774811Y-104256382D01*
X98870049Y-104304001D01*
X98917668Y-104351620D01*
X98965287Y-104446858D01*
X99012906Y-104637334D01*
X99012906Y-104875430D01*
X98965287Y-105065906D01*
X98917668Y-105161144D01*
X98870049Y-105208763D01*
X98774811Y-105256382D01*
X98679572Y-105256382D01*
X98584334Y-105208763D01*
X98536715Y-105161144D01*
X98489096Y-105065906D01*
X98441477Y-104875430D01*
X98441477Y-104637334D01*
X98489096Y-104446858D01*
X98536715Y-104351620D01*
X98584334Y-104304001D01*
X98679572Y-104256382D01*
X109772667Y-103001144D02*
X109725048Y-103048763D01*
X109582191Y-103096382D01*
X109486953Y-103096382D01*
X109344095Y-103048763D01*
X109248857Y-102953525D01*
X109201238Y-102858287D01*
X109153619Y-102667811D01*
X109153619Y-102524953D01*
X109201238Y-102334477D01*
X109248857Y-102239239D01*
X109344095Y-102144001D01*
X109486953Y-102096382D01*
X109582191Y-102096382D01*
X109725048Y-102144001D01*
X109772667Y-102191620D01*
X110629810Y-102429715D02*
X110629810Y-103096382D01*
X110391714Y-102048763D02*
X110153619Y-102763049D01*
X110772667Y-102763049D01*
X111677429Y-103096382D02*
X111106000Y-103096382D01*
X111391714Y-103096382D02*
X111391714Y-102096382D01*
X111296476Y-102239239D01*
X111201238Y-102334477D01*
X111106000Y-102382096D01*
X119178144Y-102141144D02*
X119130525Y-102188763D01*
X118987668Y-102236382D01*
X118892430Y-102236382D01*
X118749572Y-102188763D01*
X118654334Y-102093525D01*
X118606715Y-101998287D01*
X118559096Y-101807811D01*
X118559096Y-101664953D01*
X118606715Y-101474477D01*
X118654334Y-101379239D01*
X118749572Y-101284001D01*
X118892430Y-101236382D01*
X118987668Y-101236382D01*
X119130525Y-101284001D01*
X119178144Y-101331620D01*
X120035287Y-101569715D02*
X120035287Y-102236382D01*
X119797191Y-101188763D02*
X119559096Y-101903049D01*
X120178144Y-101903049D01*
X120511477Y-101331620D02*
X120559096Y-101284001D01*
X120654334Y-101236382D01*
X120892430Y-101236382D01*
X120987668Y-101284001D01*
X121035287Y-101331620D01*
X121082906Y-101426858D01*
X121082906Y-101522096D01*
X121035287Y-101664953D01*
X120463858Y-102236382D01*
X121082906Y-102236382D01*
X140539244Y-120645444D02*
X140491625Y-120693063D01*
X140348768Y-120740682D01*
X140253530Y-120740682D01*
X140110672Y-120693063D01*
X140015434Y-120597825D01*
X139967815Y-120502587D01*
X139920196Y-120312111D01*
X139920196Y-120169253D01*
X139967815Y-119978777D01*
X140015434Y-119883539D01*
X140110672Y-119788301D01*
X140253530Y-119740682D01*
X140348768Y-119740682D01*
X140491625Y-119788301D01*
X140539244Y-119835920D01*
X141396387Y-120074015D02*
X141396387Y-120740682D01*
X141158291Y-119693063D02*
X140920196Y-120407349D01*
X141539244Y-120407349D01*
X141824958Y-119740682D02*
X142444006Y-119740682D01*
X142110672Y-120121634D01*
X142253530Y-120121634D01*
X142348768Y-120169253D01*
X142396387Y-120216872D01*
X142444006Y-120312111D01*
X142444006Y-120550206D01*
X142396387Y-120645444D01*
X142348768Y-120693063D01*
X142253530Y-120740682D01*
X141967815Y-120740682D01*
X141872577Y-120693063D01*
X141824958Y-120645444D01*
X106895444Y-105260756D02*
X106943063Y-105308375D01*
X106990682Y-105451232D01*
X106990682Y-105546470D01*
X106943063Y-105689328D01*
X106847825Y-105784566D01*
X106752587Y-105832185D01*
X106562111Y-105879804D01*
X106419253Y-105879804D01*
X106228777Y-105832185D01*
X106133539Y-105784566D01*
X106038301Y-105689328D01*
X105990682Y-105546470D01*
X105990682Y-105451232D01*
X106038301Y-105308375D01*
X106085920Y-105260756D01*
X106324015Y-104403613D02*
X106990682Y-104403613D01*
X105943063Y-104641709D02*
X106657349Y-104879804D01*
X106657349Y-104260756D01*
X106324015Y-103451232D02*
X106990682Y-103451232D01*
X105943063Y-103689328D02*
X106657349Y-103927423D01*
X106657349Y-103308375D01*
X140539244Y-125495444D02*
X140491625Y-125543063D01*
X140348768Y-125590682D01*
X140253530Y-125590682D01*
X140110672Y-125543063D01*
X140015434Y-125447825D01*
X139967815Y-125352587D01*
X139920196Y-125162111D01*
X139920196Y-125019253D01*
X139967815Y-124828777D01*
X140015434Y-124733539D01*
X140110672Y-124638301D01*
X140253530Y-124590682D01*
X140348768Y-124590682D01*
X140491625Y-124638301D01*
X140539244Y-124685920D01*
X141396387Y-124924015D02*
X141396387Y-125590682D01*
X141158291Y-124543063D02*
X140920196Y-125257349D01*
X141539244Y-125257349D01*
X142396387Y-124590682D02*
X141920196Y-124590682D01*
X141872577Y-125066872D01*
X141920196Y-125019253D01*
X142015434Y-124971634D01*
X142253530Y-124971634D01*
X142348768Y-125019253D01*
X142396387Y-125066872D01*
X142444006Y-125162111D01*
X142444006Y-125400206D01*
X142396387Y-125495444D01*
X142348768Y-125543063D01*
X142253530Y-125590682D01*
X142015434Y-125590682D01*
X141920196Y-125543063D01*
X141872577Y-125495444D01*
X135329244Y-99805444D02*
X135281625Y-99853063D01*
X135138768Y-99900682D01*
X135043530Y-99900682D01*
X134900672Y-99853063D01*
X134805434Y-99757825D01*
X134757815Y-99662587D01*
X134710196Y-99472111D01*
X134710196Y-99329253D01*
X134757815Y-99138777D01*
X134805434Y-99043539D01*
X134900672Y-98948301D01*
X135043530Y-98900682D01*
X135138768Y-98900682D01*
X135281625Y-98948301D01*
X135329244Y-98995920D01*
X136186387Y-99234015D02*
X136186387Y-99900682D01*
X135948291Y-98853063D02*
X135710196Y-99567349D01*
X136329244Y-99567349D01*
X137138768Y-98900682D02*
X136948291Y-98900682D01*
X136853053Y-98948301D01*
X136805434Y-98995920D01*
X136710196Y-99138777D01*
X136662577Y-99329253D01*
X136662577Y-99710206D01*
X136710196Y-99805444D01*
X136757815Y-99853063D01*
X136853053Y-99900682D01*
X137043530Y-99900682D01*
X137138768Y-99853063D01*
X137186387Y-99805444D01*
X137234006Y-99710206D01*
X137234006Y-99472111D01*
X137186387Y-99376872D01*
X137138768Y-99329253D01*
X137043530Y-99281634D01*
X136853053Y-99281634D01*
X136757815Y-99329253D01*
X136710196Y-99376872D01*
X136662577Y-99472111D01*
X135482667Y-104141144D02*
X135435048Y-104188763D01*
X135292191Y-104236382D01*
X135196953Y-104236382D01*
X135054095Y-104188763D01*
X134958857Y-104093525D01*
X134911238Y-103998287D01*
X134863619Y-103807811D01*
X134863619Y-103664953D01*
X134911238Y-103474477D01*
X134958857Y-103379239D01*
X135054095Y-103284001D01*
X135196953Y-103236382D01*
X135292191Y-103236382D01*
X135435048Y-103284001D01*
X135482667Y-103331620D01*
X136339810Y-103569715D02*
X136339810Y-104236382D01*
X136101714Y-103188763D02*
X135863619Y-103903049D01*
X136482667Y-103903049D01*
X136768381Y-103236382D02*
X137435048Y-103236382D01*
X137006476Y-104236382D01*
X141586476Y-100861144D02*
X141538857Y-100908763D01*
X141396000Y-100956382D01*
X141300762Y-100956382D01*
X141157904Y-100908763D01*
X141062666Y-100813525D01*
X141015047Y-100718287D01*
X140967428Y-100527811D01*
X140967428Y-100384953D01*
X141015047Y-100194477D01*
X141062666Y-100099239D01*
X141157904Y-100004001D01*
X141300762Y-99956382D01*
X141396000Y-99956382D01*
X141538857Y-100004001D01*
X141586476Y-100051620D01*
X142443619Y-100289715D02*
X142443619Y-100956382D01*
X142205523Y-99908763D02*
X141967428Y-100623049D01*
X142586476Y-100623049D01*
X143110285Y-100384953D02*
X143015047Y-100337334D01*
X142967428Y-100289715D01*
X142919809Y-100194477D01*
X142919809Y-100146858D01*
X142967428Y-100051620D01*
X143015047Y-100004001D01*
X143110285Y-99956382D01*
X143300762Y-99956382D01*
X143396000Y-100004001D01*
X143443619Y-100051620D01*
X143491238Y-100146858D01*
X143491238Y-100194477D01*
X143443619Y-100289715D01*
X143396000Y-100337334D01*
X143300762Y-100384953D01*
X143110285Y-100384953D01*
X143015047Y-100432572D01*
X142967428Y-100480191D01*
X142919809Y-100575430D01*
X142919809Y-100765906D01*
X142967428Y-100861144D01*
X143015047Y-100908763D01*
X143110285Y-100956382D01*
X143300762Y-100956382D01*
X143396000Y-100908763D01*
X143443619Y-100861144D01*
X143491238Y-100765906D01*
X143491238Y-100575430D01*
X143443619Y-100480191D01*
X143396000Y-100432572D01*
X143300762Y-100384953D01*
X147521644Y-97504644D02*
X147474025Y-97552263D01*
X147331168Y-97599882D01*
X147235930Y-97599882D01*
X147093072Y-97552263D01*
X146997834Y-97457025D01*
X146950215Y-97361787D01*
X146902596Y-97171311D01*
X146902596Y-97028453D01*
X146950215Y-96837977D01*
X146997834Y-96742739D01*
X147093072Y-96647501D01*
X147235930Y-96599882D01*
X147331168Y-96599882D01*
X147474025Y-96647501D01*
X147521644Y-96695120D01*
X148378787Y-96933215D02*
X148378787Y-97599882D01*
X148140691Y-96552263D02*
X147902596Y-97266549D01*
X148521644Y-97266549D01*
X148950215Y-97599882D02*
X149140691Y-97599882D01*
X149235930Y-97552263D01*
X149283549Y-97504644D01*
X149378787Y-97361787D01*
X149426406Y-97171311D01*
X149426406Y-96790358D01*
X149378787Y-96695120D01*
X149331168Y-96647501D01*
X149235930Y-96599882D01*
X149045453Y-96599882D01*
X148950215Y-96647501D01*
X148902596Y-96695120D01*
X148854977Y-96790358D01*
X148854977Y-97028453D01*
X148902596Y-97123691D01*
X148950215Y-97171311D01*
X149045453Y-97218930D01*
X149235930Y-97218930D01*
X149331168Y-97171311D01*
X149378787Y-97123691D01*
X149426406Y-97028453D01*
X150061644Y-127934644D02*
X150014025Y-127982263D01*
X149871168Y-128029882D01*
X149775930Y-128029882D01*
X149633072Y-127982263D01*
X149537834Y-127887025D01*
X149490215Y-127791787D01*
X149442596Y-127601311D01*
X149442596Y-127458453D01*
X149490215Y-127267977D01*
X149537834Y-127172739D01*
X149633072Y-127077501D01*
X149775930Y-127029882D01*
X149871168Y-127029882D01*
X150014025Y-127077501D01*
X150061644Y-127125120D01*
X150966406Y-127029882D02*
X150490215Y-127029882D01*
X150442596Y-127506072D01*
X150490215Y-127458453D01*
X150585453Y-127410834D01*
X150823549Y-127410834D01*
X150918787Y-127458453D01*
X150966406Y-127506072D01*
X151014025Y-127601311D01*
X151014025Y-127839406D01*
X150966406Y-127934644D01*
X150918787Y-127982263D01*
X150823549Y-128029882D01*
X150585453Y-128029882D01*
X150490215Y-127982263D01*
X150442596Y-127934644D01*
X151633072Y-127029882D02*
X151728311Y-127029882D01*
X151823549Y-127077501D01*
X151871168Y-127125120D01*
X151918787Y-127220358D01*
X151966406Y-127410834D01*
X151966406Y-127648930D01*
X151918787Y-127839406D01*
X151871168Y-127934644D01*
X151823549Y-127982263D01*
X151728311Y-128029882D01*
X151633072Y-128029882D01*
X151537834Y-127982263D01*
X151490215Y-127934644D01*
X151442596Y-127839406D01*
X151394977Y-127648930D01*
X151394977Y-127410834D01*
X151442596Y-127220358D01*
X151490215Y-127125120D01*
X151537834Y-127077501D01*
X151633072Y-127029882D01*
X85920882Y-107109596D02*
X84920882Y-107109596D01*
X84920882Y-106871501D01*
X84968501Y-106728643D01*
X85063739Y-106633405D01*
X85158977Y-106585786D01*
X85349453Y-106538167D01*
X85492311Y-106538167D01*
X85682787Y-106585786D01*
X85778025Y-106633405D01*
X85873263Y-106728643D01*
X85920882Y-106871501D01*
X85920882Y-107109596D01*
X85920882Y-105585786D02*
X85920882Y-106157215D01*
X85920882Y-105871501D02*
X84920882Y-105871501D01*
X85063739Y-105966739D01*
X85158977Y-106061977D01*
X85206596Y-106157215D01*
X119142667Y-88766382D02*
X119142667Y-87766382D01*
X119380762Y-87766382D01*
X119523620Y-87814001D01*
X119618858Y-87909239D01*
X119666477Y-88004477D01*
X119714096Y-88194953D01*
X119714096Y-88337811D01*
X119666477Y-88528287D01*
X119618858Y-88623525D01*
X119523620Y-88718763D01*
X119380762Y-88766382D01*
X119142667Y-88766382D01*
X120095048Y-87861620D02*
X120142667Y-87814001D01*
X120237905Y-87766382D01*
X120476001Y-87766382D01*
X120571239Y-87814001D01*
X120618858Y-87861620D01*
X120666477Y-87956858D01*
X120666477Y-88052096D01*
X120618858Y-88194953D01*
X120047429Y-88766382D01*
X120666477Y-88766382D01*
X97052667Y-93086382D02*
X97052667Y-92086382D01*
X97290762Y-92086382D01*
X97433620Y-92134001D01*
X97528858Y-92229239D01*
X97576477Y-92324477D01*
X97624096Y-92514953D01*
X97624096Y-92657811D01*
X97576477Y-92848287D01*
X97528858Y-92943525D01*
X97433620Y-93038763D01*
X97290762Y-93086382D01*
X97052667Y-93086382D01*
X97957429Y-92086382D02*
X98576477Y-92086382D01*
X98243143Y-92467334D01*
X98386001Y-92467334D01*
X98481239Y-92514953D01*
X98528858Y-92562572D01*
X98576477Y-92657811D01*
X98576477Y-92895906D01*
X98528858Y-92991144D01*
X98481239Y-93038763D01*
X98386001Y-93086382D01*
X98100286Y-93086382D01*
X98005048Y-93038763D01*
X97957429Y-92991144D01*
X135330882Y-144419596D02*
X134330882Y-144419596D01*
X134330882Y-144181501D01*
X134378501Y-144038643D01*
X134473739Y-143943405D01*
X134568977Y-143895786D01*
X134759453Y-143848167D01*
X134902311Y-143848167D01*
X135092787Y-143895786D01*
X135188025Y-143943405D01*
X135283263Y-144038643D01*
X135330882Y-144181501D01*
X135330882Y-144419596D01*
X134664215Y-142991024D02*
X135330882Y-142991024D01*
X134283263Y-143229120D02*
X134997549Y-143467215D01*
X134997549Y-142848167D01*
X77540643Y-134110833D02*
X78254929Y-134110833D01*
X78397786Y-134158453D01*
X78493024Y-134253691D01*
X78540643Y-134396548D01*
X78540643Y-134491786D01*
X78540643Y-133110833D02*
X78540643Y-133682262D01*
X78540643Y-133396548D02*
X77540643Y-133396548D01*
X77683500Y-133491786D01*
X77778738Y-133587024D01*
X77826357Y-133682262D01*
X104218262Y-117350833D02*
X104932548Y-117350833D01*
X105075405Y-117398453D01*
X105170643Y-117493691D01*
X105218262Y-117636548D01*
X105218262Y-117731786D01*
X104313500Y-116922262D02*
X104265881Y-116874643D01*
X104218262Y-116779405D01*
X104218262Y-116541309D01*
X104265881Y-116446071D01*
X104313500Y-116398452D01*
X104408738Y-116350833D01*
X104503976Y-116350833D01*
X104646833Y-116398452D01*
X105218262Y-116969881D01*
X105218262Y-116350833D01*
X77443167Y-110623882D02*
X77443167Y-111338168D01*
X77395547Y-111481025D01*
X77300309Y-111576263D01*
X77157452Y-111623882D01*
X77062214Y-111623882D01*
X77824119Y-110623882D02*
X78443167Y-110623882D01*
X78109833Y-111004834D01*
X78252691Y-111004834D01*
X78347929Y-111052453D01*
X78395548Y-111100072D01*
X78443167Y-111195311D01*
X78443167Y-111433406D01*
X78395548Y-111528644D01*
X78347929Y-111576263D01*
X78252691Y-111623882D01*
X77966976Y-111623882D01*
X77871738Y-111576263D01*
X77824119Y-111528644D01*
X118423182Y-70540534D02*
X119137468Y-70540534D01*
X119280325Y-70588154D01*
X119375563Y-70683392D01*
X119423182Y-70826249D01*
X119423182Y-70921487D01*
X118756515Y-69635772D02*
X119423182Y-69635772D01*
X118375563Y-69873868D02*
X119089849Y-70111963D01*
X119089849Y-69492915D01*
X106743168Y-94840082D02*
X106743168Y-95554368D01*
X106695548Y-95697225D01*
X106600310Y-95792463D01*
X106457453Y-95840082D01*
X106362215Y-95840082D01*
X107695549Y-94840082D02*
X107219358Y-94840082D01*
X107171739Y-95316272D01*
X107219358Y-95268653D01*
X107314596Y-95221034D01*
X107552692Y-95221034D01*
X107647930Y-95268653D01*
X107695549Y-95316272D01*
X107743168Y-95411511D01*
X107743168Y-95649606D01*
X107695549Y-95744844D01*
X107647930Y-95792463D01*
X107552692Y-95840082D01*
X107314596Y-95840082D01*
X107219358Y-95792463D01*
X107171739Y-95744844D01*
X72744082Y-74704833D02*
X73458368Y-74704833D01*
X73601225Y-74752453D01*
X73696463Y-74847691D01*
X73744082Y-74990548D01*
X73744082Y-75085786D01*
X72744082Y-74323881D02*
X72744082Y-73657214D01*
X73744082Y-74085786D01*
X150023581Y-82324533D02*
X150737867Y-82324533D01*
X150880724Y-82372153D01*
X150975962Y-82467391D01*
X151023581Y-82610248D01*
X151023581Y-82705486D01*
X150452152Y-81705486D02*
X150404533Y-81800724D01*
X150356914Y-81848343D01*
X150261676Y-81895962D01*
X150214057Y-81895962D01*
X150118819Y-81848343D01*
X150071200Y-81800724D01*
X150023581Y-81705486D01*
X150023581Y-81515009D01*
X150071200Y-81419771D01*
X150118819Y-81372152D01*
X150214057Y-81324533D01*
X150261676Y-81324533D01*
X150356914Y-81372152D01*
X150404533Y-81419771D01*
X150452152Y-81515009D01*
X150452152Y-81705486D01*
X150499771Y-81800724D01*
X150547390Y-81848343D01*
X150642629Y-81895962D01*
X150833105Y-81895962D01*
X150928343Y-81848343D01*
X150975962Y-81800724D01*
X151023581Y-81705486D01*
X151023581Y-81515009D01*
X150975962Y-81419771D01*
X150928343Y-81372152D01*
X150833105Y-81324533D01*
X150642629Y-81324533D01*
X150547390Y-81372152D01*
X150499771Y-81419771D01*
X150452152Y-81515009D01*
X140033568Y-128003882D02*
X140033568Y-128718168D01*
X139985948Y-128861025D01*
X139890710Y-128956263D01*
X139747853Y-129003882D01*
X139652615Y-129003882D01*
X140557377Y-129003882D02*
X140747853Y-129003882D01*
X140843092Y-128956263D01*
X140890711Y-128908644D01*
X140985949Y-128765787D01*
X141033568Y-128575311D01*
X141033568Y-128194358D01*
X140985949Y-128099120D01*
X140938330Y-128051501D01*
X140843092Y-128003882D01*
X140652615Y-128003882D01*
X140557377Y-128051501D01*
X140509758Y-128099120D01*
X140462139Y-128194358D01*
X140462139Y-128432453D01*
X140509758Y-128527691D01*
X140557377Y-128575311D01*
X140652615Y-128622930D01*
X140843092Y-128622930D01*
X140938330Y-128575311D01*
X140985949Y-128527691D01*
X141033568Y-128432453D01*
X146189120Y-121543881D02*
X145712929Y-121543881D01*
X145712929Y-120543881D01*
X146474834Y-120639119D02*
X146522453Y-120591500D01*
X146617691Y-120543881D01*
X146855787Y-120543881D01*
X146951025Y-120591500D01*
X146998644Y-120639119D01*
X147046263Y-120734357D01*
X147046263Y-120829595D01*
X146998644Y-120972452D01*
X146427215Y-121543881D01*
X147046263Y-121543881D01*
X147624434Y-123693182D02*
X147148243Y-123693182D01*
X147148243Y-122693182D01*
X147957767Y-123169372D02*
X148291101Y-123169372D01*
X148433958Y-123693182D02*
X147957767Y-123693182D01*
X147957767Y-122693182D01*
X148433958Y-122693182D01*
X148862529Y-123693182D02*
X148862529Y-122693182D01*
X149100624Y-122693182D01*
X149243482Y-122740801D01*
X149338720Y-122836039D01*
X149386339Y-122931277D01*
X149433958Y-123121753D01*
X149433958Y-123264611D01*
X149386339Y-123455087D01*
X149338720Y-123550325D01*
X149243482Y-123645563D01*
X149100624Y-123693182D01*
X148862529Y-123693182D01*
X150386339Y-123693182D02*
X149814910Y-123693182D01*
X150100624Y-123693182D02*
X150100624Y-122693182D01*
X150005386Y-122836039D01*
X149910148Y-122931277D01*
X149814910Y-122978896D01*
X130424434Y-104553182D02*
X129948243Y-104553182D01*
X129948243Y-103553182D01*
X130757767Y-104029372D02*
X131091101Y-104029372D01*
X131233958Y-104553182D02*
X130757767Y-104553182D01*
X130757767Y-103553182D01*
X131233958Y-103553182D01*
X131662529Y-104553182D02*
X131662529Y-103553182D01*
X131900624Y-103553182D01*
X132043482Y-103600801D01*
X132138720Y-103696039D01*
X132186339Y-103791277D01*
X132233958Y-103981753D01*
X132233958Y-104124611D01*
X132186339Y-104315087D01*
X132138720Y-104410325D01*
X132043482Y-104505563D01*
X131900624Y-104553182D01*
X131662529Y-104553182D01*
X132614910Y-103648420D02*
X132662529Y-103600801D01*
X132757767Y-103553182D01*
X132995863Y-103553182D01*
X133091101Y-103600801D01*
X133138720Y-103648420D01*
X133186339Y-103743658D01*
X133186339Y-103838896D01*
X133138720Y-103981753D01*
X132567291Y-104553182D01*
X133186339Y-104553182D01*
X130424434Y-108623182D02*
X129948243Y-108623182D01*
X129948243Y-107623182D01*
X130757767Y-108099372D02*
X131091101Y-108099372D01*
X131233958Y-108623182D02*
X130757767Y-108623182D01*
X130757767Y-107623182D01*
X131233958Y-107623182D01*
X131662529Y-108623182D02*
X131662529Y-107623182D01*
X131900624Y-107623182D01*
X132043482Y-107670801D01*
X132138720Y-107766039D01*
X132186339Y-107861277D01*
X132233958Y-108051753D01*
X132233958Y-108194611D01*
X132186339Y-108385087D01*
X132138720Y-108480325D01*
X132043482Y-108575563D01*
X131900624Y-108623182D01*
X131662529Y-108623182D01*
X132567291Y-107623182D02*
X133186339Y-107623182D01*
X132853005Y-108004134D01*
X132995863Y-108004134D01*
X133091101Y-108051753D01*
X133138720Y-108099372D01*
X133186339Y-108194611D01*
X133186339Y-108432706D01*
X133138720Y-108527944D01*
X133091101Y-108575563D01*
X132995863Y-108623182D01*
X132710148Y-108623182D01*
X132614910Y-108575563D01*
X132567291Y-108527944D01*
X116944335Y-142976382D02*
X116611001Y-142500191D01*
X116372906Y-142976382D02*
X116372906Y-141976382D01*
X116753859Y-141976382D01*
X116849097Y-142024001D01*
X116896716Y-142071620D01*
X116944335Y-142166858D01*
X116944335Y-142309715D01*
X116896716Y-142404953D01*
X116849097Y-142452572D01*
X116753859Y-142500191D01*
X116372906Y-142500191D01*
X117896716Y-142976382D02*
X117325287Y-142976382D01*
X117611001Y-142976382D02*
X117611001Y-141976382D01*
X117515763Y-142119239D01*
X117420525Y-142214477D01*
X117325287Y-142262096D01*
X133636000Y-113036382D02*
X133302666Y-112560191D01*
X133064571Y-113036382D02*
X133064571Y-112036382D01*
X133445524Y-112036382D01*
X133540762Y-112084001D01*
X133588381Y-112131620D01*
X133636000Y-112226858D01*
X133636000Y-112369715D01*
X133588381Y-112464953D01*
X133540762Y-112512572D01*
X133445524Y-112560191D01*
X133064571Y-112560191D01*
X134016952Y-112131620D02*
X134064571Y-112084001D01*
X134159809Y-112036382D01*
X134397905Y-112036382D01*
X134493143Y-112084001D01*
X134540762Y-112131620D01*
X134588381Y-112226858D01*
X134588381Y-112322096D01*
X134540762Y-112464953D01*
X133969333Y-113036382D01*
X134588381Y-113036382D01*
X123157905Y-126836382D02*
X122824571Y-126360191D01*
X122586476Y-126836382D02*
X122586476Y-125836382D01*
X122967429Y-125836382D01*
X123062667Y-125884001D01*
X123110286Y-125931620D01*
X123157905Y-126026858D01*
X123157905Y-126169715D01*
X123110286Y-126264953D01*
X123062667Y-126312572D01*
X122967429Y-126360191D01*
X122586476Y-126360191D01*
X123491238Y-125836382D02*
X124110286Y-125836382D01*
X123776952Y-126217334D01*
X123919810Y-126217334D01*
X124015048Y-126264953D01*
X124062667Y-126312572D01*
X124110286Y-126407811D01*
X124110286Y-126645906D01*
X124062667Y-126741144D01*
X124015048Y-126788763D01*
X123919810Y-126836382D01*
X123634095Y-126836382D01*
X123538857Y-126788763D01*
X123491238Y-126741144D01*
X115747905Y-136336382D02*
X115414571Y-135860191D01*
X115176476Y-136336382D02*
X115176476Y-135336382D01*
X115557429Y-135336382D01*
X115652667Y-135384001D01*
X115700286Y-135431620D01*
X115747905Y-135526858D01*
X115747905Y-135669715D01*
X115700286Y-135764953D01*
X115652667Y-135812572D01*
X115557429Y-135860191D01*
X115176476Y-135860191D01*
X116605048Y-135669715D02*
X116605048Y-136336382D01*
X116366952Y-135288763D02*
X116128857Y-136003049D01*
X116747905Y-136003049D01*
X103786000Y-142036382D02*
X103452666Y-141560191D01*
X103214571Y-142036382D02*
X103214571Y-141036382D01*
X103595524Y-141036382D01*
X103690762Y-141084001D01*
X103738381Y-141131620D01*
X103786000Y-141226858D01*
X103786000Y-141369715D01*
X103738381Y-141464953D01*
X103690762Y-141512572D01*
X103595524Y-141560191D01*
X103214571Y-141560191D01*
X104690762Y-141036382D02*
X104214571Y-141036382D01*
X104166952Y-141512572D01*
X104214571Y-141464953D01*
X104309809Y-141417334D01*
X104547905Y-141417334D01*
X104643143Y-141464953D01*
X104690762Y-141512572D01*
X104738381Y-141607811D01*
X104738381Y-141845906D01*
X104690762Y-141941144D01*
X104643143Y-141988763D01*
X104547905Y-142036382D01*
X104309809Y-142036382D01*
X104214571Y-141988763D01*
X104166952Y-141941144D01*
X121386000Y-122786382D02*
X121052666Y-122310191D01*
X120814571Y-122786382D02*
X120814571Y-121786382D01*
X121195524Y-121786382D01*
X121290762Y-121834001D01*
X121338381Y-121881620D01*
X121386000Y-121976858D01*
X121386000Y-122119715D01*
X121338381Y-122214953D01*
X121290762Y-122262572D01*
X121195524Y-122310191D01*
X120814571Y-122310191D01*
X122243143Y-121786382D02*
X122052666Y-121786382D01*
X121957428Y-121834001D01*
X121909809Y-121881620D01*
X121814571Y-122024477D01*
X121766952Y-122214953D01*
X121766952Y-122595906D01*
X121814571Y-122691144D01*
X121862190Y-122738763D01*
X121957428Y-122786382D01*
X122147905Y-122786382D01*
X122243143Y-122738763D01*
X122290762Y-122691144D01*
X122338381Y-122595906D01*
X122338381Y-122357811D01*
X122290762Y-122262572D01*
X122243143Y-122214953D01*
X122147905Y-122167334D01*
X121957428Y-122167334D01*
X121862190Y-122214953D01*
X121814571Y-122262572D01*
X121766952Y-122357811D01*
X131424335Y-134416382D02*
X131091001Y-133940191D01*
X130852906Y-134416382D02*
X130852906Y-133416382D01*
X131233859Y-133416382D01*
X131329097Y-133464001D01*
X131376716Y-133511620D01*
X131424335Y-133606858D01*
X131424335Y-133749715D01*
X131376716Y-133844953D01*
X131329097Y-133892572D01*
X131233859Y-133940191D01*
X130852906Y-133940191D01*
X131757668Y-133416382D02*
X132424335Y-133416382D01*
X131995763Y-134416382D01*
X133636000Y-117086382D02*
X133302666Y-116610191D01*
X133064571Y-117086382D02*
X133064571Y-116086382D01*
X133445524Y-116086382D01*
X133540762Y-116134001D01*
X133588381Y-116181620D01*
X133636000Y-116276858D01*
X133636000Y-116419715D01*
X133588381Y-116514953D01*
X133540762Y-116562572D01*
X133445524Y-116610191D01*
X133064571Y-116610191D01*
X134207428Y-116514953D02*
X134112190Y-116467334D01*
X134064571Y-116419715D01*
X134016952Y-116324477D01*
X134016952Y-116276858D01*
X134064571Y-116181620D01*
X134112190Y-116134001D01*
X134207428Y-116086382D01*
X134397905Y-116086382D01*
X134493143Y-116134001D01*
X134540762Y-116181620D01*
X134588381Y-116276858D01*
X134588381Y-116324477D01*
X134540762Y-116419715D01*
X134493143Y-116467334D01*
X134397905Y-116514953D01*
X134207428Y-116514953D01*
X134112190Y-116562572D01*
X134064571Y-116610191D01*
X134016952Y-116705430D01*
X134016952Y-116895906D01*
X134064571Y-116991144D01*
X134112190Y-117038763D01*
X134207428Y-117086382D01*
X134397905Y-117086382D01*
X134493143Y-117038763D01*
X134540762Y-116991144D01*
X134588381Y-116895906D01*
X134588381Y-116705430D01*
X134540762Y-116610191D01*
X134493143Y-116562572D01*
X134397905Y-116514953D01*
X108626000Y-142036382D02*
X108292666Y-141560191D01*
X108054571Y-142036382D02*
X108054571Y-141036382D01*
X108435524Y-141036382D01*
X108530762Y-141084001D01*
X108578381Y-141131620D01*
X108626000Y-141226858D01*
X108626000Y-141369715D01*
X108578381Y-141464953D01*
X108530762Y-141512572D01*
X108435524Y-141560191D01*
X108054571Y-141560191D01*
X109102190Y-142036382D02*
X109292666Y-142036382D01*
X109387905Y-141988763D01*
X109435524Y-141941144D01*
X109530762Y-141798287D01*
X109578381Y-141607811D01*
X109578381Y-141226858D01*
X109530762Y-141131620D01*
X109483143Y-141084001D01*
X109387905Y-141036382D01*
X109197428Y-141036382D01*
X109102190Y-141084001D01*
X109054571Y-141131620D01*
X109006952Y-141226858D01*
X109006952Y-141464953D01*
X109054571Y-141560191D01*
X109102190Y-141607811D01*
X109197428Y-141655430D01*
X109387905Y-141655430D01*
X109483143Y-141607811D01*
X109530762Y-141560191D01*
X109578381Y-141464953D01*
X134398144Y-134416382D02*
X134064810Y-133940191D01*
X133826715Y-134416382D02*
X133826715Y-133416382D01*
X134207668Y-133416382D01*
X134302906Y-133464001D01*
X134350525Y-133511620D01*
X134398144Y-133606858D01*
X134398144Y-133749715D01*
X134350525Y-133844953D01*
X134302906Y-133892572D01*
X134207668Y-133940191D01*
X133826715Y-133940191D01*
X135350525Y-134416382D02*
X134779096Y-134416382D01*
X135064810Y-134416382D02*
X135064810Y-133416382D01*
X134969572Y-133559239D01*
X134874334Y-133654477D01*
X134779096Y-133702096D01*
X135969572Y-133416382D02*
X136064811Y-133416382D01*
X136160049Y-133464001D01*
X136207668Y-133511620D01*
X136255287Y-133606858D01*
X136302906Y-133797334D01*
X136302906Y-134035430D01*
X136255287Y-134225906D01*
X136207668Y-134321144D01*
X136160049Y-134368763D01*
X136064811Y-134416382D01*
X135969572Y-134416382D01*
X135874334Y-134368763D01*
X135826715Y-134321144D01*
X135779096Y-134225906D01*
X135731477Y-134035430D01*
X135731477Y-133797334D01*
X135779096Y-133606858D01*
X135826715Y-133511620D01*
X135874334Y-133464001D01*
X135969572Y-133416382D01*
X105829809Y-137986382D02*
X105496475Y-137510191D01*
X105258380Y-137986382D02*
X105258380Y-136986382D01*
X105639333Y-136986382D01*
X105734571Y-137034001D01*
X105782190Y-137081620D01*
X105829809Y-137176858D01*
X105829809Y-137319715D01*
X105782190Y-137414953D01*
X105734571Y-137462572D01*
X105639333Y-137510191D01*
X105258380Y-137510191D01*
X106782190Y-137986382D02*
X106210761Y-137986382D01*
X106496475Y-137986382D02*
X106496475Y-136986382D01*
X106401237Y-137129239D01*
X106305999Y-137224477D01*
X106210761Y-137272096D01*
X107734571Y-137986382D02*
X107163142Y-137986382D01*
X107448856Y-137986382D02*
X107448856Y-136986382D01*
X107353618Y-137129239D01*
X107258380Y-137224477D01*
X107163142Y-137272096D01*
X128319809Y-113036382D02*
X127986475Y-112560191D01*
X127748380Y-113036382D02*
X127748380Y-112036382D01*
X128129333Y-112036382D01*
X128224571Y-112084001D01*
X128272190Y-112131620D01*
X128319809Y-112226858D01*
X128319809Y-112369715D01*
X128272190Y-112464953D01*
X128224571Y-112512572D01*
X128129333Y-112560191D01*
X127748380Y-112560191D01*
X129272190Y-113036382D02*
X128700761Y-113036382D01*
X128986475Y-113036382D02*
X128986475Y-112036382D01*
X128891237Y-112179239D01*
X128795999Y-112274477D01*
X128700761Y-112322096D01*
X129653142Y-112131620D02*
X129700761Y-112084001D01*
X129795999Y-112036382D01*
X130034095Y-112036382D01*
X130129333Y-112084001D01*
X130176952Y-112131620D01*
X130224571Y-112226858D01*
X130224571Y-112322096D01*
X130176952Y-112464953D01*
X129605523Y-113036382D01*
X130224571Y-113036382D01*
X123348144Y-137526382D02*
X123014810Y-137050191D01*
X122776715Y-137526382D02*
X122776715Y-136526382D01*
X123157668Y-136526382D01*
X123252906Y-136574001D01*
X123300525Y-136621620D01*
X123348144Y-136716858D01*
X123348144Y-136859715D01*
X123300525Y-136954953D01*
X123252906Y-137002572D01*
X123157668Y-137050191D01*
X122776715Y-137050191D01*
X124300525Y-137526382D02*
X123729096Y-137526382D01*
X124014810Y-137526382D02*
X124014810Y-136526382D01*
X123919572Y-136669239D01*
X123824334Y-136764477D01*
X123729096Y-136812096D01*
X124633858Y-136526382D02*
X125252906Y-136526382D01*
X124919572Y-136907334D01*
X125062430Y-136907334D01*
X125157668Y-136954953D01*
X125205287Y-137002572D01*
X125252906Y-137097811D01*
X125252906Y-137335906D01*
X125205287Y-137431144D01*
X125157668Y-137478763D01*
X125062430Y-137526382D01*
X124776715Y-137526382D01*
X124681477Y-137478763D01*
X124633858Y-137431144D01*
X126798144Y-138986382D02*
X126464810Y-138510191D01*
X126226715Y-138986382D02*
X126226715Y-137986382D01*
X126607668Y-137986382D01*
X126702906Y-138034001D01*
X126750525Y-138081620D01*
X126798144Y-138176858D01*
X126798144Y-138319715D01*
X126750525Y-138414953D01*
X126702906Y-138462572D01*
X126607668Y-138510191D01*
X126226715Y-138510191D01*
X127750525Y-138986382D02*
X127179096Y-138986382D01*
X127464810Y-138986382D02*
X127464810Y-137986382D01*
X127369572Y-138129239D01*
X127274334Y-138224477D01*
X127179096Y-138272096D01*
X128607668Y-138319715D02*
X128607668Y-138986382D01*
X128369572Y-137938763D02*
X128131477Y-138653049D01*
X128750525Y-138653049D01*
X112759809Y-132286382D02*
X112426475Y-131810191D01*
X112188380Y-132286382D02*
X112188380Y-131286382D01*
X112569333Y-131286382D01*
X112664571Y-131334001D01*
X112712190Y-131381620D01*
X112759809Y-131476858D01*
X112759809Y-131619715D01*
X112712190Y-131714953D01*
X112664571Y-131762572D01*
X112569333Y-131810191D01*
X112188380Y-131810191D01*
X113712190Y-132286382D02*
X113140761Y-132286382D01*
X113426475Y-132286382D02*
X113426475Y-131286382D01*
X113331237Y-131429239D01*
X113235999Y-131524477D01*
X113140761Y-131572096D01*
X114616952Y-131286382D02*
X114140761Y-131286382D01*
X114093142Y-131762572D01*
X114140761Y-131714953D01*
X114235999Y-131667334D01*
X114474095Y-131667334D01*
X114569333Y-131714953D01*
X114616952Y-131762572D01*
X114664571Y-131857811D01*
X114664571Y-132095906D01*
X114616952Y-132191144D01*
X114569333Y-132238763D01*
X114474095Y-132286382D01*
X114235999Y-132286382D01*
X114140761Y-132238763D01*
X114093142Y-132191144D01*
X113239809Y-127636382D02*
X112906475Y-127160191D01*
X112668380Y-127636382D02*
X112668380Y-126636382D01*
X113049333Y-126636382D01*
X113144571Y-126684001D01*
X113192190Y-126731620D01*
X113239809Y-126826858D01*
X113239809Y-126969715D01*
X113192190Y-127064953D01*
X113144571Y-127112572D01*
X113049333Y-127160191D01*
X112668380Y-127160191D01*
X114192190Y-127636382D02*
X113620761Y-127636382D01*
X113906475Y-127636382D02*
X113906475Y-126636382D01*
X113811237Y-126779239D01*
X113715999Y-126874477D01*
X113620761Y-126922096D01*
X115049333Y-126636382D02*
X114858856Y-126636382D01*
X114763618Y-126684001D01*
X114715999Y-126731620D01*
X114620761Y-126874477D01*
X114573142Y-127064953D01*
X114573142Y-127445906D01*
X114620761Y-127541144D01*
X114668380Y-127588763D01*
X114763618Y-127636382D01*
X114954095Y-127636382D01*
X115049333Y-127588763D01*
X115096952Y-127541144D01*
X115144571Y-127445906D01*
X115144571Y-127207811D01*
X115096952Y-127112572D01*
X115049333Y-127064953D01*
X114954095Y-127017334D01*
X114763618Y-127017334D01*
X114668380Y-127064953D01*
X114620761Y-127112572D01*
X114573142Y-127207811D01*
X120618144Y-141576382D02*
X120284810Y-141100191D01*
X120046715Y-141576382D02*
X120046715Y-140576382D01*
X120427668Y-140576382D01*
X120522906Y-140624001D01*
X120570525Y-140671620D01*
X120618144Y-140766858D01*
X120618144Y-140909715D01*
X120570525Y-141004953D01*
X120522906Y-141052572D01*
X120427668Y-141100191D01*
X120046715Y-141100191D01*
X121570525Y-141576382D02*
X120999096Y-141576382D01*
X121284810Y-141576382D02*
X121284810Y-140576382D01*
X121189572Y-140719239D01*
X121094334Y-140814477D01*
X120999096Y-140862096D01*
X121903858Y-140576382D02*
X122570525Y-140576382D01*
X122141953Y-141576382D01*
X127498144Y-134936382D02*
X127164810Y-134460191D01*
X126926715Y-134936382D02*
X126926715Y-133936382D01*
X127307668Y-133936382D01*
X127402906Y-133984001D01*
X127450525Y-134031620D01*
X127498144Y-134126858D01*
X127498144Y-134269715D01*
X127450525Y-134364953D01*
X127402906Y-134412572D01*
X127307668Y-134460191D01*
X126926715Y-134460191D01*
X128450525Y-134936382D02*
X127879096Y-134936382D01*
X128164810Y-134936382D02*
X128164810Y-133936382D01*
X128069572Y-134079239D01*
X127974334Y-134174477D01*
X127879096Y-134222096D01*
X129021953Y-134364953D02*
X128926715Y-134317334D01*
X128879096Y-134269715D01*
X128831477Y-134174477D01*
X128831477Y-134126858D01*
X128879096Y-134031620D01*
X128926715Y-133984001D01*
X129021953Y-133936382D01*
X129212430Y-133936382D01*
X129307668Y-133984001D01*
X129355287Y-134031620D01*
X129402906Y-134126858D01*
X129402906Y-134174477D01*
X129355287Y-134269715D01*
X129307668Y-134317334D01*
X129212430Y-134364953D01*
X129021953Y-134364953D01*
X128926715Y-134412572D01*
X128879096Y-134460191D01*
X128831477Y-134555430D01*
X128831477Y-134745906D01*
X128879096Y-134841144D01*
X128926715Y-134888763D01*
X129021953Y-134936382D01*
X129212430Y-134936382D01*
X129307668Y-134888763D01*
X129355287Y-134841144D01*
X129402906Y-134745906D01*
X129402906Y-134555430D01*
X129355287Y-134460191D01*
X129307668Y-134412572D01*
X129212430Y-134364953D01*
X130758144Y-130366382D02*
X130424810Y-129890191D01*
X130186715Y-130366382D02*
X130186715Y-129366382D01*
X130567668Y-129366382D01*
X130662906Y-129414001D01*
X130710525Y-129461620D01*
X130758144Y-129556858D01*
X130758144Y-129699715D01*
X130710525Y-129794953D01*
X130662906Y-129842572D01*
X130567668Y-129890191D01*
X130186715Y-129890191D01*
X131710525Y-130366382D02*
X131139096Y-130366382D01*
X131424810Y-130366382D02*
X131424810Y-129366382D01*
X131329572Y-129509239D01*
X131234334Y-129604477D01*
X131139096Y-129652096D01*
X132186715Y-130366382D02*
X132377191Y-130366382D01*
X132472430Y-130318763D01*
X132520049Y-130271144D01*
X132615287Y-130128287D01*
X132662906Y-129937811D01*
X132662906Y-129556858D01*
X132615287Y-129461620D01*
X132567668Y-129414001D01*
X132472430Y-129366382D01*
X132281953Y-129366382D01*
X132186715Y-129414001D01*
X132139096Y-129461620D01*
X132091477Y-129556858D01*
X132091477Y-129794953D01*
X132139096Y-129890191D01*
X132186715Y-129937811D01*
X132281953Y-129985430D01*
X132472430Y-129985430D01*
X132567668Y-129937811D01*
X132615287Y-129890191D01*
X132662906Y-129794953D01*
X82925214Y-143929882D02*
X82591880Y-143453691D01*
X82353785Y-143929882D02*
X82353785Y-142929882D01*
X82734738Y-142929882D01*
X82829976Y-142977501D01*
X82877595Y-143025120D01*
X82925214Y-143120358D01*
X82925214Y-143263215D01*
X82877595Y-143358453D01*
X82829976Y-143406072D01*
X82734738Y-143453691D01*
X82353785Y-143453691D01*
X83306166Y-143025120D02*
X83353785Y-142977501D01*
X83449023Y-142929882D01*
X83687119Y-142929882D01*
X83782357Y-142977501D01*
X83829976Y-143025120D01*
X83877595Y-143120358D01*
X83877595Y-143215596D01*
X83829976Y-143358453D01*
X83258547Y-143929882D01*
X83877595Y-143929882D01*
X84496642Y-142929882D02*
X84591881Y-142929882D01*
X84687119Y-142977501D01*
X84734738Y-143025120D01*
X84782357Y-143120358D01*
X84829976Y-143310834D01*
X84829976Y-143548930D01*
X84782357Y-143739406D01*
X84734738Y-143834644D01*
X84687119Y-143882263D01*
X84591881Y-143929882D01*
X84496642Y-143929882D01*
X84401404Y-143882263D01*
X84353785Y-143834644D01*
X84306166Y-143739406D01*
X84258547Y-143548930D01*
X84258547Y-143310834D01*
X84306166Y-143120358D01*
X84353785Y-143025120D01*
X84401404Y-142977501D01*
X84496642Y-142929882D01*
X78565214Y-143929882D02*
X78231880Y-143453691D01*
X77993785Y-143929882D02*
X77993785Y-142929882D01*
X78374738Y-142929882D01*
X78469976Y-142977501D01*
X78517595Y-143025120D01*
X78565214Y-143120358D01*
X78565214Y-143263215D01*
X78517595Y-143358453D01*
X78469976Y-143406072D01*
X78374738Y-143453691D01*
X77993785Y-143453691D01*
X78946166Y-143025120D02*
X78993785Y-142977501D01*
X79089023Y-142929882D01*
X79327119Y-142929882D01*
X79422357Y-142977501D01*
X79469976Y-143025120D01*
X79517595Y-143120358D01*
X79517595Y-143215596D01*
X79469976Y-143358453D01*
X78898547Y-143929882D01*
X79517595Y-143929882D01*
X80469976Y-143929882D02*
X79898547Y-143929882D01*
X80184261Y-143929882D02*
X80184261Y-142929882D01*
X80089023Y-143072739D01*
X79993785Y-143167977D01*
X79898547Y-143215596D01*
X134283619Y-121136382D02*
X133950285Y-120660191D01*
X133712190Y-121136382D02*
X133712190Y-120136382D01*
X134093143Y-120136382D01*
X134188381Y-120184001D01*
X134236000Y-120231620D01*
X134283619Y-120326858D01*
X134283619Y-120469715D01*
X134236000Y-120564953D01*
X134188381Y-120612572D01*
X134093143Y-120660191D01*
X133712190Y-120660191D01*
X134664571Y-120231620D02*
X134712190Y-120184001D01*
X134807428Y-120136382D01*
X135045524Y-120136382D01*
X135140762Y-120184001D01*
X135188381Y-120231620D01*
X135236000Y-120326858D01*
X135236000Y-120422096D01*
X135188381Y-120564953D01*
X134616952Y-121136382D01*
X135236000Y-121136382D01*
X135616952Y-120231620D02*
X135664571Y-120184001D01*
X135759809Y-120136382D01*
X135997905Y-120136382D01*
X136093143Y-120184001D01*
X136140762Y-120231620D01*
X136188381Y-120326858D01*
X136188381Y-120422096D01*
X136140762Y-120564953D01*
X135569333Y-121136382D01*
X136188381Y-121136382D01*
X118079809Y-127636382D02*
X117746475Y-127160191D01*
X117508380Y-127636382D02*
X117508380Y-126636382D01*
X117889333Y-126636382D01*
X117984571Y-126684001D01*
X118032190Y-126731620D01*
X118079809Y-126826858D01*
X118079809Y-126969715D01*
X118032190Y-127064953D01*
X117984571Y-127112572D01*
X117889333Y-127160191D01*
X117508380Y-127160191D01*
X118460761Y-126731620D02*
X118508380Y-126684001D01*
X118603618Y-126636382D01*
X118841714Y-126636382D01*
X118936952Y-126684001D01*
X118984571Y-126731620D01*
X119032190Y-126826858D01*
X119032190Y-126922096D01*
X118984571Y-127064953D01*
X118413142Y-127636382D01*
X119032190Y-127636382D01*
X119365523Y-126636382D02*
X119984571Y-126636382D01*
X119651237Y-127017334D01*
X119794095Y-127017334D01*
X119889333Y-127064953D01*
X119936952Y-127112572D01*
X119984571Y-127207811D01*
X119984571Y-127445906D01*
X119936952Y-127541144D01*
X119889333Y-127588763D01*
X119794095Y-127636382D01*
X119508380Y-127636382D01*
X119413142Y-127588763D01*
X119365523Y-127541144D01*
X134208144Y-130366382D02*
X133874810Y-129890191D01*
X133636715Y-130366382D02*
X133636715Y-129366382D01*
X134017668Y-129366382D01*
X134112906Y-129414001D01*
X134160525Y-129461620D01*
X134208144Y-129556858D01*
X134208144Y-129699715D01*
X134160525Y-129794953D01*
X134112906Y-129842572D01*
X134017668Y-129890191D01*
X133636715Y-129890191D01*
X134589096Y-129461620D02*
X134636715Y-129414001D01*
X134731953Y-129366382D01*
X134970049Y-129366382D01*
X135065287Y-129414001D01*
X135112906Y-129461620D01*
X135160525Y-129556858D01*
X135160525Y-129652096D01*
X135112906Y-129794953D01*
X134541477Y-130366382D01*
X135160525Y-130366382D01*
X136017668Y-129699715D02*
X136017668Y-130366382D01*
X135779572Y-129318763D02*
X135541477Y-130033049D01*
X136160525Y-130033049D01*
X125749809Y-122786382D02*
X125416475Y-122310191D01*
X125178380Y-122786382D02*
X125178380Y-121786382D01*
X125559333Y-121786382D01*
X125654571Y-121834001D01*
X125702190Y-121881620D01*
X125749809Y-121976858D01*
X125749809Y-122119715D01*
X125702190Y-122214953D01*
X125654571Y-122262572D01*
X125559333Y-122310191D01*
X125178380Y-122310191D01*
X126130761Y-121881620D02*
X126178380Y-121834001D01*
X126273618Y-121786382D01*
X126511714Y-121786382D01*
X126606952Y-121834001D01*
X126654571Y-121881620D01*
X126702190Y-121976858D01*
X126702190Y-122072096D01*
X126654571Y-122214953D01*
X126083142Y-122786382D01*
X126702190Y-122786382D01*
X127606952Y-121786382D02*
X127130761Y-121786382D01*
X127083142Y-122262572D01*
X127130761Y-122214953D01*
X127225999Y-122167334D01*
X127464095Y-122167334D01*
X127559333Y-122214953D01*
X127606952Y-122262572D01*
X127654571Y-122357811D01*
X127654571Y-122595906D01*
X127606952Y-122691144D01*
X127559333Y-122738763D01*
X127464095Y-122786382D01*
X127225999Y-122786382D01*
X127130761Y-122738763D01*
X127083142Y-122691144D01*
X124283619Y-143036382D02*
X123950285Y-142560191D01*
X123712190Y-143036382D02*
X123712190Y-142036382D01*
X124093143Y-142036382D01*
X124188381Y-142084001D01*
X124236000Y-142131620D01*
X124283619Y-142226858D01*
X124283619Y-142369715D01*
X124236000Y-142464953D01*
X124188381Y-142512572D01*
X124093143Y-142560191D01*
X123712190Y-142560191D01*
X124664571Y-142131620D02*
X124712190Y-142084001D01*
X124807428Y-142036382D01*
X125045524Y-142036382D01*
X125140762Y-142084001D01*
X125188381Y-142131620D01*
X125236000Y-142226858D01*
X125236000Y-142322096D01*
X125188381Y-142464953D01*
X124616952Y-143036382D01*
X125236000Y-143036382D01*
X126093143Y-142036382D02*
X125902666Y-142036382D01*
X125807428Y-142084001D01*
X125759809Y-142131620D01*
X125664571Y-142274477D01*
X125616952Y-142464953D01*
X125616952Y-142845906D01*
X125664571Y-142941144D01*
X125712190Y-142988763D01*
X125807428Y-143036382D01*
X125997905Y-143036382D01*
X126093143Y-142988763D01*
X126140762Y-142941144D01*
X126188381Y-142845906D01*
X126188381Y-142607811D01*
X126140762Y-142512572D01*
X126093143Y-142464953D01*
X125997905Y-142417334D01*
X125807428Y-142417334D01*
X125712190Y-142464953D01*
X125664571Y-142512572D01*
X125616952Y-142607811D01*
X117599809Y-131686382D02*
X117266475Y-131210191D01*
X117028380Y-131686382D02*
X117028380Y-130686382D01*
X117409333Y-130686382D01*
X117504571Y-130734001D01*
X117552190Y-130781620D01*
X117599809Y-130876858D01*
X117599809Y-131019715D01*
X117552190Y-131114953D01*
X117504571Y-131162572D01*
X117409333Y-131210191D01*
X117028380Y-131210191D01*
X117980761Y-130781620D02*
X118028380Y-130734001D01*
X118123618Y-130686382D01*
X118361714Y-130686382D01*
X118456952Y-130734001D01*
X118504571Y-130781620D01*
X118552190Y-130876858D01*
X118552190Y-130972096D01*
X118504571Y-131114953D01*
X117933142Y-131686382D01*
X118552190Y-131686382D01*
X118885523Y-130686382D02*
X119552190Y-130686382D01*
X119123618Y-131686382D01*
X130948144Y-138466382D02*
X130614810Y-137990191D01*
X130376715Y-138466382D02*
X130376715Y-137466382D01*
X130757668Y-137466382D01*
X130852906Y-137514001D01*
X130900525Y-137561620D01*
X130948144Y-137656858D01*
X130948144Y-137799715D01*
X130900525Y-137894953D01*
X130852906Y-137942572D01*
X130757668Y-137990191D01*
X130376715Y-137990191D01*
X131329096Y-137561620D02*
X131376715Y-137514001D01*
X131471953Y-137466382D01*
X131710049Y-137466382D01*
X131805287Y-137514001D01*
X131852906Y-137561620D01*
X131900525Y-137656858D01*
X131900525Y-137752096D01*
X131852906Y-137894953D01*
X131281477Y-138466382D01*
X131900525Y-138466382D01*
X132471953Y-137894953D02*
X132376715Y-137847334D01*
X132329096Y-137799715D01*
X132281477Y-137704477D01*
X132281477Y-137656858D01*
X132329096Y-137561620D01*
X132376715Y-137514001D01*
X132471953Y-137466382D01*
X132662430Y-137466382D01*
X132757668Y-137514001D01*
X132805287Y-137561620D01*
X132852906Y-137656858D01*
X132852906Y-137704477D01*
X132805287Y-137799715D01*
X132757668Y-137847334D01*
X132662430Y-137894953D01*
X132471953Y-137894953D01*
X132376715Y-137942572D01*
X132329096Y-137990191D01*
X132281477Y-138085430D01*
X132281477Y-138275906D01*
X132329096Y-138371144D01*
X132376715Y-138418763D01*
X132471953Y-138466382D01*
X132662430Y-138466382D01*
X132757668Y-138418763D01*
X132805287Y-138371144D01*
X132852906Y-138275906D01*
X132852906Y-138085430D01*
X132805287Y-137990191D01*
X132757668Y-137942572D01*
X132662430Y-137894953D01*
X110669809Y-137986382D02*
X110336475Y-137510191D01*
X110098380Y-137986382D02*
X110098380Y-136986382D01*
X110479333Y-136986382D01*
X110574571Y-137034001D01*
X110622190Y-137081620D01*
X110669809Y-137176858D01*
X110669809Y-137319715D01*
X110622190Y-137414953D01*
X110574571Y-137462572D01*
X110479333Y-137510191D01*
X110098380Y-137510191D01*
X111050761Y-137081620D02*
X111098380Y-137034001D01*
X111193618Y-136986382D01*
X111431714Y-136986382D01*
X111526952Y-137034001D01*
X111574571Y-137081620D01*
X111622190Y-137176858D01*
X111622190Y-137272096D01*
X111574571Y-137414953D01*
X111003142Y-137986382D01*
X111622190Y-137986382D01*
X112098380Y-137986382D02*
X112288856Y-137986382D01*
X112384095Y-137938763D01*
X112431714Y-137891144D01*
X112526952Y-137748287D01*
X112574571Y-137557811D01*
X112574571Y-137176858D01*
X112526952Y-137081620D01*
X112479333Y-137034001D01*
X112384095Y-136986382D01*
X112193618Y-136986382D01*
X112098380Y-137034001D01*
X112050761Y-137081620D01*
X112003142Y-137176858D01*
X112003142Y-137414953D01*
X112050761Y-137510191D01*
X112098380Y-137557811D01*
X112193618Y-137605430D01*
X112384095Y-137605430D01*
X112479333Y-137557811D01*
X112526952Y-137510191D01*
X112574571Y-137414953D01*
X128319809Y-117086382D02*
X127986475Y-116610191D01*
X127748380Y-117086382D02*
X127748380Y-116086382D01*
X128129333Y-116086382D01*
X128224571Y-116134001D01*
X128272190Y-116181620D01*
X128319809Y-116276858D01*
X128319809Y-116419715D01*
X128272190Y-116514953D01*
X128224571Y-116562572D01*
X128129333Y-116610191D01*
X127748380Y-116610191D01*
X128653142Y-116086382D02*
X129272190Y-116086382D01*
X128938856Y-116467334D01*
X129081714Y-116467334D01*
X129176952Y-116514953D01*
X129224571Y-116562572D01*
X129272190Y-116657811D01*
X129272190Y-116895906D01*
X129224571Y-116991144D01*
X129176952Y-117038763D01*
X129081714Y-117086382D01*
X128795999Y-117086382D01*
X128700761Y-117038763D01*
X128653142Y-116991144D01*
X129891237Y-116086382D02*
X129986476Y-116086382D01*
X130081714Y-116134001D01*
X130129333Y-116181620D01*
X130176952Y-116276858D01*
X130224571Y-116467334D01*
X130224571Y-116705430D01*
X130176952Y-116895906D01*
X130129333Y-116991144D01*
X130081714Y-117038763D01*
X129986476Y-117086382D01*
X129891237Y-117086382D01*
X129795999Y-117038763D01*
X129748380Y-116991144D01*
X129700761Y-116895906D01*
X129653142Y-116705430D01*
X129653142Y-116467334D01*
X129700761Y-116276858D01*
X129748380Y-116181620D01*
X129795999Y-116134001D01*
X129891237Y-116086382D01*
X122628144Y-101116382D02*
X122294810Y-100640191D01*
X122056715Y-101116382D02*
X122056715Y-100116382D01*
X122437668Y-100116382D01*
X122532906Y-100164001D01*
X122580525Y-100211620D01*
X122628144Y-100306858D01*
X122628144Y-100449715D01*
X122580525Y-100544953D01*
X122532906Y-100592572D01*
X122437668Y-100640191D01*
X122056715Y-100640191D01*
X122961477Y-100116382D02*
X123580525Y-100116382D01*
X123247191Y-100497334D01*
X123390049Y-100497334D01*
X123485287Y-100544953D01*
X123532906Y-100592572D01*
X123580525Y-100687811D01*
X123580525Y-100925906D01*
X123532906Y-101021144D01*
X123485287Y-101068763D01*
X123390049Y-101116382D01*
X123104334Y-101116382D01*
X123009096Y-101068763D01*
X122961477Y-101021144D01*
X124532906Y-101116382D02*
X123961477Y-101116382D01*
X124247191Y-101116382D02*
X124247191Y-100116382D01*
X124151953Y-100259239D01*
X124056715Y-100354477D01*
X123961477Y-100402096D01*
X138538144Y-87596382D02*
X138204810Y-87120191D01*
X137966715Y-87596382D02*
X137966715Y-86596382D01*
X138347668Y-86596382D01*
X138442906Y-86644001D01*
X138490525Y-86691620D01*
X138538144Y-86786858D01*
X138538144Y-86929715D01*
X138490525Y-87024953D01*
X138442906Y-87072572D01*
X138347668Y-87120191D01*
X137966715Y-87120191D01*
X138871477Y-86596382D02*
X139490525Y-86596382D01*
X139157191Y-86977334D01*
X139300049Y-86977334D01*
X139395287Y-87024953D01*
X139442906Y-87072572D01*
X139490525Y-87167811D01*
X139490525Y-87405906D01*
X139442906Y-87501144D01*
X139395287Y-87548763D01*
X139300049Y-87596382D01*
X139014334Y-87596382D01*
X138919096Y-87548763D01*
X138871477Y-87501144D01*
X139871477Y-86691620D02*
X139919096Y-86644001D01*
X140014334Y-86596382D01*
X140252430Y-86596382D01*
X140347668Y-86644001D01*
X140395287Y-86691620D01*
X140442906Y-86786858D01*
X140442906Y-86882096D01*
X140395287Y-87024953D01*
X139823858Y-87596382D01*
X140442906Y-87596382D01*
X129838144Y-97066382D02*
X129504810Y-96590191D01*
X129266715Y-97066382D02*
X129266715Y-96066382D01*
X129647668Y-96066382D01*
X129742906Y-96114001D01*
X129790525Y-96161620D01*
X129838144Y-96256858D01*
X129838144Y-96399715D01*
X129790525Y-96494953D01*
X129742906Y-96542572D01*
X129647668Y-96590191D01*
X129266715Y-96590191D01*
X130171477Y-96066382D02*
X130790525Y-96066382D01*
X130457191Y-96447334D01*
X130600049Y-96447334D01*
X130695287Y-96494953D01*
X130742906Y-96542572D01*
X130790525Y-96637811D01*
X130790525Y-96875906D01*
X130742906Y-96971144D01*
X130695287Y-97018763D01*
X130600049Y-97066382D01*
X130314334Y-97066382D01*
X130219096Y-97018763D01*
X130171477Y-96971144D01*
X131123858Y-96066382D02*
X131742906Y-96066382D01*
X131409572Y-96447334D01*
X131552430Y-96447334D01*
X131647668Y-96494953D01*
X131695287Y-96542572D01*
X131742906Y-96637811D01*
X131742906Y-96875906D01*
X131695287Y-96971144D01*
X131647668Y-97018763D01*
X131552430Y-97066382D01*
X131266715Y-97066382D01*
X131171477Y-97018763D01*
X131123858Y-96971144D01*
X134368144Y-92816382D02*
X134034810Y-92340191D01*
X133796715Y-92816382D02*
X133796715Y-91816382D01*
X134177668Y-91816382D01*
X134272906Y-91864001D01*
X134320525Y-91911620D01*
X134368144Y-92006858D01*
X134368144Y-92149715D01*
X134320525Y-92244953D01*
X134272906Y-92292572D01*
X134177668Y-92340191D01*
X133796715Y-92340191D01*
X134701477Y-91816382D02*
X135320525Y-91816382D01*
X134987191Y-92197334D01*
X135130049Y-92197334D01*
X135225287Y-92244953D01*
X135272906Y-92292572D01*
X135320525Y-92387811D01*
X135320525Y-92625906D01*
X135272906Y-92721144D01*
X135225287Y-92768763D01*
X135130049Y-92816382D01*
X134844334Y-92816382D01*
X134749096Y-92768763D01*
X134701477Y-92721144D01*
X136177668Y-92149715D02*
X136177668Y-92816382D01*
X135939572Y-91768763D02*
X135701477Y-92483049D01*
X136320525Y-92483049D01*
X126388144Y-97066382D02*
X126054810Y-96590191D01*
X125816715Y-97066382D02*
X125816715Y-96066382D01*
X126197668Y-96066382D01*
X126292906Y-96114001D01*
X126340525Y-96161620D01*
X126388144Y-96256858D01*
X126388144Y-96399715D01*
X126340525Y-96494953D01*
X126292906Y-96542572D01*
X126197668Y-96590191D01*
X125816715Y-96590191D01*
X126721477Y-96066382D02*
X127340525Y-96066382D01*
X127007191Y-96447334D01*
X127150049Y-96447334D01*
X127245287Y-96494953D01*
X127292906Y-96542572D01*
X127340525Y-96637811D01*
X127340525Y-96875906D01*
X127292906Y-96971144D01*
X127245287Y-97018763D01*
X127150049Y-97066382D01*
X126864334Y-97066382D01*
X126769096Y-97018763D01*
X126721477Y-96971144D01*
X128245287Y-96066382D02*
X127769096Y-96066382D01*
X127721477Y-96542572D01*
X127769096Y-96494953D01*
X127864334Y-96447334D01*
X128102430Y-96447334D01*
X128197668Y-96494953D01*
X128245287Y-96542572D01*
X128292906Y-96637811D01*
X128292906Y-96875906D01*
X128245287Y-96971144D01*
X128197668Y-97018763D01*
X128102430Y-97066382D01*
X127864334Y-97066382D01*
X127769096Y-97018763D01*
X127721477Y-96971144D01*
X130428144Y-93016382D02*
X130094810Y-92540191D01*
X129856715Y-93016382D02*
X129856715Y-92016382D01*
X130237668Y-92016382D01*
X130332906Y-92064001D01*
X130380525Y-92111620D01*
X130428144Y-92206858D01*
X130428144Y-92349715D01*
X130380525Y-92444953D01*
X130332906Y-92492572D01*
X130237668Y-92540191D01*
X129856715Y-92540191D01*
X130761477Y-92016382D02*
X131380525Y-92016382D01*
X131047191Y-92397334D01*
X131190049Y-92397334D01*
X131285287Y-92444953D01*
X131332906Y-92492572D01*
X131380525Y-92587811D01*
X131380525Y-92825906D01*
X131332906Y-92921144D01*
X131285287Y-92968763D01*
X131190049Y-93016382D01*
X130904334Y-93016382D01*
X130809096Y-92968763D01*
X130761477Y-92921144D01*
X132237668Y-92016382D02*
X132047191Y-92016382D01*
X131951953Y-92064001D01*
X131904334Y-92111620D01*
X131809096Y-92254477D01*
X131761477Y-92444953D01*
X131761477Y-92825906D01*
X131809096Y-92921144D01*
X131856715Y-92968763D01*
X131951953Y-93016382D01*
X132142430Y-93016382D01*
X132237668Y-92968763D01*
X132285287Y-92921144D01*
X132332906Y-92825906D01*
X132332906Y-92587811D01*
X132285287Y-92492572D01*
X132237668Y-92444953D01*
X132142430Y-92397334D01*
X131951953Y-92397334D01*
X131856715Y-92444953D01*
X131809096Y-92492572D01*
X131761477Y-92587811D01*
X139538144Y-83546382D02*
X139204810Y-83070191D01*
X138966715Y-83546382D02*
X138966715Y-82546382D01*
X139347668Y-82546382D01*
X139442906Y-82594001D01*
X139490525Y-82641620D01*
X139538144Y-82736858D01*
X139538144Y-82879715D01*
X139490525Y-82974953D01*
X139442906Y-83022572D01*
X139347668Y-83070191D01*
X138966715Y-83070191D01*
X139871477Y-82546382D02*
X140490525Y-82546382D01*
X140157191Y-82927334D01*
X140300049Y-82927334D01*
X140395287Y-82974953D01*
X140442906Y-83022572D01*
X140490525Y-83117811D01*
X140490525Y-83355906D01*
X140442906Y-83451144D01*
X140395287Y-83498763D01*
X140300049Y-83546382D01*
X140014334Y-83546382D01*
X139919096Y-83498763D01*
X139871477Y-83451144D01*
X140823858Y-82546382D02*
X141490525Y-82546382D01*
X141061953Y-83546382D01*
X142181714Y-96906382D02*
X141848380Y-96430191D01*
X141610285Y-96906382D02*
X141610285Y-95906382D01*
X141991238Y-95906382D01*
X142086476Y-95954001D01*
X142134095Y-96001620D01*
X142181714Y-96096858D01*
X142181714Y-96239715D01*
X142134095Y-96334953D01*
X142086476Y-96382572D01*
X141991238Y-96430191D01*
X141610285Y-96430191D01*
X142515047Y-95906382D02*
X143134095Y-95906382D01*
X142800761Y-96287334D01*
X142943619Y-96287334D01*
X143038857Y-96334953D01*
X143086476Y-96382572D01*
X143134095Y-96477811D01*
X143134095Y-96715906D01*
X143086476Y-96811144D01*
X143038857Y-96858763D01*
X142943619Y-96906382D01*
X142657904Y-96906382D01*
X142562666Y-96858763D01*
X142515047Y-96811144D01*
X143705523Y-96334953D02*
X143610285Y-96287334D01*
X143562666Y-96239715D01*
X143515047Y-96144477D01*
X143515047Y-96096858D01*
X143562666Y-96001620D01*
X143610285Y-95954001D01*
X143705523Y-95906382D01*
X143896000Y-95906382D01*
X143991238Y-95954001D01*
X144038857Y-96001620D01*
X144086476Y-96096858D01*
X144086476Y-96144477D01*
X144038857Y-96239715D01*
X143991238Y-96287334D01*
X143896000Y-96334953D01*
X143705523Y-96334953D01*
X143610285Y-96382572D01*
X143562666Y-96430191D01*
X143515047Y-96525430D01*
X143515047Y-96715906D01*
X143562666Y-96811144D01*
X143610285Y-96858763D01*
X143705523Y-96906382D01*
X143896000Y-96906382D01*
X143991238Y-96858763D01*
X144038857Y-96811144D01*
X144086476Y-96715906D01*
X144086476Y-96525430D01*
X144038857Y-96430191D01*
X143991238Y-96382572D01*
X143896000Y-96334953D01*
X145398144Y-103656382D02*
X145064810Y-103180191D01*
X144826715Y-103656382D02*
X144826715Y-102656382D01*
X145207668Y-102656382D01*
X145302906Y-102704001D01*
X145350525Y-102751620D01*
X145398144Y-102846858D01*
X145398144Y-102989715D01*
X145350525Y-103084953D01*
X145302906Y-103132572D01*
X145207668Y-103180191D01*
X144826715Y-103180191D01*
X145731477Y-102656382D02*
X146350525Y-102656382D01*
X146017191Y-103037334D01*
X146160049Y-103037334D01*
X146255287Y-103084953D01*
X146302906Y-103132572D01*
X146350525Y-103227811D01*
X146350525Y-103465906D01*
X146302906Y-103561144D01*
X146255287Y-103608763D01*
X146160049Y-103656382D01*
X145874334Y-103656382D01*
X145779096Y-103608763D01*
X145731477Y-103561144D01*
X146826715Y-103656382D02*
X147017191Y-103656382D01*
X147112430Y-103608763D01*
X147160049Y-103561144D01*
X147255287Y-103418287D01*
X147302906Y-103227811D01*
X147302906Y-102846858D01*
X147255287Y-102751620D01*
X147207668Y-102704001D01*
X147112430Y-102656382D01*
X146921953Y-102656382D01*
X146826715Y-102704001D01*
X146779096Y-102751620D01*
X146731477Y-102846858D01*
X146731477Y-103084953D01*
X146779096Y-103180191D01*
X146826715Y-103227811D01*
X146921953Y-103275430D01*
X147112430Y-103275430D01*
X147207668Y-103227811D01*
X147255287Y-103180191D01*
X147302906Y-103084953D01*
X139008144Y-109056382D02*
X138674810Y-108580191D01*
X138436715Y-109056382D02*
X138436715Y-108056382D01*
X138817668Y-108056382D01*
X138912906Y-108104001D01*
X138960525Y-108151620D01*
X139008144Y-108246858D01*
X139008144Y-108389715D01*
X138960525Y-108484953D01*
X138912906Y-108532572D01*
X138817668Y-108580191D01*
X138436715Y-108580191D01*
X139865287Y-108389715D02*
X139865287Y-109056382D01*
X139627191Y-108008763D02*
X139389096Y-108723049D01*
X140008144Y-108723049D01*
X140579572Y-108056382D02*
X140674811Y-108056382D01*
X140770049Y-108104001D01*
X140817668Y-108151620D01*
X140865287Y-108246858D01*
X140912906Y-108437334D01*
X140912906Y-108675430D01*
X140865287Y-108865906D01*
X140817668Y-108961144D01*
X140770049Y-109008763D01*
X140674811Y-109056382D01*
X140579572Y-109056382D01*
X140484334Y-109008763D01*
X140436715Y-108961144D01*
X140389096Y-108865906D01*
X140341477Y-108675430D01*
X140341477Y-108437334D01*
X140389096Y-108246858D01*
X140436715Y-108151620D01*
X140484334Y-108104001D01*
X140579572Y-108056382D01*
X139768144Y-105006382D02*
X139434810Y-104530191D01*
X139196715Y-105006382D02*
X139196715Y-104006382D01*
X139577668Y-104006382D01*
X139672906Y-104054001D01*
X139720525Y-104101620D01*
X139768144Y-104196858D01*
X139768144Y-104339715D01*
X139720525Y-104434953D01*
X139672906Y-104482572D01*
X139577668Y-104530191D01*
X139196715Y-104530191D01*
X140625287Y-104339715D02*
X140625287Y-105006382D01*
X140387191Y-103958763D02*
X140149096Y-104673049D01*
X140768144Y-104673049D01*
X141672906Y-105006382D02*
X141101477Y-105006382D01*
X141387191Y-105006382D02*
X141387191Y-104006382D01*
X141291953Y-104149239D01*
X141196715Y-104244477D01*
X141101477Y-104292096D01*
X111503881Y-105736262D02*
X111027690Y-106069596D01*
X111503881Y-106307691D02*
X110503881Y-106307691D01*
X110503881Y-105926738D01*
X110551500Y-105831500D01*
X110599119Y-105783881D01*
X110694357Y-105736262D01*
X110837214Y-105736262D01*
X110932452Y-105783881D01*
X110980071Y-105831500D01*
X111027690Y-105926738D01*
X111027690Y-106307691D01*
X110837214Y-104879119D02*
X111503881Y-104879119D01*
X110456262Y-105117215D02*
X111170548Y-105355310D01*
X111170548Y-104736262D01*
X110599119Y-104402929D02*
X110551500Y-104355310D01*
X110503881Y-104260072D01*
X110503881Y-104021976D01*
X110551500Y-103926738D01*
X110599119Y-103879119D01*
X110694357Y-103831500D01*
X110789595Y-103831500D01*
X110932452Y-103879119D01*
X111503881Y-104450548D01*
X111503881Y-103831500D01*
X146588144Y-99606382D02*
X146254810Y-99130191D01*
X146016715Y-99606382D02*
X146016715Y-98606382D01*
X146397668Y-98606382D01*
X146492906Y-98654001D01*
X146540525Y-98701620D01*
X146588144Y-98796858D01*
X146588144Y-98939715D01*
X146540525Y-99034953D01*
X146492906Y-99082572D01*
X146397668Y-99130191D01*
X146016715Y-99130191D01*
X147445287Y-98939715D02*
X147445287Y-99606382D01*
X147207191Y-98558763D02*
X146969096Y-99273049D01*
X147588144Y-99273049D01*
X147873858Y-98606382D02*
X148492906Y-98606382D01*
X148159572Y-98987334D01*
X148302430Y-98987334D01*
X148397668Y-99034953D01*
X148445287Y-99082572D01*
X148492906Y-99177811D01*
X148492906Y-99415906D01*
X148445287Y-99511144D01*
X148397668Y-99558763D01*
X148302430Y-99606382D01*
X148016715Y-99606382D01*
X147921477Y-99558763D01*
X147873858Y-99511144D01*
X152301714Y-123376382D02*
X151968380Y-122900191D01*
X151730285Y-123376382D02*
X151730285Y-122376382D01*
X152111238Y-122376382D01*
X152206476Y-122424001D01*
X152254095Y-122471620D01*
X152301714Y-122566858D01*
X152301714Y-122709715D01*
X152254095Y-122804953D01*
X152206476Y-122852572D01*
X152111238Y-122900191D01*
X151730285Y-122900191D01*
X153158857Y-122709715D02*
X153158857Y-123376382D01*
X152920761Y-122328763D02*
X152682666Y-123043049D01*
X153301714Y-123043049D01*
X154111238Y-122709715D02*
X154111238Y-123376382D01*
X153873142Y-122328763D02*
X153635047Y-123043049D01*
X154254095Y-123043049D01*
X150038144Y-99606382D02*
X149704810Y-99130191D01*
X149466715Y-99606382D02*
X149466715Y-98606382D01*
X149847668Y-98606382D01*
X149942906Y-98654001D01*
X149990525Y-98701620D01*
X150038144Y-98796858D01*
X150038144Y-98939715D01*
X149990525Y-99034953D01*
X149942906Y-99082572D01*
X149847668Y-99130191D01*
X149466715Y-99130191D01*
X150895287Y-98939715D02*
X150895287Y-99606382D01*
X150657191Y-98558763D02*
X150419096Y-99273049D01*
X151038144Y-99273049D01*
X151895287Y-98606382D02*
X151419096Y-98606382D01*
X151371477Y-99082572D01*
X151419096Y-99034953D01*
X151514334Y-98987334D01*
X151752430Y-98987334D01*
X151847668Y-99034953D01*
X151895287Y-99082572D01*
X151942906Y-99177811D01*
X151942906Y-99415906D01*
X151895287Y-99511144D01*
X151847668Y-99558763D01*
X151752430Y-99606382D01*
X151514334Y-99606382D01*
X151419096Y-99558763D01*
X151371477Y-99511144D01*
X135101714Y-108286382D02*
X134768380Y-107810191D01*
X134530285Y-108286382D02*
X134530285Y-107286382D01*
X134911238Y-107286382D01*
X135006476Y-107334001D01*
X135054095Y-107381620D01*
X135101714Y-107476858D01*
X135101714Y-107619715D01*
X135054095Y-107714953D01*
X135006476Y-107762572D01*
X134911238Y-107810191D01*
X134530285Y-107810191D01*
X135958857Y-107619715D02*
X135958857Y-108286382D01*
X135720761Y-107238763D02*
X135482666Y-107953049D01*
X136101714Y-107953049D01*
X136911238Y-107286382D02*
X136720761Y-107286382D01*
X136625523Y-107334001D01*
X136577904Y-107381620D01*
X136482666Y-107524477D01*
X136435047Y-107714953D01*
X136435047Y-108095906D01*
X136482666Y-108191144D01*
X136530285Y-108238763D01*
X136625523Y-108286382D01*
X136816000Y-108286382D01*
X136911238Y-108238763D01*
X136958857Y-108191144D01*
X137006476Y-108095906D01*
X137006476Y-107857811D01*
X136958857Y-107762572D01*
X136911238Y-107714953D01*
X136816000Y-107667334D01*
X136625523Y-107667334D01*
X136530285Y-107714953D01*
X136482666Y-107762572D01*
X136435047Y-107857811D01*
X143218144Y-107706382D02*
X142884810Y-107230191D01*
X142646715Y-107706382D02*
X142646715Y-106706382D01*
X143027668Y-106706382D01*
X143122906Y-106754001D01*
X143170525Y-106801620D01*
X143218144Y-106896858D01*
X143218144Y-107039715D01*
X143170525Y-107134953D01*
X143122906Y-107182572D01*
X143027668Y-107230191D01*
X142646715Y-107230191D01*
X144075287Y-107039715D02*
X144075287Y-107706382D01*
X143837191Y-106658763D02*
X143599096Y-107373049D01*
X144218144Y-107373049D01*
X144503858Y-106706382D02*
X145170525Y-106706382D01*
X144741953Y-107706382D01*
X108706596Y-91574263D02*
X108849453Y-91621882D01*
X109087549Y-91621882D01*
X109182787Y-91574263D01*
X109230406Y-91526644D01*
X109278025Y-91431406D01*
X109278025Y-91336168D01*
X109230406Y-91240930D01*
X109182787Y-91193311D01*
X109087549Y-91145691D01*
X108897072Y-91098072D01*
X108801834Y-91050453D01*
X108754215Y-91002834D01*
X108706596Y-90907596D01*
X108706596Y-90812358D01*
X108754215Y-90717120D01*
X108801834Y-90669501D01*
X108897072Y-90621882D01*
X109135168Y-90621882D01*
X109278025Y-90669501D01*
X110230406Y-91621882D02*
X109658977Y-91621882D01*
X109944691Y-91621882D02*
X109944691Y-90621882D01*
X109849453Y-90764739D01*
X109754215Y-90859977D01*
X109658977Y-90907596D01*
X81674996Y-110904282D02*
X81674996Y-111713806D01*
X81722615Y-111809044D01*
X81770234Y-111856663D01*
X81865472Y-111904282D01*
X82055949Y-111904282D01*
X82151187Y-111856663D01*
X82198806Y-111809044D01*
X82246425Y-111713806D01*
X82246425Y-110904282D01*
X83246425Y-111904282D02*
X82674996Y-111904282D01*
X82960710Y-111904282D02*
X82960710Y-110904282D01*
X82865472Y-111047139D01*
X82770234Y-111142377D01*
X82674996Y-111189996D01*
X89824996Y-110904282D02*
X89824996Y-111713806D01*
X89872615Y-111809044D01*
X89920234Y-111856663D01*
X90015472Y-111904282D01*
X90205949Y-111904282D01*
X90301187Y-111856663D01*
X90348806Y-111809044D01*
X90396425Y-111713806D01*
X90396425Y-110904282D01*
X90824996Y-110999520D02*
X90872615Y-110951901D01*
X90967853Y-110904282D01*
X91205949Y-110904282D01*
X91301187Y-110951901D01*
X91348806Y-110999520D01*
X91396425Y-111094758D01*
X91396425Y-111189996D01*
X91348806Y-111332853D01*
X90777377Y-111904282D01*
X91396425Y-111904282D01*
X97974996Y-110904282D02*
X97974996Y-111713806D01*
X98022615Y-111809044D01*
X98070234Y-111856663D01*
X98165472Y-111904282D01*
X98355949Y-111904282D01*
X98451187Y-111856663D01*
X98498806Y-111809044D01*
X98546425Y-111713806D01*
X98546425Y-110904282D01*
X98927377Y-110904282D02*
X99546425Y-110904282D01*
X99213091Y-111285234D01*
X99355949Y-111285234D01*
X99451187Y-111332853D01*
X99498806Y-111380472D01*
X99546425Y-111475711D01*
X99546425Y-111713806D01*
X99498806Y-111809044D01*
X99451187Y-111856663D01*
X99355949Y-111904282D01*
X99070234Y-111904282D01*
X98974996Y-111856663D01*
X98927377Y-111809044D01*
X90304996Y-122484282D02*
X90304996Y-123293806D01*
X90352615Y-123389044D01*
X90400234Y-123436663D01*
X90495472Y-123484282D01*
X90685949Y-123484282D01*
X90781187Y-123436663D01*
X90828806Y-123389044D01*
X90876425Y-123293806D01*
X90876425Y-122484282D01*
X91781187Y-122817615D02*
X91781187Y-123484282D01*
X91543091Y-122436663D02*
X91304996Y-123150949D01*
X91924044Y-123150949D01*
X132884996Y-69834282D02*
X132884996Y-70643806D01*
X132932615Y-70739044D01*
X132980234Y-70786663D01*
X133075472Y-70834282D01*
X133265949Y-70834282D01*
X133361187Y-70786663D01*
X133408806Y-70739044D01*
X133456425Y-70643806D01*
X133456425Y-69834282D01*
X134408806Y-69834282D02*
X133932615Y-69834282D01*
X133884996Y-70310472D01*
X133932615Y-70262853D01*
X134027853Y-70215234D01*
X134265949Y-70215234D01*
X134361187Y-70262853D01*
X134408806Y-70310472D01*
X134456425Y-70405711D01*
X134456425Y-70643806D01*
X134408806Y-70739044D01*
X134361187Y-70786663D01*
X134265949Y-70834282D01*
X134027853Y-70834282D01*
X133932615Y-70786663D01*
X133884996Y-70739044D01*
X97878643Y-75963882D02*
X97878643Y-76773406D01*
X97926262Y-76868644D01*
X97973881Y-76916263D01*
X98069119Y-76963882D01*
X98259596Y-76963882D01*
X98354834Y-76916263D01*
X98402453Y-76868644D01*
X98450072Y-76773406D01*
X98450072Y-75963882D01*
X99354834Y-75963882D02*
X99164357Y-75963882D01*
X99069119Y-76011501D01*
X99021500Y-76059120D01*
X98926262Y-76201977D01*
X98878643Y-76392453D01*
X98878643Y-76773406D01*
X98926262Y-76868644D01*
X98973881Y-76916263D01*
X99069119Y-76963882D01*
X99259596Y-76963882D01*
X99354834Y-76916263D01*
X99402453Y-76868644D01*
X99450072Y-76773406D01*
X99450072Y-76535311D01*
X99402453Y-76440072D01*
X99354834Y-76392453D01*
X99259596Y-76344834D01*
X99069119Y-76344834D01*
X98973881Y-76392453D01*
X98926262Y-76440072D01*
X98878643Y-76535311D01*
X79320233Y-91360485D02*
X79320233Y-92170009D01*
X79367852Y-92265247D01*
X79415471Y-92312866D01*
X79510709Y-92360485D01*
X79701186Y-92360485D01*
X79796424Y-92312866D01*
X79844043Y-92265247D01*
X79891662Y-92170009D01*
X79891662Y-91360485D01*
X80272614Y-91360485D02*
X80939281Y-91360485D01*
X80510709Y-92360485D01*
X77986900Y-97820485D02*
X77986900Y-98630009D01*
X78034519Y-98725247D01*
X78082138Y-98772866D01*
X78177376Y-98820485D01*
X78367853Y-98820485D01*
X78463091Y-98772866D01*
X78510710Y-98725247D01*
X78558329Y-98630009D01*
X78558329Y-97820485D01*
X79177376Y-98249056D02*
X79082138Y-98201437D01*
X79034519Y-98153818D01*
X78986900Y-98058580D01*
X78986900Y-98010961D01*
X79034519Y-97915723D01*
X79082138Y-97868104D01*
X79177376Y-97820485D01*
X79367853Y-97820485D01*
X79463091Y-97868104D01*
X79510710Y-97915723D01*
X79558329Y-98010961D01*
X79558329Y-98058580D01*
X79510710Y-98153818D01*
X79463091Y-98201437D01*
X79367853Y-98249056D01*
X79177376Y-98249056D01*
X79082138Y-98296675D01*
X79034519Y-98344294D01*
X78986900Y-98439533D01*
X78986900Y-98630009D01*
X79034519Y-98725247D01*
X79082138Y-98772866D01*
X79177376Y-98820485D01*
X79367853Y-98820485D01*
X79463091Y-98772866D01*
X79510710Y-98725247D01*
X79558329Y-98630009D01*
X79558329Y-98439533D01*
X79510710Y-98344294D01*
X79463091Y-98296675D01*
X79367853Y-98249056D01*
X139513095Y-111482381D02*
X139513095Y-112291905D01*
X139560714Y-112387143D01*
X139608333Y-112434762D01*
X139703571Y-112482381D01*
X139894048Y-112482381D01*
X139989286Y-112434762D01*
X140036905Y-112387143D01*
X140084524Y-112291905D01*
X140084524Y-111482381D01*
X140608333Y-112482381D02*
X140798809Y-112482381D01*
X140894048Y-112434762D01*
X140941667Y-112387143D01*
X141036905Y-112244286D01*
X141084524Y-112053810D01*
X141084524Y-111672857D01*
X141036905Y-111577619D01*
X140989286Y-111530000D01*
X140894048Y-111482381D01*
X140703571Y-111482381D01*
X140608333Y-111530000D01*
X140560714Y-111577619D01*
X140513095Y-111672857D01*
X140513095Y-111910952D01*
X140560714Y-112006190D01*
X140608333Y-112053810D01*
X140703571Y-112101429D01*
X140894048Y-112101429D01*
X140989286Y-112053810D01*
X141036905Y-112006190D01*
X141084524Y-111910952D01*
X144116905Y-88082381D02*
X144116905Y-88891905D01*
X144164524Y-88987143D01*
X144212143Y-89034762D01*
X144307381Y-89082381D01*
X144497858Y-89082381D01*
X144593096Y-89034762D01*
X144640715Y-88987143D01*
X144688334Y-88891905D01*
X144688334Y-88082381D01*
X145688334Y-89082381D02*
X145116905Y-89082381D01*
X145402619Y-89082381D02*
X145402619Y-88082381D01*
X145307381Y-88225238D01*
X145212143Y-88320476D01*
X145116905Y-88368095D01*
X146307381Y-88082381D02*
X146402620Y-88082381D01*
X146497858Y-88130000D01*
X146545477Y-88177619D01*
X146593096Y-88272857D01*
X146640715Y-88463333D01*
X146640715Y-88701429D01*
X146593096Y-88891905D01*
X146545477Y-88987143D01*
X146497858Y-89034762D01*
X146402620Y-89082381D01*
X146307381Y-89082381D01*
X146212143Y-89034762D01*
X146164524Y-88987143D01*
X146116905Y-88891905D01*
X146069286Y-88701429D01*
X146069286Y-88463333D01*
X146116905Y-88272857D01*
X146164524Y-88177619D01*
X146212143Y-88130000D01*
X146307381Y-88082381D01*
X120244581Y-106871615D02*
X121054105Y-106871615D01*
X121149343Y-106823996D01*
X121196962Y-106776377D01*
X121244581Y-106681139D01*
X121244581Y-106490662D01*
X121196962Y-106395424D01*
X121149343Y-106347805D01*
X121054105Y-106300186D01*
X120244581Y-106300186D01*
X121244581Y-105300186D02*
X121244581Y-105871615D01*
X121244581Y-105585901D02*
X120244581Y-105585901D01*
X120387438Y-105681139D01*
X120482676Y-105776377D01*
X120530295Y-105871615D01*
X121244581Y-104347805D02*
X121244581Y-104919234D01*
X121244581Y-104633520D02*
X120244581Y-104633520D01*
X120387438Y-104728758D01*
X120482676Y-104823996D01*
X120530295Y-104919234D01*
X100742977Y-101203882D02*
X101409644Y-102203882D01*
X101409644Y-101203882D02*
X100742977Y-102203882D01*
X102314406Y-102203882D02*
X101742977Y-102203882D01*
X102028691Y-102203882D02*
X102028691Y-101203882D01*
X101933453Y-101346739D01*
X101838215Y-101441977D01*
X101742977Y-101489596D01*
X90926577Y-97261482D02*
X91593244Y-98261482D01*
X91593244Y-97261482D02*
X90926577Y-98261482D01*
X91926577Y-97356720D02*
X91974196Y-97309101D01*
X92069434Y-97261482D01*
X92307530Y-97261482D01*
X92402768Y-97309101D01*
X92450387Y-97356720D01*
X92498006Y-97451958D01*
X92498006Y-97547196D01*
X92450387Y-97690053D01*
X91878958Y-98261482D01*
X92498006Y-98261482D01*
X123565072Y-90064834D02*
X123565072Y-90398168D01*
X124088882Y-90398168D02*
X123088882Y-90398168D01*
X123088882Y-89921977D01*
X124088882Y-89017215D02*
X124088882Y-89588644D01*
X124088882Y-89302930D02*
X123088882Y-89302930D01*
X123231739Y-89398168D01*
X123326977Y-89493406D01*
X123374596Y-89588644D01*
X79684215Y-106183881D02*
X79208024Y-106183881D01*
X79208024Y-105183881D01*
X80541358Y-106183881D02*
X79969929Y-106183881D01*
X80255643Y-106183881D02*
X80255643Y-105183881D01*
X80160405Y-105326738D01*
X80065167Y-105421976D01*
X79969929Y-105469595D01*
%LPC*%
D19*
X91651821Y-84577889D03*
X76351821Y-84577889D03*
D20*
X84001821Y-84577889D03*
D21*
X97516501Y-129731501D03*
X100516501Y-129731501D03*
D22*
X95761024Y-140911501D03*
X97261024Y-140911501D03*
D23*
X113996501Y-140517501D03*
X115996501Y-140517501D03*
D22*
X127684833Y-121001501D03*
X129184833Y-121001501D03*
D24*
X97516501Y-135031501D03*
X100516501Y-135031501D03*
D21*
X89876501Y-136461501D03*
X92876501Y-136461501D03*
D22*
X124184833Y-130751501D03*
X125684833Y-130751501D03*
D23*
X128286501Y-125317501D03*
X130286501Y-125317501D03*
D22*
X113331024Y-123451501D03*
X114831024Y-123451501D03*
D21*
X75056501Y-138761501D03*
X78056501Y-138761501D03*
D22*
X124374833Y-126701501D03*
X125874833Y-126701501D03*
D21*
X112596501Y-113301501D03*
X115596501Y-113301501D03*
D23*
X120876501Y-135067501D03*
X122876501Y-135067501D03*
D24*
X104926501Y-127301501D03*
X107926501Y-127301501D03*
X112596501Y-118601501D03*
X115596501Y-118601501D03*
X89876501Y-141761501D03*
X92876501Y-141761501D03*
D22*
X110084833Y-141901501D03*
X111584833Y-141901501D03*
D24*
X120006501Y-113751501D03*
X123006501Y-113751501D03*
D21*
X105186501Y-122001501D03*
X108186501Y-122001501D03*
X97516501Y-124881501D03*
X100516501Y-124881501D03*
D24*
X104446501Y-133001501D03*
X107446501Y-133001501D03*
D21*
X82466501Y-138761501D03*
X85466501Y-138761501D03*
X80736501Y-124881501D03*
X83736501Y-124881501D03*
D23*
X83784833Y-143477501D03*
X85784833Y-143477501D03*
D22*
X118481024Y-118601501D03*
X119981024Y-118601501D03*
X116964833Y-135601501D03*
X118464833Y-135601501D03*
X120014833Y-130751501D03*
X121514833Y-130751501D03*
D23*
X128286501Y-127907501D03*
X130286501Y-127907501D03*
D22*
X132681024Y-83411501D03*
X134181024Y-83411501D03*
X110241024Y-98051501D03*
X111741024Y-98051501D03*
X118451024Y-92681501D03*
X119951024Y-92681501D03*
X132154833Y-88631501D03*
X133654833Y-88631501D03*
D23*
X81466501Y-106137501D03*
X83466501Y-106137501D03*
D22*
X120004833Y-96931501D03*
X121504833Y-96931501D03*
X115361024Y-98051501D03*
X116861024Y-98051501D03*
X112321024Y-102101501D03*
X113821024Y-102101501D03*
X123571024Y-92881501D03*
X125071024Y-92881501D03*
X103791024Y-92311501D03*
X105291024Y-92311501D03*
X94536501Y-105121501D03*
X96036501Y-105121501D03*
X107201024Y-102961501D03*
X108701024Y-102961501D03*
X116606501Y-102101501D03*
X118106501Y-102101501D03*
D21*
X136556501Y-120491501D03*
X139556501Y-120491501D03*
D25*
X106741501Y-109243499D03*
X106741501Y-106243499D03*
D21*
X136556501Y-125341501D03*
X139556501Y-125341501D03*
X131346501Y-99651501D03*
X134346501Y-99651501D03*
D22*
X132911024Y-104101501D03*
X134411024Y-104101501D03*
X139014833Y-100821501D03*
X140514833Y-100821501D03*
D23*
X144116501Y-97147501D03*
X146116501Y-97147501D03*
X146656501Y-127577501D03*
X148656501Y-127577501D03*
D26*
X87787521Y-106371501D03*
X91785481Y-106371501D03*
D22*
X116666262Y-88631501D03*
X118166262Y-88631501D03*
X94576262Y-92951501D03*
X96076262Y-92951501D03*
D26*
X137197521Y-143681501D03*
X141195481Y-143681501D03*
D27*
X81136262Y-132761500D03*
D28*
X81136262Y-135301500D03*
D27*
X107813881Y-116001500D03*
D28*
X107813881Y-118541500D03*
D29*
X77636500Y-113911501D03*
D30*
X77636500Y-116451501D03*
X77636500Y-118991501D03*
X77636500Y-121531501D03*
X77636500Y-124071501D03*
X77636500Y-126611501D03*
D31*
X129447901Y-76431501D03*
D32*
X119183001Y-76295001D03*
D33*
X129422901Y-74131501D03*
D32*
X119183001Y-73695001D03*
D34*
X121783001Y-72655001D03*
X120683001Y-72655001D03*
X122883001Y-72655001D03*
X123983001Y-72655001D03*
X125083001Y-72655001D03*
X128383001Y-72655001D03*
X127283001Y-72655001D03*
X126183001Y-72655001D03*
D35*
X129647901Y-75281501D03*
D36*
X101776501Y-97462701D03*
X102426501Y-97462701D03*
X103075601Y-97462701D03*
X103726501Y-97462701D03*
X104376501Y-97462701D03*
D37*
X99876501Y-97687701D03*
D38*
X99526501Y-100137701D03*
D39*
X101876501Y-100137701D03*
X104276501Y-100137701D03*
D37*
X106276501Y-97687701D03*
D38*
X106626501Y-100137701D03*
D40*
X112814501Y-79645501D03*
D41*
X115354501Y-79645501D03*
X112814501Y-82185501D03*
X115354501Y-82185501D03*
X112814501Y-84725501D03*
X115354501Y-84725501D03*
D42*
X76847701Y-74371500D03*
X79387701Y-74371500D03*
X81927701Y-74371500D03*
X84467701Y-74371500D03*
X87007701Y-74371500D03*
X89547701Y-74371500D03*
X92087701Y-74371500D03*
X94627701Y-74371500D03*
X97167701Y-74371500D03*
X99707701Y-74371500D03*
X102247701Y-74371500D03*
X104787701Y-74371500D03*
X107327701Y-74371500D03*
X109867701Y-74371500D03*
X112407701Y-74371500D03*
X114947701Y-74371500D03*
D43*
X144780000Y-72740520D03*
X144780000Y-78740000D03*
X149479000Y-75740260D03*
D44*
X139616901Y-131776501D03*
X141616901Y-131776501D03*
D45*
X137216901Y-137326501D03*
X144016901Y-137326501D03*
D22*
X144843881Y-123253501D03*
X146343881Y-123253501D03*
X127643881Y-104113501D03*
X129143881Y-104113501D03*
X127643881Y-108183501D03*
X129143881Y-108183501D03*
X113896501Y-142841501D03*
X115396501Y-142841501D03*
X130588166Y-112901501D03*
X132088166Y-112901501D03*
X120110071Y-126701501D03*
X121610071Y-126701501D03*
X112700071Y-136201501D03*
X114200071Y-136201501D03*
X100738166Y-141901501D03*
X102238166Y-141901501D03*
X118338166Y-122651501D03*
X119838166Y-122651501D03*
X128376501Y-134281501D03*
X129876501Y-134281501D03*
X130588166Y-116951501D03*
X132088166Y-116951501D03*
X105578166Y-141901501D03*
X107078166Y-141901501D03*
X131826501Y-134281501D03*
X133326501Y-134281501D03*
X103258166Y-137851501D03*
X104758166Y-137851501D03*
X125748166Y-112901501D03*
X127248166Y-112901501D03*
X120776501Y-137391501D03*
X122276501Y-137391501D03*
X124226501Y-138851501D03*
X125726501Y-138851501D03*
X110188166Y-132151501D03*
X111688166Y-132151501D03*
X110668166Y-127501501D03*
X112168166Y-127501501D03*
X118046501Y-141441501D03*
X119546501Y-141441501D03*
X124926501Y-134801501D03*
X126426501Y-134801501D03*
X128186501Y-130231501D03*
X129686501Y-130231501D03*
D23*
X79520071Y-143477501D03*
X81520071Y-143477501D03*
X75160071Y-143477501D03*
X77160071Y-143477501D03*
D22*
X131711976Y-121001501D03*
X133211976Y-121001501D03*
X115508166Y-127501501D03*
X117008166Y-127501501D03*
X131636501Y-130231501D03*
X133136501Y-130231501D03*
X123178166Y-122651501D03*
X124678166Y-122651501D03*
X121711976Y-142901501D03*
X123211976Y-142901501D03*
X115028166Y-131551501D03*
X116528166Y-131551501D03*
X128376501Y-138331501D03*
X129876501Y-138331501D03*
X108098166Y-137851501D03*
X109598166Y-137851501D03*
X125748166Y-116951501D03*
X127248166Y-116951501D03*
X120056501Y-100981501D03*
X121556501Y-100981501D03*
X135966501Y-87461501D03*
X137466501Y-87461501D03*
X127266501Y-96931501D03*
X128766501Y-96931501D03*
X131796501Y-92681501D03*
X133296501Y-92681501D03*
X123816501Y-96931501D03*
X125316501Y-96931501D03*
X127856501Y-92881501D03*
X129356501Y-92881501D03*
X136966501Y-83411501D03*
X138466501Y-83411501D03*
X139610071Y-96771501D03*
X141110071Y-96771501D03*
X142826501Y-103521501D03*
X144326501Y-103521501D03*
X136436501Y-108921501D03*
X137936501Y-108921501D03*
X137196501Y-104871501D03*
X138696501Y-104871501D03*
D46*
X111051500Y-108310405D03*
X111051500Y-107210405D03*
D22*
X144016501Y-99471501D03*
X145516501Y-99471501D03*
X149730071Y-123241501D03*
X151230071Y-123241501D03*
X147466501Y-99471501D03*
X148966501Y-99471501D03*
X132530071Y-108151501D03*
X134030071Y-108151501D03*
X140646501Y-107571501D03*
X142146501Y-107571501D03*
D47*
X112868501Y-93455501D03*
X109468501Y-93455501D03*
D48*
X81036901Y-113141901D03*
X81036901Y-114411901D03*
X81036901Y-115681901D03*
X81036901Y-116951901D03*
X81036901Y-118221901D03*
X81036901Y-119491901D03*
X81036901Y-120761901D03*
X86436901Y-120761901D03*
X86436901Y-119491901D03*
X86436901Y-118221901D03*
X86436901Y-116951901D03*
X86436901Y-115681901D03*
X86436901Y-114411901D03*
X86436901Y-113141901D03*
X89186901Y-113141901D03*
X89186901Y-114411901D03*
X89186901Y-115681901D03*
X89186901Y-116951901D03*
X89186901Y-118221901D03*
X89186901Y-119491901D03*
X89186901Y-120761901D03*
X94586901Y-120761901D03*
X94586901Y-119491901D03*
X94586901Y-118221901D03*
X94586901Y-116951901D03*
X94586901Y-115681901D03*
X94586901Y-114411901D03*
X94586901Y-113141901D03*
X97336901Y-113141901D03*
X97336901Y-114411901D03*
X97336901Y-115681901D03*
X97336901Y-116951901D03*
X97336901Y-118221901D03*
X97336901Y-119491901D03*
X97336901Y-120761901D03*
X102736901Y-120761901D03*
X102736901Y-119491901D03*
X102736901Y-118221901D03*
X102736901Y-116951901D03*
X102736901Y-115681901D03*
X102736901Y-114411901D03*
X102736901Y-113141901D03*
X89666901Y-124721901D03*
X89666901Y-125991901D03*
X89666901Y-127261901D03*
X89666901Y-128531901D03*
X89666901Y-129801901D03*
X89666901Y-131071901D03*
X89666901Y-132341901D03*
X95066901Y-132341901D03*
X95066901Y-131071901D03*
X95066901Y-129801901D03*
X95066901Y-128531901D03*
X95066901Y-127261901D03*
X95066901Y-125991901D03*
X95066901Y-124721901D03*
X132246901Y-72071901D03*
X132246901Y-73341901D03*
X132246901Y-74611901D03*
X132246901Y-75881901D03*
X132246901Y-77151901D03*
X132246901Y-78421901D03*
X132246901Y-79691901D03*
X137646901Y-79691901D03*
X137646901Y-78421901D03*
X137646901Y-77151901D03*
X137646901Y-75881901D03*
X137646901Y-74611901D03*
X137646901Y-73341901D03*
X137646901Y-72071901D03*
D49*
X96690548Y-80261501D03*
X96690548Y-81061501D03*
X96690548Y-81861501D03*
X96690548Y-82661501D03*
X96690548Y-83461501D03*
X96690548Y-84261501D03*
X96690548Y-85061501D03*
X96690548Y-85861501D03*
X96690548Y-86661501D03*
X96690548Y-87461501D03*
X96690548Y-88261501D03*
D50*
X98390548Y-89961501D03*
X99190548Y-89961501D03*
X99990548Y-89961501D03*
X100790548Y-89961501D03*
X101590548Y-89961501D03*
X102390548Y-89961501D03*
X103190548Y-89961501D03*
X103990548Y-89961501D03*
X104790548Y-89961501D03*
X105590548Y-89961501D03*
X106390548Y-89961501D03*
D49*
X108090548Y-88261501D03*
X108090548Y-87461501D03*
X108090548Y-86661501D03*
X108090548Y-85861501D03*
X108090548Y-85061501D03*
X108090548Y-84261501D03*
X108090548Y-83461501D03*
X108090548Y-82661501D03*
X108090548Y-81861501D03*
X108090548Y-81061501D03*
X108090548Y-80261501D03*
D50*
X106390548Y-78561501D03*
X105590548Y-78561501D03*
X104790548Y-78561501D03*
X103990548Y-78561501D03*
X103190548Y-78561501D03*
X102390548Y-78561501D03*
X101590548Y-78561501D03*
X100790548Y-78561501D03*
X99990548Y-78561501D03*
X99190548Y-78561501D03*
X98390548Y-78561501D03*
D51*
X78526738Y-93457504D03*
X78526738Y-94727504D03*
X78526738Y-95997504D03*
X78526738Y-97267504D03*
X84126738Y-97267504D03*
X84126738Y-95997504D03*
X84126738Y-94727504D03*
X84126738Y-93457504D03*
X77193405Y-99917504D03*
X77193405Y-101187504D03*
X77193405Y-102457504D03*
X77193405Y-103727504D03*
X82793405Y-103727504D03*
X82793405Y-102457504D03*
X82793405Y-101187504D03*
X82793405Y-99917504D03*
D52*
X138310000Y-114840000D03*
X138310000Y-115340000D03*
X138310000Y-115840000D03*
X138310000Y-116340000D03*
X138310000Y-116840000D03*
D53*
X139275000Y-117805000D03*
X139775000Y-117805000D03*
X140275000Y-117805000D03*
X140775000Y-117805000D03*
X141275000Y-117805000D03*
D52*
X142240000Y-116840000D03*
X142240000Y-116340000D03*
X142240000Y-115840000D03*
X142240000Y-115340000D03*
X142240000Y-114840000D03*
D53*
X141275000Y-113875000D03*
X140775000Y-113875000D03*
X140275000Y-113875000D03*
X139775000Y-113875000D03*
X139275000Y-113875000D03*
D54*
X140900000Y-116465000D03*
X140900000Y-115215000D03*
X139650000Y-116465000D03*
X139650000Y-115215000D03*
D52*
X143390000Y-91440000D03*
X143390000Y-91940000D03*
X143390000Y-92440000D03*
X143390000Y-92940000D03*
X143390000Y-93440000D03*
D53*
X144355000Y-94405000D03*
X144855000Y-94405000D03*
X145355000Y-94405000D03*
X145855000Y-94405000D03*
X146355000Y-94405000D03*
D52*
X147320000Y-93440000D03*
X147320000Y-92940000D03*
X147320000Y-92440000D03*
X147320000Y-91940000D03*
X147320000Y-91440000D03*
D53*
X146355000Y-90475000D03*
X145855000Y-90475000D03*
X145355000Y-90475000D03*
X144855000Y-90475000D03*
X144355000Y-90475000D03*
D54*
X145980000Y-93065000D03*
X145980000Y-91815000D03*
X144730000Y-93065000D03*
X144730000Y-91815000D03*
D55*
X117480000Y-106680000D03*
X119380000Y-106680000D03*
X118430000Y-104681020D03*
D56*
X134106500Y-139593900D03*
D57*
X103736901Y-103278301D03*
X99266501Y-103278301D03*
X103736901Y-105767501D03*
X99266501Y-105767501D03*
D58*
X89423101Y-101238101D03*
X94303101Y-101238101D03*
D59*
X125146501Y-89731501D03*
X129746501Y-89731501D03*
D60*
X76633881Y-105731500D03*
X77733881Y-105731500D03*
M02*
