%TF.GenerationSoftware,KiCad,Pcbnew,4.0.5-e0-6337~49~ubuntu16.04.1*%
%TF.CreationDate,2017-08-14T10:43:52-07:00*%
%TF.ProjectId,mcphail-main-board,6D63706861696C2D6D61696E2D626F61,1.0*%
%TF.FileFunction,Soldermask,Bot*%
%FSLAX46Y46*%
G04 Gerber Fmt 4.6, Leading zero omitted, Abs format (unit mm)*
G04 Created by KiCad (PCBNEW 4.0.5-e0-6337~49~ubuntu16.04.1) date Mon Aug 14 10:43:52 2017*
%MOMM*%
%LPD*%
G01*
G04 APERTURE LIST*
%ADD10C,0.350000*%
G04 APERTURE END LIST*
D10*
G36*
X59858770Y-94593917D02*
X59858775Y-94593919D01*
X59858817Y-94593923D01*
X60062445Y-94656956D01*
X60249950Y-94758340D01*
X60414193Y-94894214D01*
X60548917Y-95059401D01*
X60648989Y-95247610D01*
X60710599Y-95451672D01*
X60731400Y-95663815D01*
X60731400Y-95674385D01*
X60731294Y-95689634D01*
X60707533Y-95901466D01*
X60643080Y-96104648D01*
X60540389Y-96291442D01*
X60403372Y-96454732D01*
X60237249Y-96588299D01*
X60048345Y-96687055D01*
X59843858Y-96747239D01*
X59843817Y-96747243D01*
X59843813Y-96747244D01*
X59631577Y-96766559D01*
X59419630Y-96744283D01*
X59419625Y-96744281D01*
X59419583Y-96744277D01*
X59215955Y-96681244D01*
X59028450Y-96579860D01*
X58864207Y-96443986D01*
X58729483Y-96278799D01*
X58629411Y-96090590D01*
X58567801Y-95886528D01*
X58547000Y-95674385D01*
X58547000Y-95663815D01*
X58547106Y-95648566D01*
X58570867Y-95436734D01*
X58635320Y-95233552D01*
X58738011Y-95046758D01*
X58875028Y-94883468D01*
X59041151Y-94749901D01*
X59230055Y-94651145D01*
X59434542Y-94590961D01*
X59434583Y-94590957D01*
X59434587Y-94590956D01*
X59646823Y-94571641D01*
X59858770Y-94593917D01*
X59858770Y-94593917D01*
G37*
G36*
X63271400Y-96761300D02*
X61087000Y-96761300D01*
X61087000Y-94576900D01*
X63271400Y-94576900D01*
X63271400Y-96761300D01*
X63271400Y-96761300D01*
G37*
G36*
X53822600Y-94805500D02*
X51638200Y-94805500D01*
X51638200Y-92925900D01*
X53822600Y-92925900D01*
X53822600Y-94805500D01*
X53822600Y-94805500D01*
G37*
G36*
X94054370Y-92587717D02*
X94054375Y-92587719D01*
X94054417Y-92587723D01*
X94258045Y-92650756D01*
X94445550Y-92752140D01*
X94609793Y-92888014D01*
X94744517Y-93053201D01*
X94844589Y-93241410D01*
X94906199Y-93445472D01*
X94927000Y-93657615D01*
X94927000Y-93668185D01*
X94926894Y-93683434D01*
X94903133Y-93895266D01*
X94838680Y-94098448D01*
X94735989Y-94285242D01*
X94598972Y-94448532D01*
X94432849Y-94582099D01*
X94243945Y-94680855D01*
X94039458Y-94741039D01*
X94039417Y-94741043D01*
X94039413Y-94741044D01*
X93827177Y-94760359D01*
X93615230Y-94738083D01*
X93615225Y-94738081D01*
X93615183Y-94738077D01*
X93411555Y-94675044D01*
X93224050Y-94573660D01*
X93059807Y-94437786D01*
X92925083Y-94272599D01*
X92825011Y-94084390D01*
X92763401Y-93880328D01*
X92742600Y-93668185D01*
X92742600Y-93657615D01*
X92742706Y-93642366D01*
X92766467Y-93430534D01*
X92830920Y-93227352D01*
X92933611Y-93040558D01*
X93070628Y-92877268D01*
X93236751Y-92743701D01*
X93425655Y-92644945D01*
X93630142Y-92584761D01*
X93630183Y-92584757D01*
X93630187Y-92584756D01*
X93842423Y-92565441D01*
X94054370Y-92587717D01*
X94054370Y-92587717D01*
G37*
G36*
X92387000Y-94755100D02*
X90202600Y-94755100D01*
X90202600Y-92570700D01*
X92387000Y-92570700D01*
X92387000Y-94755100D01*
X92387000Y-94755100D01*
G37*
G36*
X82204682Y-82584246D02*
X83199047Y-82788360D01*
X84134842Y-83181732D01*
X84976401Y-83749371D01*
X85691679Y-84469659D01*
X86253428Y-85315161D01*
X86640255Y-86253672D01*
X86837354Y-87249098D01*
X86837354Y-87249103D01*
X86837422Y-87249447D01*
X86821232Y-88408889D01*
X86821155Y-88409227D01*
X86821155Y-88409236D01*
X86596338Y-89398772D01*
X86183459Y-90326112D01*
X85598318Y-91155602D01*
X84863207Y-91855639D01*
X84006126Y-92399559D01*
X83059716Y-92766647D01*
X82060037Y-92942918D01*
X81045152Y-92921659D01*
X80053725Y-92703680D01*
X79123519Y-92297283D01*
X78289970Y-91717951D01*
X77584818Y-90987745D01*
X77034926Y-90134479D01*
X76661239Y-89190654D01*
X76477995Y-88192231D01*
X76492167Y-87177224D01*
X76703220Y-86184298D01*
X77103111Y-85251281D01*
X77676614Y-84413702D01*
X78401877Y-83703471D01*
X79251283Y-83147636D01*
X80192474Y-82767370D01*
X81189595Y-82577159D01*
X82204682Y-82584246D01*
X82204682Y-82584246D01*
G37*
G36*
X52899149Y-90385977D02*
X52899154Y-90385978D01*
X52901207Y-90385992D01*
X53083480Y-90406437D01*
X53258312Y-90461897D01*
X53419041Y-90550258D01*
X53559546Y-90668156D01*
X53674476Y-90811100D01*
X53759452Y-90973645D01*
X53811239Y-91149599D01*
X53811243Y-91149640D01*
X53811244Y-91149644D01*
X53827863Y-91332258D01*
X53812623Y-91477257D01*
X53808690Y-91514673D01*
X53754452Y-91689887D01*
X53667215Y-91851229D01*
X53550300Y-91992555D01*
X53408162Y-92108479D01*
X53246215Y-92194588D01*
X53070626Y-92247602D01*
X52888085Y-92265500D01*
X52572683Y-92265500D01*
X52561651Y-92265423D01*
X52561646Y-92265422D01*
X52559593Y-92265408D01*
X52377320Y-92244963D01*
X52202488Y-92189503D01*
X52041759Y-92101142D01*
X51901254Y-91983244D01*
X51786324Y-91840300D01*
X51701348Y-91677755D01*
X51649561Y-91501801D01*
X51649557Y-91501760D01*
X51649556Y-91501756D01*
X51632937Y-91319142D01*
X51652105Y-91136774D01*
X51652110Y-91136727D01*
X51706348Y-90961513D01*
X51793585Y-90800171D01*
X51910500Y-90658845D01*
X52052638Y-90542921D01*
X52214585Y-90456812D01*
X52390174Y-90403798D01*
X52572715Y-90385900D01*
X52888117Y-90385900D01*
X52899149Y-90385977D01*
X52899149Y-90385977D01*
G37*
G36*
X100214843Y-90373757D02*
X100375858Y-90406809D01*
X100527401Y-90470511D01*
X100663673Y-90562429D01*
X100779506Y-90679072D01*
X100870468Y-90815982D01*
X100933110Y-90967963D01*
X100964968Y-91128856D01*
X100964968Y-91128866D01*
X100965036Y-91129210D01*
X100962415Y-91316963D01*
X100962337Y-91317306D01*
X100962337Y-91317309D01*
X100925997Y-91477261D01*
X100859140Y-91627425D01*
X100764384Y-91761747D01*
X100645345Y-91875108D01*
X100506553Y-91963188D01*
X100353299Y-92022631D01*
X100191419Y-92051175D01*
X100027073Y-92047732D01*
X99866528Y-92012435D01*
X99715894Y-91946624D01*
X99580918Y-91852813D01*
X99466730Y-91734568D01*
X99377683Y-91596394D01*
X99317169Y-91443553D01*
X99287497Y-91281881D01*
X99289791Y-91117516D01*
X99323969Y-90956726D01*
X99388723Y-90805640D01*
X99481594Y-90670007D01*
X99599037Y-90554998D01*
X99736586Y-90464988D01*
X99888997Y-90403410D01*
X100050462Y-90372609D01*
X100214843Y-90373757D01*
X100214843Y-90373757D01*
G37*
G36*
X90637200Y-90383200D02*
X87984800Y-90383200D01*
X87984800Y-85130800D01*
X90637200Y-85130800D01*
X90637200Y-90383200D01*
X90637200Y-90383200D01*
G37*
G36*
X75337200Y-90383200D02*
X72684800Y-90383200D01*
X72684800Y-85130800D01*
X75337200Y-85130800D01*
X75337200Y-90383200D01*
X75337200Y-90383200D01*
G37*
G36*
X52899149Y-87845977D02*
X52899154Y-87845978D01*
X52901207Y-87845992D01*
X53083480Y-87866437D01*
X53258312Y-87921897D01*
X53419041Y-88010258D01*
X53559546Y-88128156D01*
X53674476Y-88271100D01*
X53759452Y-88433645D01*
X53811239Y-88609599D01*
X53811243Y-88609640D01*
X53811244Y-88609644D01*
X53827863Y-88792258D01*
X53812623Y-88937257D01*
X53808690Y-88974673D01*
X53754452Y-89149887D01*
X53667215Y-89311229D01*
X53550300Y-89452555D01*
X53408162Y-89568479D01*
X53246215Y-89654588D01*
X53070626Y-89707602D01*
X52888085Y-89725500D01*
X52572683Y-89725500D01*
X52561651Y-89725423D01*
X52561646Y-89725422D01*
X52559593Y-89725408D01*
X52377320Y-89704963D01*
X52202488Y-89649503D01*
X52041759Y-89561142D01*
X51901254Y-89443244D01*
X51786324Y-89300300D01*
X51701348Y-89137755D01*
X51649561Y-88961801D01*
X51649557Y-88961760D01*
X51649556Y-88961756D01*
X51632937Y-88779142D01*
X51652105Y-88596774D01*
X51652110Y-88596727D01*
X51706348Y-88421513D01*
X51793585Y-88260171D01*
X51910500Y-88118845D01*
X52052638Y-88002921D01*
X52214585Y-87916812D01*
X52390174Y-87863798D01*
X52572715Y-87845900D01*
X52888117Y-87845900D01*
X52899149Y-87845977D01*
X52899149Y-87845977D01*
G37*
G36*
X100214843Y-87833757D02*
X100375858Y-87866809D01*
X100527401Y-87930511D01*
X100663673Y-88022429D01*
X100779506Y-88139072D01*
X100870468Y-88275982D01*
X100933110Y-88427963D01*
X100964968Y-88588856D01*
X100964968Y-88588866D01*
X100965036Y-88589210D01*
X100962415Y-88776963D01*
X100962337Y-88777306D01*
X100962337Y-88777309D01*
X100925997Y-88937261D01*
X100859140Y-89087425D01*
X100764384Y-89221747D01*
X100645345Y-89335108D01*
X100506553Y-89423188D01*
X100353299Y-89482631D01*
X100191419Y-89511175D01*
X100027073Y-89507732D01*
X99866528Y-89472435D01*
X99715894Y-89406624D01*
X99580918Y-89312813D01*
X99466730Y-89194568D01*
X99377683Y-89056394D01*
X99317169Y-88903553D01*
X99287497Y-88741881D01*
X99289791Y-88577516D01*
X99323969Y-88416726D01*
X99388723Y-88265640D01*
X99481594Y-88130007D01*
X99599037Y-88014998D01*
X99736586Y-87924988D01*
X99888997Y-87863410D01*
X100050462Y-87832609D01*
X100214843Y-87833757D01*
X100214843Y-87833757D01*
G37*
G36*
X52899149Y-85305977D02*
X52899154Y-85305978D01*
X52901207Y-85305992D01*
X53083480Y-85326437D01*
X53258312Y-85381897D01*
X53419041Y-85470258D01*
X53559546Y-85588156D01*
X53674476Y-85731100D01*
X53759452Y-85893645D01*
X53811239Y-86069599D01*
X53811243Y-86069640D01*
X53811244Y-86069644D01*
X53827863Y-86252258D01*
X53809719Y-86424882D01*
X53808690Y-86434673D01*
X53754452Y-86609887D01*
X53667215Y-86771229D01*
X53550300Y-86912555D01*
X53408162Y-87028479D01*
X53246215Y-87114588D01*
X53070626Y-87167602D01*
X52888085Y-87185500D01*
X52572683Y-87185500D01*
X52561651Y-87185423D01*
X52561646Y-87185422D01*
X52559593Y-87185408D01*
X52377320Y-87164963D01*
X52202488Y-87109503D01*
X52041759Y-87021142D01*
X51901254Y-86903244D01*
X51786324Y-86760300D01*
X51701348Y-86597755D01*
X51649561Y-86421801D01*
X51649557Y-86421760D01*
X51649556Y-86421756D01*
X51632937Y-86239142D01*
X51652105Y-86056774D01*
X51652110Y-86056727D01*
X51706348Y-85881513D01*
X51793585Y-85720171D01*
X51910500Y-85578845D01*
X52052638Y-85462921D01*
X52214585Y-85376812D01*
X52390174Y-85323798D01*
X52572715Y-85305900D01*
X52888117Y-85305900D01*
X52899149Y-85305977D01*
X52899149Y-85305977D01*
G37*
G36*
X92573435Y-85306582D02*
X92741750Y-85341133D01*
X92900162Y-85407723D01*
X93042616Y-85503809D01*
X93163694Y-85625735D01*
X93258781Y-85768854D01*
X93324263Y-85927724D01*
X93357569Y-86095935D01*
X93357638Y-86096284D01*
X93354897Y-86292548D01*
X93354820Y-86292886D01*
X93354820Y-86292895D01*
X93316829Y-86460113D01*
X93246940Y-86617085D01*
X93147890Y-86757498D01*
X93023453Y-86875997D01*
X92878370Y-86968070D01*
X92718169Y-87030208D01*
X92548948Y-87060047D01*
X92377151Y-87056447D01*
X92209328Y-87019550D01*
X92051866Y-86950756D01*
X91910770Y-86852692D01*
X91791405Y-86729086D01*
X91698322Y-86584649D01*
X91635064Y-86424878D01*
X91604047Y-86255876D01*
X91606445Y-86084059D01*
X91642172Y-85915980D01*
X91709862Y-85758045D01*
X91806943Y-85616263D01*
X91929711Y-85496039D01*
X92073496Y-85401950D01*
X92232816Y-85337579D01*
X92401601Y-85305383D01*
X92573435Y-85306582D01*
X92573435Y-85306582D01*
G37*
G36*
X100214843Y-85293757D02*
X100375858Y-85326809D01*
X100527401Y-85390511D01*
X100663673Y-85482429D01*
X100779506Y-85599072D01*
X100870468Y-85735982D01*
X100933110Y-85887963D01*
X100964968Y-86048856D01*
X100964968Y-86048866D01*
X100965036Y-86049210D01*
X100962415Y-86236963D01*
X100962337Y-86237306D01*
X100962337Y-86237309D01*
X100925997Y-86397261D01*
X100859140Y-86547425D01*
X100764384Y-86681747D01*
X100645345Y-86795108D01*
X100506553Y-86883188D01*
X100353299Y-86942631D01*
X100191419Y-86971175D01*
X100027073Y-86967732D01*
X99866528Y-86932435D01*
X99715894Y-86866624D01*
X99580918Y-86772813D01*
X99466730Y-86654568D01*
X99377683Y-86516394D01*
X99317169Y-86363553D01*
X99287497Y-86201881D01*
X99289791Y-86037516D01*
X99323969Y-85876726D01*
X99388723Y-85725640D01*
X99481594Y-85590007D01*
X99599037Y-85474998D01*
X99736586Y-85384988D01*
X99888997Y-85323410D01*
X100050462Y-85292609D01*
X100214843Y-85293757D01*
X100214843Y-85293757D01*
G37*
G36*
X52899149Y-82765977D02*
X52899154Y-82765978D01*
X52901207Y-82765992D01*
X53083480Y-82786437D01*
X53258312Y-82841897D01*
X53419041Y-82930258D01*
X53559546Y-83048156D01*
X53674476Y-83191100D01*
X53759452Y-83353645D01*
X53811239Y-83529599D01*
X53811243Y-83529640D01*
X53811244Y-83529644D01*
X53827863Y-83712258D01*
X53812623Y-83857257D01*
X53808690Y-83894673D01*
X53754452Y-84069887D01*
X53667215Y-84231229D01*
X53550300Y-84372555D01*
X53408162Y-84488479D01*
X53246215Y-84574588D01*
X53070626Y-84627602D01*
X52888085Y-84645500D01*
X52572683Y-84645500D01*
X52561651Y-84645423D01*
X52561646Y-84645422D01*
X52559593Y-84645408D01*
X52377320Y-84624963D01*
X52202488Y-84569503D01*
X52041759Y-84481142D01*
X51901254Y-84363244D01*
X51786324Y-84220300D01*
X51701348Y-84057755D01*
X51649561Y-83881801D01*
X51649557Y-83881760D01*
X51649556Y-83881756D01*
X51632937Y-83699142D01*
X51652105Y-83516774D01*
X51652110Y-83516727D01*
X51706348Y-83341513D01*
X51793585Y-83180171D01*
X51910500Y-83038845D01*
X52052638Y-82922921D01*
X52214585Y-82836812D01*
X52390174Y-82783798D01*
X52572715Y-82765900D01*
X52888117Y-82765900D01*
X52899149Y-82765977D01*
X52899149Y-82765977D01*
G37*
G36*
X92573435Y-82806582D02*
X92741750Y-82841133D01*
X92900162Y-82907723D01*
X93042616Y-83003809D01*
X93163694Y-83125735D01*
X93258781Y-83268854D01*
X93324263Y-83427724D01*
X93357569Y-83595935D01*
X93357638Y-83596284D01*
X93354897Y-83792548D01*
X93354820Y-83792886D01*
X93354820Y-83792895D01*
X93316829Y-83960113D01*
X93246940Y-84117085D01*
X93147890Y-84257498D01*
X93023453Y-84375997D01*
X92878370Y-84468070D01*
X92718169Y-84530208D01*
X92548948Y-84560047D01*
X92377151Y-84556447D01*
X92209328Y-84519550D01*
X92051866Y-84450756D01*
X91910770Y-84352692D01*
X91791405Y-84229086D01*
X91698322Y-84084649D01*
X91635064Y-83924878D01*
X91604047Y-83755876D01*
X91606445Y-83584059D01*
X91642172Y-83415980D01*
X91709862Y-83258045D01*
X91806943Y-83116263D01*
X91929711Y-82996039D01*
X92073496Y-82901950D01*
X92232816Y-82837579D01*
X92401601Y-82805383D01*
X92573435Y-82806582D01*
X92573435Y-82806582D01*
G37*
G36*
X100214843Y-82753757D02*
X100375858Y-82786809D01*
X100527401Y-82850511D01*
X100663673Y-82942429D01*
X100779506Y-83059072D01*
X100870468Y-83195982D01*
X100933110Y-83347963D01*
X100964968Y-83508856D01*
X100964968Y-83508866D01*
X100965036Y-83509210D01*
X100962415Y-83696963D01*
X100962337Y-83697306D01*
X100962337Y-83697309D01*
X100925997Y-83857261D01*
X100859140Y-84007425D01*
X100764384Y-84141747D01*
X100645345Y-84255108D01*
X100506553Y-84343188D01*
X100353299Y-84402631D01*
X100191419Y-84431175D01*
X100027073Y-84427732D01*
X99866528Y-84392435D01*
X99715894Y-84326624D01*
X99580918Y-84232813D01*
X99466730Y-84114568D01*
X99377683Y-83976394D01*
X99317169Y-83823553D01*
X99287497Y-83661881D01*
X99289791Y-83497516D01*
X99323969Y-83336726D01*
X99388723Y-83185640D01*
X99481594Y-83050007D01*
X99599037Y-82934998D01*
X99736586Y-82844988D01*
X99888997Y-82783410D01*
X100050462Y-82752609D01*
X100214843Y-82753757D01*
X100214843Y-82753757D01*
G37*
G36*
X52899149Y-80225977D02*
X52899154Y-80225978D01*
X52901207Y-80225992D01*
X53083480Y-80246437D01*
X53258312Y-80301897D01*
X53419041Y-80390258D01*
X53559546Y-80508156D01*
X53674476Y-80651100D01*
X53759452Y-80813645D01*
X53811239Y-80989599D01*
X53811243Y-80989640D01*
X53811244Y-80989644D01*
X53827863Y-81172258D01*
X53812623Y-81317257D01*
X53808690Y-81354673D01*
X53754452Y-81529887D01*
X53667215Y-81691229D01*
X53550300Y-81832555D01*
X53408162Y-81948479D01*
X53246215Y-82034588D01*
X53070626Y-82087602D01*
X52888085Y-82105500D01*
X52572683Y-82105500D01*
X52561651Y-82105423D01*
X52561646Y-82105422D01*
X52559593Y-82105408D01*
X52377320Y-82084963D01*
X52202488Y-82029503D01*
X52041759Y-81941142D01*
X51901254Y-81823244D01*
X51786324Y-81680300D01*
X51701348Y-81517755D01*
X51649561Y-81341801D01*
X51649557Y-81341760D01*
X51649556Y-81341756D01*
X51632937Y-81159142D01*
X51652105Y-80976774D01*
X51652110Y-80976727D01*
X51706348Y-80801513D01*
X51793585Y-80640171D01*
X51910500Y-80498845D01*
X52052638Y-80382921D01*
X52214585Y-80296812D01*
X52390174Y-80243798D01*
X52572715Y-80225900D01*
X52888117Y-80225900D01*
X52899149Y-80225977D01*
X52899149Y-80225977D01*
G37*
G36*
X100214843Y-80213757D02*
X100375858Y-80246809D01*
X100527401Y-80310511D01*
X100663673Y-80402429D01*
X100779506Y-80519072D01*
X100870468Y-80655982D01*
X100933110Y-80807963D01*
X100964968Y-80968856D01*
X100964968Y-80968866D01*
X100965036Y-80969210D01*
X100962415Y-81156963D01*
X100962337Y-81157306D01*
X100962337Y-81157309D01*
X100925997Y-81317261D01*
X100859140Y-81467425D01*
X100764384Y-81601747D01*
X100645345Y-81715108D01*
X100506553Y-81803188D01*
X100353299Y-81862631D01*
X100191419Y-81891175D01*
X100027073Y-81887732D01*
X99866528Y-81852435D01*
X99715894Y-81786624D01*
X99580918Y-81692813D01*
X99466730Y-81574568D01*
X99377683Y-81436394D01*
X99317169Y-81283553D01*
X99287497Y-81121881D01*
X99289791Y-80957516D01*
X99323969Y-80796726D01*
X99388723Y-80645640D01*
X99481594Y-80510007D01*
X99599037Y-80394998D01*
X99736586Y-80304988D01*
X99888997Y-80243410D01*
X100050462Y-80212609D01*
X100214843Y-80213757D01*
X100214843Y-80213757D01*
G37*
G36*
X100214843Y-77673757D02*
X100375858Y-77706809D01*
X100527401Y-77770511D01*
X100663673Y-77862429D01*
X100779506Y-77979072D01*
X100870468Y-78115982D01*
X100933110Y-78267963D01*
X100964968Y-78428856D01*
X100964968Y-78428866D01*
X100965036Y-78429210D01*
X100962415Y-78616963D01*
X100962337Y-78617306D01*
X100962337Y-78617309D01*
X100925997Y-78777261D01*
X100859140Y-78927425D01*
X100764384Y-79061747D01*
X100645345Y-79175108D01*
X100506553Y-79263188D01*
X100353299Y-79322631D01*
X100191419Y-79351175D01*
X100027073Y-79347732D01*
X99866528Y-79312435D01*
X99715894Y-79246624D01*
X99580918Y-79152813D01*
X99466730Y-79034568D01*
X99377683Y-78896394D01*
X99317169Y-78743553D01*
X99287497Y-78581881D01*
X99289791Y-78417516D01*
X99323969Y-78256726D01*
X99388723Y-78105640D01*
X99481594Y-77970007D01*
X99599037Y-77854998D01*
X99736586Y-77764988D01*
X99888997Y-77703410D01*
X100050462Y-77672609D01*
X100214843Y-77673757D01*
X100214843Y-77673757D01*
G37*
G36*
X91049435Y-75835582D02*
X91217750Y-75870133D01*
X91376162Y-75936723D01*
X91518616Y-76032809D01*
X91639694Y-76154735D01*
X91734781Y-76297854D01*
X91800263Y-76456724D01*
X91833569Y-76624935D01*
X91833638Y-76625284D01*
X91830897Y-76821548D01*
X91830820Y-76821886D01*
X91830820Y-76821895D01*
X91792829Y-76989113D01*
X91722940Y-77146085D01*
X91623890Y-77286498D01*
X91499453Y-77404997D01*
X91354370Y-77497070D01*
X91194169Y-77559208D01*
X91024948Y-77589047D01*
X90853151Y-77585447D01*
X90685328Y-77548550D01*
X90527866Y-77479756D01*
X90386770Y-77381692D01*
X90267405Y-77258086D01*
X90174322Y-77113649D01*
X90111064Y-76953878D01*
X90080047Y-76784876D01*
X90082445Y-76613059D01*
X90118172Y-76444980D01*
X90185862Y-76287045D01*
X90282943Y-76145263D01*
X90405711Y-76025039D01*
X90549496Y-75930950D01*
X90708816Y-75866579D01*
X90877601Y-75834383D01*
X91049435Y-75835582D01*
X91049435Y-75835582D01*
G37*
G36*
X100214843Y-75133757D02*
X100375858Y-75166809D01*
X100527401Y-75230511D01*
X100663673Y-75322429D01*
X100779506Y-75439072D01*
X100870468Y-75575982D01*
X100933110Y-75727963D01*
X100964968Y-75888856D01*
X100964968Y-75888866D01*
X100965036Y-75889210D01*
X100962415Y-76076963D01*
X100962337Y-76077306D01*
X100962337Y-76077309D01*
X100925997Y-76237261D01*
X100859140Y-76387425D01*
X100764384Y-76521747D01*
X100645345Y-76635108D01*
X100506553Y-76723188D01*
X100353299Y-76782631D01*
X100191419Y-76811175D01*
X100027073Y-76807732D01*
X99866528Y-76772435D01*
X99715894Y-76706624D01*
X99580918Y-76612813D01*
X99466730Y-76494568D01*
X99377683Y-76356394D01*
X99317169Y-76203553D01*
X99287497Y-76041881D01*
X99289791Y-75877516D01*
X99323969Y-75716726D01*
X99388723Y-75565640D01*
X99481594Y-75430007D01*
X99599037Y-75314998D01*
X99736586Y-75224988D01*
X99888997Y-75163410D01*
X100050462Y-75132609D01*
X100214843Y-75133757D01*
X100214843Y-75133757D01*
G37*
G36*
X100214843Y-72593757D02*
X100375858Y-72626809D01*
X100527401Y-72690511D01*
X100663673Y-72782429D01*
X100779506Y-72899072D01*
X100870468Y-73035982D01*
X100933110Y-73187963D01*
X100964968Y-73348856D01*
X100964968Y-73348866D01*
X100965036Y-73349210D01*
X100962415Y-73536963D01*
X100962337Y-73537306D01*
X100962337Y-73537309D01*
X100925997Y-73697261D01*
X100859140Y-73847425D01*
X100764384Y-73981747D01*
X100645345Y-74095108D01*
X100506553Y-74183188D01*
X100353299Y-74242631D01*
X100191419Y-74271175D01*
X100027073Y-74267732D01*
X99866528Y-74232435D01*
X99715894Y-74166624D01*
X99580918Y-74072813D01*
X99466730Y-73954568D01*
X99377683Y-73816394D01*
X99317169Y-73663553D01*
X99287497Y-73501881D01*
X99289791Y-73337516D01*
X99323969Y-73176726D01*
X99388723Y-73025640D01*
X99481594Y-72890007D01*
X99599037Y-72774998D01*
X99736586Y-72684988D01*
X99888997Y-72623410D01*
X100050462Y-72592609D01*
X100214843Y-72593757D01*
X100214843Y-72593757D01*
G37*
G36*
X91049435Y-70955582D02*
X91217750Y-70990133D01*
X91376162Y-71056723D01*
X91518616Y-71152809D01*
X91639694Y-71274735D01*
X91734781Y-71417854D01*
X91800263Y-71576724D01*
X91833569Y-71744935D01*
X91833638Y-71745284D01*
X91830897Y-71941548D01*
X91830820Y-71941886D01*
X91830820Y-71941895D01*
X91792829Y-72109113D01*
X91722940Y-72266085D01*
X91623890Y-72406498D01*
X91499453Y-72524997D01*
X91354370Y-72617070D01*
X91194169Y-72679208D01*
X91024948Y-72709047D01*
X90853151Y-72705447D01*
X90685328Y-72668550D01*
X90527866Y-72599756D01*
X90386770Y-72501692D01*
X90267405Y-72378086D01*
X90174322Y-72233649D01*
X90111064Y-72073878D01*
X90080047Y-71904876D01*
X90082445Y-71733059D01*
X90118172Y-71564980D01*
X90185862Y-71407045D01*
X90282943Y-71265263D01*
X90405711Y-71145039D01*
X90549496Y-71050950D01*
X90708816Y-70986579D01*
X90877601Y-70954383D01*
X91049435Y-70955582D01*
X91049435Y-70955582D01*
G37*
G36*
X100214843Y-70053757D02*
X100375858Y-70086809D01*
X100527401Y-70150511D01*
X100663673Y-70242429D01*
X100779506Y-70359072D01*
X100870468Y-70495982D01*
X100933110Y-70647963D01*
X100964968Y-70808856D01*
X100964968Y-70808866D01*
X100965036Y-70809210D01*
X100962415Y-70996963D01*
X100962337Y-70997306D01*
X100962337Y-70997309D01*
X100925997Y-71157261D01*
X100859140Y-71307425D01*
X100764384Y-71441747D01*
X100645345Y-71555108D01*
X100506553Y-71643188D01*
X100353299Y-71702631D01*
X100191419Y-71731175D01*
X100027073Y-71727732D01*
X99866528Y-71692435D01*
X99715894Y-71626624D01*
X99580918Y-71532813D01*
X99466730Y-71414568D01*
X99377683Y-71276394D01*
X99317169Y-71123553D01*
X99287497Y-70961881D01*
X99289791Y-70797516D01*
X99323969Y-70636726D01*
X99388723Y-70485640D01*
X99481594Y-70350007D01*
X99599037Y-70234998D01*
X99736586Y-70144988D01*
X99888997Y-70083410D01*
X100050462Y-70052609D01*
X100214843Y-70053757D01*
X100214843Y-70053757D01*
G37*
G36*
X100214843Y-67513757D02*
X100375858Y-67546809D01*
X100527401Y-67610511D01*
X100663673Y-67702429D01*
X100779506Y-67819072D01*
X100870468Y-67955982D01*
X100933110Y-68107963D01*
X100964968Y-68268856D01*
X100964968Y-68268866D01*
X100965036Y-68269210D01*
X100962415Y-68456963D01*
X100962337Y-68457306D01*
X100962337Y-68457309D01*
X100925997Y-68617261D01*
X100859140Y-68767425D01*
X100764384Y-68901747D01*
X100645345Y-69015108D01*
X100506553Y-69103188D01*
X100353299Y-69162631D01*
X100191419Y-69191175D01*
X100027073Y-69187732D01*
X99866528Y-69152435D01*
X99715894Y-69086624D01*
X99580918Y-68992813D01*
X99466730Y-68874568D01*
X99377683Y-68736394D01*
X99317169Y-68583553D01*
X99287497Y-68421881D01*
X99289791Y-68257516D01*
X99323969Y-68096726D01*
X99388723Y-67945640D01*
X99481594Y-67810007D01*
X99599037Y-67694998D01*
X99736586Y-67604988D01*
X99888997Y-67543410D01*
X100050462Y-67512609D01*
X100214843Y-67513757D01*
X100214843Y-67513757D01*
G37*
G36*
X100214843Y-64973757D02*
X100375858Y-65006809D01*
X100527401Y-65070511D01*
X100663673Y-65162429D01*
X100779506Y-65279072D01*
X100870468Y-65415982D01*
X100933110Y-65567963D01*
X100964968Y-65728856D01*
X100964968Y-65728866D01*
X100965036Y-65729210D01*
X100962415Y-65916963D01*
X100962337Y-65917306D01*
X100962337Y-65917309D01*
X100925997Y-66077261D01*
X100859140Y-66227425D01*
X100764384Y-66361747D01*
X100645345Y-66475108D01*
X100506553Y-66563188D01*
X100353299Y-66622631D01*
X100191419Y-66651175D01*
X100027073Y-66647732D01*
X99866528Y-66612435D01*
X99715894Y-66546624D01*
X99580918Y-66452813D01*
X99466730Y-66334568D01*
X99377683Y-66196394D01*
X99317169Y-66043553D01*
X99287497Y-65881881D01*
X99289791Y-65717516D01*
X99323969Y-65556726D01*
X99388723Y-65405640D01*
X99481594Y-65270007D01*
X99599037Y-65154998D01*
X99736586Y-65064988D01*
X99888997Y-65003410D01*
X100050462Y-64972609D01*
X100214843Y-64973757D01*
X100214843Y-64973757D01*
G37*
G36*
X100214843Y-62433757D02*
X100375858Y-62466809D01*
X100527401Y-62530511D01*
X100663673Y-62622429D01*
X100779506Y-62739072D01*
X100870468Y-62875982D01*
X100933110Y-63027963D01*
X100964968Y-63188856D01*
X100964968Y-63188866D01*
X100965036Y-63189210D01*
X100962415Y-63376963D01*
X100962337Y-63377306D01*
X100962337Y-63377309D01*
X100925997Y-63537261D01*
X100859140Y-63687425D01*
X100764384Y-63821747D01*
X100645345Y-63935108D01*
X100506553Y-64023188D01*
X100353299Y-64082631D01*
X100191419Y-64111175D01*
X100027073Y-64107732D01*
X99866528Y-64072435D01*
X99715894Y-64006624D01*
X99580918Y-63912813D01*
X99466730Y-63794568D01*
X99377683Y-63656394D01*
X99317169Y-63503553D01*
X99287497Y-63341881D01*
X99289791Y-63177516D01*
X99323969Y-63016726D01*
X99388723Y-62865640D01*
X99481594Y-62730007D01*
X99599037Y-62614998D01*
X99736586Y-62524988D01*
X99888997Y-62463410D01*
X100050462Y-62432609D01*
X100214843Y-62433757D01*
X100214843Y-62433757D01*
G37*
G36*
X100214843Y-59893757D02*
X100375858Y-59926809D01*
X100527401Y-59990511D01*
X100663673Y-60082429D01*
X100779506Y-60199072D01*
X100870468Y-60335982D01*
X100933110Y-60487963D01*
X100964968Y-60648856D01*
X100964968Y-60648866D01*
X100965036Y-60649210D01*
X100962415Y-60836963D01*
X100962337Y-60837306D01*
X100962337Y-60837309D01*
X100925997Y-60997261D01*
X100859140Y-61147425D01*
X100764384Y-61281747D01*
X100645345Y-61395108D01*
X100506553Y-61483188D01*
X100353299Y-61542631D01*
X100191419Y-61571175D01*
X100027073Y-61567732D01*
X99866528Y-61532435D01*
X99715894Y-61466624D01*
X99580918Y-61372813D01*
X99466730Y-61254568D01*
X99377683Y-61116394D01*
X99317169Y-60963553D01*
X99287497Y-60801881D01*
X99289791Y-60637516D01*
X99323969Y-60476726D01*
X99388723Y-60325640D01*
X99481594Y-60190007D01*
X99599037Y-60074998D01*
X99736586Y-59984988D01*
X99888997Y-59923410D01*
X100050462Y-59892609D01*
X100214843Y-59893757D01*
X100214843Y-59893757D01*
G37*
G36*
X62825326Y-59603042D02*
X62825331Y-59603044D01*
X62825373Y-59603048D01*
X63000587Y-59657286D01*
X63161929Y-59744523D01*
X63303255Y-59861438D01*
X63419179Y-60003576D01*
X63505288Y-60165523D01*
X63558302Y-60341112D01*
X63576200Y-60523653D01*
X63576200Y-60532780D01*
X63576123Y-60543812D01*
X63576122Y-60543817D01*
X63576108Y-60545869D01*
X63555663Y-60728142D01*
X63500203Y-60902974D01*
X63411842Y-61063703D01*
X63293944Y-61204208D01*
X63151000Y-61319138D01*
X62988455Y-61404114D01*
X62812501Y-61455901D01*
X62812465Y-61455904D01*
X62812456Y-61455907D01*
X62629842Y-61472526D01*
X62447474Y-61453358D01*
X62447469Y-61453356D01*
X62447427Y-61453352D01*
X62272213Y-61399114D01*
X62110871Y-61311877D01*
X61969545Y-61194962D01*
X61853621Y-61052824D01*
X61767512Y-60890877D01*
X61714498Y-60715288D01*
X61696600Y-60532747D01*
X61696600Y-60523620D01*
X61696677Y-60512588D01*
X61696678Y-60512583D01*
X61696692Y-60510531D01*
X61717137Y-60328258D01*
X61772597Y-60153426D01*
X61860958Y-59992697D01*
X61978856Y-59852192D01*
X62121800Y-59737262D01*
X62284345Y-59652286D01*
X62460299Y-59600499D01*
X62460335Y-59600496D01*
X62460344Y-59600493D01*
X62642958Y-59583874D01*
X62825326Y-59603042D01*
X62825326Y-59603042D01*
G37*
G36*
X60285326Y-59603042D02*
X60285331Y-59603044D01*
X60285373Y-59603048D01*
X60460587Y-59657286D01*
X60621929Y-59744523D01*
X60763255Y-59861438D01*
X60879179Y-60003576D01*
X60965288Y-60165523D01*
X61018302Y-60341112D01*
X61036200Y-60523653D01*
X61036200Y-60532780D01*
X61036123Y-60543812D01*
X61036122Y-60543817D01*
X61036108Y-60545869D01*
X61015663Y-60728142D01*
X60960203Y-60902974D01*
X60871842Y-61063703D01*
X60753944Y-61204208D01*
X60611000Y-61319138D01*
X60448455Y-61404114D01*
X60272501Y-61455901D01*
X60272465Y-61455904D01*
X60272456Y-61455907D01*
X60089842Y-61472526D01*
X59907474Y-61453358D01*
X59907469Y-61453356D01*
X59907427Y-61453352D01*
X59732213Y-61399114D01*
X59570871Y-61311877D01*
X59429545Y-61194962D01*
X59313621Y-61052824D01*
X59227512Y-60890877D01*
X59174498Y-60715288D01*
X59156600Y-60532747D01*
X59156600Y-60523620D01*
X59156677Y-60512588D01*
X59156678Y-60512583D01*
X59156692Y-60510531D01*
X59177137Y-60328258D01*
X59232597Y-60153426D01*
X59320958Y-59992697D01*
X59438856Y-59852192D01*
X59581800Y-59737262D01*
X59744345Y-59652286D01*
X59920299Y-59600499D01*
X59920335Y-59600496D01*
X59920344Y-59600493D01*
X60102958Y-59583874D01*
X60285326Y-59603042D01*
X60285326Y-59603042D01*
G37*
G36*
X65365326Y-59603042D02*
X65365331Y-59603044D01*
X65365373Y-59603048D01*
X65540587Y-59657286D01*
X65701929Y-59744523D01*
X65843255Y-59861438D01*
X65959179Y-60003576D01*
X66045288Y-60165523D01*
X66098302Y-60341112D01*
X66116200Y-60523653D01*
X66116200Y-60532780D01*
X66116123Y-60543812D01*
X66116122Y-60543817D01*
X66116108Y-60545869D01*
X66095663Y-60728142D01*
X66040203Y-60902974D01*
X65951842Y-61063703D01*
X65833944Y-61204208D01*
X65691000Y-61319138D01*
X65528455Y-61404114D01*
X65352501Y-61455901D01*
X65352465Y-61455904D01*
X65352456Y-61455907D01*
X65169842Y-61472526D01*
X64987474Y-61453358D01*
X64987469Y-61453356D01*
X64987427Y-61453352D01*
X64812213Y-61399114D01*
X64650871Y-61311877D01*
X64509545Y-61194962D01*
X64393621Y-61052824D01*
X64307512Y-60890877D01*
X64254498Y-60715288D01*
X64236600Y-60532747D01*
X64236600Y-60523620D01*
X64236677Y-60512588D01*
X64236678Y-60512583D01*
X64236692Y-60510531D01*
X64257137Y-60328258D01*
X64312597Y-60153426D01*
X64400958Y-59992697D01*
X64518856Y-59852192D01*
X64661800Y-59737262D01*
X64824345Y-59652286D01*
X65000299Y-59600499D01*
X65000335Y-59600496D01*
X65000344Y-59600493D01*
X65182958Y-59583874D01*
X65365326Y-59603042D01*
X65365326Y-59603042D01*
G37*
G36*
X25369826Y-59690366D02*
X25499720Y-59717030D01*
X25621975Y-59768421D01*
X25731913Y-59842575D01*
X25825350Y-59936667D01*
X25898739Y-60047126D01*
X25949273Y-60169730D01*
X25974960Y-60299459D01*
X25974960Y-60299474D01*
X25975027Y-60299813D01*
X25972912Y-60451278D01*
X25972836Y-60451612D01*
X25972836Y-60451625D01*
X25943534Y-60580596D01*
X25889599Y-60701737D01*
X25813157Y-60810100D01*
X25717124Y-60901551D01*
X25605158Y-60972607D01*
X25481520Y-61020563D01*
X25350929Y-61043590D01*
X25218345Y-61040812D01*
X25088829Y-61012337D01*
X24967308Y-60959245D01*
X24858419Y-60883565D01*
X24766300Y-60788174D01*
X24694463Y-60676704D01*
X24645644Y-60553402D01*
X24621707Y-60422977D01*
X24623558Y-60290379D01*
X24651130Y-60160664D01*
X24703369Y-60038779D01*
X24778291Y-59929360D01*
X24873039Y-59836576D01*
X24983997Y-59763966D01*
X25106955Y-59714288D01*
X25237213Y-59689441D01*
X25369826Y-59690366D01*
X25369826Y-59690366D01*
G37*
G36*
X100214843Y-57353757D02*
X100375858Y-57386809D01*
X100527401Y-57450511D01*
X100663673Y-57542429D01*
X100779506Y-57659072D01*
X100870468Y-57795982D01*
X100933110Y-57947963D01*
X100964968Y-58108856D01*
X100964968Y-58108866D01*
X100965036Y-58109210D01*
X100962415Y-58296963D01*
X100962337Y-58297306D01*
X100962337Y-58297309D01*
X100925997Y-58457261D01*
X100859140Y-58607425D01*
X100764384Y-58741747D01*
X100645345Y-58855108D01*
X100506553Y-58943188D01*
X100353299Y-59002631D01*
X100191419Y-59031175D01*
X100027073Y-59027732D01*
X99866528Y-58992435D01*
X99715894Y-58926624D01*
X99580918Y-58832813D01*
X99466730Y-58714568D01*
X99377683Y-58576394D01*
X99317169Y-58423553D01*
X99287497Y-58261881D01*
X99289791Y-58097516D01*
X99323969Y-57936726D01*
X99388723Y-57785640D01*
X99481594Y-57650007D01*
X99599037Y-57534998D01*
X99736586Y-57444988D01*
X99888997Y-57383410D01*
X100050462Y-57352609D01*
X100214843Y-57353757D01*
X100214843Y-57353757D01*
G37*
G36*
X60285326Y-57063042D02*
X60285331Y-57063044D01*
X60285373Y-57063048D01*
X60460587Y-57117286D01*
X60621929Y-57204523D01*
X60763255Y-57321438D01*
X60879179Y-57463576D01*
X60965288Y-57625523D01*
X61018302Y-57801112D01*
X61036200Y-57983653D01*
X61036200Y-57992780D01*
X61036123Y-58003812D01*
X61036122Y-58003817D01*
X61036108Y-58005869D01*
X61015663Y-58188142D01*
X60960203Y-58362974D01*
X60871842Y-58523703D01*
X60753944Y-58664208D01*
X60611000Y-58779138D01*
X60448455Y-58864114D01*
X60272501Y-58915901D01*
X60272465Y-58915904D01*
X60272456Y-58915907D01*
X60089842Y-58932526D01*
X59907474Y-58913358D01*
X59907469Y-58913356D01*
X59907427Y-58913352D01*
X59732213Y-58859114D01*
X59570871Y-58771877D01*
X59429545Y-58654962D01*
X59313621Y-58512824D01*
X59227512Y-58350877D01*
X59174498Y-58175288D01*
X59156600Y-57992747D01*
X59156600Y-57983620D01*
X59156677Y-57972588D01*
X59156678Y-57972583D01*
X59156692Y-57970531D01*
X59177137Y-57788258D01*
X59232597Y-57613426D01*
X59320958Y-57452697D01*
X59438856Y-57312192D01*
X59581800Y-57197262D01*
X59744345Y-57112286D01*
X59920299Y-57060499D01*
X59920335Y-57060496D01*
X59920344Y-57060493D01*
X60102958Y-57043874D01*
X60285326Y-57063042D01*
X60285326Y-57063042D01*
G37*
G36*
X62825326Y-57063042D02*
X62825331Y-57063044D01*
X62825373Y-57063048D01*
X63000587Y-57117286D01*
X63161929Y-57204523D01*
X63303255Y-57321438D01*
X63419179Y-57463576D01*
X63505288Y-57625523D01*
X63558302Y-57801112D01*
X63576200Y-57983653D01*
X63576200Y-57992780D01*
X63576123Y-58003812D01*
X63576122Y-58003817D01*
X63576108Y-58005869D01*
X63555663Y-58188142D01*
X63500203Y-58362974D01*
X63411842Y-58523703D01*
X63293944Y-58664208D01*
X63151000Y-58779138D01*
X62988455Y-58864114D01*
X62812501Y-58915901D01*
X62812465Y-58915904D01*
X62812456Y-58915907D01*
X62629842Y-58932526D01*
X62447474Y-58913358D01*
X62447469Y-58913356D01*
X62447427Y-58913352D01*
X62272213Y-58859114D01*
X62110871Y-58771877D01*
X61969545Y-58654962D01*
X61853621Y-58512824D01*
X61767512Y-58350877D01*
X61714498Y-58175288D01*
X61696600Y-57992747D01*
X61696600Y-57983620D01*
X61696677Y-57972588D01*
X61696678Y-57972583D01*
X61696692Y-57970531D01*
X61717137Y-57788258D01*
X61772597Y-57613426D01*
X61860958Y-57452697D01*
X61978856Y-57312192D01*
X62121800Y-57197262D01*
X62284345Y-57112286D01*
X62460299Y-57060499D01*
X62460335Y-57060496D01*
X62460344Y-57060493D01*
X62642958Y-57043874D01*
X62825326Y-57063042D01*
X62825326Y-57063042D01*
G37*
G36*
X66116200Y-58928000D02*
X64236600Y-58928000D01*
X64236600Y-57048400D01*
X66116200Y-57048400D01*
X66116200Y-58928000D01*
X66116200Y-58928000D01*
G37*
G36*
X100214843Y-54813757D02*
X100375858Y-54846809D01*
X100527401Y-54910511D01*
X100663673Y-55002429D01*
X100779506Y-55119072D01*
X100870468Y-55255982D01*
X100933110Y-55407963D01*
X100964968Y-55568856D01*
X100964968Y-55568866D01*
X100965036Y-55569210D01*
X100962415Y-55756963D01*
X100962337Y-55757306D01*
X100962337Y-55757309D01*
X100925997Y-55917261D01*
X100859140Y-56067425D01*
X100764384Y-56201747D01*
X100645345Y-56315108D01*
X100506553Y-56403188D01*
X100353299Y-56462631D01*
X100191419Y-56491175D01*
X100027073Y-56487732D01*
X99866528Y-56452435D01*
X99715894Y-56386624D01*
X99580918Y-56292813D01*
X99466730Y-56174568D01*
X99377683Y-56036394D01*
X99317169Y-55883553D01*
X99287497Y-55721881D01*
X99289791Y-55557516D01*
X99323969Y-55396726D01*
X99388723Y-55245640D01*
X99481594Y-55110007D01*
X99599037Y-54994998D01*
X99736586Y-54904988D01*
X99888997Y-54843410D01*
X100050462Y-54812609D01*
X100214843Y-54813757D01*
X100214843Y-54813757D01*
G37*
G36*
X100214843Y-52273757D02*
X100375858Y-52306809D01*
X100527401Y-52370511D01*
X100663673Y-52462429D01*
X100779506Y-52579072D01*
X100870468Y-52715982D01*
X100933110Y-52867963D01*
X100964968Y-53028856D01*
X100964968Y-53028866D01*
X100965036Y-53029210D01*
X100962415Y-53216963D01*
X100962337Y-53217306D01*
X100962337Y-53217309D01*
X100925997Y-53377261D01*
X100859140Y-53527425D01*
X100764384Y-53661747D01*
X100645345Y-53775108D01*
X100506553Y-53863188D01*
X100353299Y-53922631D01*
X100191419Y-53951175D01*
X100027073Y-53947732D01*
X99866528Y-53912435D01*
X99715894Y-53846624D01*
X99580918Y-53752813D01*
X99466730Y-53634568D01*
X99377683Y-53496394D01*
X99317169Y-53343553D01*
X99287497Y-53181881D01*
X99289791Y-53017516D01*
X99323969Y-52856726D01*
X99388723Y-52705640D01*
X99481594Y-52570007D01*
X99599037Y-52454998D01*
X99736586Y-52364988D01*
X99888997Y-52303410D01*
X100050462Y-52272609D01*
X100214843Y-52273757D01*
X100214843Y-52273757D01*
G37*
G36*
X25369826Y-52590366D02*
X25499720Y-52617030D01*
X25621975Y-52668421D01*
X25731913Y-52742575D01*
X25825350Y-52836667D01*
X25898739Y-52947126D01*
X25949273Y-53069730D01*
X25974960Y-53199459D01*
X25974960Y-53199474D01*
X25975027Y-53199813D01*
X25972912Y-53351278D01*
X25972836Y-53351612D01*
X25972836Y-53351625D01*
X25943534Y-53480596D01*
X25889599Y-53601737D01*
X25813157Y-53710100D01*
X25717124Y-53801551D01*
X25605158Y-53872607D01*
X25481520Y-53920563D01*
X25350929Y-53943590D01*
X25218345Y-53940812D01*
X25088829Y-53912337D01*
X24967308Y-53859245D01*
X24858419Y-53783565D01*
X24766300Y-53688174D01*
X24694463Y-53576704D01*
X24645644Y-53453402D01*
X24621707Y-53322977D01*
X24623558Y-53190379D01*
X24651130Y-53060664D01*
X24703369Y-52938779D01*
X24778291Y-52829360D01*
X24873039Y-52736576D01*
X24983997Y-52663966D01*
X25106955Y-52614288D01*
X25237213Y-52589441D01*
X25369826Y-52590366D01*
X25369826Y-52590366D01*
G37*
G36*
X35115276Y-49412580D02*
X35514116Y-49494451D01*
X35889473Y-49652236D01*
X36227026Y-49879919D01*
X36513928Y-50168830D01*
X36739247Y-50507964D01*
X36894405Y-50884406D01*
X36973422Y-51283469D01*
X36973422Y-51283479D01*
X36973489Y-51283818D01*
X36966995Y-51748876D01*
X36966919Y-51749210D01*
X36966919Y-51749223D01*
X36876790Y-52145925D01*
X36711184Y-52517884D01*
X36476479Y-52850597D01*
X36181622Y-53131386D01*
X35837843Y-53349556D01*
X35458231Y-53496797D01*
X35057257Y-53567500D01*
X34650180Y-53558972D01*
X34252512Y-53471539D01*
X33879401Y-53308531D01*
X33545063Y-53076160D01*
X33262222Y-52783270D01*
X33041658Y-52441020D01*
X32891768Y-52062444D01*
X32818269Y-51661975D01*
X32823953Y-51254849D01*
X32908608Y-50856580D01*
X33069006Y-50482343D01*
X33299041Y-50146385D01*
X33589948Y-49861508D01*
X33930650Y-49638559D01*
X34308167Y-49486032D01*
X34708116Y-49409738D01*
X35115276Y-49412580D01*
X35115276Y-49412580D01*
G37*
G36*
X50136715Y-51054624D02*
X50317248Y-51091683D01*
X50487158Y-51163106D01*
X50639949Y-51266166D01*
X50769821Y-51396946D01*
X50871810Y-51550453D01*
X50942043Y-51720851D01*
X50977772Y-51901299D01*
X50977772Y-51901304D01*
X50977840Y-51901648D01*
X50974901Y-52112158D01*
X50974824Y-52112496D01*
X50974824Y-52112506D01*
X50934070Y-52291886D01*
X50859108Y-52460252D01*
X50752868Y-52610856D01*
X50619399Y-52737957D01*
X50463784Y-52836714D01*
X50291954Y-52903362D01*
X50110452Y-52935366D01*
X49926186Y-52931506D01*
X49746179Y-52891929D01*
X49577288Y-52818143D01*
X49425950Y-52712960D01*
X49297921Y-52580382D01*
X49198081Y-52425461D01*
X49130232Y-52254093D01*
X49096963Y-52072823D01*
X49099535Y-51888536D01*
X49137856Y-51708256D01*
X49210459Y-51538857D01*
X49314587Y-51386784D01*
X49446266Y-51257833D01*
X49600487Y-51156914D01*
X49771372Y-51087872D01*
X49952409Y-51053338D01*
X50136715Y-51054624D01*
X50136715Y-51054624D01*
G37*
G36*
X32115536Y-44713580D02*
X32514376Y-44795451D01*
X32889733Y-44953236D01*
X33227286Y-45180919D01*
X33514188Y-45469830D01*
X33739507Y-45808964D01*
X33894665Y-46185406D01*
X33973682Y-46584469D01*
X33973682Y-46584479D01*
X33973749Y-46584818D01*
X33967255Y-47049876D01*
X33967179Y-47050210D01*
X33967179Y-47050223D01*
X33877050Y-47446925D01*
X33711444Y-47818884D01*
X33476739Y-48151597D01*
X33181882Y-48432386D01*
X32838103Y-48650556D01*
X32458491Y-48797797D01*
X32057517Y-48868500D01*
X31650440Y-48859972D01*
X31252772Y-48772539D01*
X30879661Y-48609531D01*
X30545323Y-48377160D01*
X30262482Y-48084270D01*
X30041918Y-47742020D01*
X29892028Y-47363444D01*
X29818529Y-46962975D01*
X29824213Y-46555849D01*
X29908868Y-46157580D01*
X30069266Y-45783343D01*
X30299301Y-45447385D01*
X30590208Y-45162508D01*
X30930910Y-44939559D01*
X31308427Y-44787032D01*
X31708376Y-44710738D01*
X32115536Y-44713580D01*
X32115536Y-44713580D01*
G37*
G36*
X38115016Y-44713580D02*
X38513856Y-44795451D01*
X38889213Y-44953236D01*
X39226766Y-45180919D01*
X39513668Y-45469830D01*
X39738987Y-45808964D01*
X39894145Y-46185406D01*
X39973162Y-46584469D01*
X39973162Y-46584479D01*
X39973229Y-46584818D01*
X39966735Y-47049876D01*
X39966659Y-47050210D01*
X39966659Y-47050223D01*
X39876530Y-47446925D01*
X39710924Y-47818884D01*
X39476219Y-48151597D01*
X39181362Y-48432386D01*
X38837583Y-48650556D01*
X38457971Y-48797797D01*
X38056997Y-48868500D01*
X37649920Y-48859972D01*
X37252252Y-48772539D01*
X36879141Y-48609531D01*
X36544803Y-48377160D01*
X36261962Y-48084270D01*
X36041398Y-47742020D01*
X35891508Y-47363444D01*
X35818009Y-46962975D01*
X35823693Y-46555849D01*
X35908348Y-46157580D01*
X36068746Y-45783343D01*
X36298781Y-45447385D01*
X36589688Y-45162508D01*
X36930390Y-44939559D01*
X37307907Y-44787032D01*
X37707856Y-44710738D01*
X38115016Y-44713580D01*
X38115016Y-44713580D01*
G37*
M02*
