%TF.GenerationSoftware,KiCad,Pcbnew,4.0.5-e0-6337~49~ubuntu16.04.1*%
%TF.CreationDate,2017-08-09T07:16:44-07:00*%
%TF.ProjectId,mcphail-main-board,6D63706861696C2D6D61696E2D626F61,1.0*%
%TF.FileFunction,Paste,Top*%
%FSLAX46Y46*%
G04 Gerber Fmt 4.6, Leading zero omitted, Abs format (unit mm)*
G04 Created by KiCad (PCBNEW 4.0.5-e0-6337~49~ubuntu16.04.1) date Wed Aug  9 07:16:44 2017*
%MOMM*%
%LPD*%
G01*
G04 APERTURE LIST*
%ADD10C,0.350000*%
%ADD11R,0.747600X1.247600*%
%ADD12R,0.997600X1.047600*%
%ADD13R,1.047600X1.297600*%
%ADD14R,0.847600X0.547600*%
%ADD15R,0.547600X0.847600*%
%ADD16R,1.147600X0.097600*%
%ADD17R,0.097600X1.147600*%
%ADD18R,0.597600X0.647600*%
%ADD19R,1.347600X0.447600*%
%ADD20R,0.847600X1.097600*%
%ADD21R,0.647600X0.597600*%
%ADD22R,1.447600X0.847600*%
%ADD23R,1.097600X0.847600*%
%ADD24R,2.347600X0.847600*%
%ADD25R,0.847600X1.447600*%
%ADD26R,1.648460X2.346960*%
%ADD27R,0.847600X2.847600*%
%ADD28R,1.197600X0.247600*%
%ADD29R,1.247600X1.447600*%
%ADD30R,1.747600X1.747600*%
%ADD31R,0.847600X3.347600*%
%ADD32R,1.447600X3.247600*%
%ADD33R,0.747600X1.047600*%
%ADD34R,0.449200X0.549200*%
%ADD35R,1.547600X0.647600*%
%ADD36R,0.447600X1.347600*%
%ADD37R,1.597600X0.497600*%
%ADD38R,0.497600X1.597600*%
%ADD39R,0.577600X0.147600*%
%ADD40R,0.147600X0.577600*%
%ADD41R,0.597600X0.597600*%
%ADD42R,0.697600X0.147600*%
%ADD43R,0.497600X0.747600*%
%ADD44R,0.647700X0.647700*%
%ADD45R,1.752600X1.244600*%
%ADD46R,0.907600X0.497600*%
%ADD47R,1.247600X0.147600*%
G04 APERTURE END LIST*
D10*
D11*
X218948000Y-85979000D03*
D12*
X218811500Y-96243900D03*
D13*
X216648000Y-86004000D03*
D12*
X216211500Y-96243900D03*
D14*
X215171500Y-93643900D03*
X215171500Y-94743900D03*
X215171500Y-92543900D03*
X215171500Y-91443900D03*
X215171500Y-90343900D03*
X215171500Y-87043900D03*
X215171500Y-88143900D03*
X215171500Y-89243900D03*
D15*
X217798000Y-85779000D03*
D16*
X210083498Y-65422958D03*
X210083498Y-65922958D03*
X210083498Y-66422958D03*
X210083498Y-66922958D03*
X210083498Y-67422958D03*
X210083498Y-67922958D03*
X210083498Y-68422958D03*
X210083498Y-68922958D03*
X210083498Y-69422958D03*
X210083498Y-69922958D03*
X210083498Y-70422958D03*
X210083498Y-70922958D03*
D17*
X211683498Y-72522958D03*
X212183498Y-72522958D03*
X212683498Y-72522958D03*
X213183498Y-72522958D03*
X213683498Y-72522958D03*
X214183498Y-72522958D03*
X214683498Y-72522958D03*
X215183498Y-72522958D03*
X215683498Y-72522958D03*
X216183498Y-72522958D03*
X216683498Y-72522958D03*
X217183498Y-72522958D03*
D16*
X218783498Y-70922958D03*
X218783498Y-70422958D03*
X218783498Y-69922958D03*
X218783498Y-69422958D03*
X218783498Y-68922958D03*
X218783498Y-68422958D03*
X218783498Y-67922958D03*
X218783498Y-67422958D03*
X218783498Y-66922958D03*
X218783498Y-66422958D03*
X218783498Y-65922958D03*
X218783498Y-65422958D03*
D17*
X217183498Y-63822958D03*
X216683498Y-63822958D03*
X216183498Y-63822958D03*
X215683498Y-63822958D03*
X215183498Y-63822958D03*
X214683498Y-63822958D03*
X214183498Y-63822958D03*
X213683498Y-63822958D03*
X213183498Y-63822958D03*
X212683498Y-63822958D03*
X212183498Y-63822958D03*
X211683498Y-63822958D03*
D18*
X204927200Y-70077200D03*
X204927200Y-71577200D03*
D19*
X197444356Y-69493814D03*
X197444356Y-70763814D03*
X197444356Y-72033814D03*
X197444356Y-73303814D03*
X197444356Y-74573814D03*
X197444356Y-75843814D03*
X197444356Y-77113814D03*
X202844356Y-77113814D03*
X202844356Y-75843814D03*
X202844356Y-74573814D03*
X202844356Y-73303814D03*
X202844356Y-72033814D03*
X202844356Y-70763814D03*
X202844356Y-69493814D03*
D20*
X193596256Y-72897414D03*
X191596256Y-72897414D03*
D18*
X184454800Y-64223900D03*
X184454800Y-62723900D03*
D21*
X189061029Y-86915961D03*
X187561029Y-86915961D03*
D22*
X191261414Y-77231244D03*
X191261414Y-80231244D03*
X209296000Y-86233000D03*
X209296000Y-89233000D03*
D21*
X206671829Y-88996961D03*
X205171829Y-88996961D03*
D23*
X174835629Y-89027461D03*
X174835629Y-91027461D03*
D18*
X179501800Y-64768600D03*
X179501800Y-66268600D03*
D24*
X181978300Y-66116200D03*
X181978300Y-63116200D03*
D22*
X201038229Y-91686561D03*
X201038229Y-88686561D03*
D18*
X175539438Y-68486762D03*
X175539438Y-66986762D03*
D23*
X174835629Y-85201461D03*
X174835629Y-87201461D03*
D21*
X177888200Y-63157100D03*
X179388200Y-63157100D03*
D22*
X187785629Y-90800761D03*
X187785629Y-93800761D03*
D21*
X186067700Y-66179700D03*
X184567700Y-66179700D03*
D25*
X193099629Y-94091461D03*
X190099629Y-94091461D03*
D20*
X186824429Y-88846361D03*
X188824429Y-88846361D03*
D24*
X192615629Y-89035461D03*
X192615629Y-92035461D03*
X192615629Y-84209461D03*
X192615629Y-87209461D03*
D21*
X186322400Y-77622400D03*
X184822400Y-77622400D03*
D24*
X189326329Y-82214161D03*
X189326329Y-85214161D03*
D25*
X183773629Y-81645461D03*
X186773629Y-81645461D03*
D22*
X176867629Y-84947461D03*
X176867629Y-81947461D03*
D25*
X173843629Y-79613461D03*
X176843629Y-79613461D03*
D18*
X195374256Y-73251614D03*
X195374256Y-74751614D03*
D21*
X171202029Y-86395261D03*
X172702029Y-86395261D03*
X177507900Y-75806300D03*
X179007900Y-75806300D03*
D20*
X180867300Y-76060300D03*
X182867300Y-76060300D03*
D18*
X208838800Y-80376900D03*
X208838800Y-81876900D03*
D23*
X205587698Y-68206558D03*
X205587698Y-66206558D03*
D18*
X213817298Y-78310358D03*
X213817298Y-76810358D03*
X222758098Y-75235558D03*
X222758098Y-76735558D03*
X221005498Y-64403158D03*
X221005498Y-65903158D03*
X213156800Y-61417200D03*
X213156800Y-59917200D03*
D21*
X212356000Y-75031600D03*
X213856000Y-75031600D03*
D18*
X233984800Y-63398400D03*
X233984800Y-64898400D03*
X238781400Y-77091600D03*
X238781400Y-75591600D03*
D21*
X231118600Y-80236000D03*
X232618600Y-80236000D03*
D18*
X238781400Y-71705400D03*
X238781400Y-73205400D03*
D25*
X193574800Y-46888400D03*
X190574800Y-46888400D03*
X198687560Y-45821600D03*
X201687560Y-45821600D03*
D22*
X204477620Y-48643800D03*
X204477620Y-45643800D03*
D23*
X220844320Y-49803460D03*
X220844320Y-51803460D03*
D21*
X227084680Y-52590540D03*
X228584680Y-52590540D03*
X230323180Y-53581140D03*
X231823180Y-53581140D03*
D20*
X236321200Y-52214000D03*
X238321200Y-52214000D03*
X238121200Y-58214000D03*
X236121200Y-58214000D03*
D21*
X221258000Y-59080400D03*
X222758000Y-59080400D03*
D18*
X207513698Y-68016558D03*
X207513698Y-66516558D03*
D23*
X218609120Y-49838260D03*
X218609120Y-51838260D03*
D24*
X235898480Y-48526540D03*
X235898480Y-45526540D03*
X232088480Y-48526540D03*
X232088480Y-45526540D03*
X228278480Y-48526540D03*
X228278480Y-45526540D03*
D26*
X191668400Y-49936400D03*
X191668400Y-53934360D03*
D18*
X175468880Y-53872620D03*
X175468880Y-52372620D03*
X175448880Y-57412620D03*
X175448880Y-58912620D03*
D26*
X187121800Y-44871640D03*
X187121800Y-48869600D03*
D27*
X187415200Y-53670200D03*
X182815200Y-53670200D03*
D28*
X172347398Y-55185918D03*
X172347398Y-55835918D03*
X172347398Y-56485018D03*
X172347398Y-57135918D03*
X172347398Y-57785918D03*
D29*
X172122398Y-53285918D03*
D30*
X169672398Y-55285918D03*
X169672398Y-57685918D03*
D29*
X172122398Y-59685918D03*
D31*
X212712760Y-51153320D03*
X210712760Y-51153320D03*
D32*
X215112760Y-45603320D03*
X208312760Y-45603320D03*
D23*
X177952400Y-60883800D03*
X177952400Y-58883800D03*
D33*
X225564480Y-45961140D03*
X222864480Y-45961140D03*
D20*
X211397600Y-77419200D03*
X209397600Y-77419200D03*
D23*
X203200000Y-67074800D03*
X203200000Y-65074800D03*
D21*
X196654420Y-59042300D03*
X195154420Y-59042300D03*
X196654420Y-57274460D03*
X195154420Y-57274460D03*
X196654420Y-55450740D03*
X195154420Y-55450740D03*
X237847000Y-90233500D03*
X236347000Y-90233500D03*
X203771829Y-86956961D03*
X205271829Y-86956961D03*
D18*
X176867629Y-87511461D03*
X176867629Y-89011461D03*
X176867629Y-90801461D03*
X176867629Y-92301461D03*
X177812700Y-66244600D03*
X177812700Y-64744600D03*
X175552100Y-70178800D03*
X175552100Y-71678800D03*
D21*
X179891629Y-93583461D03*
X178391629Y-93583461D03*
D18*
X175031400Y-63538100D03*
X175031400Y-65038100D03*
D21*
X183120737Y-93583461D03*
X181620737Y-93583461D03*
D18*
X186143900Y-64211900D03*
X186143900Y-62711900D03*
X190035629Y-91945461D03*
X190035629Y-90445461D03*
D21*
X189256800Y-69138800D03*
X187756800Y-69138800D03*
X186272300Y-75857100D03*
X184772300Y-75857100D03*
D18*
X186773629Y-83701461D03*
X186773629Y-85201461D03*
D21*
X181923629Y-81899461D03*
X180423629Y-81899461D03*
X192821556Y-70954314D03*
X191321556Y-70954314D03*
X191387600Y-67259200D03*
X192887600Y-67259200D03*
D20*
X191669156Y-75056414D03*
X193669156Y-75056414D03*
D23*
X193725214Y-77751944D03*
X193725214Y-79751944D03*
D21*
X192897756Y-69214414D03*
X191397756Y-69214414D03*
X173311629Y-83423461D03*
X174811629Y-83423461D03*
D18*
X195361556Y-69238414D03*
X195361556Y-70738414D03*
D21*
X173311629Y-81645461D03*
X174811629Y-81645461D03*
D18*
X206756000Y-71553200D03*
X206756000Y-70053200D03*
D21*
X173716571Y-77434739D03*
X172216571Y-77434739D03*
X173779371Y-75682139D03*
X172279371Y-75682139D03*
D18*
X175552100Y-73366500D03*
X175552100Y-74866500D03*
D21*
X221260298Y-60785358D03*
X222760298Y-60785358D03*
D18*
X213004400Y-57912000D03*
X213004400Y-56412000D03*
D21*
X222758000Y-57404000D03*
X221258000Y-57404000D03*
D18*
X221291368Y-72661658D03*
X221291368Y-71161658D03*
X223069368Y-72661658D03*
X223069368Y-71161658D03*
X224840800Y-72656000D03*
X224840800Y-74156000D03*
D21*
X224768600Y-80236000D03*
X226268600Y-80236000D03*
X190727200Y-44704000D03*
X192227200Y-44704000D03*
X199170860Y-59011820D03*
X200670860Y-59011820D03*
X199176640Y-57266840D03*
X200676640Y-57266840D03*
X199154920Y-55450740D03*
X200654920Y-55450740D03*
D34*
X197144640Y-50393600D03*
X197144640Y-51493600D03*
D18*
X205854300Y-50980340D03*
X205854300Y-52480340D03*
X204030580Y-50984720D03*
X204030580Y-52484720D03*
D21*
X233537680Y-50456940D03*
X232037680Y-50456940D03*
D18*
X230412080Y-50430140D03*
X230412080Y-51930140D03*
X233434680Y-52093840D03*
X233434680Y-53593840D03*
D35*
X226161600Y-57454800D03*
X226161600Y-60854800D03*
D19*
X184710737Y-91555235D03*
X184710737Y-90285235D03*
X184710737Y-89015235D03*
X184710737Y-87745235D03*
X184710737Y-86475235D03*
X184710737Y-85205235D03*
X184710737Y-83935235D03*
X179310737Y-83935235D03*
X179310737Y-85205235D03*
X179310737Y-86475235D03*
X179310737Y-87745235D03*
X179310737Y-89015235D03*
X179310737Y-90285235D03*
X179310737Y-91555235D03*
D36*
X177558700Y-73698100D03*
X178828700Y-73698100D03*
X180098700Y-73698100D03*
X181368700Y-73698100D03*
X182638700Y-73698100D03*
X183908700Y-73698100D03*
X185178700Y-73698100D03*
X185178700Y-68298100D03*
X183908700Y-68298100D03*
X182638700Y-68298100D03*
X181368700Y-68298100D03*
X180098700Y-68298100D03*
X178828700Y-68298100D03*
X177558700Y-68298100D03*
D37*
X225749200Y-63627000D03*
X225749200Y-64897000D03*
X225749200Y-66167000D03*
X225749200Y-67437000D03*
X231349200Y-67437000D03*
X231349200Y-66167000D03*
X231349200Y-64897000D03*
X231349200Y-63627000D03*
D38*
X231140000Y-70910800D03*
X229870000Y-70910800D03*
X228600000Y-70910800D03*
X227330000Y-70910800D03*
X227330000Y-76510800D03*
X228600000Y-76510800D03*
X229870000Y-76510800D03*
X231140000Y-76510800D03*
D39*
X198516740Y-48762820D03*
X198516740Y-49262820D03*
X198516740Y-49762820D03*
X198516740Y-50262820D03*
X198516740Y-50762820D03*
D40*
X199481740Y-51727820D03*
X199981740Y-51727820D03*
X200481740Y-51727820D03*
X200981740Y-51727820D03*
X201481740Y-51727820D03*
D39*
X202446740Y-50762820D03*
X202446740Y-50262820D03*
X202446740Y-49762820D03*
X202446740Y-49262820D03*
X202446740Y-48762820D03*
D40*
X201481740Y-47797820D03*
X200981740Y-47797820D03*
X200481740Y-47797820D03*
X199981740Y-47797820D03*
X199481740Y-47797820D03*
D41*
X201106740Y-50387820D03*
X201106740Y-49137820D03*
X199856740Y-50387820D03*
X199856740Y-49137820D03*
D42*
X222741280Y-49517140D03*
X222741280Y-50017140D03*
X222741280Y-50517140D03*
X222741280Y-51017140D03*
X222741280Y-51517140D03*
X225591280Y-51517140D03*
X225591280Y-51017140D03*
X225591280Y-50517140D03*
X225591280Y-50017140D03*
X225591280Y-49517140D03*
D43*
X224547280Y-51152140D03*
X224547280Y-49882140D03*
X223785280Y-49882140D03*
X223785280Y-51152140D03*
D44*
X236171200Y-56212980D03*
X238071200Y-56212980D03*
X237121200Y-54214000D03*
D45*
X220485898Y-75589158D03*
X216015498Y-75589158D03*
X220485898Y-78078358D03*
X216015498Y-78078358D03*
D46*
X204256937Y-90596735D03*
X204256937Y-91546735D03*
X204256937Y-92496735D03*
X206456937Y-92496735D03*
X206456937Y-90596735D03*
D47*
X202117600Y-79911700D03*
X202117600Y-80411700D03*
X202117600Y-80911700D03*
X202117600Y-81411700D03*
X202117600Y-81911700D03*
X206517600Y-81911700D03*
X206517600Y-81411700D03*
X206517600Y-80911700D03*
X206517600Y-80411700D03*
X206517600Y-79911700D03*
D23*
X215138000Y-61385200D03*
X215138000Y-59385200D03*
D24*
X188518800Y-70839200D03*
X188518800Y-73839200D03*
X188734700Y-62788800D03*
X188734700Y-65788800D03*
D20*
X212058000Y-92913200D03*
X210058000Y-92913200D03*
M02*
