%TF.GenerationSoftware,KiCad,Pcbnew,4.0.7-e2-6376~58~ubuntu16.04.1*%
%TF.CreationDate,2017-09-24T11:29:09-07:00*%
%TF.ProjectId,mcphail-main-board,6D63706861696C2D6D61696E2D626F61,v1.1*%
%TF.FileFunction,Legend,Bot*%
%FSLAX46Y46*%
G04 Gerber Fmt 4.6, Leading zero omitted, Abs format (unit mm)*
G04 Created by KiCad (PCBNEW 4.0.7-e2-6376~58~ubuntu16.04.1) date Sun Sep 24 11:29:09 2017*
%MOMM*%
%LPD*%
G01*
G04 APERTURE LIST*
%ADD10C,0.350000*%
%ADD11C,0.203200*%
%ADD12C,0.254000*%
%ADD13C,0.152400*%
%ADD14C,0.150000*%
%ADD15C,1.676400*%
%ADD16R,2.184400X1.879600*%
%ADD17O,2.184400X1.879600*%
%ADD18C,1.752400*%
%ADD19C,1.879600*%
%ADD20R,2.652400X5.252400*%
%ADD21C,10.352400*%
%ADD22R,2.184400X2.184400*%
%ADD23O,2.184400X2.184400*%
%ADD24C,1.352400*%
%ADD25C,4.152400*%
%ADD26R,1.879600X1.879600*%
%ADD27O,1.879600X1.879600*%
G04 APERTURE END LIST*
D10*
D11*
X46078018Y-95866857D02*
X46078018Y-96955429D01*
X46138494Y-97076381D01*
X46259447Y-97136857D01*
X46319923Y-97136857D01*
X46078018Y-95443524D02*
X46138494Y-95504000D01*
X46078018Y-95564476D01*
X46017542Y-95504000D01*
X46078018Y-95443524D01*
X46078018Y-95564476D01*
X44989447Y-96653048D02*
X45110399Y-96713524D01*
X45352304Y-96713524D01*
X45473256Y-96653048D01*
X45533732Y-96532095D01*
X45533732Y-96048286D01*
X45473256Y-95927333D01*
X45352304Y-95866857D01*
X45110399Y-95866857D01*
X44989447Y-95927333D01*
X44928970Y-96048286D01*
X44928970Y-96169238D01*
X45533732Y-96290190D01*
X44384685Y-95866857D02*
X44384685Y-96713524D01*
X44384685Y-95987810D02*
X44324209Y-95927333D01*
X44203256Y-95866857D01*
X44021828Y-95866857D01*
X43900876Y-95927333D01*
X43840399Y-96048286D01*
X43840399Y-96713524D01*
X43235637Y-95866857D02*
X43235637Y-96713524D01*
X43235637Y-95987810D02*
X43175161Y-95927333D01*
X43054208Y-95866857D01*
X42872780Y-95866857D01*
X42751828Y-95927333D01*
X42691351Y-96048286D01*
X42691351Y-96713524D01*
X41602780Y-96653048D02*
X41723732Y-96713524D01*
X41965637Y-96713524D01*
X42086589Y-96653048D01*
X42147065Y-96532095D01*
X42147065Y-96048286D01*
X42086589Y-95927333D01*
X41965637Y-95866857D01*
X41723732Y-95866857D01*
X41602780Y-95927333D01*
X41542303Y-96048286D01*
X41542303Y-96169238D01*
X42147065Y-96290190D01*
X40998018Y-96713524D02*
X40998018Y-95866857D01*
X40998018Y-96108762D02*
X40937542Y-95987810D01*
X40877066Y-95927333D01*
X40756113Y-95866857D01*
X40635161Y-95866857D01*
X39425638Y-96108762D02*
X39486114Y-96048286D01*
X39607066Y-95987810D01*
X39728019Y-95987810D01*
X39848971Y-96048286D01*
X39909447Y-96108762D01*
X39969923Y-96229714D01*
X39969923Y-96350667D01*
X39909447Y-96471619D01*
X39848971Y-96532095D01*
X39728019Y-96592571D01*
X39607066Y-96592571D01*
X39486114Y-96532095D01*
X39425638Y-96471619D01*
X39425638Y-95987810D02*
X39425638Y-96471619D01*
X39365161Y-96532095D01*
X39304685Y-96532095D01*
X39183733Y-96471619D01*
X39123257Y-96350667D01*
X39123257Y-96048286D01*
X39244209Y-95866857D01*
X39425638Y-95745905D01*
X39667542Y-95685429D01*
X39909447Y-95745905D01*
X40090876Y-95866857D01*
X40211828Y-96048286D01*
X40272304Y-96290190D01*
X40211828Y-96532095D01*
X40090876Y-96713524D01*
X39909447Y-96834476D01*
X39667542Y-96894952D01*
X39425638Y-96834476D01*
X39244209Y-96713524D01*
X38699923Y-95866857D02*
X38458019Y-96713524D01*
X38216114Y-96108762D01*
X37974209Y-96713524D01*
X37732304Y-95866857D01*
X37248495Y-96713524D02*
X37248495Y-95866857D01*
X37248495Y-95443524D02*
X37308971Y-95504000D01*
X37248495Y-95564476D01*
X37188019Y-95504000D01*
X37248495Y-95443524D01*
X37248495Y-95564476D01*
X36099447Y-96653048D02*
X36220400Y-96713524D01*
X36462304Y-96713524D01*
X36583257Y-96653048D01*
X36643733Y-96592571D01*
X36704209Y-96471619D01*
X36704209Y-96108762D01*
X36643733Y-95987810D01*
X36583257Y-95927333D01*
X36462304Y-95866857D01*
X36220400Y-95866857D01*
X36099447Y-95927333D01*
X35555162Y-96713524D02*
X35555162Y-95443524D01*
X35434210Y-96229714D02*
X35071353Y-96713524D01*
X35071353Y-95866857D02*
X35555162Y-96350667D01*
X34043258Y-96653048D02*
X34164210Y-96713524D01*
X34406115Y-96713524D01*
X34527067Y-96653048D01*
X34587543Y-96532095D01*
X34587543Y-96048286D01*
X34527067Y-95927333D01*
X34406115Y-95866857D01*
X34164210Y-95866857D01*
X34043258Y-95927333D01*
X33982781Y-96048286D01*
X33982781Y-96169238D01*
X34587543Y-96290190D01*
X33438496Y-96713524D02*
X33438496Y-95866857D01*
X33438496Y-96108762D02*
X33378020Y-95987810D01*
X33317544Y-95927333D01*
X33196591Y-95866857D01*
X33075639Y-95866857D01*
X32652306Y-96713524D02*
X32652306Y-95443524D01*
X32652306Y-95927333D02*
X32531354Y-95866857D01*
X32289449Y-95866857D01*
X32168497Y-95927333D01*
X32108020Y-95987810D01*
X32047544Y-96108762D01*
X32047544Y-96471619D01*
X32108020Y-96592571D01*
X32168497Y-96653048D01*
X32289449Y-96713524D01*
X32531354Y-96713524D01*
X32652306Y-96653048D01*
X31321829Y-96713524D02*
X31442782Y-96653048D01*
X31503258Y-96592571D01*
X31563734Y-96471619D01*
X31563734Y-96108762D01*
X31503258Y-95987810D01*
X31442782Y-95927333D01*
X31321829Y-95866857D01*
X31140401Y-95866857D01*
X31019449Y-95927333D01*
X30958972Y-95987810D01*
X30898496Y-96108762D01*
X30898496Y-96471619D01*
X30958972Y-96592571D01*
X31019449Y-96653048D01*
X31140401Y-96713524D01*
X31321829Y-96713524D01*
X30475162Y-96713524D02*
X29809924Y-95866857D01*
X30475162Y-95866857D02*
X29809924Y-96713524D01*
X29326115Y-96592571D02*
X29265639Y-96653048D01*
X29326115Y-96713524D01*
X29386591Y-96653048D01*
X29326115Y-96592571D01*
X29326115Y-96713524D01*
X28721353Y-95866857D02*
X28721353Y-96713524D01*
X28721353Y-95987810D02*
X28660877Y-95927333D01*
X28539924Y-95866857D01*
X28358496Y-95866857D01*
X28237544Y-95927333D01*
X28177067Y-96048286D01*
X28177067Y-96713524D01*
X27088496Y-96653048D02*
X27209448Y-96713524D01*
X27451353Y-96713524D01*
X27572305Y-96653048D01*
X27632781Y-96532095D01*
X27632781Y-96048286D01*
X27572305Y-95927333D01*
X27451353Y-95866857D01*
X27209448Y-95866857D01*
X27088496Y-95927333D01*
X27028019Y-96048286D01*
X27028019Y-96169238D01*
X27632781Y-96290190D01*
X26665163Y-95866857D02*
X26181353Y-95866857D01*
X26483734Y-95443524D02*
X26483734Y-96532095D01*
X26423258Y-96653048D01*
X26302305Y-96713524D01*
X26181353Y-96713524D01*
D12*
X100500543Y-46206229D02*
X100500543Y-44682229D01*
X99992543Y-45770800D01*
X99484543Y-44682229D01*
X99484543Y-46206229D01*
X98105686Y-46133657D02*
X98250829Y-46206229D01*
X98541115Y-46206229D01*
X98686257Y-46133657D01*
X98758829Y-46061086D01*
X98831400Y-45915943D01*
X98831400Y-45480514D01*
X98758829Y-45335371D01*
X98686257Y-45262800D01*
X98541115Y-45190229D01*
X98250829Y-45190229D01*
X98105686Y-45262800D01*
X97452543Y-46206229D02*
X97452543Y-44682229D01*
X96871971Y-44682229D01*
X96726829Y-44754800D01*
X96654257Y-44827371D01*
X96581686Y-44972514D01*
X96581686Y-45190229D01*
X96654257Y-45335371D01*
X96726829Y-45407943D01*
X96871971Y-45480514D01*
X97452543Y-45480514D01*
X95928543Y-46206229D02*
X95928543Y-44682229D01*
X95275400Y-46206229D02*
X95275400Y-45407943D01*
X95347971Y-45262800D01*
X95493114Y-45190229D01*
X95710829Y-45190229D01*
X95855971Y-45262800D01*
X95928543Y-45335371D01*
X93896543Y-46206229D02*
X93896543Y-45407943D01*
X93969114Y-45262800D01*
X94114257Y-45190229D01*
X94404543Y-45190229D01*
X94549686Y-45262800D01*
X93896543Y-46133657D02*
X94041686Y-46206229D01*
X94404543Y-46206229D01*
X94549686Y-46133657D01*
X94622257Y-45988514D01*
X94622257Y-45843371D01*
X94549686Y-45698229D01*
X94404543Y-45625657D01*
X94041686Y-45625657D01*
X93896543Y-45553086D01*
X93170829Y-46206229D02*
X93170829Y-45190229D01*
X93170829Y-44682229D02*
X93243400Y-44754800D01*
X93170829Y-44827371D01*
X93098257Y-44754800D01*
X93170829Y-44682229D01*
X93170829Y-44827371D01*
X92227401Y-46206229D02*
X92372543Y-46133657D01*
X92445115Y-45988514D01*
X92445115Y-44682229D01*
X90703400Y-44682229D02*
X89832543Y-44682229D01*
X90267972Y-46206229D02*
X90267972Y-44682229D01*
X89324543Y-46206229D02*
X89324543Y-45190229D01*
X89324543Y-45480514D02*
X89251971Y-45335371D01*
X89179400Y-45262800D01*
X89034257Y-45190229D01*
X88889114Y-45190229D01*
X87727971Y-46206229D02*
X87727971Y-45407943D01*
X87800542Y-45262800D01*
X87945685Y-45190229D01*
X88235971Y-45190229D01*
X88381114Y-45262800D01*
X87727971Y-46133657D02*
X87873114Y-46206229D01*
X88235971Y-46206229D01*
X88381114Y-46133657D01*
X88453685Y-45988514D01*
X88453685Y-45843371D01*
X88381114Y-45698229D01*
X88235971Y-45625657D01*
X87873114Y-45625657D01*
X87727971Y-45553086D01*
X87002257Y-45190229D02*
X87002257Y-46714229D01*
X87002257Y-45262800D02*
X86857114Y-45190229D01*
X86566828Y-45190229D01*
X86421685Y-45262800D01*
X86349114Y-45335371D01*
X86276543Y-45480514D01*
X86276543Y-45915943D01*
X86349114Y-46061086D01*
X86421685Y-46133657D01*
X86566828Y-46206229D01*
X86857114Y-46206229D01*
X87002257Y-46133657D01*
X84462257Y-46206229D02*
X84462257Y-44682229D01*
X83954257Y-45770800D01*
X83446257Y-44682229D01*
X83446257Y-46206229D01*
X82067400Y-46206229D02*
X82067400Y-45407943D01*
X82139971Y-45262800D01*
X82285114Y-45190229D01*
X82575400Y-45190229D01*
X82720543Y-45262800D01*
X82067400Y-46133657D02*
X82212543Y-46206229D01*
X82575400Y-46206229D01*
X82720543Y-46133657D01*
X82793114Y-45988514D01*
X82793114Y-45843371D01*
X82720543Y-45698229D01*
X82575400Y-45625657D01*
X82212543Y-45625657D01*
X82067400Y-45553086D01*
X81341686Y-46206229D02*
X81341686Y-45190229D01*
X81341686Y-44682229D02*
X81414257Y-44754800D01*
X81341686Y-44827371D01*
X81269114Y-44754800D01*
X81341686Y-44682229D01*
X81341686Y-44827371D01*
X80615972Y-45190229D02*
X80615972Y-46206229D01*
X80615972Y-45335371D02*
X80543400Y-45262800D01*
X80398258Y-45190229D01*
X80180543Y-45190229D01*
X80035400Y-45262800D01*
X79962829Y-45407943D01*
X79962829Y-46206229D01*
X77567972Y-45407943D02*
X77350258Y-45480514D01*
X77277686Y-45553086D01*
X77205115Y-45698229D01*
X77205115Y-45915943D01*
X77277686Y-46061086D01*
X77350258Y-46133657D01*
X77495400Y-46206229D01*
X78075972Y-46206229D01*
X78075972Y-44682229D01*
X77567972Y-44682229D01*
X77422829Y-44754800D01*
X77350258Y-44827371D01*
X77277686Y-44972514D01*
X77277686Y-45117657D01*
X77350258Y-45262800D01*
X77422829Y-45335371D01*
X77567972Y-45407943D01*
X78075972Y-45407943D01*
X76334258Y-46206229D02*
X76479400Y-46133657D01*
X76551972Y-46061086D01*
X76624543Y-45915943D01*
X76624543Y-45480514D01*
X76551972Y-45335371D01*
X76479400Y-45262800D01*
X76334258Y-45190229D01*
X76116543Y-45190229D01*
X75971400Y-45262800D01*
X75898829Y-45335371D01*
X75826258Y-45480514D01*
X75826258Y-45915943D01*
X75898829Y-46061086D01*
X75971400Y-46133657D01*
X76116543Y-46206229D01*
X76334258Y-46206229D01*
X74519972Y-46206229D02*
X74519972Y-45407943D01*
X74592543Y-45262800D01*
X74737686Y-45190229D01*
X75027972Y-45190229D01*
X75173115Y-45262800D01*
X74519972Y-46133657D02*
X74665115Y-46206229D01*
X75027972Y-46206229D01*
X75173115Y-46133657D01*
X75245686Y-45988514D01*
X75245686Y-45843371D01*
X75173115Y-45698229D01*
X75027972Y-45625657D01*
X74665115Y-45625657D01*
X74519972Y-45553086D01*
X73794258Y-46206229D02*
X73794258Y-45190229D01*
X73794258Y-45480514D02*
X73721686Y-45335371D01*
X73649115Y-45262800D01*
X73503972Y-45190229D01*
X73358829Y-45190229D01*
X72197686Y-46206229D02*
X72197686Y-44682229D01*
X72197686Y-46133657D02*
X72342829Y-46206229D01*
X72633115Y-46206229D01*
X72778257Y-46133657D01*
X72850829Y-46061086D01*
X72923400Y-45915943D01*
X72923400Y-45480514D01*
X72850829Y-45335371D01*
X72778257Y-45262800D01*
X72633115Y-45190229D01*
X72342829Y-45190229D01*
X72197686Y-45262800D01*
X70455972Y-45190229D02*
X70093115Y-46206229D01*
X69730257Y-45190229D01*
X68351400Y-46206229D02*
X69222257Y-46206229D01*
X68786829Y-46206229D02*
X68786829Y-44682229D01*
X68931972Y-44899943D01*
X69077114Y-45045086D01*
X69222257Y-45117657D01*
X67698257Y-46061086D02*
X67625685Y-46133657D01*
X67698257Y-46206229D01*
X67770828Y-46133657D01*
X67698257Y-46061086D01*
X67698257Y-46206229D01*
X66174257Y-46206229D02*
X67045114Y-46206229D01*
X66609686Y-46206229D02*
X66609686Y-44682229D01*
X66754829Y-44899943D01*
X66899971Y-45045086D01*
X67045114Y-45117657D01*
X100500543Y-48746229D02*
X100500543Y-47222229D01*
X99629686Y-48746229D02*
X100282829Y-47875371D01*
X99629686Y-47222229D02*
X100500543Y-48093086D01*
X99121686Y-47730229D02*
X98758829Y-48746229D01*
X98395971Y-47730229D02*
X98758829Y-48746229D01*
X98903971Y-49109086D01*
X98976543Y-49181657D01*
X99121686Y-49254229D01*
X97597686Y-48746229D02*
X97742828Y-48673657D01*
X97815400Y-48528514D01*
X97815400Y-47222229D01*
X96436542Y-48673657D02*
X96581685Y-48746229D01*
X96871971Y-48746229D01*
X97017114Y-48673657D01*
X97089685Y-48528514D01*
X97089685Y-47947943D01*
X97017114Y-47802800D01*
X96871971Y-47730229D01*
X96581685Y-47730229D01*
X96436542Y-47802800D01*
X96363971Y-47947943D01*
X96363971Y-48093086D01*
X97089685Y-48238229D01*
X94041685Y-47947943D02*
X93823971Y-48020514D01*
X93751399Y-48093086D01*
X93678828Y-48238229D01*
X93678828Y-48455943D01*
X93751399Y-48601086D01*
X93823971Y-48673657D01*
X93969113Y-48746229D01*
X94549685Y-48746229D01*
X94549685Y-47222229D01*
X94041685Y-47222229D01*
X93896542Y-47294800D01*
X93823971Y-47367371D01*
X93751399Y-47512514D01*
X93751399Y-47657657D01*
X93823971Y-47802800D01*
X93896542Y-47875371D01*
X94041685Y-47947943D01*
X94549685Y-47947943D01*
X93025685Y-48746229D02*
X93025685Y-47730229D01*
X93025685Y-47222229D02*
X93098256Y-47294800D01*
X93025685Y-47367371D01*
X92953113Y-47294800D01*
X93025685Y-47222229D01*
X93025685Y-47367371D01*
X92299971Y-48746229D02*
X92299971Y-47730229D01*
X92299971Y-48020514D02*
X92227399Y-47875371D01*
X92154828Y-47802800D01*
X92009685Y-47730229D01*
X91864542Y-47730229D01*
X90703399Y-48673657D02*
X90848542Y-48746229D01*
X91138828Y-48746229D01*
X91283970Y-48673657D01*
X91356542Y-48601086D01*
X91429113Y-48455943D01*
X91429113Y-48020514D01*
X91356542Y-47875371D01*
X91283970Y-47802800D01*
X91138828Y-47730229D01*
X90848542Y-47730229D01*
X90703399Y-47802800D01*
X90050256Y-48746229D02*
X90050256Y-47222229D01*
X89397113Y-48746229D02*
X89397113Y-47947943D01*
X89469684Y-47802800D01*
X89614827Y-47730229D01*
X89832542Y-47730229D01*
X89977684Y-47802800D01*
X90050256Y-47875371D01*
X88018256Y-48746229D02*
X88018256Y-47947943D01*
X88090827Y-47802800D01*
X88235970Y-47730229D01*
X88526256Y-47730229D01*
X88671399Y-47802800D01*
X88018256Y-48673657D02*
X88163399Y-48746229D01*
X88526256Y-48746229D01*
X88671399Y-48673657D01*
X88743970Y-48528514D01*
X88743970Y-48383371D01*
X88671399Y-48238229D01*
X88526256Y-48165657D01*
X88163399Y-48165657D01*
X88018256Y-48093086D01*
X87292542Y-48746229D02*
X87292542Y-47730229D01*
X87292542Y-48020514D02*
X87219970Y-47875371D01*
X87147399Y-47802800D01*
X87002256Y-47730229D01*
X86857113Y-47730229D01*
X85695970Y-48746229D02*
X85695970Y-47222229D01*
X85695970Y-48673657D02*
X85841113Y-48746229D01*
X86131399Y-48746229D01*
X86276541Y-48673657D01*
X86349113Y-48601086D01*
X86421684Y-48455943D01*
X86421684Y-48020514D01*
X86349113Y-47875371D01*
X86276541Y-47802800D01*
X86131399Y-47730229D01*
X85841113Y-47730229D01*
X85695970Y-47802800D01*
X83155970Y-48746229D02*
X83155970Y-47947943D01*
X83228541Y-47802800D01*
X83373684Y-47730229D01*
X83663970Y-47730229D01*
X83809113Y-47802800D01*
X83155970Y-48673657D02*
X83301113Y-48746229D01*
X83663970Y-48746229D01*
X83809113Y-48673657D01*
X83881684Y-48528514D01*
X83881684Y-48383371D01*
X83809113Y-48238229D01*
X83663970Y-48165657D01*
X83301113Y-48165657D01*
X83155970Y-48093086D01*
X82430256Y-47730229D02*
X82430256Y-48746229D01*
X82430256Y-47875371D02*
X82357684Y-47802800D01*
X82212542Y-47730229D01*
X81994827Y-47730229D01*
X81849684Y-47802800D01*
X81777113Y-47947943D01*
X81777113Y-48746229D01*
X80398256Y-48746229D02*
X80398256Y-47222229D01*
X80398256Y-48673657D02*
X80543399Y-48746229D01*
X80833685Y-48746229D01*
X80978827Y-48673657D01*
X81051399Y-48601086D01*
X81123970Y-48455943D01*
X81123970Y-48020514D01*
X81051399Y-47875371D01*
X80978827Y-47802800D01*
X80833685Y-47730229D01*
X80543399Y-47730229D01*
X80398256Y-47802800D01*
X78075970Y-47222229D02*
X78075970Y-48310800D01*
X78148542Y-48528514D01*
X78293685Y-48673657D01*
X78511399Y-48746229D01*
X78656542Y-48746229D01*
X76769684Y-48673657D02*
X76914827Y-48746229D01*
X77205113Y-48746229D01*
X77350256Y-48673657D01*
X77422827Y-48528514D01*
X77422827Y-47947943D01*
X77350256Y-47802800D01*
X77205113Y-47730229D01*
X76914827Y-47730229D01*
X76769684Y-47802800D01*
X76697113Y-47947943D01*
X76697113Y-48093086D01*
X77422827Y-48238229D01*
X76043970Y-47730229D02*
X76043970Y-48746229D01*
X76043970Y-47875371D02*
X75971398Y-47802800D01*
X75826256Y-47730229D01*
X75608541Y-47730229D01*
X75463398Y-47802800D01*
X75390827Y-47947943D01*
X75390827Y-48746229D01*
X74665113Y-47730229D02*
X74665113Y-48746229D01*
X74665113Y-47875371D02*
X74592541Y-47802800D01*
X74447399Y-47730229D01*
X74229684Y-47730229D01*
X74084541Y-47802800D01*
X74011970Y-47947943D01*
X74011970Y-48746229D01*
X72705684Y-48673657D02*
X72850827Y-48746229D01*
X73141113Y-48746229D01*
X73286256Y-48673657D01*
X73358827Y-48528514D01*
X73358827Y-47947943D01*
X73286256Y-47802800D01*
X73141113Y-47730229D01*
X72850827Y-47730229D01*
X72705684Y-47802800D01*
X72633113Y-47947943D01*
X72633113Y-48093086D01*
X73358827Y-48238229D01*
X71979970Y-48746229D02*
X71979970Y-47730229D01*
X71979970Y-48020514D02*
X71907398Y-47875371D01*
X71834827Y-47802800D01*
X71689684Y-47730229D01*
X71544541Y-47730229D01*
X69875398Y-48746229D02*
X69875398Y-47222229D01*
X69875398Y-47947943D02*
X69004541Y-47947943D01*
X69004541Y-48746229D02*
X69004541Y-47222229D01*
X67625684Y-48746229D02*
X67625684Y-47947943D01*
X67698255Y-47802800D01*
X67843398Y-47730229D01*
X68133684Y-47730229D01*
X68278827Y-47802800D01*
X67625684Y-48673657D02*
X67770827Y-48746229D01*
X68133684Y-48746229D01*
X68278827Y-48673657D01*
X68351398Y-48528514D01*
X68351398Y-48383371D01*
X68278827Y-48238229D01*
X68133684Y-48165657D01*
X67770827Y-48165657D01*
X67625684Y-48093086D01*
X66899970Y-47730229D02*
X66899970Y-48746229D01*
X66899970Y-47875371D02*
X66827398Y-47802800D01*
X66682256Y-47730229D01*
X66464541Y-47730229D01*
X66319398Y-47802800D01*
X66246827Y-47947943D01*
X66246827Y-48746229D01*
X65521113Y-47730229D02*
X65521113Y-48746229D01*
X65521113Y-47875371D02*
X65448541Y-47802800D01*
X65303399Y-47730229D01*
X65085684Y-47730229D01*
X64940541Y-47802800D01*
X64867970Y-47947943D01*
X64867970Y-48746229D01*
X64142256Y-48746229D02*
X64142256Y-47730229D01*
X64142256Y-47222229D02*
X64214827Y-47294800D01*
X64142256Y-47367371D01*
X64069684Y-47294800D01*
X64142256Y-47222229D01*
X64142256Y-47367371D01*
D13*
X73911000Y-92257000D02*
X73911000Y-90757000D01*
X77161000Y-92257000D02*
X73911000Y-92257000D01*
X89661000Y-92257000D02*
X89661000Y-90757000D01*
X89411000Y-92257000D02*
X89661000Y-92257000D01*
X86161000Y-92257000D02*
X89411000Y-92257000D01*
X86125494Y-92290387D02*
G75*
G02X77161000Y-92257000I-4464494J4783387D01*
G01*
X77446506Y-83223613D02*
G75*
G02X86411000Y-83257000I4464494J-4783387D01*
G01*
X77411000Y-83257000D02*
X74161000Y-83257000D01*
X74161000Y-83257000D02*
X73911000Y-83257000D01*
X73911000Y-83257000D02*
X73911000Y-84757000D01*
X86411000Y-83257000D02*
X89661000Y-83257000D01*
X89661000Y-83257000D02*
X89661000Y-84757000D01*
D14*
X76625285Y-93435571D02*
X76482428Y-93483190D01*
X76434809Y-93530810D01*
X76387190Y-93626048D01*
X76387190Y-93768905D01*
X76434809Y-93864143D01*
X76482428Y-93911762D01*
X76577666Y-93959381D01*
X76958619Y-93959381D01*
X76958619Y-92959381D01*
X76625285Y-92959381D01*
X76530047Y-93007000D01*
X76482428Y-93054619D01*
X76434809Y-93149857D01*
X76434809Y-93245095D01*
X76482428Y-93340333D01*
X76530047Y-93387952D01*
X76625285Y-93435571D01*
X76958619Y-93435571D01*
X76006238Y-93673667D02*
X75530047Y-93673667D01*
X76101476Y-93959381D02*
X75768143Y-92959381D01*
X75434809Y-93959381D01*
X75244333Y-92959381D02*
X74672904Y-92959381D01*
X74958619Y-93959381D02*
X74958619Y-92959381D01*
X73815761Y-93959381D02*
X74387190Y-93959381D01*
X74101476Y-93959381D02*
X74101476Y-92959381D01*
X74196714Y-93102238D01*
X74291952Y-93197476D01*
X74387190Y-93245095D01*
%LPC*%
D15*
X100126800Y-53111400D03*
X100126800Y-55651400D03*
X100126800Y-58191400D03*
X100126800Y-60731400D03*
X100126800Y-63271400D03*
X100126800Y-65811400D03*
X100126800Y-68351400D03*
X100126800Y-70891400D03*
X100126800Y-73431400D03*
X100126800Y-75971400D03*
X100126800Y-78511400D03*
X100126800Y-81051400D03*
X100126800Y-83591400D03*
X100126800Y-86131400D03*
X100126800Y-88671400D03*
X100126800Y-91211400D03*
D16*
X52730400Y-93865700D03*
D17*
X52730400Y-91325700D03*
X52730400Y-88785700D03*
X52730400Y-86245700D03*
X52730400Y-83705700D03*
X52730400Y-81165700D03*
D18*
X92481400Y-86182200D03*
X92481400Y-83682200D03*
D19*
X50038000Y-51993800D03*
D20*
X89311000Y-87757000D03*
X74011000Y-87757000D03*
D21*
X81661000Y-87757000D03*
D22*
X62179200Y-95669100D03*
D23*
X59639200Y-95669100D03*
D22*
X91294800Y-93662900D03*
D23*
X93834800Y-93662900D03*
D24*
X25298798Y-53266118D03*
X25298798Y-60366118D03*
D25*
X37896940Y-46788400D03*
X31897460Y-46788400D03*
X34897200Y-51487400D03*
D18*
X90957400Y-76711200D03*
X90957400Y-71831200D03*
D26*
X65176400Y-57988200D03*
D27*
X65176400Y-60528200D03*
X62636400Y-57988200D03*
X62636400Y-60528200D03*
X60096400Y-57988200D03*
X60096400Y-60528200D03*
M02*
