%TF.GenerationSoftware,KiCad,Pcbnew,4.0.5-e0-6337~49~ubuntu16.04.1*%
%TF.CreationDate,2017-08-06T11:23:39-07:00*%
%TF.ProjectId,mcphail-main-board,6D63706861696C2D6D61696E2D626F61,1.0*%
%TF.FileFunction,Paste,Top*%
%FSLAX46Y46*%
G04 Gerber Fmt 4.6, Leading zero omitted, Abs format (unit mm)*
G04 Created by KiCad (PCBNEW 4.0.5-e0-6337~49~ubuntu16.04.1) date Sun Aug  6 11:23:39 2017*
%MOMM*%
%LPD*%
G01*
G04 APERTURE LIST*
%ADD10C,0.350000*%
%ADD11R,1.147600X0.097600*%
%ADD12R,0.097600X1.147600*%
%ADD13R,0.847600X1.097600*%
%ADD14R,0.647600X0.597600*%
%ADD15R,0.847600X1.447600*%
%ADD16R,1.097600X0.847600*%
%ADD17R,0.847600X2.347600*%
%ADD18R,1.447600X0.847600*%
%ADD19R,0.597600X0.647600*%
%ADD20R,2.347600X0.847600*%
%ADD21R,2.346960X1.648460*%
%ADD22R,1.648460X2.346960*%
%ADD23R,0.847600X2.847600*%
%ADD24R,1.247600X0.747600*%
%ADD25R,1.047600X0.997600*%
%ADD26R,1.297600X1.047600*%
%ADD27R,0.547600X0.847600*%
%ADD28R,0.847600X0.547600*%
%ADD29R,1.197600X0.247600*%
%ADD30R,1.247600X1.447600*%
%ADD31R,1.747600X1.747600*%
%ADD32R,0.847600X3.347600*%
%ADD33R,1.447600X3.247600*%
%ADD34R,0.747600X1.047600*%
%ADD35R,0.449200X0.549200*%
%ADD36R,1.547600X0.647600*%
%ADD37R,1.347600X0.447600*%
%ADD38R,0.497600X1.597600*%
%ADD39R,0.577600X0.147600*%
%ADD40R,0.147600X0.577600*%
%ADD41R,0.597600X0.597600*%
%ADD42R,0.697600X0.147600*%
%ADD43R,0.497600X0.747600*%
%ADD44R,0.647700X0.647700*%
%ADD45R,1.752600X1.244600*%
%ADD46R,0.907600X0.497600*%
%ADD47R,1.247600X0.147600*%
G04 APERTURE END LIST*
D10*
D11*
X207340298Y-63136958D03*
X207340298Y-63636958D03*
X207340298Y-64136958D03*
X207340298Y-64636958D03*
X207340298Y-65136958D03*
X207340298Y-65636958D03*
X207340298Y-66136958D03*
X207340298Y-66636958D03*
X207340298Y-67136958D03*
X207340298Y-67636958D03*
X207340298Y-68136958D03*
X207340298Y-68636958D03*
D12*
X208940298Y-70236958D03*
X209440298Y-70236958D03*
X209940298Y-70236958D03*
X210440298Y-70236958D03*
X210940298Y-70236958D03*
X211440298Y-70236958D03*
X211940298Y-70236958D03*
X212440298Y-70236958D03*
X212940298Y-70236958D03*
X213440298Y-70236958D03*
X213940298Y-70236958D03*
X214440298Y-70236958D03*
D11*
X216040298Y-68636958D03*
X216040298Y-68136958D03*
X216040298Y-67636958D03*
X216040298Y-67136958D03*
X216040298Y-66636958D03*
X216040298Y-66136958D03*
X216040298Y-65636958D03*
X216040298Y-65136958D03*
X216040298Y-64636958D03*
X216040298Y-64136958D03*
X216040298Y-63636958D03*
X216040298Y-63136958D03*
D12*
X214440298Y-61536958D03*
X213940298Y-61536958D03*
X213440298Y-61536958D03*
X212940298Y-61536958D03*
X212440298Y-61536958D03*
X211940298Y-61536958D03*
X211440298Y-61536958D03*
X210940298Y-61536958D03*
X210440298Y-61536958D03*
X209940298Y-61536958D03*
X209440298Y-61536958D03*
X208940298Y-61536958D03*
D13*
X176629056Y-89458214D03*
X174629056Y-89458214D03*
D14*
X193611500Y-85140800D03*
X192111500Y-85140800D03*
X225591500Y-88011000D03*
X224091500Y-88011000D03*
D15*
X177683156Y-93928614D03*
X174683156Y-93928614D03*
X234214700Y-85200100D03*
X237214700Y-85200100D03*
D14*
X237004700Y-89495100D03*
X235504700Y-89495100D03*
D16*
X211366100Y-90122500D03*
X211366100Y-92122500D03*
D14*
X194156200Y-90093800D03*
X195656200Y-90093800D03*
D17*
X195503800Y-87617300D03*
X192503800Y-87617300D03*
D18*
X232234700Y-92845100D03*
X232234700Y-89845100D03*
D14*
X197874362Y-94056162D03*
X196374362Y-94056162D03*
D16*
X211366100Y-86296500D03*
X211366100Y-88296500D03*
D19*
X192544700Y-91707400D03*
X192544700Y-90207400D03*
D18*
X224316100Y-91895800D03*
X224316100Y-94895800D03*
D19*
X195567300Y-83527900D03*
X195567300Y-85027900D03*
D15*
X229630100Y-95186500D03*
X226630100Y-95186500D03*
D13*
X223354900Y-89941400D03*
X225354900Y-89941400D03*
D17*
X195008500Y-80860900D03*
X198008500Y-80860900D03*
D20*
X229146100Y-90130500D03*
X229146100Y-93130500D03*
X229146100Y-85304500D03*
X229146100Y-88304500D03*
D19*
X207010000Y-83273200D03*
X207010000Y-84773200D03*
D20*
X225856800Y-83309200D03*
X225856800Y-86309200D03*
D15*
X220304100Y-82740500D03*
X223304100Y-82740500D03*
D20*
X202946000Y-76859000D03*
X202946000Y-79859000D03*
D18*
X213398100Y-86042500D03*
X213398100Y-83042500D03*
D15*
X210374100Y-80708500D03*
X213374100Y-80708500D03*
D19*
X178407056Y-89812414D03*
X178407056Y-91312414D03*
D14*
X207732500Y-87490300D03*
X209232500Y-87490300D03*
D19*
X205193900Y-92087700D03*
X205193900Y-90587700D03*
D16*
X205447900Y-88728300D03*
X205447900Y-86728300D03*
D19*
X197728298Y-69153958D03*
X197728298Y-70653958D03*
D16*
X203149298Y-66326958D03*
X203149298Y-64326958D03*
D19*
X211074098Y-76024358D03*
X211074098Y-74524358D03*
D16*
X212575298Y-59036958D03*
X212575298Y-57036958D03*
D19*
X220014898Y-72949558D03*
X220014898Y-74449558D03*
X218262298Y-62117158D03*
X218262298Y-63617158D03*
X210413600Y-59131200D03*
X210413600Y-57631200D03*
D14*
X209575498Y-72810558D03*
X211075498Y-72810558D03*
X194897558Y-71043502D03*
X193397558Y-71043502D03*
X232895200Y-71352600D03*
X231395200Y-71352600D03*
D19*
X237162400Y-70539800D03*
X237162400Y-72039800D03*
D14*
X227509000Y-71352600D03*
X229009000Y-71352600D03*
D18*
X187250000Y-59310000D03*
X187250000Y-62310000D03*
D15*
X190965960Y-44958000D03*
X193965960Y-44958000D03*
D18*
X196756020Y-47780200D03*
X196756020Y-44780200D03*
D16*
X211209680Y-49815340D03*
X211209680Y-47815340D03*
D14*
X219718680Y-52488940D03*
X221218680Y-52488940D03*
X222957180Y-53479540D03*
X224457180Y-53479540D03*
D13*
X231800000Y-45610000D03*
X233800000Y-45610000D03*
X233600000Y-51610000D03*
X231600000Y-51610000D03*
D14*
X217475298Y-56236958D03*
X218975298Y-56236958D03*
D19*
X205075298Y-66136958D03*
X205075298Y-64636958D03*
D16*
X213444880Y-49780540D03*
X213444880Y-47780540D03*
D20*
X228532480Y-48424940D03*
X228532480Y-45424940D03*
X224722480Y-48424940D03*
X224722480Y-45424940D03*
X220912480Y-48424940D03*
X220912480Y-45424940D03*
D21*
X184248980Y-61135260D03*
X180251020Y-61135260D03*
D19*
X175367280Y-58343020D03*
X175367280Y-56843020D03*
X175347280Y-61883020D03*
X175347280Y-63383020D03*
D22*
X186664600Y-44498260D03*
X186664600Y-48496220D03*
D23*
X182573960Y-56781700D03*
X177973960Y-56781700D03*
D24*
X236369100Y-45075500D03*
D25*
X246634000Y-45212000D03*
D26*
X236394100Y-47375500D03*
D25*
X246634000Y-47812000D03*
D27*
X244034000Y-48852000D03*
X245134000Y-48852000D03*
X242934000Y-48852000D03*
X241834000Y-48852000D03*
X240734000Y-48852000D03*
X237434000Y-48852000D03*
X238534000Y-48852000D03*
X239634000Y-48852000D03*
D28*
X236169100Y-46225500D03*
D29*
X172245798Y-59656318D03*
X172245798Y-60306318D03*
X172245798Y-60955418D03*
X172245798Y-61606318D03*
X172245798Y-62256318D03*
D30*
X172020798Y-57756318D03*
D31*
X169570798Y-59756318D03*
X169570798Y-62156318D03*
D30*
X172020798Y-64156318D03*
D32*
X205549960Y-50340520D03*
X203549960Y-50340520D03*
D33*
X207949960Y-44790520D03*
X201149960Y-44790520D03*
D13*
X175367280Y-65343020D03*
X177367280Y-65343020D03*
D34*
X218198480Y-45859540D03*
X215498480Y-45859540D03*
D16*
X196215000Y-73025000D03*
X196215000Y-75025000D03*
D13*
X200506298Y-66232958D03*
X198506298Y-66232958D03*
D19*
X194449700Y-57548780D03*
X194449700Y-59048780D03*
X192681860Y-57548780D03*
X192681860Y-59048780D03*
X190858140Y-57548780D03*
X190858140Y-59048780D03*
X175920000Y-70670000D03*
X175920000Y-69170000D03*
D14*
X234104700Y-87455100D03*
X235604700Y-87455100D03*
D19*
X213398100Y-88606500D03*
X213398100Y-90106500D03*
X213398100Y-91896500D03*
X213398100Y-93396500D03*
D14*
X195632200Y-91782900D03*
X194132200Y-91782900D03*
X199566400Y-94043500D03*
X201066400Y-94043500D03*
X216422100Y-94678500D03*
X214922100Y-94678500D03*
X192925700Y-94056200D03*
X194425700Y-94056200D03*
X219651208Y-94678500D03*
X218151208Y-94678500D03*
X193599500Y-83451700D03*
X192099500Y-83451700D03*
D19*
X226566100Y-93040500D03*
X226566100Y-91540500D03*
D14*
X199859200Y-82524600D03*
X201359200Y-82524600D03*
D19*
X205244700Y-83323300D03*
X205244700Y-84823300D03*
X223304100Y-84796500D03*
X223304100Y-86296500D03*
D14*
X218454100Y-82994500D03*
X216954100Y-82994500D03*
X175854356Y-87515114D03*
X174354356Y-87515114D03*
D19*
X172679356Y-85761114D03*
X172679356Y-87261114D03*
D13*
X174701956Y-91617214D03*
X176701956Y-91617214D03*
X177162456Y-96392414D03*
X175162456Y-96392414D03*
D14*
X175930556Y-85775214D03*
X174430556Y-85775214D03*
X209842100Y-84518500D03*
X211342100Y-84518500D03*
D19*
X178394356Y-85799214D03*
X178394356Y-87299214D03*
D14*
X209842100Y-82740500D03*
X211342100Y-82740500D03*
D19*
X189913256Y-87235714D03*
X189913256Y-85735714D03*
D14*
X206882300Y-90589100D03*
X208382300Y-90589100D03*
D19*
X187995556Y-85799914D03*
X187995556Y-87299914D03*
D14*
X206819500Y-92341700D03*
X208319500Y-92341700D03*
X202754100Y-94043500D03*
X204254100Y-94043500D03*
X217450298Y-59616958D03*
X218950298Y-59616958D03*
D19*
X207721200Y-55981600D03*
X207721200Y-54481600D03*
D14*
X218950298Y-57936958D03*
X217450298Y-57936958D03*
D19*
X219826298Y-68645958D03*
X219826298Y-67145958D03*
X221604298Y-68645958D03*
X221604298Y-67145958D03*
D14*
X203062298Y-72963958D03*
X204562298Y-72963958D03*
D19*
X237162400Y-64189800D03*
X237162400Y-65689800D03*
X184500000Y-56128220D03*
X184500000Y-57628220D03*
X194419220Y-55032340D03*
X194419220Y-53532340D03*
X192674240Y-55026560D03*
X192674240Y-53526560D03*
X190858140Y-55048280D03*
X190858140Y-53548280D03*
D35*
X189423040Y-50929540D03*
X189423040Y-52029540D03*
D14*
X196522340Y-49872900D03*
X198022340Y-49872900D03*
X196526720Y-51696620D03*
X198026720Y-51696620D03*
X226171680Y-50355340D03*
X224671680Y-50355340D03*
D19*
X223046080Y-50328540D03*
X223046080Y-51828540D03*
X226068680Y-51992240D03*
X226068680Y-53492240D03*
D36*
X221675298Y-56436958D03*
X221675298Y-59836958D03*
D37*
X221241208Y-92650274D03*
X221241208Y-91380274D03*
X221241208Y-90110274D03*
X221241208Y-88840274D03*
X221241208Y-87570274D03*
X221241208Y-86300274D03*
X221241208Y-85030274D03*
X215841208Y-85030274D03*
X215841208Y-86300274D03*
X215841208Y-87570274D03*
X215841208Y-88840274D03*
X215841208Y-90110274D03*
X215841208Y-91380274D03*
X215841208Y-92650274D03*
X203085700Y-92036900D03*
X203085700Y-90766900D03*
X203085700Y-89496900D03*
X203085700Y-88226900D03*
X203085700Y-86956900D03*
X203085700Y-85686900D03*
X203085700Y-84416900D03*
X197685700Y-84416900D03*
X197685700Y-85686900D03*
X197685700Y-86956900D03*
X197685700Y-88226900D03*
X197685700Y-89496900D03*
X197685700Y-90766900D03*
X197685700Y-92036900D03*
X180477156Y-86054614D03*
X180477156Y-87324614D03*
X180477156Y-88594614D03*
X180477156Y-89864614D03*
X180477156Y-91134614D03*
X180477156Y-92404614D03*
X180477156Y-93674614D03*
X185877156Y-93674614D03*
X185877156Y-92404614D03*
X185877156Y-91134614D03*
X185877156Y-89864614D03*
X185877156Y-88594614D03*
X185877156Y-87324614D03*
X185877156Y-86054614D03*
D38*
X194750958Y-63377702D03*
X193480958Y-63377702D03*
X192210958Y-63377702D03*
X190940958Y-63377702D03*
X190940958Y-68977702D03*
X192210958Y-68977702D03*
X193480958Y-68977702D03*
X194750958Y-68977702D03*
X229542400Y-61909800D03*
X230812400Y-61909800D03*
X232082400Y-61909800D03*
X233352400Y-61909800D03*
X233352400Y-56309800D03*
X232082400Y-56309800D03*
X230812400Y-56309800D03*
X229542400Y-56309800D03*
D39*
X190795140Y-47899220D03*
X190795140Y-48399220D03*
X190795140Y-48899220D03*
X190795140Y-49399220D03*
X190795140Y-49899220D03*
D40*
X191760140Y-50864220D03*
X192260140Y-50864220D03*
X192760140Y-50864220D03*
X193260140Y-50864220D03*
X193760140Y-50864220D03*
D39*
X194725140Y-49899220D03*
X194725140Y-49399220D03*
X194725140Y-48899220D03*
X194725140Y-48399220D03*
X194725140Y-47899220D03*
D40*
X193760140Y-46934220D03*
X193260140Y-46934220D03*
X192760140Y-46934220D03*
X192260140Y-46934220D03*
X191760140Y-46934220D03*
D41*
X193385140Y-49524220D03*
X193385140Y-48274220D03*
X192135140Y-49524220D03*
X192135140Y-48274220D03*
D42*
X215375280Y-49415540D03*
X215375280Y-49915540D03*
X215375280Y-50415540D03*
X215375280Y-50915540D03*
X215375280Y-51415540D03*
X218225280Y-51415540D03*
X218225280Y-50915540D03*
X218225280Y-50415540D03*
X218225280Y-49915540D03*
X218225280Y-49415540D03*
D43*
X217181280Y-51050540D03*
X217181280Y-49780540D03*
X216419280Y-49780540D03*
X216419280Y-51050540D03*
D44*
X231650000Y-49608980D03*
X233550000Y-49608980D03*
X232600000Y-47610000D03*
D45*
X217742698Y-73303158D03*
X213272298Y-73303158D03*
X217742698Y-75792358D03*
X213272298Y-75792358D03*
D46*
X234589808Y-91094874D03*
X234589808Y-92044874D03*
X234589808Y-92994874D03*
X236789808Y-92994874D03*
X236789808Y-91094874D03*
D47*
X204104298Y-70748958D03*
X204104298Y-70248958D03*
X204104298Y-69748958D03*
X204104298Y-69248958D03*
X204104298Y-68748958D03*
X199704298Y-68748958D03*
X199704298Y-69248958D03*
X199704298Y-69748958D03*
X199704298Y-70248958D03*
X199704298Y-70748958D03*
M02*
