%TF.GenerationSoftware,KiCad,Pcbnew,4.0.5-e0-6337~49~ubuntu16.04.1*%
%TF.CreationDate,2017-07-27T13:02:09-07:00*%
%TF.ProjectId,mcphail-main-board,6D63706861696C2D6D61696E2D626F61,1.0*%
%TF.FileFunction,Legend,Bot*%
%FSLAX46Y46*%
G04 Gerber Fmt 4.6, Leading zero omitted, Abs format (unit mm)*
G04 Created by KiCad (PCBNEW 4.0.5-e0-6337~49~ubuntu16.04.1) date Thu Jul 27 13:02:09 2017*
%MOMM*%
%LPD*%
G01*
G04 APERTURE LIST*
%ADD10C,0.350000*%
%ADD11R,2.184400X2.184400*%
%ADD12O,2.184400X2.184400*%
%ADD13R,2.184400X1.879600*%
%ADD14O,2.184400X1.879600*%
%ADD15C,1.352400*%
%ADD16C,1.676400*%
%ADD17C,4.152400*%
%ADD18C,1.879600*%
%ADD19C,1.752400*%
G04 APERTURE END LIST*
D10*
%LPC*%
D11*
X57158762Y-78149000D03*
D12*
X57158762Y-80689000D03*
D11*
X83836381Y-61389000D03*
D12*
X83836381Y-63929000D03*
D13*
X53659000Y-59299001D03*
D14*
X53659000Y-61839001D03*
X53659000Y-64379001D03*
X53659000Y-66919001D03*
X53659000Y-69459001D03*
X53659000Y-71999001D03*
D15*
X77289001Y-46365201D03*
X84389001Y-46365201D03*
D13*
X73459000Y-31919401D03*
D14*
X73459000Y-34459401D03*
X73459000Y-36999401D03*
X73459000Y-39539401D03*
X73459000Y-42079401D03*
D16*
X52870201Y-20569000D03*
X55410201Y-20569000D03*
X57950201Y-20569000D03*
X60490201Y-20569000D03*
X63030201Y-20569000D03*
X65570201Y-20569000D03*
X68110201Y-20569000D03*
X70650201Y-20569000D03*
X73190201Y-20569000D03*
X75730201Y-20569000D03*
X78270201Y-20569000D03*
X80810201Y-20569000D03*
X83350201Y-20569000D03*
X85890201Y-20569000D03*
X88430201Y-20569000D03*
X90970201Y-20569000D03*
D17*
X68473741Y-106360401D03*
X62474261Y-106360401D03*
X65474001Y-111059401D03*
D13*
X54029000Y-25509401D03*
D14*
X54029000Y-28049401D03*
X54029000Y-30589401D03*
X54029000Y-33129401D03*
X54029000Y-35669401D03*
X54029000Y-38209401D03*
X54029000Y-40749401D03*
X54029000Y-43289401D03*
X54029000Y-45829401D03*
X54029000Y-48369401D03*
D18*
X74179000Y-104371400D03*
D19*
X90925601Y-38595601D03*
X95805601Y-38595601D03*
M02*
