M48
;DRILL file {KiCad 4.0.5-e0-6337~49~ubuntu16.04.1} date Sun Aug  6 11:23:39 2017
;FORMAT={-:-/ absolute / metric / decimal}
FMAT,2
METRIC,TZ
T1C0.330
T2C0.762
T3C0.800
T4C1.016
T5C1.200
T6C3.000
%
G90
G05
M71
T1
X170.434Y-73.406
X171.638Y-87.287
X173.645Y-90.462
X175.768Y-73.406
X176.367Y-56.843
X176.467Y-63.443
X177.367Y-63.943
X178.397Y-92.191
X179.172Y-89.865
X180.823Y-84.62
X182.118Y-73.406
X183.562Y-84.418
X184.655Y-89.839
X187.259Y-89.865
X189.846Y-48.9
X190.Y-46.31
X190.Y-47.06
X190.906Y-65.227
X190.95Y-47.06
X190.966Y-46.31
X191.584Y-48.905
X191.734Y-59.049
X191.795Y-90.208
X192.728Y-44.214
X192.76Y-45.095
X192.76Y-45.893
X192.766Y-47.861
X192.797Y-49.953
X193.396Y-67.716
X193.584Y-59.049
X193.814Y-48.892
X193.954Y-87.541
X194.683Y-51.681
X194.706Y-50.65
X194.945Y-75.184
X195.148Y-92.812
X195.199Y-44.958
X195.656Y-89.281
X196.831Y-67.688
X196.966Y-70.678
X197.771Y-67.688
X197.993Y-73.025
X198.027Y-50.8
X198.412Y-92.934
X199.06Y-88.163
X199.628Y-71.478
X200.938Y-70.014
X201.422Y-68.58
X201.93Y-74.803
X201.93Y-86.957
X202.42Y-48.994
X202.42Y-50.289
X202.463Y-51.625
X202.698Y-69.742
X204.241Y-65.418
X204.241Y-66.137
X205.418Y-68.003
X205.652Y-69.622
X205.677Y-71.438
X205.74Y-68.637
X206.48Y-72.089
X206.515Y-88.811
X207.264Y-85.852
X208.269Y-71.059
X209.55Y-69.025
X209.55Y-89.37
X209.55Y-96.52
X209.575Y-73.827
X210.045Y-88.303
X210.058Y-49.784
X210.172Y-92.138
X210.312Y-62.738
X211.023Y-73.674
X211.226Y-57.037
X211.489Y-71.099
X211.597Y-62.737
X211.775Y-68.937
X212.275Y-60.237
X212.344Y-47.781
X212.509Y-93.396
X212.593Y-72.089
X212.636Y-88.633
X212.775Y-68.937
X213.157Y-64.198
X213.157Y-65.138
X213.675Y-71.937
X213.875Y-68.937
X215.616Y-88.608
X216.366Y-47.155
X216.366Y-48.019
X216.408Y-53.594
X216.662Y-52.324
X216.899Y-46.317
X217.106Y-88.786
X217.175Y-63.617
X217.28Y-47.18
X217.28Y-48.044
X217.678Y-64.77
X217.678Y-65.532
X218.694Y-65.278
X218.694Y-67.31
X218.948Y-66.04
X219.195Y-45.453
X219.275Y-63.641
X219.278Y-62.168
X219.875Y-57.937
X220.091Y-56.388
X220.256Y-88.837
X220.553Y-62.484
X221.219Y-51.703
X222.288Y-88.837
X222.792Y-45.425
X223.063Y-88.049
X225.869Y-60.008
X226.704Y-45.425
X226.822Y-59.182
X226.898Y-89.954
X228.219Y-60.706
X230.412Y-45.453
X230.505Y-49.276
X233.426Y-47.498
X233.55Y-50.546
X235.505Y-92.465
X235.712Y-88.392
X236.22Y-72.136
X236.601Y-52.197
X236.817Y-91.732
X237.02Y-88.837
X240.03Y-59.436
X240.792Y-47.752
X242.824Y-47.752
X243.078Y-50.292
X247.65Y-59.69
T2
X244.602Y-52.832
X244.602Y-55.372
X244.602Y-57.912
X244.602Y-60.452
X244.602Y-62.992
X244.602Y-65.532
X244.602Y-68.072
X244.602Y-70.612
X244.602Y-73.152
X244.602Y-75.692
X244.602Y-78.232
X244.602Y-80.772
X244.602Y-83.312
X244.602Y-85.852
X244.602Y-88.392
X244.602Y-90.932
T3
X182.31Y-69.4
X184.81Y-69.4
X227.891Y-67.339
X232.771Y-67.339
T4
X172.11Y-68.13
X172.11Y-70.67
X174.14Y-77.
X176.68Y-77.
X179.22Y-77.
X181.76Y-77.
X184.3Y-77.
X186.84Y-77.
X187.358Y-54.516
X199.796Y-55.575
X199.796Y-58.115
X202.336Y-55.575
X202.336Y-58.115
X204.876Y-55.575
X204.876Y-58.115
X235.19Y-81.955
X237.73Y-81.955
T5
X169.571Y-57.406
X169.571Y-64.506
T6
X175.753Y-47.688
X178.752Y-52.387
X181.752Y-47.688
T0
M30
