M48
;DRILL file {KiCad 4.0.5-e0-6337~49~ubuntu16.04.1} date Tue Jul 25 12:16:49 2017
;FORMAT={-:-/ absolute / metric / decimal}
FMAT,2
METRIC,TZ
T1C0.762
T2C0.800
T3C1.016
T4C1.200
T5C3.000
%
G90
G05
M71
T1
X76.848Y-74.371
X79.388Y-74.371
X81.928Y-74.371
X84.468Y-74.371
X87.008Y-74.371
X89.548Y-74.371
X92.088Y-74.371
X94.628Y-74.371
X97.168Y-74.371
X99.708Y-74.371
X102.248Y-74.371
X104.788Y-74.371
X107.328Y-74.371
X109.868Y-74.371
X112.408Y-74.371
X114.948Y-74.371
T2
X89.423Y-101.238
X94.303Y-101.238
T3
X77.636Y-113.912
X77.636Y-116.452
X77.636Y-118.992
X77.636Y-121.532
X77.636Y-124.072
X77.636Y-126.612
X81.136Y-132.761
X81.136Y-135.302
X107.814Y-116.001
X107.814Y-118.541
X112.815Y-79.646
X112.815Y-82.186
X112.815Y-84.726
X115.355Y-79.646
X115.355Y-82.186
X115.355Y-84.726
X134.106Y-139.594
T4
X99.527Y-100.138
X106.627Y-100.138
T5
X144.78Y-72.741
X144.78Y-78.74
X149.479Y-75.74
T0
M30
